<?xml version="1.0" encoding="UTF-8" standalone="no"?>
<!-- Created with Inkscape (http://www.inkscape.org/) -->

<svg
   xmlns:dc="http://purl.org/dc/elements/1.1/"
   xmlns:cc="http://creativecommons.org/ns#"
   xmlns:rdf="http://www.w3.org/1999/02/22-rdf-syntax-ns#"
   xmlns:svg="http://www.w3.org/2000/svg"
   xmlns="http://www.w3.org/2000/svg"
   xmlns:xlink="http://www.w3.org/1999/xlink"
   xmlns:sodipodi="http://sodipodi.sourceforge.net/DTD/sodipodi-0.dtd"
   xmlns:inkscape="http://www.inkscape.org/namespaces/inkscape"
   width="744.09448819"
   height="1052.3622047"
   id="svg7664"
   version="1.1"
   inkscape:version="0.48.3.1 r9886"
   sodipodi:docname="entirelysubjective.svg">
  <defs
     id="defs7666">
    <clipPath
       id="clipPath3975"
       clipPathUnits="userSpaceOnUse">
      <path
         sodipodi:nodetypes="ccccc"
         inkscape:connector-curvature="0"
         id="path3977"
         d="m 418.21428,271.29076 65,96.7857 -50.35714,31.07144 -64.28571,-97.5 z"
         style="fill:none;stroke:#000000;stroke-width:1px;stroke-linecap:butt;stroke-linejoin:miter;stroke-opacity:1" />
    </clipPath>
    <clipPath
       id="clipPath16960"
       clipPathUnits="userSpaceOnUse">
      <path
         sodipodi:nodetypes="ccccc"
         style="fill:none;stroke:#d23838;stroke-width:1px;stroke-linecap:butt;stroke-linejoin:miter;stroke-opacity:1"
         d="m 211.87949,626.26721 c 0.0631,-4.35628 -0.0632,-103.35124 -0.0632,-103.35124 l -33.01935,0.63135 10.6066,102.53049 z"
         id="path16962"
         inkscape:connector-curvature="0" />
    </clipPath>
    <clipPath
       id="clipPath4924"
       clipPathUnits="userSpaceOnUse">
      <path
         sodipodi:nodetypes="ccccc"
         style="fill:none;stroke:#d23838;stroke-width:1px;stroke-linecap:butt;stroke-linejoin:miter;stroke-opacity:1"
         d="m 211.87949,626.26721 c 0.0631,-4.35628 -0.0632,-103.35124 -0.0632,-103.35124 l -33.01935,0.63135 10.6066,102.53049 z"
         id="path4926"
         inkscape:connector-curvature="0" />
    </clipPath>
    <marker
       inkscape:stockid="Arrow2Send"
       orient="auto"
       refY="0"
       refX="0"
       id="Arrow2Send"
       style="overflow:visible">
      <path
         inkscape:connector-curvature="0"
         id="path11768"
         style="font-size:12px;fill-rule:evenodd;stroke-width:0.625;stroke-linejoin:round"
         d="M 8.7185878,4.0337352 -2.2072895,0.01601326 8.7185884,-4.0017078 c -1.7454984,2.3720609 -1.7354408,5.6174519 -6e-7,8.035443 z"
         transform="matrix(-0.3,0,0,-0.3,0.69,0)" />
    </marker>
    <marker
       inkscape:stockid="Arrow2Send"
       orient="auto"
       refY="0"
       refX="0"
       id="marker4930"
       style="overflow:visible">
      <path
         inkscape:connector-curvature="0"
         id="path4932"
         style="font-size:12px;fill-rule:evenodd;stroke-width:0.625;stroke-linejoin:round"
         d="M 8.7185878,4.0337352 -2.2072895,0.01601326 8.7185884,-4.0017078 c -1.7454984,2.3720609 -1.7354408,5.6174519 -6e-7,8.035443 z"
         transform="matrix(-0.3,0,0,-0.3,0.69,0)" />
    </marker>
    <clipPath
       id="clipPath8825"
       clipPathUnits="userSpaceOnUse">
      <path
         id="path8827"
         d="m 0,1885.335 2976.12,0 0,-1885.32 -2976.12,0 0,1885.32 z" />
    </clipPath>
    <clipPath
       id="clipPath8819"
       clipPathUnits="userSpaceOnUse">
      <path
         id="path8821"
         d="M 2976.13,1885.32 0,1885.32 0,0 l 2976.13,0 0,1885.32 z" />
    </clipPath>
    <radialGradient
       r="51.5"
       fy="-31.994848"
       fx="28.970236"
       cy="-31.994848"
       cx="28.970236"
       gradientTransform="matrix(-1.17693, 1.06421, -0.875392, -0.968111, 28.5696, -84.3345)"
       gradientUnits="userSpaceOnUse"
       id="radialGradient2852"
       xlink:href="#linearGradient2718"
       inkscape:collect="always" />
    <radialGradient
       r="51.5"
       fy="-31.994848"
       fx="28.970236"
       cy="-31.994848"
       cx="28.970236"
       gradientTransform="matrix(-1.17693, 1.06421, -0.875392, -0.968111, 28.5696, -84.3345)"
       gradientUnits="userSpaceOnUse"
       id="radialGradient2850"
       xlink:href="#linearGradient2718"
       inkscape:collect="always" />
    <radialGradient
       r="51.5"
       fy="-31.994848"
       fx="28.970236"
       cy="-31.994848"
       cx="28.970236"
       gradientTransform="matrix(-1.17693, 1.06421, -0.875392, -0.968111, 28.5696, -84.3345)"
       gradientUnits="userSpaceOnUse"
       id="radialGradient2848"
       xlink:href="#linearGradient2718"
       inkscape:collect="always" />
    <radialGradient
       r="51.5"
       fy="-31.994848"
       fx="28.970236"
       cy="-31.994848"
       cx="28.970236"
       gradientTransform="matrix(-1.17693, 1.06421, -0.875392, -0.968111, 28.5696, -84.3345)"
       gradientUnits="userSpaceOnUse"
       id="radialGradient2846"
       xlink:href="#linearGradient2718"
       inkscape:collect="always" />
    <radialGradient
       r="51.5"
       fy="-31.994848"
       fx="28.970236"
       cy="-31.994848"
       cx="28.970236"
       gradientTransform="matrix(-1.17693, 1.06421, -0.875392, -0.968111, 28.5696, -84.3345)"
       gradientUnits="userSpaceOnUse"
       id="radialGradient2844"
       xlink:href="#linearGradient2718"
       inkscape:collect="always" />
    <radialGradient
       r="51.5"
       fy="-31.994848"
       fx="28.970236"
       cy="-31.994848"
       cx="28.970236"
       gradientTransform="matrix(-1.17693, 1.06421, -0.875392, -0.968111, 28.5696, -84.3345)"
       gradientUnits="userSpaceOnUse"
       id="radialGradient2842"
       xlink:href="#linearGradient2718"
       inkscape:collect="always" />
    <radialGradient
       r="51.5"
       fy="-31.994848"
       fx="28.970236"
       cy="-31.994848"
       cx="28.970236"
       gradientTransform="matrix(-1.17693, 1.06421, -0.875392, -0.968111, 28.5696, -84.3345)"
       gradientUnits="userSpaceOnUse"
       id="radialGradient2840"
       xlink:href="#linearGradient2718"
       inkscape:collect="always" />
    <radialGradient
       r="51.5"
       fy="-31.994848"
       fx="28.970236"
       cy="-31.994848"
       cx="28.970236"
       gradientTransform="matrix(-1.17693, 1.06421, -0.875392, -0.968111, 28.5696, -84.3345)"
       gradientUnits="userSpaceOnUse"
       id="radialGradient2838"
       xlink:href="#linearGradient2718"
       inkscape:collect="always" />
    <radialGradient
       r="51.5"
       fy="-31.994848"
       fx="28.970236"
       cy="-31.994848"
       cx="28.970236"
       gradientTransform="matrix(-1.17693, 1.06421, -0.875392, -0.968111, 28.5696, -84.3345)"
       gradientUnits="userSpaceOnUse"
       id="radialGradient2836"
       xlink:href="#linearGradient2718"
       inkscape:collect="always" />
    <radialGradient
       r="51.5"
       fy="-31.994848"
       fx="28.970236"
       cy="-31.994848"
       cx="28.970236"
       gradientTransform="matrix(-1.17693, 1.06421, -0.875392, -0.968111, 28.5696, -84.3345)"
       gradientUnits="userSpaceOnUse"
       id="radialGradient2834"
       xlink:href="#linearGradient2718"
       inkscape:collect="always" />
    <radialGradient
       r="51.5"
       fy="-31.994848"
       fx="28.970236"
       cy="-31.994848"
       cx="28.970236"
       gradientTransform="matrix(-1.17693, 1.06421, -0.875392, -0.968111, 28.5696, -84.3345)"
       gradientUnits="userSpaceOnUse"
       id="radialGradient2832"
       xlink:href="#linearGradient2718"
       inkscape:collect="always" />
    <radialGradient
       r="51.5"
       fy="-31.994848"
       fx="28.970236"
       cy="-31.994848"
       cx="28.970236"
       gradientTransform="matrix(-1.17693, 1.06421, -0.875392, -0.968111, 28.5696, -84.3345)"
       gradientUnits="userSpaceOnUse"
       id="radialGradient2830"
       xlink:href="#linearGradient2718"
       inkscape:collect="always" />
    <radialGradient
       r="51.5"
       fy="-31.994848"
       fx="28.970236"
       cy="-31.994848"
       cx="28.970236"
       gradientTransform="matrix(-1.17693, 1.06421, -0.875392, -0.968111, 28.5696, -84.3345)"
       gradientUnits="userSpaceOnUse"
       id="radialGradient2828"
       xlink:href="#linearGradient2718"
       inkscape:collect="always" />
    <radialGradient
       r="51.5"
       fy="-31.994848"
       fx="28.970236"
       cy="-31.994848"
       cx="28.970236"
       gradientTransform="matrix(-1.17693, 1.06421, -0.875392, -0.968111, 28.5696, -84.3345)"
       gradientUnits="userSpaceOnUse"
       id="radialGradient2826"
       xlink:href="#linearGradient2718"
       inkscape:collect="always" />
    <radialGradient
       r="51.5"
       fy="-31.994848"
       fx="28.970236"
       cy="-31.994848"
       cx="28.970236"
       gradientTransform="matrix(-1.17693, 1.06421, -0.875392, -0.968111, 28.5696, -84.3345)"
       gradientUnits="userSpaceOnUse"
       id="radialGradient2824"
       xlink:href="#linearGradient2718"
       inkscape:collect="always" />
    <radialGradient
       r="51.5"
       fy="-31.994848"
       fx="28.970236"
       cy="-31.994848"
       cx="28.970236"
       gradientTransform="matrix(-1.17693, 1.06421, -0.875392, -0.968111, 28.5696, -84.3345)"
       gradientUnits="userSpaceOnUse"
       id="radialGradient2822"
       xlink:href="#linearGradient2718"
       inkscape:collect="always" />
    <radialGradient
       r="51.5"
       fy="-31.994848"
       fx="28.970236"
       cy="-31.994848"
       cx="28.970236"
       gradientTransform="matrix(-1.17693, 1.06421, -0.875392, -0.968111, 28.5696, -84.3345)"
       gradientUnits="userSpaceOnUse"
       id="radialGradient2820"
       xlink:href="#linearGradient2718"
       inkscape:collect="always" />
    <linearGradient
       id="linearGradient2718">
      <stop
         style="stop-color:white;stop-opacity:1;"
         offset="0"
         id="stop2720" />
      <stop
         id="stop2726"
         offset="0.36000001"
         style="stop-color:#e2e2ff;stop-opacity:1;" />
      <stop
         id="stop2045"
         offset="1"
         style="stop-color:white;stop-opacity:1;" />
    </linearGradient>
    <linearGradient
       id="linearGradient2568">
      <stop
         style="stop-color:#a05a2c;stop-opacity:1;"
         offset="0"
         id="stop2570" />
      <stop
         id="stop2572"
         offset="0"
         style="stop-color:#784321;stop-opacity:1;" />
      <stop
         style="stop-color:#cb743b;stop-opacity:1;"
         offset="0.75"
         id="stop2574" />
      <stop
         style="stop-color:#cc4343;stop-opacity:1;"
         offset="1"
         id="stop2576" />
    </linearGradient>
    <linearGradient
       id="linearGradient2578">
      <stop
         style="stop-color:#97b5c5;stop-opacity:1;"
         offset="0"
         id="stop2580" />
      <stop
         id="stop2582"
         offset="0.5"
         style="stop-color:#70a0ba;stop-opacity:1;" />
      <stop
         style="stop-color:#528baa;stop-opacity:1;"
         offset="0.75"
         id="stop2584" />
      <stop
         style="stop-color:white;stop-opacity:1;"
         offset="1"
         id="stop2586" />
    </linearGradient>
    <radialGradient
       inkscape:collect="always"
       xlink:href="#linearGradient10053"
       id="radialGradient2588"
       cx="344.22128"
       cy="131.70818"
       fx="344.22128"
       fy="131.70818"
       r="51.013924"
       gradientTransform="matrix(1, -1.07369e-07, 6.7215e-08, 0.626016, -9.44883, 43.9803)"
       gradientUnits="userSpaceOnUse" />
    <radialGradient
       inkscape:collect="always"
       xlink:href="#linearGradient10065"
       id="radialGradient2590"
       cx="344.46057"
       cy="118.4658"
       fx="344.46057"
       fy="118.4658"
       r="90.398148"
       gradientTransform="matrix(0.758564, 5.78791e-07, -1.83022e-07, 0.248316, 73.7166, 81.9621)"
       gradientUnits="userSpaceOnUse" />
    <radialGradient
       inkscape:collect="always"
       xlink:href="#linearGradient2718"
       id="radialGradient2724"
       cx="18.177361"
       cy="-27.236534"
       fx="18.177361"
       fy="-27.236534"
       r="51.5"
       gradientUnits="userSpaceOnUse"
       gradientTransform="matrix(-0.623447, 0.927513, -2.27448, -1.52886, -32.4388, -85.7373)" />
    <style
       type="text/css"
       id="style2593">      a {
  	fill: #005;
	font-size: 20px;
      }
      .arrow
      {
		fill:none;fill-opacity:0.75;stroke:black;stroke-width:1px;stroke-linecap:butt;stroke-linejoin:miter
      }
	  .numbers circle {fill:white;stroke:black;stroke-width:3;fill:url(#radialGradient2041)}
      .numbers text {font-size:56px;font-style:normal;font-weight:normal;fill:black;fill-opacity:1;stroke:none;stroke-width:1px;stroke-linecap:butt;stroke-linejoin:miter;stroke-opacity:1;font-family:Georgia}
  </style>
    <radialGradient
       inkscape:collect="always"
       xlink:href="#linearGradient2718"
       id="radialGradient2041"
       cx="28.970236"
       cy="-31.994848"
       fx="28.970236"
       fy="-31.994848"
       r="51.5"
       gradientUnits="userSpaceOnUse"
       gradientTransform="matrix(-1.17693, 1.06421, -0.875392, -0.968111, 28.5696, -84.3345)" />
    <radialGradient
       gradientUnits="userSpaceOnUse"
       gradientTransform="matrix(0.758564,5.78791e-7,-1.83022e-7,0.248316,73.7166,81.9621)"
       r="90.398148"
       fy="118.4658"
       fx="344.46057"
       cy="118.4658"
       cx="344.46057"
       id="radialGradient10071"
       xlink:href="#linearGradient10065"
       inkscape:collect="always" />
    <radialGradient
       gradientUnits="userSpaceOnUse"
       gradientTransform="matrix(1,-1.07369e-7,6.7215e-8,0.626016,-9.44883,43.9803)"
       r="51.013924"
       fy="131.70818"
       fx="344.22128"
       cy="131.70818"
       cx="344.22128"
       id="radialGradient10059"
       xlink:href="#linearGradient10053"
       inkscape:collect="always" />
    <style
       id="style"
       type="text/css">
      a {
  	fill: #005;
	font-size: 20px;
      }
      .arrow
      {
		fill:none;fill-opacity:0.75;stroke:black;stroke-width:1px;stroke-linecap:butt;stroke-linejoin:miter
      }
  </style>
    <linearGradient
       id="linearGradient10045">
      <stop
         id="stop10047"
         offset="0"
         style="stop-color:#b3b3b3;stop-opacity:1;" />
      <stop
         id="stop10049"
         offset="1"
         style="stop-color:white;stop-opacity:0;" />
    </linearGradient>
    <linearGradient
       id="linearGradient10053">
      <stop
         id="stop10055"
         offset="0"
         style="stop-color:#97b5c5;stop-opacity:1;" />
      <stop
         style="stop-color:#70a0ba;stop-opacity:1;"
         offset="0.5"
         id="stop10061" />
      <stop
         id="stop10063"
         offset="0.75"
         style="stop-color:#528baa;stop-opacity:1;" />
      <stop
         id="stop10057"
         offset="1"
         style="stop-color:white;stop-opacity:1;" />
    </linearGradient>
    <linearGradient
       id="linearGradient10065">
      <stop
         id="stop10067"
         offset="0"
         style="stop-color:#a05a2c;stop-opacity:1;" />
      <stop
         style="stop-color:#784321;stop-opacity:1;"
         offset="0"
         id="stop10073" />
      <stop
         id="stop10075"
         offset="0.75"
         style="stop-color:#cb743b;stop-opacity:1;" />
      <stop
         id="stop10069"
         offset="1"
         style="stop-color:#cc4343;stop-opacity:1;" />
    </linearGradient>
    <linearGradient
       id="linearGradient10092">
      <stop
         id="stop10094"
         offset="0"
         style="stop-color:#2b2b2b;stop-opacity:1;" />
      <stop
         style="stop-color:#6d6662;stop-opacity:1;"
         offset="0.5"
         id="stop10100" />
      <stop
         id="stop10096"
         offset="1"
         style="stop-color:#e4e4e4;stop-opacity:1;" />
    </linearGradient>
  </defs>
  <sodipodi:namedview
     id="base"
     pagecolor="#dfdfdf"
     bordercolor="#666666"
     borderopacity="1.0"
     inkscape:pageopacity="1"
     inkscape:pageshadow="2"
     inkscape:zoom="0.82840237"
     inkscape:cx="395.6759"
     inkscape:cy="705.38116"
     inkscape:document-units="px"
     inkscape:current-layer="layer1"
     showgrid="false"
     inkscape:window-width="1280"
     inkscape:window-height="948"
     inkscape:window-x="0"
     inkscape:window-y="24"
     inkscape:window-maximized="1" />
  <metadata
     id="metadata7669">
    <rdf:RDF>
      <cc:Work
         rdf:about="">
        <dc:format>image/svg+xml</dc:format>
        <dc:type
           rdf:resource="http://purl.org/dc/dcmitype/StillImage" />
        <dc:title />
      </cc:Work>
    </rdf:RDF>
  </metadata>
  <g
     inkscape:groupmode="layer"
     id="layer2"
     inkscape:label="Layer_eye" />
  <g
     inkscape:label="Layer 1"
     inkscape:groupmode="layer"
     id="layer1">
    <g
       id="g3377"
       transform="translate(0,125.76862)">
      <g
         id="g3864"
         transform="matrix(0.33535172,0,0,0.33535172,474.22966,20.306503)">
        <path
           transform="matrix(1.0158028,0,0,1.0158028,-478.45223,156.85351)"
           d="m 717.85712,750.57648 c 0,62.13203 -50.36797,112.5 -112.5,112.5 -62.13204,0 -112.5,-50.36797 -112.5,-112.5 0,-62.13204 50.36796,-112.5 112.5,-112.5 62.13203,0 112.5,50.36796 112.5,112.5 z"
           sodipodi:ry="112.5"
           sodipodi:rx="112.5"
           sodipodi:cy="750.57648"
           sodipodi:cx="605.35712"
           id="path2997"
           style="fill:none;stroke:#000000;stroke-width:9.84442997;stroke-miterlimit:4;stroke-opacity:1;stroke-dasharray:none"
           sodipodi:type="arc" />
        <path
           sodipodi:nodetypes="csssccccccccccccsscccccccccscsccccccc"
           inkscape:connector-curvature="0"
           id="path3767"
           d="m 122.72124,806.6126 c -11.36559,0.85422 -33.27133,6.11339 -51.78422,18.64081 -17.08221,11.55929 -28.2908,26.94607 -30.91589,31.71111 -0.37529,0.68122 -0.0716,1.78501 -0.28897,2.4896 -5.08222,16.47315 -1.46926,25.02164 6.38194,25.37276 6.72523,4.835 5.50852,19.70195 13.92857,22.32144 -2.99577,14.92146 -3.65706,22.50343 0,35.71428 7.72107,2.24492 12.01864,8.25569 15,15.71429 -2.04854,12.13164 -0.22353,21.35812 1.42857,30.71428 4.91276,4.49317 6.14412,10.56408 7.85715,16.42853 1.8586,3.0941 6.38281,2.4786 11.07142,3.2143 -1.05688,-5.8187 -1.43805,-8.819 0.35715,-11.78568 -0.042,-10.69608 6.59581,-16.57341 11.07143,-24.10714 l 17.67857,-7.50001 c -1.38614,-6.40886 3.78272,-13.11566 12.85714,-20 0.7786,-8.99342 -4.15097,-11.64442 -7.32143,-16.25 -2.42834,0.60196 -7.10294,2.13008 -8.8493,-0.56126 -2.16033,-3.32934 -4.58127,-6.27583 -9.60957,-5.8736 -3.45341,0.27625 -0.3647,-6.25748 -5.82684,-10.70799 -9.3602,-9.05494 -20.65363,-15.21003 -35.71429,-15.71429 -0.53489,4.19767 -3.38417,4.92373 -5.71428,6.42857 -7.85063,-2.69631 -7.94248,-10.16726 -10,-16.42857 -3.57831,-4.69636 -6.61373,-9.86775 -6.42858,-17.85714 4.05911,-13.01482 10.60505,-8.62181 16.42858,-9.28572 l 5,9.28572 c 4.00093,2.3047 4.55886,-3.17681 5.71428,-10.35715 6.49175,-7.44472 13.98529,-11.42358 24.28571,-15.53571 6.51436,1.36323 9.38767,-3.26551 9.9548,-5.81682 0.62312,-2.80318 6.61862,1.59315 9.33092,-0.43318 0.72644,-2.73618 2.8388,-4.4676 0.0901,-6.76961 -1.41022,-1.18107 -2.66431,-3.87402 -0.80443,-6.80182 -2.09419,-1.31083 -3.30876,-3.72118 -7.14285,-2.85714 l -13.57143,10.71428 c -3.56198,-0.39552 -6.79619,-1.16923 -4.28572,-8.57142 4.93843,-6.10014 11.2534,-8.89662 18.57143,-9.28572 l 7.14286,5 c 2.88083,-3.13338 5.37317,-6.42216 3.57143,-11.42857"
           style="fill:#000000;fill-opacity:1;stroke:#000000;stroke-width:1px;stroke-linecap:butt;stroke-linejoin:miter;stroke-opacity:1" />
        <path
           sodipodi:nodetypes="ccccccccc"
           inkscape:connector-curvature="0"
           id="path3769"
           d="m 130.57839,806.6126 0.17857,5.71429 c -1.00258,4.28222 -1.5077,8.37789 1.25,11.25 2.46127,0.003 5.46853,1.64369 6.60714,-2.32143 0.27735,-4.18694 3.62754,-5.30103 7.67857,-5.71429 2.23476,-1.10689 4.73362,-1.28948 6.07143,-5.53571 l -7.14286,-2.85715 c -4.08881,0.92488 -7.9671,1.53399 -10.17857,-0.35714 z"
           style="fill:#000000;fill-opacity:1;stroke:#000000;stroke-width:1px;stroke-linecap:butt;stroke-linejoin:miter;stroke-opacity:1" />
        <path
           sodipodi:nodetypes="csssssccccccccccsccccccccccccccccsccccccc"
           inkscape:connector-curvature="0"
           id="path3771"
           d="m 249.50696,931.79118 c -0.24482,-0.0439 1.99898,-12.27779 0.13066,-28.58641 -1.16357,-10.15684 -4.03141,-22.4407 -9.75457,-32.6742 -6.35817,-11.36894 -13.60301,-23.7122 -22.70955,-32.28698 -15.56042,-14.6518 -32.78558,-22.07162 -33.01187,-22.12594 -9.75069,-2.34037 -8.05272,3.16609 -3.62749,8.5612 1.29194,1.57509 1.17249,2.69361 5.04425,2.29089 1.99204,-1.26171 0.44672,-1.40147 1.96428,1.60715 4.83981,6.0595 6.02843,7.0986 7.14286,8.03571 0.12167,2.83501 0.62574,5.92236 -1.42857,7.32143 -2.81853,0.19466 -4.43733,1.41766 -3.92857,4.46428 -3.93199,-0.84187 -8.24042,-2.62485 -10.35715,1.07143 -0.12983,5.69935 2.40644,7.73281 6.07143,8.21429 4.97314,1.66449 5.83685,0.39367 7.67857,-0.17857 1.18132,-3.49664 2.41904,-6.84287 5,-6.60715 2.65884,1.96523 5.13812,2.31451 7.32143,0 2.04899,-0.66749 1.69437,3.05273 3.04429,5.53105 0.41628,0.76424 2.61056,-0.0439 3.02714,0.71895 l 7.32143,0.35714 6.42857,2.14286 c 4.48747,-1.20457 5.70049,1.68392 6.42857,5.17858 0.8675,4.41357 -0.9049,3.54735 -2.32143,3.39285 -0.56986,-1.70124 -5.27251,-1.92648 -12.5,-1.25 -1.09764,-3.91307 -5.31,-5.10077 -10.17857,-5.71428 l -17.14285,2.5 c -2.1118,2.66046 -3.30208,5.13661 -3.03572,7.32143 -8.31397,1.58651 -7.09263,6.11363 -9.10714,9.64285 1.50194,9.9474 0.93664,18.86118 -2.32143,26.42857 3.03491,5.11985 8.45318,7.85635 16.25,8.21429 5.1922,-0.61819 10.0441,-1.40652 14.28571,-2.5 l 9.10715,6.07143 c -0.34931,6.01441 0.64788,10.41302 2.67857,13.57143 1.71417,5.39282 2.34135,10.4233 -1.60714,13.92857 -0.4137,1.4292 -1.73005,1.08835 -0.87649,4.11674 1.49873,5.31738 -1.14843,12.90824 -2.3378,17.66897 -5.78574,4.9832 -5.28377,9.59653 -3.03571,14.10715 l 0.35714,9.46428 c 5.7978,1.96713 10.33295,0.6514 13.75,-3.57143 3.31605,-4.61757 6.93944,-8.97904 7.5,-15.89285 l 10.53571,-12.32143 8.03572,-27.85715"
           style="fill:#000000;fill-opacity:1;stroke:#000000;stroke-width:1px;stroke-linecap:butt;stroke-linejoin:miter;stroke-opacity:1" />
        <path
           sodipodi:nodetypes="cccccccccc"
           inkscape:connector-curvature="0"
           id="path3773"
           d="m 173.25696,826.43403 c 2.08333,-1.55782 4.16667,0.0844 6.25,1.78571 l 7.14286,7.67857 c 0.50007,2.42069 0.87199,4.7346 -1.42858,4.82143 l -6.78571,-0.35714 c 0.25112,-1.5067 1.88337,-2.46094 0,-4.82143 -1.38989,1.74252 -3.02032,2.64316 -5.35714,1.07143 l -1.25,-3.03571 2.85714,-3.03572 z"
           style="fill:#000000;fill-opacity:1;stroke:#000000;stroke-width:1px;stroke-linecap:butt;stroke-linejoin:miter;stroke-opacity:1" />
        <path
           sodipodi:nodetypes="ccccccccsc"
           inkscape:connector-curvature="0"
           id="path3775"
           d="m 97.89982,1026.9697 1.60714,-2.8571 c 3.32442,0.7024 6.28111,0.9145 6.78571,-2.1429 2.08333,-2.8646 4.16667,-4.9936 6.25,-0.3571 1.44072,1.9003 0.0814,4.8189 6.25,5 9.11676,0.4167 12.30115,0.8333 18.03572,1.25 7.23715,-4.0237 11.41114,-1.4107 15.89285,0.5357 5,-2.2474 10,-3.4065 15,-3.75 3.79783,0.5569 4.82096,2.88 2.80696,3.6468 -8.58527,3.2687 -38.09682,9.5607 -72.62838,-1.1468"
           style="fill:#000000;fill-opacity:1;stroke:#000000;stroke-width:1px;stroke-linecap:butt;stroke-linejoin:miter;stroke-opacity:1" />
      </g>
      <g
         transform="matrix(1.1945946,0,0,1.1945946,-458.91638,238.58101)"
         id="g5643">
        <path
           sodipodi:type="arc"
           style="fill:#000000;fill-opacity:1;stroke:#ffffff;stroke-opacity:1"
           id="path5635"
           sodipodi:cx="620.99127"
           sodipodi:cy="81.605583"
           sodipodi:rx="38.133259"
           sodipodi:ry="27.274118"
           d="m 659.12453,81.605583 c 0,15.06308 -17.07284,27.274117 -38.13326,27.274117 -21.06042,0 -38.13326,-12.211037 -38.13326,-27.274117 0,-15.063079 17.07284,-27.274118 38.13326,-27.274118 21.06042,0 38.13326,12.211039 38.13326,27.274118 z"
           transform="matrix(-0.64600934,0,0,0.64600934,997.62247,32.692894)" />
        <path
           style="fill:#000000;fill-opacity:1;stroke:none"
           d="m 609.89877,95.053117 c 3.51846,6.656643 5.86869,8.511193 10.78398,12.281853 3.04848,1.35602 0.77318,1.74765 -0.97065,1.35123 -8.25207,-1.87598 -15.93223,-4.68769 -18.80466,-7.19673"
           id="path5637"
           inkscape:connector-curvature="0"
           sodipodi:nodetypes="ccsc" />
        <path
           transform="translate(-53.538085,-11.616754)"
           d="m 659.12453,81.605583 c 0,15.06308 -17.07284,27.274117 -38.13326,27.274117 -21.06042,0 -38.13326,-12.211037 -38.13326,-27.274117 0,-15.063079 17.07284,-27.274118 38.13326,-27.274118 21.06042,0 38.13326,12.211039 38.13326,27.274118 z"
           sodipodi:ry="27.274118"
           sodipodi:rx="38.133259"
           sodipodi:cy="81.605583"
           sodipodi:cx="620.99127"
           id="path5117"
           style="fill:#000000;fill-opacity:1;stroke:#ffffff;stroke-width:1.70000005;stroke-miterlimit:4;stroke-opacity:1;stroke-dasharray:none"
           sodipodi:type="arc" />
        <path
           sodipodi:nodetypes="ccsc"
           inkscape:connector-curvature="0"
           id="path5627"
           d="m 548.69583,84.412407 c -5.16077,10.45027 -8.71842,13.420097 -16.16358,19.464173 -4.65937,2.22817 -1.12193,2.73723 1.55955,2.0495 12.68913,-3.25446 24.45344,-7.932515 28.79127,-11.937328"
           style="fill:#000000;fill-opacity:1;stroke:none" />
      </g>
      <g
         transform="matrix(1.55755,0,0,1.55755,-443.05923,-255.64451)"
         id="g3245">
        <g
           id="g3228">
          <path
             inkscape:connector-curvature="0"
             id="path12780"
             d="m 518.03125,367.4375 c -12.28524,0 -23.70867,5.64007 -30.5,15.0625 a 2.2571879,2.0691373 0 0 0 0,0.0313 L 487.21875,383 a 2.2571879,2.0691373 0 0 0 0,2.21875 l 0.3125,0.46875 a 2.2571879,2.0691373 0 0 0 0,0.0313 c 6.78487,9.42369 18.20798,15.0625 30.5,15.0625 12.28949,0 23.71853,-5.63728 30.5,-15.0625 a 2.2571879,2.0691373 0 0 0 0,-0.0313 l 0.3125,-0.46875 a 2.2571879,2.0691373 0 0 0 0,-2.21875 l -0.3125,-0.46875 a 2.2571879,2.0691373 0 0 0 0,-0.0313 c -6.78237,-9.42196 -18.21314,-15.0625 -30.5,-15.0625 z m 0,4.6875 c 6.62195,0 12,5.37805 12,12 0,6.62195 -5.37805,12 -12,12 -6.62195,0 -12,-5.37805 -12,-12 0,-6.62195 5.37805,-12 12,-12 z" />
          <path
             sodipodi:type="arc"
             style="fill:#000000;fill-opacity:1;stroke:none"
             id="path12786"
             sodipodi:cx="428.24155"
             sodipodi:cy="979.06299"
             sodipodi:rx="9.1545076"
             sodipodi:ry="9.1545076"
             d="m 437.39605,979.06299 c 0,5.05589 -4.09861,9.15451 -9.1545,9.15451 -5.0559,0 -9.15451,-4.09862 -9.15451,-9.15451 0,-5.0559 4.09861,-9.15451 9.15451,-9.15451 5.05589,0 9.1545,4.09861 9.1545,9.15451 z"
             transform="matrix(0.36941589,0,0,0.36941589,359.82961,22.439186)" />
        </g>
        <g
           transform="matrix(0.51933837,-0.0306346,0.0306346,0.51933837,265.31995,-133.91734)"
           id="g13493">
          <path
             inkscape:connector-curvature="0"
             d="m 503.19558,960.35855 -7.27835,2.16285 c 2.30818,7.76776 7.57308,14.65971 15.24185,18.81671 l 3.61992,-6.67798 c -5.82825,-3.16045 -9.83015,-8.39751 -11.58342,-14.30158 z"
             id="path13463" />
          <path
             inkscape:connector-curvature="0"
             d="m 503.92115,994.69055 3.61945,-6.6771 c -9.51147,-5.15586 -16.03815,-13.69863 -18.89894,-23.33223 l -7.27604,2.16069 c 3.41347,11.49721 11.20314,21.69487 22.55553,27.84864 z"
             id="path13465" />
          <path
             inkscape:connector-curvature="0"
             d="m 474.08774,969.00388 -7.27692,2.16022 c 4.521,15.22674 14.83721,28.73107 29.87145,36.8807 l 3.61944,-6.6772 c -13.19156,-7.15067 -22.24605,-19.00194 -26.21397,-32.36372 z"
             id="path13467" />
        </g>
      </g>
      <g
         transform="matrix(0.4951927,0,0,0.4951927,550.82535,43.824351)"
         id="g16668">
        <path
           sodipodi:nodetypes="ccccccc"
           inkscape:connector-curvature="0"
           id="path16628"
           d="m 126.52161,569.50927 c 11.76673,-7.49341 16.90111,-4.46044 26.01142,0 10.43825,6.39763 21.54992,6.39763 33.33504,0 17.56208,-14.5134 16.17228,-0.71662 26.5165,1.01015 l -8.33375,76.77159 -69.19546,-0.25254 z"
           style="fill:#000000;fill-opacity:1;stroke:none" />
        <path
           sodipodi:nodetypes="cccc"
           inkscape:connector-curvature="0"
           id="rect16625"
           d="m 225.26402,497.78842 -15.15229,154.55335 -80.8122,0 -15.15229,-154.55335"
           style="fill:none;stroke:#000000;stroke-width:7;stroke-linecap:round;stroke-miterlimit:4;stroke-opacity:1;stroke-dasharray:none" />
        <path
           style="fill:none;stroke:#000000;stroke-width:7;stroke-linecap:round;stroke-miterlimit:4;stroke-opacity:1;stroke-dasharray:none"
           d="m 350.26402,497.78842 -15.15229,154.55335 -80.8122,0 -15.15229,-154.55335"
           id="path16634"
           inkscape:connector-curvature="0"
           sodipodi:nodetypes="cccc" />
        <path
           style="fill:#000000;fill-opacity:1;stroke:none"
           d="m 251.52799,569.50927 c 11.76673,-7.49341 16.90111,-4.46044 26.01142,0 10.43825,6.39763 21.54992,6.39763 33.33504,0 17.56208,-14.5134 16.17228,-0.71662 26.5165,1.01015 l 7.07108,-68.94291 -99.50004,-10e-6 z"
           id="path16666"
           inkscape:connector-curvature="0"
           sodipodi:nodetypes="ccccccc" />
      </g>
      <g
         transform="matrix(1.1306135,0,0,1.1306135,-293.6828,-370.47539)"
         style="display:inline"
         id="g16850">
        <path
           inkscape:connector-curvature="0"
           id="path12780-4"
           d="m 331.125,597.78125 c -16.99537,0.57003 -32.686,9.94193 -42.125,25.25 a 3.2383726,3.4700458 0 0 0 0,0.0312 l -0.4375,0.78125 a 3.2383726,3.4700458 0 0 0 0,3.75 l 0.4375,0.75 a 3.2383726,3.4700458 0 0 0 0,0.0312 c 9.73421,15.804 26.14596,25.3125 43.78125,25.3125 17.63166,0 33.98942,-9.50593 43.71875,-25.3125 a 3.2383726,3.4700458 0 0 0 0,-0.0312 l 0.46875,-0.75 a 3.2383726,3.4700458 0 0 0 0,-3.75 L 376.5,623.0625 a 3.2383726,3.4700458 0 0 0 0,-0.0312 c -9.73062,-15.80109 -26.09087,-25.25 -43.71875,-25.25 -0.5508,0 -1.10801,-0.0184 -1.65625,0 z m 0.65625,7.8125 c 11.58847,-0.37989 23.54788,5.913 35.90625,19.96875 -24.74004,28.7945 -47.77051,25.149 -69.65625,0.1875 10.93061,-12.71476 22.16153,-19.77636 33.75,-20.15625 z" />
        <path
           sodipodi:nodetypes="cc"
           inkscape:connector-curvature="0"
           id="path16807"
           d="m 332.84526,598.55115 0,-12.12183"
           style="fill:none;stroke:#000000;stroke-width:7;stroke-linecap:round;stroke-linejoin:miter;stroke-miterlimit:4;stroke-opacity:1;stroke-dasharray:none" />
        <path
           style="fill:none;stroke:#000000;stroke-width:7;stroke-linecap:round;stroke-linejoin:miter;stroke-miterlimit:4;stroke-opacity:1;stroke-dasharray:none"
           d="m 349.93456,602.00044 6.31416,-10.34747"
           id="path16809"
           inkscape:connector-curvature="0"
           sodipodi:nodetypes="cc" />
        <path
           sodipodi:nodetypes="cc"
           inkscape:connector-curvature="0"
           id="path16811"
           d="m 364.76209,614.20826 8.80196,-8.33453"
           style="fill:none;stroke:#000000;stroke-width:7;stroke-linecap:round;stroke-linejoin:miter;stroke-miterlimit:4;stroke-opacity:1;stroke-dasharray:none" />
        <path
           style="fill:none;stroke:#000000;stroke-width:7;stroke-linecap:round;stroke-linejoin:miter;stroke-miterlimit:4;stroke-opacity:1;stroke-dasharray:none"
           d="m 315.21497,601.63643 -6.168,-10.43525"
           id="path16813"
           inkscape:connector-curvature="0"
           sodipodi:nodetypes="cc" />
        <path
           sodipodi:nodetypes="cc"
           inkscape:connector-curvature="0"
           id="path16815"
           d="m 301.36473,613.43119 -8.82466,-8.31047"
           style="fill:none;stroke:#000000;stroke-width:7;stroke-linecap:round;stroke-linejoin:miter;stroke-miterlimit:4;stroke-opacity:1;stroke-dasharray:none" />
        <path
           transform="matrix(1.0373109,0,0,1.0373109,-15.372937,-27.954989)"
           d="m 351.78573,629.5943 c 0,9.02394 -7.31535,16.33928 -16.33929,16.33928 -9.02394,0 -16.33928,-7.31534 -16.33928,-16.33928 0,-9.02394 7.31534,-16.33929 16.33928,-16.33929 9.02394,0 16.33929,7.31535 16.33929,16.33929 z"
           sodipodi:ry="16.339285"
           sodipodi:rx="16.339285"
           sodipodi:cy="629.5943"
           sodipodi:cx="335.44644"
           id="path16848"
           style="fill:none;stroke:#000000;stroke-width:9.44727802;stroke-linecap:round;stroke-miterlimit:4;stroke-opacity:1;stroke-dasharray:none"
           sodipodi:type="arc" />
      </g>
    </g>
    <g
       id="g3412"
       transform="translate(0,148.53571)">
      <g
         transform="matrix(0.9576693,0,0,0.9576693,-5.5079226,109.92621)"
         id="g5696">
        <path
           inkscape:connector-curvature="0"
           id="rect5679"
           d="m 59.84375,372.03125 c -1.399061,0 -2.53125,1.05914 -2.53125,2.36793 l 0,39.20243 c 0,1.30879 1.132189,2.36793 2.53125,2.36793 l 29.78125,0 0,-19.8497 12.125,0 0,19.8497 29.8125,0 c 1.39906,0 2.53125,-1.05914 2.53125,-2.36793 l 0,-39.20243 c 0,-1.30879 -1.13219,-2.36793 -2.53125,-2.36793 l -71.71875,0 z"
           style="fill:#000000;fill-opacity:1;stroke:none" />
        <path
           transform="matrix(1.1191884,0,0,0.71365474,-172.80762,112.85277)"
           d="m 239.8125,307.6875 a 1.1895076,1.1895076 0 0 0 -0.84375,0.46875 L 195.53125,365.75 a 1.1895076,1.1895076 0 0 0 0.9375,1.90625 l 86.875,0 a 1.1895076,1.1895076 0 0 0 0.9375,-1.90625 l -43.4375,-57.59375 a 1.1895076,1.1895076 0 0 0 -1.03125,-0.46875 z"
           id="path5689"
           style="fill:#000000;fill-opacity:1;stroke:none"
           inkscape:original="M 239.90625 308.875 L 196.46875 366.46875 L 283.34375 366.46875 L 239.90625 308.875 z "
           inkscape:radius="1.1893886"
           sodipodi:type="inkscape:offset" />
        <rect
           rx="2.5253813"
           ry="2.5253813"
           y="340.70972"
           x="115.15739"
           height="28.789347"
           width="12.626906"
           id="rect5691"
           style="fill:#000000;fill-opacity:1;stroke:none" />
      </g>
      <g
         id="g18975"
         transform="matrix(1.1708907,0,0,1.1708907,357.63279,-261.39581)">
        <path
           style="fill:#000000;fill-opacity:1;stroke:none"
           d="m 263.2544,589.02444 -37.05902,68.32409 74.09006,0 -37.03104,-68.32409 z m 0,6.91358 31.51697,58.10766 -63.03393,0 31.51696,-58.10766 z"
           id="path4591"
           inkscape:connector-curvature="0" />
        <path
           style="fill:#000000;fill-opacity:1;stroke:none"
           d="m 245.52416,621.59631 33.92925,-2.26194 38.67935,10.13564 0,24.52031 -32.79828,-24.02479 -40.4889,-7.01204"
           id="path11154"
           inkscape:connector-curvature="0"
           sodipodi:nodetypes="cccccc" />
        <path
           style="fill:none;stroke:#000000;stroke-width:0.89568651px;stroke-linecap:butt;stroke-linejoin:miter;stroke-opacity:1"
           d="m 279.67961,619.33437 5.88107,10.85735"
           id="path11156"
           inkscape:connector-curvature="0" />
        <path
           sodipodi:nodetypes="ccc"
           style="fill:none;stroke:#000000;stroke-width:1.79137301;stroke-linecap:butt;stroke-linejoin:miter;stroke-miterlimit:4;stroke-opacity:1;stroke-dasharray:none"
           d="m 209.16402,644.51965 36.58634,-22.13165 0.2262,0"
           id="path11179"
           inkscape:connector-curvature="0" />
        <path
           style="fill:#ffffff;fill-opacity:1;stroke:none"
           d="m 279.46073,619.33783 -3.38681,0.22392 5.26215,9.7126 4.0026,0.69976 0.13995,0.0839 -5.76598,-10.66426 -0.25191,-0.056 z m -29.97751,2.0153 -3.89063,0.25191 -0.72775,1.34353 3.41481,0.58779 1.20357,-2.18323 z"
           id="path11174"
           inkscape:connector-curvature="0" />
      </g>
      <g
         id="g12759"
         transform="matrix(0.98310377,0,0,0.98310377,-15.545264,-515.70172)">
        <path
           id="path11514"
           d="m 264.93382,960.21313 c -14.01122,0 -26.90967,10.5045 -29.59375,22.0937 -0.59574,2.5758 -1.28125,9.3125 -1.28125,9.3125 l -6.4375,16.24997 c -0.12941,0.2897 -0.1875,0.6261 -0.1875,0.9688 0,1.3721 1.0909,2.4687 2.46875,2.4687 l 4.15625,0 0,8.6563 c 0,6.7321 5.43141,12.1562 12.15625,12.1562 l 4.84375,0 0,9.4688 18,0 0,-0.031 7.3125,0 0,0.031 7.65625,0 0,-26.2188 c 7.18629,-5.6506 11.8125,-14.4321 11.8125,-24.28117 0,-17.0633 -13.84391,-30.875 -30.90625,-30.875 z m -23.28125,30.625 c 1.89789,0 3.46875,1.5594 3.46875,3.4687 8.1e-4,1.9158 -1.57086,3.4687 -3.46875,3.4687 -1.91499,0 -3.46875,-1.5537 -3.46875,-3.4687 0,-1.9093 1.55457,-3.4687 3.46875,-3.4687 z"
           style="display:inline"
           inkscape:connector-curvature="0" />
        <path
           style="fill:none;stroke:#000000;stroke-width:3;stroke-linecap:butt;stroke-linejoin:miter;stroke-miterlimit:4;stroke-opacity:1;stroke-dasharray:none;marker-start:none;marker-end:url(#Arrow2Send)"
           d="m 207.33381,986.70227 20.70813,4.29315"
           id="path11550"
           inkscape:connector-curvature="0" />
      </g>
      <g
         id="g12799"
         transform="matrix(1.3503446,0,0,1.3503446,-105.82732,-883.61172)">
        <g
           id="g12747"
           transform="matrix(0.72725881,0,0,0.72725881,326.28182,990.75954)">
          <path
             id="path12737"
             d="M 99.431,26.647 C 88.421,9.962 69.942,0 50.006,0 30.073,0 11.593,9.962 0.569,26.647 L 0,27.51 0.569,28.37 c 11.014,16.688 29.497,26.65 49.437,26.65 19.936,0 38.415,-9.962 49.425,-26.655 L 100,27.51 99.431,26.647 z M 6.034,27.51 C 14.156,16.256 26.065,8.685 39.415,6.034 c -2.232,1.128 -4.299,2.609 -6.115,4.42 -4.543,4.54 -7.046,10.578 -7.046,16.994 0,6.42 2.503,12.461 7.046,16.999 1.928,1.922 4.128,3.457 6.505,4.612 C 26.301,46.479 14.236,38.871 6.034,27.51 z m 44.219,14.826 c -8.185,0 -14.836,-6.66 -14.836,-14.84 0,-3.963 1.546,-7.685 4.34,-10.494 2.803,-2.803 6.53,-4.343 10.496,-4.343 3.959,0 7.687,1.54 10.494,4.343 2.801,2.809 4.344,6.53 4.344,10.494 0,3.963 -1.543,7.691 -4.344,10.497 -2.807,2.799 -6.535,4.343 -10.494,4.343 z m 10.905,6.543 c 2.24,-1.135 4.304,-2.61 6.129,-4.432 4.536,-4.538 7.041,-10.579 7.041,-16.999 0,-9.212 -5.226,-17.224 -12.856,-21.25 12.996,2.801 24.56,10.305 32.497,21.312 -8.003,11.092 -19.684,18.616 -32.811,21.369 z"
             inkscape:connector-curvature="0" />
          <path
             id="path12739"
             d="m 45.106,28.331 c 2.706,0 4.903,-2.193 4.903,-4.903 0,-2.71 -2.197,-4.906 -4.903,-4.906 -2.709,0 -4.903,2.196 -4.903,4.906 10e-4,2.71 2.194,4.903 4.903,4.903"
             inkscape:connector-curvature="0" />
        </g>
        <path
           inkscape:connector-curvature="0"
           id="path12757"
           d="m 316.53382,973.47467 22.22349,16.07823"
           style="fill:none;stroke:#000000;stroke-width:3.89103341;stroke-linecap:butt;stroke-linejoin:miter;stroke-miterlimit:4;stroke-opacity:1;stroke-dasharray:none;marker-start:none;marker-end:url(#Arrow2Send)"
           inkscape:transform-center-x="-10.051081"
           inkscape:transform-center-y="-20.965089" />
      </g>
      <g
         transform="matrix(0.72373727,0,0,0.72373727,352.19382,28.522327)"
         style="display:inline"
         id="g18884">
        <path
           sodipodi:open="true"
           sodipodi:end="9.4889468"
           sodipodi:start="6.2241821"
           d="m 297.88205,589.16808 c 2.11372,35.78217 -25.17996,66.50286 -60.96213,68.61658 -35.78217,2.11371 -66.50286,-25.17996 -68.61658,-60.96214 -0.15718,-2.66092 -0.15029,-5.32899 0.0206,-7.98907"
           sodipodi:ry="64.902298"
           sodipodi:rx="64.902298"
           sodipodi:cy="592.9953"
           sodipodi:cx="233.0927"
           id="path16937"
           style="fill:none;stroke:#000000;stroke-width:10;stroke-linecap:square;stroke-miterlimit:4;stroke-opacity:1;stroke-dasharray:none"
           sodipodi:type="arc" />
        <g
           transform="matrix(0.80148642,0,0,0.80148642,37.639588,135.30205)"
           id="g18842">
          <circle
             d="m 26.277,8.1590004 c 0,4.5060916 -3.652908,8.1590006 -8.159,8.1590006 -4.506091,0 -8.1590004,-3.652909 -8.1590004,-8.1590006 C 9.9589996,3.6529089 13.611909,0 18.118,0 c 4.506092,0 8.159,3.6529089 8.159,8.1590004 z"
             sodipodi:ry="8.1590004"
             sodipodi:rx="8.1590004"
             sodipodi:cy="8.1590004"
             sodipodi:cx="18.118"
             cx="18.118"
             cy="8.1590004"
             r="8.1590004"
             id="circle4423-9"
             transform="matrix(0.91078098,0,0,0.91078098,185.83337,529.85569)" />
          <path
             inkscape:connector-curvature="0"
             d="m 193.54951,616.76788 c 0,2.29881 1.8671,4.16591 4.16591,4.16591 2.30336,0 4.16773,-1.8671 4.16773,-4.16591 l 0.004,-34.95031 1.85526,0 -0.0118,34.95031 c 0,2.29881 1.86528,4.16591 4.16591,4.16591 2.30063,0 4.165,-1.8671 4.165,-4.16591 l 0.0182,-60.25545 1.82702,0 0,22.20484 c 0,4.46738 5.82718,4.46738 5.81443,0 l 0,-22.67845 c 0,-4.93461 -2.89993,-9.77086 -8.67337,-9.77086 l -16.65636,-0.007 c -5.26158,0 -8.5577,4.28978 -8.5577,9.64244 l 0,22.81506 c 0,4.43459 5.85905,4.43459 5.85905,0 l 0,-22.20484 1.86528,0 -0.008,60.25454 z"
             id="path4425-6"
             clip-path="url(#clipPath16960)"
             sodipodi:nodetypes="csccccscccscsccssscccc" />
          <path
             style="fill:none;stroke:#000000;stroke-width:6;stroke-linecap:round;stroke-linejoin:miter;stroke-miterlimit:4;stroke-opacity:1;stroke-dasharray:none"
             d="m 211.95663,549.22478 20.49078,19.92397"
             id="path16947"
             inkscape:connector-curvature="0" />
        </g>
        <g
           id="g18847"
           transform="matrix(-0.80148642,0,0,0.80148642,426.76208,135.30205)">
          <circle
             transform="matrix(0.91078098,0,0,0.91078098,185.83337,529.85569)"
             id="circle18849"
             r="8.1590004"
             cy="8.1590004"
             cx="18.118"
             sodipodi:cx="18.118"
             sodipodi:cy="8.1590004"
             sodipodi:rx="8.1590004"
             sodipodi:ry="8.1590004"
             d="m 26.277,8.1590004 c 0,4.5060916 -3.652908,8.1590006 -8.159,8.1590006 -4.506091,0 -8.1590004,-3.652909 -8.1590004,-8.1590006 C 9.9589996,3.6529089 13.611909,0 18.118,0 c 4.506092,0 8.159,3.6529089 8.159,8.1590004 z" />
          <path
             sodipodi:nodetypes="csccccscccscsccssscccc"
             clip-path="url(#clipPath16960)"
             id="path18851"
             d="m 193.54951,616.76788 c 0,2.29881 1.8671,4.16591 4.16591,4.16591 2.30336,0 4.16773,-1.8671 4.16773,-4.16591 l 0.004,-34.95031 1.85526,0 -0.0118,34.95031 c 0,2.29881 1.86528,4.16591 4.16591,4.16591 2.30063,0 4.165,-1.8671 4.165,-4.16591 l 0.0182,-60.25545 1.82702,0 0,22.20484 c 0,4.46738 5.82718,4.46738 5.81443,0 l 0,-22.67845 c 0,-4.93461 -2.89993,-9.77086 -8.67337,-9.77086 l -16.65636,-0.007 c -5.26158,0 -8.5577,4.28978 -8.5577,9.64244 l 0,22.81506 c 0,4.43459 5.85905,4.43459 5.85905,0 l 0,-22.20484 1.86528,0 -0.008,60.25454 z"
             inkscape:connector-curvature="0" />
          <path
             inkscape:connector-curvature="0"
             id="path18853"
             d="m 211.95663,549.22478 20.49078,19.92397"
             style="fill:none;stroke:#000000;stroke-width:6;stroke-linecap:round;stroke-linejoin:miter;stroke-miterlimit:4;stroke-opacity:1;stroke-dasharray:none" />
        </g>
        <g
           transform="matrix(0.52205884,0,0,0.52205884,100.52804,186.4336)"
           style="fill:#000000;fill-opacity:1"
           id="g18879">
          <path
             style="fill:#000000;fill-opacity:1;stroke:none"
             d="m 264.28571,700.93361 24.28572,24.10714 -24.28572,24.10715 z"
             id="path18873"
             inkscape:connector-curvature="0"
             sodipodi:nodetypes="cccc" />
          <path
             sodipodi:nodetypes="cccc"
             inkscape:connector-curvature="0"
             id="path18875"
             d="M 243.57143,749.50504 219.28571,725.3979 243.57143,701.29075 z"
             style="fill:#000000;fill-opacity:1;stroke:none" />
          <rect
             style="fill:#000000;fill-opacity:1;stroke:none"
             id="rect18877"
             width="29.285715"
             height="22.5"
             x="240.35715"
             y="713.79077" />
        </g>
      </g>
    </g>
    <g
       id="g3269"
       transform="translate(0,38.628602)">
      <g
         id="g7635"
         transform="matrix(0.75856053,0,0,0.75856053,-142.72616,1.8656195)">
        <circle
           d="m 26.277,8.1590004 c 0,4.5060916 -3.652908,8.1590006 -8.159,8.1590006 -4.506091,0 -8.1590004,-3.652909 -8.1590004,-8.1590006 C 9.9589996,3.6529089 13.611909,0 18.118,0 c 4.506092,0 8.159,3.6529089 8.159,8.1590004 z"
           sodipodi:ry="8.1590004"
           sodipodi:rx="8.1590004"
           sodipodi:cy="8.1590004"
           sodipodi:cx="18.118"
           cx="18.118"
           cy="8.1590004"
           r="8.1590004"
           id="circle3562"
           transform="matrix(1.8436523,0,0,1.8436523,242.25741,64.519971)"
           style="fill:#000000;fill-opacity:1" />
        <path
           inkscape:connector-curvature="0"
           style="fill:#000000;fill-opacity:1;stroke:none"
           d="m 257.07678,97.72728 c -8.5576,0 -15.48046,9.33911 -15.48046,20.86935 l 15.48046,0 0,51.38624 37.35897,0 0,-51.36605 15.50064,0 c 0,-11.53025 -6.94304,-20.869357 -15.50064,-20.869357 l 0,-0.02018 -37.35897,0 z"
           id="path7440" />
        <rect
           style="fill:#000000;fill-opacity:1;stroke:none"
           id="rect7465"
           width="17.125952"
           height="45.029011"
           x="100.30463"
           y="247.26335"
           ry="8.5629759"
           rx="8.5629759"
           transform="matrix(0.79941501,-0.60077919,0.60077919,0.79941501,0,0)" />
        <rect
           rx="8.5629759"
           ry="8.5629759"
           y="-135.01419"
           x="313.71069"
           height="49.574699"
           width="17.125952"
           id="rect7469"
           style="fill:#000000;fill-opacity:1;stroke:none"
           transform="matrix(0.70710678,0.70710678,-0.70710678,0.70710678,0,0)" />
        <rect
           style="fill:#000000;fill-opacity:1;stroke:#ffffff;stroke-opacity:1"
           id="rect7535"
           width="11.906613"
           height="38.444641"
           x="251.27538"
           y="-255.78807"
           rx="5.9533067"
           ry="6.1979752"
           transform="matrix(0.43315277,0.90132052,-0.90132052,0.43315277,0,0)" />
        <rect
           style="fill:#000000;fill-opacity:1;stroke:#ffffff;stroke-opacity:1"
           id="rect7541"
           width="11.906613"
           height="31.453886"
           x="-1.2694204"
           y="252.9735"
           rx="5.9533067"
           ry="6.1979752"
           transform="matrix(0.5,-0.8660254,0.8660254,0.5,0,0)" />
        <rect
           style="fill:#000000;fill-opacity:1;stroke:none"
           id="rect7537"
           width="11.95481"
           height="32.839363"
           x="261.96854"
           y="39.410004"
           rx="5.9503174"
           ry="6.1954799"
           transform="matrix(0.96535412,0.26094332,-0.23186763,0.97274735,0,0)" />
        <rect
           style="fill:#000000;fill-opacity:1;stroke:none"
           id="rect7452"
           width="12.310475"
           height="36.029148"
           x="226.86771"
           y="255.60098"
           rx="5.8589692"
           ry="6.1499219"
           transform="matrix(0.83986318,-0.54279816,0.41047129,0.91187352,0,0)" />
      </g>
      <g
         style="fill:#000000;fill-opacity:1"
         id="g7549"
         transform="matrix(0.28136776,0,0,0.28136776,200.64128,-66.739649)">
        <circle
           style="fill:#000000;fill-opacity:1"
           transform="matrix(2.8545693,0,0,2.8545693,15.545897,417.77186)"
           id="circle7487"
           r="8.1590004"
           cy="8.1590004"
           cx="18.118"
           sodipodi:cx="18.118"
           sodipodi:cy="8.1590004"
           sodipodi:rx="8.1590004"
           sodipodi:ry="8.1590004"
           d="m 26.277,8.1590004 c 0,4.5060916 -3.652908,8.1590006 -8.159,8.1590006 -4.506091,0 -8.1590004,-3.652909 -8.1590004,-8.1590006 C 9.9589996,3.6529089 13.611909,0 18.118,0 c 4.506092,0 8.159,3.6529089 8.159,8.1590004 z" />
        <path
           inkscape:connector-curvature="0"
           id="path7489"
           d="m 38.491071,469.1875 c -13.249931,0 -23.96875,14.45996 -23.96875,32.3125 l 23.96875,0 0,79.5625 57.84375,0 0,-79.53125 23.999999,0 c 0,-17.85254 -10.75007,-32.3125 -23.999999,-32.3125 l 0,-0.0312 -57.84375,0 z"
           style="fill:#000000;fill-opacity:1;stroke:none" />
        <rect
           ry="9.596468"
           rx="9.2176418"
           y="491.95941"
           x="101.89182"
           height="88.388351"
           width="18.435284"
           id="rect7491"
           style="fill:#000000;fill-opacity:1;stroke:none" />
        <rect
           style="fill:#000000;fill-opacity:1;stroke:none"
           id="rect7493"
           width="18.435284"
           height="88.388351"
           x="14.513616"
           y="491.93707"
           rx="9.2176418"
           ry="9.596468" />
        <rect
           rx="13.258252"
           ry="13.258253"
           y="568.2522"
           x="38.504742"
           height="133.8452"
           width="26.516504"
           id="rect7495"
           style="fill:#000000;fill-opacity:1;stroke:none" />
        <rect
           style="fill:#000000;fill-opacity:1;stroke:none"
           id="rect7497"
           width="26.516504"
           height="133.8452"
           x="69.819473"
           y="568.2522"
           ry="13.258253"
           rx="13.258252" />
      </g>
      <g
         transform="matrix(0.35316108,0,0,0.35316108,385.79963,-34.993285)"
         id="g33988">
        <path
           inkscape:connector-curvature="0"
           id="path33908"
           d="m 274.28571,289.50504 c 0,0 57.14286,-46.42857 70.71429,-42.85714 13.57143,3.57142 45.71429,15 42.85714,42.14285 C 385,315.93361 385,316.6479 375.71429,321.6479 c -9.28572,5 -18.57143,22.14285 -29.28572,18.57142 C 335.71429,336.6479 305,328.07647 282.85714,352.36218 c -22.14285,24.28572 -20,44.28572 -44.28571,52.85714 -24.28572,8.57143 -76.42857,11.42858 -87.14286,11.42858 -10.71428,0 -31.42857,6.42857 -27.85714,14.28571 3.57143,7.85714 41.42857,25 70.71428,19.28571 29.28572,-5.71428 53.57143,-22.85714 62.14286,-35 8.57143,-12.14285 31.42857,-15.71428 74.28572,-20 C 373.57143,390.93361 400,386.6479 415,371.6479 c 15,-15 15.71429,-14.28572 15.71429,-14.28572"
           style="fill:none;stroke:#000000;stroke-width:7;stroke-linecap:butt;stroke-linejoin:miter;stroke-miterlimit:4;stroke-opacity:1;stroke-dasharray:none" />
        <g
           id="g33918">
          <g
             id="g33847">
            <path
               style="fill:#000000;fill-opacity:1;stroke:none"
               d="m 156.78572,289.50504 95.35714,-26.42857 -0.71428,-1.78571 c 9.07216,-2.64303 14.89696,1.13631 19.23365,6.11188 4.13834,4.748 5.89921,10.02518 8.98063,16.38812 6.19367,13.92857 7.9612,26.42857 5.35714,39.64285 -2.59754,8.76495 -6.11467,9.25363 -9.64285,9.64286 l -96.78572,31.78571 c -4.63598,-6.1114 -28.61298,-74.14926 -21.78571,-75.35714 z"
               id="path10724"
               inkscape:connector-curvature="0"
               sodipodi:nodetypes="cccsccccc" />
            <path
               style="fill:#000000;fill-opacity:1;stroke:#ffffff;stroke-width:3;stroke-linecap:butt;stroke-linejoin:miter;stroke-miterlimit:4;stroke-opacity:1;stroke-dasharray:none"
               d="m 148.92857,292.36218 c -2.29156,2.56156 -2.86719,7.00828 -3.18488,10.3885 -2.09106,22.2487 9.75401,51.84449 21.72293,60.69685 4.20358,3.10902 7.61383,3.45716 10.39052,1.05751 3.17932,-4.23802 3.50267,-11.94429 3.33719,-20.35933 -0.24031,-12.22046 -2.3112,-22.18458 -5.59253,-30.96278 -4.75637,-12.72428 -17.43669,-28.85691 -26.67323,-20.82075 z"
               id="path10729"
               inkscape:connector-curvature="0"
               sodipodi:nodetypes="csscssc" />
            <path
               sodipodi:nodetypes="cssc"
               inkscape:connector-curvature="0"
               id="path10731"
               d="m 200.71429,359.1479 c 3.17932,-4.23802 3.50267,-11.94429 3.33719,-20.35933 -0.24031,-12.22046 -2.30764,-22.18591 -5.59253,-30.96278 -4.75162,-12.6958 -18.60771,-27.66872 -28.28037,-22.24932"
               style="fill:none;stroke:#ffffff;stroke-width:1;stroke-linecap:butt;stroke-linejoin:miter;stroke-miterlimit:4;stroke-opacity:1;stroke-dasharray:none" />
            <path
               style="fill:none;stroke:#ffffff;stroke-width:1;stroke-linecap:butt;stroke-linejoin:miter;stroke-miterlimit:4;stroke-opacity:1;stroke-dasharray:none"
               d="m 258.21429,343.07647 c 3.17932,-4.23802 3.50267,-11.94429 3.33719,-20.35933 -0.24031,-12.22046 -2.30764,-22.18591 -5.59253,-30.96278 -4.75162,-12.6958 -18.60771,-27.66872 -28.28037,-22.24932"
               id="path10733"
               inkscape:connector-curvature="0"
               sodipodi:nodetypes="cssc" />
            <path
               style="fill:none;stroke:#ffffff;stroke-width:1;stroke-linecap:butt;stroke-linejoin:miter;stroke-miterlimit:4;stroke-opacity:1;stroke-dasharray:none"
               d="m 225.53572,352.36219 c 3.17932,-4.23802 3.50267,-11.94429 3.33719,-20.35933 -0.24031,-12.22046 -2.30764,-22.18591 -5.59253,-30.96278 -4.75162,-12.6958 -18.60771,-27.66872 -28.28037,-22.24932"
               id="path10735"
               inkscape:connector-curvature="0"
               sodipodi:nodetypes="cssc" />
            <g
               id="g25157">
              <path
                 inkscape:connector-curvature="0"
                 id="path25159"
                 d="m 204.85119,358.01695 c 3.17932,-4.23802 3.50268,-11.94429 3.33719,-20.35933 -0.24031,-12.22046 -2.30764,-22.18591 -5.59253,-30.96278 -4.75162,-12.6958 -18.60771,-27.66872 -28.28037,-22.24932"
                 style="fill:none;stroke:#ffffff;stroke-width:1;stroke-linecap:butt;stroke-linejoin:miter;stroke-miterlimit:4;stroke-opacity:1;stroke-dasharray:none" />
              <path
                 inkscape:connector-curvature="0"
                 id="path25161"
                 d="m 208.9881,356.886 c 3.17932,-4.23802 3.50267,-11.94429 3.33719,-20.35933 -0.24031,-12.22046 -2.30764,-22.18591 -5.59253,-30.96278 -4.75162,-12.6958 -18.60771,-27.66872 -28.28037,-22.24932"
                 style="fill:none;stroke:#ffffff;stroke-width:1;stroke-linecap:butt;stroke-linejoin:miter;stroke-miterlimit:4;stroke-opacity:1;stroke-dasharray:none" />
              <path
                 inkscape:connector-curvature="0"
                 id="path25163"
                 d="m 213.125,355.75504 c 3.17932,-4.23802 3.50267,-11.94429 3.33719,-20.35933 -0.24031,-12.22046 -2.30764,-22.1859 -5.59253,-30.96278 -4.75162,-12.69579 -18.60771,-27.66872 -28.28037,-22.24932"
                 style="fill:none;stroke:#ffffff;stroke-width:1;stroke-linecap:butt;stroke-linejoin:miter;stroke-miterlimit:4;stroke-opacity:1;stroke-dasharray:none" />
              <path
                 inkscape:connector-curvature="0"
                 id="path25165"
                 d="m 217.26191,354.62409 c 3.17932,-4.23802 3.50267,-11.94429 3.33719,-20.35933 -0.24031,-12.22046 -2.30764,-22.18591 -5.59253,-30.96278 -4.75162,-12.6958 -18.60771,-27.66872 -28.28037,-22.24932"
                 style="fill:none;stroke:#ffffff;stroke-width:1;stroke-linecap:butt;stroke-linejoin:miter;stroke-miterlimit:4;stroke-opacity:1;stroke-dasharray:none" />
              <path
                 inkscape:connector-curvature="0"
                 id="path25167"
                 d="m 221.39882,353.49314 c 3.17931,-4.23802 3.50266,-11.94429 3.33718,-20.35933 -0.24031,-12.22046 -2.30763,-22.18591 -5.59253,-30.96278 -4.75162,-12.6958 -18.60771,-27.66872 -28.28037,-22.24932"
                 style="fill:none;stroke:#ffffff;stroke-width:1;stroke-linecap:butt;stroke-linejoin:miter;stroke-miterlimit:4;stroke-opacity:1;stroke-dasharray:none" />
            </g>
            <path
               sodipodi:nodetypes="cssc"
               inkscape:connector-curvature="0"
               id="path28053"
               d="m 233.75001,349.32648 c 3.17932,-4.23802 3.50267,-11.94429 3.33719,-20.35933 -0.24031,-12.22046 -2.30764,-22.18591 -5.59253,-30.96278 -4.75162,-12.6958 -18.60771,-27.66872 -28.28037,-22.24932"
               style="fill:none;stroke:#ffffff;stroke-width:1;stroke-linecap:butt;stroke-linejoin:miter;stroke-miterlimit:4;stroke-opacity:1;stroke-dasharray:none" />
            <g
               id="g30942">
              <path
                 inkscape:connector-curvature="0"
                 style="fill:none;stroke:#ffffff;stroke-width:1;stroke-linecap:butt;stroke-linejoin:miter;stroke-miterlimit:4;stroke-opacity:1;stroke-dasharray:none"
                 d="m 237.82739,348.28481 c 3.17932,-4.23802 3.50267,-11.94429 3.33719,-20.35933 0,-1.5e-4 -1e-5,-3.1e-4 -1e-5,-4.6e-4 -0.24035,-12.22025 -2.30767,-22.18556 -5.59252,-30.96232 -6e-5,-1.6e-4 -1.2e-4,-3.2e-4 -1.8e-4,-4.8e-4 -4.75179,-12.6957 -18.60765,-27.66817 -28.28019,-22.24884"
                 id="path30944" />
              <path
                 inkscape:connector-curvature="0"
                 style="fill:none;stroke:#ffffff;stroke-width:1;stroke-linecap:butt;stroke-linejoin:miter;stroke-miterlimit:4;stroke-opacity:1;stroke-dasharray:none"
                 d="m 241.90477,347.24314 c 3.17932,-4.23802 3.50267,-11.94429 3.33719,-20.35933 0,-1.2e-4 0,-2.5e-4 -1e-5,-3.7e-4 -0.24034,-12.22029 -2.30766,-22.18563 -5.59252,-30.96241 -5e-5,-1.3e-4 -1e-4,-2.5e-4 -1.5e-4,-3.8e-4 -4.75175,-12.69572 -18.60766,-27.66828 -28.28022,-22.24894"
                 id="path30946" />
              <path
                 inkscape:connector-curvature="0"
                 style="fill:none;stroke:#ffffff;stroke-width:1;stroke-linecap:butt;stroke-linejoin:miter;stroke-miterlimit:4;stroke-opacity:1;stroke-dasharray:none"
                 d="m 245.98215,346.20148 c 3.17932,-4.23803 3.50267,-11.9443 3.33719,-20.35933 0,-1e-4 0,-1.9e-4 -1e-5,-2.8e-4 -0.24033,-12.22034 -2.30766,-22.1857 -5.59252,-30.96251 -4e-5,-9e-5 -7e-5,-1.9e-4 -1.1e-4,-2.9e-4 -4.75172,-12.69573 -18.60767,-27.66838 -28.28026,-22.24903"
                 id="path30948" />
              <path
                 inkscape:connector-curvature="0"
                 style="fill:none;stroke:#ffffff;stroke-width:1;stroke-linecap:butt;stroke-linejoin:miter;stroke-miterlimit:4;stroke-opacity:1;stroke-dasharray:none"
                 d="m 250.05953,345.15981 c 3.17932,-4.23802 3.50267,-11.94429 3.33719,-20.35933 0,-7e-5 0,-1.3e-4 0,-1.9e-4 -0.24033,-12.22037 -2.30766,-22.18577 -5.59253,-30.96259 -2e-5,-7e-5 -5e-5,-1.3e-4 -7e-5,-2e-4 -4.75169,-12.69576 -18.60769,-27.6685 -28.2803,-22.24912"
                 id="path30950" />
              <path
                 inkscape:connector-curvature="0"
                 style="fill:none;stroke:#ffffff;stroke-width:1;stroke-linecap:butt;stroke-linejoin:miter;stroke-miterlimit:4;stroke-opacity:1;stroke-dasharray:none"
                 d="m 254.13691,344.11814 c 3.17932,-4.23802 3.50267,-11.94429 3.33719,-20.35933 0,-3e-5 0,-6e-5 0,-9e-5 -0.24032,-12.22042 -2.30765,-22.18584 -5.59253,-30.96269 -1e-5,-3e-5 -2e-5,-7e-5 -4e-5,-10e-5 -4.75165,-12.69578 -18.60769,-27.66861 -28.28033,-22.24922"
                 id="path30952" />
            </g>
            <path
               sodipodi:nodetypes="cssc"
               inkscape:connector-curvature="0"
               id="path33845"
               d="m 282.14286,333.07646 c 3.17932,-4.23802 3.85981,-10.69429 3.69433,-19.10933 -0.24031,-12.22046 -2.3112,-22.18458 -5.59253,-30.96278 C 275.48829,270.28007 260.48654,253.7903 251.25,261.82646"
               style="fill:none;stroke:#ffffff;stroke-width:3;stroke-linecap:butt;stroke-linejoin:miter;stroke-miterlimit:4;stroke-opacity:1;stroke-dasharray:none" />
            <path
               style="fill:none;stroke:#ffffff;stroke-width:1px;stroke-linecap:butt;stroke-linejoin:miter;stroke-opacity:1"
               d="m 165.71429,296.46932 c -6.97615,26.49112 5.15483,41.37469 15.53571,57.32143"
               id="path33912"
               inkscape:connector-curvature="0"
               sodipodi:nodetypes="cc" />
            <path
               sodipodi:nodetypes="cc"
               inkscape:connector-curvature="0"
               id="path33914"
               d="m 165.71429,296.46932 c -6.97615,26.49112 5.15483,41.37469 15.53571,57.32143"
               style="fill:none;stroke:#ffffff;stroke-width:1px;stroke-linecap:butt;stroke-linejoin:miter;stroke-opacity:1" />
          </g>
        </g>
        <g
           transform="matrix(-1.4484281,0,0,1.4484281,832.3655,-62.929347)"
           id="g33942">
          <g
             id="g33944">
            <path
               sodipodi:nodetypes="cccsccccc"
               inkscape:connector-curvature="0"
               id="path33946"
               d="m 156.78572,289.50504 95.35714,-26.42857 -0.71428,-1.78571 c 9.07216,-2.64303 14.89696,1.13631 19.23365,6.11188 4.13834,4.748 5.89921,10.02518 8.98063,16.38812 6.19367,13.92857 7.9612,26.42857 5.35714,39.64285 -2.59754,8.76495 -6.11467,9.25363 -9.64285,9.64286 l -96.78572,31.78571 c -4.63598,-6.1114 -28.61298,-74.14926 -21.78571,-75.35714 z"
               style="fill:#000000;fill-opacity:1;stroke:none" />
            <path
               sodipodi:nodetypes="csscssc"
               inkscape:connector-curvature="0"
               id="path33948"
               d="m 148.92857,292.36218 c -2.29156,2.56156 -2.86719,7.00828 -3.18488,10.3885 -2.09106,22.2487 9.75401,51.84449 21.72293,60.69685 4.20358,3.10902 7.61383,3.45716 10.39052,1.05751 3.17932,-4.23802 3.50267,-11.94429 3.33719,-20.35933 -0.24031,-12.22046 -2.3112,-22.18458 -5.59253,-30.96278 -4.75637,-12.72428 -17.43669,-28.85691 -26.67323,-20.82075 z"
               style="fill:#000000;fill-opacity:1;stroke:#ffffff;stroke-width:3;stroke-linecap:butt;stroke-linejoin:miter;stroke-miterlimit:4;stroke-opacity:1;stroke-dasharray:none" />
            <path
               style="fill:none;stroke:#ffffff;stroke-width:1;stroke-linecap:butt;stroke-linejoin:miter;stroke-miterlimit:4;stroke-opacity:1;stroke-dasharray:none"
               d="m 200.71429,359.1479 c 3.17932,-4.23802 3.50267,-11.94429 3.33719,-20.35933 -0.24031,-12.22046 -2.30764,-22.18591 -5.59253,-30.96278 -4.75162,-12.6958 -18.60771,-27.66872 -28.28037,-22.24932"
               id="path33950"
               inkscape:connector-curvature="0"
               sodipodi:nodetypes="cssc" />
            <path
               sodipodi:nodetypes="cssc"
               inkscape:connector-curvature="0"
               id="path33952"
               d="m 258.21429,343.07647 c 3.17932,-4.23802 3.50267,-11.94429 3.33719,-20.35933 -0.24031,-12.22046 -2.30764,-22.18591 -5.59253,-30.96278 -4.75162,-12.6958 -18.60771,-27.66872 -28.28037,-22.24932"
               style="fill:none;stroke:#ffffff;stroke-width:1;stroke-linecap:butt;stroke-linejoin:miter;stroke-miterlimit:4;stroke-opacity:1;stroke-dasharray:none" />
            <path
               sodipodi:nodetypes="cssc"
               inkscape:connector-curvature="0"
               id="path33954"
               d="m 225.53572,352.36219 c 3.17932,-4.23802 3.50267,-11.94429 3.33719,-20.35933 -0.24031,-12.22046 -2.30764,-22.18591 -5.59253,-30.96278 -4.75162,-12.6958 -18.60771,-27.66872 -28.28037,-22.24932"
               style="fill:none;stroke:#ffffff;stroke-width:1;stroke-linecap:butt;stroke-linejoin:miter;stroke-miterlimit:4;stroke-opacity:1;stroke-dasharray:none" />
            <g
               id="g33956">
              <path
                 inkscape:connector-curvature="0"
                 style="fill:none;stroke:#ffffff;stroke-width:1;stroke-linecap:butt;stroke-linejoin:miter;stroke-miterlimit:4;stroke-opacity:1;stroke-dasharray:none"
                 d="m 204.85119,358.01695 c 3.17932,-4.23802 3.50268,-11.94429 3.33719,-20.35933 -0.24031,-12.22046 -2.30764,-22.18591 -5.59253,-30.96278 -4.75162,-12.6958 -18.60771,-27.66872 -28.28037,-22.24932"
                 id="path33958" />
              <path
                 inkscape:connector-curvature="0"
                 style="fill:none;stroke:#ffffff;stroke-width:1;stroke-linecap:butt;stroke-linejoin:miter;stroke-miterlimit:4;stroke-opacity:1;stroke-dasharray:none"
                 d="m 208.9881,356.886 c 3.17932,-4.23802 3.50267,-11.94429 3.33719,-20.35933 -0.24031,-12.22046 -2.30764,-22.18591 -5.59253,-30.96278 -4.75162,-12.6958 -18.60771,-27.66872 -28.28037,-22.24932"
                 id="path33960" />
              <path
                 inkscape:connector-curvature="0"
                 style="fill:none;stroke:#ffffff;stroke-width:1;stroke-linecap:butt;stroke-linejoin:miter;stroke-miterlimit:4;stroke-opacity:1;stroke-dasharray:none"
                 d="m 213.125,355.75504 c 3.17932,-4.23802 3.50267,-11.94429 3.33719,-20.35933 -0.24031,-12.22046 -2.30764,-22.1859 -5.59253,-30.96278 -4.75162,-12.69579 -18.60771,-27.66872 -28.28037,-22.24932"
                 id="path33962" />
              <path
                 inkscape:connector-curvature="0"
                 style="fill:none;stroke:#ffffff;stroke-width:1;stroke-linecap:butt;stroke-linejoin:miter;stroke-miterlimit:4;stroke-opacity:1;stroke-dasharray:none"
                 d="m 217.26191,354.62409 c 3.17932,-4.23802 3.50267,-11.94429 3.33719,-20.35933 -0.24031,-12.22046 -2.30764,-22.18591 -5.59253,-30.96278 -4.75162,-12.6958 -18.60771,-27.66872 -28.28037,-22.24932"
                 id="path33964" />
              <path
                 inkscape:connector-curvature="0"
                 style="fill:none;stroke:#ffffff;stroke-width:1;stroke-linecap:butt;stroke-linejoin:miter;stroke-miterlimit:4;stroke-opacity:1;stroke-dasharray:none"
                 d="m 221.39882,353.49314 c 3.17931,-4.23802 3.50266,-11.94429 3.33718,-20.35933 -0.24031,-12.22046 -2.30763,-22.18591 -5.59253,-30.96278 -4.75162,-12.6958 -18.60771,-27.66872 -28.28037,-22.24932"
                 id="path33966" />
            </g>
            <path
               style="fill:none;stroke:#ffffff;stroke-width:1;stroke-linecap:butt;stroke-linejoin:miter;stroke-miterlimit:4;stroke-opacity:1;stroke-dasharray:none"
               d="m 233.75001,349.32648 c 3.17932,-4.23802 3.50267,-11.94429 3.33719,-20.35933 -0.24031,-12.22046 -2.30764,-22.18591 -5.59253,-30.96278 -4.75162,-12.6958 -18.60771,-27.66872 -28.28037,-22.24932"
               id="path33968"
               inkscape:connector-curvature="0"
               sodipodi:nodetypes="cssc" />
            <g
               id="g33970">
              <path
                 inkscape:connector-curvature="0"
                 id="path33972"
                 d="m 237.82739,348.28481 c 3.17932,-4.23802 3.50267,-11.94429 3.33719,-20.35933 0,-1.5e-4 -1e-5,-3.1e-4 -1e-5,-4.6e-4 -0.24035,-12.22025 -2.30767,-22.18556 -5.59252,-30.96232 -6e-5,-1.6e-4 -1.2e-4,-3.2e-4 -1.8e-4,-4.8e-4 -4.75179,-12.6957 -18.60765,-27.66817 -28.28019,-22.24884"
                 style="fill:none;stroke:#ffffff;stroke-width:1;stroke-linecap:butt;stroke-linejoin:miter;stroke-miterlimit:4;stroke-opacity:1;stroke-dasharray:none" />
              <path
                 inkscape:connector-curvature="0"
                 id="path33974"
                 d="m 241.90477,347.24314 c 3.17932,-4.23802 3.50267,-11.94429 3.33719,-20.35933 0,-1.2e-4 0,-2.5e-4 -1e-5,-3.7e-4 -0.24034,-12.22029 -2.30766,-22.18563 -5.59252,-30.96241 -5e-5,-1.3e-4 -1e-4,-2.5e-4 -1.5e-4,-3.8e-4 -4.75175,-12.69572 -18.60766,-27.66828 -28.28022,-22.24894"
                 style="fill:none;stroke:#ffffff;stroke-width:1;stroke-linecap:butt;stroke-linejoin:miter;stroke-miterlimit:4;stroke-opacity:1;stroke-dasharray:none" />
              <path
                 inkscape:connector-curvature="0"
                 id="path33976"
                 d="m 245.98215,346.20148 c 3.17932,-4.23803 3.50267,-11.9443 3.33719,-20.35933 0,-1e-4 0,-1.9e-4 -1e-5,-2.8e-4 -0.24033,-12.22034 -2.30766,-22.1857 -5.59252,-30.96251 -4e-5,-9e-5 -7e-5,-1.9e-4 -1.1e-4,-2.9e-4 -4.75172,-12.69573 -18.60767,-27.66838 -28.28026,-22.24903"
                 style="fill:none;stroke:#ffffff;stroke-width:1;stroke-linecap:butt;stroke-linejoin:miter;stroke-miterlimit:4;stroke-opacity:1;stroke-dasharray:none" />
              <path
                 inkscape:connector-curvature="0"
                 id="path33978"
                 d="m 250.05953,345.15981 c 3.17932,-4.23802 3.50267,-11.94429 3.33719,-20.35933 0,-7e-5 0,-1.3e-4 0,-1.9e-4 -0.24033,-12.22037 -2.30766,-22.18577 -5.59253,-30.96259 -2e-5,-7e-5 -5e-5,-1.3e-4 -7e-5,-2e-4 -4.75169,-12.69576 -18.60769,-27.6685 -28.2803,-22.24912"
                 style="fill:none;stroke:#ffffff;stroke-width:1;stroke-linecap:butt;stroke-linejoin:miter;stroke-miterlimit:4;stroke-opacity:1;stroke-dasharray:none" />
              <path
                 inkscape:connector-curvature="0"
                 id="path33980"
                 d="m 254.13691,344.11814 c 3.17932,-4.23802 3.50267,-11.94429 3.33719,-20.35933 0,-3e-5 0,-6e-5 0,-9e-5 -0.24032,-12.22042 -2.30765,-22.18584 -5.59253,-30.96269 -1e-5,-3e-5 -2e-5,-7e-5 -4e-5,-10e-5 -4.75165,-12.69578 -18.60769,-27.66861 -28.28033,-22.24922"
                 style="fill:none;stroke:#ffffff;stroke-width:1;stroke-linecap:butt;stroke-linejoin:miter;stroke-miterlimit:4;stroke-opacity:1;stroke-dasharray:none" />
            </g>
            <path
               style="fill:none;stroke:#ffffff;stroke-width:3;stroke-linecap:butt;stroke-linejoin:miter;stroke-miterlimit:4;stroke-opacity:1;stroke-dasharray:none"
               d="m 282.14286,333.07646 c 3.17932,-4.23802 3.85981,-10.69429 3.69433,-19.10933 -0.24031,-12.22046 -2.3112,-22.18458 -5.59253,-30.96278 C 275.48829,270.28007 260.48654,253.7903 251.25,261.82646"
               id="path33982"
               inkscape:connector-curvature="0"
               sodipodi:nodetypes="cssc" />
            <path
               sodipodi:nodetypes="cc"
               inkscape:connector-curvature="0"
               id="path33984"
               d="m 165.71429,296.46932 c -6.97615,26.49112 5.15483,41.37469 15.53571,57.32143"
               style="fill:none;stroke:#ffffff;stroke-width:1px;stroke-linecap:butt;stroke-linejoin:miter;stroke-opacity:1" />
            <path
               style="fill:none;stroke:#ffffff;stroke-width:1px;stroke-linecap:butt;stroke-linejoin:miter;stroke-opacity:1"
               d="m 165.71429,296.46932 c -6.97615,26.49112 5.15483,41.37469 15.53571,57.32143"
               id="path33986"
               inkscape:connector-curvature="0"
               sodipodi:nodetypes="cc" />
          </g>
        </g>
      </g>
      <g
         id="g3989"
         transform="matrix(0.7854916,0,0,0.7854916,236.73878,-220.03025)">
        <path
           transform="translate(-28.571429,-25.357143)"
           d="m 610.71431,414.50504 c 0,18.54098 -15.03044,33.57143 -33.57143,33.57143 -18.54099,0 -33.57143,-15.03045 -33.57143,-33.57143 0,-18.54099 15.03044,-33.57143 33.57143,-33.57143 18.54099,0 33.57143,15.03044 33.57143,33.57143 z"
           sodipodi:ry="33.57143"
           sodipodi:rx="33.57143"
           sodipodi:cy="414.50504"
           sodipodi:cx="577.14288"
           id="path3960"
           style="fill:#000000;fill-opacity:1;stroke:#000000;stroke-width:0.1;stroke-miterlimit:4;stroke-opacity:1;stroke-dasharray:none"
           sodipodi:type="arc" />
        <path
           inkscape:connector-curvature="0"
           id="path3962"
           d="m 526.78572,358.07647 39.64285,67.85714 5.35715,-3.21429 -41.07143,-69.28571 z"
           style="fill:#000000;fill-opacity:1;stroke:#000000;stroke-width:1px;stroke-linecap:butt;stroke-linejoin:miter;stroke-opacity:1" />
        <path
           transform="matrix(0.99887551,0.04741008,-0.04741008,0.99887551,124.16032,43.478877)"
           clip-path="url(#clipPath3975)"
           inkscape:connector-curvature="0"
           id="path3964"
           d="m 440.01339,280.92857 c -24.85615,0 -45.03125,20.14385 -45.03125,45 0,24.85615 20.1751,45 45.03125,45 24.85615,0 45,-20.14385 45,-45 0,-24.85615 -20.14385,-45 -45,-45 z m 0,7.125 c 20.91673,0 37.875,16.95827 37.875,37.875 0,20.91673 -16.95827,37.875 -37.875,37.875 -20.91673,0 -37.875,-16.95827 -37.875,-37.875 0,-20.91673 16.95827,-37.875 37.875,-37.875 z"
           style="fill:#000000;fill-opacity:1;stroke:#000000;stroke-width:0.09033471;stroke-miterlimit:4;stroke-opacity:1;stroke-dasharray:none" />
        <path
           sodipodi:nodetypes="ccc"
           inkscape:connector-curvature="0"
           id="path3979"
           d="m 525.71429,446.29075 c 5.0416,-7.97046 32.88447,-14.32279 46.07143,0.35715 l -0.35715,0"
           style="fill:#000000;fill-opacity:1;stroke:none" />
        <rect
           y="432.71933"
           x="545.71429"
           height="7.5"
           width="5.7142859"
           id="rect3987"
           style="fill:#000000;fill-opacity:1;stroke:#000000;stroke-width:0.1;stroke-miterlimit:4;stroke-opacity:1;stroke-dasharray:none" />
      </g>
      <g
         transform="matrix(2.7024791,0,0,2.7024791,196.53138,-675.10995)"
         id="g8788">
        <path
           inkscape:connector-curvature="0"
           d="M 56.002792,284.86662"
           id="path3606" />
        <path
           inkscape:connector-curvature="0"
           d="m 61.325078,284.16915 h 9.869852 c 1.453721,-0.003 2.30681,0.92894 2.304571,2.18338 v 3.56321 H 61.325078 v -5.74659 l 0,0 z"
           id="path3614" />
        <path
           inkscape:connector-curvature="0"
           d="m 53.061484,281.74462 c -0.0028,-1.94436 -2.700327,-1.94436 -2.698368,0 v 15.58622 h 2.759103 v -4.01775 h 20.983792 v 3.98752 h 2.683814 v -12.0384 c 0.007,-2.051 -2.720199,-2.051 -2.713762,0 v 4.8059 H 53.061484 v -8.32349 l 0,0 z"
           id="path3616" />
        <path
           sodipodi:type="inkscape:offset"
           inkscape:radius="0.50952971"
           inkscape:original="M 59.125 246.53125 C 59.007803 246.54415 58.920673 246.59375 58.8125 246.65625 C 58.379809 246.90606 58.239919 247.45578 58.5 247.90625 L 61.84375 253.71875 L 61.84375 263.25 L 61.875 263.25 C 61.8739 263.2718 61.875 263.2904 61.875 263.3125 L 61.875 273.8125 C 61.875 274.53114 62.437607 275.125 63.15625 275.125 C 63.874893 275.125 64.46875 274.53114 64.46875 273.8125 L 64.46875 263.3125 C 64.46875 263.2904 64.46985 263.2718 64.46875 263.25 L 64.9375 263.25 C 64.9364 263.2718 64.9375 263.2904 64.9375 263.3125 L 64.9375 273.8125 C 64.9375 274.53114 65.500107 275.125 66.21875 275.125 C 66.937393 275.125 67.53125 274.53114 67.53125 273.8125 L 67.53125 263.3125 C 67.53125 263.2904 67.53235 263.2718 67.53125 263.25 L 67.53125 254.125 C 67.56636 254.0827 67.59649 254.0494 67.625 254 L 71.03125 248.125 C 71.291331 247.67453 71.151441 247.12481 70.71875 246.875 C 70.286059 246.62519 69.728831 246.7995 69.46875 247.25 L 66.5 252.34375 L 63.125 252.34375 L 60.0625 247.03125 C 59.867439 246.69339 59.476591 246.49241 59.125 246.53125 z M 64.6875 247.28125 C 63.428986 247.28125 62.40625 248.30399 62.40625 249.5625 C 62.40625 250.82101 63.428986 251.84375 64.6875 251.84375 C 65.946014 251.84375 66.96875 250.82101 66.96875 249.5625 C 66.96875 248.30399 65.946014 247.28125 64.6875 247.28125 z "
           style="fill:#ffffff;fill-opacity:1"
           id="path8773"
           d="m 59.0625,246.03125 c -0.231085,0.0254 -0.390315,0.12413 -0.5,0.1875 -0.671819,0.38787 -0.889388,1.26307 -0.5,1.9375 l 3.28125,5.71875 0,9.375 a 0.50958066,0.50958066 0 0 0 0.03125,0.1875 l 0,10.375 c 0,0.98457 0.781903,1.8125 1.78125,1.8125 0.668428,0 1.245456,-0.36346 1.5625,-0.90625 0.312357,0.52388 0.845972,0.90625 1.5,0.90625 0.999347,0 1.8125,-0.81316 1.8125,-1.8125 l 0,-10.5 c 0,-0.003 1.92e-4,-0.0375 0,-0.0625 l 0,-0.0313 0,-8.90625 c 0.01686,-0.0239 0.01382,-0.0323 0.03125,-0.0625 l 3.40625,-5.875 c 0.389388,-0.67443 0.171819,-1.54963 -0.5,-1.9375 -0.685619,-0.39584 -1.548315,-0.11163 -1.9375,0.5625 l -1.59375,2.75 c 0.0045,-0.0643 0.03125,-0.12215 0.03125,-0.1875 0,-1.53456 -1.246687,-2.78125 -2.78125,-2.78125 -1.44603,0 -2.585231,1.11855 -2.71875,2.53125 L 60.5,246.78125 c -0.298673,-0.51732 -0.854272,-0.81443 -1.4375,-0.75 z"
           transform="translate(-4.2857143,22.589286)" />
        <path
           id="path8765"
           d="m 54.83482,269.10714 c -0.117197,0.0129 -0.204327,0.0625 -0.3125,0.125 -0.432691,0.24981 -0.572581,0.79953 -0.3125,1.25 l 3.34375,5.8125 0,9.53125 0.03125,0 c -0.0011,0.0218 0,0.0404 0,0.0625 l 0,10.5 c 0,0.71864 0.562607,1.3125 1.28125,1.3125 0.718643,0 1.3125,-0.59386 1.3125,-1.3125 l 0,-10.5 c 0,-0.0221 0.0011,-0.0407 0,-0.0625 l 0.46875,0 c -0.0011,0.0218 0,0.0404 0,0.0625 l 0,10.5 c 0,0.71864 0.562607,1.3125 1.28125,1.3125 0.718643,0 1.3125,-0.59386 1.3125,-1.3125 l 0,-10.5 c 0,-0.0221 0.0011,-0.0407 0,-0.0625 l 0,-9.125 c 0.03511,-0.0423 0.06524,-0.0756 0.09375,-0.125 l 3.40625,-5.875 c 0.260081,-0.45047 0.120191,-1.00019 -0.3125,-1.25 -0.432691,-0.24981 -0.989919,-0.0755 -1.25,0.375 l -2.96875,5.09375 -3.375,0 -3.0625,-5.3125 c -0.195061,-0.33786 -0.585909,-0.53884 -0.9375,-0.5 z m 5.5625,0.75 c -1.258514,0 -2.28125,1.02274 -2.28125,2.28125 0,1.25851 1.022736,2.28125 2.28125,2.28125 1.258514,0 2.28125,-1.02274 2.28125,-2.28125 0,-1.25851 -1.022736,-2.28125 -2.28125,-2.28125 z"
           style="fill:#000000;fill-opacity:1"
           inkscape:connector-curvature="0" />
      </g>
    </g>
    <g
       id="g3249" />
    <g
       id="g3347"
       transform="translate(0,82.756531)">
      <g
         transform="matrix(0.94117704,0,0,0.94117704,172.93623,2.0449148)"
         id="g5793">
        <g
           id="g5772">
          <rect
             rx="4.6752114"
             style="fill:#000000;fill-opacity:1;stroke:none"
             id="rect5766"
             width="27.857141"
             height="34.506577"
             x="319.28571"
             y="200.46603"
             ry="4.6752114" />
          <rect
             rx="4.8146462"
             ry="4.8146462"
             y="220.93361"
             x="324.91071"
             height="35.535713"
             width="16.607143"
             id="rect5768"
             style="fill:#000000;fill-opacity:1;stroke:none" />
          <path
             sodipodi:type="arc"
             style="fill:#000000;fill-opacity:1;stroke:none"
             id="path5770"
             sodipodi:cx="336.33929"
             sodipodi:cy="194.41576"
             sodipodi:rx="9.0178576"
             sodipodi:ry="9.0178576"
             d="m 345.35715,194.41576 c 0,4.98042 -4.03743,9.01785 -9.01786,9.01785 -4.98042,0 -9.01785,-4.03743 -9.01785,-9.01785 0,-4.98043 4.03743,-9.01786 9.01785,-9.01786 4.98043,0 9.01786,4.03743 9.01786,9.01786 z"
             transform="matrix(0.91089109,0,0,0.91089109,26.845827,13.48489)" />
        </g>
        <g
           transform="matrix(1.1469879,0,0,1.1469879,-12.996343,-31.626473)"
           id="g5777">
          <rect
             rx="4.6752114"
             ry="4.6752114"
             y="200.46603"
             x="319.28571"
             height="34.506577"
             width="27.857141"
             id="rect5779"
             style="fill:#000000;fill-opacity:1;stroke:none" />
          <rect
             rx="4.8146462"
             style="fill:#000000;fill-opacity:1;stroke:none"
             id="rect5781"
             width="16.607143"
             height="35.535713"
             x="324.91071"
             y="220.93361"
             ry="4.8146462" />
          <path
             transform="matrix(0.91089109,0,0,0.91089109,26.845827,13.48489)"
             d="m 345.35715,194.41576 c 0,4.98042 -4.03743,9.01785 -9.01786,9.01785 -4.98042,0 -9.01785,-4.03743 -9.01785,-9.01785 0,-4.98043 4.03743,-9.01786 9.01785,-9.01786 4.98043,0 9.01786,4.03743 9.01786,9.01786 z"
             sodipodi:ry="9.0178576"
             sodipodi:rx="9.0178576"
             sodipodi:cy="194.41576"
             sodipodi:cx="336.33929"
             id="path5783"
             style="fill:#000000;fill-opacity:1;stroke:none"
             sodipodi:type="arc" />
        </g>
        <g
           transform="translate(71.964286,0)"
           id="g5785">
          <rect
             rx="4.6752114"
             ry="4.6752114"
             y="200.46603"
             x="319.28571"
             height="34.506577"
             width="27.857141"
             id="rect5787"
             style="fill:#000000;fill-opacity:1;stroke:none" />
          <rect
             rx="4.8146462"
             style="fill:#000000;fill-opacity:1;stroke:none"
             id="rect5789"
             width="16.607143"
             height="35.535713"
             x="324.91071"
             y="220.93361"
             ry="4.8146462" />
          <path
             transform="matrix(0.91089109,0,0,0.91089109,26.845827,13.48489)"
             d="m 345.35715,194.41576 c 0,4.98042 -4.03743,9.01785 -9.01786,9.01785 -4.98042,0 -9.01785,-4.03743 -9.01785,-9.01785 0,-4.98043 4.03743,-9.01786 9.01785,-9.01786 4.98043,0 9.01786,4.03743 9.01786,9.01786 z"
             sodipodi:ry="9.0178576"
             sodipodi:rx="9.0178576"
             sodipodi:cy="194.41576"
             sodipodi:cx="336.33929"
             id="path5791"
             style="fill:#000000;fill-opacity:1;stroke:none"
             sodipodi:type="arc" />
        </g>
      </g>
      <g
         transform="matrix(0.71794896,0,0,0.71794896,225.36021,42.06161)"
         id="g5875">
        <path
           inkscape:connector-curvature="0"
           id="rect5861"
           d="m 203.46875,196.8125 c -3.73656,0.52912 -7.51596,1.65017 -11.3125,3.46875 l 0,45.96875 32.59375,0 0,-45.96875 c -3.8121,-1.76236 -7.66261,-2.92214 -11.53125,-3.46875 -2.0079,5.35262 -4.44768,11.68468 -4.96875,14 0.12334,0.57628 0.14361,0.90705 0,0.90625 -0.1432,-7.9e-4 -0.1287,-0.3344 0,-0.90625 -0.49671,-2.3207 -2.83626,-8.63541 -4.78125,-14 z"
           style="fill:#000000;fill-opacity:1;stroke:none" />
        <path
           transform="matrix(1,0,0,0.87037038,1.7857143,40.352503)"
           d="m 212.85714,166.64789 c 0,5.3256 -2.87816,9.64286 -6.42857,9.64286 -3.5504,0 -6.42857,-4.31726 -6.42857,-9.64286 0,-5.3256 2.87817,-9.64286 6.42857,-9.64286 3.55041,0 6.42857,4.31726 6.42857,9.64286 z"
           sodipodi:ry="9.6428576"
           sodipodi:rx="6.4285712"
           sodipodi:cy="166.64789"
           sodipodi:cx="206.42857"
           id="path5870"
           style="fill:#000000;fill-opacity:1;stroke:none"
           sodipodi:type="arc" />
        <path
           sodipodi:nodetypes="ccccc"
           inkscape:connector-curvature="0"
           id="rect5872"
           d="m 198.27455,245.21933 20.35714,0 -2.85714,43.21429 -13.92858,0 z"
           style="fill:#000000;fill-opacity:1;stroke:none" />
      </g>
      <g
         transform="matrix(0.58070106,0,0,0.58070106,296.54287,78.988348)"
         id="g6017">
        <path
           inkscape:connector-curvature="0"
           id="path5987"
           d="m 639.53125,155.25 c -0.51296,2.4e-4 -1.07489,0.0785 -1.71875,0.28125 -6.86786,2.16229 0.21413,9.93167 -5.5,14.3125 -5.71413,4.38083 -11.34756,-4.47723 -15.21875,1.59375 -3.87119,6.07098 6.53008,7.43987 4.96875,14.46875 -1.56133,7.02888 -11.5931,3.89225 -10.65625,11.03125 0.93685,7.13899 9.80297,1.48696 13.125,7.875 3.32203,6.38804 -6.36902,10.41466 -1.0625,15.28125 5.30652,4.86659 8.47403,-5.13316 15.125,-2.375 6.65098,2.75816 1.80678,12.08919 9,12.40625 7.19322,0.31706 3.19464,-9.40021 10.0625,-11.5625 6.86786,-2.16229 9.12962,8.09958 14.84375,3.71875 5.71413,-4.38083 -3.58994,-9.27277 0.28125,-15.34375 3.87119,-6.07098 12.21992,0.34138 13.78125,-6.6875 1.56133,-7.02888 -8.7194,-4.76726 -9.65625,-11.90625 -0.93685,-7.139 9.57203,-7.61196 6.25,-14 -3.32203,-6.38804 -9.72473,1.92909 -15.03125,-2.9375 -5.30652,-4.86659 2.43223,-11.96059 -4.21875,-14.71875 -6.65097,-2.75816 -6.21303,7.75456 -13.40625,7.4375 -6.51886,-0.28733 -6.01011,-8.87728 -10.96875,-8.875 z m 9.5,29.84375 c 4.18419,0 7.59375,3.40956 7.59375,7.59375 0,4.18419 -3.40956,7.5625 -7.59375,7.5625 -4.18419,0 -7.5625,-3.37831 -7.5625,-7.5625 0,-4.18419 3.37831,-7.59375 7.5625,-7.59375 z"
           style="fill:#000000;fill-opacity:1;stroke:none" />
        <path
           inkscape:connector-curvature="0"
           style="fill:#000000;fill-opacity:1;stroke:none"
           d="m 613.26728,218.132 c -0.51296,2.4e-4 -1.07489,0.0785 -1.71875,0.28125 -6.86786,2.16229 0.21413,9.93167 -5.5,14.3125 -5.71413,4.38083 -11.34756,-4.47723 -15.21875,1.59375 -3.87119,6.07098 6.53008,7.43987 4.96875,14.46875 -1.56133,7.02888 -11.5931,3.89225 -10.65625,11.03125 0.93685,7.13899 9.80297,1.48696 13.125,7.875 3.32203,6.38804 -6.36902,10.41466 -1.0625,15.28125 5.30652,4.86659 8.47403,-5.13316 15.125,-2.375 6.65098,2.75816 1.80678,12.08919 9,12.40625 7.19322,0.31706 3.19464,-9.40021 10.0625,-11.5625 6.86786,-2.16229 9.12962,8.09958 14.84375,3.71875 5.71413,-4.38083 -3.58994,-9.27277 0.28125,-15.34375 3.87119,-6.07098 12.21992,0.34138 13.78125,-6.6875 1.56133,-7.02888 -8.7194,-4.76726 -9.65625,-11.90625 -0.93685,-7.139 9.57203,-7.61196 6.25,-14 -3.32203,-6.38804 -9.72473,1.92909 -15.03125,-2.9375 -5.30652,-4.86659 2.43223,-11.96059 -4.21875,-14.71875 -6.65097,-2.75816 -6.21303,7.75456 -13.40625,7.4375 -6.51886,-0.28733 -6.01011,-8.87728 -10.96875,-8.875 z m 9.5,29.84375 c 4.18419,0 7.59375,3.40956 7.59375,7.59375 0,4.18419 -3.40956,7.5625 -7.59375,7.5625 -4.18419,0 -7.5625,-3.37831 -7.5625,-7.5625 0,-4.18419 3.37831,-7.59375 7.5625,-7.59375 z"
           id="path5994" />
      </g>
      <g
         id="g4404"
         transform="matrix(1.1762612,0,0,1.1762612,-594.18053,-974.0071)">
        <path
           id="path3888"
           d="m 731.08163,991.75076 c -1.97881,0 -3.5885,1.60225 -3.5885,3.56699 v 13.86075 c 1.89439,0.8648 3.04063,2.616 3.04063,4.5212 0,1.2671 -0.50567,2.4754 -1.43094,3.4089 l -7.35411,8.0675 c -0.34015,0.4237 -0.79533,1.0825 -1.02375,1.8166 -0.1258,0.3931 -0.16304,0.8135 -0.17462,1.3399 h -2.32889 c 0.0108,-0.7366 0.0712,-1.3821 0.28635,-2.04 0.39477,-1.2721 1.18845,-2.3099 1.65687,-2.8603 l 7.24239,-7.7588 c 0.43946,-0.5172 0.67863,-1.176 0.67863,-1.853 0,-1.5691 -1.27782,-2.8445 -2.84696,-2.8445 -0.74402,0 -1.44666,0.2814 -1.98047,0.7978 l -15.01775,15.0799 c -2.59703,2.7187 -2.42654,5.4895 -2.42654,7.5635 l 0.0141,5.4448 h 12.88087 v -2.2883 c 0,-1.4839 0.28966,-2.4638 1.46238,-3.5687 l 11.83643,-12.568 c 1.69411,-1.9813 2.64007,-4.5154 2.64007,-7.1398 v -18.97945 c 8.3e-4,-1.96474 -1.59645,-3.56699 -3.56616,-3.56699 z"
           inkscape:connector-curvature="0" />
        <path
           id="path3890-1"
           d="m 677.45934,1011.7747 c -0.53712,-0.514 -1.23893,-0.7962 -1.98129,-0.7962 -1.56997,0 -2.85028,1.2745 -2.85028,2.8428 0,0.6787 0.24,1.3375 0.67946,1.8547 l 7.24405,7.7588 c 0.46759,0.5496 1.2621,1.5857 1.65769,2.8578 0.2127,0.6596 0.27311,1.3034 0.28635,2.0408 h -2.33219 c -0.009,-0.5272 -0.048,-0.9484 -0.17297,-1.3407 -0.22759,-0.7341 -0.68195,-1.392 -1.02458,-1.8133 l -7.35411,-8.0708 c -0.92609,-0.9335 -1.43093,-2.1418 -1.43093,-3.4089 0,-1.9052 1.14375,-3.6564 3.04062,-4.5212 v -13.86075 c 0,-1.96474 -1.61052,-3.56699 -3.58933,-3.56699 -1.9697,0 -3.56533,1.60225 -3.56533,3.56699 v 18.97945 c 0,2.6244 0.9443,5.1585 2.63841,7.1398 l 11.83726,12.5672 c 1.17438,1.1065 1.46156,2.0864 1.46156,3.5695 v 2.2883 h 12.88252 l 0.0149,-5.4448 c 0,-2.074 0.16966,-4.8448 -2.42572,-7.5635 l -15.01609,-15.079 z"
           inkscape:connector-curvature="0" />
        <path
           id="path4382"
           d="m 700.41176,1008.3553 c 1.57421,-1.5738 10.56045,-10.56533 16.17834,-16.18239 5.03316,-5.03355 4.92579,-12.37014 0.34966,-16.92153 -4.57615,-4.5526 -11.9758,-4.53264 -16.528,0.0439 -4.55178,-4.57654 -11.95144,-4.59649 -16.52758,-0.0439 -4.57613,4.55139 -4.68311,11.88798 0.34965,16.92153 5.6175,5.61706 14.60493,14.60859 16.17793,16.18239 z"
           inkscape:connector-curvature="0" />
      </g>
      <g
         transform="matrix(1.0318374,0,0,1.0318374,-155.87255,-1008.3455)"
         id="g4120">
        <path
           style="font-size:medium;font-style:normal;font-variant:normal;font-weight:normal;font-stretch:normal;text-indent:0;text-align:start;text-decoration:none;line-height:normal;letter-spacing:normal;word-spacing:normal;text-transform:none;direction:ltr;block-progression:tb;writing-mode:lr-tb;text-anchor:start;baseline-shift:baseline;color:#000000;fill:#000000;fill-opacity:1;stroke:none;stroke-width:5.03530836;marker:none;visibility:visible;display:inline;overflow:visible;enable-background:accumulate;font-family:Sans;-inkscape-font-specification:Sans"
           d="m 230.125,1141.1562 c -12.42766,0.031 -24.62865,6.0159 -32.09375,17.0626 -3.01732,1.8562 -5.70194,4.2402 -7.6875,7.1874 -7.5807,11.2526 -4.65009,26.5158 6.4375,34.25 2.9384,4.9708 6.92414,9.2134 11.71875,12.4376 17.75104,11.9368 41.90694,7.2197 53.84375,-10.5313 1.09675,-1.631 1.97496,-3.1404 2.78125,-4.7813 l 8.4375,2.625 a 2.5203766,2.5203766 0 1 0 1.5,-4.8124 l -10.53125,-3.25 -2.25,-0.7188 -0.84375,2.1875 c -0.87211,2.2393 -1.78212,3.7081 -3.28125,5.9375 -10.41827,15.4928 -31.35091,19.6058 -46.84375,9.1875 -4.27105,-2.8721 -7.83416,-6.6981 -10.40625,-11.1563 a 2.5179059,2.5179059 0 0 0 -0.625,-0.75 2.5179059,2.5179059 0 0 0 -0.0625,-0.031 2.5179059,2.5179059 0 0 0 -0.125,-0.094 2.5179059,2.5179059 0 0 0 -0.0625,-0.062 2.5179059,2.5179059 0 0 0 -0.125,-0.094 c -9.10894,-6.1366 -11.51159,-18.4223 -5.375,-27.5312 1.80101,-2.6734 4.22262,-4.8814 7.0625,-6.4063 a 2.5179059,2.5179059 0 0 0 1.28125,-1.5937 c 10.6221,-14.7089 30.95286,-18.5152 46.125,-8.3126 10.36483,6.9699 15.53541,17.828 14.84375,29.375 l -0.125,2.2813 2.21875,0.375 10.375,1.75 a 2.5199154,2.5199154 0 1 0 0.84375,-4.9687 l -8.28125,-1.4063 c -3.3e-4,-12.4193 -5.99206,-24.1182 -17.0625,-31.5625 -6.65664,-4.4763 -14.21411,-6.6124 -21.6875,-6.5938 z"
           id="path4074"
           inkscape:connector-curvature="0" />
        <path
           sodipodi:type="arc"
           style="fill:#000000;fill-opacity:1;stroke:#000000;stroke-opacity:1"
           id="path4076"
           sodipodi:cx="280.05713"
           sodipodi:cy="1303.4479"
           sodipodi:rx="12.071428"
           sodipodi:ry="45.871429"
           d="m 273.12352,1340.9977 c -5.45741,-14.5515 -6.77724,-43.1594 -2.94791,-63.8975 3.82932,-20.7382 11.35771,-25.7535 16.81513,-11.2021 5.45741,14.5514 6.77724,43.1593 2.94791,63.8975 -3.73534,20.2292 -11.01646,25.5781 -16.46679,12.0969"
           sodipodi:start="2.1826451"
           sodipodi:end="8.4309971"
           transform="matrix(0.4149226,0,0,0.30204743,87.139116,784.90159)"
           sodipodi:open="true" />
        <path
           sodipodi:type="arc"
           style="fill:none;stroke:#000000;stroke-width:14.99721813;stroke-linecap:round;stroke-miterlimit:4;stroke-opacity:1;stroke-dasharray:none"
           id="path4078"
           sodipodi:cx="500.71426"
           sodipodi:cy="1350.9336"
           sodipodi:rx="126.42857"
           sodipodi:ry="126.42857"
           d="m 539.36293,1230.5572 c 66.48202,21.3451 103.07275,92.543 81.72768,159.0251 -12.52581,39.0132 -43.1818,69.5369 -82.2489,81.8937"
           sodipodi:start="5.023058"
           sodipodi:end="7.5476396"
           sodipodi:open="true"
           transform="matrix(0.25181212,0,0,0.23847583,101.05838,857.76188)" />
      </g>
    </g>
    <g
       id="g3187"
       transform="matrix(0.98499266,0,0,0.98499266,-460.00765,137.73185)">
      <path
         id="rect5728"
         d="m 509.75,610.71875 c -1.84221,0 -3.3125,1.47029 -3.3125,3.3125 l 0,59.21875 c 0,1.84221 1.47029,3.3125 3.3125,3.3125 l 95.125,0 c 1.84221,0 3.3125,-1.47029 3.3125,-3.3125 l 0,-59.21875 c 0,-1.84221 -1.47029,-3.3125 -3.3125,-3.3125 l -95.125,0 z m -0.0937,4.125 95.3125,0 0,49.75 -95.3125,0 0,-49.75 z"
         style="fill:#000000;fill-opacity:1;stroke:none"
         inkscape:connector-curvature="0" />
      <path
         style="fill:#000000;fill-opacity:1;stroke:none"
         d="m 540.31713,689.41395 c 4.33965,-2.40194 9.34273,-3.21164 11.35457,-11.2003 l 11.35459,0 c 1.14649,6.7016 6.37542,8.80504 11.34976,11.2003 1.07842,1.08341 0.69351,1.92771 0,2.52372 l -34.05892,0 c -1.38407,-1.18725 -0.49819,-1.80702 0,-2.52372 z"
         id="path5732"
         inkscape:connector-curvature="0"
         sodipodi:nodetypes="ccccccc" />
    </g>
    <g
       id="g5951"
       transform="matrix(0.62467044,0,0,0.62467044,190.99549,612.71829)">
      <path
         style="fill:none;stroke:#000000;stroke-width:5.21045446;stroke-miterlimit:4;stroke-opacity:1"
         d="M 28.571428,205.21933 87.5,205.57647 l 10.535715,11.96429 10.535715,11.96428 0,98.57143 -80.000002,0 z"
         id="rect5938"
         inkscape:connector-curvature="0"
         sodipodi:nodetypes="ccccccc" />
      <path
         style="fill:none;stroke:#000000;stroke-width:5.21045494;stroke-linecap:butt;stroke-linejoin:miter;stroke-miterlimit:4;stroke-opacity:1;stroke-dasharray:none"
         d="m 85.357145,206.64791 0,23.92856 22.130605,0"
         id="path5949"
         inkscape:connector-curvature="0" />
    </g>
    <g
       id="g4267">
      <path
         id="path4402"
         d="m 398.78903,739.28534 c -22.07606,0 -39.9902,17.83105 -40.12453,39.8755 l -0.008,0 c 0,11.07968 -8.98259,20.06227 -20.06227,20.06227 -10.90656,0 -19.77998,-8.70814 -20.05449,-19.54865 0.2756,21.92215 18.12922,39.61092 40.11676,39.61092 22.07606,0 39.9902,-17.83106 40.12453,-39.87551 l 0.008,0 c 0,-11.07968 8.9826,-20.06227 20.06227,-20.06227 10.87292,0 19.72025,8.65359 20.0467,19.44748 -0.32918,-21.87534 -18.15528,-39.50974 -40.10897,-39.50974 z"
         style="fill:#000000;fill-opacity:1;stroke:none"
         inkscape:connector-curvature="0" />
      <path
         inkscape:connector-curvature="0"
         id="path4427"
         d="m 401.98637,742.1347 c -15.67733,0 -29.24975,8.99557 -35.85216,22.10118 l 3.95331,0.98054 c 6.68159,-12.8717 20.13076,-21.66538 35.63426,-21.66538 4.31767,0 8.4763,0.68338 12.37355,1.94553 -4.93026,-2.16357 -10.37988,-3.36187 -16.10896,-3.36187 z m -40.01559,37.19846 c -0.0636,0.88319 -0.10347,1.77114 -0.10894,2.66926 l -0.008,0 c 0,11.07968 -8.98259,20.07005 -20.06227,20.07005 -1.81282,0 -3.56721,-0.24944 -5.23736,-0.70039 2.69946,1.35302 5.7474,2.11673 8.97277,2.11673 11.07968,0 20.06227,-8.98259 20.06227,-20.06226 l 0.008,0 c 0.007,-1.06773 0.0595,-2.12091 0.14786,-3.16732 l -3.77433,-0.92607 z"
         style="fill:#ffffff;fill-opacity:1;stroke:none" />
    </g>
    <g
       id="g4271">
      <path
         inkscape:connector-curvature="0"
         id="path4448"
         d="m 536.95439,739.28533 c -22.07479,0 -40.00002,17.92524 -40.00002,40.00002 0,7.35826 -5.94891,13.34643 -13.30717,13.34643 -7.35826,0 -13.34643,-5.98817 -13.34643,-13.34643 0,22.07479 17.88598,40.00002 39.96077,40.00002 22.07478,0 40.00002,-17.92523 40.00002,-40.00002 0,-7.35826 5.94891,-13.34642 13.30717,-13.34642 7.35825,0 13.34642,5.98816 13.34642,13.34642 0,-22.07478 -17.88598,-40.00002 -39.96076,-40.00002 z"
         style="fill:#000000;fill-opacity:1;stroke:none" />
      <path
         inkscape:connector-curvature="0"
         id="path4501"
         d="m 541.42937,742.8855 c -13.10691,0 -24.7338,6.2998 -32.03142,16.05496 l 4.39647,1.3739 c 6.7389,-9.83652 17.7472,-16.51399 30.34349,-17.35035 -0.89093,-0.0594 -1.80256,-0.0785 -2.70854,-0.0785 z"
         style="fill:#ffffff;fill-opacity:1;stroke:none" />
      <path
         inkscape:connector-curvature="0"
         id="path4494"
         d="m 502.88175,772.16913 c -0.9457,3.40765 -1.4524,7.00948 -1.4524,10.71639 0,6.43848 -4.53052,11.82487 -10.59864,13.07165 0.86796,0.1781 1.74951,0.27477 2.66929,0.27477 7.35826,0 13.30717,-5.98816 13.30717,-13.34642 0,-3.14211 0.3727,-6.21161 1.05986,-9.14623 l -4.98528,-1.57016 z"
         style="fill:#ffffff;fill-opacity:1;stroke:none" />
    </g>
    <text
       xml:space="preserve"
       style="font-size:40px;font-style:normal;font-weight:normal;line-height:125%;letter-spacing:0px;word-spacing:0px;fill:#000000;fill-opacity:1;stroke:none;font-family:Sans"
       x="162.96428"
       y="22.669329"
       id="text3461"
       sodipodi:linespacing="125%"><tspan
         sodipodi:role="line"
         id="tspan3463"
         x="162.96428"
         y="22.669329"
         style="font-size:18px;font-style:normal;font-variant:normal;font-weight:normal;font-stretch:normal;text-align:start;line-height:125%;writing-mode:lr-tb;text-anchor:start;font-family:Sans;-inkscape-font-specification:Sans">these pictograms were drawn or assembled from</tspan><tspan
         sodipodi:role="line"
         x="162.96428"
         y="45.169334"
         style="font-size:18px;font-style:normal;font-variant:normal;font-weight:normal;font-stretch:normal;text-align:start;line-height:125%;writing-mode:lr-tb;text-anchor:start;font-family:Sans;-inkscape-font-specification:Sans"
         id="tspan3467">public domain sources by Johannes Ahlmann</tspan><tspan
         sodipodi:role="line"
         x="162.96428"
         y="67.669334"
         style="font-size:18px;font-style:normal;font-variant:normal;font-weight:normal;font-stretch:normal;text-align:start;line-height:125%;writing-mode:lr-tb;text-anchor:start;font-family:Sans;-inkscape-font-specification:Sans"
         id="tspan3465">and are published in the Public Domain.</tspan></text>
  </g>
</svg>
