<?xml version="1.0" encoding="UTF-8" standalone="no"?>
<!-- Created with Inkscape (http://www.inkscape.org/) -->

<svg
   xmlns:dc="http://purl.org/dc/elements/1.1/"
   xmlns:cc="http://creativecommons.org/ns#"
   xmlns:rdf="http://www.w3.org/1999/02/22-rdf-syntax-ns#"
   xmlns:svg="http://www.w3.org/2000/svg"
   xmlns="http://www.w3.org/2000/svg"
   xmlns:sodipodi="http://sodipodi.sourceforge.net/DTD/sodipodi-0.dtd"
   xmlns:inkscape="http://www.inkscape.org/namespaces/inkscape"
   width="2132.1855"
   height="429.28806"
   id="svg23039"
   version="1.1"
   inkscape:version="0.48.3.1 r9886"
   sodipodi:docname="New document 5">
  <defs
     id="defs23041" />
  <sodipodi:namedview
     id="base"
     pagecolor="#ffffff"
     bordercolor="#666666"
     borderopacity="1.0"
     inkscape:pageopacity="0.0"
     inkscape:pageshadow="2"
     inkscape:zoom="0.35"
     inkscape:cx="933.23352"
     inkscape:cy="-208.56484"
     inkscape:document-units="px"
     inkscape:current-layer="layer1"
     showgrid="false"
     fit-margin-top="100"
     fit-margin-left="100"
     fit-margin-right="100"
     fit-margin-bottom="100"
     inkscape:window-width="1280"
     inkscape:window-height="948"
     inkscape:window-x="0"
     inkscape:window-y="24"
     inkscape:window-maximized="1" />
  <metadata
     id="metadata23044">
    <rdf:RDF>
      <cc:Work
         rdf:about="">
        <dc:format>image/svg+xml</dc:format>
        <dc:type
           rdf:resource="http://purl.org/dc/dcmitype/StillImage" />
        <dc:title></dc:title>
      </cc:Work>
    </rdf:RDF>
  </metadata>
  <g
     inkscape:label="Layer 1"
     inkscape:groupmode="layer"
     id="layer1"
     transform="translate(70.086464,-8.7949919)">
    <g
       id="id11:id11"
       transform="matrix(0.80016141,0,0,0.80016141,1697.5611,108.80536)">
      <g
         id="id11:surface1">
        <path
           style="fill:#f5ff11;fill-opacity:1;fill-rule:nonzero;stroke:none"
           d="M 81.335938,85.625 C 79.761719,87.386719 62.171875,69.761719 59.859375,70.628906 57.542969,71.496094 54.042969,99.65625 51.597656,99.976562 49.148438,100.29688 44.9375,71.425781 42.550781,70.738281 40.167969,70.046875 26.347656,87.425781 24.277344,86.121094 22.207031,84.816406 29.195312,63.601562 28.042969,61.382812 26.890625,59.164062 0.550781,58.121094 0.0078125,55.644531 -0.535156,53.167969 23.882812,46.671875 24.085938,44.21875 24.285156,41.765625 7.691406,27.910156 8.640625,25.757812 9.59375,23.609375 31.8125,32.816406 33.3125,30.929688 34.816406,29.042969 30.386719,5.316406 32.664062,4.605469 34.945312,3.894531 48.628906,20.554688 51.0625,20.476562 53.496094,20.398438 60.816406,-0.480469 63.300781,0.0078125 65.785156,0.496094 64.546875,22.15625 66.46875,23.601562 c 1.921875,1.445313 20.941406,-5.421874 22.351562,-3.457031 1.414063,1.96875 -10.902343,21.09375 -10.164062,23.359375 0.742188,2.269532 23.30859,4.433594 23,6.777344 -0.30859,2.34375 -28.214844,3.34375 -29.375,5.613281 -1.164062,2.273438 10.632812,27.964844 9.054688,29.730469 z"
           id="path6761"
           inkscape:connector-curvature="0" />
        <path
           style="fill:#ffffff;fill-opacity:1;fill-rule:nonzero;stroke:#f5ff11;stroke-width:7.692451;stroke-linecap:butt;stroke-linejoin:miter;stroke-miterlimit:0.5;stroke-opacity:1"
           d="m 194.51734,77.284729 c 0,20.660132 -17.86452,37.408101 -39.90066,37.408101 -22.03614,0 -39.90066,-16.747969 -39.90066,-37.408101 0,-20.660132 17.86452,-37.408103 39.90066,-37.408103 22.03614,0 39.90066,16.747971 39.90066,37.408103 z"
           transform="matrix(0.845557,0,0,0.756855,-80.401273,-13.317532)"
           id="path6763"
           inkscape:connector-curvature="0" />
      </g>
    </g>
    <g
       id="id5:id5"
       transform="matrix(0.93277959,0,0,0.93277959,696.97622,108.80377)">
      <g
         id="id5:surface1">
        <path
           style="fill:none;stroke:#6697e8;stroke-width:6.15399885;stroke-linecap:round;stroke-linejoin:round;stroke-miterlimit:0.5;stroke-opacity:1"
           d="m 110.21239,307.58339 c 8.54687,-2.05078 14.01171,-5.19141 14.01171,-8.69531 0,-0.41407 -0.25781,-0.78516 -0.40625,-1.1875 0.91016,0.22656 1.8125,0.46875 2.8125,0.46875 5.56641,0 10.09375,-3.78125 10.09375,-8.4375 0,-4.65625 -4.52734,-8.4375 -10.09375,-8.4375 -0.68359,0 -1.26171,0.23437 -1.90625,0.34375 0.5625,-1.86329 0.9375,-3.76172 0.9375,-5.78125 0,-12.32422 -11.15625,-22.34376 -24.9375,-22.34376 -9.76562,0 -18.148432,5.06251 -22.249995,12.37501 -1.640625,-0.91407 -3.445312,-1.46875 -5.375,-1.46875 -5.835937,0 -10.6875,4.6914 -12.1875,11.0625 -2.5625,-1.01172 -5.539062,-1.625 -8.71875,-1.625 -9.542969,0 -17.28125,5.21875 -17.28125,11.65625 0,5.80859 6.347656,10.58593 14.59375,11.46875 -0.371094,0.625 -0.65625,1.24609 -0.65625,1.90625 0,2.85937 3.636719,5.47656 9.621094,7.45703"
           transform="translate(-31.83348,-250.43495)"
           id="path6685"
           inkscape:connector-curvature="0" />
        <path
           style="fill:none;stroke:#6697e8;stroke-width:6.15399885;stroke-linecap:round;stroke-linejoin:round;stroke-miterlimit:0.5;stroke-opacity:1"
           d="m 110.0952,307.61464 c 0.0391,-0.0117 0.0781,-0.0195 0.11719,-0.0313"
           transform="translate(-31.83348,-250.43495)"
           id="path6687"
           inkscape:connector-curvature="0" />
        <path
           style="fill:none;stroke:#6697e8;stroke-width:6.15399885;stroke-linecap:round;stroke-linejoin:round;stroke-miterlimit:0.5;stroke-opacity:1"
           d="m 58.470199,306.34511 c 0.04297,0.0156 0.08594,0.0273 0.125,0.043"
           transform="translate(-31.83348,-250.43495)"
           id="path6689"
           inkscape:connector-curvature="0" />
        <path
           style="fill:#9c9c9c;fill-opacity:1;fill-rule:nonzero;stroke:#a6a6a6;stroke-width:0.28064299;stroke-linecap:round;stroke-linejoin:miter;stroke-miterlimit:0.5;stroke-opacity:1"
           d="m 138.99013,349.22718 c 0.65485,-2.24286 16.60046,3.44616 17.88561,1.49797 1.27696,-1.9318 -10.41213,-14.17751 -8.57855,-15.59363 1.84177,-1.43248 11.40259,12.54039 13.57997,11.72183 2.16919,-0.81038 -0.0819,-17.59093 2.23468,-17.6646 2.32472,-0.0655 1.84995,16.85422 4.09282,17.47633 2.23467,0.61392 10.27297,-14.28393 12.1884,-12.98241 1.92363,1.3097 -8.41483,14.71777 -6.95778,16.54316 1.44067,1.80903 16.70688,-5.51712 17.48451,-3.33974 0.79401,2.19375 -15.45448,6.96598 -15.34806,9.29888 0.10641,2.30835 16.75599,5.35341 16.10932,7.57171 -0.65485,2.24287 -16.59228,-3.44615 -17.87742,-1.49797 -1.27696,1.93181 10.40394,14.18571 8.57854,15.60182 -1.84995,1.4243 -11.40258,-12.54858 -13.58815,-11.73001 -2.16919,0.81856 0.0819,17.59093 -2.22649,17.6646 -2.33291,0.0655 -1.84995,-16.85422 -4.101,-17.47633 -2.2265,-0.61392 -10.27297,14.28393 -12.18023,12.98241 -1.93181,-1.3097 8.40665,-14.71777 6.94961,-16.54316 -1.44067,-1.80903 -16.6987,5.51711 -17.48452,3.33974 -0.78582,-2.19375 15.45448,-6.96598 15.34807,-9.29888 -0.10642,-2.30835 -16.756,-5.35341 -16.10933,-7.57172 z"
           transform="matrix(0.477208,0,0,0.477208,-35.069389,-122.43135)"
           id="path6691"
           inkscape:connector-curvature="0" />
        <path
           style="fill:#6697e8;fill-opacity:1;fill-rule:nonzero;stroke:#6697e8;stroke-width:4;stroke-linecap:butt;stroke-linejoin:miter;stroke-miterlimit:3.20000005;stroke-opacity:1"
           d="m 96.126449,297.20448 c -8.25,7.26953 1.4375,13.46875 5.121091,3.48438 l 2.83203,-9.25782 z"
           transform="translate(-31.83348,-250.43495)"
           id="path6693"
           inkscape:connector-curvature="0" />
        <path
           style="fill:#6697e8;fill-opacity:1;fill-rule:nonzero;stroke:#6697e8;stroke-width:4;stroke-linecap:butt;stroke-linejoin:miter;stroke-miterlimit:3.20000005;stroke-opacity:1"
           d="m 62.966293,322.64198 c -8.25,7.26953 1.4375,13.46875 5.121093,3.48438 l 2.832032,-9.26172 z"
           transform="translate(-31.83348,-250.43495)"
           id="path6695"
           inkscape:connector-curvature="0" />
        <path
           style="fill:#9c9c9c;fill-opacity:1;fill-rule:nonzero;stroke:#a6a6a6;stroke-width:0.28064299;stroke-linecap:round;stroke-linejoin:miter;stroke-miterlimit:0.5;stroke-opacity:1"
           d="m 138.99145,349.22335 c 0.65485,-2.23468 16.60046,3.44615 17.88561,1.50615 1.26877,-1.93181 -10.41213,-14.1857 -8.57855,-15.60182 1.84177,-1.42429 11.3944,12.54858 13.57997,11.72183 2.16919,-0.81038 -0.0819,-17.59092 2.22649,-17.65641 2.33291,-0.0737 1.84995,16.84603 4.101,17.46814 2.23468,0.61393 10.27297,-14.28393 12.18023,-12.98241 1.93181,1.31788 -8.40665,14.72595 -6.94961,16.54316 1.44067,1.80903 16.70688,-5.51711 17.48452,-3.33155 0.78582,2.19375 -15.45448,6.96598 -15.34807,9.2907 0.10642,2.31653 16.756,5.3534 16.10933,7.57989 -0.65485,2.23468 -16.60046,-3.44615 -17.88561,-1.49797 -1.26877,1.92363 10.41213,14.17752 8.57855,15.59363 -1.84177,1.42431 -11.39441,-12.54857 -13.57997,-11.72182 -2.16919,0.81037 0.0819,17.59092 -2.22649,17.65641 -2.33291,0.0737 -1.84996,-16.84604 -4.10101,-17.46814 -2.23467,-0.61393 -10.27297,14.28393 -12.18022,12.98241 -1.93181,-1.31789 8.40665,-14.72595 6.9496,-16.54316 -1.44067,-1.80903 -16.70688,5.51711 -17.48451,3.33155 -0.78582,-2.19375 15.45448,-6.96598 15.34806,-9.2907 -0.10641,-2.31653 -16.75599,-5.3534 -16.10932,-7.57989 z"
           transform="matrix(0.477208,0,0,0.477208,-19.17158,-97.44905)"
           id="path6697"
           inkscape:connector-curvature="0" />
      </g>
    </g>
    <g
       id="id7:id7"
       transform="matrix(0.95362912,0,0,0.95362912,1197.2677,108.80379)">
      <g
         id="id7:surface1">
        <path
           style="fill:none;stroke:#6697e8;stroke-width:6.15399885;stroke-linecap:round;stroke-linejoin:round;stroke-miterlimit:0.5;stroke-opacity:1"
           d="m 382.42859,306.73403 c 8.54688,-2.05078 14.01172,-5.19141 14.01172,-8.69531 0,-0.41407 -0.25781,-0.78516 -0.40625,-1.1875 0.91016,0.22656 1.8125,0.46875 2.8125,0.46875 5.56641,0 10.09375,-3.78125 10.09375,-8.4375 0,-4.65625 -4.52734,-8.4375 -10.09375,-8.4375 -0.68359,0 -1.26172,0.23437 -1.90625,0.34375 0.5625,-1.86329 0.9375,-3.76172 0.9375,-5.78125 0,-12.32422 -11.15625,-22.34376 -24.9375,-22.34376 -9.76562,0 -18.14844,5.06251 -22.25,12.37501 -1.64062,-0.91407 -3.44531,-1.46875 -5.375,-1.46875 -5.83594,0 -10.6875,4.6914 -12.1875,11.0625 -2.5625,-1.01172 -5.53906,-1.625 -8.71875,-1.625 -9.54297,0 -17.28125,5.21875 -17.28125,11.65625 0,5.80859 6.34766,10.58593 14.59375,11.46875 -0.37109,0.625 -0.65625,1.24609 -0.65625,1.90625 0,2.85937 3.63672,5.47656 9.62109,7.45703 m 51.625,1.26953 c 0.0391,-0.0117 -10.15234,0.97656 -10.11328,0.96875 m -41.51172,-2.23828 c 0.043,0.0156 7.55469,1.70312 8.5625,1.64453"
           transform="translate(-304.04969,-249.58559)"
           id="path6711"
           inkscape:connector-curvature="0" />
        <path
           style="fill:#9c9c9c;fill-opacity:1;fill-rule:nonzero;stroke:#a6a6a6;stroke-width:0.172987;stroke-linecap:round;stroke-linejoin:miter;stroke-miterlimit:0.5;stroke-opacity:1"
           d="m 336.73933,363.87633 c 0,5.7015 -4.62174,10.3182 -10.3182,10.3182 -5.7015,0 -10.3182,-4.6167 -10.3182,-10.3182 0,-5.69646 4.6167,-10.31316 10.3182,-10.31316 5.69646,0 10.3182,4.6167 10.3182,10.31316 z"
           transform="matrix(0.774193,0,0,0.774193,-200.79499,-226.55035)"
           id="path6713"
           inkscape:connector-curvature="0" />
        <path
           style="fill:#9c9c9c;fill-opacity:1;fill-rule:nonzero;stroke:#a6a6a6;stroke-width:0.172987;stroke-linecap:round;stroke-linejoin:miter;stroke-miterlimit:0.5;stroke-opacity:1"
           d="m 336.73936,363.87909 c 0,5.69646 -4.62175,10.31821 -10.31821,10.31821 -5.7015,0 -10.3182,-4.62175 -10.3182,-10.31821 0,-5.69645 4.6167,-10.3182 10.3182,-10.3182 5.69646,0 10.31821,4.62175 10.31821,10.3182 z"
           transform="matrix(0.774193,0,0,0.774193,-215.80282,-205.87671)"
           id="path6715"
           inkscape:connector-curvature="0" />
      </g>
    </g>
    <g
       id="id16:id16"
       transform="matrix(0.90573672,0,0,0.90573672,1864.3231,108.80385)">
      <g
         id="id16:surface1">
        <path
           style="fill:#ffffff;fill-opacity:1;fill-rule:nonzero;stroke:#6697e8;stroke-width:6.15399885;stroke-linecap:round;stroke-linejoin:round;stroke-miterlimit:0.5;stroke-opacity:1"
           d="m 110.53238,144.96987 c -9.76563,0 -18.148442,5.0625 -22.250005,12.375 -1.640625,-0.91406 -3.445312,-1.46875 -5.375,-1.46875 -5.835937,0 -10.6875,4.69141 -12.1875,11.0625 -2.5625,-1.01171 -5.539062,-1.625 -8.71875,-1.625 -9.542969,0 -17.28125,5.21875 -17.28125,11.65625 0,5.8086 6.347656,10.58594 14.59375,11.46875 -0.371094,0.625 -0.65625,1.2461 -0.65625,1.90625 0,6.16016 16.878906,11.1875 37.6875,11.1875 20.804685,0 37.687495,-5.02734 37.687495,-11.1875 0,-0.41406 -0.25781,-0.78515 -0.40625,-1.1875 0.91016,0.22657 1.8125,0.46875 2.8125,0.46875 5.56641,0 10.09375,-3.78125 10.09375,-8.4375 0,-4.65625 -4.52734,-8.4375 -10.09375,-8.4375 -0.68359,0 -1.26171,0.23438 -1.90625,0.34375 0.5625,-1.86328 0.9375,-3.76171 0.9375,-5.78125 0,-12.32421 -11.15624,-22.34375 -24.93749,-22.34375 z"
           transform="translate(-41.64175,-141.89175)"
           id="path6803"
           inkscape:connector-curvature="0" />
        <path
           style="fill:#6697e8;fill-opacity:1;fill-rule:nonzero;stroke:#6697e8;stroke-width:4;stroke-linecap:butt;stroke-linejoin:miter;stroke-miterlimit:3.20000005;stroke-opacity:1"
           d="m 83.8605,219.53237 c -8.25,7.26954 1.4375,13.46875 5.121094,3.48438 l 2.832031,-9.25781 z"
           transform="translate(-41.64175,-141.89175)"
           id="path6805"
           inkscape:connector-curvature="0" />
        <path
           style="fill:#ffffff;fill-opacity:1;fill-rule:nonzero;stroke:#6697e8;stroke-width:6.15399885;stroke-linecap:round;stroke-linejoin:round;stroke-miterlimit:0.5;stroke-opacity:1"
           d="m 110.53238,144.96987 c -9.76563,0 -18.148442,5.0625 -22.250005,12.375 -1.640625,-0.91406 -3.445312,-1.46875 -5.375,-1.46875 -5.835937,0 -10.6875,4.69141 -12.1875,11.0625 -2.5625,-1.01171 -5.539062,-1.625 -8.71875,-1.625 -9.542969,0 -17.28125,5.21875 -17.28125,11.65625 0,5.8086 6.347656,10.58594 14.59375,11.46875 -0.371094,0.625 -0.65625,1.2461 -0.65625,1.90625 0,6.16016 16.878906,11.1875 37.6875,11.1875 20.804685,0 37.687495,-5.02734 37.687495,-11.1875 0,-0.41406 -0.25781,-0.78515 -0.40625,-1.1875 0.91016,0.22657 1.8125,0.46875 2.8125,0.46875 5.56641,0 10.09375,-3.78125 10.09375,-8.4375 0,-4.65625 -4.52734,-8.4375 -10.09375,-8.4375 -0.68359,0 -1.26171,0.23438 -1.90625,0.34375 0.5625,-1.86328 0.9375,-3.76171 0.9375,-5.78125 0,-12.32421 -11.15624,-22.34375 -24.93749,-22.34375 z"
           transform="translate(-41.64175,-141.89175)"
           id="path6807"
           inkscape:connector-curvature="0" />
      </g>
    </g>
    <g
       id="id19:id19"
       transform="matrix(0.83918352,0,0,0.83918352,530.21247,108.80392)">
      <g
         id="id19:surface1">
        <path
           style="fill:#ffffff;fill-opacity:1;fill-rule:nonzero;stroke:none"
           d="m 113.57422,34.785156 c -1.29688,0.01563 0.51562,-0.476562 -2.78906,-0.40625 -1.49219,0.03125 -3.75391,0.632813 -5.65235,1.265625 -1.94531,0.648438 -5.300779,1.929688 -7.542966,2.496094 -4.597656,1.160156 -2.070313,0.609375 -8.933594,1.695313 -7.117188,1.125 -8.71875,1.269531 -10.304688,1.195312 -1.515624,-0.06641 -5.265624,0.394531 -8.792968,-0.07422 -3.160156,-0.425781 -4.371094,-0.109375 -5.101563,0.398438 -0.730469,0.503906 -1.15625,1.417969 -1.117187,2.386719 0.04297,0.964843 0.546875,1.828124 1.320312,2.25 0.71875,0.433593 1.8125,1.109374 3.636719,1.71875 4.648437,1.5625 11.484375,2.636718 19.070313,2.636718 7.589843,0 14.425782,-1.074218 19.074222,-2.636718 1.9414,-0.648438 3.16406,-1.371094 3.92187,-1.851563 0.64844,-0.40625 1.08985,-1.132813 1.19141,-1.960937 0.21094,-1.835938 1.32031,-3.347657 2.875,-3.925782 1.17969,-0.359375 1.91797,-1.683594 1.6914,-3.039062 -0.22265,-1.359375 -1.32421,-2.226563 -2.54687,-2.148438 z"
           id="path6839"
           inkscape:connector-curvature="0" />
        <path
           style="fill:#ffffff;fill-opacity:1;fill-rule:nonzero;stroke:#6697e8;stroke-width:6.71729422;stroke-linecap:round;stroke-linejoin:round;stroke-miterlimit:0.5;stroke-opacity:1"
           d="m 333.02688,123.38651 c -9.7641,0 -18.12541,5.08671 -22.22719,12.39913 -1.64156,-0.91672 -3.46647,-1.47528 -5.39371,-1.47528 -5.83287,0 -10.68508,4.69444 -12.18593,11.06456 -2.56255,-1.01478 -5.51736,-1.64156 -8.69816,-1.64156 -9.54238,0 -17.28544,5.22742 -17.28544,11.66575 0,5.8073 6.34454,10.58702 14.59072,11.46962 -0.37095,0.62678 -0.66088,1.25356 -0.66088,1.91019 0,6.16545 16.8889,11.17541 37.69625,11.17541 20.80307,0 37.69198,-5.00996 37.69198,-11.17541 0,-0.41359 -0.27288,-0.79733 -0.42211,-1.19813 0.91245,0.22598 1.82917,0.46475 2.82689,0.46475 5.56853,0 10.0711,-3.78625 10.0711,-8.44232 0,-4.65607 -4.50257,-8.41248 -10.0711,-8.41248 -0.6822,0 -1.2834,0.22172 -1.92723,0.32832 0.56282,-1.86328 0.95082,-3.7692 0.95082,-5.79024 0,-12.32665 -11.17115,-22.34231 -24.95601,-22.34231 z"
           transform="matrix(0.916143,0,0,0.916143,-241.74868,-109.96156)"
           id="path6841"
           inkscape:connector-curvature="0" />
        <path
           style="fill:#6697e8;fill-opacity:1;fill-rule:nonzero;stroke:#6697e8;stroke-width:6.71728277;stroke-linecap:round;stroke-linejoin:round;stroke-miterlimit:0.5;stroke-opacity:1"
           d="m 364.83482,125.17304 c -8.95398,0 -16.62455,5.0995 -20.38949,12.42471 -1.50086,-0.91672 -3.17653,-1.47527 -4.94601,-1.47527 -5.35106,0 -9.79821,4.6987 -11.17541,11.08587 -2.34936,-1.01478 -5.06113,-1.64582 -7.97757,-1.64582 -8.74932,0 -15.85707,5.24021 -15.85707,11.68707 0,5.82435 5.82008,10.6126 13.38406,11.49947 -0.33684,0.62678 -0.60546,1.25356 -0.60546,1.91444 0,6.17399 15.49039,11.19248 34.57089,11.19248 19.08477,0 34.57515,-5.01849 34.57515,-11.19248 0,-0.41358 -0.25156,-0.80159 -0.38801,-1.20239 0.83571,0.22598 1.67568,0.46476 2.59239,0.46476 5.10804,0 9.23966,-3.79478 9.23966,-8.45938 0,-4.6646 -4.13162,-8.42953 -9.23966,-8.42953 -0.62251,0 -1.1768,0.21745 -1.76947,0.32831 0.51592,-1.86754 0.87408,-3.77773 0.87408,-5.80303 0,-12.34796 -10.24591,-22.38921 -22.88808,-22.38921 z"
           transform="matrix(0.916143,0,0,0.916143,-241.74868,-109.96156)"
           id="path6843"
           inkscape:connector-curvature="0" />
        <path
           style="fill:#356194;fill-opacity:1;fill-rule:nonzero;stroke:#356194;stroke-width:6.71728802;stroke-linecap:round;stroke-linejoin:round;stroke-miterlimit:0.5;stroke-opacity:1"
           d="m 328.54989,163.26582 c -4.98438,0 -9.25671,2.54123 -11.3545,6.19104 -0.8357,-0.45623 -1.76948,-0.73764 -2.75441,-0.73764 -2.9804,0 -5.45767,2.34509 -6.22515,5.52589 -1.30472,-0.5074 -2.81837,-0.81865 -4.44288,-0.81865 -4.87352,0 -8.83033,2.60944 -8.83033,5.82008 0,2.89939 3.24475,5.28711 7.45312,5.72629 -0.1876,0.31552 -0.33684,0.62677 -0.33684,0.95509 0,3.07846 8.62993,5.57705 19.25532,5.57705 10.62539,0 19.25532,-2.49859 19.25532,-5.57705 0,-0.20467 -0.14071,-0.39654 -0.21746,-0.59694 0.46476,0.11086 0.93378,0.23025 1.44543,0.23025 2.84396,0 5.14215,-1.88886 5.14215,-4.21263 0,-2.32377 -2.29819,-4.19985 -5.14215,-4.19985 -0.34963,0 -0.65662,0.1066 -0.98494,0.16203 0.28568,-0.92951 0.48608,-1.88034 0.48608,-2.89086 0,-6.15266 -5.70923,-11.1541 -12.74876,-11.1541 z"
           transform="matrix(0.916143,0,0,0.916143,-241.74868,-109.96156)"
           id="path6845"
           inkscape:connector-curvature="0" />
        <path
           style="fill:#f5ff11;fill-opacity:1;fill-rule:nonzero;stroke:#f5ff11;stroke-width:0.5;stroke-linecap:round;stroke-linejoin:miter;stroke-miterlimit:0.5;stroke-opacity:1"
           d="m 633.6744,165.36269 -20.04297,12.70703 19.79297,4.36719 -18.29297,13.64453 -7.38672,-2.30469 5.23828,13.15235 20.82032,-5.73828 -8.78907,-2.39844 23.8711,-19.59766 -21.82032,-3.55078 21.07032,-13.24219 -12.01953,-1.98828 13.08984,-8.41797 -4.80859,-0.12109 -20.31641,11.54687 z"
           transform="translate(-566.41268,-146.84316)"
           id="path6847"
           inkscape:connector-curvature="0" />
        <path
           style="fill:#6697e8;fill-opacity:1;fill-rule:nonzero;stroke:#6697e8;stroke-width:4;stroke-linecap:butt;stroke-linejoin:miter;stroke-miterlimit:3.20000005;stroke-opacity:1"
           d="m 595.99862,230.28847 c -8.25391,7.26953 1.43359,13.46875 5.11719,3.48438 l 2.83593,-9.25782 z"
           transform="translate(-566.41268,-146.84316)"
           id="path6849"
           inkscape:connector-curvature="0" />
        <path
           style="fill:#6697e8;fill-opacity:1;fill-rule:nonzero;stroke:#6697e8;stroke-width:4;stroke-linecap:butt;stroke-linejoin:miter;stroke-miterlimit:3.20000005;stroke-opacity:1"
           d="m 625.04549,231.48769 c -8.25,7.26953 1.4375,13.46875 5.1211,3.48828 l 2.83203,-9.26172 z"
           transform="translate(-566.41268,-146.84316)"
           id="path6851"
           inkscape:connector-curvature="0" />
        <path
           style="fill:#6697e8;fill-opacity:1;fill-rule:nonzero;stroke:#6697e8;stroke-width:4;stroke-linecap:butt;stroke-linejoin:miter;stroke-miterlimit:3.20000005;stroke-opacity:1"
           d="m 618.28377,216.14394 c -8.2539,7.26953 1.4336,13.46875 5.11719,3.48828 l 2.83203,-9.26172 z"
           transform="translate(-566.41268,-146.84316)"
           id="path6853"
           inkscape:connector-curvature="0" />
        <path
           style="fill:#6697e8;fill-opacity:1;fill-rule:nonzero;stroke:#6697e8;stroke-width:4;stroke-linecap:butt;stroke-linejoin:miter;stroke-miterlimit:3.20000005;stroke-opacity:1"
           d="m 595.99862,230.28847 c -8.25391,7.26953 1.43359,13.46875 5.11719,3.48438 l 2.83593,-9.25782 z"
           transform="translate(-566.41268,-146.84316)"
           id="path6855"
           inkscape:connector-curvature="0" />
        <path
           style="fill:#6697e8;fill-opacity:1;fill-rule:nonzero;stroke:#6697e8;stroke-width:4;stroke-linecap:butt;stroke-linejoin:miter;stroke-miterlimit:3.20000005;stroke-opacity:1"
           d="m 625.04549,231.48769 c -8.25,7.26953 1.4375,13.46875 5.1211,3.48828 l 2.83203,-9.26172 z"
           transform="translate(-566.41268,-146.84316)"
           id="path6857"
           inkscape:connector-curvature="0" />
        <path
           style="fill:#6697e8;fill-opacity:1;fill-rule:nonzero;stroke:#6697e8;stroke-width:4;stroke-linecap:butt;stroke-linejoin:miter;stroke-miterlimit:3.20000005;stroke-opacity:1"
           d="m 618.28377,216.14394 c -8.2539,7.26953 1.4336,13.46875 5.11719,3.48828 l 2.83203,-9.26172 z"
           transform="translate(-566.41268,-146.84316)"
           id="path6859"
           inkscape:connector-curvature="0" />
      </g>
    </g>
    <g
       id="id6:id6"
       transform="matrix(0.89581444,0,0,0.89581444,1530.7954,108.80134)">
      <g
         id="id6:surface1">
        <path
           style="fill:none;stroke:#6697e8;stroke-width:6.15399885;stroke-linecap:round;stroke-linejoin:round;stroke-miterlimit:0.5;stroke-opacity:1"
           d="m 248.29623,304.85805 c 8.54687,-2.05078 14.01172,-5.19141 14.01172,-8.69532 0,-0.41406 -0.25782,-0.78515 -0.40625,-1.1875 0.91015,0.22657 1.8125,0.46875 2.8125,0.46875 5.5664,0 10.09375,-3.78125 10.09375,-8.4375 0,-4.65625 -4.52735,-8.4375 -10.09375,-8.4375 -0.6836,0 -1.26172,0.23438 -1.90625,0.34375 0.5625,-1.86328 0.9375,-3.76171 0.9375,-5.78125 0,-12.32421 -11.15626,-22.34375 -24.93751,-22.34375 -9.76562,0 -18.14843,5.0625 -22.25,12.375 -1.64062,-0.91406 -3.44531,-1.46875 -5.375,-1.46875 -5.83593,0 -10.6875,4.69141 -12.1875,11.0625 -2.5625,-1.01171 -5.53906,-1.625 -8.71875,-1.625 -9.54296,0 -17.28125,5.21875 -17.28125,11.65625 0,5.8086 6.34766,10.58594 14.59375,11.46875 -0.37109,0.625 -0.65625,1.2461 -0.65625,1.90625 0,2.85938 3.63672,5.47657 9.6211,7.45704 m 51.625,1.26953 c 0.0391,-0.0117 -7.89453,0.97656 -7.85547,0.96875 m -43.76953,-2.23828 c 0.043,0.0156 4.73437,1.02734 4.77734,1.03906"
           transform="translate(-169.91732,-247.70961)"
           id="path6701"
           inkscape:connector-curvature="0" />
        <path
           style="fill:#9c9c9c;fill-opacity:1;fill-rule:nonzero;stroke:#a6a6a6;stroke-width:0.28064299;stroke-linecap:round;stroke-linejoin:miter;stroke-miterlimit:0.5;stroke-opacity:1"
           d="m 138.99205,349.22332 c 0.65485,-2.23468 16.60047,3.44615 17.88561,1.50615 1.26878,-1.93181 -10.41212,-14.1857 -8.57854,-15.60182 1.84177,-1.4243 11.3944,12.54858 13.57997,11.72183 2.16919,-0.81038 -0.0819,-17.59093 2.22649,-17.65641 2.3329,-0.0737 1.84995,16.84603 4.101,17.46814 2.23468,0.61392 10.27297,-14.28393 12.18022,-12.98241 1.93181,1.31788 -8.40664,14.72595 -6.9496,16.54316 1.44067,1.80903 16.70688,-5.51711 17.48451,-3.33155 0.78583,2.19375 -15.45447,6.96597 -15.34806,9.29069 0.10642,2.31654 16.75599,5.35341 16.10933,7.5799 -0.65485,2.23468 -16.60047,-3.44615 -17.88561,-1.49797 -1.26877,1.92362 10.41213,14.17752 8.57854,15.59363 -1.84176,1.4243 -11.3944,-12.54857 -13.57996,-11.72183 -2.1692,0.81038 0.0819,17.59093 -2.2265,17.65642 -2.3329,0.0737 -1.84995,-16.84604 -4.101,-17.46815 -2.23468,-0.61392 -10.27297,14.28394 -12.18022,12.98242 -1.93181,-1.31789 8.40664,-14.72596 6.9496,-16.54317 -1.44067,-1.80902 -16.70688,5.51712 -17.48451,3.33156 -0.78582,-2.19375 15.45447,-6.96598 15.34806,-9.2907 -0.10641,-2.31653 -16.75599,-5.3534 -16.10933,-7.57989 z"
           transform="matrix(0.477208,0,0,0.477208,-28.20312,-121.05841)"
           id="path6703"
           inkscape:connector-curvature="0" />
        <path
           style="fill:#9c9c9c;fill-opacity:1;fill-rule:nonzero;stroke:#a6a6a6;stroke-width:0.28064299;stroke-linecap:round;stroke-linejoin:miter;stroke-miterlimit:0.5;stroke-opacity:1"
           d="m 138.98888,349.22149 c 0.65485,-2.23467 16.60047,3.45434 17.88561,1.50616 1.27696,-1.93181 -10.41212,-14.1857 -8.57854,-15.60182 1.84177,-1.4243 11.40259,12.54858 13.58815,11.73002 2.16101,-0.81857 -0.09,-17.59912 2.22649,-17.6646 2.33291,-0.0737 1.84996,16.85422 4.09282,17.46814 2.23468,0.61392 10.27297,-14.28393 12.18841,-12.97423 1.92362,1.3097 -8.40665,14.71777 -6.95779,16.54317 1.44886,1.80902 16.70688,-5.51712 17.48452,-3.33974 0.794,2.19375 -15.4463,6.96597 -15.34807,9.29888 0.10642,2.30835 16.76418,5.3534 16.10933,7.57171 -0.65485,2.24286 -16.59228,-3.44615 -17.87743,-1.49797 -1.27695,1.93181 10.40395,14.17752 8.57855,15.59363 -1.84995,1.43249 -11.40259,-12.54039 -13.58815,-11.72183 -2.1692,0.81038 0.09,17.59093 -2.2265,17.6646 -2.3329,0.0655 -1.84995,-16.85422 -4.101,-17.47633 -2.22649,-0.61392 -10.26478,14.28394 -12.18022,12.98242 -1.93181,-1.31789 8.40665,-14.71777 6.9496,-16.54317 -1.44067,-1.80902 -16.69869,5.51712 -17.48451,3.33974 -0.78582,-2.20193 15.45447,-6.96597 15.34806,-9.29888 -0.0982,-2.30835 -16.75599,-5.3534 -16.10933,-7.5799 z"
           transform="matrix(0.477208,0,0,0.477208,-18.95942,-93.91301)"
           id="path6705"
           inkscape:connector-curvature="0" />
        <path
           style="fill:#9c9c9c;fill-opacity:1;fill-rule:nonzero;stroke:#a6a6a6;stroke-width:0.28064299;stroke-linecap:round;stroke-linejoin:miter;stroke-miterlimit:0.5;stroke-opacity:1"
           d="m 138.99145,349.2217 c 0.65485,-2.23467 16.60047,3.45434 17.88561,1.50616 1.26877,-1.93181 -10.41213,-14.1857 -8.57854,-15.60182 1.84176,-1.4243 11.3944,12.54858 13.57996,11.73002 2.1692,-0.81857 -0.0819,-17.59912 2.2265,-17.6646 2.3329,-0.0737 1.84995,16.84603 4.101,17.46814 2.23468,0.61392 10.27297,-14.28393 12.18022,-12.97423 1.93181,1.3097 -8.40664,14.71777 -6.9496,16.54317 1.44067,1.80902 16.70688,-5.51712 17.48451,-3.33974 0.78582,2.19375 -15.45447,6.96597 -15.34806,9.29069 0.10641,2.31654 16.75599,5.36159 16.10933,7.5799 -0.65485,2.24286 -16.60047,-3.44615 -17.88561,-1.49797 -1.26878,1.93181 10.41212,14.17752 8.57854,15.59363 -1.84177,1.43249 -11.3944,-12.54039 -13.57997,-11.72183 -2.16919,0.81038 0.0819,17.59093 -2.22649,17.65642 -2.3329,0.0737 -1.84995,-16.84604 -4.101,-17.46815 -2.23468,-0.61392 -10.27297,14.28394 -12.18022,12.98242 -1.93181,-1.31789 8.40664,-14.71777 6.9496,-16.54317 -1.44067,-1.80902 -16.70688,5.51712 -17.48452,3.33974 -0.78582,-2.20193 15.45448,-6.96597 15.34807,-9.29888 -0.10641,-2.30835 -16.75599,-5.3534 -16.10933,-7.5799 z"
           transform="matrix(0.477208,0,0,0.477208,-50.94502,-93.91311)"
           id="path6707"
           inkscape:connector-curvature="0" />
      </g>
    </g>
    <g
       id="id9:id9"
       transform="matrix(0.9149891,0,0,0.9149891,196.68471,108.80388)">
      <g
         id="id9:surface1">
        <path
           style="fill:#ffffff;fill-opacity:1;fill-rule:nonzero;stroke:#6697e8;stroke-width:6.15399885;stroke-linecap:round;stroke-linejoin:round;stroke-miterlimit:0.5;stroke-opacity:1"
           d="m 109.18152,20.294875 c -9.765626,0 -18.128907,5.089844 -22.23047,12.398438 -1.640625,-0.914063 -3.464844,-1.472657 -5.394531,-1.472657 -5.832031,0 -10.683594,4.691407 -12.183594,11.0625 -2.5625,-1.015625 -5.515625,-1.640625 -8.699219,-1.640625 -9.539062,0 -17.285156,5.226563 -17.285156,11.664063 0,5.808594 6.34375,10.585937 14.589844,11.472656 -0.367188,0.625 -0.660156,1.25 -0.660156,1.910156 0,6.160157 16.890625,11.171875 37.695312,11.171875 20.80469,0 37.69531,-5.011718 37.69531,-11.171875 0,-0.414062 -0.27734,-0.800781 -0.42578,-1.203125 0.91406,0.226563 1.83203,0.464844 2.82813,0.464844 5.5664,0 10.07421,-3.785156 10.07421,-8.4375 0,-4.65625 -4.50781,-8.414062 -10.07421,-8.414062 -0.67969,0 -1.28516,0.21875 -1.92969,0.328125 0.5664,-1.863282 0.95312,-3.769532 0.95312,-5.792969 0,-12.320313 -11.17187,-22.339844 -24.95312,-22.339844 z"
           transform="translate(-40.310425,-17.21675)"
           id="path6733"
           inkscape:connector-curvature="0" />
        <path
           style="fill:#9c9c9c;fill-opacity:1;fill-rule:nonzero;stroke:#9c9c9c;stroke-width:0.99999899;stroke-linecap:butt;stroke-linejoin:miter;stroke-miterlimit:4;stroke-opacity:1"
           d="m 96.661988,89.1855 c 1.707031,-1.550781 3.679682,-3.457031 6.796872,-3.265625 3.26953,-0.0039 4.83985,0.339844 8.03516,1.335938 3.19531,0.996093 6.44922,2.652343 8.89062,2.058593 2.53907,-0.621093 5.34375,-2.953125 6.46485,-4.382812 1.64453,0.5 -0.44532,2.589844 -0.9336,3.472656 -1.53125,2.296875 -2.92578,3.851563 -5.16015,4.5 -2.44141,0.832031 -5.33203,0.480469 -7.75782,-0.03125 -2.73437,-0.648437 -5.40234,-1.777344 -8.125,-2.511719 -3.02343,-0.644531 -7.378901,0.882813 -8.554682,1.433594 -1.21875,0.574219 -3.617188,3.167969 -3.164063,1.082031 1.160156,-1.097656 1.777344,-2.121093 3.507813,-3.691406 z"
           transform="translate(-40.310425,-17.21675)"
           id="path6735"
           inkscape:connector-curvature="0" />
        <path
           style="fill:#9c9c9c;fill-opacity:1;fill-rule:nonzero;stroke:#9c9c9c;stroke-width:0.99999899;stroke-linecap:butt;stroke-linejoin:miter;stroke-miterlimit:4;stroke-opacity:1"
           d="m 61.275269,88.021438 c 1.707031,-1.550782 3.679687,-3.457032 6.796875,-3.265625 3.269531,-0.0039 4.839844,0.339843 8.035156,1.335937 3.195313,0.996094 6.449219,2.652344 8.890625,2.058594 2.539063,-0.621094 5.34375,-2.953125 6.464844,-4.382813 1.644531,0.5 -0.445313,2.589844 -0.933594,3.472657 -1.53125,2.296875 -2.925781,3.851562 -5.160156,4.5 -2.441406,0.832031 -5.332031,0.480468 -7.757813,-0.03125 -2.734375,-0.648438 -5.402343,-1.777344 -8.125,-2.511719 -3.023437,-0.644531 -7.378906,0.882812 -8.554687,1.4375 -1.21875,0.570312 -3.617188,3.164062 -3.164063,1.078125 1.160157,-1.097656 1.777344,-2.121094 3.507813,-3.691406 z"
           transform="translate(-40.310425,-17.21675)"
           id="path6737"
           inkscape:connector-curvature="0" />
        <path
           style="fill:#9c9c9c;fill-opacity:1;fill-rule:nonzero;stroke:#9c9c9c;stroke-width:0.99999899;stroke-linecap:butt;stroke-linejoin:miter;stroke-miterlimit:4;stroke-opacity:1"
           d="m 76.13855,99.662063 c 1.707031,-1.554688 3.679688,-3.460938 6.796875,-3.269532 3.269531,0 4.839844,0.34375 8.035156,1.339844 3.195313,0.996094 6.449219,2.652345 8.886719,2.058594 2.54297,-0.621094 5.34766,-2.953125 6.46875,-4.386719 1.64062,0.503906 -0.44531,2.59375 -0.9375,3.476563 -1.52734,2.292967 -2.92578,3.847657 -5.15625,4.499997 -2.441406,0.82813 -5.335937,0.47657 -7.757812,-0.0313 -2.738282,-0.64843 -5.402344,-1.78125 -8.128907,-2.51172 -3.019531,-0.64453 -7.375,0.88282 -8.550781,1.4336 -1.21875,0.57422 -3.617187,3.16797 -3.167969,1.07812 1.164063,-1.09765 1.777344,-2.11718 3.511719,-3.687497 z"
           transform="translate(-40.310425,-17.21675)"
           id="path6739"
           inkscape:connector-curvature="0" />
      </g>
    </g>
    <g
       id="id13:id13"
       transform="matrix(1.021378,0,0,1.021378,1030.5038,108.80339)">
      <g
         id="id13:surface1">
        <path
           style="fill:#f5ff11;fill-opacity:1;fill-rule:nonzero;stroke:none"
           d="M 60.898438,64.109375 C 59.71875,65.429688 46.550781,52.234375 44.816406,52.882812 43.085938,53.53125 40.464844,74.617188 38.632812,74.855469 36.796875,75.09375 33.648438,53.480469 31.859375,52.964844 30.074219,52.449219 19.726562,65.457031 18.179688,64.480469 16.628906,63.503906 21.859375,47.621094 20.996094,45.960938 20.136719,44.296875 0.414062,43.515625 0.0078125,41.664062 -0.398438,39.808594 17.882812,34.945312 18.03125,33.109375 18.183594,31.273438 5.757812,20.898438 6.46875,19.289062 7.183594,17.675781 23.820312,24.570312 24.945312,23.15625 26.066406,21.746094 22.753906,3.980469 24.457031,3.449219 c 1.707031,-0.53125 11.953125,11.941406 13.777344,11.882812 1.820313,-0.05859 7.300781,-15.691406 9.160156,-15.3242185 1.859375,0.3632815 0.933594,16.5820315 2.371094,17.6640625 1.441406,1.082031 15.683594,-4.058594 16.738281,-2.585937 1.058594,1.46875 -8.164062,15.789062 -7.609375,17.488281 0.554688,1.699219 17.449219,3.316406 17.21875,5.074219 -0.230469,1.753906 -21.125,2.503906 -21.996093,4.203124 -0.871094,1.699219 7.964843,20.9375 6.78125,22.257813 z"
           id="path6775"
           inkscape:connector-curvature="0" />
        <path
           style="fill:#ffffff;fill-opacity:1;fill-rule:nonzero;stroke:#f5ff11;stroke-width:10.27388287;stroke-linecap:butt;stroke-linejoin:miter;stroke-miterlimit:0.5;stroke-opacity:1"
           d="m 194.51669,77.283654 c 0,20.658762 -17.86223,37.409106 -39.90157,37.409106 -22.03316,0 -39.90156,-16.750344 -39.90156,-37.409106 0,-20.658762 17.8684,-37.40911 39.90156,-37.40911 22.03934,0 39.90157,16.750348 39.90157,37.40911 z"
           transform="matrix(0.633101,0,0,0.566686,-60.19949,-9.971346)"
           id="path6777"
           inkscape:connector-curvature="0" />
        <path
           style="fill:#ffffff;fill-opacity:1;fill-rule:nonzero;stroke:#6697e8;stroke-width:6.15399885;stroke-linecap:round;stroke-linejoin:round;stroke-miterlimit:0.5;stroke-opacity:1"
           d="m 110.53098,144.96925 c -9.76563,0 -18.14844,5.0625 -22.250002,12.375 -1.636719,-0.91407 -3.445313,-1.46875 -5.375,-1.46875 -5.832032,0 -10.6875,4.6914 -12.1875,11.0625 -2.558594,-1.01172 -5.539063,-1.625 -8.71875,-1.625 -9.542969,0 -17.28125,5.21875 -17.28125,11.65625 0,5.80859 6.347656,10.58593 14.59375,11.46875 -0.371094,0.625 -0.65625,1.24609 -0.65625,1.90625 0,6.16015 16.882812,11.1875 37.6875,11.1875 20.804692,0 37.687502,-5.02735 37.687502,-11.1875 0,-0.41407 -0.25782,-0.78516 -0.40625,-1.1875 0.91015,0.22656 1.8125,0.46875 2.8125,0.46875 5.5664,0 10.09375,-3.78125 10.09375,-8.4375 0,-4.65625 -4.52735,-8.4375 -10.09375,-8.4375 -0.6836,0 -1.26172,0.23437 -1.90625,0.34375 0.5625,-1.86329 0.9375,-3.76172 0.9375,-5.78125 0,-12.32422 -11.15625,-22.34375 -24.9375,-22.34375 z"
           transform="translate(-34.66379,-126.28175)"
           id="path6779"
           inkscape:connector-curvature="0" />
      </g>
    </g>
    <g
       id="id17:id17"
       transform="matrix(0.90560672,0,0,0.90560672,29.920871,108.80385)">
      <g
         id="id17:surface1">
        <path
           style="fill:#ffffff;fill-opacity:1;fill-rule:nonzero;stroke:#6697e8;stroke-width:6.15399885;stroke-linecap:round;stroke-linejoin:round;stroke-miterlimit:0.5;stroke-opacity:1"
           d="m 245.03544,147.2754 c -9.76562,0 -18.1289,5.08985 -22.23046,12.39844 -1.64063,-0.91406 -3.46485,-1.47265 -5.39454,-1.47265 -5.83203,0 -10.68359,4.6914 -12.18359,11.0625 -2.5625,-1.01563 -5.51562,-1.64063 -8.69922,-1.64063 -9.53906,0 -17.28515,5.22656 -17.28515,11.66406 0,5.8086 6.34375,10.58594 14.58984,11.47266 -0.36719,0.625 -0.66016,1.25 -0.66016,1.91016 0,6.16015 16.89063,11.17187 37.69532,11.17187 20.80468,0 37.69531,-5.01172 37.69531,-11.17187 0,-0.41407 -0.27735,-0.80079 -0.42578,-1.20313 0.91406,0.22656 1.83203,0.46484 2.82812,0.46484 5.56641,0 10.07422,-3.78515 10.07422,-8.4375 0,-4.65625 -4.50781,-8.41406 -10.07422,-8.41406 -0.67969,0 -1.28515,0.21875 -1.92969,0.32813 0.56641,-1.86328 0.95313,-3.76953 0.95313,-5.79297 0,-12.32031 -11.17188,-22.33985 -24.95313,-22.33985 z"
           transform="translate(-176.16435,-144.19728)"
           id="path6811"
           inkscape:connector-curvature="0" />
        <path
           style="fill:#6697e8;fill-opacity:1;fill-rule:nonzero;stroke:#6697e8;stroke-width:4;stroke-linecap:butt;stroke-linejoin:miter;stroke-miterlimit:3.20000005;stroke-opacity:1"
           d="m 208.32841,221.07619 c -8.25,7.27343 1.4375,13.47265 5.11719,3.48828 l 2.83594,-9.26172 z"
           transform="translate(-176.16435,-144.19728)"
           id="path6813"
           inkscape:connector-curvature="0" />
        <path
           style="fill:#6697e8;fill-opacity:1;fill-rule:nonzero;stroke:#6697e8;stroke-width:4;stroke-linecap:butt;stroke-linejoin:miter;stroke-miterlimit:3.20000005;stroke-opacity:1"
           d="m 229.19951,221.84962 c -8.25,7.26953 1.4375,13.46875 5.12109,3.48828 l 2.83203,-9.26171 z"
           transform="translate(-176.16435,-144.19728)"
           id="path6815"
           inkscape:connector-curvature="0" />
      </g>
    </g>
    <g
       id="id18:id18"
       transform="matrix(0.86001048,0,0,0.86001048,863.7401,108.80486)">
      <g
         id="id18:surface1">
        <path
           style="fill:none;stroke:#6697e8;stroke-width:6.15399885;stroke-linecap:round;stroke-linejoin:round;stroke-miterlimit:0.5;stroke-opacity:1"
           d="m 510.20907,208.66805 c 15.43359,-1.39843 26.66797,-5.65625 26.66797,-10.68359 0,-0.41406 -0.27735,-0.79687 -0.42578,-1.19922 0.91406,0.22656 1.83203,0.46094 2.82812,0.46094 5.56641,0 10.07422,-3.78125 10.07422,-8.4375 0,-4.65625 -4.50781,-8.41406 -10.07422,-8.41406 -0.67969,0 -1.28515,0.21875 -1.92969,0.32812 0.56641,-1.85937 0.95313,-3.76953 0.95313,-5.78906 0,-12.32422 -11.17188,-22.34375 -24.95313,-22.34375 -9.76562,0 -18.1289,5.08984 -22.23047,12.39844 -1.64062,-0.91407 -3.46484,-1.47266 -5.39453,-1.47266 -5.83203,0 -10.68359,4.69141 -12.18359,11.0625 -2.5625,-1.01172 -5.51563,-1.64062 -8.69922,-1.64062 -9.53906,0 -17.28516,5.22656 -17.28516,11.66406 0,5.80859 6.34375,10.58984 14.58985,11.47265 -0.36719,0.625 -0.66016,1.25391 -0.66016,1.91016 0,4.24609 8.01172,7.94141 19.79688,9.83203"
           transform="translate(-444.4786,-144.21493)"
           id="path6819"
           inkscape:connector-curvature="0" />
        <path
           style="fill:#6697e8;fill-opacity:1;fill-rule:nonzero;stroke:#6697e8;stroke-width:4;stroke-linecap:butt;stroke-linejoin:miter;stroke-miterlimit:3.20000005;stroke-opacity:1"
           d="m 470.03719,225.34774 c -8.25,7.26953 1.4375,13.46875 5.1211,3.48828 l 2.83203,-9.26172 z"
           transform="translate(-444.4786,-144.21493)"
           id="path6821"
           inkscape:connector-curvature="0" />
        <path
           style="fill:#6697e8;fill-opacity:1;fill-rule:nonzero;stroke:#6697e8;stroke-width:4;stroke-linecap:butt;stroke-linejoin:miter;stroke-miterlimit:3.20000005;stroke-opacity:1"
           d="m 499.08797,226.54696 c -8.2539,7.27344 1.4336,13.47266 5.11719,3.48828 l 2.83203,-9.26172 z"
           transform="translate(-444.4786,-144.21493)"
           id="path6823"
           inkscape:connector-curvature="0" />
        <path
           style="fill:#6697e8;fill-opacity:1;fill-rule:nonzero;stroke:#6697e8;stroke-width:4;stroke-linecap:butt;stroke-linejoin:miter;stroke-miterlimit:3.20000005;stroke-opacity:1"
           d="m 492.32235,211.20712 c -8.25,7.26953 1.4375,13.46875 5.12109,3.48437 l 2.83203,-9.26172 z"
           transform="translate(-444.4786,-144.21493)"
           id="path6825"
           inkscape:connector-curvature="0" />
        <path
           style="fill:none;stroke:#6697e8;stroke-width:6.15399885;stroke-linecap:round;stroke-linejoin:round;stroke-miterlimit:0.5;stroke-opacity:1"
           d="m 510.20907,208.66805 c 15.43359,-1.39843 26.66797,-5.65625 26.66797,-10.68359 0,-0.41406 -0.27735,-0.79687 -0.42578,-1.19922 0.91406,0.22656 1.83203,0.46094 2.82812,0.46094 5.56641,0 10.07422,-3.78125 10.07422,-8.4375 0,-4.65625 -4.50781,-8.41406 -10.07422,-8.41406 -0.67969,0 -1.28515,0.21875 -1.92969,0.32812 0.56641,-1.85937 0.95313,-3.76953 0.95313,-5.78906 0,-12.32422 -11.17188,-22.34375 -24.95313,-22.34375 -9.76562,0 -18.1289,5.08984 -22.23047,12.39844 -1.64062,-0.91407 -3.46484,-1.47266 -5.39453,-1.47266 -5.83203,0 -10.68359,4.69141 -12.18359,11.0625 -2.5625,-1.01172 -5.51563,-1.64062 -8.69922,-1.64062 -9.53906,0 -17.28516,5.22656 -17.28516,11.66406 0,5.80859 6.34375,10.58984 14.58985,11.47265 -0.36719,0.625 -0.66016,1.25391 -0.66016,1.91016 0,4.24609 8.01172,7.94141 19.79688,9.83203"
           transform="translate(-444.4786,-144.21493)"
           id="path6827"
           inkscape:connector-curvature="0" />
        <path
           style="fill:#6697e8;fill-opacity:1;fill-rule:nonzero;stroke:#6697e8;stroke-width:4;stroke-linecap:butt;stroke-linejoin:miter;stroke-miterlimit:3.20000005;stroke-opacity:1"
           d="m 470.03719,225.34774 c -8.25,7.26953 1.4375,13.46875 5.1211,3.48828 l 2.83203,-9.26172 z"
           transform="translate(-444.4786,-144.21493)"
           id="path6829"
           inkscape:connector-curvature="0" />
        <path
           style="fill:#6697e8;fill-opacity:1;fill-rule:nonzero;stroke:#6697e8;stroke-width:4;stroke-linecap:butt;stroke-linejoin:miter;stroke-miterlimit:3.20000005;stroke-opacity:1"
           d="m 499.08797,226.54696 c -8.2539,7.27344 1.4336,13.47266 5.11719,3.48828 l 2.83203,-9.26172 z"
           transform="translate(-444.4786,-144.21493)"
           id="path6831"
           inkscape:connector-curvature="0" />
        <path
           style="fill:#6697e8;fill-opacity:1;fill-rule:nonzero;stroke:#6697e8;stroke-width:4;stroke-linecap:butt;stroke-linejoin:miter;stroke-miterlimit:3.20000005;stroke-opacity:1"
           d="m 492.32235,211.20712 c -8.25,7.26953 1.4375,13.46875 5.12109,3.48437 l 2.83203,-9.26172 z"
           transform="translate(-444.4786,-144.21493)"
           id="path6833"
           inkscape:connector-curvature="0" />
        <path
           style="fill:#f5ff11;fill-opacity:1;fill-rule:nonzero;stroke:#f5ff11;stroke-width:0.5;stroke-linecap:round;stroke-linejoin:miter;stroke-miterlimit:0.5;stroke-opacity:1"
           d="m 511.42001,157.95321 -20.04297,12.70703 19.79297,4.36719 -18.29297,13.64453 -7.38672,-2.30469 5.23828,13.15235 20.82031,-5.73828 -8.78906,-2.39844 23.87109,-19.59766 -21.82422,-3.55078 21.07422,-13.24219 -12.01953,-1.98828 13.08985,-8.41797 -4.8086,-0.12109 -20.3164,11.54687 z"
           transform="translate(-444.4786,-144.21493)"
           id="path6835"
           inkscape:connector-curvature="0" />
      </g>
    </g>
    <g
       id="id12:id12"
       transform="matrix(0.8869807,0,0,0.8869807,363.44973,108.80471)">
      <g
         id="id12:surface1">
        <path
           style="fill:#f5ff11;fill-opacity:1;fill-rule:nonzero;stroke:none"
           d="M 73.375,77.242188 C 71.953125,78.835938 56.085938,62.933594 54,63.71875 51.910156,64.5 48.753906,89.902344 46.546875,90.191406 44.335938,90.480469 40.539062,64.433594 38.386719,63.8125 36.234375,63.191406 23.769531,78.867188 21.902344,77.691406 20.035156,76.515625 26.339844,57.375 25.300781,55.375 24.261719,53.371094 0.496094,52.433594 0.0078125,50.199219 -0.480469,47.964844 21.542969,42.101562 21.726562,39.890625 21.910156,37.679688 6.9375,25.179688 7.796875,23.238281 8.652344,21.300781 28.699219,29.605469 30.054688,27.902344 31.40625,26.199219 27.414062,4.796875 29.46875,4.15625 c 2.054688,-0.640625 14.402344,14.386719 16.597656,14.316406 2.191406,-0.07031 8.796875,-18.90625 11.039063,-18.4648435 2.238281,0.4414065 1.121093,19.9804685 2.855469,21.2851565 1.738281,1.304687 18.894531,-4.890625 20.167968,-3.117188 1.273438,1.769531 -9.839844,19.027344 -9.167968,21.070313 0.667968,2.046875 21.023437,4 20.746093,6.113281 -0.277343,2.113281 -25.453125,3.015625 -26.5,5.066406 -1.050781,2.046875 9.589844,25.226563 8.167969,26.816407 z"
           id="path6767"
           inkscape:connector-curvature="0" />
        <path
           style="fill:#ffffff;fill-opacity:1;fill-rule:nonzero;stroke:#f5ff11;stroke-width:8.52705479;stroke-linecap:butt;stroke-linejoin:miter;stroke-miterlimit:0.5;stroke-opacity:1"
           d="m 194.51534,77.284436 c 0,20.659 -17.86192,37.404744 -39.89741,37.404744 -22.04062,0 -39.90253,-16.745744 -39.90253,-37.404744 0,-20.659 17.86191,-37.410468 39.90253,-37.410468 22.03549,0 39.89741,16.751468 39.89741,37.410468 z"
           transform="matrix(0.762796,0,0,0.682776,-72.531825,-12.014049)"
           id="path6769"
           inkscape:connector-curvature="0" />
        <path
           style="fill:#ffffff;fill-opacity:1;fill-rule:nonzero;stroke:#6678e8;stroke-width:6.15399122;stroke-linecap:round;stroke-linejoin:round;stroke-miterlimit:0.5;stroke-opacity:1"
           d="m 268.23673,54.989919 c -5.79688,0 -10.75781,3.019531 -13.19531,7.359375 -0.97266,-0.542969 -2.05469,-0.875 -3.19922,-0.875 -3.46485,0 -6.34375,2.785156 -7.23438,6.566406 -1.51953,-0.601563 -3.27344,-0.972656 -5.16406,-0.972656 -5.66016,0 -10.26172,3.101562 -10.26172,6.921875 0,3.449218 3.76953,6.285156 8.66406,6.8125 -0.21875,0.371093 -0.39453,0.742187 -0.39453,1.132812 0,3.660156 10.02735,6.632813 22.375,6.632813 12.35156,0 22.375,-2.972657 22.375,-6.632813 0,-0.246094 -0.16015,-0.472656 -0.25,-0.710937 0.54297,0.132812 1.08594,0.273437 1.67969,0.273437 3.30469,0 5.97656,-2.246094 5.97656,-5.007812 0,-2.765625 -2.67187,-4.996094 -5.97656,-4.996094 -0.40625,0 -0.76172,0.132812 -1.14453,0.195312 0.33203,-1.105468 0.5625,-2.238281 0.5625,-3.4375 0,-7.316406 -6.62891,-13.261718 -14.8125,-13.261718 z"
           transform="translate(-176.0961,-22.607106)"
           id="path6771"
           inkscape:connector-curvature="0" />
      </g>
    </g>
    <g
       id="id8:id8"
       transform="matrix(0.76451156,0,0,0.76451156,1364.0317,108.80376)">
      <g
         id="id8:surface1">
        <path
           style="fill:#f5ff11;fill-opacity:1;fill-rule:nonzero;stroke:none"
           d="M 60.898438,64.109375 C 59.71875,65.429688 46.550781,52.234375 44.816406,52.882812 43.085938,53.53125 40.464844,74.617188 38.632812,74.855469 36.796875,75.09375 33.648438,53.480469 31.859375,52.964844 30.074219,52.449219 19.726562,65.457031 18.179688,64.480469 16.628906,63.503906 21.859375,47.621094 20.996094,45.960938 20.136719,44.296875 0.414062,43.515625 0.0078125,41.664062 -0.398438,39.808594 17.882812,34.945312 18.03125,33.109375 18.183594,31.273438 5.757812,20.898438 6.46875,19.289062 7.183594,17.675781 23.820312,24.570312 24.945312,23.15625 26.066406,21.746094 22.753906,3.980469 24.457031,3.449219 c 1.707031,-0.53125 11.953125,11.941406 13.777344,11.882812 1.820313,-0.05859 7.300781,-15.691406 9.160156,-15.3242185 1.859375,0.3632815 0.933594,16.5820315 2.371094,17.6640625 1.441406,1.082031 15.683594,-4.058594 16.738281,-2.585937 1.058594,1.46875 -8.164062,15.789062 -7.609375,17.488281 0.554688,1.699219 17.449219,3.316406 17.21875,5.074219 -0.230469,1.753906 -21.125,2.503906 -21.996093,4.203124 -0.871094,1.699219 7.964843,20.9375 6.78125,22.257813 z"
           id="path6719"
           inkscape:connector-curvature="0" />
        <path
           style="fill:#ffffff;fill-opacity:1;fill-rule:nonzero;stroke:#f5ff11;stroke-width:10.27388287;stroke-linecap:butt;stroke-linejoin:miter;stroke-miterlimit:0.5;stroke-opacity:1"
           d="m 194.51678,77.283652 c 0,20.658761 -17.86224,37.409108 -39.90158,37.409108 -22.03317,0 -39.90158,-16.750347 -39.90158,-37.409108 0,-20.658761 17.86841,-37.409107 39.90158,-37.409107 22.03934,0 39.90158,16.750346 39.90158,37.409107 z"
           transform="matrix(0.633101,0,0,0.566686,-60.199504,-9.971347)"
           id="path6721"
           inkscape:connector-curvature="0" />
        <path
           style="fill:#ffffff;fill-opacity:1;fill-rule:nonzero;stroke:#6697e8;stroke-width:7.30059385;stroke-linecap:round;stroke-linejoin:round;stroke-miterlimit:0.5;stroke-opacity:1"
           d="m 110.52894,144.97085 c -9.76074,0 -18.145335,5.06318 -22.245414,12.37414 -1.640978,-0.91728 -3.447472,-1.47128 -5.376921,-1.47128 -5.835637,0 -10.687634,4.69537 -12.18674,11.0618 -2.563141,-1.00809 -5.537708,-1.62112 -8.720353,-1.62112 -9.543207,0 -17.279919,5.21757 -17.279919,11.65212 0,5.81244 6.346374,10.58954 14.593823,11.47049 -0.368865,0.62665 -0.657337,1.24876 -0.657337,1.9072 0,6.1621 16.882679,11.18895 37.685734,11.18895 20.807787,0 37.690467,-5.02685 37.690467,-11.18895 0,-0.41322 -0.2601,-0.78558 -0.4067,-1.18973 0.9127,0.22705 1.81122,0.47226 2.81378,0.47226 5.56608,0 10.09177,-3.78262 10.09177,-8.43712 0,-4.65903 -4.52569,-8.44166 -10.09177,-8.44166 -0.68571,0 -1.26266,0.23613 -1.90581,0.34512 0.56276,-1.8618 0.93635,-3.75993 0.93635,-5.78066 0,-12.32419 -11.15581,-22.34156 -24.94096,-22.34156 z"
           transform="matrix(0.826013,0,0,0.860224,-29.92334,-96.43006)"
           id="path6723"
           inkscape:connector-curvature="0" />
        <path
           style="fill:#356194;fill-opacity:1;fill-rule:nonzero;stroke:#356194;stroke-width:6.15399694;stroke-linecap:round;stroke-linejoin:round;stroke-miterlimit:0.5;stroke-opacity:1"
           d="m 526.72943,289.56758 c -4.56641,0 -8.48047,2.32812 -10.40235,5.67187 -0.76562,-0.41797 -1.62109,-0.67578 -2.52343,-0.67578 -2.73047,0 -5,2.14844 -5.70313,5.0586 -1.19531,-0.46094 -2.58203,-0.75 -4.07031,-0.75 -4.46485,0 -8.08985,2.39453 -8.08985,5.33593 0,2.65625 2.97266,4.84375 6.82813,5.2461 -0.17188,0.28906 -0.30859,0.57422 -0.30859,0.875 0,2.82031 7.90625,5.10937 17.64062,5.10937 9.73438,0 17.64063,-2.28906 17.64063,-5.10937 0,-0.1875 -0.12891,-0.36328 -0.19922,-0.55078 0.42578,0.10546 0.85547,0.21484 1.32422,0.21484 2.60547,0 4.71093,-1.73047 4.71093,-3.85938 0,-2.13281 -2.10546,-3.84765 -4.71093,-3.84765 -0.32032,0 -0.60157,0.0976 -0.90235,0.14844 0.26172,-0.85157 0.44532,-1.72657 0.44532,-2.64844 0,-5.63672 -5.23047,-10.21875 -11.67969,-10.21875 z"
           transform="translate(-438.92474,-248.11836)"
           id="path6725"
           inkscape:connector-curvature="0" />
        <path
           style="fill:#6697e8;fill-opacity:1;fill-rule:nonzero;stroke:#6697e8;stroke-width:4;stroke-linecap:butt;stroke-linejoin:miter;stroke-miterlimit:3.20000005;stroke-opacity:1"
           d="m 472.56536,341.30195 c -8.25,7.26953 1.4375,13.46875 5.1211,3.48438 l 2.83203,-9.25781 z"
           transform="translate(-438.92474,-248.11836)"
           id="path6727"
           inkscape:connector-curvature="0" />
        <path
           style="fill:#6697e8;fill-opacity:1;fill-rule:nonzero;stroke:#6697e8;stroke-width:4;stroke-linecap:butt;stroke-linejoin:miter;stroke-miterlimit:3.20000005;stroke-opacity:1"
           d="m 493.44036,342.07539 c -8.25,7.26953 1.4375,13.46875 5.1211,3.48438 l 2.83203,-9.26172 z"
           transform="translate(-438.92474,-248.11836)"
           id="path6729"
           inkscape:connector-curvature="0" />
      </g>
    </g>
    <g
       id="id14:id14"
       transform="matrix(1.2295213,0,0,1.2295213,209.44757,258.07733)">
      <g
         id="id14:surface1">
        <path
           style="fill:#f5ff11;fill-opacity:1;fill-rule:nonzero;stroke:none"
           d="M 51.394531,46.421875 C 50.539062,47.378906 41.003906,37.820312 39.75,38.292969 38.496094,38.761719 36.597656,54.027344 35.269531,54.203125 33.945312,54.375 31.660156,38.722656 30.367188,38.351562 c -1.292969,-0.375 -8.785157,9.046876 -9.90625,8.339844 -1.121094,-0.710937 2.667968,-12.210937 2.042968,-13.414062 -0.625,-1.203125 -14.90625,-1.765625 -15.199218,-3.109375 -0.296876,-1.34375 12.941406,-4.863281 13.050781,-6.195313 0.109375,-1.328125 -8.886719,-8.839844 -8.371094,-10.007812 0.515625,-1.164063 12.5625,3.824218 13.375,2.804687 0.816406,-1.023437 -1.585937,-13.886719 -0.351563,-14.273437 1.234376,-0.382813 8.65625,8.648437 9.972657,8.605468 1.320312,-0.04297 5.289062,-11.363281 6.636719,-11.09765575 1.347656,0.26562475 0.675781,12.00781275 1.71875,12.79296875 1.042968,0.78125 11.351562,-2.941406 12.117187,-1.875 0.765625,1.066406 -5.914063,11.433594 -5.511719,12.664063 0.402344,1.230468 12.636719,2.402343 12.46875,3.671874 -0.164062,1.273438 -15.292968,1.816407 -15.925781,3.046876 -0.628906,1.230468 5.765625,15.160156 4.910156,16.117187 z"
           id="path6783"
           inkscape:connector-curvature="0" />
        <path
           style="fill:#ffffff;fill-opacity:1;fill-rule:nonzero;stroke:#f5ff11;stroke-width:13.29086399;stroke-linecap:butt;stroke-linejoin:miter;stroke-miterlimit:0.5;stroke-opacity:1"
           d="m 194.51627,77.285627 c 0,20.658167 -17.86045,37.403663 -39.8963,37.403663 -22.04437,0 -39.90482,-16.745496 -39.90482,-37.403663 0,-20.658167 17.86045,-37.413179 39.90482,-37.413179 22.03585,0 39.8963,16.755012 39.8963,37.413179 z"
           transform="matrix(0.458415,0,0,0.410325,-36.290271,-7.220037)"
           id="path6785"
           inkscape:connector-curvature="0" />
        <path
           style="fill:#ffffff;fill-opacity:1;fill-rule:nonzero;stroke:#6697e8;stroke-width:6.15399885;stroke-linecap:round;stroke-linejoin:round;stroke-miterlimit:0.5;stroke-opacity:1"
           d="m 512.48686,36.237961 c -9.76562,0 -18.1289,5.089844 -22.23046,12.398438 -1.64063,-0.914063 -3.46485,-1.472657 -5.39453,-1.472657 -5.83204,0 -10.6836,4.691407 -12.1836,11.0625 -2.5625,-1.011718 -5.51562,-1.640625 -8.69922,-1.640625 -9.53906,0 -17.28515,5.226563 -17.28515,11.664063 0,5.808594 6.34375,10.585937 14.58984,11.472656 -0.36719,0.625 -0.66016,1.253906 -0.66016,1.910156 0,6.164063 16.89063,11.171875 37.69532,11.171875 20.80468,0 37.69531,-5.007812 37.69531,-11.171875 0,-0.414062 -0.27735,-0.796875 -0.42578,-1.203125 0.91406,0.226563 1.83203,0.464844 2.82812,0.464844 5.56641,0 10.07422,-3.78125 10.07422,-8.4375 0,-4.65625 -4.50781,-8.414062 -10.07422,-8.414062 -0.67969,0 -1.28515,0.21875 -1.92969,0.328125 0.56641,-1.863282 0.95313,-3.769532 0.95313,-5.789063 0,-12.324219 -11.17188,-22.34375 -24.95313,-22.34375 z"
           transform="translate(-443.61577,-32.523117)"
           id="path6787"
           inkscape:connector-curvature="0" />
        <path
           style="fill:#356194;fill-opacity:1;fill-rule:nonzero;stroke:#356194;stroke-width:6.15399122;stroke-linecap:round;stroke-linejoin:round;stroke-miterlimit:0.5;stroke-opacity:1"
           d="m 535.67827,60.933274 c -5.79687,0 -10.76172,3.019531 -13.19531,7.359375 -0.97266,-0.542969 -2.0586,-0.875 -3.20313,-0.875 -3.46093,0 -6.34375,2.785156 -7.23437,6.566406 -1.51953,-0.601563 -3.27344,-0.972656 -5.16016,-0.972656 -5.66406,0 -10.26172,3.101562 -10.26172,6.921875 0,3.449218 3.76563,6.285156 8.66016,6.808593 -0.21875,0.375 -0.39062,0.746094 -0.39062,1.136719 0,3.65625 10.02343,6.632813 22.37499,6.632813 12.34766,0 22.375,-2.976563 22.375,-6.632813 0,-0.246094 -0.16406,-0.472656 -0.25,-0.714844 0.53907,0.136719 1.08594,0.277344 1.67579,0.277344 3.30468,0 5.98046,-2.246094 5.98046,-5.011719 0,-2.761718 -2.67578,-4.992187 -5.98046,-4.992187 -0.40235,0 -0.76172,0.128906 -1.14454,0.195312 0.33594,-1.105468 0.56641,-2.238281 0.56641,-3.4375 0,-7.316406 -6.63281,-13.261718 -14.8125,-13.261718 z"
           transform="translate(-443.61577,-32.523117)"
           id="path6789"
           inkscape:connector-curvature="0" />
      </g>
    </g>
    <g
       id="id15:id15"
       transform="matrix(1.1668569,0,0,1.1668569,376.21147,258.07516)">
      <g
         id="id15:surface1">
        <path
           style="fill:#ffffff;fill-opacity:1;fill-rule:nonzero;stroke:none"
           d="m 113.57422,34.785156 c -1.29688,0.01563 0.51562,-0.476562 -2.78906,-0.40625 -1.49219,0.03125 -3.75391,0.632813 -5.65235,1.265625 -1.94531,0.648438 -5.300779,1.929688 -7.542966,2.496094 -4.597656,1.160156 -2.070313,0.609375 -8.933594,1.695313 -7.117188,1.125 -8.71875,1.269531 -10.304688,1.195312 -1.515624,-0.06641 -5.265624,0.394531 -8.792968,-0.07422 -3.160156,-0.425781 -4.371094,-0.109375 -5.101563,0.398438 -0.730469,0.503906 -1.15625,1.417969 -1.117187,2.386719 0.04297,0.964843 0.546875,1.828124 1.320312,2.25 0.71875,0.433593 1.8125,1.109374 3.636719,1.71875 4.648437,1.5625 11.484375,2.636718 19.070313,2.636718 7.589843,0 14.425782,-1.074218 19.074222,-2.636718 1.9414,-0.648438 3.16406,-1.371094 3.92187,-1.851563 0.64844,-0.40625 1.08985,-1.132813 1.19141,-1.960937 0.21094,-1.835938 1.32031,-3.347657 2.875,-3.925782 1.17969,-0.359375 1.91797,-1.683594 1.6914,-3.039062 -0.22265,-1.359375 -1.32421,-2.226563 -2.54687,-2.148438 z"
           id="path6793"
           inkscape:connector-curvature="0" />
        <path
           style="fill:#ffffff;fill-opacity:1;fill-rule:nonzero;stroke:#6697e8;stroke-width:6.15400219;stroke-linecap:round;stroke-linejoin:round;stroke-miterlimit:0.5;stroke-opacity:1"
           d="m 629.76424,31.371115 c -8.94531,0 -16.60547,4.660156 -20.36328,11.359375 -1.5039,-0.839844 -3.17578,-1.351563 -4.9414,-1.351563 -5.34375,0 -9.78907,4.300782 -11.16407,10.136719 -2.34765,-0.929687 -5.05468,-1.503906 -7.96875,-1.503906 -8.74218,0 -15.83593,4.789062 -15.83593,10.6875 0,5.320312 5.8125,9.699219 13.36718,10.507812 -0.33984,0.574219 -0.60547,1.148438 -0.60547,1.75 0,5.648438 15.47266,10.238282 34.53516,10.238282 19.05859,0 34.53125,-4.589844 34.53125,-10.238282 0,-0.378906 -0.25,-0.730468 -0.38672,-1.097656 0.83594,0.207031 1.67578,0.425781 2.58985,0.425781 5.10156,0 9.22656,-3.46875 9.22656,-7.734375 0,-4.265625 -4.125,-7.707031 -9.22656,-7.707031 -0.625,0 -1.17579,0.203125 -1.76563,0.300781 0.51563,-1.707031 0.87109,-3.453125 0.87109,-5.304687 0,-11.292969 -10.23437,-20.46875 -22.86328,-20.46875 z"
           transform="translate(-566.41268,-28.29299)"
           id="path6795"
           inkscape:connector-curvature="0" />
        <path
           style="fill:#6697e8;fill-opacity:1;fill-rule:nonzero;stroke:#6697e8;stroke-width:6.15399218;stroke-linecap:round;stroke-linejoin:round;stroke-miterlimit:0.5;stroke-opacity:1"
           d="m 658.90487,33.007834 c -8.20313,0 -15.23047,4.671875 -18.67969,11.382812 -1.375,-0.839844 -2.91016,-1.351562 -4.53125,-1.351562 -4.90234,0 -8.97656,4.304687 -10.23828,10.15625 -2.15234,-0.929688 -4.63672,-1.507813 -7.30859,-1.507813 -8.01563,0 -14.52735,4.800781 -14.52735,10.707031 0,5.335938 5.33203,9.722657 12.26172,10.535157 -0.30859,0.574218 -0.55469,1.148437 -0.55469,1.753906 0,5.65625 14.19141,10.253906 31.67188,10.253906 17.48437,0 31.67578,-4.597656 31.67578,-10.253906 0,-0.378906 -0.23047,-0.734375 -0.35547,-1.101563 0.76563,0.207032 1.53516,0.425782 2.375,0.425782 4.67969,0 8.46484,-3.476563 8.46484,-7.75 0,-4.273438 -3.78515,-7.722657 -8.46484,-7.722657 -0.57031,0 -1.07812,0.199219 -1.62109,0.300782 0.47265,-1.710938 0.80078,-3.460938 0.80078,-5.316407 0,-11.3125 -9.38672,-20.511718 -20.96875,-20.511718 z"
           transform="translate(-566.41268,-28.29299)"
           id="path6797"
           inkscape:connector-curvature="0" />
        <path
           style="fill:#356194;fill-opacity:1;fill-rule:nonzero;stroke:#356194;stroke-width:6.15399694;stroke-linecap:round;stroke-linejoin:round;stroke-miterlimit:0.5;stroke-opacity:1"
           d="m 625.66268,67.906271 c -4.56641,0 -8.48047,2.328125 -10.40234,5.671875 -0.76563,-0.417969 -1.6211,-0.675781 -2.52344,-0.675781 -2.73047,0 -5,2.148437 -5.70313,5.0625 -1.19531,-0.464844 -2.58203,-0.75 -4.07031,-0.75 -4.46484,0 -8.08984,2.390625 -8.08984,5.332031 0,2.65625 2.97265,4.84375 6.82812,5.246094 -0.17187,0.289062 -0.30859,0.574219 -0.30859,0.875 0,2.820312 7.90625,5.109375 17.64062,5.109375 9.73438,0 17.64063,-2.289063 17.64063,-5.109375 0,-0.1875 -0.12891,-0.363281 -0.19922,-0.546875 0.42578,0.101562 0.85547,0.210937 1.32422,0.210937 2.60547,0 4.71094,-1.730468 4.71094,-3.859375 0,-2.128906 -2.10547,-3.847656 -4.71094,-3.847656 -0.32031,0 -0.60156,0.09766 -0.90234,0.148438 0.26171,-0.851563 0.44531,-1.722657 0.44531,-2.648438 0,-5.636719 -5.23047,-10.21875 -11.67969,-10.21875 z"
           transform="translate(-566.41268,-28.29299)"
           id="path6799"
           inkscape:connector-curvature="0" />
      </g>
    </g>
    <g
       id="id10:id10"
       transform="matrix(0.91197836,0,0,0.91197836,42.684171,258.07544)">
      <g
         id="id10:surface1">
        <path
           style="fill:none;stroke:#6697e8;stroke-width:6.15399885;stroke-linecap:round;stroke-linejoin:round;stroke-miterlimit:0.5;stroke-opacity:1"
           d="m 378.30793,207.23525 c 15.43359,-1.39844 26.66797,-5.65625 26.66797,-10.68359 0,-0.41407 -0.27735,-0.80079 -0.42578,-1.20313 0.91406,0.22656 1.83203,0.46484 2.82812,0.46484 5.56641,0 10.07422,-3.78515 10.07422,-8.4375 0,-4.65625 -4.50781,-8.41406 -10.07422,-8.41406 -0.67969,0 -1.28515,0.21875 -1.92969,0.32813 0.56641,-1.86328 0.95313,-3.76953 0.95313,-5.79297 0,-12.32031 -11.17188,-22.33985 -24.95313,-22.33985 -9.76562,0 -18.1289,5.08985 -22.23046,12.39844 -1.64063,-0.91406 -3.46485,-1.47265 -5.39454,-1.47265 -5.83203,0 -10.68359,4.6914 -12.18359,11.0625 -2.5625,-1.01563 -5.51562,-1.64063 -8.69922,-1.64063 -9.53906,0 -17.28515,5.22656 -17.28515,11.66406 0,5.8086 6.34375,10.58594 14.58984,11.47266 -0.36719,0.625 -0.66016,1.25 -0.66016,1.91016 0,4.24218 8.01172,7.9414 19.79688,9.83203"
           transform="translate(-312.57746,-148.079)"
           id="path6743"
           inkscape:connector-curvature="0" />
        <path
           style="fill:#6697e8;fill-opacity:1;fill-rule:nonzero;stroke:#6697e8;stroke-width:4;stroke-linecap:butt;stroke-linejoin:miter;stroke-miterlimit:3.20000005;stroke-opacity:1"
           d="m 338.13605,223.91494 c -8.25,7.26953 1.4375,13.46875 5.1211,3.48437 l 2.83203,-9.25781 z"
           transform="translate(-312.57746,-148.079)"
           id="path6745"
           inkscape:connector-curvature="0" />
        <path
           style="fill:#6697e8;fill-opacity:1;fill-rule:nonzero;stroke:#6697e8;stroke-width:4;stroke-linecap:butt;stroke-linejoin:miter;stroke-miterlimit:3.20000005;stroke-opacity:1"
           d="m 367.18684,225.11416 c -8.25391,7.26953 1.43359,13.46875 5.11718,3.48828 l 2.83203,-9.26172 z"
           transform="translate(-312.57746,-148.079)"
           id="path6747"
           inkscape:connector-curvature="0" />
        <path
           style="fill:#6697e8;fill-opacity:1;fill-rule:nonzero;stroke:#6697e8;stroke-width:4;stroke-linecap:butt;stroke-linejoin:miter;stroke-miterlimit:3.20000005;stroke-opacity:1"
           d="m 360.42121,209.77041 c -8.25,7.26953 1.4375,13.46875 5.12109,3.48828 l 2.83204,-9.26172 z"
           transform="translate(-312.57746,-148.079)"
           id="path6749"
           inkscape:connector-curvature="0" />
        <path
           style="fill:none;stroke:#6697e8;stroke-width:6.15399885;stroke-linecap:round;stroke-linejoin:round;stroke-miterlimit:0.5;stroke-opacity:1"
           d="m 378.30793,207.23525 c 15.43359,-1.39844 26.66797,-5.65625 26.66797,-10.68359 0,-0.41407 -0.27735,-0.80079 -0.42578,-1.20313 0.91406,0.22656 1.83203,0.46484 2.82812,0.46484 5.56641,0 10.07422,-3.78515 10.07422,-8.4375 0,-4.65625 -4.50781,-8.41406 -10.07422,-8.41406 -0.67969,0 -1.28515,0.21875 -1.92969,0.32813 0.56641,-1.86328 0.95313,-3.76953 0.95313,-5.79297 0,-12.32031 -11.17188,-22.33985 -24.95313,-22.33985 -9.76562,0 -18.1289,5.08985 -22.23046,12.39844 -1.64063,-0.91406 -3.46485,-1.47265 -5.39454,-1.47265 -5.83203,0 -10.68359,4.6914 -12.18359,11.0625 -2.5625,-1.01563 -5.51562,-1.64063 -8.69922,-1.64063 -9.53906,0 -17.28515,5.22656 -17.28515,11.66406 0,5.8086 6.34375,10.58594 14.58984,11.47266 -0.36719,0.625 -0.66016,1.25 -0.66016,1.91016 0,4.24218 8.01172,7.9414 19.79688,9.83203"
           transform="translate(-312.57746,-148.079)"
           id="path6751"
           inkscape:connector-curvature="0" />
        <path
           style="fill:#6697e8;fill-opacity:1;fill-rule:nonzero;stroke:#6697e8;stroke-width:4;stroke-linecap:butt;stroke-linejoin:miter;stroke-miterlimit:3.20000005;stroke-opacity:1"
           d="m 338.13605,223.91494 c -8.25,7.26953 1.4375,13.46875 5.1211,3.48437 l 2.83203,-9.25781 z"
           transform="translate(-312.57746,-148.079)"
           id="path6753"
           inkscape:connector-curvature="0" />
        <path
           style="fill:#6697e8;fill-opacity:1;fill-rule:nonzero;stroke:#6697e8;stroke-width:4;stroke-linecap:butt;stroke-linejoin:miter;stroke-miterlimit:3.20000005;stroke-opacity:1"
           d="m 367.18684,225.11416 c -8.25391,7.26953 1.43359,13.46875 5.11718,3.48828 l 2.83203,-9.26172 z"
           transform="translate(-312.57746,-148.079)"
           id="path6755"
           inkscape:connector-curvature="0" />
        <path
           style="fill:#6697e8;fill-opacity:1;fill-rule:nonzero;stroke:#6697e8;stroke-width:4;stroke-linecap:butt;stroke-linejoin:miter;stroke-miterlimit:3.20000005;stroke-opacity:1"
           d="m 360.42121,209.77041 c -8.25,7.26953 1.4375,13.46875 5.12109,3.48828 l 2.83204,-9.26172 z"
           transform="translate(-312.57746,-148.079)"
           id="path6757"
           inkscape:connector-curvature="0" />
      </g>
    </g>
  </g>
</svg>
