<?xml version="1.0" encoding="UTF-8" standalone="no"?>
<!-- Created with Inkscape (http://www.inkscape.org/) -->

<svg
   xmlns:dc="http://purl.org/dc/elements/1.1/"
   xmlns:cc="http://creativecommons.org/ns#"
   xmlns:rdf="http://www.w3.org/1999/02/22-rdf-syntax-ns#"
   xmlns:svg="http://www.w3.org/2000/svg"
   xmlns="http://www.w3.org/2000/svg"
   xmlns:inkscape="http://www.inkscape.org/namespaces/inkscape"
   version="1.1"
   width="765"
   height="990"
   id="svg2"
   xml:space="preserve"><metadata
     id="metadata8"><rdf:RDF><cc:Work
         rdf:about=""><dc:format>image/svg+xml</dc:format><dc:type
           rdf:resource="http://purl.org/dc/dcmitype/StillImage" /></cc:Work></rdf:RDF></metadata><defs
     id="defs6"><clipPath
       id="clipPath18"><path
         d="m 0,0 4899.79,0 0,7920 L 0,7920 0,0 z"
         inkscape:connector-curvature="0"
         id="path20" /></clipPath></defs><g
     transform="matrix(1.25,0,0,-1.25,0,990)"
     id="g10"><g
       transform="scale(0.1,0.1)"
       id="g12"><g
         id="g14"><g
           clip-path="url(#clipPath18)"
           id="g16"><g
             transform="scale(10,10)"
             id="g22"><text
               transform="matrix(1,0,0,-1,43.9371,785.505)"
               id="text24"><tspan
                 x="0 12 21 29.880083 41.880085 53.880085 65.880081 77.880081"
                 y="0"
                 id="tspan26"
                 style="font-size:12px;font-variant:normal;writing-mode:lr-tb;fill:#231f20;fill-opacity:1;fill-rule:nonzero;stroke:none;font-family:TakaoPGothic;-inkscape-font-specification:TakaoPGothic-90ms-RKSJ-H">公共・一般施設 </tspan></text>
<text
               transform="matrix(1,0,0,-1,133.8172,785.505)"
               id="text28"><tspan
                 x="0 8.4839964 15.635992 22.787989 25.931984 29.075979 35.555977 39.371971 47.183968 54.335964 60.81596 63.959957 67.103951 70.247948 74.063942 77.207939 84.35994"
                 y="0"
                 id="tspan30"
                 style="font-size:12px;font-variant:normal;font-weight:normal;writing-mode:lr-tb;fill:#231f20;fill-opacity:1;fill-rule:nonzero;stroke:none;font-family:Helvetica;-inkscape-font-specification:Helvetica">Public Facilities</tspan></text>
</g><path
             d="m 135.41,7957.46 127.051,0 0,-119.22 -127.051,0 0,119.22 z m 73.598,-19.59 -13.57,0 c -2.661,-12.32 -11.333,-14.55 -22.387,-14.83 l 0,-10.36 19.726,0 0,-54.85 16.231,0 0,80.04"
             inkscape:connector-curvature="0"
             id="path32"
             style="fill:#231f20;fill-opacity:1;fill-rule:nonzero;stroke:none" /><path
             d="M 4818.9,7795.27 0,7795.27"
             inkscape:connector-curvature="0"
             id="path34"
             style="fill:none;stroke:#231f20;stroke-width:2;stroke-linecap:butt;stroke-linejoin:miter;stroke-miterlimit:4;stroke-opacity:1;stroke-dasharray:none" /><path
             d="m 311.812,510.23 0,7256.7"
             inkscape:connector-curvature="0"
             id="path36"
             style="fill:none;stroke:#231f20;stroke-width:2;stroke-linecap:butt;stroke-linejoin:miter;stroke-miterlimit:4;stroke-opacity:1;stroke-dasharray:none" /><g
             transform="scale(10,10)"
             id="g38"><text
               transform="matrix(1,0,0,-1,68.0582,636.416)"
               id="text40"><tspan
                 x="0 5.5291181 10.568962 15.749313 21.630211 27.511402 33.741753 39.482006 45.361126 145.09013 152.09013 289.617 296.617"
                 y="0"
                 id="tspan42"
                 style="font-size:7px;font-variant:normal;writing-mode:lr-tb;fill:#231f20;fill-opacity:1;fill-rule:nonzero;stroke:none;font-family:TakaoPGothic;-inkscape-font-specification:TakaoPGothic-90ms-RKSJ-H">キャッシュサービス郵便電話</tspan><tspan
                 x="-0.20999999 5.5316014 10.639863 15.750293 21.631739 144.388 150.33882 154.75017 289.12701 294.72754 301.23691 307.74734 313.48758 319.22903"
                 y="189.92101"
                 id="tspan44"
                 style="font-size:7px;font-variant:normal;writing-mode:lr-tb;fill:#231f20;fill-opacity:1;fill-rule:nonzero;stroke:none;font-family:TakaoPGothic;-inkscape-font-specification:TakaoPGothic-90ms-RKSJ-H">ファックスカートエレベーター</tspan><tspan
                 x="0.07 6.0904689 11.831387 17.291973 23.381798 29.122049 34.863125 145.09143 152.09143 289.617 296.617 303.617 310.617 317.617 324.617"
                 y="379.84201"
                 id="tspan46"
                 style="font-size:7px;font-variant:normal;writing-mode:lr-tb;fill:#231f20;fill-opacity:1;fill-rule:nonzero;stroke:none;font-family:TakaoPGothic;-inkscape-font-specification:TakaoPGothic-90ms-RKSJ-H">エスカレーター階段乳幼児用設備</tspan><tspan
                 x="-0.34999999 5.5314455 11.622109 17.222523 145.088 152.088 159.088 289.617 296.617 303.617 307.60684 314.67853 321.67853 328.74844"
                 y="569.763"
                 id="tspan48"
                 style="font-size:7px;font-variant:normal;writing-mode:lr-tb;fill:#231f20;fill-opacity:1;fill-rule:nonzero;stroke:none;font-family:TakaoPGothic;-inkscape-font-specification:TakaoPGothic-90ms-RKSJ-H">クローク更衣室更衣室（女子）</tspan></text>
<text
               transform="matrix(1,0,0,-1,68.6182,627.912)"
               id="text50"><tspan
                 x="0 5.33359 9.5055885 13.28593 17.457809 19.683809 23.463808 27.635807 30.246805 34.026806 35.860806 39.640804 144.52782 149.47664 153.6489 157.42889 289.05688 293.61392 297.78592 299.61993 303.79202 307.96393 312.1358 316.30807 320.47995"
                 y="0"
                 id="tspan52"
                 style="font-size:7px;font-variant:normal;font-weight:normal;writing-mode:lr-tb;fill:#231f20;fill-opacity:1;fill-rule:nonzero;stroke:none;font-family:Helvetica;-inkscape-font-specification:Helvetica">Cash servicePostTelephone</tspan><tspan
                 x="2.9999999e-05 4.5570288 8.72894 144.52794 149.86192 154.0338 156.64473 289.05695 294.00577 295.83978 300.01202 303.79211 307.96411 310.19016 314.36203"
                 y="189.92"
                 id="tspan54"
                 style="font-size:7px;font-variant:normal;font-weight:normal;writing-mode:lr-tb;fill:#231f20;fill-opacity:1;fill-rule:nonzero;stroke:none;font-family:Helvetica;-inkscape-font-specification:Helvetica">FaxCartElevator</tspan><tspan
                 x="0.00015000001 4.9489799 8.7289791 12.508978 16.680977 18.514977 22.686975 24.91268 29.084948 144.52824 149.47668 151.70268 155.87468 157.70871 160.31964 289.0567 294.39069 298.56256 301.17392 304.95395 309.12585 311.73679"
                 y="379.84201"
                 id="tspan56"
                 style="font-size:7px;font-variant:normal;font-weight:normal;writing-mode:lr-tb;fill:#231f20;fill-opacity:1;fill-rule:nonzero;stroke:none;font-family:Helvetica;-inkscape-font-specification:Helvetica">EscalatorStairsNursery</tspan><tspan
                 x="-0.00014 5.333456 7.1674428 11.339319 15.511587 19.291275 21.902559 26.074558 30.246309 144.5276 149.86159 152.47231 156.6443 160.4243 164.2043 166.03831 170.21019 174.38246 176.60825 179.21921 183.3912 187.56335"
                 y="569.763"
                 id="tspan58"
                 style="font-size:7px;font-variant:normal;font-weight:normal;writing-mode:lr-tb;fill:#231f20;fill-opacity:1;fill-rule:nonzero;stroke:none;font-family:Helvetica;-inkscape-font-specification:Helvetica">CloakroomDressing room</tspan></text>
</g><path
             d="M 4818.9,340.16 4818.9,0"
             inkscape:connector-curvature="0"
             id="path60"
             style="fill:none;stroke:#231f20;stroke-width:2;stroke-linecap:butt;stroke-linejoin:miter;stroke-miterlimit:4;stroke-opacity:1;stroke-dasharray:none" /><g
             transform="scale(10,10)"
             id="g62"><text
               transform="matrix(1,0,0,-1,357.675,58.1492)"
               id="text64"><tspan
                 x="0 5.3339806 7.9449201 12.116919 15.896918 19.676916 21.51092 25.683193 29.855078 32.08086 34.692219 38.86422 43.035969 49.1469 51.373081 53.984062 59.318001 63.489883 69.601204 73.773087 77.944969"
                 y="0"
                 id="tspan66"
                 style="font-size:7px;font-variant:normal;font-weight:normal;writing-mode:lr-tb;fill:#231f20;fill-opacity:1;fill-rule:nonzero;stroke:none;font-family:Helvetica;-inkscape-font-specification:Helvetica">Dressing room (women)</tspan></text>
</g><path
             d="m 1283.79,3085.72 -39.59,-39.58 126.52,0.01 -134.39,-134.39 31.62,-31.62 134.39,134.39 -0.01,-126.52 39.58,39.59 0.02,158.12 -158.14,0"
             inkscape:connector-curvature="0"
             id="path68"
             style="fill:#231f20;fill-opacity:1;fill-rule:nonzero;stroke:none" /><path
             d="m 1056.22,3445.38 c 22.07,0 39.97,17.9 39.97,39.97 0,22.08 -17.9,39.97 -39.97,39.97 -22.08,0 -39.97,-17.89 -39.97,-39.97 0,-22.07 17.89,-39.97 39.97,-39.97"
             inkscape:connector-curvature="0"
             id="path70"
             style="fill:#231f20;fill-opacity:1;fill-rule:nonzero;stroke:none" /><path
             d="m 1521.18,3345.2 c 0,-57.5 -47.35,-100.34 -104.84,-100.34 l -73.25,0 -358.285,-357.26 -159.203,-0.12 c -57.504,0 -102.594,42.85 -102.594,100.34 0,57.5 45.09,102.59 102.594,102.59 l 72.691,0 112.337,111.55 -22.86,182.78 c -0.25,1.84 -0.383,3.71 -0.383,5.61 0,20.79 15.463,38.04 35.513,40.75 10.91,1.41 22.03,2.29 33.32,2.29 11.29,0 22.41,-0.89 33.32,-2.33 20.04,-2.7 35.5,-19.92 35.5,-40.71 0,-1.9 -0.12,-3.77 -0.38,-5.61 l -9.93,-79.43 143.56,142.53 158.05,0.01 c 57.49,0 104.84,-45.17 104.84,-102.65"
             inkscape:connector-curvature="0"
             id="path72"
             style="fill:#231f20;fill-opacity:1;fill-rule:nonzero;stroke:none" /><g
             transform="scale(10,10)"
             id="g74"><text
               transform="matrix(1,0,0,-1,483.307,29.7641)"
               id="text76"><tspan
                 x="0 3.336"
                 y="0"
                 id="tspan78"
                 style="font-size:6px;font-variant:normal;font-weight:normal;writing-mode:lr-tb;fill:#231f20;fill-opacity:1;fill-rule:nonzero;stroke:none;font-family:Helvetica;-inkscape-font-specification:Helvetica">08</tspan></text>
</g><path
             d="m 918.73,3040.82 359.99,357.42 137.6,-0.05 c 15.32,0 29.52,-5.79 40.04,-16.3 9.82,-9.82 15.22,-22.85 15.22,-36.69 0,-28.93 -23.75,-50.75 -55.24,-50.75 l -93.76,0 -358.295,-357.27 -138.719,-0.1 c -15.269,0 -29.074,5.38 -38.832,15.15 -9.246,9.24 -14.132,21.55 -14.132,35.59 0,14.56 5.402,27.98 15.21,37.79 9.805,9.81 23.227,15.21 37.79,15.21 l 93.128,0"
             inkscape:connector-curvature="0"
             id="path80"
             style="fill:#ffffff;fill-opacity:1;fill-rule:nonzero;stroke:none" /><path
             d="m 686.781,2707.47 c -34.238,0 -61.996,27.76 -61.996,62 l 0,867.93 c 0,34.24 27.758,61.99 61.996,61.99 l 867.929,0 c 34.24,0 62,-27.75 62,-61.99 l 0,-867.93 c 0,-34.24 -27.76,-62 -62,-62 l -867.929,0 z"
             inkscape:connector-curvature="0"
             id="path82"
             style="fill:none;stroke:#231f20;stroke-width:2;stroke-linecap:butt;stroke-linejoin:miter;stroke-miterlimit:4;stroke-opacity:1;stroke-dasharray:none" /><path
             d="m 2188.18,6723.22 755.7,0 0,547.26 -755.7,0 0,-547.26 z m 436.3,261.92 c -32.28,-32.27 -84.62,-32.27 -116.89,0 l -235.2,235.75 587.27,0 c -79.65,-79.83 -235.18,-235.75 -235.18,-235.75 z m -195.73,11.09 -190.98,-190.97 0,381.4 c 52.67,-52.51 138.62,-138.21 190.98,-190.43 z m 34.6,-34.51 c 6.64,-6.62 10.42,-10.38 10.42,-10.39 50.96,-50.95 133.57,-50.95 184.52,0 l 10.42,10.39 188.91,-188.9 -583.17,0 188.9,188.9 z m 239.97,34.51 190.97,190.41 0,-381.38 -190.97,190.97"
             inkscape:connector-curvature="0"
             id="path84"
             style="fill:#231f20;fill-opacity:1;fill-rule:nonzero;stroke:none" /><path
             d="m 2132.07,6505.9 c -34.24,0 -62,27.75 -62,61.99 l 0,867.93 c 0,34.24 27.76,62 62,62 l 867.93,0 c 34.24,0 61.99,-27.76 61.99,-62 l 0,-867.93 c 0,-34.24 -27.75,-61.99 -61.99,-61.99 l -867.93,0 z"
             inkscape:connector-curvature="0"
             id="path86"
             style="fill:none;stroke:#231f20;stroke-width:2;stroke-linecap:butt;stroke-linejoin:miter;stroke-miterlimit:4;stroke-opacity:1;stroke-dasharray:none" /><path
             d="m 2131.81,4606.68 c -34.25,0 -62.02,27.77 -62.02,62.02 l 0,868.19 c 0,34.25 27.77,62.01 62.02,62.01 l 868.19,0 c 34.25,0 62.01,-27.76 62.01,-62.01 l 0,-868.19 c 0,-34.25 -27.76,-62.02 -62.01,-62.02 l -868.19,0 z"
             inkscape:connector-curvature="0"
             id="path88"
             style="fill:none;stroke:#231f20;stroke-width:2;stroke-linecap:butt;stroke-linejoin:miter;stroke-miterlimit:4;stroke-opacity:1;stroke-dasharray:none" /><path
             d="m 2717.42,5282.87 c 0,16.09 -13.04,29.14 -29.14,29.14 l -50.51,0 0,-339.94 50.59,0 c 16.1,0 29.14,13.05 29.14,29.13 l -0.08,281.67"
             inkscape:connector-curvature="0"
             id="path90"
             style="fill:#231f20;fill-opacity:1;fill-rule:nonzero;stroke:none" /><path
             d="m 2311.65,5312.03 -50.61,0 c -16.09,0 -29.14,-13.04 -29.14,-29.14 l -0.02,-281.65 c 0,-16.09 13.05,-29.14 29.14,-29.14 l 50.63,-0.01 0,339.94"
             inkscape:connector-curvature="0"
             id="path92"
             style="fill:#231f20;fill-opacity:1;fill-rule:nonzero;stroke:none" /><path
             d="m 2550.54,5312.02 0,57.56 -8.56,2 c -22.09,5.2 -44.73,7.84 -67.29,7.84 -22.68,0 -45.31,-2.64 -67.26,-7.83 l -8.55,-2.04 0,-57.52 -59.32,0 0,-339.94 270.3,-0.02 0,339.94 -59.32,0.01 z m -123.75,35.1 c 15.76,2.9 31.81,4.38 47.9,4.38 16.02,0 32.08,-1.49 47.94,-4.4 l 0,-35.08 -95.84,0 0,35.1"
             inkscape:connector-curvature="0"
             id="path94"
             style="fill:#231f20;fill-opacity:1;fill-rule:nonzero;stroke:none" /><path
             d="m 2305.02,4866.67 c -27.34,0 -49.51,-22.16 -49.51,-49.51 0,-27.34 22.17,-49.51 49.51,-49.51 27.34,0 49.51,22.17 49.51,49.51 0,27.35 -22.17,49.51 -49.51,49.51"
             inkscape:connector-curvature="0"
             id="path96"
             style="fill:#231f20;fill-opacity:1;fill-rule:nonzero;stroke:none" /><path
             d="m 2778.67,4866.67 c -27.34,0 -49.51,-22.16 -49.51,-49.51 0,-27.34 22.17,-49.51 49.51,-49.51 27.35,0 49.51,22.17 49.51,49.51 0,27.35 -22.16,49.51 -49.51,49.51"
             inkscape:connector-curvature="0"
             id="path98"
             style="fill:#231f20;fill-opacity:1;fill-rule:nonzero;stroke:none" /><path
             d="m 2789.79,5433.51 0,-486.22 -557.91,0 0,-62.01 619.93,0 0,486.22 79.11,0 0,62.01 -141.13,0"
             inkscape:connector-curvature="0"
             id="path100"
             style="fill:#231f20;fill-opacity:1;fill-rule:nonzero;stroke:none" /><path
             d="m 3576.75,6505.9 c -34.24,0 -61.99,27.75 -61.99,61.99 l 0,867.93 c 0,34.24 27.75,62 61.99,62 l 867.93,0 c 34.24,0 62,-27.76 62,-62 l 0,-867.93 c 0,-34.24 -27.76,-61.99 -62,-61.99 l -867.93,0 z"
             inkscape:connector-curvature="0"
             id="path102"
             style="fill:none;stroke:#231f20;stroke-width:2;stroke-linecap:butt;stroke-linejoin:miter;stroke-miterlimit:4;stroke-opacity:1;stroke-dasharray:none" /><path
             d="m 4093.73,7271.23 c 0,40.98 -5.4,80.5 -14.98,118.5 l -62.62,0 0,-238.27 62.62,-0.15 c 9.78,38.37 14.98,78.51 14.98,119.92"
             inkscape:connector-curvature="0"
             id="path104"
             style="fill:#231f20;fill-opacity:1;fill-rule:nonzero;stroke:none" /><path
             d="m 4016.13,6852.39 0,-238.41 62.62,0 c 9.78,38.37 14.98,78.56 14.98,119.97 0,40.98 -5.72,80.34 -15.3,118.34 l -62.3,0.1"
             inkscape:connector-curvature="0"
             id="path106"
             style="fill:#231f20;fill-opacity:1;fill-rule:nonzero;stroke:none" /><path
             d="m 3837.05,7001.86 c 0,-144.11 44.7,-277.78 120.99,-387.9 l 27.28,0.02 0,238.27 c -29.23,42.9 -46.05,93.64 -46.05,149.61 0,55.97 16.82,106.7 46.05,149.6 l 0,238.27 -27.28,0.02 c -76.29,-110.12 -120.99,-243.79 -120.99,-387.89"
             inkscape:connector-curvature="0"
             id="path108"
             style="fill:#231f20;fill-opacity:1;fill-rule:nonzero;stroke:none" /><path
             d="m 686.781,4606.68 c -34.238,0 -61.996,27.76 -61.996,62 l 0,867.93 c 0,34.24 27.758,62 61.996,62 l 867.929,0 c 34.24,0 62,-27.76 62,-62 l 0,-867.93 c 0,-34.24 -27.76,-62 -62,-62 l -867.929,0 z"
             inkscape:connector-curvature="0"
             id="path110"
             style="fill:none;stroke:#231f20;stroke-width:2;stroke-linecap:butt;stroke-linejoin:miter;stroke-miterlimit:4;stroke-opacity:1;stroke-dasharray:none" /><path
             d="m 1054.46,5193.17 117.45,0 0,-33.2 -70.67,0 0,-38.47 67.65,0 0,-33.2 -67.65,0 0,-70.67 -46.78,0 0,175.54"
             inkscape:connector-curvature="0"
             id="path112"
             style="fill:#231f20;fill-opacity:1;fill-rule:nonzero;stroke:none" /><path
             d="m 1237.79,5193.17 57.34,0 67.65,-175.54 -51.31,0 -13.07,37.47 -65.9,0 -13.83,-37.47 -47.53,0 66.65,175.54 z m 28.67,-36.21 -0.51,0 -22.63,-68.66 44.01,0 -20.87,68.66"
             inkscape:connector-curvature="0"
             id="path114"
             style="fill:#231f20;fill-opacity:1;fill-rule:nonzero;stroke:none" /><path
             d="m 1424.12,5109.93 -50.8,83.24 54.57,0 29.42,-57.84 30.18,57.84 51.3,0 -51.3,-83.24 56.33,-92.3 -55.83,0 -33.95,64.63 -33.7,-64.63 -53.06,0 56.84,92.3"
             inkscape:connector-curvature="0"
             id="path116"
             style="fill:#231f20;fill-opacity:1;fill-rule:nonzero;stroke:none" /><path
             d="m 1026.21,5372.02 c 0,40.97 -5.4,80.5 -14.98,118.5 l -62.617,0 0,-238.28 62.617,-0.14 c 9.78,38.36 14.98,78.51 14.98,119.92"
             inkscape:connector-curvature="0"
             id="path118"
             style="fill:#231f20;fill-opacity:1;fill-rule:nonzero;stroke:none" /><path
             d="m 948.613,4953.18 0,-238.41 62.617,0 c 9.78,38.37 14.98,78.56 14.98,119.97 0,40.98 -5.72,80.34 -15.3,118.34 l -62.297,0.1"
             inkscape:connector-curvature="0"
             id="path120"
             style="fill:#231f20;fill-opacity:1;fill-rule:nonzero;stroke:none" /><path
             d="m 769.527,5102.65 c 0,-144.11 44.703,-277.78 120.996,-387.9 l 27.282,0.02 0,238.28 c -29.231,42.89 -46.051,93.63 -46.051,149.6 0,55.96 16.82,106.7 46.051,149.59 l 0,238.28 -27.282,0.02 C 814.23,5380.42 769.527,5246.75 769.527,5102.65"
             inkscape:connector-curvature="0"
             id="path122"
             style="fill:#231f20;fill-opacity:1;fill-rule:nonzero;stroke:none" /><path
             d="m 2132.09,2707.47 c -34.24,0 -61.99,27.76 -61.99,62 l 0,867.91 c 0,34.24 27.75,61.99 61.99,61.99 l 867.91,0 c 34.24,0 61.99,-27.75 61.99,-61.99 l 0,-867.91 c 0,-34.24 -27.75,-62 -61.99,-62 l -867.91,0 z"
             inkscape:connector-curvature="0"
             id="path124"
             style="fill:none;stroke:#231f20;stroke-width:2;stroke-linecap:butt;stroke-linejoin:miter;stroke-miterlimit:4;stroke-opacity:1;stroke-dasharray:none" /><path
             d="m 2990.66,3166.84 -160.54,0 0,-65.08 -141.95,0 0,-65.09 -141.96,0 0,-65.09 -141.95,0 0,-65.08 -141.96,0 0,-65.09 -120.87,0 0,-78.11 198.98,0 0,65.09 141.95,0 0,65.09 141.96,0 0,65.08 141.95,0 0,65.09 141.96,0 0,65.09 82.43,0 0,78.1"
             inkscape:connector-curvature="0"
             id="path126"
             style="fill:#231f20;fill-opacity:1;fill-rule:nonzero;stroke:none" /><path
             d="m 2337.83,3430.15 c 23.65,0 42.82,19.17 42.82,42.82 0,23.65 -19.17,42.82 -42.82,42.82 -23.65,0 -42.82,-19.17 -42.82,-42.82 0,-23.65 19.17,-42.82 42.82,-42.82"
             inkscape:connector-curvature="0"
             id="path128"
             style="fill:#231f20;fill-opacity:1;fill-rule:nonzero;stroke:none" /><path
             d="m 2494.04,3055.7 -111.13,93.25 22.9,162.95 c 24.63,-29.13 40.8,-65.67 44.62,-105.81 l 35.06,9.39 c -1.68,63.31 -27.9,120.49 -69.49,162.4 -28.31,28.53 -64.71,37.83 -90.28,40.42 -0.22,0.02 -0.43,0.03 -0.65,0.03 -3.15,0 -5.76,-2.27 -6.32,-5.27 -12.74,-68.25 -54.4,-126.32 -111.78,-161.03 l 18.24,-31.6 c 30.62,13.06 57.97,32.32 80.48,56.19 l 0,-348.42 46.19,0 20.37,144.95 113.33,-65.43 8.46,47.98"
             inkscape:connector-curvature="0"
             id="path130"
             style="fill:#231f20;fill-opacity:1;fill-rule:nonzero;stroke:none" /><path
             d="m 2719.58,3559.4 c 23.65,0 42.82,19.17 42.82,42.82 0,23.65 -19.17,42.82 -42.82,42.82 -23.65,0 -42.82,-19.17 -42.82,-42.82 0,-23.65 19.17,-42.82 42.82,-42.82"
             inkscape:connector-curvature="0"
             id="path132"
             style="fill:#231f20;fill-opacity:1;fill-rule:nonzero;stroke:none" /><path
             d="m 2804.4,3341.76 -82.14,47.42 7.62,39.22 c 2.84,14.68 4.34,29.85 4.34,45.35 0,23.68 -3.47,46.54 -9.91,68.11 -0.79,2.65 -3.26,4.58 -6.16,4.58 -0.07,0 -0.15,0 -0.23,0 -91.85,-3.13 -165.35,-78.57 -165.35,-171.18 0,-4.56 0.18,-9.08 0.54,-13.55 l 35.9,-6.33 c -0.02,0.92 -0.04,1.83 -0.04,2.75 0,38.23 16.99,72.47 43.82,95.64 l -20.71,-395.4 45.88,0 48.92,251.71 45.2,-21.08 -31.02,-115.75 32.67,-32.67 68.08,146.01 c 2.57,5.49 4.01,11.62 4.01,18.09 0,15.85 -8.62,29.68 -21.42,37.08"
             inkscape:connector-curvature="0"
             id="path134"
             style="fill:#231f20;fill-opacity:1;fill-rule:nonzero;stroke:none" /><path
             d="m 3577.09,4606.68 c -34.24,0 -62.01,27.77 -62.01,62.02 l 0,868.12 c 0,34.24 27.77,62 62.01,62 l 868.12,0 c 34.25,0 62.01,-27.76 62.01,-62 l 0,-868.12 c 0,-34.25 -27.76,-62.02 -62.01,-62.02 l -868.12,0 z"
             inkscape:connector-curvature="0"
             id="path136"
             style="fill:none;stroke:#231f20;stroke-width:2;stroke-linecap:butt;stroke-linejoin:miter;stroke-miterlimit:4;stroke-opacity:1;stroke-dasharray:none" /><path
             d="m 3750.15,5216.37 0,-517.2 519.32,0 0,517.2 -519.32,0 z m 469.75,-467.62 -420.17,0 0,418.04 420.17,0 0,-418.04"
             inkscape:connector-curvature="0"
             id="path138"
             style="fill:#231f20;fill-opacity:1;fill-rule:nonzero;stroke:none" /><path
             d="m 3993.89,5362.85 0,59.13 -94.51,-94.51 0,200.78 -47.24,0 0,-200.78 -94.5,94.51 0,-59.13 118.11,-118.13 118.14,118.13"
             inkscape:connector-curvature="0"
             id="path140"
             style="fill:#231f20;fill-opacity:1;fill-rule:nonzero;stroke:none" /><path
             d="m 4121.25,5451.69 0,-200.78 47.25,0 0,200.78 94.5,-94.5 0,59.13 -118.11,118.13 -118.14,-118.13 0,-59.13 94.5,94.5"
             inkscape:connector-curvature="0"
             id="path142"
             style="fill:#231f20;fill-opacity:1;fill-rule:nonzero;stroke:none" /><path
             d="m 3827.75,4907 16.12,0 0,-133.86 25.83,0 9.39,133.86 4.7,0 9.39,-133.86 25.83,0 0,133.86 16.12,0 4.7,89.76 c 1.29,18.17 -11.6,34.58 -29.92,37.29 -9.29,1.38 -18.8,2.11 -28.47,2.11 -9.67,0 -19.17,-0.73 -28.47,-2.11 -18.32,-2.71 -31.21,-19.12 -29.92,-37.29 l 4.7,-89.76"
             inkscape:connector-curvature="0"
             id="path144"
             style="fill:#231f20;fill-opacity:1;fill-rule:nonzero;stroke:none" /><path
             d="m 3881.44,5046.29 c 12.97,0 23.49,10.52 23.49,23.48 0,12.97 -10.52,23.49 -23.49,23.49 -12.97,0 -23.49,-10.52 -23.49,-23.49 0,-12.96 10.52,-23.48 23.49,-23.48"
             inkscape:connector-curvature="0"
             id="path146"
             style="fill:#231f20;fill-opacity:1;fill-rule:nonzero;stroke:none" /><path
             d="m 3957.37,4907 16.11,0 0,-133.86 25.84,0 9.39,133.86 4.69,0 9.4,-133.86 25.83,0 0,133.86 16.12,0 4.7,89.76 c 1.28,18.17 -11.6,34.58 -29.92,37.29 -9.3,1.38 -18.8,2.11 -28.48,2.11 -9.67,0 -19.17,-0.73 -28.46,-2.11 -18.32,-2.71 -31.21,-19.12 -29.92,-37.29 l 4.7,-89.76"
             inkscape:connector-curvature="0"
             id="path148"
             style="fill:#231f20;fill-opacity:1;fill-rule:nonzero;stroke:none" /><path
             d="m 4011.05,5046.29 c 12.98,0 23.49,10.52 23.49,23.48 0,12.97 -10.51,23.49 -23.49,23.49 -12.96,0 -23.48,-10.52 -23.48,-23.49 0,-12.96 10.52,-23.48 23.48,-23.48"
             inkscape:connector-curvature="0"
             id="path150"
             style="fill:#231f20;fill-opacity:1;fill-rule:nonzero;stroke:none" /><path
             d="m 4086.98,4907 16.12,0 0,-133.86 25.83,0 9.4,133.86 4.69,0 9.39,-133.86 25.84,0 0,133.86 16.11,0 4.7,89.76 c 1.29,18.17 -11.6,34.58 -29.92,37.29 -9.29,1.38 -18.79,2.11 -28.47,2.11 -9.67,0 -19.18,-0.73 -28.47,-2.11 -18.32,-2.71 -31.2,-19.12 -29.92,-37.29 l 4.7,-89.76"
             inkscape:connector-curvature="0"
             id="path152"
             style="fill:#231f20;fill-opacity:1;fill-rule:nonzero;stroke:none" /><path
             d="m 4140.67,5046.29 c 12.97,0 23.49,10.52 23.49,23.48 0,12.97 -10.52,23.49 -23.49,23.49 -12.97,0 -23.48,-10.52 -23.48,-23.49 0,-12.96 10.51,-23.48 23.48,-23.48"
             inkscape:connector-curvature="0"
             id="path154"
             style="fill:#231f20;fill-opacity:1;fill-rule:nonzero;stroke:none" /><path
             d="m 686.738,6505.9 c -34.242,0 -62.004,27.75 -62.004,61.99 l 0,867.98 c 0,34.24 27.762,62 62.004,62 l 867.972,0 c 34.25,0 62,-27.76 62,-62 l 0,-867.98 c 0,-34.24 -27.75,-61.99 -62,-61.99 l -867.972,0 z"
             inkscape:connector-curvature="0"
             id="path156"
             style="fill:none;stroke:#231f20;stroke-width:2;stroke-linecap:butt;stroke-linejoin:miter;stroke-miterlimit:4;stroke-opacity:1;stroke-dasharray:none" /><path
             d="m 764.492,7299.45 0,-185.98 105.391,0 0,49.6 -55.797,0 0,86.79 80.598,0 0,-533.16 384.366,0 0,533.16 24.8,0 0,-557.96 -347.174,0 0,-37.19 384.364,0 0,595.15 80.6,0 0,-86.79 -55.8,0 0,-49.6 105.4,0 0,185.98 -706.748,0 z m 477.368,-545.55 -309.981,0 0,495.96 309.981,0 0,-495.96"
             inkscape:connector-curvature="0"
             id="path158"
             style="fill:#231f20;fill-opacity:1;fill-rule:nonzero;stroke:none" /><path
             d="m 1057.37,6916.31 -48.55,0 0,27.55 48.55,0 0,14.11 -2.96,6.23 -45.59,0 0,27.56 31.82,0 -54.132,108.91 61.022,0 39.36,-92.51 38.71,92.51 61.68,0 -54.14,-108.91 31.83,0 0,-27.56 -45.27,0 -3.28,-6.23 0,-14.11 48.55,0 0,-27.55 -48.55,0 0,-44.62 -59.05,0 0,44.62"
             inkscape:connector-curvature="0"
             id="path160"
             style="fill:#231f20;fill-opacity:1;fill-rule:nonzero;stroke:none" /><path
             d="m 3576.75,2707.47 c -34.25,0 -62.01,27.77 -62.01,62.02 l 0,868.18 c 0,34.26 27.76,62.02 62.01,62.02 l 868.19,0 c 34.25,0 62.02,-27.76 62.02,-62.02 l 0,-868.18 c 0,-34.25 -27.77,-62.02 -62.02,-62.02 l -868.19,0 z"
             inkscape:connector-curvature="0"
             id="path162"
             style="fill:none;stroke:#231f20;stroke-width:2;stroke-linecap:butt;stroke-linejoin:miter;stroke-miterlimit:4;stroke-opacity:1;stroke-dasharray:none" /><path
             d="m 4010.91,3364.14 c 53.93,0 97.66,43.73 97.66,97.67 0,53.93 -43.73,97.66 -97.66,97.66 -53.94,0 -97.67,-43.73 -97.67,-97.66 0,-53.94 43.73,-97.67 97.67,-97.67"
             inkscape:connector-curvature="0"
             id="path164"
             style="fill:#231f20;fill-opacity:1;fill-rule:nonzero;stroke:none" /><path
             d="m 4147.32,3297.18 c -20.4,24.32 -49.86,41.14 -83.94,44.69 -17.25,1.79 -34.75,2.74 -52.47,2.74 -17.73,0 -35.23,-0.95 -52.48,-2.74 -34.07,-3.55 -63.54,-20.37 -83.94,-44.69 l -128.51,-153.14 40.95,-48.82 113.29,102.01 0,-54.46 221.37,0 0,54.46 113.29,-102.01 40.95,48.82 -128.51,153.14"
             inkscape:connector-curvature="0"
             id="path166"
             style="fill:#231f20;fill-opacity:1;fill-rule:nonzero;stroke:none" /><path
             d="m 4121.59,3097.2 -82.04,-82.07 55.45,-55.46 -66.46,-73.81 46.03,-46.04 92,77.2 c 17.77,14.92 29.08,37.29 29.08,62.31 0,19.92 -7.16,38.16 -19.05,52.31 l -55.01,65.56"
             inkscape:connector-curvature="0"
             id="path168"
             style="fill:#231f20;fill-opacity:1;fill-rule:nonzero;stroke:none" /><path
             d="m 3982.27,3015.13 -82.05,82.07 -55.01,-65.56 c -11.88,-14.15 -19.05,-32.39 -19.05,-52.31 0,-25.02 11.32,-47.39 29.09,-62.31 l 92,-77.2 46.03,46.04 -66.47,73.81 55.46,55.46"
             inkscape:connector-curvature="0"
             id="path170"
             style="fill:#231f20;fill-opacity:1;fill-rule:nonzero;stroke:none" /><path
             d="m 3576.75,808.262 c -34.24,0 -61.99,27.758 -61.99,62 l 0,867.928 c 0,34.24 27.75,61.99 61.99,61.99 l 867.93,0 c 34.24,0 62,-27.75 62,-61.99 l 0,-867.928 c 0,-34.242 -27.76,-62 -62,-62 l -867.93,0 z"
             inkscape:connector-curvature="0"
             id="path172"
             style="fill:none;stroke:#231f20;stroke-width:2;stroke-linecap:butt;stroke-linejoin:miter;stroke-miterlimit:4;stroke-opacity:1;stroke-dasharray:none" /><path
             d="m 4348.56,1529.25 c -48.98,20.72 -100.8,31.98 -154.19,33.6 l 0,27.55 c 0,4.08 -2.07,7.67 -5.2,9.8 l -20.83,14.81 c -5.66,3.91 -9.04,10.35 -9.04,17.22 0,5.58 2.17,10.83 6.12,14.78 3.96,3.95 9.2,6.12 14.79,6.12 5.58,0 10.83,-2.17 14.78,-6.12 3.95,-3.95 6.12,-9.2 6.12,-14.78 l 28.33,0 c 0,13.14 -5.12,25.51 -14.42,34.81 -9.3,9.3 -21.66,14.42 -34.81,14.42 -27.15,0 -49.23,-22.09 -49.23,-49.23 0,-16.17 7.95,-31.32 21.26,-40.52 l -0.12,0.08 13.92,-9.84 0,-19.17 c -52.8,-1.79 -104.04,-13.03 -152.52,-33.53 -17.24,-7.29 -34.16,-15.81 -50.22,-25.23 -0.28,-8.76 1.8,-17.75 6.65,-25.81 3.97,-6.61 8.86,-12.43 14.98,-16.25 15.04,8.96 30.71,16.91 46.99,23.79 47.2,19.96 97.38,30.09 149.12,30.09 51.75,0 101.92,-10.13 149.13,-30.09 16.27,-6.88 31.94,-14.83 46.98,-23.79 6.12,3.82 11.01,9.64 14.98,16.25 4.85,8.06 6.93,17.05 6.66,25.81 -16.07,9.42 -32.99,17.94 -50.23,25.23"
             inkscape:connector-curvature="0"
             id="path174"
             style="fill:#231f20;fill-opacity:1;fill-rule:nonzero;stroke:none" /><path
             d="m 3794.4,1495.36 c 27.41,0 49.63,22.22 49.63,49.63 0,27.41 -22.22,49.63 -49.63,49.63 -27.41,0 -49.63,-22.22 -49.63,-49.63 0,-27.41 22.22,-49.63 49.63,-49.63"
             inkscape:connector-curvature="0"
             id="path176"
             style="fill:#231f20;fill-opacity:1;fill-rule:nonzero;stroke:none" /><path
             d="m 3862.68,1391.14 38.56,-143.94 37.22,0 -30.01,170.25 c -4.64,26.18 -24.15,48.55 -51.62,55.38 -19.99,4.96 -40.9,7.64 -62.43,7.64 -21.52,0 -42.43,-2.68 -62.42,-7.64 -27.47,-6.83 -46.98,-29.2 -51.62,-55.38 l -30.01,-170.25 37.22,0 38.56,143.94 15.51,-57.87 c -35.62,-52.96 -56.43,-116.71 -56.43,-185.33 l 64.71,0 19.52,-223.178 49.92,0 19.53,223.178 64.7,0 c 0,68.62 -20.8,132.38 -56.41,185.34 l 15.5,57.86"
             inkscape:connector-curvature="0"
             id="path178"
             style="fill:#231f20;fill-opacity:1;fill-rule:nonzero;stroke:none" /><path
             d="m 685.906,808.262 c -34.234,0 -61.996,27.758 -61.996,62 l 0,867.928 c 0,34.24 27.762,61.99 61.996,61.99 l 867.934,0 c 34.24,0 61.99,-27.75 61.99,-61.99 l 0,-867.928 c 0,-34.242 -27.75,-62 -61.99,-62 l -867.934,0 z"
             inkscape:connector-curvature="0"
             id="path180"
             style="fill:none;stroke:#231f20;stroke-width:2;stroke-linecap:butt;stroke-linejoin:miter;stroke-miterlimit:4;stroke-opacity:1;stroke-dasharray:none" /><path
             d="m 1312.26,1099.68 c -8.57,40.97 -44.13,72.09 -87.14,74.16 l 0,23.15 c 0,28.06 -10.93,54.44 -30.77,74.28 -19.84,19.85 -46.22,30.77 -74.29,30.77 -57.93,0 -105.06,-47.12 -105.06,-105.05 l 0,-23.15 c -43.035,-2.02 -78.555,-32.94 -87.133,-73.93 -12.152,-55.51 -18.652,-112.769 -18.652,-172.148 l 421.695,0 c 0,59.187 -6.56,116.558 -18.65,171.918 z m -242.7,147.81 c 13.49,13.5 31.43,20.92 50.5,20.92 19.08,0 37.02,-7.42 50.51,-20.92 13.49,-13.49 20.91,-31.42 20.91,-50.5 l 0,-23.04 -142.84,0 0,23.04 c 0,19.08 7.43,37.01 20.92,50.5"
             inkscape:connector-curvature="0"
             id="path182"
             style="fill:#231f20;fill-opacity:1;fill-rule:nonzero;stroke:none" /><path
             d="m 1412.36,1439.82 c -86,36.38 -177.01,56 -270.81,58.45 l 0,47.74 c 0,5.79 -2.87,11.18 -7.73,14.47 0,0 -36.15,25.72 -36.12,25.7 -10.66,7.37 -17.04,19.5 -17.04,32.44 0,10.52 4.11,20.42 11.55,27.86 7.43,7.44 17.33,11.54 27.85,11.54 10.53,0 20.42,-4.1 27.86,-11.54 6.7,-6.71 10.66,-15.41 11.39,-24.76 l 43.05,0 c -0.76,20.84 -9.23,40.32 -24.05,55.15 -15.56,15.56 -36.24,24.12 -58.25,24.12 -21.96,0 -42.64,-8.57 -58.22,-24.15 -15.58,-15.58 -24.15,-36.26 -24.15,-58.22 0,-27.05 13.3,-52.4 35.57,-67.8 l 24,-16.95 1.31,-0.93 0,-34.77 c -92.77,-2.78 -182.793,-22.34 -267.918,-58.35 -29.914,-12.65 -59.312,-27.43 -87.195,-43.79 -0.477,-15.21 3.137,-30.81 11.547,-44.83 6.894,-11.47 15.387,-21.57 26.012,-28.21 26.109,15.57 53.336,29.36 81.582,41.31 81.964,34.66 169.072,52.25 258.912,52.25 89.84,0 176.95,-17.59 258.91,-52.25 28.25,-11.95 55.47,-25.74 81.58,-41.31 10.63,6.64 19.12,16.74 26.01,28.21 8.42,14.02 12.03,29.62 11.56,44.83 -27.89,16.36 -57.29,31.14 -87.21,43.79"
             inkscape:connector-curvature="0"
             id="path184"
             style="fill:#231f20;fill-opacity:1;fill-rule:nonzero;stroke:none" /><path
             d="m 2902.94,1528.27 c -48.98,20.72 -100.79,31.98 -154.18,33.59 l 0,27.56 c 0,4.07 -2.06,7.67 -5.21,9.79 l -20.81,14.81 c -5.66,3.91 -9.04,10.35 -9.04,17.22 0,5.58 2.17,10.83 6.12,14.78 3.95,3.94 9.2,6.12 14.78,6.12 5.59,0 10.83,-2.18 14.78,-6.12 3.95,-3.95 6.12,-9.2 6.12,-14.78 l 28.33,0 c 0,13.15 -5.12,25.51 -14.42,34.81 -9.3,9.3 -21.66,14.42 -34.81,14.42 -27.14,0 -49.23,-22.09 -49.23,-49.23 0,-16.17 7.95,-31.31 21.26,-40.52 l -0.12,0.08 13.93,-9.83 0,-19.17 c -52.8,-1.79 -104.04,-13.03 -152.52,-33.53 -17.23,-7.29 -34.16,-15.81 -50.21,-25.22 -0.28,-8.76 1.8,-17.75 6.65,-25.82 3.97,-6.61 8.86,-12.43 14.98,-16.25 15.04,8.97 30.71,16.91 46.98,23.79 47.21,19.97 97.37,30.09 149.11,30.09 51.74,0 101.91,-10.12 149.12,-30.09 16.27,-6.88 31.94,-14.82 46.98,-23.79 6.12,3.82 11.01,9.64 14.98,16.25 4.85,8.07 6.93,17.06 6.65,25.82 -16.06,9.41 -32.98,17.93 -50.22,25.22"
             inkscape:connector-curvature="0"
             id="path186"
             style="fill:#231f20;fill-opacity:1;fill-rule:nonzero;stroke:none" /><path
             d="m 2131.19,808.262 c -34.23,0 -61.99,27.75 -61.99,61.988 l 0,867.86 c 0,34.24 27.76,62 61.99,62 l 867.87,0 c 34.23,0 61.98,-27.76 61.98,-62 l 0,-867.86 c 0,-34.238 -27.75,-61.988 -61.98,-61.988 l -867.87,0 z"
             inkscape:connector-curvature="0"
             id="path188"
             style="fill:none;stroke:#231f20;stroke-width:2;stroke-linecap:butt;stroke-linejoin:miter;stroke-miterlimit:4;stroke-opacity:1;stroke-dasharray:none" /><path
             d="m 2348.83,1495.3 c 27.41,0 49.63,22.22 49.63,49.63 0,27.41 -22.22,49.63 -49.63,49.63 -27.41,0 -49.64,-22.22 -49.64,-49.63 0,-27.41 22.23,-49.63 49.64,-49.63"
             inkscape:connector-curvature="0"
             id="path190"
             style="fill:#231f20;fill-opacity:1;fill-rule:nonzero;stroke:none" /><path
             d="m 2423.34,1473.58 c -24.16,4.47 -49.06,6.82 -74.51,6.82 -25.46,0 -50.36,-2.35 -74.52,-6.82 -40.89,-7.57 -68.94,-44.37 -66.77,-84.8 l 9.23,-171.37 39.64,0 0,163.79 13.59,0 0,-456.63 54.01,0 19.85,282.91 9.93,0 19.85,-282.91 54.01,0 0,456.63 13.6,0 0,-163.79 39.64,0 9.22,171.37 c 2.17,40.43 -25.88,77.23 -66.77,84.8"
             inkscape:connector-curvature="0"
             id="path192"
             style="fill:#231f20;fill-opacity:1;fill-rule:nonzero;stroke:none" /><g
             transform="scale(10,10)"
             id="g194"><text
               transform="matrix(1,0,0,-1,10.0977,751.475)"
               id="text196"><tspan
                 x="0"
                 y="0"
                 id="tspan198"
                 style="font-size:12px;font-variant:normal;font-weight:normal;writing-mode:lr-tb;fill:#231f20;fill-opacity:1;fill-rule:nonzero;stroke:none;font-family:Helvetica;-inkscape-font-specification:Helvetica">B</tspan></text>
<text
               transform="matrix(1,0,0,-1,2.01293,765.6332)"
               id="text200"><tspan
                 x="0 8 16"
                 y="0"
                 id="tspan202"
                 style="font-size:8px;font-variant:normal;writing-mode:lr-tb;fill:#231f20;fill-opacity:1;fill-rule:nonzero;stroke:none;font-family:TakaoPGothic;-inkscape-font-specification:TakaoPGothic-90ms-RKSJ-H">推奨度</tspan></text>
<text
               transform="matrix(1,0,0,-1,64.10513,616.4282)"
               id="text204"><tspan
                 x="0 4.1999998 9.310154 13.510154 14.839839 19.039839 20.58007 24.780069"
                 y="0"
                 id="tspan206"
                 style="font-size:7px;font-variant:normal;writing-mode:lr-tb;fill:#231f20;fill-opacity:1;fill-rule:nonzero;stroke:none;font-family:Ryumin-Light-90ms-RKSJ;-inkscape-font-specification:Ryumin-Light-90ms-RKSJ-H">mQn</tspan></text>
<text
               transform="matrix(1,0,0,-1,85.80513,616.4282)"
               id="text208"><tspan
                 x="0 7.0712881 14.071288 21.071287 28.071287 35.071289 40.741211 47.181168 53.410854 59.85191 63.351768 70.421692"
                 y="0"
                 id="tspan210"
                 style="font-size:7px;font-variant:normal;writing-mode:lr-tb;fill:#231f20;fill-opacity:1;fill-rule:nonzero;stroke:none;font-family:TakaoPGothic;-inkscape-font-specification:TakaoPGothic-90ms-RKSJ-H">（通貨記号差し替え 可）</tspan></text>
</g></g></g></g></g></svg>