<?xml version="1.0" encoding="UTF-8" standalone="no"?>
<!-- Created with Inkscape (http://www.inkscape.org/) -->

<svg
   xmlns:dc="http://purl.org/dc/elements/1.1/"
   xmlns:cc="http://creativecommons.org/ns#"
   xmlns:rdf="http://www.w3.org/1999/02/22-rdf-syntax-ns#"
   xmlns:svg="http://www.w3.org/2000/svg"
   xmlns="http://www.w3.org/2000/svg"
   xmlns:inkscape="http://www.inkscape.org/namespaces/inkscape"
   version="1.1"
   width="765"
   height="990"
   id="svg2"
   xml:space="preserve"><metadata
     id="metadata8"><rdf:RDF><cc:Work
         rdf:about=""><dc:format>image/svg+xml</dc:format><dc:type
           rdf:resource="http://purl.org/dc/dcmitype/StillImage" /></cc:Work></rdf:RDF></metadata><defs
     id="defs6"><clipPath
       id="clipPath18"><path
         d="m 0,0 4899.79,0 0,7920 L 0,7920 0,0 z"
         inkscape:connector-curvature="0"
         id="path20" /></clipPath></defs><g
     transform="matrix(1.25,0,0,-1.25,0,990)"
     id="g10"><g
       transform="scale(0.1,0.1)"
       id="g12"><g
         id="g14"><g
           clip-path="url(#clipPath18)"
           id="g16"><path
             d="m 311.809,4024.56 0,3742.37"
             inkscape:connector-curvature="0"
             id="path22"
             style="fill:none;stroke:#231f20;stroke-width:2;stroke-linecap:butt;stroke-linejoin:miter;stroke-miterlimit:4;stroke-opacity:1;stroke-dasharray:none" /><path
             d="m 311.809,510.23 0,3457.64"
             inkscape:connector-curvature="0"
             id="path24"
             style="fill:none;stroke:#231f20;stroke-width:2;stroke-linecap:butt;stroke-linejoin:miter;stroke-miterlimit:4;stroke-opacity:1;stroke-dasharray:none" /><path
             d="M 4818.9,3996.21 0,3996.21"
             inkscape:connector-curvature="0"
             id="path26"
             style="fill:none;stroke:#231f20;stroke-width:2;stroke-linecap:butt;stroke-linejoin:miter;stroke-miterlimit:4;stroke-opacity:1;stroke-dasharray:none" /><g
             transform="scale(10,10)"
             id="g28"><text
               transform="matrix(1,0,0,-1,68.5418,66.652)"
               id="text30"><tspan
                 x="0 7 14 21"
                 y="0"
                 id="tspan32"
                 style="font-size:7px;font-variant:normal;writing-mode:lr-tb;fill:#231f20;fill-opacity:1;fill-rule:nonzero;stroke:none;font-family:TakaoPGothic;-inkscape-font-specification:TakaoPGothic-90ms-RKSJ-H">応用例 </tspan></text>
<text
               transform="matrix(1,0,0,-1,93.0418,66.652)"
               id="text34"><tspan
                 x="0"
                 y="0"
                 id="tspan36"
                 style="font-size:7px;font-variant:normal;font-weight:normal;writing-mode:lr-tb;fill:#231f20;fill-opacity:1;fill-rule:nonzero;stroke:none;font-family:Helvetica;-inkscape-font-specification:Helvetica">3</tspan></text>
<text
               transform="matrix(1,0,0,-1,213.1848,66.653172)"
               id="text38"><tspan
                 x="0 7"
                 y="0"
                 id="tspan40"
                 style="font-size:7px;font-variant:normal;writing-mode:lr-tb;fill:#231f20;fill-opacity:1;fill-rule:nonzero;stroke:none;font-family:TakaoPGothic;-inkscape-font-specification:TakaoPGothic-90ms-RKSJ-H">矢印</tspan><tspan
                 x="0 7 14 21"
                 y="-189.94501"
                 id="tspan42"
                 style="font-size:7px;font-variant:normal;writing-mode:lr-tb;fill:#231f20;fill-opacity:1;fill-rule:nonzero;stroke:none;font-family:TakaoPGothic;-inkscape-font-specification:TakaoPGothic-90ms-RKSJ-H">応用例 </tspan></text>
<text
               transform="matrix(1,0,0,-1,237.6848,256.59817)"
               id="text44"><tspan
                 x="0"
                 y="0"
                 id="tspan46"
                 style="font-size:7px;font-variant:normal;font-weight:normal;writing-mode:lr-tb;fill:#231f20;fill-opacity:1;fill-rule:nonzero;stroke:none;font-family:Helvetica;-inkscape-font-specification:Helvetica">1</tspan></text>
<text
               transform="matrix(1,0,0,-1,357.7138,256.59817)"
               id="text48"><tspan
                 x="0 7 14"
                 y="0"
                 id="tspan50"
                 style="font-size:7px;font-variant:normal;writing-mode:lr-tb;fill:#231f20;fill-opacity:1;fill-rule:nonzero;stroke:none;font-family:TakaoPGothic;-inkscape-font-specification:TakaoPGothic-90ms-RKSJ-H">応用例</tspan></text>
<text
               transform="matrix(1,0,0,-1,380.6598,256.59817)"
               id="text52"><tspan
                 x="0"
                 y="0"
                 id="tspan54"
                 style="font-size:7px;font-variant:normal;font-weight:normal;writing-mode:lr-tb;fill:#231f20;fill-opacity:1;fill-rule:nonzero;stroke:none;font-family:Helvetica;-inkscape-font-specification:Helvetica">2</tspan><tspan
                 x="-312.11801 -308.33801 -304.16602 -301.55499 -299.72101 -295.54901 -291.37701 -289.15121 -286.92502 -167.4742 -162.14021 -160.30621 -157.69522 -153.52322 -149.74323 -147.51723 -145.68323 -141.51134 -137.33934 -133.16721 -131.33322 -129.10744 -124.93543 -122.32443 -119.71343 -115.54144 -110.20743"
                 y="198.44901"
                 id="tspan56"
                 style="font-size:7px;font-variant:normal;font-weight:normal;writing-mode:lr-tb;fill:#231f20;fill-opacity:1;fill-rule:nonzero;stroke:none;font-family:Helvetica;-inkscape-font-specification:Helvetica">variant 3Directional arrow </tspan><tspan
                 x="-167.47423 -163.69423 -159.52223 -156.91124 -155.07724 -150.90523 -146.73323 -144.50743 -142.28125"
                 y="8.5039997"
                 id="tspan58"
                 style="font-size:7px;font-variant:normal;font-weight:normal;writing-mode:lr-tb;fill:#231f20;fill-opacity:1;fill-rule:nonzero;stroke:none;font-family:Helvetica;-inkscape-font-specification:Helvetica">variant 1</tspan></text>
<text
               transform="matrix(1,0,0,-1,328.68557,66.098172)"
               id="text60"><tspan
                 x="0 7 14 21"
                 y="0"
                 id="tspan62"
                 style="font-size:7px;font-variant:normal;writing-mode:lr-tb;fill:#231f20;fill-opacity:1;fill-rule:nonzero;stroke:none;font-family:TakaoPGothic;-inkscape-font-specification:TakaoPGothic-90ms-RKSJ-H">応用例 </tspan></text>
<text
               transform="matrix(1,0,0,-1,328.68557,57.594262)"
               id="text64"><tspan
                 x="0 3.779999 7.9519982 10.562997 12.396996 16.568995 20.740993 22.966801"
                 y="0"
                 id="tspan66"
                 style="font-size:7px;font-variant:normal;font-weight:normal;writing-mode:lr-tb;fill:#231f20;fill-opacity:1;fill-rule:nonzero;stroke:none;font-family:Helvetica;-inkscape-font-specification:Helvetica">variants</tspan><tspan
                 x="29.02891 32.80891 36.980907 39.591908 41.425907 45.597904 49.769905 51.994911 54.220894"
                 y="-190.5"
                 id="tspan68"
                 style="font-size:7px;font-variant:normal;font-weight:normal;writing-mode:lr-tb;fill:#231f20;fill-opacity:1;fill-rule:nonzero;stroke:none;font-family:Helvetica;-inkscape-font-specification:Helvetica">variant 2</tspan></text>
</g><path
             d="M 4818.9,340.152 4818.9,0"
             inkscape:connector-curvature="0"
             id="path70"
             style="fill:none;stroke:#231f20;stroke-width:2;stroke-linecap:butt;stroke-linejoin:miter;stroke-miterlimit:4;stroke-opacity:1;stroke-dasharray:none" /><g
             transform="scale(10,10)"
             id="g72"><text
               transform="matrix(1,0,0,-1,296.987,81.7898)"
               id="text74"><tspan
                 x="0"
                 y="0"
                 id="tspan76"
                 style="font-size:7px;font-variant:normal;writing-mode:lr-tb;fill:#231f20;fill-opacity:1;fill-rule:nonzero;stroke:none;font-family:TakaoPGothic;-inkscape-font-specification:TakaoPGothic-90ms-RKSJ-H">※</tspan></text>
</g><path
             d="m 2474.93,1717.8 207.07,0 -330.94,-330.91 703.07,0 0,-165.42 -703.07,0 330.94,-330.919 -207.07,0 -413.65,413.579 413.65,413.67"
             inkscape:connector-curvature="0"
             id="path78"
             style="fill:#231f20;fill-opacity:1;fill-rule:nonzero;stroke:none" /><path
             d="m 4203.57,1686.88 66.27,0 -105.9,-105.9 224.97,0 0,-52.93 -224.97,0 105.9,-105.89 -66.27,0 -132.37,132.34 132.37,132.38"
             inkscape:connector-curvature="0"
             id="path80"
             style="fill:#231f20;fill-opacity:1;fill-rule:nonzero;stroke:none" /><path
             d="m 4120.84,1076.73 46.86,46.86 -0.01,-149.758 159.08,159.078 37.43,-37.43 -159.08,-159.078 149.76,0 -46.86,-46.863 -187.17,-0.008 -0.01,187.199"
             inkscape:connector-curvature="0"
             id="path82"
             style="fill:#231f20;fill-opacity:1;fill-rule:nonzero;stroke:none" /><path
             d="m 3706.57,1528.02 0,66.28 105.9,-105.9 -0.01,224.97 52.94,0 0,-224.98 105.89,105.9 0,-66.27 -132.34,-132.36 -132.38,132.36"
             inkscape:connector-curvature="0"
             id="path84"
             style="fill:#231f20;fill-opacity:1;fill-rule:nonzero;stroke:none" /><path
             d="m 4584.05,889.539 -46.86,46.871 149.76,-0.008 -159.08,159.078 37.43,37.43 159.08,-159.078 0,149.758 46.86,-46.86 0.01,-187.171 -187.2,-0.02"
             inkscape:connector-curvature="0"
             id="path86"
             style="fill:#231f20;fill-opacity:1;fill-rule:nonzero;stroke:none" /><path
             d="m 4688.23,1422.16 -66.27,0 105.9,105.89 -224.97,0 0,52.93 224.97,0 -105.9,105.9 66.27,-0.01 132.36,-132.34 -132.36,-132.37"
             inkscape:connector-curvature="0"
             id="path88"
             style="fill:#231f20;fill-opacity:1;fill-rule:nonzero;stroke:none" /><path
             d="m 3959.25,945.711 -46.87,-46.859 0.01,149.768 -159.08,-159.089 -37.43,37.43 159.08,159.079 -149.76,0 46.86,46.86 187.17,0.01 0.02,-187.199"
             inkscape:connector-curvature="0"
             id="path90"
             style="fill:#231f20;fill-opacity:1;fill-rule:nonzero;stroke:none" /><path
             d="m 3568.21,1581.01 0,-66.27 -105.89,105.9 0,-224.98 -52.93,0 0,224.98 -105.9,-105.9 0,66.27 132.34,132.36 132.38,-132.36"
             inkscape:connector-curvature="0"
             id="path92"
             style="fill:#231f20;fill-opacity:1;fill-rule:nonzero;stroke:none" /><path
             d="m 3501.03,1132.91 46.86,-46.86 -149.76,0 159.08,-159.081 -37.42,-37.43 -159.08,159.081 0,-149.761 -46.86,46.86 -0.01,187.181 187.19,0.01"
             inkscape:connector-curvature="0"
             id="path94"
             style="fill:#231f20;fill-opacity:1;fill-rule:nonzero;stroke:none" /><g
             transform="scale(10,10)"
             id="g96"><text
               transform="matrix(1,0,0,-1,483.307,29.7629)"
               id="text98"><tspan
                 x="0 3.336"
                 y="0"
                 id="tspan100"
                 style="font-size:6px;font-variant:normal;font-weight:normal;writing-mode:lr-tb;fill:#231f20;fill-opacity:1;fill-rule:nonzero;stroke:none;font-family:Helvetica;-inkscape-font-specification:Helvetica">19</tspan></text>
<text
               transform="matrix(1,0,0,-1,68.618,256.5739)"
               id="text102"><tspan
                 x="0 7 14 20.720312"
                 y="0"
                 id="tspan104"
                 style="font-size:7px;font-variant:normal;writing-mode:lr-tb;fill:#231f20;fill-opacity:1;fill-rule:nonzero;stroke:none;font-family:TakaoPGothic;-inkscape-font-specification:TakaoPGothic-90ms-RKSJ-H">二列並び</tspan></text>
<text
               transform="matrix(1,0,0,-1,68.618,248.06999)"
               id="text106"><tspan
                 x="0 4.1718798 6.0058789 10.17813 14.350007 16.57579 20.747789 24.91993 27.146099 28.980099 33.151569 35.377747 37.603519 42.937519 47.109772"
                 y="0"
                 id="tspan108"
                 style="font-size:7px;font-variant:normal;font-weight:normal;writing-mode:lr-tb;fill:#231f20;fill-opacity:1;fill-rule:nonzero;stroke:none;font-family:Helvetica;-inkscape-font-specification:Helvetica">Line up in twos</tspan></text>
<text
               transform="matrix(1,0,0,-1,10.09777,371.29899)"
               id="text110"><tspan
                 x="0"
                 y="0"
                 id="tspan112"
                 style="font-size:12px;font-variant:normal;font-weight:normal;writing-mode:lr-tb;fill:#231f20;fill-opacity:1;fill-rule:nonzero;stroke:none;font-family:Helvetica;-inkscape-font-specification:Helvetica">B</tspan></text>
<text
               transform="matrix(1,0,0,-1,1.34621,385.04199)"
               id="text114"><tspan
                 x="0 8 16"
                 y="0"
                 id="tspan116"
                 style="font-size:8px;font-variant:normal;writing-mode:lr-tb;fill:#231f20;fill-opacity:1;fill-rule:nonzero;stroke:none;font-family:TakaoPGothic;-inkscape-font-specification:TakaoPGothic-90ms-RKSJ-H">推奨度</tspan></text>
</g><path
             d="m 1120.31,2676.21 c -290.384,0 -525.81,235.44 -525.81,525.83 0,290.4 235.426,525.83 525.81,525.83 290.42,0 525.84,-235.43 525.84,-525.83 0,-290.39 -235.42,-525.83 -525.84,-525.83"
             inkscape:connector-curvature="0"
             id="path118"
             style="fill:#0e88d3;fill-opacity:1;fill-rule:nonzero;stroke:none" /><path
             d="m 1163.84,3515.7 c 0.01,0.31 0.09,0.6 0.09,0.91 0,22.33 -18.1,40.43 -40.43,40.43 -22.34,0 -40.44,-18.1 -40.44,-40.43 0,-22.34 18.1,-40.44 40.44,-40.44 1.81,0 3.52,0.31 5.27,0.53 0.45,20.11 15.56,36.44 35.07,39"
             inkscape:connector-curvature="0"
             id="path120"
             style="fill:#ffffff;fill-opacity:1;fill-rule:nonzero;stroke:none" /><path
             d="m 1257.43,2847.94 -16.72,238.66 -27.6,0 -7.69,146.37 c -2.21,31.28 19.98,59.54 51.52,64.21 16,2.38 32.36,3.64 49.02,3.64 16.65,0 33.02,-1.26 49.02,-3.64 31.54,-4.67 53.73,-32.93 51.52,-64.21 l -7.69,-146.37 -27.6,0 -16.73,-238.66 -97.05,0"
             inkscape:connector-curvature="0"
             id="path122"
             style="fill:#ffffff;fill-opacity:1;fill-rule:nonzero;stroke:none" /><path
             d="m 942.625,3515.7 c 0.004,0.31 0.086,0.6 0.086,0.91 0,22.33 -18.106,40.43 -40.434,40.43 -22.328,0 -40.433,-18.1 -40.433,-40.43 0,-22.34 18.105,-40.44 40.433,-40.44 1.809,0 3.532,0.31 5.274,0.53 0.449,20.11 15.558,36.44 35.074,39"
             inkscape:connector-curvature="0"
             id="path124"
             style="fill:#ffffff;fill-opacity:1;fill-rule:nonzero;stroke:none" /><path
             d="m 855.051,3209.02 -7.699,146.37 c -2.207,31.28 19.98,59.54 51.523,64.22 15.996,2.36 32.363,3.62 49.02,3.62 2.421,0 4.793,-0.21 7.207,-0.26 5.144,-16.42 20.296,-28.41 38.406,-28.41 1.808,0 3.531,0.3 5.273,0.53 0.449,20.11 15.559,36.43 35.069,39 1.73,0.26 3.47,0.53 5.27,0.53 22.23,0 40.23,-17.93 40.41,-40.11 9.2,13.09 23.49,22.56 40.57,25.1 15.99,2.36 32.36,3.62 49.01,3.62 2.43,0 4.8,-0.21 7.21,-0.26 5.15,-16.42 20.29,-28.41 38.41,-28.41 1.8,0 3.52,0.3 5.27,0.53 0.45,20.11 15.56,36.44 35.07,39 0.01,0.31 0.09,0.59 0.09,0.9 0,22.33 -18.1,40.44 -40.43,40.44 -22,0 -39.82,-17.6 -40.34,-39.48 -1.75,-0.23 -3.46,-0.59 -5.28,-0.59 -18.11,0 -33.26,12 -38.4,28.41 -2.42,0.06 -4.79,0.27 -7.21,0.27 -16.66,0 -33.02,-1.25 -49.02,-3.63 -17.08,-2.53 -31.36,-12.02 -40.57,-25.12 -0.16,22.19 -18.18,40.14 -40.402,40.14 -22,0 -39.813,-17.6 -40.336,-39.48 -1.75,-0.23 -3.461,-0.59 -5.277,-0.59 -18.114,0 -33.262,12 -38.411,28.41 -2.41,0.06 -4.781,0.27 -7.207,0.27 -16.652,0 -33.023,-1.25 -49.019,-3.63 -31.543,-4.68 -53.731,-32.94 -51.524,-64.22 l 7.696,-146.36 27.597,0 16.731,-238.67 42.754,0 -13.867,197.86 -27.594,0"
             inkscape:connector-curvature="0"
             id="path126"
             style="fill:#ffffff;fill-opacity:1;fill-rule:nonzero;stroke:none" /><path
             d="m 1305.96,3393.82 c -22,0 -39.82,-17.61 -40.34,-39.48 -1.75,-0.24 -3.46,-0.59 -5.28,-0.59 -18.11,0 -33.26,11.99 -38.4,28.41 -2.42,0.05 -4.79,0.27 -7.21,0.27 -16.66,0 -33.02,-1.26 -49.02,-3.63 -17.07,-2.53 -31.36,-12.01 -40.57,-25.1 -0.17,22.18 -18.18,40.12 -40.4,40.12 -22,0 -39.82,-17.6 -40.34,-39.48 -1.75,-0.24 -3.46,-0.59 -5.28,-0.59 -18.11,0 -33.26,11.99 -38.4,28.41 -2.415,0.05 -4.786,0.27 -7.212,0.27 -16.656,0 -33.024,-1.26 -49.02,-3.63 -31.543,-4.68 -53.73,-32.94 -51.523,-64.22 l 7.703,-146.37 27.59,0 16.73,-238.66 42.754,0 -13.867,197.85 -27.598,0 -7.695,146.38 c -2.207,31.28 19.98,59.53 51.523,64.21 15.995,2.37 32.365,3.63 49.015,3.63 2.43,0 4.8,-0.22 7.21,-0.27 5.15,-16.42 20.3,-28.4 38.41,-28.4 11.82,0 22.35,5.15 29.74,13.23 -0.46,-3.79 -0.57,-7.67 -0.29,-11.6 l 0.8,-15.31 c -9.98,0.92 -20.04,1.55 -30.25,1.55 -16.66,0 -33.02,-1.26 -49.02,-3.64 -31.54,-4.67 -53.732,-32.93 -51.525,-64.21 l 7.696,-146.37 27.599,0 16.73,-238.66 97.04,0 16.73,238.66 27.6,0 7.69,146.37 c 1.51,21.44 -8.44,41.46 -25.01,53.44 3.62,25.94 23.84,47.55 51.06,51.58 15.99,2.37 32.36,3.63 49.01,3.63 2.43,0 4.8,-0.22 7.21,-0.27 5.15,-16.42 20.29,-28.4 38.41,-28.4 22.33,0 40.43,18.1 40.43,40.43 0,22.33 -18.1,40.44 -40.43,40.44"
             inkscape:connector-curvature="0"
             id="path128"
             style="fill:#ffffff;fill-opacity:1;fill-rule:nonzero;stroke:none" /><path
             d="m 4011.77,2676.2 c -290.4,0 -525.83,235.45 -525.83,525.84 0,290.4 235.43,525.83 525.83,525.83 290.4,0 525.83,-235.43 525.83,-525.83 0,-290.39 -235.43,-525.84 -525.83,-525.84"
             inkscape:connector-curvature="0"
             id="path130"
             style="fill:#0e88d3;fill-opacity:1;fill-rule:nonzero;stroke:none" /><path
             d="m 4230.41,3466.78 c 0,0.31 0.09,0.6 0.09,0.91 0,22.33 -18.1,40.44 -40.44,40.44 -22.33,0 -40.43,-18.11 -40.43,-40.44 0,-22.33 18.1,-40.44 40.43,-40.44 1.81,0 3.53,0.31 5.27,0.54 0.45,20.1 15.56,36.43 35.08,38.99"
             inkscape:connector-curvature="0"
             id="path132"
             style="fill:#ffffff;fill-opacity:1;fill-rule:nonzero;stroke:none" /><path
             d="m 3787.97,3466.78 c 0.01,0.31 0.09,0.6 0.09,0.91 0,22.33 -18.11,40.44 -40.44,40.44 -22.32,0 -40.43,-18.11 -40.43,-40.44 0,-22.33 18.11,-40.44 40.43,-40.44 1.81,0 3.53,0.31 5.28,0.54 0.45,20.1 15.55,36.43 35.07,38.99"
             inkscape:connector-curvature="0"
             id="path134"
             style="fill:#ffffff;fill-opacity:1;fill-rule:nonzero;stroke:none" /><path
             d="m 4009.19,3466.78 c 0,0.31 0.08,0.6 0.08,0.91 0,22.33 -18.1,40.44 -40.42,40.44 -22.34,0 -40.44,-18.11 -40.44,-40.44 0,-22.33 18.1,-40.44 40.44,-40.44 1.8,0 3.52,0.31 5.26,0.54 0.46,20.1 15.56,36.43 35.08,38.99"
             inkscape:connector-curvature="0"
             id="path136"
             style="fill:#ffffff;fill-opacity:1;fill-rule:nonzero;stroke:none" /><path
             d="m 4232.77,2880.64 -16.73,238.65 -27.6,0 -7.69,146.38 c -2.21,31.28 19.98,59.54 51.53,64.21 15.99,2.37 32.36,3.63 49.02,3.63 16.65,0 33.01,-1.26 49.01,-3.63 31.54,-4.67 53.74,-32.93 51.52,-64.21 l -7.69,-146.38 -27.59,0 -16.73,-238.65 -97.05,0"
             inkscape:connector-curvature="0"
             id="path138"
             style="fill:#ffffff;fill-opacity:1;fill-rule:nonzero;stroke:none" /><path
             d="m 4281.3,3426.51 c -22.01,0 -39.82,-17.6 -40.35,-39.48 -1.74,-0.23 -3.46,-0.58 -5.27,-0.58 -18.11,0 -33.27,11.98 -38.41,28.41 -2.41,0.04 -4.78,0.26 -7.21,0.26 -16.65,0 -33.02,-1.26 -49.02,-3.62 -17.07,-2.53 -31.35,-12.01 -40.56,-25.1 -0.18,22.18 -18.18,40.11 -40.4,40.11 -22.01,0 -39.82,-17.6 -40.34,-39.48 -1.75,-0.23 -3.46,-0.58 -5.28,-0.58 -18.11,0 -33.26,11.98 -38.41,28.41 -2.41,0.04 -4.78,0.26 -7.2,0.26 -16.66,0 -33.03,-1.26 -49.02,-3.62 -17.08,-2.53 -31.37,-12.01 -40.57,-25.1 -0.18,22.18 -18.18,40.11 -40.41,40.11 -22,0 -39.81,-17.6 -40.33,-39.48 -1.75,-0.23 -3.46,-0.58 -5.28,-0.58 -18.11,0 -33.26,11.98 -38.41,28.41 -2.41,0.04 -4.78,0.26 -7.21,0.26 -16.65,0 -33.02,-1.26 -49.01,-3.62 -31.55,-4.68 -53.73,-32.94 -51.52,-64.22 l 7.69,-146.37 27.6,0 16.72,-238.66 42.76,0 -13.87,197.85 -27.6,0 -7.69,146.37 c -2.21,31.28 19.98,59.54 51.52,64.22 16,2.36 32.36,3.63 49.02,3.63 2.43,0 4.79,-0.22 7.21,-0.27 5.14,-16.42 20.29,-28.41 38.4,-28.41 11.82,0 22.35,5.16 29.75,13.24 -0.46,-3.8 -0.58,-7.67 -0.3,-11.6 l 0.81,-15.31 c -9.98,0.92 -20.04,1.54 -30.26,1.54 -16.65,0 -33.02,-1.26 -49.01,-3.63 -31.55,-4.67 -53.73,-32.93 -51.53,-64.21 l 7.7,-146.38 27.6,0 16.72,-238.65 97.05,0 16.72,238.65 27.6,0 7.7,146.38 c 1.51,21.44 -8.45,41.45 -25.01,53.43 3.62,25.95 23.83,47.55 51.05,51.59 16,2.36 32.37,3.63 49.02,3.63 2.42,0 4.8,-0.22 7.21,-0.27 5.14,-16.42 20.29,-28.41 38.41,-28.41 11.81,0 22.34,5.16 29.74,13.24 -0.46,-3.8 -0.57,-7.67 -0.3,-11.6 l 0.81,-15.31 c -9.98,0.92 -20.04,1.54 -30.25,1.54 -16.66,0 -33.03,-1.26 -49.02,-3.63 -31.55,-4.67 -53.74,-32.93 -51.53,-64.21 l 7.7,-146.38 27.6,0 16.72,-238.65 97.05,0 16.72,238.65 27.6,0 7.7,146.38 c 1.51,21.44 -8.44,41.45 -25.02,53.43 3.63,25.95 23.84,47.55 51.06,51.59 16,2.36 32.36,3.63 49.02,3.63 2.42,0 4.79,-0.22 7.21,-0.27 5.14,-16.42 20.29,-28.41 38.41,-28.41 22.33,0 40.43,18.11 40.43,40.44 0,22.33 -18.1,40.43 -40.43,40.43"
             inkscape:connector-curvature="0"
             id="path140"
             style="fill:#ffffff;fill-opacity:1;fill-rule:nonzero;stroke:none" /><path
             d="m 1116.97,777.898 c -290.392,0 -525.822,235.452 -525.822,525.842 0,290.4 235.43,525.83 525.822,525.83 290.41,0 525.83,-235.43 525.83,-525.83 0,-290.39 -235.42,-525.842 -525.83,-525.842"
             inkscape:connector-curvature="0"
             id="path142"
             style="fill:#0e88d3;fill-opacity:1;fill-rule:nonzero;stroke:none" /><path
             d="m 1385.36,1515.29 c 0.68,2.64 1.16,5.35 1.16,8.19 0,18.11 -14.69,32.8 -32.81,32.8 -18.12,0 -32.8,-14.69 -32.8,-32.8 0,-18.12 14.68,-32.81 32.8,-32.81 3.02,0 5.89,0.54 8.67,1.3 2.93,11.34 11.71,20.22 22.98,23.32"
             inkscape:connector-curvature="0"
             id="path144"
             style="fill:#ffffff;fill-opacity:1;fill-rule:nonzero;stroke:none" /><path
             d="m 1199.14,1515.29 c 0.68,2.64 1.16,5.35 1.16,8.19 0,18.11 -14.7,32.8 -32.81,32.8 -18.12,0 -32.8,-14.69 -32.8,-32.8 0,-18.12 14.68,-32.81 32.8,-32.81 3.02,0 5.89,0.54 8.66,1.3 2.93,11.34 11.72,20.22 22.99,23.32"
             inkscape:connector-curvature="0"
             id="path146"
             style="fill:#ffffff;fill-opacity:1;fill-rule:nonzero;stroke:none" /><path
             d="m 1012.92,1515.29 c 0.68,2.64 1.15,5.35 1.15,8.19 0,18.11 -14.687,32.8 -32.804,32.8 -18.118,0 -32.801,-14.69 -32.801,-32.8 0,-18.12 14.683,-32.81 32.801,-32.81 3.023,0 5.894,0.54 8.672,1.31 2.929,11.34 11.712,20.21 22.982,23.31"
             inkscape:connector-curvature="0"
             id="path148"
             style="fill:#ffffff;fill-opacity:1;fill-rule:nonzero;stroke:none" /><path
             d="m 826.695,1515.29 c 0.68,2.64 1.153,5.35 1.153,8.19 0,18.11 -14.688,32.8 -32.805,32.8 -18.117,0 -32.805,-14.69 -32.805,-32.8 0,-18.12 14.688,-32.81 32.805,-32.81 3.019,0 5.891,0.54 8.672,1.3 2.93,11.34 11.711,20.22 22.98,23.32"
             inkscape:connector-curvature="0"
             id="path150"
             style="fill:#ffffff;fill-opacity:1;fill-rule:nonzero;stroke:none" /><path
             d="m 1394.98,1034.05 -13.56,193.62 -22.39,0 -6.25,118.75 c -1.79,25.38 16.21,48.3 41.8,52.1 12.98,1.92 26.26,2.94 39.77,2.94 13.51,0 26.79,-1.02 39.77,-2.94 25.59,-3.8 43.59,-26.72 41.8,-52.1 l -6.24,-118.75 -22.39,0 -13.57,-193.62 -78.74,0"
             inkscape:connector-curvature="0"
             id="path152"
             style="fill:#ffffff;fill-opacity:1;fill-rule:nonzero;stroke:none" /><path
             d="m 1434.35,1476.92 c -15.29,0 -28.02,-10.51 -31.66,-24.67 -2.77,-0.76 -5.64,-1.26 -8.66,-1.26 -17,0 -30.82,12.99 -32.47,29.55 -2.63,0.08 -5.21,0.29 -7.85,0.29 -13.51,0 -26.79,-1.02 -39.77,-2.94 -15.15,-2.25 -27.51,-11.29 -34.81,-23.5 -4.33,13.05 -16.5,22.53 -31,22.53 -15.29,0 -28.03,-10.51 -31.66,-24.67 -2.77,-0.76 -5.65,-1.26 -8.66,-1.26 -17,0 -30.82,12.99 -32.48,29.55 -2.62,0.08 -5.2,0.29 -7.84,0.29 -13.52,0 -26.79,-1.02 -39.77,-2.94 -15.15,-2.25 -27.52,-11.29 -34.81,-23.49 -4.34,13.04 -16.5,22.52 -31,22.52 -15.29,0 -28.03,-10.51 -31.66,-24.66 -2.77,-0.77 -5.65,-1.27 -8.67,-1.27 -16.99,0 -30.81,12.99 -32.467,29.55 -2.621,0.08 -5.211,0.29 -7.847,0.29 -13.516,0 -26.789,-1.02 -39.766,-2.94 -15.156,-2.25 -27.52,-11.29 -34.816,-23.49 -4.332,13.04 -16.496,22.52 -30.996,22.52 -15.29,0 -28.028,-10.51 -31.668,-24.67 -2.762,-0.76 -5.637,-1.26 -8.657,-1.26 -16.996,0 -30.816,12.99 -32.476,29.55 -2.621,0.08 -5.203,0.29 -7.844,0.29 -13.512,0 -26.789,-1.02 -39.766,-2.94 -25.593,-3.8 -43.593,-26.73 -41.797,-52.1 l 6.239,-118.75 22.394,0 13.563,-193.62 37.543,0 -10.789,153.94 -22.387,0 -6.246,118.75 c -1.797,25.37 16.211,48.3 41.801,52.09 12.98,1.92 26.254,2.95 39.765,2.95 2.641,0 5.227,-0.22 7.848,-0.29 1.656,-16.57 15.473,-29.55 32.477,-29.55 9.628,0 18.203,4.22 24.203,10.83 l 1.156,-22.02 c -8.363,0.79 -16.793,1.34 -25.359,1.34 -13.512,0 -26.793,-1.02 -39.766,-2.94 -25.598,-3.8 -43.594,-26.72 -41.805,-52.1 l 6.246,-118.75 22.383,0 13.574,-193.62 78.731,0 13.57,193.62 22.387,0 6.246,118.75 c 1.133,16.01 -5.641,31.02 -17.203,40.89 -1.141,24.89 16.594,47.16 41.769,50.89 12.977,1.92 26.25,2.95 39.76,2.95 2.65,0 5.23,-0.22 7.85,-0.29 1.66,-16.57 15.47,-29.55 32.48,-29.55 9.63,0 18.2,4.22 24.2,10.83 l 1.16,-22.02 c -8.36,0.79 -16.79,1.34 -25.36,1.34 -13.52,0 -26.8,-1.02 -39.77,-2.94 -25.589,-3.8 -43.597,-26.72 -41.8,-52.1 l 6.246,-118.75 22.384,0 13.57,-193.62 78.74,0 13.57,193.62 22.38,0 6.24,118.75 c 1.14,16.01 -5.64,31.02 -17.2,40.89 -1.14,24.89 16.59,47.16 41.77,50.89 12.98,1.92 26.25,2.95 39.77,2.95 2.64,0 5.22,-0.22 7.84,-0.29 1.66,-16.57 15.48,-29.55 32.48,-29.55 9.63,0 18.2,4.22 24.2,10.83 l 1.16,-22.02 c -8.36,0.79 -16.79,1.34 -25.36,1.34 -13.51,0 -26.79,-1.02 -39.77,-2.94 -25.59,-3.8 -43.59,-26.72 -41.8,-52.1 l 6.25,-118.75 22.38,0 13.57,-193.62 78.74,0 13.57,193.62 22.38,0 6.24,118.75 c 1.14,16.01 -5.63,31.02 -17.2,40.89 -1.14,24.89 16.59,47.16 41.77,50.89 12.98,1.92 26.26,2.95 39.77,2.95 2.64,0 5.23,-0.22 7.84,-0.29 1.66,-16.57 15.48,-29.55 32.48,-29.55 18.12,0 32.81,14.68 32.81,32.8 0,18.12 -14.69,32.81 -32.81,32.81"
             inkscape:connector-curvature="0"
             id="path154"
             style="fill:#ffffff;fill-opacity:1;fill-rule:nonzero;stroke:none" /><path
             d="m 2561.35,2676.21 c -290.4,0 -525.82,235.44 -525.82,525.84 0,290.4 235.42,525.82 525.82,525.82 290.41,0 525.83,-235.42 525.83,-525.82 0,-290.4 -235.42,-525.84 -525.83,-525.84"
             inkscape:connector-curvature="0"
             id="path156"
             style="fill:#0e88d3;fill-opacity:1;fill-rule:nonzero;stroke:none" /><path
             d="m 2476.51,3562.89 c 0.01,0.37 0.1,0.72 0.1,1.09 0,25.67 -20.81,46.48 -46.48,46.48 -25.66,0 -46.48,-20.81 -46.48,-46.48 0,-25.68 20.82,-46.48 46.48,-46.48 2.1,0 4.09,0.34 6.11,0.61 0.54,23.08 17.87,41.81 40.27,44.78"
             inkscape:connector-curvature="0"
             id="path158"
             style="fill:#ffffff;fill-opacity:1;fill-rule:nonzero;stroke:none" /><path
             d="m 2535.07,3516.58 c -25.37,0 -45.9,-20.34 -46.39,-45.59 -1.99,-0.26 -4,-0.44 -6.07,-0.44 -20.84,0 -38.26,13.8 -44.16,32.69 -2.78,0.06 -5.52,0.31 -8.32,0.31 -19.14,0 -37.95,-1.44 -56.34,-4.17 -36.26,-5.37 -61.77,-37.86 -59.23,-73.82 l 8.85,-168.25 31.72,0 19.23,-274.34 49.18,0 -15.94,227.39 -31.71,0 -8.85,168.26 c -2.54,35.95 22.97,68.44 59.22,73.81 18.39,2.73 37.2,4.17 56.35,4.17 2.79,0 5.52,-0.25 8.3,-0.3 5.91,-18.89 23.33,-32.68 44.16,-32.68 2.08,0 4.05,0.35 6.06,0.61 0.52,23.12 17.88,41.88 40.32,44.83 0,0.36 0.1,0.68 0.1,1.04 0,25.67 -20.81,46.48 -46.48,46.48"
             inkscape:connector-curvature="0"
             id="path160"
             style="fill:#ffffff;fill-opacity:1;fill-rule:nonzero;stroke:none" /><path
             d="m 2584.19,2795.26 -19.23,274.34 -31.72,0 -8.85,168.25 c -2.54,35.96 22.97,68.45 59.23,73.82 18.38,2.73 37.2,4.18 56.34,4.18 19.15,0 37.96,-1.45 56.35,-4.18 36.26,-5.37 61.77,-37.86 59.23,-73.82 l -8.85,-168.25 -31.72,0 -19.23,-274.34 -111.55,0"
             inkscape:connector-curvature="0"
             id="path162"
             style="fill:#ffffff;fill-opacity:1;fill-rule:nonzero;stroke:none" /><path
             d="m 2639.96,3422.75 c -25.36,0 -45.9,-20.35 -46.38,-45.59 -1.99,-0.27 -4.01,-0.45 -6.07,-0.45 -20.82,0 -38.24,13.78 -44.16,32.66 -2.77,0.06 -5.5,0.3 -8.28,0.3 -19.14,0 -37.96,-1.44 -56.35,-4.17 -36.26,-5.37 -61.76,-37.86 -59.22,-73.81 l 8.84,-168.26 31.73,0 19.22,-274.34 49.15,0 -15.94,227.44 -31.72,0 -8.84,168.25 c -2.55,35.95 22.96,68.44 59.21,73.82 18.4,2.72 37.21,4.17 56.36,4.17 2.79,0 5.52,-0.25 8.3,-0.31 5.91,-18.88 23.32,-32.67 44.15,-32.67 25.67,0 46.48,20.8 46.48,46.48 0,25.67 -20.81,46.48 -46.48,46.48"
             inkscape:connector-curvature="0"
             id="path164"
             style="fill:#ffffff;fill-opacity:1;fill-rule:nonzero;stroke:none" /><g
             transform="scale(10,10)"
             id="g166"><text
               transform="matrix(1,0,0,-1,250.575,256.376)"
               id="text168"><tspan
                 x="0 7 14 20.719921"
                 y="0"
                 id="tspan170"
                 style="font-size:7px;font-variant:normal;writing-mode:lr-tb;fill:#231f20;fill-opacity:1;fill-rule:nonzero;stroke:none;font-family:TakaoPGothic;-inkscape-font-specification:TakaoPGothic-90ms-RKSJ-H">一列並び</tspan></text>
</g><path
             d="m 2489.52,2634.76 c -27.22,-16 -46.05,-50.33 -46.05,-90.1 0,-39.17 18.27,-73.06 44.83,-89.36"
             inkscape:connector-curvature="0"
             id="path172"
             style="fill:none;stroke:#231f20;stroke-width:4;stroke-linecap:butt;stroke-linejoin:miter;stroke-miterlimit:4;stroke-opacity:1;stroke-dasharray:none" /><path
             d="m 3106.85,2634.76 c 27.22,-16 46.05,-50.33 46.05,-90.1 0,-39.17 -18.26,-73.06 -44.83,-89.36"
             inkscape:connector-curvature="0"
             id="path174"
             style="fill:none;stroke:#231f20;stroke-width:4;stroke-linecap:butt;stroke-linejoin:miter;stroke-miterlimit:4;stroke-opacity:1;stroke-dasharray:none" /><g
             transform="scale(10,10)"
             id="g176"><text
               transform="matrix(1,0,0,-1,250.575,247.872)"
               id="text178"><tspan
                 x="0 4.1718798 6.0058789 10.17813 14.350013 16.57618 20.748178 24.91993 27.146105 30.92618 32.760178 36.932041 41.10392 42.93795 47.110168 49.335957 51.56213 53.396111 55.23008"
                 y="0"
                 id="tspan180"
                 style="font-size:7px;font-variant:normal;font-weight:normal;writing-mode:lr-tb;fill:#231f20;fill-opacity:1;fill-rule:nonzero;stroke:none;font-family:Helvetica;-inkscape-font-specification:Helvetica">Line up single file</tspan></text>
<text
               transform="matrix(1,0,0,-1,106.00911,66.455)"
               id="text182"><tspan
                 x="0 7 14 20.719921"
                 y="0"
                 id="tspan184"
                 style="font-size:7px;font-variant:normal;writing-mode:lr-tb;fill:#231f20;fill-opacity:1;fill-rule:nonzero;stroke:none;font-family:TakaoPGothic;-inkscape-font-specification:TakaoPGothic-90ms-RKSJ-H">四列並び</tspan></text>
</g><path
             d="m 1043.85,735.551 c -27.22,-16.012 -46.045,-50.332 -46.045,-90.102 0,-39.168 18.265,-73.058 44.825,-89.359"
             inkscape:connector-curvature="0"
             id="path186"
             style="fill:none;stroke:#231f20;stroke-width:4;stroke-linecap:butt;stroke-linejoin:miter;stroke-miterlimit:4;stroke-opacity:1;stroke-dasharray:none" /><path
             d="m 1661.18,735.551 c 27.23,-16.012 46.05,-50.332 46.05,-90.102 0,-39.168 -18.26,-73.058 -44.83,-89.359"
             inkscape:connector-curvature="0"
             id="path188"
             style="fill:none;stroke:#231f20;stroke-width:4;stroke-linecap:butt;stroke-linejoin:miter;stroke-miterlimit:4;stroke-opacity:1;stroke-dasharray:none" /><g
             transform="scale(10,10)"
             id="g190"><text
               transform="matrix(1,0,0,-1,106.009,57.9512)"
               id="text192"><tspan
                 x="0 4.1718798 6.0058789 10.17696 14.349221 16.57501 20.747009 24.919149 27.14493 28.97893 33.15118 35.376965 37.603142 41.775013 45.94688 48.558205"
                 y="0"
                 id="tspan194"
                 style="font-size:7px;font-variant:normal;font-weight:normal;writing-mode:lr-tb;fill:#231f20;fill-opacity:1;fill-rule:nonzero;stroke:none;font-family:Helvetica;-inkscape-font-specification:Helvetica">Line up in fours</tspan></text>
<text
               transform="matrix(1,0,0,-1,395.14218,256.3762)"
               id="text196"><tspan
                 x="0 7 14 20.719921"
                 y="0"
                 id="tspan198"
                 style="font-size:7px;font-variant:normal;writing-mode:lr-tb;fill:#231f20;fill-opacity:1;fill-rule:nonzero;stroke:none;font-family:TakaoPGothic;-inkscape-font-specification:TakaoPGothic-90ms-RKSJ-H">三列並び</tspan></text>
</g><path
             d="m 3935.19,2634.76 c -27.22,-16 -46.05,-50.33 -46.05,-90.1 0,-39.17 18.26,-73.06 44.83,-89.36"
             inkscape:connector-curvature="0"
             id="path200"
             style="fill:none;stroke:#231f20;stroke-width:4;stroke-linecap:butt;stroke-linejoin:miter;stroke-miterlimit:4;stroke-opacity:1;stroke-dasharray:none" /><path
             d="m 4552.52,2634.76 c 27.22,-16 46.05,-50.33 46.05,-90.1 0,-39.17 -18.26,-73.06 -44.83,-89.36"
             inkscape:connector-curvature="0"
             id="path202"
             style="fill:none;stroke:#231f20;stroke-width:4;stroke-linecap:butt;stroke-linejoin:miter;stroke-miterlimit:4;stroke-opacity:1;stroke-dasharray:none" /><g
             transform="scale(10,10)"
             id="g204"><text
               transform="matrix(1,0,0,-1,395.142,247.872)"
               id="text206"><tspan
                 x="0 4.1718798 6.0058789 10.17774 14.350014 16.57579 20.747789 24.91993 27.14571 28.97971 33.151958 35.377747 37.60392 41.775803 44.386761 48.558758 52.7309"
                 y="0"
                 id="tspan208"
                 style="font-size:7px;font-variant:normal;font-weight:normal;writing-mode:lr-tb;fill:#231f20;fill-opacity:1;fill-rule:nonzero;stroke:none;font-family:Helvetica;-inkscape-font-specification:Helvetica">Line up in threes</tspan></text>
<text
               transform="matrix(1,0,0,-1,43.9409,785.497)"
               id="text210"><tspan
                 x="0 12 24"
                 y="0"
                 id="tspan212"
                 style="font-size:12px;font-variant:normal;writing-mode:lr-tb;fill:#231f20;fill-opacity:1;fill-rule:nonzero;stroke:none;font-family:TakaoPGothic;-inkscape-font-specification:TakaoPGothic-90ms-RKSJ-H">指示 </tspan></text>
<text
               transform="matrix(1,0,0,-1,79.9409,785.497)"
               id="text214"><tspan
                 x="0 10.4762 17.628197 24.7805 31.932449 39.084461 42.900452 50.052406 54.527409"
                 y="0"
                 id="tspan216"
                 style="font-size:12px;font-variant:normal;font-weight:normal;writing-mode:lr-tb;fill:#231f20;fill-opacity:1;fill-rule:nonzero;stroke:none;font-family:Helvetica;-inkscape-font-specification:Helvetica">Mandatory</tspan></text>
</g><path
             d="m 135.445,7957.38 127.051,0 0,-119.22 -127.051,0 0,119.22 z m 63.528,-100.47 c 18.05,0 31.062,8.96 31.062,23.79 0,9.93 -6.297,17.35 -15.808,19.73 l 0,0.28 c 7.554,2.66 13.011,8.11 13.011,16.65 0,13.29 -11.336,21.26 -28.265,21.26 -16.793,0 -28.266,-7.97 -28.266,-21.26 0,-8.54 5.457,-13.99 13.016,-16.65 l 0,-0.28 c -9.516,-2.38 -15.813,-9.8 -15.813,-19.73 0,-14.83 13.012,-23.79 31.063,-23.79 z m 0,37.5 c 7.273,0 14.832,-3.08 14.832,-12.31 0,-9.24 -7.559,-12.32 -14.832,-12.32 -7.278,0 -14.828,3.08 -14.828,12.32 0,9.23 7.55,12.31 14.828,12.31 z m 0,32.18 c 6.996,0 12.871,-3.36 12.871,-10.91 0,-7.56 -5.875,-10.92 -12.871,-10.92 -6.996,0 -12.871,3.36 -12.871,10.92 0,7.55 5.875,10.91 12.871,10.91"
             inkscape:connector-curvature="0"
             id="path218"
             style="fill:#231f20;fill-opacity:1;fill-rule:nonzero;stroke:none" /><path
             d="m 4818.93,7795.19 -4818.8948438,0"
             inkscape:connector-curvature="0"
             id="path220"
             style="fill:none;stroke:#231f20;stroke-width:2;stroke-linecap:butt;stroke-linejoin:miter;stroke-miterlimit:4;stroke-opacity:1;stroke-dasharray:none" /><g
             transform="scale(10,10)"
             id="g222"><text
               transform="matrix(1,0,0,-1,444.753,785.497)"
               id="text224"><tspan
                 x="0 6.6719999 13.344"
                 y="0"
                 id="tspan226"
                 style="font-size:12px;font-variant:normal;font-weight:normal;writing-mode:lr-tb;fill:#231f20;fill-opacity:1;fill-rule:nonzero;stroke:none;font-family:Helvetica;-inkscape-font-specification:Helvetica">10 </tspan></text>
<text
               transform="matrix(1,0,0,-1,461.4331,785.497)"
               id="text228"><tspan
                 x="0 10.229688"
                 y="0"
                 id="tspan230"
                 style="font-size:11px;font-variant:normal;writing-mode:lr-tb;fill:#231f20;fill-opacity:1;fill-rule:nonzero;stroke:none;font-family:TakaoPGothic;-inkscape-font-specification:TakaoPGothic-90ms-RKSJ-H">項目</tspan></text>
<text
               transform="matrix(1,0,0,-1,68.6221,636.408)"
               id="text232"><tspan
                 x="0 7 14 21 144.528 150.96785 157.40822"
                 y="0"
                 id="tspan234"
                 style="font-size:7px;font-variant:normal;writing-mode:lr-tb;fill:#231f20;fill-opacity:1;fill-rule:nonzero;stroke:none;font-family:TakaoPGothic;-inkscape-font-specification:TakaoPGothic-90ms-RKSJ-H">一般指示静かに</tspan></text>
<text
               transform="matrix(1,0,0,-1,68.6221,627.9037)"
               id="text236"><tspan
                 x="0 5.7257786 9.8980465 14.069923 18.2418 20.852798 25.025 26.858986 29.084766 35.196098 39.368099 43.540241 47.71212 51.884117 54.110168 58.28204 60.892971 144.52827 150.25444 154.42633 156.26031 160.43219 162.65837 164.88416 169.05617 170.89017 175.06203 179.23392 183.01399"
                 y="0"
                 id="tspan238"
                 style="font-size:7px;font-variant:normal;font-weight:normal;writing-mode:lr-tb;fill:#231f20;fill-opacity:1;fill-rule:nonzero;stroke:none;font-family:Helvetica;-inkscape-font-specification:Helvetica">General mandatoryQuiet please</tspan></text>
<text
               transform="matrix(1,0,0,-1,68.45513,446.4867)"
               id="text240"><tspan
                 x="0 7 13.719922 20.018827 26.807577 32.967346 38.146606 43.397152 48.995789 54.666939"
                 y="0"
                 id="tspan242"
                 style="font-size:7px;font-variant:normal;writing-mode:lr-tb;fill:#231f20;fill-opacity:1;fill-rule:nonzero;stroke:none;font-family:TakaoPGothic;-inkscape-font-specification:TakaoPGothic-90ms-RKSJ-H">左側にお立ちください</tspan></text>
<text
               transform="matrix(1,0,0,-1,68.45513,437.98279)"
               id="text244"><tspan
                 x="0 4.9488301 6.7828288 10.95469 15.126567 18.906645 23.078522 25.304691 29.084789 31.310789 35.482788 39.65469 43.826561 46.052734 50.224606 54.396477 56.622654 58.848438 63.020699 67.192566 69.418388 71.252388 75.424637 77.650429"
                 y="0"
                 id="tspan246"
                 style="font-size:7px;font-variant:normal;font-weight:normal;writing-mode:lr-tb;fill:#231f20;fill-opacity:1;fill-rule:nonzero;stroke:none;font-family:Helvetica;-inkscape-font-specification:Helvetica">Please stand on the left</tspan></text>
<text
               transform="matrix(1,0,0,-1,250.52177,446.4867)"
               id="text248"><tspan
                 x="0 7 13.720312 20.019218 26.807968 32.968124 38.146988 43.397533 48.99617 54.667713"
                 y="0"
                 id="tspan250"
                 style="font-size:7px;font-variant:normal;writing-mode:lr-tb;fill:#231f20;fill-opacity:1;fill-rule:nonzero;stroke:none;font-family:TakaoPGothic;-inkscape-font-specification:TakaoPGothic-90ms-RKSJ-H">右側にお立ちください</tspan></text>
<text
               transform="matrix(1,0,0,-1,250.52177,437.98279)"
               id="text252"><tspan
                 x="0 4.9492202 6.7832189 10.95508 15.126963 18.907042 23.079315 25.305099 29.08518 31.311165 35.483147 39.655079 43.826962 46.053139 50.225021 54.397297 56.623081 58.849255 63.021141 67.193024 69.419182 72.030167 73.864098 78.036377 82.20826"
                 y="0"
                 id="tspan254"
                 style="font-size:7px;font-variant:normal;font-weight:normal;writing-mode:lr-tb;fill:#231f20;fill-opacity:1;fill-rule:nonzero;stroke:none;font-family:Helvetica;-inkscape-font-specification:Helvetica">Please stand on the right</tspan></text>
<text
               transform="matrix(1,0,0,-1,151.77287,642.07679)"
               id="text256"><tspan
                 x="0"
                 y="0"
                 id="tspan258"
                 style="font-size:7px;font-variant:normal;writing-mode:lr-tb;fill:#231f20;fill-opacity:1;fill-rule:nonzero;stroke:none;font-family:TakaoPGothic;-inkscape-font-specification:TakaoPGothic-90ms-RKSJ-H">※</tspan></text>
<text
               transform="matrix(1,0,0,-1,10.10087,751.46579)"
               id="text260"><tspan
                 x="0"
                 y="0"
                 id="tspan262"
                 style="font-size:12px;font-variant:normal;font-weight:normal;writing-mode:lr-tb;fill:#231f20;fill-opacity:1;fill-rule:nonzero;stroke:none;font-family:Helvetica;-inkscape-font-specification:Helvetica">A</tspan></text>
<text
               transform="matrix(1,0,0,-1,2.0997,765.20959)"
               id="text264"><tspan
                 x="0 8 16"
                 y="0"
                 id="tspan266"
                 style="font-size:8px;font-variant:normal;writing-mode:lr-tb;fill:#231f20;fill-opacity:1;fill-rule:nonzero;stroke:none;font-family:TakaoPGothic;-inkscape-font-specification:TakaoPGothic-90ms-RKSJ-H">推奨度</tspan></text>
</g><path
             d="m 1119.7,7528.31 c -290.747,0 -526.454,-235.72 -526.454,-526.47 0,-290.73 235.707,-526.47 526.454,-526.47 290.76,0 526.46,235.74 526.46,526.47 0,290.75 -235.7,526.47 -526.46,526.47"
             inkscape:connector-curvature="0"
             id="path268"
             style="fill:#0e88d3;fill-opacity:1;fill-rule:nonzero;stroke:none" /><path
             d="m 1206.39,6697 c 0,-47.88 -38.81,-86.69 -86.69,-86.69 -47.87,0 -86.68,38.81 -86.68,86.69 0,47.87 38.81,86.68 86.68,86.68 47.88,0 86.69,-38.81 86.69,-86.68"
             inkscape:connector-curvature="0"
             id="path270"
             style="fill:#ffffff;fill-opacity:1;fill-rule:nonzero;stroke:none" /><path
             d="m 1073.47,6890.87 c 0,-25.55 20.7,-46.23 46.23,-46.23 25.55,0 46.24,20.68 46.24,46.23 l 50.56,418.56 c 0,53.47 -43.34,96.8 -96.8,96.8 -53.45,0 -96.8,-43.33 -96.8,-96.8 l 50.57,-418.56"
             inkscape:connector-curvature="0"
             id="path272"
             style="fill:#ffffff;fill-opacity:1;fill-rule:nonzero;stroke:none" /><path
             d="m 2565.4,6475.06 c 290.4,0 525.83,235.44 525.83,525.85 0,290.41 -235.43,525.85 -525.83,525.85 -290.42,0 -525.86,-235.44 -525.86,-525.85 0,-290.41 235.44,-525.85 525.86,-525.85"
             inkscape:connector-curvature="0"
             id="path274"
             style="fill:#0e88d3;fill-opacity:1;fill-rule:nonzero;stroke:none" /><path
             d="m 2515.19,6644.95 -94.38,352.25 c -3.32,12.4 -16.07,19.76 -28.46,16.44 -12.41,-3.33 -19.76,-16.07 -16.44,-28.47 0,-0.01 0,-0.02 0,-0.02 l 30.42,-113.65 -6.79,-2.19 c -3.32,12.41 -16.07,19.77 -28.47,16.44 -12.4,-3.32 -19.76,-16.07 -16.43,-28.46 l 0,-0.02 7.28,-27.29 -6.79,-2.19 c -3.32,12.41 -16.07,19.77 -28.47,16.45 -12.4,-3.33 -19.76,-16.07 -16.44,-28.48 0,0 0.01,-0.01 0.01,-0.02 l 8.21,-30.73 -6.8,-2.19 c -3.32,12.4 -16.07,19.76 -28.46,16.44 -12.41,-3.32 -19.76,-16.07 -16.44,-28.47 0,-0.01 0,-0.02 0.01,-0.03 l 33.7,-125.81 214.74,0"
             inkscape:connector-curvature="0"
             id="path276"
             style="fill:#ffffff;fill-opacity:1;fill-rule:nonzero;stroke:none" /><path
             d="m 2866.11,7200.99 c -14.08,115.84 -119.67,198.2 -235.5,183.98 -85.45,-10.49 -152.64,-70.64 -176.33,-147.97 l -52.93,-173.2 76.59,0 c -0.68,-14.05 0.23,-27.94 2.58,-41.48 l 126.03,0 0,-29.97 -118.31,0 c 20.03,-57.67 67.34,-104.71 130.75,-121.7 101.67,-27.24 206.3,33.08 233.47,134.77 11.34,42.42 17.46,86.97 17.46,132.96 0,21.19 -1.32,42.08 -3.81,62.61"
             inkscape:connector-curvature="0"
             id="path278"
             style="fill:#ffffff;fill-opacity:1;fill-rule:nonzero;stroke:none" /><path
             d="m 1120.11,4575.85 c 290.41,0 525.84,235.45 525.84,525.85 0,290.42 -235.43,525.85 -525.84,525.85 -290.419,0 -525.856,-235.43 -525.856,-525.85 0,-290.4 235.437,-525.85 525.856,-525.85"
             inkscape:connector-curvature="0"
             id="path280"
             style="fill:#0e88d3;fill-opacity:1;fill-rule:nonzero;stroke:none" /><path
             d="m 1447.82,4795.35 0,347.34 -53.43,0 0,-293.9 -548.574,0 0,293.9 -53.437,0 0,-347.34 655.441,0"
             inkscape:connector-curvature="0"
             id="path282"
             style="fill:#ffffff;fill-opacity:1;fill-rule:nonzero;stroke:none" /><path
             d="m 1004.07,5410.8 c 25.45,0 46.08,20.63 46.08,46.08 0,25.45 -20.63,46.08 -46.08,46.08 -25.453,0 -46.086,-20.63 -46.086,-46.08 0,-25.45 20.633,-46.08 46.086,-46.08"
             inkscape:connector-curvature="0"
             id="path284"
             style="fill:#ffffff;fill-opacity:1;fill-rule:nonzero;stroke:none" /><path
             d="m 1059.93,5392.83 c -18.23,2.7 -36.88,4.14 -55.86,4.14 -29.621,0 -58.429,-3.44 -86.086,-9.89 -2.976,-0.7 -5.429,-2.77 -6.699,-5.49 l -86.601,-185.52 37.046,-17.27 56.657,96.27 27.761,-394.24 50.067,0 0,262.72 15.705,0 0,-262.72 50.06,0 19.09,271.94 28.84,0 8.74,166.88 c 2.52,35.64 -22.76,67.86 -58.72,73.18"
             inkscape:connector-curvature="0"
             id="path286"
             style="fill:#ffffff;fill-opacity:1;fill-rule:nonzero;stroke:none" /><path
             d="m 2565.38,4575.31 c -290.69,0 -526.36,235.69 -526.36,526.39 0,290.7 235.67,526.38 526.36,526.38 290.72,0 526.39,-235.68 526.39,-526.38 0,-290.7 -235.67,-526.39 -526.39,-526.39"
             inkscape:connector-curvature="0"
             id="path288"
             style="fill:#0e88d3;fill-opacity:1;fill-rule:nonzero;stroke:none" /><path
             d="m 2893.44,4795.04 0,347.69 -53.49,0 0,-294.2 -549.12,0 0,294.2 -53.49,0 0,-347.69 656.1,0"
             inkscape:connector-curvature="0"
             id="path290"
             style="fill:#ffffff;fill-opacity:1;fill-rule:nonzero;stroke:none" /><path
             d="m 2681.6,5410.79 c 25.45,0 46.08,20.64 46.08,46.09 0,25.45 -20.63,46.08 -46.08,46.08 -25.45,0 -46.08,-20.63 -46.08,-46.08 0,-25.45 20.63,-46.09 46.08,-46.09"
             inkscape:connector-curvature="0"
             id="path292"
             style="fill:#ffffff;fill-opacity:1;fill-rule:nonzero;stroke:none" /><path
             d="m 2774.38,5381.59 c -1.27,2.72 -3.72,4.79 -6.7,5.49 -27.65,6.45 -56.46,9.89 -86.08,9.89 -18.99,0 -37.63,-1.44 -55.87,-4.14 -35.95,-5.33 -61.24,-37.54 -58.72,-73.18 l 8.75,-166.88 28.84,0 19.08,-271.94 50.07,0 0,262.72 15.71,0 0,-262.72 50.06,0 27.76,394.24 56.66,-96.27 37.04,17.27 -86.6,185.52"
             inkscape:connector-curvature="0"
             id="path294"
             style="fill:#ffffff;fill-opacity:1;fill-rule:nonzero;stroke:none" /><path
             d="m 2488.99,4535.87 c -27.22,-16 -46.05,-50.33 -46.05,-90.1 0,-39.16 18.26,-73.06 44.83,-89.36"
             inkscape:connector-curvature="0"
             id="path296"
             style="fill:none;stroke:#231f20;stroke-width:4;stroke-linecap:butt;stroke-linejoin:miter;stroke-miterlimit:4;stroke-opacity:1;stroke-dasharray:none" /><path
             d="m 3361.32,4535.87 c 27.22,-16 46.05,-50.33 46.05,-90.1 0,-39.16 -18.27,-73.06 -44.83,-89.36"
             inkscape:connector-curvature="0"
             id="path298"
             style="fill:none;stroke:#231f20;stroke-width:4;stroke-linecap:butt;stroke-linejoin:miter;stroke-miterlimit:4;stroke-opacity:1;stroke-dasharray:none" /><g
             transform="scale(10,10)"
             id="g300"><text
               transform="matrix(1,0,0,-1,213.003,446.463)"
               id="text302"><tspan
                 x="0 7 14"
                 y="0"
                 id="tspan304"
                 style="font-size:7px;font-variant:normal;writing-mode:lr-tb;fill:#231f20;fill-opacity:1;fill-rule:nonzero;stroke:none;font-family:TakaoPGothic;-inkscape-font-specification:TakaoPGothic-90ms-RKSJ-H">応用例</tspan></text>
<text
               transform="matrix(1,0,0,-1,213.003,437.95909)"
               id="text306"><tspan
                 x="0 3.779999 7.9519982 10.562997 12.396996 16.568995 20.740993"
                 y="0"
                 id="tspan308"
                 style="font-size:7px;font-variant:normal;font-weight:normal;writing-mode:lr-tb;fill:#231f20;fill-opacity:1;fill-rule:nonzero;stroke:none;font-family:Helvetica;-inkscape-font-specification:Helvetica">variant</tspan></text>
<text
               transform="matrix(1,0,0,-1,64.024,426.76109)"
               id="text310"><tspan
                 x="0 4.1999998 9.310154 13.510154 14.839839 19.039839 20.58007 24.780069"
                 y="0"
                 id="tspan312"
                 style="font-size:7px;font-variant:normal;writing-mode:lr-tb;fill:#231f20;fill-opacity:1;fill-rule:nonzero;stroke:none;font-family:Ryumin-Light-90ms-RKSJ;-inkscape-font-specification:Ryumin-Light-90ms-RKSJ-H">mPn</tspan></text>
<text
               transform="matrix(1,0,0,-1,85.724,426.76109)"
               id="text314"><tspan
                 x="0 7.0712881 14.071288 20.79121 26.810038 32.479412 38.778866 45.778866 52.778866 59.778866 66.428864 73.288864 80.288864 87.358788"
                 y="0"
                 id="tspan316"
                 style="font-size:7px;font-variant:normal;writing-mode:lr-tb;fill:#231f20;fill-opacity:1;fill-rule:nonzero;stroke:none;font-family:TakaoPGothic;-inkscape-font-specification:TakaoPGothic-90ms-RKSJ-H">（文字による補助表示が必要）</tspan></text>
<text
               transform="matrix(1,0,0,-1,64.6072,236.91909)"
               id="text318"><tspan
                 x="0 4.1999998 9.3097687 13.509769 14.839846 19.039846 20.579693 24.779692"
                 y="0"
                 id="tspan320"
                 style="font-size:7px;font-variant:normal;writing-mode:lr-tb;fill:#231f20;fill-opacity:1;fill-rule:nonzero;stroke:none;font-family:Ryumin-Light-90ms-RKSJ;-inkscape-font-specification:Ryumin-Light-90ms-RKSJ-H">mPn</tspan></text>
<text
               transform="matrix(1,0,0,-1,86.3072,236.91909)"
               id="text322"><tspan
                 x="0 7.0712881 14.071288 20.790819 26.810038 32.479412 38.778866 45.778866 52.778866 59.778866 66.428864 73.288864 80.288864 87.359177"
                 y="0"
                 id="tspan324"
                 style="font-size:7px;font-variant:normal;writing-mode:lr-tb;fill:#231f20;fill-opacity:1;fill-rule:nonzero;stroke:none;font-family:TakaoPGothic;-inkscape-font-specification:TakaoPGothic-90ms-RKSJ-H">（文字による補助表示が必要）</tspan></text>
<text
               transform="matrix(1,0,0,-1,209.1732,236.91909)"
               id="text326"><tspan
                 x="0 4.1999998 9.310154 13.510154 14.840231 19.040232 20.580076 24.780077"
                 y="0"
                 id="tspan328"
                 style="font-size:7px;font-variant:normal;writing-mode:lr-tb;fill:#231f20;fill-opacity:1;fill-rule:nonzero;stroke:none;font-family:Ryumin-Light-90ms-RKSJ;-inkscape-font-specification:Ryumin-Light-90ms-RKSJ-H">mPn</tspan></text>
<text
               transform="matrix(1,0,0,-1,230.8732,236.91909)"
               id="text330"><tspan
                 x="0 7.0716801 14.07168 20.791601 26.810431 32.479805 38.779259 45.779259 52.779259 59.779259 66.42926 73.289261 80.289261 87.359177"
                 y="0"
                 id="tspan332"
                 style="font-size:7px;font-variant:normal;writing-mode:lr-tb;fill:#231f20;fill-opacity:1;fill-rule:nonzero;stroke:none;font-family:TakaoPGothic;-inkscape-font-specification:TakaoPGothic-90ms-RKSJ-H">（文字による補助表示が必要）</tspan></text>
<text
               transform="matrix(1,0,0,-1,353.7402,236.91909)"
               id="text334"><tspan
                 x="0 4.1999998 9.310154 13.510154 14.839839 19.039839 20.58007 24.780069"
                 y="0"
                 id="tspan336"
                 style="font-size:7px;font-variant:normal;writing-mode:lr-tb;fill:#231f20;fill-opacity:1;fill-rule:nonzero;stroke:none;font-family:Ryumin-Light-90ms-RKSJ;-inkscape-font-specification:Ryumin-Light-90ms-RKSJ-H">mPn</tspan></text>
<text
               transform="matrix(1,0,0,-1,375.4402,236.91909)"
               id="text338"><tspan
                 x="0 7.0712881 14.071288 20.79121 26.810429 32.479805 38.779255 45.779255 52.779255 59.779255 66.42926 73.289253 80.289253 87.359566"
                 y="0"
                 id="tspan340"
                 style="font-size:7px;font-variant:normal;writing-mode:lr-tb;fill:#231f20;fill-opacity:1;fill-rule:nonzero;stroke:none;font-family:TakaoPGothic;-inkscape-font-specification:TakaoPGothic-90ms-RKSJ-H">（文字による補助表示が必要）</tspan></text>
<text
               transform="matrix(1,0,0,-1,64.6892,46.57609)"
               id="text342"><tspan
                 x="0 4.1999998 9.310154 13.510154 14.839839 19.039839 20.579685 24.779684"
                 y="0"
                 id="tspan344"
                 style="font-size:7px;font-variant:normal;writing-mode:lr-tb;fill:#231f20;fill-opacity:1;fill-rule:nonzero;stroke:none;font-family:Ryumin-Light-90ms-RKSJ;-inkscape-font-specification:Ryumin-Light-90ms-RKSJ-H">mPn</tspan></text>
<text
               transform="matrix(1,0,0,-1,86.3892,46.57609)"
               id="text346"><tspan
                 x="0 7.0712881 14.071288 20.791599 26.810429 32.479805 38.779255 45.779255 52.779255 59.779255 66.42926 73.289253 80.289253 87.359177"
                 y="0"
                 id="tspan348"
                 style="font-size:7px;font-variant:normal;writing-mode:lr-tb;fill:#231f20;fill-opacity:1;fill-rule:nonzero;stroke:none;font-family:TakaoPGothic;-inkscape-font-specification:TakaoPGothic-90ms-RKSJ-H">（文字による補助表示が必要）</tspan></text>
<text
               transform="matrix(1,0,0,-1,208.5232,426.76109)"
               id="text350"><tspan
                 x="0 4.1999998 9.310154 13.510154 14.840231 19.040232 20.580076 24.780077"
                 y="0"
                 id="tspan352"
                 style="font-size:7px;font-variant:normal;writing-mode:lr-tb;fill:#231f20;fill-opacity:1;fill-rule:nonzero;stroke:none;font-family:Ryumin-Light-90ms-RKSJ;-inkscape-font-specification:Ryumin-Light-90ms-RKSJ-H">mPn</tspan></text>
<text
               transform="matrix(1,0,0,-1,230.2232,426.76109)"
               id="text354"><tspan
                 x="0 7.0716801 14.07168 20.791601 26.810431 32.479805 38.779259 45.779259 52.779259 59.779259 66.42926 73.289261 80.289261 87.359177"
                 y="0"
                 id="tspan356"
                 style="font-size:7px;font-variant:normal;writing-mode:lr-tb;fill:#231f20;fill-opacity:1;fill-rule:nonzero;stroke:none;font-family:TakaoPGothic;-inkscape-font-specification:TakaoPGothic-90ms-RKSJ-H">（文字による補助表示が必要）</tspan></text>
</g></g></g></g></g></svg>