<?xml version="1.0" encoding="UTF-8" standalone="no"?>
<!-- Created with Inkscape (http://www.inkscape.org/) -->

<svg
   xmlns:dc="http://purl.org/dc/elements/1.1/"
   xmlns:cc="http://creativecommons.org/ns#"
   xmlns:rdf="http://www.w3.org/1999/02/22-rdf-syntax-ns#"
   xmlns:svg="http://www.w3.org/2000/svg"
   xmlns="http://www.w3.org/2000/svg"
   xmlns:inkscape="http://www.inkscape.org/namespaces/inkscape"
   version="1.1"
   width="765"
   height="990"
   id="svg2"
   xml:space="preserve"><metadata
     id="metadata8"><rdf:RDF><cc:Work
         rdf:about=""><dc:format>image/svg+xml</dc:format><dc:type
           rdf:resource="http://purl.org/dc/dcmitype/StillImage" /></cc:Work></rdf:RDF></metadata><defs
     id="defs6"><clipPath
       id="clipPath18"><path
         d="m 0,0 4899.79,0 0,7920 L 0,7920 0,0 z"
         inkscape:connector-curvature="0"
         id="path20" /></clipPath></defs><g
     transform="matrix(1.25,0,0,-1.25,0,990)"
     id="g10"><g
       transform="scale(0.1,0.1)"
       id="g12"><g
         id="g14"><g
           clip-path="url(#clipPath18)"
           id="g16"><g
             transform="scale(10,10)"
             id="g22"><text
               transform="matrix(1,0,0,-1,68.6184,636.416)"
               id="text24"><tspan
                 x="0 7 14"
                 y="0"
                 id="tspan26"
                 style="font-size:7px;font-variant:normal;writing-mode:lr-tb;fill:#231f20;fill-opacity:1;fill-rule:nonzero;stroke:none;font-family:TakaoPGothic;-inkscape-font-specification:TakaoPGothic-90ms-RKSJ-H">展望地</tspan></text>
<text
               transform="matrix(1,0,0,-1,91.844399,636.416)"
               id="text28"><tspan
                 x="0 2.2259991"
                 y="0"
                 id="tspan30"
                 style="font-size:7px;font-variant:normal;font-weight:normal;writing-mode:lr-tb;fill:#231f20;fill-opacity:1;fill-rule:nonzero;stroke:none;font-family:Helvetica;-inkscape-font-specification:Helvetica">/ </tspan></text>
<text
               transform="matrix(1,0,0,-1,96.29613,636.416)"
               id="text32"><tspan
                 x="0 7 14 116.8503 123.8503 130.8503 137.8503 144.8503 261.0293 266.62958 271.94977 277.90057 284.41116 291.41116 298.41116"
                 y="0"
                 id="tspan34"
                 style="font-size:7px;font-variant:normal;writing-mode:lr-tb;fill:#231f20;fill-opacity:1;fill-rule:nonzero;stroke:none;font-family:TakaoPGothic;-inkscape-font-specification:TakaoPGothic-90ms-RKSJ-H">景勝地陸上競技場サッカー競技場</tspan><tspan
                 x="-27.6777 -20.6777 -13.6777 116.4313 122.65911 128.81981 134.4205 140.36981 144.78038 261.37939 268.37939 275.37939 282.37939"
                 y="189.92101"
                 id="tspan36"
                 style="font-size:7px;font-variant:normal;writing-mode:lr-tb;fill:#231f20;fill-opacity:1;fill-rule:nonzero;stroke:none;font-family:TakaoPGothic;-inkscape-font-specification:TakaoPGothic-90ms-RKSJ-H">野球場テニスコート海水浴場</tspan></text>
<text
               transform="matrix(1,0,0,-1,387.90144,446.495)"
               id="text38"><tspan
                 x="0 2.2260139"
                 y="0"
                 id="tspan40"
                 style="font-size:7px;font-variant:normal;font-weight:normal;writing-mode:lr-tb;fill:#231f20;fill-opacity:1;fill-rule:nonzero;stroke:none;font-family:Helvetica;-inkscape-font-specification:Helvetica">/ </tspan></text>
<text
               transform="matrix(1,0,0,-1,391.72348,446.495)"
               id="text42"><tspan
                 x="0 6.3688283 12.599317"
                 y="0"
                 id="tspan44"
                 style="font-size:7px;font-variant:normal;writing-mode:lr-tb;fill:#231f20;fill-opacity:1;fill-rule:nonzero;stroke:none;font-family:TakaoPGothic;-inkscape-font-specification:TakaoPGothic-90ms-RKSJ-H">プール</tspan><tspan
                 x="-323.66501 -317.78424 -311.62543 -305.11487"
                 y="189.92101"
                 id="tspan46"
                 style="font-size:7px;font-variant:normal;writing-mode:lr-tb;fill:#231f20;fill-opacity:1;fill-rule:nonzero;stroke:none;font-family:TakaoPGothic;-inkscape-font-specification:TakaoPGothic-90ms-RKSJ-H">スキー場</tspan></text>
<text
               transform="matrix(1,0,0,-1,10.09798,751.474)"
               id="text48"><tspan
                 x="0"
                 y="0"
                 id="tspan50"
                 style="font-size:12px;font-variant:normal;font-weight:normal;writing-mode:lr-tb;fill:#231f20;fill-opacity:1;fill-rule:nonzero;stroke:none;font-family:Helvetica;-inkscape-font-specification:Helvetica">B</tspan></text>
<text
               transform="matrix(1,0,0,-1,1.84681,765.2178)"
               id="text52"><tspan
                 x="0 8 16"
                 y="0"
                 id="tspan54"
                 style="font-size:8px;font-variant:normal;writing-mode:lr-tb;fill:#231f20;fill-opacity:1;fill-rule:nonzero;stroke:none;font-family:TakaoPGothic;-inkscape-font-specification:TakaoPGothic-90ms-RKSJ-H">推奨度</tspan></text>
<text
               transform="matrix(1,0,0,-1,212.58581,256.5738)"
               id="text56"><tspan
                 x="0 5.5291181 10.918962 16.940231 23.798904 145.089 152.089"
                 y="0"
                 id="tspan58"
                 style="font-size:7px;font-variant:normal;writing-mode:lr-tb;fill:#231f20;fill-opacity:1;fill-rule:nonzero;stroke:none;font-family:TakaoPGothic;-inkscape-font-specification:TakaoPGothic-90ms-RKSJ-H">キャンプ場温泉</tspan></text>
<text
               transform="matrix(1,0,0,-1,68.61781,627.9118)"
               id="text60"><tspan
                 x="0 4.9489989 6.7829981 10.954997 16.2887 18.514481 22.68648 26.858479 28.692476 32.864475 144.52748 149.47632 151.70248 155.87448 157.70848 161.88048 164.10648 165.94038 169.72046 171.94624 175.72632 177.95248 182.12448 186.29623 188.1302 192.30222 289.05621 293.61325 297.78525 301.95724 304.18314 308.35501 312.52701 314.36102 316.19525 318.42102 322.20111 324.42728 328.59927 332.77103 334.60501 338.77701"
                 y="0"
                 id="tspan62"
                 style="font-size:7px;font-variant:normal;font-weight:normal;writing-mode:lr-tb;fill:#231f20;fill-opacity:1;fill-rule:nonzero;stroke:none;font-family:Helvetica;-inkscape-font-specification:Helvetica">View pointAthletic stadiumFootball stadium</tspan><tspan
                 x="9.9999997e-06 4.9488401 9.1208391 12.90079 17.072666 21.24493 25.416929 27.250929 29.084379 31.310549 35.09063 37.316799 41.4888 45.660549 47.49453 51.666531 144.52773 149.08476 153.25676 157.42876 161.60075 163.43475 167.21445 169.44063 173.2207 177.39258 181.56487 184.1758 289.05679 294.00577 299.33975 301.17413 307.2851 313.39603 315.23001 319.40189 323.57416 325.79993 329.97177 331.80582 335.97784 339.75812"
                 y="189.92"
                 id="tspan64"
                 style="font-size:7px;font-variant:normal;font-weight:normal;writing-mode:lr-tb;fill:#231f20;fill-opacity:1;fill-rule:nonzero;stroke:none;font-family:Helvetica;-inkscape-font-specification:Helvetica">Baseball stadiumTennis courtSwimming place</tspan><tspan
                 x="0.00011 4.9489379 8.7290163 10.562613 12.788782 16.960659 19.571596 23.743473 27.915741 32.087616 144.52792 149.86211 154.0341 160.14491 164.31718 166.54297 170.32301 172.15701 174.38301"
                 y="379.84201"
                 id="tspan66"
                 style="font-size:7px;font-variant:normal;font-weight:normal;writing-mode:lr-tb;fill:#231f20;fill-opacity:1;fill-rule:nonzero;stroke:none;font-family:Helvetica;-inkscape-font-specification:Helvetica">Ski groundCamp site</tspan></text>
</g><path
             d="M 4818.9,340.16 4818.9,0"
             inkscape:connector-curvature="0"
             id="path68"
             style="fill:none;stroke:#231f20;stroke-width:2;stroke-linecap:butt;stroke-linejoin:miter;stroke-miterlimit:4;stroke-opacity:1;stroke-dasharray:none" /><g
             transform="scale(10,10)"
             id="g70"><text
               transform="matrix(1,0,0,-1,357.675,248.07)"
               id="text72"><tspan
                 x="0 5.3339801 9.5059786 11.73203 13.958206 17.737894 21.910168 24.52113 26.35516 30.526991"
                 y="0"
                 id="tspan74"
                 style="font-size:7px;font-variant:normal;font-weight:normal;writing-mode:lr-tb;fill:#231f20;fill-opacity:1;fill-rule:nonzero;stroke:none;font-family:Helvetica;-inkscape-font-specification:Helvetica">Hot spring</tspan></text>
<text
               transform="matrix(1,0,0,-1,483.30709,29.764)"
               id="text76"><tspan
                 x="0 3.336"
                 y="0"
                 id="tspan78"
                 style="font-size:6px;font-variant:normal;font-weight:normal;writing-mode:lr-tb;fill:#231f20;fill-opacity:1;fill-rule:nonzero;stroke:none;font-family:Helvetica;-inkscape-font-specification:Helvetica">13</tspan></text>
<text
               transform="matrix(1,0,0,-1,43.93709,785.505)"
               id="text80"><tspan
                 x="0 12 21 29.880083 41.880085 50.880085 58.799999 69.481247 80.03891 89.999771 101.28172 113.28172 125.28172"
                 y="0"
                 id="tspan82"
                 style="font-size:12px;font-variant:normal;writing-mode:lr-tb;fill:#231f20;fill-opacity:1;fill-rule:nonzero;stroke:none;font-family:TakaoPGothic;-inkscape-font-specification:TakaoPGothic-90ms-RKSJ-H">観光・文化・スポーツ施設 </tspan></text>
<text
               transform="matrix(1,0,0,-1,181.21709,785.505)"
               id="text84"><tspan
                 x="0 7.8117242 14.963679 22.115635 26.591812 29.735901 36.215897 46.691799 50.507801 54.323799 63.466801 70.618797 73.762901 77.578903 84.730858 89.207031 96.358986 100.17499 103.99099 112.475 119.62701 126.7789 131.25468 135.07068 138.88669 146.69881 153.85081 160.3308 163.47495 166.61868 169.7627 173.5787 176.72272 183.87379"
                 y="0"
                 id="tspan86"
                 style="font-size:12px;font-variant:normal;font-weight:normal;writing-mode:lr-tb;fill:#231f20;fill-opacity:1;fill-rule:nonzero;stroke:none;font-family:Helvetica;-inkscape-font-specification:Helvetica">Tourism, Culture, Sport Facilities</tspan></text>
</g><path
             d="m 135.41,7957.46 127.051,0 0,-119.22 -127.051,0 0,119.22 z m 81.578,-82.7 11.055,0 0,12.04 -11.055,0 0,51.07 -14.972,0 -39.461,-49.26 0,-13.85 39.039,0 0,-16.93 15.394,0 0,16.93 z m -15.676,42.68 0.282,0 0,-30.64 -24.485,0 24.203,30.64"
             inkscape:connector-curvature="0"
             id="path88"
             style="fill:#231f20;fill-opacity:1;fill-rule:nonzero;stroke:none" /><path
             d="M 4818.9,7795.28 0,7795.28"
             inkscape:connector-curvature="0"
             id="path90"
             style="fill:none;stroke:#231f20;stroke-width:2;stroke-linecap:butt;stroke-linejoin:miter;stroke-miterlimit:4;stroke-opacity:1;stroke-dasharray:none" /><path
             d="m 2428.89,3510.66 c 48.82,-10.17 99.22,-15.3 151.05,-15.3 51.73,0 102.46,5.14 151.18,15.26 l 236.4,-543.34 -302.28,0 -236.35,543.38"
             inkscape:connector-curvature="0"
             id="path92"
             style="fill:#231f20;fill-opacity:1;fill-rule:nonzero;stroke:none" /><path
             d="m 2636.9,2967.28 -236.15,543.16 -236.16,-543.16 119.12,0 c 52.83,95 91.96,198.21 117.04,307 l 0,-307 236.15,0"
             inkscape:connector-curvature="0"
             id="path94"
             style="fill:#231f20;fill-opacity:1;fill-rule:nonzero;stroke:none" /><path
             d="m 2132.09,2707.47 c -34.23,0 -61.99,27.76 -61.99,62 l 0,867.93 c 0,34.24 27.76,61.99 61.99,61.99 l 867.93,0 c 34.24,0 62,-27.75 62,-61.99 l 0,-867.93 c 0,-34.24 -27.76,-62 -62,-62 l -867.93,0 z"
             inkscape:connector-curvature="0"
             id="path96"
             style="fill:none;stroke:#231f20;stroke-width:2;stroke-linecap:butt;stroke-linejoin:miter;stroke-miterlimit:4;stroke-opacity:1;stroke-dasharray:none" /><path
             d="m 3576.75,2707.47 c -34.24,0 -61.99,27.76 -61.99,62 l 0,867.93 c 0,34.24 27.75,61.99 61.99,61.99 l 867.93,0 c 34.24,0 62,-27.75 62,-61.99 l 0,-867.93 c 0,-34.24 -27.76,-62 -62,-62 l -867.93,0 z"
             inkscape:connector-curvature="0"
             id="path98"
             style="fill:none;stroke:#231f20;stroke-width:2;stroke-linecap:butt;stroke-linejoin:miter;stroke-miterlimit:4;stroke-opacity:1;stroke-dasharray:none" /><path
             d="m 4214.35,3255.09 c 6.37,-16.88 9.88,-34.79 10.33,-52.97 54.7,-22.84 88.41,-54.37 88.41,-89.22 0,-69.7 -135.38,-126.21 -302.37,-126.21 -166.99,0 -302.38,56.51 -302.38,126.21 0,48.71 66.13,90.96 162.94,112 5.19,-10.45 8.14,-22.22 8.14,-34.68 0,-37.29 -26.16,-68.36 -61.12,-76.12 l 11.9,-42.44 c 56.96,13.88 99.27,65.23 99.27,126.47 0,24.13 -6.57,46.73 -18.01,66.11 L 3840,3387.73 c -6.05,11.09 -9.48,23.81 -9.48,37.33 0,37.29 26.16,68.36 61.12,76.12 l -11.9,42.44 c -56.97,-13.88 -99.27,-65.23 -99.27,-126.47 0,-24.13 6.57,-46.73 18.01,-66.11 l 49.05,-84.77 c -126.54,-30.42 -213.9,-95.13 -213.9,-170.04 0,-104.15 168.84,-188.58 377.09,-188.58 208.25,0 377.08,84.43 377.08,188.58 0,66.64 -69.08,125.32 -173.45,158.86"
             inkscape:connector-curvature="0"
             id="path100"
             style="fill:#231f20;fill-opacity:1;fill-rule:nonzero;stroke:none" /><path
             d="m 4134.2,3227.55 c 6.05,-11.09 9.48,-23.81 9.48,-37.33 0,-37.29 -26.16,-68.36 -61.12,-76.12 l 11.9,-42.44 c 56.97,13.88 99.27,65.23 99.27,126.47 0,24.13 -6.57,46.73 -18.01,66.11 l -71.46,123.49 c -6.04,11.09 -9.48,23.81 -9.48,37.33 0,37.29 26.17,68.36 61.12,76.12 l -11.9,42.44 c -56.96,-13.88 -99.26,-65.23 -99.26,-126.47 0,-24.13 6.56,-46.73 18,-66.11 l 71.46,-123.49"
             inkscape:connector-curvature="0"
             id="path102"
             style="fill:#231f20;fill-opacity:1;fill-rule:nonzero;stroke:none" /><path
             d="m 4002.07,3227.55 c 6.05,-11.09 9.48,-23.81 9.48,-37.33 0,-37.29 -26.16,-68.36 -61.12,-76.12 l 11.9,-42.44 c 56.97,13.88 99.27,65.23 99.27,126.47 0,24.13 -6.57,46.73 -18.01,66.11 l -71.46,123.49 c -6.05,11.09 -9.48,23.81 -9.48,37.33 0,37.29 26.16,68.36 61.12,76.12 l -11.89,42.44 c -56.97,-13.88 -99.28,-65.23 -99.28,-126.47 0,-24.13 6.57,-46.73 18.02,-66.11 l 71.45,-123.49"
             inkscape:connector-curvature="0"
             id="path104"
             style="fill:#231f20;fill-opacity:1;fill-rule:nonzero;stroke:none" /><path
             d="m 3577.12,6505.9 c -34.25,0 -62.01,27.76 -62.01,62.01 l 0,868.19 c 0,34.25 27.76,62.01 62.01,62.01 l 868.19,0 c 34.25,0 62.01,-27.76 62.01,-62.01 l 0,-868.19 c 0,-34.25 -27.76,-62.01 -62.01,-62.01 l -868.19,0 z"
             inkscape:connector-curvature="0"
             id="path106"
             style="fill:none;stroke:#231f20;stroke-width:2;stroke-linecap:butt;stroke-linejoin:miter;stroke-miterlimit:4;stroke-opacity:1;stroke-dasharray:none" /><path
             d="m 3955.22,6753.19 c -34.03,0 -61.62,-27.59 -61.62,-61.63 0,-34.03 27.59,-61.62 61.62,-61.62 34.04,0 61.63,27.59 61.63,61.62 0,34.04 -27.59,61.63 -61.63,61.63"
             inkscape:connector-curvature="0"
             id="path108"
             style="fill:#231f20;fill-opacity:1;fill-rule:nonzero;stroke:none" /><path
             d="m 3889.79,7275.62 c 30.94,0 56.03,25.08 56.03,56.02 0,30.94 -25.09,56.02 -56.03,56.02 -30.94,0 -56.03,-25.08 -56.03,-56.02 0,-30.94 25.09,-56.02 56.03,-56.02"
             inkscape:connector-curvature="0"
             id="path110"
             style="fill:#231f20;fill-opacity:1;fill-rule:nonzero;stroke:none" /><path
             d="m 4104.59,6874.1 c 2.65,-4.3 5.93,-8.18 9.73,-11.48 l 88.48,-76.92 54.4,31.4 -84.01,105.61 -142.36,279.35 c 23.78,3.25 47.91,4.92 71.85,4.92 47.34,0 94.32,-6.3 139.64,-18.73 l 24.04,41.63 c -71.4,28.57 -149.31,44.33 -230.91,44.33 -83.56,0 -163.28,-16.23 -236.07,-46.1 -4.49,-1.84 -8.45,-4.7 -11.6,-8.3 -35.5,-41.18 -55.69,-93.76 -55.69,-152.56 0,-43.23 11.65,-83.74 31.97,-118.56 l 40.52,15.74 c -8.78,23.2 -13.59,48.35 -13.59,74.62 0,41.27 11.86,79.76 32.35,112.27 l 176.88,-306.1 157.23,-194.15 62.88,16.85 -127.56,192.7 -51.43,105.48 4.43,2.16 58.82,-94.16"
             inkscape:connector-curvature="0"
             id="path112"
             style="fill:#231f20;fill-opacity:1;fill-rule:nonzero;stroke:none" /><path
             d="m 686.809,2707.47 c -34.243,0 -61.997,27.76 -61.997,62 l 0,867.93 c 0,34.24 27.754,61.99 61.997,61.99 l 867.931,0 c 34.24,0 61.99,-27.75 61.99,-61.99 l 0,-867.93 c 0,-34.24 -27.75,-62 -61.99,-62 l -867.931,0 z"
             inkscape:connector-curvature="0"
             id="path114"
             style="fill:none;stroke:#231f20;stroke-width:2;stroke-linecap:butt;stroke-linejoin:miter;stroke-miterlimit:4;stroke-opacity:1;stroke-dasharray:none" /><path
             d="m 948.965,3467.18 c 30.859,0 55.875,25.02 55.875,55.88 0,30.86 -25.016,55.88 -55.875,55.88 -30.86,0 -55.879,-25.02 -55.879,-55.88 0,-30.86 25.019,-55.88 55.879,-55.88"
             inkscape:connector-curvature="0"
             id="path116"
             style="fill:#231f20;fill-opacity:1;fill-rule:nonzero;stroke:none" /><path
             d="m 1482.22,3078.86 c -14.15,-5.18 -129.14,-47.29 -255.34,-93.5 l -113.64,161.88 83.76,84.26 c 9.68,10.05 15.63,23.71 15.63,38.77 0,14.73 -5.71,28.12 -15.03,38.1 l 135.59,0 0,-27.94 22.96,0 0,27.94 55.88,0 0,22.97 -55.88,0 0,27.94 -22.96,0 0,-27.94 -158.06,0 -146.81,149.73 c -1.12,1.12 -2.69,1.81 -4.41,1.81 -0.74,0 -1.44,-0.15 -2.1,-0.38 -26.072,-9.01 -46.439,-30.26 -54.232,-56.87 l -25.508,-95.08 -105.793,0 13.465,-51.27 106.457,-9.23 c 1.18,-0.09 2.363,-0.14 3.567,-0.14 18.515,0 34.406,11.26 41.194,27.31 l 5.6,12.9 65.56,-53.93 -61.72,-77.26 c -8.45,-9.78 -13.548,-22.53 -13.548,-36.47 0,-15.4 6.228,-29.34 16.298,-39.45 l 145.1,-142.78 c -144.98,-53.1 -283.621,-103.86 -283.609,-103.86 -5.555,-2.14 -11.418,-3.22 -17.43,-3.22 -16.313,0 -31.434,8.13 -40.457,21.75 l -2.051,3.09 -35.965,-13.63 2.61,-4.7 c 15.289,-27.58 44.359,-44.71 75.863,-44.71 10.371,0 20.519,1.81 30.168,5.39 l 607.981,223.27 -13.14,35.25"
             inkscape:connector-curvature="0"
             id="path118"
             style="fill:#231f20;fill-opacity:1;fill-rule:nonzero;stroke:none" /><path
             d="m 686.184,4606.68 c -34.243,0 -62,27.76 -62,62 l 0,867.94 c 0,34.23 27.757,61.99 62,61.99 l 867.926,0 c 34.24,0 62,-27.76 62,-62 l 0,-867.93 c 0,-34.24 -27.76,-62 -62,-62 l -867.926,0 z"
             inkscape:connector-curvature="0"
             id="path120"
             style="fill:none;stroke:#231f20;stroke-width:2;stroke-linecap:butt;stroke-linejoin:miter;stroke-miterlimit:4;stroke-opacity:1;stroke-dasharray:none" /><path
             d="m 1014.05,5328.35 c 0,-30.81 24.98,-55.79 55.79,-55.79 30.81,0 55.79,24.98 55.79,55.79 0,30.81 -24.98,55.79 -55.79,55.79 -30.81,0 -55.79,-24.98 -55.79,-55.79"
             inkscape:connector-curvature="0"
             id="path122"
             style="fill:#231f20;fill-opacity:1;fill-rule:nonzero;stroke:none" /><path
             d="m 1238.1,5006.07 -58.25,-100.32 85.4,-160.63 -39.72,-56.74 -115.42,158.88 15.62,-178.54 -61.37,0 -49.45,232.57 c -0.55,2.62 -0.86,5.33 -0.86,8.12 0,6.92 1.82,13.42 4.98,19.06 l 72.83,130.89 -71.95,112.04 c -41.066,-0.59 -78.441,13.6 -103.113,43.01 -27.113,32.32 -32.77,79.42 -21,123.88 l 361.703,217.09 c 9.11,-4.14 16.89,-11.33 21.62,-21.03 4.33,-8.87 5.44,-18.47 3.8,-27.5 L 949.91,5344.46 c -9.449,-29.57 -7.199,-57.87 9.074,-77.98 29.864,-36.89 96.506,-33.45 155.216,5.62 0.98,0.65 2.2,1.02 3.46,1.02 2.3,0 4.3,-1.25 5.37,-3.1 l 115.1,-198.82 c 5.7,-9.52 8.97,-20.65 8.97,-32.54 0,-11.92 -3.29,-23.07 -9,-32.59"
             inkscape:connector-curvature="0"
             id="path124"
             style="fill:#231f20;fill-opacity:1;fill-rule:nonzero;stroke:none" /><path
             d="m 2130.85,6505.9 c -34.28,0 -62.08,27.8 -62.08,62.08 l 0,869.18 c 0,34.28 27.8,62.08 62.08,62.08 l 869.18,0 c 34.29,0 62.08,-27.8 62.08,-62.08 l 0,-869.18 c 0,-34.28 -27.79,-62.08 -62.08,-62.08 l -869.18,0 z"
             inkscape:connector-curvature="0"
             id="path126"
             style="fill:none;stroke:#231f20;stroke-width:2;stroke-linecap:butt;stroke-linejoin:miter;stroke-miterlimit:4;stroke-opacity:1;stroke-dasharray:none" /><path
             d="m 2812.87,7150.01 c 30.98,0 56.09,25.11 56.09,56.09 0,30.98 -25.11,56.09 -56.09,56.09 -30.97,0 -56.08,-25.11 -56.08,-56.09 0,-30.98 25.11,-56.09 56.08,-56.09"
             inkscape:connector-curvature="0"
             id="path128"
             style="fill:#231f20;fill-opacity:1;fill-rule:nonzero;stroke:none" /><path
             d="m 2770,7135.61 c 0.1,0.7 0.17,1.42 0.17,2.15 0,3.62 -1.23,6.91 -3.3,9.54 -44.16,56.08 -112.63,92.12 -189.55,92.12 -79.09,0 -149.27,-38.1 -193.25,-96.92 l 30.51,-43.57 c 32.89,41.18 83.51,67.57 140.31,67.57 15.28,0 30.09,-1.93 44.25,-5.52 l -408.17,-415.36 16.16,-60.34 157.36,118.59 263.03,0 c 27.43,0 49.66,22.23 49.66,49.65 0,5.06 -0.76,9.93 -2.17,14.52 l -42.19,138.05 51.43,38.75 0,-44.34 c 0,-15.42 12.5,-27.93 27.93,-27.93 0.82,0 1.63,0.06 2.43,0.13 l 132.87,11.62 14.09,52.59 -105.44,0 13.87,98.7 z m -307.67,-258 73.34,55.26 21.14,-45.33 -94.48,-9.93"
             inkscape:connector-curvature="0"
             id="path130"
             style="fill:#231f20;fill-opacity:1;fill-rule:nonzero;stroke:none" /><path
             d="m 3577.38,4606.68 c -34.24,0 -62,27.76 -62,62 l 0,867.94 c 0,34.23 27.76,61.99 62,61.99 l 867.93,0 c 34.24,0 61.99,-27.76 61.99,-62 l 0,-867.93 c 0,-34.24 -27.75,-62 -61.99,-62 l -867.93,0 z"
             inkscape:connector-curvature="0"
             id="path132"
             style="fill:none;stroke:#231f20;stroke-width:2;stroke-linecap:butt;stroke-linejoin:miter;stroke-miterlimit:4;stroke-opacity:1;stroke-dasharray:none" /><path
             d="m 3820.29,5096.66 c 0,46.21 -37.47,83.69 -83.69,83.69 -46.22,0 -83.68,-37.48 -83.68,-83.69 0,-46.22 37.46,-83.69 83.68,-83.69 46.22,0 83.69,37.47 83.69,83.69"
             inkscape:connector-curvature="0"
             id="path134"
             style="fill:#231f20;fill-opacity:1;fill-rule:nonzero;stroke:none" /><path
             d="m 4059.59,5140.25 c 60.9,63.06 161.4,64.82 224.46,3.92 5.27,-5.09 10.12,-10.46 14.53,-16.07 l 72.74,43.72 c -8.74,11.41 -18.41,22.33 -29.07,32.62 -115.62,111.65 -299.86,108.43 -411.51,-7.19 -16.87,-17.47 -31.1,-36.5 -42.73,-56.62 l -83.01,-143.77 -70.05,-58.15 c 14.55,-7.19 30.91,-11.25 48.23,-11.25 l 0,-0.01 c 29.73,0 56.66,11.9 76.34,31.18 l 12.92,0 c 19.68,-19.28 46.62,-31.18 76.33,-31.18 29.73,0 56.66,11.89 76.34,31.17 l 12.92,0 c 19.68,-19.28 46.62,-31.17 76.34,-31.17 29.72,0 56.66,11.9 76.34,31.18 l 12.92,0 c 19.68,-19.28 46.62,-31.18 76.34,-31.18 22.36,0 43.14,6.74 60.44,18.28 l -298.63,172.42 c 5.19,7.75 11.11,15.16 17.81,22.1"
             inkscape:connector-curvature="0"
             id="path136"
             style="fill:#231f20;fill-opacity:1;fill-rule:nonzero;stroke:none" /><path
             d="m 685.902,6505.9 c -34.269,0 -62.054,27.78 -62.054,62.05 l 0,868.75 c 0,34.27 27.785,62.05 62.054,62.05 l 868.748,0 c 34.27,0 62.05,-27.78 62.05,-62.05 l 0,-868.75 c 0,-34.27 -27.78,-62.05 -62.05,-62.05 l -868.748,0 z"
             inkscape:connector-curvature="0"
             id="path138"
             style="fill:none;stroke:#231f20;stroke-width:2;stroke-linecap:butt;stroke-linejoin:miter;stroke-miterlimit:4;stroke-opacity:1;stroke-dasharray:none" /><path
             d="m 1443.13,7012.02 0,-30.99 -226.07,0 -7.12,-50.64 233.19,0 0,-362.5 38.24,0 0,444.13 -38.24,0"
             inkscape:connector-curvature="0"
             id="path140"
             style="fill:#231f20;fill-opacity:1;fill-rule:nonzero;stroke:none" /><path
             d="m 1106.7,7288.62 c 34.24,0 61.99,27.76 61.99,61.99 0,34.23 -27.75,61.99 -61.99,61.99 -34.23,0 -61.98,-27.76 -61.98,-61.99 0,-34.23 27.75,-61.99 61.98,-61.99"
             inkscape:connector-curvature="0"
             id="path142"
             style="fill:#231f20;fill-opacity:1;fill-rule:nonzero;stroke:none" /><path
             d="m 909.512,7396.25 -30.996,1.09 0,-68.19 30.996,1.08 0,66.02"
             inkscape:connector-curvature="0"
             id="path144"
             style="fill:#231f20;fill-opacity:1;fill-rule:nonzero;stroke:none" /><path
             d="m 1178.63,7250.35 c -1.86,15.33 -14.91,27.22 -30.75,27.22 -5.06,0 -9.84,-1.2 -14.06,-3.35 -58.19,-29.51 -114,-36.83 -136.945,-18.32 -1.715,1.39 -3.258,2.94 -4.613,4.68 -13.942,17.85 -4.66,49.82 20.518,80.58 l 17.11,0.6 0,42.96 -108.48,3.79 0,-50.54 27.75,0.97 c -29.808,-46.36 -34.898,-98.32 -8.23,-133.71 19.445,-25.81 52.035,-37.81 88.72,-36.26 l 30.14,-155.05 0,-32.89 -237.567,0 0,30.99 -38.239,0 0,-444.13 38.239,0 0,362.5 237.567,0 0.02,-362.5 80.59,0.01 63.43,451.36 c 1.1,7.87 1.21,16.01 0.2,24.28 l -25.4,206.81"
             inkscape:connector-curvature="0"
             id="path146"
             style="fill:#231f20;fill-opacity:1;fill-rule:nonzero;stroke:none" /><path
             d="m 2132.09,4606.68 c -34.23,0 -61.99,27.76 -61.99,62 l 0,867.94 c 0,34.23 27.76,61.99 61.99,61.99 l 867.93,0 c 34.24,0 62,-27.76 62,-61.99 l 0,-867.94 c 0,-34.24 -27.76,-62 -62,-62 l -867.93,0 z"
             inkscape:connector-curvature="0"
             id="path148"
             style="fill:none;stroke:#231f20;stroke-width:2;stroke-linecap:butt;stroke-linejoin:miter;stroke-miterlimit:4;stroke-opacity:1;stroke-dasharray:none" /><path
             d="m 2485.63,5336.36 c 30.87,0 55.89,25.03 55.89,55.89 0,30.87 -25.02,55.9 -55.89,55.9 -30.87,0 -55.9,-25.03 -55.9,-55.9 0,-30.86 25.03,-55.89 55.9,-55.89"
             inkscape:connector-curvature="0"
             id="path150"
             style="fill:#231f20;fill-opacity:1;fill-rule:nonzero;stroke:none" /><path
             d="m 2380.91,5068.69 c 65.48,20.72 120.15,65.73 153.41,124.48 l 42.25,-53.46 -99.72,-97.31 c -10.11,-10.12 -16.37,-24.09 -16.37,-39.53 0,-4.71 0.58,-9.28 1.68,-13.65 l 60.42,-220.96 66.16,0 -28.41,225.9 85.53,57.87 221.78,-280.64 56.94,29.01 -294.37,500.58 c 15.13,4.06 31.03,6.25 47.44,6.25 55.19,0 104.66,-24.45 138.19,-63.11 l 18.5,51.04 c -42.53,48.41 -104.91,78.98 -174.43,78.98 -67.93,0 -129.32,-29 -171.79,-75.51 -3.05,-3.34 -4.94,-7.75 -4.94,-12.63 0,-74.95 -44.79,-139.41 -109.05,-168.15 l -22.56,31.86 c -27.19,38.83 -40.36,84.28 -38.18,131.48 1.18,22.35 -5.95,46.06 -20.27,66.52 -30.1,42.99 -82.89,58.16 -117.67,33.8 -14.45,-10.11 -24.26,-26.14 -27.6,-45.1 -4.46,-25.25 2.5,-53.33 19.09,-77.03 14.54,-20.77 34.77,-35.74 56.55,-42.12 44.67,-14.2 82.53,-42.02 109.51,-80.56 l 47.91,-68.01 z m -149.63,169.87 c -0.77,0.25 -1.53,0.53 -2.3,0.77 l -0.03,-0.08 c -15.92,4.94 -31.72,16.41 -43.43,33.14 -13.17,18.81 -18.76,40.7 -15.34,60.08 2.32,13.19 8.64,23.73 18.27,30.47 9.63,6.74 21.7,9.07 34.88,6.75 19.38,-3.42 38.04,-16.17 51.21,-34.98 11.2,-15.99 16.89,-34.21 16.26,-51.21 l -0.02,0 c -0.03,-0.6 -0.03,-1.19 -0.06,-1.79 -0.15,-2.39 -0.42,-4.76 -0.83,-7.09 -2.33,-13.19 -8.65,-23.72 -18.28,-30.47 -11.4,-7.98 -25.84,-9.51 -40.33,-5.59 z m 43.12,-18.76 c 3.57,1.61 7,3.53 10.21,5.78 3.22,2.25 6.2,4.81 8.93,7.62 1.7,-10.4 4.13,-20.63 7.22,-30.68 -8.38,6.34 -17.17,12.12 -26.36,17.28"
             inkscape:connector-curvature="0"
             id="path152"
             style="fill:#231f20;fill-opacity:1;fill-rule:nonzero;stroke:none" /><path
             d="m 313.453,2125.41 0,5641.69"
             inkscape:connector-curvature="0"
             id="path154"
             style="fill:none;stroke:#231f20;stroke-width:2;stroke-linecap:butt;stroke-linejoin:miter;stroke-miterlimit:4;stroke-opacity:1;stroke-dasharray:none" /><path
             d="M 4819.9,2096.95 1,2096.95"
             inkscape:connector-curvature="0"
             id="path156"
             style="fill:none;stroke:#231f20;stroke-width:2;stroke-linecap:butt;stroke-linejoin:miter;stroke-miterlimit:4;stroke-opacity:1;stroke-dasharray:none" /><path
             d="m 312.812,503.539 0,1565.071"
             inkscape:connector-curvature="0"
             id="path158"
             style="fill:none;stroke:#231f20;stroke-width:2;stroke-linecap:butt;stroke-linejoin:miter;stroke-miterlimit:4;stroke-opacity:1;stroke-dasharray:none" /><g
             transform="scale(10,10)"
             id="g160"><text
               transform="matrix(1,0,0,-1,444.75,785.505)"
               id="text162"><tspan
                 x="0 6.6719999 13.344"
                 y="0"
                 id="tspan164"
                 style="font-size:12px;font-variant:normal;font-weight:normal;writing-mode:lr-tb;fill:#231f20;fill-opacity:1;fill-rule:nonzero;stroke:none;font-family:Helvetica;-inkscape-font-specification:Helvetica">17 </tspan></text>
<text
               transform="matrix(1,0,0,-1,461.4301,785.505)"
               id="text166"><tspan
                 x="0 10.230078"
                 y="0"
                 id="tspan168"
                 style="font-size:11px;font-variant:normal;writing-mode:lr-tb;fill:#231f20;fill-opacity:1;fill-rule:nonzero;stroke:none;font-family:TakaoPGothic;-inkscape-font-specification:TakaoPGothic-90ms-RKSJ-H">項目</tspan></text>
<text
               transform="matrix(1,0,0,-1,9.8681,181.642)"
               id="text170"><tspan
                 x="0"
                 y="0"
                 id="tspan172"
                 style="font-size:12px;font-variant:normal;font-weight:normal;writing-mode:lr-tb;fill:#231f20;fill-opacity:1;fill-rule:nonzero;stroke:none;font-family:Helvetica;-inkscape-font-specification:Helvetica">C</tspan></text>
<text
               transform="matrix(1,0,0,-1,1.94662,195.3858)"
               id="text174"><tspan
                 x="0 8 16"
                 y="0"
                 id="tspan176"
                 style="font-size:8px;font-variant:normal;writing-mode:lr-tb;fill:#231f20;fill-opacity:1;fill-rule:nonzero;stroke:none;font-family:TakaoPGothic;-inkscape-font-specification:TakaoPGothic-90ms-RKSJ-H">推奨度</tspan></text>
<text
               transform="matrix(1,0,0,-1,68.70682,66.5728)"
               id="text178"><tspan
                 x="0 7 144.52901 151.52901 158.52901"
                 y="0"
                 id="tspan180"
                 style="font-size:7px;font-variant:normal;writing-mode:lr-tb;fill:#231f20;fill-opacity:1;fill-rule:nonzero;stroke:none;font-family:TakaoPGothic;-inkscape-font-specification:TakaoPGothic-90ms-RKSJ-H">公園博物館</tspan></text>
<text
               transform="matrix(1,0,0,-1,236.46182,66.5728)"
               id="text182"><tspan
                 x="0 2.2259991"
                 y="0"
                 id="tspan184"
                 style="font-size:7px;font-variant:normal;font-weight:normal;writing-mode:lr-tb;fill:#231f20;fill-opacity:1;fill-rule:nonzero;stroke:none;font-family:Helvetica;-inkscape-font-specification:Helvetica">/ </tspan></text>
<text
               transform="matrix(1,0,0,-1,240.91355,66.5728)"
               id="text186"><tspan
                 x="0 7 14"
                 y="0"
                 id="tspan188"
                 style="font-size:7px;font-variant:normal;writing-mode:lr-tb;fill:#231f20;fill-opacity:1;fill-rule:nonzero;stroke:none;font-family:TakaoPGothic;-inkscape-font-specification:TakaoPGothic-90ms-RKSJ-H">美術館</tspan></text>
<text
               transform="matrix(1,0,0,-1,68.70755,58.06889)"
               id="text190"><tspan
                 x="0 4.9488277 9.1207047 11.731643"
                 y="0"
                 id="tspan192"
                 style="font-size:7px;font-variant:normal;font-weight:normal;writing-mode:lr-tb;fill:#231f20;fill-opacity:1;fill-rule:nonzero;stroke:none;font-family:Helvetica;-inkscape-font-specification:Helvetica">Park</tspan></text>
</g><path
             d="m 687.066,807.461 c -34.238,0 -61.992,27.758 -61.992,62 l 0,867.929 c 0,34.24 27.754,62 61.992,62 l 867.934,0 c 34.24,0 61.99,-27.76 61.99,-62 l 0,-867.929 c 0,-34.242 -27.75,-62 -61.99,-62 l -867.934,0 z"
             inkscape:connector-curvature="0"
             id="path194"
             style="fill:none;stroke:#231f20;stroke-width:2;stroke-linecap:butt;stroke-linejoin:miter;stroke-miterlimit:4;stroke-opacity:1;stroke-dasharray:none" /><path
             d="m 1206.83,1076.31 35.21,128.9 257.46,0 -35.21,-128.9 37.61,-140.369 -34.33,0 -28.72,107.209 -69.27,0 -28.72,-107.209 -34.33,0 28.73,107.209 -85.22,0 28.73,-107.209 -34.33,0 -28.73,107.209 -69.25,0 -28.73,-107.209 -34.33,0 37.61,140.369 85.82,0 z m 44.88,40.47 -11.73,-40.44 191.36,0 11.74,40.44 -191.37,0"
             inkscape:connector-curvature="0"
             id="path196"
             style="fill:#231f20;fill-opacity:1;fill-rule:nonzero;stroke:none" /><path
             d="m 1171.08,1474.46 c 1.14,8.8 1.72,17.77 1.72,26.87 0,115.05 -93.26,208.31 -208.296,208.31 -115.047,0 -208.309,-93.26 -208.309,-208.31 0,-1.52 0.032,-3.03 0.059,-4.54 -39.621,-28.02 -65.524,-74.16 -65.524,-126.39 0,-85.46 69.282,-154.74 154.739,-154.74 10.222,0 20.211,1.01 29.875,2.9 l 48.117,-103.18 -18.477,-179.439 119.036,0 -23.22,220.879 57.45,108.04 c 16.46,-8.61 35.17,-13.49 55.04,-13.49 65.74,0 119.03,53.29 119.03,119.03 0,44.76 -24.72,83.73 -61.24,104.06 z M 900.742,1225.84 c 13.125,5.03 25.387,11.79 36.508,20.01 l -7.062,-66.48 -29.446,46.47 z m 93.711,-8.6 -8.09,76.98 c 10.614,1.11 21.007,2.97 31.087,5.61 5.79,-7.85 12.54,-14.93 20.04,-21.14 l -43.037,-61.45"
             inkscape:connector-curvature="0"
             id="path198"
             style="fill:#231f20;fill-opacity:1;fill-rule:nonzero;stroke:none" /><path
             d="m 2888.38,1507.87 -322.19,185.98 -322.19,-185.98 -74.58,0 0,-74.4 793.54,0 0,74.4 -74.58,0 z m -322.19,100.09 173.39,-100.09 -346.78,0 173.39,100.09"
             inkscape:connector-curvature="0"
             id="path200"
             style="fill:#231f20;fill-opacity:1;fill-rule:nonzero;stroke:none" /><path
             d="m 2325.31,1345.81 c -0.01,0.3 -0.05,0.58 -0.05,0.87 0,13.69 11.11,24.8 24.8,24.8 l 5.35,0 0,37.2 -136.39,0 0,-37.2 5.35,0 c 13.69,0 24.8,-11.11 24.8,-24.8 0,-0.29 -0.04,-0.57 -0.05,-0.87 l -11.01,-315.3 -25.29,0 0,-43.401 148.79,0 0,43.401 -25.29,0 -11.01,315.3"
             inkscape:connector-curvature="0"
             id="path202"
             style="fill:#231f20;fill-opacity:1;fill-rule:nonzero;stroke:none" /><path
             d="m 2511.29,1345.81 c -0.01,0.3 -0.04,0.58 -0.04,0.87 0,13.69 11.1,24.8 24.79,24.8 l 5.36,0 0,37.2 -136.4,0 0,-37.2 5.35,0 c 13.7,0 24.8,-11.11 24.8,-24.8 0,-0.29 -0.03,-0.57 -0.04,-0.87 l -11.02,-315.3 -25.28,0 0,-43.401 148.78,0 0,43.401 -25.29,0 -11.01,315.3"
             inkscape:connector-curvature="0"
             id="path204"
             style="fill:#231f20;fill-opacity:1;fill-rule:nonzero;stroke:none" /><path
             d="m 2697.28,1345.81 c -0.01,0.3 -0.04,0.58 -0.04,0.87 0,13.69 11.09,24.8 24.79,24.8 l 5.35,0 0,37.2 -136.39,0 0,-37.2 5.35,0 c 13.69,0 24.79,-11.11 24.79,-24.8 0,-0.29 -0.03,-0.57 -0.04,-0.87 l -11.01,-315.3 -25.29,0 0,-43.401 148.79,0 0,43.401 -25.29,0 -11.01,315.3"
             inkscape:connector-curvature="0"
             id="path206"
             style="fill:#231f20;fill-opacity:1;fill-rule:nonzero;stroke:none" /><path
             d="m 2894.28,1030.51 -11.02,315.3 c -0.01,0.3 -0.04,0.58 -0.04,0.87 0,13.69 11.1,24.8 24.8,24.8 l 5.34,0 0,37.2 -136.39,0 0,-37.2 5.35,0 c 13.7,0 24.8,-11.11 24.8,-24.8 0,-0.29 -0.04,-0.57 -0.04,-0.87 l -11.02,-315.3 -25.28,0 0,-43.401 148.79,0 0,43.401 -25.29,0"
             inkscape:connector-curvature="0"
             id="path208"
             style="fill:#231f20;fill-opacity:1;fill-rule:nonzero;stroke:none" /><path
             d="m 2169.42,925.121 793.539,0 0,37.1914 -793.539,0 0,-37.1914 z"
             inkscape:connector-curvature="0"
             id="path210"
             style="fill:#231f20;fill-opacity:1;fill-rule:nonzero;stroke:none" /><path
             d="m 2132.22,807.312 c -34.24,0 -62,27.758 -62,61.997 l 0,867.951 c 0,34.24 27.76,62 62,62 l 867.95,0 c 34.24,0 62,-27.76 62,-62 l 0,-867.951 c 0,-34.239 -27.76,-61.997 -62,-61.997 l -867.95,0 z"
             inkscape:connector-curvature="0"
             id="path212"
             style="fill:none;stroke:#231f20;stroke-width:2;stroke-linecap:butt;stroke-linejoin:miter;stroke-miterlimit:4;stroke-opacity:1;stroke-dasharray:none" /><g
             transform="scale(10,10)"
             id="g214"><text
               transform="matrix(1,0,0,-1,213.235,58.0691)"
               id="text216"><tspan
                 x="0 6.11094 10.282939 14.06289 18.23477 22.406769"
                 y="0"
                 id="tspan218"
                 style="font-size:7px;font-variant:normal;font-weight:normal;writing-mode:lr-tb;fill:#231f20;fill-opacity:1;fill-rule:nonzero;stroke:none;font-family:Helvetica;-inkscape-font-specification:Helvetica">Museum</tspan></text>
</g></g></g></g></g></svg>