<?xml version="1.0" encoding="UTF-8" standalone="no"?>
<!-- Created with Inkscape (http://www.inkscape.org/) -->

<svg
   xmlns:dc="http://purl.org/dc/elements/1.1/"
   xmlns:cc="http://creativecommons.org/ns#"
   xmlns:rdf="http://www.w3.org/1999/02/22-rdf-syntax-ns#"
   xmlns:svg="http://www.w3.org/2000/svg"
   xmlns="http://www.w3.org/2000/svg"
   xmlns:inkscape="http://www.inkscape.org/namespaces/inkscape"
   version="1.1"
   width="765"
   height="990"
   id="svg2"
   xml:space="preserve"><metadata
     id="metadata8"><rdf:RDF><cc:Work
         rdf:about=""><dc:format>image/svg+xml</dc:format><dc:type
           rdf:resource="http://purl.org/dc/dcmitype/StillImage" /></cc:Work></rdf:RDF></metadata><defs
     id="defs6"><clipPath
       id="clipPath18"><path
         d="m 0,0 4899.79,0 0,7920 L 0,7920 0,0 z"
         inkscape:connector-curvature="0"
         id="path20" /></clipPath></defs><g
     transform="matrix(1.25,0,0,-1.25,0,990)"
     id="g10"><g
       transform="scale(0.1,0.1)"
       id="g12"><g
         id="g14"><g
           clip-path="url(#clipPath18)"
           id="g16"><g
             transform="scale(10,10)"
             id="g22"><text
               transform="matrix(1,0,0,-1,43.9371,785.505)"
               id="text24"><tspan
                 x="0 12 21 29.880083 41.880085 53.880085 65.880081 77.880081"
                 y="0"
                 id="tspan26"
                 style="font-size:12px;font-variant:normal;writing-mode:lr-tb;fill:#231f20;fill-opacity:1;fill-rule:nonzero;stroke:none;font-family:TakaoPGothic;-inkscape-font-specification:TakaoPGothic-90ms-RKSJ-H">公共・一般施設 </tspan></text>
<text
               transform="matrix(1,0,0,-1,133.8172,785.505)"
               id="text28"><tspan
                 x="0 8.4839964 15.635992 22.787989 25.931984 29.075979 35.555977 39.371971 47.183968 54.335964 60.81596 63.959957 67.103951 70.247948 74.063942 77.207939 84.35994"
                 y="0"
                 id="tspan30"
                 style="font-size:12px;font-variant:normal;font-weight:normal;writing-mode:lr-tb;fill:#231f20;fill-opacity:1;fill-rule:nonzero;stroke:none;font-family:Helvetica;-inkscape-font-specification:Helvetica">Public Facilities</tspan></text>
</g><path
             d="m 135.41,7957.46 127.051,0 0,-119.22 -127.051,0 0,119.22 z m 73.598,-19.6 -13.57,0 c -2.661,-12.31 -11.333,-14.54 -22.387,-14.82 l 0,-10.36 19.726,0 0,-54.85 16.231,0 0,80.03"
             inkscape:connector-curvature="0"
             id="path32"
             style="fill:#231f20;fill-opacity:1;fill-rule:nonzero;stroke:none" /><path
             d="M 4818.9,7795.27 0,7795.27"
             inkscape:connector-curvature="0"
             id="path34"
             style="fill:none;stroke:#231f20;stroke-width:2;stroke-linecap:butt;stroke-linejoin:miter;stroke-miterlimit:4;stroke-opacity:1;stroke-dasharray:none" /><g
             transform="scale(10,10)"
             id="g36"><text
               transform="matrix(1,0,0,-1,67.7781,636.416)"
               id="text38"><tspan
                 x="0 5.4609766 10.920742 17.01207 145.368 152.368 289.897 296.897 303.547 310.19742"
                 y="0"
                 id="tspan40"
                 style="font-size:7px;font-variant:normal;writing-mode:lr-tb;fill:#231f20;fill-opacity:1;fill-rule:nonzero;stroke:none;font-family:TakaoPGothic;-inkscape-font-specification:TakaoPGothic-90ms-RKSJ-H">シャワー浴室水飲み場</tspan><tspan
                 x="-0.41999999 4.9004688 11.551016 17.99086 144.248 149.91792 156.00922 161.11984 167.28214 174.20941 181.20941 188.20941 195.20941 202.20941"
                 y="189.92101"
                 id="tspan42"
                 style="font-size:7px;font-variant:normal;writing-mode:lr-tb;fill:#231f20;fill-opacity:1;fill-rule:nonzero;stroke:none;font-family:TakaoPGothic;-inkscape-font-specification:TakaoPGothic-90ms-RKSJ-H">くず入れリサイクル品回収施設</tspan></text>
<text
               transform="matrix(1,0,0,-1,68.6181,627.912)"
               id="text44"><tspan
                 x="0 4.9489989 9.1209984 13.292997 18.6266 22.798868 144.5276 149.47643 153.64842 155.87448 289.05649 295.94437 300.11636 302.34238 306.51468 309.12561 311.35138 313.57758 317.74945 321.92133 326.09357 328.31955 332.49155 334.32559"
                 y="0"
                 id="tspan46"
                 style="font-size:7px;font-variant:normal;font-weight:normal;writing-mode:lr-tb;fill:#231f20;fill-opacity:1;fill-rule:nonzero;stroke:none;font-family:Helvetica;-inkscape-font-specification:Helvetica">ShowerBathWater fountain</tspan><tspan
                 x="-0.00039999999 4.5562387 7.1671801 11.339179 15.11952 19.291401 21.517399 25.68906 29.861328"
                 y="189.92101"
                 id="tspan48"
                 style="font-size:7px;font-variant:normal;font-weight:normal;writing-mode:lr-tb;fill:#231f20;fill-opacity:1;fill-rule:nonzero;stroke:none;font-family:Helvetica;-inkscape-font-specification:Helvetica">Trash box</tspan></text>
</g><path
             d="M 4818.9,340.16 4818.9,0"
             inkscape:connector-curvature="0"
             id="path50"
             style="fill:none;stroke:#231f20;stroke-width:2;stroke-linecap:butt;stroke-linejoin:miter;stroke-miterlimit:4;stroke-opacity:1;stroke-dasharray:none" /><g
             transform="scale(10,10)"
             id="g52"><text
               transform="matrix(1,0,0,-1,213.146,437.991)"
               id="text54"><tspan
                 x="0 5.3339806 9.5058603 11.339859 13.173858 17.345858 21.125856 23.351854 25.185961 29.357843 33.530117 35.755901 37.982059 42.15406 45.934059 47.768059 49.602055 51.436054 53.662159 57.441849 59.668022 61.893799 66.065796"
                 y="0"
                 id="tspan56"
                 style="font-size:7px;font-variant:normal;font-weight:normal;writing-mode:lr-tb;fill:#231f20;fill-opacity:1;fill-rule:nonzero;stroke:none;font-family:Helvetica;-inkscape-font-specification:Helvetica">Collection facility for</tspan><tspan
                 x="9.9999997e-05 2.2258852 6.39815 10.570149 12.7962 15.40714 19.57914 23.359091 27.13917 30.919168 32.753166 34.587219 38.759102 42.930984 45.157162 49.329021 51.940002 56.112221 60.2841 64.456131 68.23616 70.462189"
                 y="8.5"
                 id="tspan58"
                 style="font-size:7px;font-variant:normal;font-weight:normal;writing-mode:lr-tb;fill:#231f20;fill-opacity:1;fill-rule:nonzero;stroke:none;font-family:Helvetica;-inkscape-font-specification:Helvetica">the recycling products</tspan></text>
<text
               transform="matrix(1,0,0,-1,483.3071,29.764)"
               id="text60"><tspan
                 x="0 3.336"
                 y="0"
                 id="tspan62"
                 style="font-size:6px;font-variant:normal;font-weight:normal;writing-mode:lr-tb;fill:#231f20;fill-opacity:1;fill-rule:nonzero;stroke:none;font-family:Helvetica;-inkscape-font-specification:Helvetica">09</tspan></text>
<text
               transform="matrix(1,0,0,-1,10.0981,751.065)"
               id="text64"><tspan
                 x="0"
                 y="0"
                 id="tspan66"
                 style="font-size:12px;font-variant:normal;font-weight:normal;writing-mode:lr-tb;fill:#231f20;fill-opacity:1;fill-rule:nonzero;stroke:none;font-family:Helvetica;-inkscape-font-specification:Helvetica">B</tspan></text>
</g><path
             d="m 960.746,4928.32 41.914,-11.22 11.23,41.91 -41.917,11.23 -11.227,-41.92"
             inkscape:connector-curvature="0"
             id="path68"
             style="fill:#231f20;fill-opacity:1;fill-rule:nonzero;stroke:none" /><path
             d="m 1030.57,5085.71 -37.582,-21.69 21.702,-37.58 37.58,21.7 -21.7,37.57"
             inkscape:connector-curvature="0"
             id="path70"
             style="fill:#231f20;fill-opacity:1;fill-rule:nonzero;stroke:none" /><path
             d="m 961.277,5135.09 -37.578,-21.7 21.699,-37.57 37.582,21.69 -21.703,37.58"
             inkscape:connector-curvature="0"
             id="path72"
             style="fill:#231f20;fill-opacity:1;fill-rule:nonzero;stroke:none" /><path
             d="m 1088.88,4724.51 54.64,309.95 -43.39,0 -47,-266.56 -108.282,0 -46.996,266.56 -43.395,0 54.648,-309.95 179.775,0"
             inkscape:connector-curvature="0"
             id="path74"
             style="fill:#231f20;fill-opacity:1;fill-rule:nonzero;stroke:none" /><path
             d="m 1359.91,5147.26 c -2.08,11.89 -5.67,23.26 -10.55,33.91 l 0.03,0 c -38.74,84.31 -92.84,160.1 -158.69,223.82 -1.68,1.63 -3.93,2.64 -6.46,2.64 -3.12,0 -5.88,-1.55 -7.57,-3.91 -59.82,-83.32 -138.76,-151.98 -230.397,-199.59 l 30.227,-43.15 c 54.66,22.31 105.66,51.82 151.8,87.37 l 79.3,-88.05 -38.14,-435.79 64.78,0 54.89,258.19 80.56,-258.19 64.78,0 -74.56,422.75"
             inkscape:connector-curvature="0"
             id="path76"
             style="fill:#231f20;fill-opacity:1;fill-rule:nonzero;stroke:none" /><path
             d="m 1108.39,5385.16 c 34.24,0 61.99,27.76 61.99,62 0,34.23 -27.75,61.98 -61.99,61.98 -34.23,0 -61.99,-27.75 -61.99,-61.98 0,-34.24 27.76,-62 61.99,-62"
             inkscape:connector-curvature="0"
             id="path78"
             style="fill:#231f20;fill-opacity:1;fill-rule:nonzero;stroke:none" /><path
             d="m 685.902,4606.68 c -34.238,0 -61.992,27.76 -61.992,62 l 0,867.93 c 0,34.24 27.754,62 61.992,62 l 867.938,0 c 34.24,0 61.99,-27.76 61.99,-62 l 0,-867.93 c 0,-34.24 -27.75,-62 -61.99,-62 l -867.938,0 z"
             inkscape:connector-curvature="0"
             id="path80"
             style="fill:none;stroke:#231f20;stroke-width:2;stroke-linecap:butt;stroke-linejoin:miter;stroke-miterlimit:4;stroke-opacity:1;stroke-dasharray:none" /><path
             d="m 4104.98,7182.04 c -5.22,1.34 -10.54,-1.81 -11.88,-7.03 -1.34,-5.22 1.81,-10.54 7.03,-11.88 5.23,-1.34 10.54,1.8 11.88,7.03 1.34,5.22 -1.8,10.54 -7.03,11.88"
             inkscape:connector-curvature="0"
             id="path82"
             style="fill:#231f20;fill-opacity:1;fill-rule:nonzero;stroke:none" /><path
             d="m 4122.19,7209.62 c -4.34,3.2 -10.46,2.27 -13.65,-2.07 -3.2,-4.34 -2.28,-10.45 2.07,-13.65 4.34,-3.2 10.45,-2.27 13.65,2.07 3.2,4.34 2.27,10.45 -2.07,13.65"
             inkscape:connector-curvature="0"
             id="path84"
             style="fill:#231f20;fill-opacity:1;fill-rule:nonzero;stroke:none" /><path
             d="m 4249.57,7223.81 c -6.54,3.01 -14.27,0.14 -17.27,-6.39 -3,-6.53 -0.14,-14.26 6.39,-17.26 6.53,-3 14.26,-0.14 17.27,6.39 3,6.53 0.13,14.26 -6.39,17.26"
             inkscape:connector-curvature="0"
             id="path86"
             style="fill:#231f20;fill-opacity:1;fill-rule:nonzero;stroke:none" /><path
             d="m 4210.61,7244.01 c -6.81,-0.63 -11.82,-6.64 -11.19,-13.45 0.62,-6.8 6.64,-11.81 13.45,-11.18 6.8,0.62 11.81,6.64 11.18,13.44 -0.62,6.8 -6.64,11.81 -13.44,11.19"
             inkscape:connector-curvature="0"
             id="path88"
             style="fill:#231f20;fill-opacity:1;fill-rule:nonzero;stroke:none" /><path
             d="m 4173.66,7247.28 c -6.4,-0.92 -10.84,-6.87 -9.91,-13.27 0.92,-6.4 6.86,-10.85 13.27,-9.92 6.4,0.93 10.84,6.87 9.91,13.27 -0.92,6.41 -6.86,10.85 -13.27,9.92"
             inkscape:connector-curvature="0"
             id="path90"
             style="fill:#231f20;fill-opacity:1;fill-rule:nonzero;stroke:none" /><path
             d="m 4139.67,7235.42 c -6.01,-1.11 -9.98,-6.88 -8.88,-12.88 1.1,-6.02 6.88,-9.99 12.89,-8.89 6.01,1.11 9.98,6.88 8.88,12.89 -1.11,6.01 -6.88,9.98 -12.89,8.88"
             inkscape:connector-curvature="0"
             id="path92"
             style="fill:#231f20;fill-opacity:1;fill-rule:nonzero;stroke:none" /><path
             d="m 4098.8,7150.03 c -4.94,-0.98 -8.16,-5.76 -7.19,-10.7 0.97,-4.94 5.76,-8.16 10.7,-7.19 4.94,0.97 8.16,5.76 7.19,10.7 -0.97,4.94 -5.76,8.16 -10.7,7.19"
             inkscape:connector-curvature="0"
             id="path94"
             style="fill:#231f20;fill-opacity:1;fill-rule:nonzero;stroke:none" /><path
             d="m 3576.48,6505.89 c -34.23,0 -61.99,27.76 -61.99,62 l 0,867.93 c 0,34.23 27.76,61.99 61.99,61.99 l 867.93,0 c 34.24,0 61.99,-27.76 61.99,-61.99 l 0,-867.93 c 0,-34.24 -27.75,-62 -61.99,-62 l -867.93,0 z"
             inkscape:connector-curvature="0"
             id="path96"
             style="fill:none;stroke:#231f20;stroke-width:2;stroke-linecap:butt;stroke-linejoin:miter;stroke-miterlimit:4;stroke-opacity:1;stroke-dasharray:none" /><path
             d="m 4056.61,7119.64 0,-30.26 c 0,-14.84 6.52,-28.17 16.85,-37.26 l 149.64,-124.66 81.47,0 0,192.18 -247.96,0"
             inkscape:connector-curvature="0"
             id="path98"
             style="fill:#231f20;fill-opacity:1;fill-rule:nonzero;stroke:none" /><path
             d="m 4074.75,7352.04 c -34.21,1.19 -62.92,-25.58 -64.12,-59.79 -1.19,-34.21 25.58,-62.92 59.79,-64.11 34.22,-1.2 62.92,25.57 64.12,59.79 1.2,34.21 -25.58,62.91 -59.79,64.11"
             inkscape:connector-curvature="0"
             id="path100"
             style="fill:#231f20;fill-opacity:1;fill-rule:nonzero;stroke:none" /><path
             d="m 4019.41,7187.83 c 0,38.15 -17.25,72.27 -44.37,95.01 -1.6,1.31 -3.64,2.09 -5.87,2.09 -2.1,0 -4.04,-0.7 -5.6,-1.87 l -215.94,-162.71 c -18.74,-14.15 -30.86,-36.6 -30.86,-61.89 0,-4.59 0.42,-9.08 1.19,-13.46 l 72.09,-408.88 68.19,0 0,406.54 93.16,54.35 4.87,-42.93 c 1.76,-14.89 10.1,-27.76 22.05,-35.61 l 83.33,-54.08 42.67,24.7 -84.91,71.28 0,127.46"
             inkscape:connector-curvature="0"
             id="path102"
             style="fill:#231f20;fill-opacity:1;fill-rule:nonzero;stroke:none" /><path
             d="m 2069.47,6567.89 c 0,-34.24 27.76,-62 61.99,-62 l 867.92,0 c 34.24,0 62,27.76 62,62 l 0,867.92 c 0,34.24 -27.76,61.99 -62,61.99 l -867.92,0 c -34.23,0 -61.99,-27.75 -61.99,-61.99 l 0,-867.92 z"
             inkscape:connector-curvature="0"
             id="path104"
             style="fill:none;stroke:#231f20;stroke-width:2;stroke-linecap:butt;stroke-linejoin:miter;stroke-miterlimit:4;stroke-opacity:1;stroke-dasharray:none" /><path
             d="m 2796.85,7142.69 c 30.81,0 55.79,24.98 55.79,55.79 0,30.82 -24.98,55.8 -55.79,55.8 -30.82,0 -55.81,-24.98 -55.81,-55.8 0,-30.81 24.99,-55.79 55.81,-55.79"
             inkscape:connector-curvature="0"
             id="path106"
             style="fill:#231f20;fill-opacity:1;fill-rule:nonzero;stroke:none" /><path
             d="m 2929.96,7115.53 -11.84,-51.28 c -12.45,-7.7 -27.1,-12.16 -42.81,-12.16 -9.7,0 -19.02,1.7 -27.65,4.81 l 3.59,41.03 c 0.03,0.36 0.05,0.71 0.05,1.08 0,3.95 -1.85,7.49 -4.74,9.76 -13.69,10.75 -30.95,17.18 -49.71,17.18 -12.18,0 -23.72,-2.72 -34.07,-7.55 l -141.1,-65.79 c -18.6,2.06 -35.32,10.37 -48,22.79 l -9.67,0 c -14.71,-14.41 -34.85,-23.31 -57.08,-23.31 -22.22,0 -42.36,8.9 -57.08,23.31 l -9.66,0 c -14.72,-14.41 -34.86,-23.31 -57.08,-23.31 -22.23,0 -42.37,8.9 -57.09,23.31 l -9.66,0 c -14.71,-14.41 -34.86,-23.31 -57.08,-23.31 -16.86,0 -32.51,5.13 -45.52,13.89 l -11.43,49.55 -61.68,0 76.96,-333.36 c 6.1,-26.5 29.82,-46.28 58.18,-46.28 l 580.71,0 c 28.35,0 52.08,19.78 58.17,46.28 l 76.96,333.36 -61.67,0 z m -70.91,-307.15 c -1.38,-6.01 -6.75,-10.49 -13.17,-10.49 l -559.47,0 c -6.43,0 -11.8,4.48 -13.18,10.49 l -53.36,231.14 c 11.22,-7.67 24.78,-12.19 39.41,-12.19 26.87,0 50.2,15.17 61.91,37.41 11.71,-22.24 35.04,-37.41 61.92,-37.41 26.87,0 50.2,15.17 61.9,37.41 11.71,-22.24 35.04,-37.41 61.92,-37.41 26.88,0 50.21,15.17 61.91,37.41 5.52,-10.47 13.63,-19.35 23.45,-25.83 l -23.44,-10.93 0,-47.15 145.11,41.6 -6.73,-77.01 -117.26,18.57 c -3.16,0.5 -6.4,0.76 -9.7,0.76 -8.21,0 -16.04,-1.61 -23.21,-4.51 l -220.33,-89.01 29.57,-51.22 207.58,47.91 172.16,-46.12 c 5.02,-1.12 10.23,-1.73 15.59,-1.73 37.28,0 67.86,28.62 71.01,65.08 l 13.01,148.8 c 9.01,-4.23 19.05,-6.62 29.66,-6.62 13.45,0 26.02,3.8 36.68,10.39 l -52.94,-229.34"
             inkscape:connector-curvature="0"
             id="path108"
             style="fill:#231f20;fill-opacity:1;fill-rule:nonzero;stroke:none" /><path
             d="m 685.648,6505.89 c -34.246,0 -62.015,27.77 -62.015,62.02 l 0,868.19 c 0,34.25 27.769,62.01 62.015,62.01 l 868.192,0 c 34.25,0 62.01,-27.76 62.01,-62.01 l 0,-868.19 c 0,-34.25 -27.76,-62.02 -62.01,-62.02 l -868.192,0 z"
             inkscape:connector-curvature="0"
             id="path110"
             style="fill:none;stroke:#231f20;stroke-width:2;stroke-linecap:butt;stroke-linejoin:miter;stroke-miterlimit:4;stroke-opacity:1;stroke-dasharray:none" /><path
             d="m 1022.23,7216.55 c -0.03,7.04 5.67,12.79 12.7,12.82 3.4,0.01 6.61,-1.3 9.03,-3.7 2.42,-2.4 3.76,-5.6 3.78,-9 0.03,-7.03 -5.67,-12.78 -12.7,-12.81 -7.03,-0.03 -12.78,5.66 -12.81,12.69"
             inkscape:connector-curvature="0"
             id="path112"
             style="fill:#231f20;fill-opacity:1;fill-rule:nonzero;stroke:none" /><path
             d="m 984.086,7178.08 c -0.016,3.41 1.301,6.62 3.695,9.04 2.399,2.42 5.598,3.76 9.004,3.77 3.405,0.02 6.615,-1.3 9.035,-3.69 2.42,-2.41 3.76,-5.6 3.77,-9.01 0.02,-3.4 -1.29,-6.61 -3.69,-9.03 -2.4,-2.42 -5.6,-3.76 -9.005,-3.78 -7.032,-0.03 -12.778,5.67 -12.809,12.7"
             inkscape:connector-curvature="0"
             id="path114"
             style="fill:#231f20;fill-opacity:1;fill-rule:nonzero;stroke:none" /><path
             d="m 945.941,7139.61 c -0.011,3.4 1.301,6.61 3.7,9.03 2.402,2.42 5.593,3.76 9.004,3.77 3.402,0.02 6.609,-1.29 9.031,-3.69 2.422,-2.4 3.762,-5.6 3.773,-9.01 0.016,-3.4 -1.297,-6.61 -3.695,-9.03 -2.399,-2.42 -5.598,-3.76 -9.004,-3.77 -3.402,-0.02 -6.609,1.3 -9.031,3.7 -2.418,2.39 -3.762,5.59 -3.778,9"
             inkscape:connector-curvature="0"
             id="path116"
             style="fill:#231f20;fill-opacity:1;fill-rule:nonzero;stroke:none" /><path
             d="m 907.797,7101.13 c -0.027,7.03 5.672,12.78 12.699,12.81 3.406,0.01 6.613,-1.3 9.035,-3.7 2.418,-2.4 3.762,-5.59 3.774,-9 0.015,-3.41 -1.297,-6.62 -3.696,-9.03 -2.398,-2.42 -5.593,-3.76 -9.004,-3.78 -7.031,-0.03 -12.777,5.67 -12.808,12.7"
             inkscape:connector-curvature="0"
             id="path118"
             style="fill:#231f20;fill-opacity:1;fill-rule:nonzero;stroke:none" /><path
             d="m 869.652,7062.66 c -0.027,7.03 5.668,12.77 12.703,12.8 3.403,0.02 6.614,-1.3 9.032,-3.69 2.422,-2.4 3.758,-5.6 3.773,-9 0.016,-3.41 -1.297,-6.62 -3.695,-9.04 -2.399,-2.42 -5.598,-3.76 -9.004,-3.77 -7.031,-0.03 -12.773,5.66 -12.809,12.7"
             inkscape:connector-curvature="0"
             id="path120"
             style="fill:#231f20;fill-opacity:1;fill-rule:nonzero;stroke:none" /><path
             d="m 831.508,7024.18 c -0.016,3.41 1.301,6.62 3.695,9.03 2.402,2.42 5.598,3.76 9.008,3.78 7.027,0.03 12.777,-5.67 12.805,-12.7 0.031,-7.04 -5.664,-12.78 -12.7,-12.81 -3.402,-0.02 -6.613,1.3 -9.035,3.7 -2.414,2.39 -3.758,5.59 -3.773,9"
             inkscape:connector-curvature="0"
             id="path122"
             style="fill:#231f20;fill-opacity:1;fill-rule:nonzero;stroke:none" /><path
             d="m 793.363,6985.7 c -0.011,3.41 1.301,6.62 3.699,9.04 2.403,2.42 5.594,3.76 9,3.77 3.411,0.02 6.618,-1.3 9.036,-3.69 2.422,-2.4 3.757,-5.6 3.773,-9.01 0.016,-3.4 -1.297,-6.61 -3.695,-9.03 -2.399,-2.42 -5.598,-3.76 -9,-3.77 -7.031,-0.04 -12.778,5.66 -12.813,12.69"
             inkscape:connector-curvature="0"
             id="path124"
             style="fill:#231f20;fill-opacity:1;fill-rule:nonzero;stroke:none" /><path
             d="m 755.227,6947.23 c -0.024,3.4 1.293,6.61 3.691,9.03 2.398,2.42 5.594,3.76 9.004,3.78 7.027,0.03 12.777,-5.67 12.805,-12.7 0.015,-3.41 -1.297,-6.62 -3.696,-9.04 -2.398,-2.42 -5.593,-3.76 -9,-3.77 -7.035,-0.03 -12.777,5.66 -12.804,12.7"
             inkscape:connector-curvature="0"
             id="path126"
             style="fill:#231f20;fill-opacity:1;fill-rule:nonzero;stroke:none" /><path
             d="m 717.078,6908.75 c -0.012,3.41 1.297,6.62 3.699,9.04 2.399,2.42 5.594,3.75 8.996,3.77 7.036,0.03 12.782,-5.67 12.809,-12.7 0.016,-3.4 -1.293,-6.61 -3.695,-9.03 -2.399,-2.42 -5.594,-3.76 -9,-3.78 -7.032,-0.03 -12.778,5.67 -12.809,12.7"
             inkscape:connector-curvature="0"
             id="path128"
             style="fill:#231f20;fill-opacity:1;fill-rule:nonzero;stroke:none" /><path
             d="m 987.461,7254.59 c 1.191,6.93 7.797,11.6 14.729,10.41 6.93,-1.2 11.6,-7.8 10.41,-14.73 -0.58,-3.36 -2.43,-6.29 -5.21,-8.26 -2.79,-1.96 -6.16,-2.73 -9.523,-2.15 -6.929,1.19 -11.597,7.8 -10.406,14.73"
             inkscape:connector-curvature="0"
             id="path130"
             style="fill:#231f20;fill-opacity:1;fill-rule:nonzero;stroke:none" /><path
             d="m 943.215,7223.32 c 0.574,3.36 2.43,6.29 5.207,8.25 2.785,1.97 6.164,2.73 9.523,2.16 6.926,-1.19 11.598,-7.8 10.41,-14.73 -1.191,-6.93 -7.796,-11.6 -14.734,-10.41 -3.351,0.58 -6.285,2.43 -8.25,5.21 -1.969,2.78 -2.734,6.16 -2.156,9.52"
             inkscape:connector-curvature="0"
             id="path132"
             style="fill:#231f20;fill-opacity:1;fill-rule:nonzero;stroke:none" /><path
             d="m 898.969,7192.05 c 0.578,3.36 2.426,6.29 5.211,8.25 2.785,1.97 6.164,2.74 9.519,2.16 6.93,-1.19 11.598,-7.8 10.41,-14.73 -1.195,-6.93 -7.8,-11.6 -14.73,-10.41 -6.93,1.2 -11.602,7.8 -10.41,14.73"
             inkscape:connector-curvature="0"
             id="path134"
             style="fill:#231f20;fill-opacity:1;fill-rule:nonzero;stroke:none" /><path
             d="m 854.727,7160.79 c 1.191,6.92 7.796,11.59 14.73,10.41 6.93,-1.2 11.598,-7.81 10.406,-14.74 -0.578,-3.35 -2.425,-6.28 -5.211,-8.25 -2.777,-1.96 -6.16,-2.73 -9.515,-2.16 -3.36,0.58 -6.289,2.43 -8.258,5.21 -1.969,2.79 -2.731,6.17 -2.152,9.53"
             inkscape:connector-curvature="0"
             id="path136"
             style="fill:#231f20;fill-opacity:1;fill-rule:nonzero;stroke:none" /><path
             d="m 810.484,7129.52 c 1.192,6.93 7.797,11.6 14.727,10.41 6.934,-1.2 11.601,-7.8 10.41,-14.73 -1.191,-6.93 -7.801,-11.6 -14.726,-10.41 -6.934,1.19 -11.602,7.8 -10.411,14.73"
             inkscape:connector-curvature="0"
             id="path138"
             style="fill:#231f20;fill-opacity:1;fill-rule:nonzero;stroke:none" /><path
             d="m 766.234,7098.25 c 1.192,6.93 7.805,11.6 14.735,10.41 3.355,-0.58 6.289,-2.43 8.25,-5.21 1.969,-2.78 2.734,-6.16 2.16,-9.52 -0.578,-3.36 -2.43,-6.29 -5.211,-8.26 -2.785,-1.96 -6.164,-2.73 -9.523,-2.15 -6.926,1.19 -11.594,7.8 -10.411,14.73"
             inkscape:connector-curvature="0"
             id="path140"
             style="fill:#231f20;fill-opacity:1;fill-rule:nonzero;stroke:none" /><path
             d="m 721.992,7066.98 c 0.574,3.36 2.426,6.29 5.211,8.25 2.781,1.97 6.16,2.74 9.52,2.16 6.929,-1.19 11.597,-7.8 10.406,-14.73 -1.191,-6.93 -7.797,-11.6 -14.727,-10.41 -6.933,1.2 -11.601,7.8 -10.41,14.73"
             inkscape:connector-curvature="0"
             id="path142"
             style="fill:#231f20;fill-opacity:1;fill-rule:nonzero;stroke:none" /><path
             d="m 954.398,7293.52 c 1.153,3.2 3.485,5.77 6.571,7.22 3.074,1.46 6.535,1.62 9.746,0.47 3.207,-1.15 5.769,-3.48 7.223,-6.56 1.457,-3.08 1.617,-6.54 0.468,-9.75 -1.148,-3.21 -3.48,-5.78 -6.558,-7.23 -3.086,-1.45 -6.543,-1.62 -9.754,-0.46 -3.207,1.15 -5.77,3.48 -7.227,6.56 -1.449,3.08 -1.613,6.54 -0.469,9.75"
             inkscape:connector-curvature="0"
             id="path144"
             style="fill:#231f20;fill-opacity:1;fill-rule:nonzero;stroke:none" /><path
             d="m 905.398,7270.4 c 1.157,3.21 3.485,5.78 6.567,7.23 3.078,1.45 6.543,1.62 9.75,0.47 6.613,-2.38 10.066,-9.69 7.695,-16.31 -2.379,-6.62 -9.699,-10.07 -16.312,-7.7 -3.211,1.16 -5.774,3.49 -7.231,6.57 -1.453,3.08 -1.621,6.54 -0.469,9.74"
             inkscape:connector-curvature="0"
             id="path146"
             style="fill:#231f20;fill-opacity:1;fill-rule:nonzero;stroke:none" /><path
             d="m 856.402,7247.3 c 1.153,3.2 3.481,5.77 6.563,7.22 3.082,1.46 6.543,1.62 9.75,0.47 6.617,-2.38 10.066,-9.7 7.691,-16.31 -2.375,-6.62 -9.691,-10.07 -16.312,-7.7 -3.203,1.15 -5.774,3.48 -7.223,6.57 -1.457,3.07 -1.621,6.54 -0.469,9.75"
             inkscape:connector-curvature="0"
             id="path148"
             style="fill:#231f20;fill-opacity:1;fill-rule:nonzero;stroke:none" /><path
             d="m 807.402,7224.19 c 2.371,6.61 9.692,10.06 16.309,7.69 6.621,-2.38 10.074,-9.7 7.695,-16.31 -1.152,-3.21 -3.48,-5.78 -6.562,-7.23 -3.082,-1.45 -6.543,-1.62 -9.75,-0.47 -3.203,1.15 -5.774,3.49 -7.223,6.56 -1.453,3.09 -1.621,6.55 -0.469,9.76"
             inkscape:connector-curvature="0"
             id="path150"
             style="fill:#231f20;fill-opacity:1;fill-rule:nonzero;stroke:none" /><path
             d="m 758.402,7201.07 c 1.149,3.21 3.477,5.78 6.559,7.23 3.086,1.45 6.547,1.62 9.75,0.47 3.211,-1.15 5.773,-3.48 7.227,-6.56 1.457,-3.09 1.621,-6.55 0.468,-9.75 -1.152,-3.21 -3.48,-5.78 -6.562,-7.23 -3.078,-1.45 -6.543,-1.62 -9.75,-0.47 -3.203,1.15 -5.774,3.48 -7.227,6.56 -1.449,3.09 -1.617,6.55 -0.465,9.75"
             inkscape:connector-curvature="0"
             id="path152"
             style="fill:#231f20;fill-opacity:1;fill-rule:nonzero;stroke:none" /><path
             d="m 1058.45,7179.8 c -1.25,6.91 3.37,13.56 10.29,14.82 3.34,0.6 6.73,-0.14 9.53,-2.08 2.8,-1.94 4.68,-4.86 5.28,-8.2 1.25,-6.93 -3.36,-13.57 -10.28,-14.82 -3.35,-0.61 -6.74,0.13 -9.53,2.07 -2.81,1.94 -4.68,4.86 -5.29,8.21"
             inkscape:connector-curvature="0"
             id="path154"
             style="fill:#231f20;fill-opacity:1;fill-rule:nonzero;stroke:none" /><path
             d="m 1027.57,7135.29 c -0.61,3.35 0.13,6.73 2.07,9.53 1.94,2.8 4.86,4.68 8.21,5.28 3.35,0.61 6.74,-0.13 9.54,-2.07 2.8,-1.94 4.67,-4.86 5.28,-8.21 0.61,-3.35 -0.13,-6.74 -2.07,-9.54 -1.95,-2.8 -4.86,-4.67 -8.21,-5.28 -3.36,-0.6 -6.75,0.13 -9.54,2.07 -2.8,1.95 -4.68,4.86 -5.28,8.22"
             inkscape:connector-curvature="0"
             id="path156"
             style="fill:#231f20;fill-opacity:1;fill-rule:nonzero;stroke:none" /><path
             d="m 996.684,7090.77 c -0.606,3.35 0.132,6.74 2.07,9.54 1.946,2.8 4.856,4.67 8.216,5.28 6.92,1.25 13.56,-3.36 14.81,-10.29 1.26,-6.91 -3.36,-13.56 -10.28,-14.81 -6.92,-1.25 -13.566,3.36 -14.816,10.28"
             inkscape:connector-curvature="0"
             id="path158"
             style="fill:#231f20;fill-opacity:1;fill-rule:nonzero;stroke:none" /><path
             d="m 965.801,7046.26 c -1.25,6.92 3.363,13.56 10.277,14.81 6.926,1.26 13.57,-3.36 14.82,-10.27 1.254,-6.92 -3.359,-13.57 -10.277,-14.82 -6.922,-1.25 -13.57,3.36 -14.82,10.28"
             inkscape:connector-curvature="0"
             id="path160"
             style="fill:#231f20;fill-opacity:1;fill-rule:nonzero;stroke:none" /><path
             d="m 934.918,7001.74 c -0.606,3.36 0.125,6.74 2.07,9.55 1.942,2.79 4.86,4.67 8.211,5.27 6.918,1.25 13.567,-3.36 14.817,-10.28 0.605,-3.35 -0.129,-6.74 -2.071,-9.54 -1.945,-2.8 -4.859,-4.67 -8.211,-5.28 -3.351,-0.6 -6.742,0.13 -9.539,2.07 -2.797,1.95 -4.672,4.86 -5.277,8.21"
             inkscape:connector-curvature="0"
             id="path162"
             style="fill:#231f20;fill-opacity:1;fill-rule:nonzero;stroke:none" /><path
             d="m 904.031,6957.23 c -0.601,3.35 0.129,6.74 2.074,9.54 1.942,2.8 4.856,4.67 8.207,5.28 6.922,1.25 13.571,-3.36 14.821,-10.28 0.601,-3.35 -0.129,-6.74 -2.071,-9.54 -1.945,-2.8 -4.859,-4.68 -8.21,-5.28 -6.918,-1.25 -13.571,3.36 -14.821,10.28"
             inkscape:connector-curvature="0"
             id="path164"
             style="fill:#231f20;fill-opacity:1;fill-rule:nonzero;stroke:none" /><path
             d="m 873.148,6912.72 c -1.25,6.92 3.36,13.57 10.282,14.82 6.922,1.25 13.566,-3.37 14.816,-10.29 1.25,-6.91 -3.359,-13.56 -10.277,-14.81 -6.922,-1.25 -13.571,3.36 -14.821,10.28"
             inkscape:connector-curvature="0"
             id="path166"
             style="fill:#231f20;fill-opacity:1;fill-rule:nonzero;stroke:none" /><path
             d="m 842.266,6868.2 c -1.25,6.93 3.359,13.57 10.277,14.82 6.926,1.25 13.57,-3.36 14.82,-10.28 1.254,-6.92 -3.359,-13.56 -10.277,-14.82 -6.926,-1.25 -13.57,3.37 -14.82,10.28"
             inkscape:connector-curvature="0"
             id="path168"
             style="fill:#231f20;fill-opacity:1;fill-rule:nonzero;stroke:none" /><path
             d="m 811.383,6823.69 c -1.25,6.92 3.359,13.57 10.281,14.82 6.922,1.25 13.566,-3.36 14.816,-10.28 1.25,-6.92 -3.359,-13.57 -10.281,-14.82 -6.918,-1.25 -13.566,3.36 -14.816,10.28"
             inkscape:connector-curvature="0"
             id="path170"
             style="fill:#231f20;fill-opacity:1;fill-rule:nonzero;stroke:none" /><path
             d="m 780.496,6779.18 c -1.254,6.92 3.359,13.57 10.281,14.82 6.922,1.25 13.571,-3.36 14.821,-10.29 1.254,-6.91 -3.364,-13.56 -10.282,-14.81 -6.921,-1.25 -13.57,3.36 -14.82,10.28"
             inkscape:connector-curvature="0"
             id="path172"
             style="fill:#231f20;fill-opacity:1;fill-rule:nonzero;stroke:none" /><path
             d="m 1096.1,7144.35 c -2.43,6.6 0.96,13.94 7.56,16.38 3.2,1.17 6.66,1.04 9.75,-0.39 3.09,-1.43 5.45,-3.97 6.62,-7.17 2.44,-6.59 -0.95,-13.94 -7.54,-16.37 -6.6,-2.44 -13.95,0.95 -16.39,7.55"
             inkscape:connector-curvature="0"
             id="path174"
             style="fill:#231f20;fill-opacity:1;fill-rule:nonzero;stroke:none" /><path
             d="m 1073.42,7095.15 c -1.18,3.2 -1.04,6.66 0.38,9.75 1.43,3.1 3.98,5.45 7.17,6.63 3.2,1.17 6.66,1.04 9.76,-0.39 3.09,-1.43 5.44,-3.97 6.62,-7.17 2.44,-6.59 -0.95,-13.94 -7.55,-16.37 -3.2,-1.18 -6.66,-1.05 -9.76,0.38 -3.09,1.43 -5.44,3.97 -6.62,7.17"
             inkscape:connector-curvature="0"
             id="path176"
             style="fill:#231f20;fill-opacity:1;fill-rule:nonzero;stroke:none" /><path
             d="m 1050.73,7045.95 c -1.17,3.2 -1.04,6.66 0.39,9.75 1.42,3.1 3.97,5.45 7.17,6.63 3.19,1.18 6.66,1.04 9.75,-0.38 3.09,-1.43 5.45,-3.98 6.62,-7.17 1.18,-3.2 1.05,-6.66 -0.38,-9.76 -1.43,-3.09 -3.97,-5.44 -7.17,-6.62 -6.59,-2.44 -13.94,0.96 -16.38,7.55"
             inkscape:connector-curvature="0"
             id="path178"
             style="fill:#231f20;fill-opacity:1;fill-rule:nonzero;stroke:none" /><path
             d="m 1028.05,6996.75 c -2.43,6.6 0.95,13.95 7.55,16.38 3.19,1.18 6.66,1.05 9.75,-0.38 3.1,-1.43 5.45,-3.97 6.63,-7.17 2.43,-6.6 -0.95,-13.95 -7.55,-16.38 -6.6,-2.43 -13.95,0.96 -16.38,7.55"
             inkscape:connector-curvature="0"
             id="path180"
             style="fill:#231f20;fill-opacity:1;fill-rule:nonzero;stroke:none" /><path
             d="m 1005.36,6947.55 c -2.43,6.6 0.96,13.95 7.56,16.38 6.59,2.44 13.94,-0.95 16.37,-7.55 2.44,-6.6 -0.95,-13.94 -7.55,-16.38 -6.6,-2.43 -13.94,0.96 -16.38,7.55"
             inkscape:connector-curvature="0"
             id="path182"
             style="fill:#231f20;fill-opacity:1;fill-rule:nonzero;stroke:none" /><path
             d="m 982.676,6898.36 c -2.434,6.59 0.953,13.94 7.554,16.38 6.594,2.43 13.94,-0.96 16.38,-7.56 1.17,-3.19 1.04,-6.66 -0.39,-9.75 -1.43,-3.1 -3.97,-5.45 -7.165,-6.63 -6.598,-2.43 -13.95,0.96 -16.379,7.56"
             inkscape:connector-curvature="0"
             id="path184"
             style="fill:#231f20;fill-opacity:1;fill-rule:nonzero;stroke:none" /><path
             d="m 959.988,6849.16 c -2.429,6.6 0.957,13.94 7.555,16.38 6.598,2.43 13.945,-0.96 16.379,-7.56 1.18,-3.19 1.039,-6.66 -0.387,-9.75 -1.426,-3.09 -3.969,-5.45 -7.168,-6.62 -6.597,-2.44 -13.945,0.95 -16.379,7.55"
             inkscape:connector-curvature="0"
             id="path186"
             style="fill:#231f20;fill-opacity:1;fill-rule:nonzero;stroke:none" /><path
             d="m 937.305,6799.96 c -2.434,6.6 0.957,13.95 7.554,16.38 6.594,2.43 13.946,-0.96 16.375,-7.55 1.176,-3.2 1.039,-6.66 -0.382,-9.76 -1.426,-3.09 -3.973,-5.44 -7.168,-6.62 -6.598,-2.44 -13.95,0.95 -16.379,7.55"
             inkscape:connector-curvature="0"
             id="path188"
             style="fill:#231f20;fill-opacity:1;fill-rule:nonzero;stroke:none" /><path
             d="m 914.617,6750.76 c -2.429,6.6 0.957,13.95 7.555,16.38 6.598,2.43 13.945,-0.95 16.379,-7.55 1.176,-3.2 1.039,-6.66 -0.387,-9.76 -1.426,-3.09 -3.969,-5.44 -7.168,-6.62 -6.598,-2.43 -13.945,0.95 -16.379,7.55"
             inkscape:connector-curvature="0"
             id="path190"
             style="fill:#231f20;fill-opacity:1;fill-rule:nonzero;stroke:none" /><path
             d="m 891.934,6701.56 c -2.43,6.6 0.957,13.95 7.554,16.38 6.598,2.43 13.946,-0.95 16.375,-7.55 1.18,-3.2 1.047,-6.66 -0.379,-9.76 -1.429,-3.09 -3.976,-5.44 -7.168,-6.62 -6.601,-2.43 -13.945,0.95 -16.382,7.55"
             inkscape:connector-curvature="0"
             id="path192"
             style="fill:#231f20;fill-opacity:1;fill-rule:nonzero;stroke:none" /><path
             d="m 869.246,6652.36 c -2.43,6.6 0.957,13.95 7.555,16.38 6.597,2.44 13.945,-0.95 16.379,-7.55 1.179,-3.2 1.043,-6.66 -0.383,-9.75 -1.43,-3.1 -3.973,-5.45 -7.168,-6.63 -6.602,-2.43 -13.945,0.96 -16.383,7.55"
             inkscape:connector-curvature="0"
             id="path194"
             style="fill:#231f20;fill-opacity:1;fill-rule:nonzero;stroke:none" /><path
             d="m 749.613,6734.66 c -1.25,6.92 3.36,13.57 10.282,14.82 6.921,1.25 13.566,-3.36 14.816,-10.28 1.25,-6.92 -3.359,-13.57 -10.277,-14.82 -6.918,-1.25 -13.571,3.36 -14.821,10.28"
             inkscape:connector-curvature="0"
             id="path196"
             style="fill:#231f20;fill-opacity:1;fill-rule:nonzero;stroke:none" /><path
             d="m 1388.24,6611.29 72.6211,0 0,261.812 -72.6211,0 0,-261.812 z"
             inkscape:connector-curvature="0"
             id="path198"
             style="fill:#231f20;fill-opacity:1;fill-rule:nonzero;stroke:none" /><path
             d="m 1388.24,6897.9 72.62,0 0,59.71 c 0,231.16 -185.53,418.99 -415.8,422.71 l -41.24,-41.14 c 18.43,-30.85 40.55,-59.98 67.11,-86.54 26.85,-26.85 56.27,-49.54 87.48,-68.07 l 41.26,41.39 c 15.44,-9.41 30.27,-19.02 44.5,-30.75 41.79,-34.45 75.57,-76.03 100.39,-123.56 23.99,-45.95 38.69,-95.55 43.68,-147.42 l 0,-26.33"
             inkscape:connector-curvature="0"
             id="path200"
             style="fill:#231f20;fill-opacity:1;fill-rule:nonzero;stroke:none" /><path
             d="m 2131.46,4606.68 c -34.23,0 -61.99,27.76 -61.99,62 l 0,867.93 c 0,34.24 27.76,62 61.99,62 l 867.94,0 c 34.24,0 62,-27.76 62,-62 l 0,-867.93 c 0,-34.24 -27.76,-62 -62,-62 l -867.94,0 z"
             inkscape:connector-curvature="0"
             id="path202"
             style="fill:none;stroke:#231f20;stroke-width:2;stroke-linecap:butt;stroke-linejoin:miter;stroke-miterlimit:4;stroke-opacity:1;stroke-dasharray:none" /><path
             d="m 2188.76,5043.7 c -15.14,-26.31 -15.13,-58.94 0.02,-85.17 l 63.27,-109.51 c 1.18,13.04 4.78,25.91 10.85,37.86 l -0.12,0.2 2.69,4.67 75.5,130.88 47.1,-26.64 -49.75,165.1 -167.67,-39.52 47.96,-27.92 -29.85,-49.95"
             inkscape:connector-curvature="0"
             id="path204"
             style="fill:#231f20;fill-opacity:1;fill-rule:nonzero;stroke:none" /><path
             d="m 2284.6,4887.01 0,0 -2.68,-4.67 c -15.14,-26.31 -15.14,-58.94 0.01,-85.16 15.15,-26.22 43.42,-42.53 73.78,-42.55 0,0 3.34,0 4.88,-0.01 l 185.14,0.07 0,141.98 -255.39,0.28 -5.74,-9.94"
             inkscape:connector-curvature="0"
             id="path206"
             style="fill:#231f20;fill-opacity:1;fill-rule:nonzero;stroke:none" /><path
             d="m 2774.59,4754.67 c 30.36,0.05 58.62,16.36 73.75,42.6 l 63.21,109.55 c -11.89,-5.5 -24.83,-8.81 -38.21,-9.54 l -0.12,-0.2 -5.39,0 -151.08,-0.05 -0.49,54.1 -118.11,-125.63 118.06,-125.45 0.2,55.5 58.18,-0.88"
             inkscape:connector-curvature="0"
             id="path208"
             style="fill:#231f20;fill-opacity:1;fill-rule:nonzero;stroke:none" /><path
             d="m 2862.37,4916.01 0.01,0.01 5.38,0 c 30.36,0.04 58.61,16.37 73.74,42.6 15.14,26.23 15.13,58.86 -0.04,85.16 0,0 -1.67,2.9 -2.43,4.23 l -92.62,160.3 -122.96,-70.98 127.44,-221.32 11.48,0"
             inkscape:connector-curvature="0"
             id="path210"
             style="fill:#231f20;fill-opacity:1;fill-rule:nonzero;stroke:none" /><path
             d="m 2732.37,5406.39 c -15.21,26.26 -43.47,42.57 -73.76,42.56 l -126.48,-0.03 c 10.71,-7.54 20.05,-17.1 27.37,-28.32 l 0.24,-0.01 2.69,-4.66 75.59,-130.81 -46.61,-27.48 167.84,-39.48 49.62,164.97 -48.16,-27.57 -28.34,50.83"
             inkscape:connector-curvature="0"
             id="path212"
             style="fill:#231f20;fill-opacity:1;fill-rule:nonzero;stroke:none" /><path
             d="m 2548.76,5401.74 -0.01,0 -2.69,4.66 c -15.21,26.26 -43.48,42.57 -73.76,42.56 -30.28,-0.01 -58.54,-16.33 -73.74,-42.61 0,0 -1.67,-2.89 -2.44,-4.22 l -92.52,-160.37 122.96,-70.99 127.94,221.03 -5.74,9.94"
             inkscape:connector-curvature="0"
             id="path214"
             style="fill:#231f20;fill-opacity:1;fill-rule:nonzero;stroke:none" /><path
             d="m 311.367,510.191 0,7256.699"
             inkscape:connector-curvature="0"
             id="path216"
             style="fill:none;stroke:#231f20;stroke-width:2;stroke-linecap:butt;stroke-linejoin:miter;stroke-miterlimit:4;stroke-opacity:1;stroke-dasharray:none" /><g
             transform="scale(10,10)"
             id="g218"><text
               transform="matrix(1,0,0,-1,2.09648,764.809)"
               id="text220"><tspan
                 x="0 8 16"
                 y="0"
                 id="tspan222"
                 style="font-size:8px;font-variant:normal;writing-mode:lr-tb;fill:#231f20;fill-opacity:1;fill-rule:nonzero;stroke:none;font-family:TakaoPGothic;-inkscape-font-specification:TakaoPGothic-90ms-RKSJ-H">推奨度</tspan></text>
</g></g></g></g></g></svg>