<?xml version="1.0" encoding="UTF-8" standalone="no"?>
<!-- Created with Inkscape (http://www.inkscape.org/) -->

<svg
   xmlns:dc="http://purl.org/dc/elements/1.1/"
   xmlns:cc="http://creativecommons.org/ns#"
   xmlns:rdf="http://www.w3.org/1999/02/22-rdf-syntax-ns#"
   xmlns:svg="http://www.w3.org/2000/svg"
   xmlns="http://www.w3.org/2000/svg"
   xmlns:inkscape="http://www.inkscape.org/namespaces/inkscape"
   version="1.1"
   width="765"
   height="990"
   id="svg2"
   xml:space="preserve"><metadata
     id="metadata8"><rdf:RDF><cc:Work
         rdf:about=""><dc:format>image/svg+xml</dc:format><dc:type
           rdf:resource="http://purl.org/dc/dcmitype/StillImage" /></cc:Work></rdf:RDF></metadata><defs
     id="defs6"><clipPath
       id="clipPath18"><path
         d="m 0,0 4899.79,0 0,7920 L 0,7920 0,0 z"
         inkscape:connector-curvature="0"
         id="path20" /></clipPath></defs><g
     transform="matrix(1.25,0,0,-1.25,0,990)"
     id="g10"><g
       transform="scale(0.1,0.1)"
       id="g12"><g
         id="g14"><g
           clip-path="url(#clipPath18)"
           id="g16"><g
             transform="scale(10,10)"
             id="g22"><text
               transform="matrix(1,0,0,-1,43.9371,785.505)"
               id="text24"><tspan
                 x="0 12 21 29.880083 41.880085 50.880085 58.799999 69.481247 80.03891 89.999771 101.28172 113.28172 125.28172"
                 y="0"
                 id="tspan26"
                 style="font-size:12px;font-variant:normal;writing-mode:lr-tb;fill:#231f20;fill-opacity:1;fill-rule:nonzero;stroke:none;font-family:TakaoPGothic;-inkscape-font-specification:TakaoPGothic-90ms-RKSJ-H">観光・文化・スポーツ施設 </tspan></text>
<text
               transform="matrix(1,0,0,-1,181.2171,785.505)"
               id="text28"><tspan
                 x="0 7.811996 14.963992 22.115988 26.591984 29.735979 36.215977 46.691971 50.507969 54.323963 63.46796 70.619957 73.763954 77.579948 84.731941 89.207939 96.35994 100.17593 103.99193 112.47592 119.62792 126.77991 131.25591 135.07191 138.88791 146.69991 153.8519 160.33189 163.47589 166.61989 169.76389 173.57988 176.72388 183.87587"
                 y="0"
                 id="tspan30"
                 style="font-size:12px;font-variant:normal;font-weight:normal;writing-mode:lr-tb;fill:#231f20;fill-opacity:1;fill-rule:nonzero;stroke:none;font-family:Helvetica;-inkscape-font-specification:Helvetica">Tourism, Culture, Sport Facilities</tspan></text>
</g><path
             d="m 135.41,7957.46 127.051,0 0,-119.22 -127.051,0 0,119.22 z m 81.578,-82.7 11.047,0 0,12.04 -11.047,0 0,51.07 -14.972,0 -39.461,-49.26 0,-13.85 39.039,0 0,-16.93 15.394,0 0,16.93 z m -15.676,42.68 0.282,0 0,-30.64 -24.485,0 24.203,30.64"
             inkscape:connector-curvature="0"
             id="path32"
             style="fill:#231f20;fill-opacity:1;fill-rule:nonzero;stroke:none" /><path
             d="M 4818.9,7795.28 0,7795.28"
             inkscape:connector-curvature="0"
             id="path34"
             style="fill:none;stroke:#231f20;stroke-width:2;stroke-linecap:butt;stroke-linejoin:miter;stroke-miterlimit:4;stroke-opacity:1;stroke-dasharray:none" /><path
             d="m 311.812,5924.41 0,1842.52"
             inkscape:connector-curvature="0"
             id="path36"
             style="fill:none;stroke:#231f20;stroke-width:2;stroke-linecap:butt;stroke-linejoin:miter;stroke-miterlimit:4;stroke-opacity:1;stroke-dasharray:none" /><path
             d="m 311.812,510.242 0,5357.478"
             inkscape:connector-curvature="0"
             id="path38"
             style="fill:none;stroke:#231f20;stroke-width:2;stroke-linecap:butt;stroke-linejoin:miter;stroke-miterlimit:4;stroke-opacity:1;stroke-dasharray:none" /><g
             transform="scale(10,10)"
             id="g40"><text
               transform="matrix(1,0,0,-1,68.6184,636.417)"
               id="text42"><tspan
                 x="0 7 14 21 28 35 144.5276 151.5276 158.5276"
                 y="0"
                 id="tspan44"
                 style="font-size:7px;font-variant:normal;writing-mode:lr-tb;fill:#231f20;fill-opacity:1;fill-rule:nonzero;stroke:none;font-family:TakaoPGothic;-inkscape-font-specification:TakaoPGothic-90ms-RKSJ-H">歴史的建造物応用例</tspan></text>
<text
               transform="matrix(1,0,0,-1,236.0924,636.417)"
               id="text46"><tspan
                 x="0"
                 y="0"
                 id="tspan48"
                 style="font-size:7px;font-variant:normal;font-weight:normal;writing-mode:lr-tb;fill:#231f20;fill-opacity:1;fill-rule:nonzero;stroke:none;font-family:Helvetica;-inkscape-font-specification:Helvetica">1</tspan></text>
<text
               transform="matrix(1,0,0,-1,357.6754,636.417)"
               id="text50"><tspan
                 x="0 7 14"
                 y="0"
                 id="tspan52"
                 style="font-size:7px;font-variant:normal;writing-mode:lr-tb;fill:#231f20;fill-opacity:1;fill-rule:nonzero;stroke:none;font-family:TakaoPGothic;-inkscape-font-specification:TakaoPGothic-90ms-RKSJ-H">応用例</tspan></text>
<text
               transform="matrix(1,0,0,-1,380.6214,636.417)"
               id="text54"><tspan
                 x="0"
                 y="0"
                 id="tspan56"
                 style="font-size:7px;font-variant:normal;font-weight:normal;writing-mode:lr-tb;fill:#231f20;fill-opacity:1;fill-rule:nonzero;stroke:none;font-family:Helvetica;-inkscape-font-specification:Helvetica">2</tspan></text>
<text
               transform="matrix(1,0,0,-1,68.1984,446.495)"
               id="text58"><tspan
                 x="0 6.5800786 13.580078 20.580078 144.388 150.61876 156.77769 162.58786 169.16904 176.16904 288.91803 294.65894 299.97971 305.16003 311.04095 316.43228 322.38159 326.79218"
                 y="0"
                 id="tspan60"
                 style="font-size:7px;font-variant:normal;writing-mode:lr-tb;fill:#231f20;fill-opacity:1;fill-rule:nonzero;stroke:none;font-family:TakaoPGothic;-inkscape-font-specification:TakaoPGothic-90ms-RKSJ-H">自然保護スポーツ活動スカッシュコート</tspan><tspan
                 x="0.417 3.7793379 10.009553 15.399805 20.649805 25.061331 144.948 151.948 158.248 164.89946 170.77954 176.02954 180.44107"
                 y="189.92101"
                 id="tspan62"
                 style="font-size:7px;font-variant:normal;writing-mode:lr-tb;fill:#231f20;fill-opacity:1;fill-rule:nonzero;stroke:none;font-family:TakaoPGothic;-inkscape-font-specification:TakaoPGothic-90ms-RKSJ-H">Tバーリフト腰掛け式リフト</tspan></text>
<text
               transform="matrix(1,0,0,-1,68.6184,627.913)"
               id="text64"><tspan
                 x="0 5.33359 7.1675892 10.947588 13.173587 17.345587 19.956585 21.790585 25.570583 29.742582 31.57658 33.802582 39.913578 44.08559 48.257858 52.429859 58.540859 62.712559 66.884819 144.52812 148.30786 152.47986 155.09085 156.92485 161.09656 165.26883 167.49483 169.72078 289.05679 292.83685 297.00885 299.61987 301.45386 305.62595 309.79785 312.02383 314.24979"
                 y="0"
                 id="tspan66"
                 style="font-size:7px;font-variant:normal;font-weight:normal;writing-mode:lr-tb;fill:#231f20;fill-opacity:1;fill-rule:nonzero;stroke:none;font-family:Helvetica;-inkscape-font-specification:Helvetica">Historical monumentvariant 1variant 2</tspan><tspan
                 x="-0.00021 5.3333802 9.5053787 11.731378 15.903377 18.514376 22.686375 24.912374 27.523373 31.695372 35.475372 39.647369 42.258381 46.03846 50.210327 144.52737 149.47638 153.64838 157.82037 160.43138 162.65738 164.49149 168.66336 172.83524 175.06123 179.23323 183.01323 185.23923 187.07353 190.85323 192.68719 194.91316 196.74713 200.9191 204.69933 289.0563 294.00516 298.17743 302.34943 306.52142 310.30121 314.47348 316.69949 320.47952 324.65152 328.82355 331.43457 333.66058"
                 y="189.92101"
                 id="tspan68"
                 style="font-size:7px;font-variant:normal;font-weight:normal;writing-mode:lr-tb;fill:#231f20;fill-opacity:1;fill-rule:nonzero;stroke:none;font-family:Helvetica;-inkscape-font-specification:Helvetica">Nature reserve Sporting activities Squash court </tspan><tspan
                 x="-0.00050999998 4.556489 6.7823 10.95418 15.126179 17.737179 19.963177 21.797176 23.63118 25.856958 28.083128"
                 y="379.84299"
                 id="tspan70"
                 style="font-size:7px;font-variant:normal;font-weight:normal;writing-mode:lr-tb;fill:#231f20;fill-opacity:1;fill-rule:nonzero;stroke:none;font-family:Helvetica;-inkscape-font-specification:Helvetica">T bar lift </tspan></text>
</g><path
             d="M 4818.9,340.16 4818.9,0"
             inkscape:connector-curvature="0"
             id="path72"
             style="fill:none;stroke:#231f20;stroke-width:2;stroke-linecap:butt;stroke-linejoin:miter;stroke-miterlimit:4;stroke-opacity:1;stroke-dasharray:none" /><g
             transform="scale(10,10)"
             id="g74"><text
               transform="matrix(1,0,0,-1,213.146,248.07)"
               id="text76"><tspan
                 x="0 5.3339806 9.5058603 13.677859 15.511858 18.122856 19.956856 21.791059 24.016846 26.243021"
                 y="0"
                 id="tspan78"
                 style="font-size:7px;font-variant:normal;font-weight:normal;writing-mode:lr-tb;fill:#231f20;fill-opacity:1;fill-rule:nonzero;stroke:none;font-family:Helvetica;-inkscape-font-specification:Helvetica">Chairlift </tspan></text>
</g><path
             d="M 4818.9,5896.07 0,5896.07"
             inkscape:connector-curvature="0"
             id="path80"
             style="fill:none;stroke:#231f20;stroke-width:2;stroke-linecap:butt;stroke-linejoin:miter;stroke-miterlimit:4;stroke-opacity:1;stroke-dasharray:none" /><g
             transform="scale(10,10)"
             id="g82"><text
               transform="matrix(1,0,0,-1,483.307,29.7641)"
               id="text84"><tspan
                 x="0 3.336"
                 y="0"
                 id="tspan86"
                 style="font-size:6px;font-variant:normal;font-weight:normal;writing-mode:lr-tb;fill:#231f20;fill-opacity:1;fill-rule:nonzero;stroke:none;font-family:Helvetica;-inkscape-font-specification:Helvetica">14</tspan></text>
<text
               transform="matrix(1,0,0,-1,9.768,751.4751)"
               id="text88"><tspan
                 x="0"
                 y="0"
                 id="tspan90"
                 style="font-size:12px;font-variant:normal;font-weight:normal;writing-mode:lr-tb;fill:#231f20;fill-opacity:1;fill-rule:nonzero;stroke:none;font-family:Helvetica;-inkscape-font-specification:Helvetica">C</tspan></text>
<text
               transform="matrix(1,0,0,-1,1.84691,765.2189)"
               id="text92"><tspan
                 x="0 8 16"
                 y="0"
                 id="tspan94"
                 style="font-size:8px;font-variant:normal;writing-mode:lr-tb;fill:#231f20;fill-opacity:1;fill-rule:nonzero;stroke:none;font-family:TakaoPGothic;-inkscape-font-specification:TakaoPGothic-90ms-RKSJ-H">推奨度</tspan></text>
</g><path
             d="m 623.879,4606.37 992.371,0 0,992.371 -992.371,0 0,-992.371 z"
             inkscape:connector-curvature="0"
             id="path96"
             style="fill:none;stroke:#231f20;stroke-width:2;stroke-linecap:butt;stroke-linejoin:miter;stroke-miterlimit:4;stroke-opacity:1;stroke-dasharray:none" /><path
             d="m 1444.94,5118.66 c -0.31,7.07 -1.78,14.52 -3.3,20.41 21.01,1.72 42.7,16.75 48.65,34.57 1.52,4.59 -0.96,9.55 -5.54,11.08 -4.58,1.52 -9.54,-0.95 -11.07,-5.54 -4,-12.01 -21.16,-22.95 -35.96,-22.95 l -22.43,0 c -13.99,4.24 -32.18,15.06 -41.63,42.59 -1.56,4.58 -6.55,7.01 -11.11,5.46 -4.57,-1.58 -7.01,-6.56 -5.44,-11.13 5.81,-16.96 14.57,-28.64 23.77,-36.92 l -28.27,0 c -23.97,0 -60.19,20.61 -60.19,51.67 0,4.84 -3.92,8.76 -8.75,8.76 -4.85,0 -8.76,-3.92 -8.76,-8.76 0,-42.85 45.26,-69.18 77.7,-69.18 l 80.08,0 c 1.53,-5.59 3.18,-13.17 3.55,-20.06 -25.72,0 -55.19,0 -64.43,0 -1.01,-24.61 41.02,-33.45 41.02,-33.45 l -48.97,-72.7 c 0,0 -190.04,0 -200.18,0 -10.14,0 -18.04,-3.45 -21.89,-7.57 -3.87,-4.11 -46.85,-48.95 -46.85,-48.95 l 15.69,-18.43 1.1,-25.17 17.51,-25.16 -37.2,-38.67 0,-157.19 25.24,0 0,131.3 22.9,17.5 63.46,-148.8 27.04,0 -54.4,158.65 14.22,32.15 c 38.48,0 125.61,0 156.97,0 l -35.51,-190.8 24.79,0 33.01,161.69 45.87,-162.06 27.05,0 -53.03,195.14 c 13.31,9.27 23.55,33.73 28.38,46.43 7.12,18.78 48.1,121.49 48.1,121.49 l 73.83,45.11 0,19.49 c 0,0 -58.63,0 -95.02,0"
             inkscape:connector-curvature="0"
             id="path98"
             style="fill:#231f20;fill-opacity:1;fill-rule:nonzero;stroke:none" /><path
             d="m 1176.28,5372.31 c 0,51.1 -34.23,109.42 -126.91,109.42 -4.73,0 -9.37,-0.27 -13.98,-0.7 -10.45,37.16 -44.202,60.51 -99.824,60.51 -55.609,0 -89.355,-23.35 -99.824,-60.51 -4.597,0.43 -9.254,0.7 -13.969,0.7 -92.695,0 -126.925,-58.32 -126.925,-109.42 0,-25.98 10.55,-49.8 28.097,-68.57 -17.547,-18.76 -28.097,-42.59 -28.097,-68.57 0,-60.43 56.828,-109.41 126.925,-109.41 3.086,0 5.981,0.48 9.008,0.66 22.828,-31.02 52.231,-75.47 63.926,-108.62 l 0,-329.71 81.719,0 0,329.71 c 11.695,33.15 41.094,77.6 63.924,108.62 3.03,-0.18 5.93,-0.66 9.02,-0.66 70.09,0 126.91,48.98 126.91,109.41 0,25.98 -10.55,49.81 -28.08,68.57 17.53,18.77 28.08,42.59 28.08,68.57 z M 935.566,5029.47 c -8.269,27.15 -30.886,61.15 -54.281,89.99 15.703,-8.84 33.871,-14.13 54.281,-14.13 20.411,0 38.59,5.29 54.282,14.13 -23.387,-28.84 -46.008,-62.84 -54.282,-89.99"
             inkscape:connector-curvature="0"
             id="path100"
             style="fill:#231f20;fill-opacity:1;fill-rule:nonzero;stroke:none" /><path
             d="m 2071.5,4606.6 992.379,0 0,992.367 -992.379,0 0,-992.367 z"
             inkscape:connector-curvature="0"
             id="path102"
             style="fill:none;stroke:#231f20;stroke-width:2;stroke-linecap:butt;stroke-linejoin:miter;stroke-miterlimit:4;stroke-opacity:1;stroke-dasharray:none" /><path
             d="m 2646.11,4788.12 c -16.11,1.15 -27.58,-4.62 -25.3,-23.01 1.17,-9.19 8.91,-42.37 12.64,-49.86 4.62,-9.21 18.41,-13.8 32.21,-13.8 22.98,0 110.38,0 144.9,0 34.47,0 45.98,31.48 51.73,67.11 6.14,38.07 112.33,753.19 112.33,753.19 l -31.42,0 c 0,0 -96.63,-652.23 -102.77,-686.48 -8.05,-44.86 -14.94,-57.49 -50.58,-56.36 -29.96,0.97 -122.97,7.72 -143.74,9.21"
             inkscape:connector-curvature="0"
             id="path104"
             style="fill:#231f20;fill-opacity:1;fill-rule:nonzero;stroke:none" /><path
             d="m 2738.09,5170.36 c -35.65,35.64 -83.05,55.28 -133.48,55.28 -104.08,0 -188.78,-84.68 -188.78,-188.78 0,-50.41 19.63,-97.83 55.29,-133.47 35.67,-35.67 83.05,-55.3 133.49,-55.3 50.43,0 97.83,19.63 133.48,55.3 35.65,35.64 55.3,83.06 55.3,133.47 0,50.43 -19.65,97.83 -55.3,133.5 z m -102.07,-277.32 c -16.5,-1.44 -37.47,-0.89 -50.86,0.37 -10.32,8.99 -22.95,25.46 -32.23,43.64 8.25,7.61 17.42,20.66 24.7,32.42 22.52,-1.32 50.72,-1.47 74.9,-0.25 7.05,-6.59 17.2,-16.19 24.5,-23.23 -12.23,-23.42 -28.93,-42.49 -41.01,-52.95 z m 69.56,261.31 c -17.35,1.75 -34.54,3.17 -51.27,3.92 -10.38,7.62 -31.56,23.11 -40.51,25.76 0,8.05 -3.17,22.93 -3.17,22.93 34.9,-1.21 67.92,-12.87 95.59,-33.52 0.37,-6.5 0.11,-13.53 -0.64,-19.09 z m -109.01,29.68 c -12.38,-5.69 -29.49,-18.1 -41.08,-27.94 -22.22,-2.1 -43.7,-5.27 -64.35,-9.59 -0.25,5.07 -0.29,11.07 0.05,17.26 28.74,25.74 64.69,40.73 103.18,42.99 l 2.2,-22.72 z m -108.83,-54.89 c 21.78,4.88 44.55,8.42 68.23,10.7 4.53,-8.06 10.74,-18.98 15.56,-27.19 -10.82,-18 -22.15,-43.9 -28.26,-63.64 -14.36,-3.99 -35.27,-9.67 -49.05,-13.06 -11.75,13.72 -23.27,33.64 -30.28,50.05 6.4,14.63 16.5,33.07 23.8,43.14 z m 165.08,-143.66 c -21.52,-1.14 -46.91,-1.14 -68.03,-0.18 -12.03,15.87 -20.22,35 -27.14,55.24 5.06,18.08 15.91,43.31 25.91,60.71 l 56.78,0.78 c 14.68,-15.49 29,-40.22 37.31,-58.82 -3.39,-14.41 -10.28,-39.86 -24.83,-57.73 z m -1.73,128.73 12.93,27.44 c 16.39,-0.95 33.22,-2.57 50.24,-4.54 9.49,-13.93 20.19,-32.56 26.4,-47.49 -2.29,-13.33 -6.1,-27.8 -10.91,-41.69 -11,0.46 -25.21,-0.27 -36.33,-0.47 -8.82,20.47 -24.84,48.65 -42.33,66.75 z m -214.74,-51.53 c 5.88,2.76 12.03,5.54 16.98,7.57 7.34,-15.22 17.65,-32.34 29.03,-45.38 -4.86,-17.24 -7.48,-36.63 -4.55,-54.88 -7.45,-4.08 -16.28,-9.51 -22.5,-15.21 -13.71,24.87 -21.09,52.89 -21.09,82.08 0,8.74 0.87,17.34 2.13,25.82 z m 27.49,-121.76 c 7.01,3.73 14.08,10.34 22.78,14.15 12.98,-10.47 33,-21.32 50.78,-23.28 8.5,-17.12 20.19,-33.72 31.63,-45.36 -4.03,-4.55 -9.01,-8.93 -13.87,-12.7 -26.55,8.01 -50.87,22.48 -71.02,42.66 -7.63,7.6 -14.36,15.85 -20.3,24.53 z m 205.62,-61.55 -12.07,11.68 c 12.25,12.81 25.1,29.91 34.92,49.14 9.05,4.45 25.92,13.04 38.19,21.17 7.1,-5.22 13.48,-10.54 18.28,-14.86 -18.77,-29.85 -46.42,-53.51 -79.32,-67.13 z m 87.5,81.62 c -4.77,4.13 -10.45,8.71 -16.37,13.09 0.66,11.37 1.86,38.51 0.51,57.75 5.41,13.67 9.94,28.37 13.14,42.5 5.69,-0.44 11.82,-0.94 16.89,-1.57 2.49,-11.67 3.85,-23.67 3.85,-35.9 0,-27.28 -6.61,-52.98 -18.02,-75.87"
             inkscape:connector-curvature="0"
             id="path106"
             style="fill:#231f20;fill-opacity:1;fill-rule:nonzero;stroke:none" /><path
             d="m 2338.42,4688.32 0,232.25 c 0,0 -5.27,1.63 -8.17,5.18 -3.7,4.52 -3.7,12.27 -3.7,20.93 0,45.06 0,173.77 0,181.5 0,18.6 4.72,26.25 42.32,46.18 13.76,7.31 27.08,16.22 38.76,27.88 32.63,32.63 51.33,79.98 51.33,129.93 0,94.59 -66.46,171.56 -148.12,171.56 -81.67,0 -148.12,-76.97 -148.12,-171.56 0,-49.95 18.71,-97.3 51.34,-129.93 11.67,-11.66 25,-20.57 38.76,-27.88 37.6,-19.93 42.32,-27.58 42.32,-46.18 0,-7.73 0,-136.44 0,-181.5 0,-8.66 0,-16.41 -3.7,-20.93 -2.91,-3.55 -8.17,-5.18 -8.17,-5.18 l 0,-232.25 55.15,0"
             inkscape:connector-curvature="0"
             id="path108"
             style="fill:#231f20;fill-opacity:1;fill-rule:nonzero;stroke:none" /><g
             transform="scale(10,10)"
             id="g110"><text
               transform="matrix(1,0,0,-1,6.17969,575.297)"
               id="text112"><tspan
                 x="0 8"
                 y="0"
                 id="tspan114"
                 style="font-size:8px;font-variant:normal;writing-mode:lr-tb;fill:#231f20;fill-opacity:1;fill-rule:nonzero;stroke:none;font-family:TakaoPGothic;-inkscape-font-specification:TakaoPGothic-90ms-RKSJ-H">参考</tspan></text>
</g><path
             d="m 2310.84,5188.2 c 28.21,0 55.65,11.93 77.3,33.56 27.45,27.48 43.22,67.73 43.22,110.41 0,42.68 -15.77,82.92 -43.22,110.41 -21.65,21.63 -49.09,33.54 -77.3,33.54 -28.2,0 -55.64,-11.91 -77.29,-33.54 -27.46,-27.49 -43.21,-67.73 -43.21,-110.41 0,-42.68 15.75,-82.93 43.21,-110.41 21.65,-21.63 49.09,-33.56 77.29,-33.56"
             inkscape:connector-curvature="0"
             id="path116"
             style="fill:#ffffff;fill-opacity:1;fill-rule:nonzero;stroke:none" /><path
             d="m 3517.64,4607.77 992.371,0 0,992.371 -992.371,0 0,-992.371 z"
             inkscape:connector-curvature="0"
             id="path118"
             style="fill:none;stroke:#231f20;stroke-width:2;stroke-linecap:butt;stroke-linejoin:miter;stroke-miterlimit:4;stroke-opacity:1;stroke-dasharray:none" /><path
             d="m 4131.16,5337.79 c 0,-31.63 -25.63,-57.26 -57.23,-57.26 -31.63,0 -57.26,25.63 -57.26,57.26 0,31.58 25.63,57.21 57.26,57.21 31.6,0 57.23,-25.63 57.23,-57.21"
             inkscape:connector-curvature="0"
             id="path120"
             style="fill:#231f20;fill-opacity:1;fill-rule:nonzero;stroke:none" /><path
             d="m 4364.24,5378.35 c 0,-16.93 -13.72,-30.68 -30.66,-30.68 -16.92,0 -30.66,13.75 -30.66,30.68 0,16.93 13.74,30.66 30.66,30.66 16.94,0 30.66,-13.73 30.66,-30.66"
             inkscape:connector-curvature="0"
             id="path122"
             style="fill:#231f20;fill-opacity:1;fill-rule:nonzero;stroke:none" /><path
             d="m 4461.71,4727.41 0,22.25 -482.1,304.04 64.74,100.47 c 2.44,3.59 8.7,7.6 14.85,6.5 6.15,-1.14 15.05,-2.39 15.05,-23.06 0,-20.67 0,-93.65 0,-93.65 0,-8.27 4.19,-15.95 11.13,-20.45 l 118.69,-76.72 c 11.27,-7.33 26.36,-4.09 33.64,7.2 2.65,4.08 3.9,8.66 3.9,13.21 0,6.59 -2.72,13.09 -7.78,17.78 l 72.06,113.19 c 31.18,-12.8 69.94,0.79 90.73,33.63 22.98,36.28 15.38,82.51 -16.98,103.01 -14.43,9.12 -32.04,12.01 -49.6,8.05 -20.38,-4.57 -38.91,-17.96 -50.77,-36.73 -11.91,-18.79 -16.11,-41.23 -11.51,-61.64 3.08,-13.8 10.03,-25.78 19.85,-34.73 L 4215.9,4997.1 c -26.1,16.87 -79.32,51.28 -92.95,60.12 0,21.48 0,120.64 0,120.64 0,17.23 -0.83,39.98 -19,50.14 l -119.54,73.94 c -30.67,18.96 -41.25,22.75 -64.14,17.03 l -99.25,-32.59 0,272.14 -18.94,0 0,-278.36 -161.78,-53.14 c -12.77,-4.19 -19.71,-17.95 -15.52,-30.74 4.19,-12.76 17.96,-19.73 30.72,-15.53 l 146.58,48.25 0,-74.85 -248.84,0 0,-18.95 261.6,0 28.84,-18.17 -34.51,-53.57 -199.49,-310.37 c -9.3,-14.45 -5.1,-33.68 9.32,-42.99 14.47,-9.26 33.71,-5.09 43,9.37 l 169.66,264.04 c 3.49,5.07 9.35,8.46 16.01,8.46 3.46,0 6.74,-0.88 9.53,-2.5 24.32,-14.23 117,-68.41 139.74,-81.7 0,-29.12 0,-167.43 0,-167.43 0,-17.17 13.91,-31.11 31.12,-31.11 17.15,0 31.09,13.94 31.09,31.11 l 0,185.28 c 0,11.06 -5.84,21.26 -15.4,26.85 l -93.97,54.94 19.58,30.38 492.35,-310.38 z m -178.13,420.63 c -3.64,16.24 -0.23,34.21 9.41,49.4 9.57,15.15 24.39,25.93 40.63,29.58 13.29,2.99 26.58,0.89 37.32,-5.92 14.88,-9.43 22.76,-26.2 22.76,-44.34 0,-12.1 -3.5,-24.79 -10.8,-36.3 -18.2,-28.75 -53.2,-39.36 -77.98,-23.65 -10.77,6.82 -18.35,17.91 -21.34,31.23 z m -462.56,5.67 0,81.53 67.07,22.08 c 20.24,4.78 32.61,-7.54 27.69,-23.84 -1.76,-5.95 -4.99,-11.84 -7.63,-16.42 l -0.03,0.01 -54.18,-84.11 -32.92,20.75"
             inkscape:connector-curvature="0"
             id="path124"
             style="fill:#231f20;fill-opacity:1;fill-rule:nonzero;stroke:none" /><path
             d="m 623.879,2707.16 992.371,0 0,992.371 -992.371,0 0,-992.371 z"
             inkscape:connector-curvature="0"
             id="path126"
             style="fill:none;stroke:#231f20;stroke-width:2;stroke-linecap:butt;stroke-linejoin:miter;stroke-miterlimit:4;stroke-opacity:1;stroke-dasharray:none" /><path
             d="m 918.684,3452.69 c 29.644,0 53.679,24.01 53.679,53.67 0,29.65 -24.035,53.67 -53.679,53.67 -29.653,0 -53.668,-24.02 -53.668,-53.67 0,-29.66 24.015,-53.67 53.668,-53.67"
             inkscape:connector-curvature="0"
             id="path128"
             style="fill:#231f20;fill-opacity:1;fill-rule:nonzero;stroke:none" /><path
             d="m 1505.39,3058.7 -27.33,-2.23 c 4.05,-50.33 -11.38,-65.29 -45.27,-78.15 -17.57,-6.69 -118.65,-41.78 -230.29,-80.36 l -246.062,282.81 c 9.656,12.23 15.597,28.46 15.597,46.4 l 0,137.4 c 0,4.17 -0.387,8.25 -0.965,12.21 l 180.35,-22.04 -172.479,-179.49 19.805,-19.01 186.744,194.31 3.89,-0.46 c 12.04,-1.46 22.98,7.1 24.44,19.1 0.43,3.44 -0.06,6.72 -1.07,9.73 l 253.78,264.11 -38.04,0 -239.03,-248.74 -247.921,30.32 c -8.504,5.5 -18.273,8.67 -28.684,8.67 -32.718,0 -59.222,-30.78 -59.222,-68.71 l 0,-158.18 c 0,-40.09 23.043,-65.12 52.66,-68.34 l 229.087,-263.26 c -133.22,-45.96 -261.001,-89.87 -263.556,-90.77 l 8.918,-25.92 c 21.223,7.27 519.608,178.56 561.768,194.55 49.89,18.94 67.51,48.64 62.88,106.05"
             inkscape:connector-curvature="0"
             id="path130"
             style="fill:#231f20;fill-opacity:1;fill-rule:nonzero;stroke:none" /><path
             d="m 949.453,3066.43 -27.211,-23.79 -51.754,58.52 27.215,23.78 51.75,-58.51"
             inkscape:connector-curvature="0"
             id="path132"
             style="fill:#231f20;fill-opacity:1;fill-rule:nonzero;stroke:none" /><path
             d="m 2069.17,2707.16 992.367,0 0,992.371 -992.367,0 0,-992.371 z"
             inkscape:connector-curvature="0"
             id="path134"
             style="fill:none;stroke:#231f20;stroke-width:2;stroke-linecap:butt;stroke-linejoin:miter;stroke-miterlimit:4;stroke-opacity:1;stroke-dasharray:none" /><path
             d="m 2107.55,3291.48 392.36,139 0,-38.81 c 0,-10.21 -11.28,-15.56 -35.22,-24.56 -26.28,-9.87 -62.27,-23.39 -62.27,-63.5 l 0,-345.09 c 0,-70.66 53.9,-102.83 103.99,-102.83 l 118.59,0 0,32.69 -118.59,0 c -32.89,0 -71.3,18.36 -71.3,70.14 l 0,345.09 c 0,15.74 13.17,22.41 41.08,32.91 25.13,9.43 56.42,21.18 56.42,55.15 l 0,50.38 480.2,170.06 0.2,28.97 -905.56,-320.69 0.1,-28.91"
             inkscape:connector-curvature="0"
             id="path136"
             style="fill:#231f20;fill-opacity:1;fill-rule:nonzero;stroke:none" /><path
             d="m 2561.84,3257.29 c 0,-26.86 -21.77,-48.62 -48.63,-48.62 -26.85,0 -48.63,21.76 -48.63,48.62 0,26.88 21.78,48.64 48.63,48.64 26.86,0 48.63,-21.76 48.63,-48.64"
             inkscape:connector-curvature="0"
             id="path138"
             style="fill:#231f20;fill-opacity:1;fill-rule:nonzero;stroke:none" /><path
             d="m 2676.67,2983.04 c -0.05,0 -0.08,0 -0.1,0 l -112.05,0 0,37.45 76.04,0 c 13.56,0 24.54,10.99 24.54,24.52 0,13.56 -10.98,24.55 -24.54,24.55 l -76.04,0 0,69.7 c 0,28.3 -22.99,51.3 -51.31,51.3 -28.33,0 -51.32,-23 -51.32,-51.3 l 0,-169.37 c 0,-28.36 22.99,-51.3 51.32,-51.3 l 138.94,0 0,-133.48 c 0,-13.55 10.97,-24.53 24.52,-24.53 13.53,0 24.51,10.98 24.51,24.53 l 0,173.41 c 0,13.55 -10.98,24.52 -24.51,24.52"
             inkscape:connector-curvature="0"
             id="path140"
             style="fill:#231f20;fill-opacity:1;fill-rule:nonzero;stroke:none" /><path
             d="m 3576.5,6505.9 c -34.23,0 -61.99,27.76 -61.99,61.99 l 0,867.94 c 0,34.24 27.76,61.99 61.99,61.99 l 867.93,0 c 34.24,0 62,-27.75 62,-61.99 l 0,-867.94 c 0,-34.23 -27.76,-61.99 -62,-61.99 l -867.93,0 z"
             inkscape:connector-curvature="0"
             id="path142"
             style="fill:none;stroke:#231f20;stroke-width:2;stroke-linecap:butt;stroke-linejoin:miter;stroke-miterlimit:4;stroke-opacity:1;stroke-dasharray:none" /><path
             d="m 4165.5,6868.47 0,76.55 c 45.96,3.82 88.83,21.44 121.34,50.95 -50.25,15.37 -96.02,40.01 -136.84,70.89 l 0,76.05 c 41.53,5.48 77.64,23.25 105.84,51.45 -88.35,17.99 -167.44,60.73 -229.83,121.1 l -9.3,127.09 -12.4,0 -9.3,-127.09 c -62.35,-60.25 -141.58,-103.13 -229.82,-121.1 28.19,-28.2 64.31,-45.97 105.84,-51.45 l 0,-76.05 c -40.82,-30.88 -86.6,-55.52 -136.84,-70.89 32.5,-29.51 75.38,-47.13 121.34,-50.95 l 0,-76.55 c -40.82,-30.88 -86.59,-55.52 -136.84,-70.88 32.5,-29.51 75.38,-47.13 121.33,-50.95 l 0,-140 340.98,0 0,140 c 45.95,3.82 88.83,21.44 121.33,50.95 -50.24,15.36 -96.01,40 -136.83,70.88 z m -216.98,0 -31,0 0,62 31,0 0,-62 z m 0,198.39 -31,0 0,61.99 31,0 0,-61.99 z m 77.49,-198.39 -31,0 0,62 31,0 0,-62 z m 0,198.39 -31,0 0,61.99 31,0 0,-61.99 z m 77.5,-198.39 -31,0 0,62 31,0 0,-62 z m 0,198.39 -31,0 0,61.99 31,0 0,-61.99"
             inkscape:connector-curvature="0"
             id="path144"
             style="fill:#231f20;fill-opacity:1;fill-rule:nonzero;stroke:none" /><path
             d="m 2131.22,6505.9 c -34.24,0 -62,27.76 -62,61.99 l 0,867.94 c 0,34.24 27.76,61.99 62,61.99 l 867.93,0 c 34.24,0 62,-27.75 62,-61.99 l 0,-867.94 c 0,-34.23 -27.76,-61.99 -62,-61.99 l -867.93,0 z"
             inkscape:connector-curvature="0"
             id="path146"
             style="fill:none;stroke:#231f20;stroke-width:2;stroke-linecap:butt;stroke-linejoin:miter;stroke-miterlimit:4;stroke-opacity:1;stroke-dasharray:none" /><path
             d="m 2880.04,6877.94 c -43.44,16.04 -82.6,40.29 -116.09,71 l 0,69.02 c 25.14,1.34 47.54,11.59 64.74,27.77 -43.45,16.04 -82.62,40.29 -116.1,71 l 0,52.59 c 29.85,2.33 57.19,13.43 79.37,30.94 -21.74,8.89 -42.5,20.29 -61.77,32.9 l 0,93.75 c 0,18.41 -7.51,35.11 -19.63,47.12 l -15.71,0 0,-47.12 -259.25,0 0,47.12 -15.7,0 c -12.13,-12.01 -19.64,-28.71 -19.64,-47.12 l 0,-93.75 c -19.27,-12.61 -40.03,-24.01 -61.77,-32.9 22.18,-17.51 49.53,-28.61 79.38,-30.94 l 0,-52.59 c -33.49,-30.71 -72.66,-54.96 -116.1,-71 17.19,-16.18 39.6,-26.43 64.73,-27.77 l 0,-69.02 c -33.48,-30.71 -72.65,-54.96 -116.09,-71 26.2,-21.99 58.89,-36.49 94.77,-40.28 -2.15,-82.32 -21.18,-160.44 -53.78,-231.02 l 547.65,0 c -32.59,70.58 -51.63,148.7 -53.78,231.02 35.89,3.79 68.58,18.29 94.77,40.28 z m -427.56,71 -32.39,0 0,69.02 32.39,0 0,-69.02 z m 85.96,0 -32.39,0 0,69.02 32.39,0 0,-69.02 z m 85.97,0 -32.39,0 0,69.02 32.39,0 0,-69.02 z m -163.82,167.79 c 37.36,29.07 70.68,62.13 100.04,99.18 l 9.14,0.08 c 29.37,-37.09 62.71,-70.17 100.1,-99.26 l -209.28,0 z m 249.79,-167.79 -32.4,0 0,69.02 32.4,0 0,-69.02"
             inkscape:connector-curvature="0"
             id="path148"
             style="fill:#231f20;fill-opacity:1;fill-rule:nonzero;stroke:none" /><path
             d="m 686.184,6505.9 c -34.243,0 -62,27.76 -62,61.99 l 0,867.94 c 0,34.24 27.757,61.99 62,61.99 l 867.926,0 c 34.24,0 62,-27.75 62,-61.99 l 0,-867.94 c 0,-34.23 -27.76,-61.99 -62,-61.99 l -867.926,0 z"
             inkscape:connector-curvature="0"
             id="path150"
             style="fill:none;stroke:#231f20;stroke-width:2;stroke-linecap:butt;stroke-linejoin:miter;stroke-miterlimit:4;stroke-opacity:1;stroke-dasharray:none" /><path
             d="m 1580.91,7060.1 c -88.85,30.89 -161.88,93.25 -205.63,175.19 l 12.89,47.05 -536.037,0 12.765,-46.94 c -43.75,-81.94 -116.785,-144.3 -205.636,-175.19 43.019,-38.53 99.062,-62.14 161.351,-62.14 l 0,-232.35 113.59,0 0,232.3 61.996,0 0,-232.3 62.001,0 0,232.3 123.99,0 0,-232.3 61.99,0 0,232.3 62,0 0,-232.3 113.59,0 0,232.3 -0.21,0 c 62.29,0 118.34,23.55 161.35,62.08"
             inkscape:connector-curvature="0"
             id="path152"
             style="fill:#231f20;fill-opacity:1;fill-rule:nonzero;stroke:none" /><path
             d="m 820.613,6703.73 599.156,0 0,31 -599.156,0 0,-31 z"
             inkscape:connector-curvature="0"
             id="path154"
             style="fill:#231f20;fill-opacity:1;fill-rule:nonzero;stroke:none" /><g
             transform="scale(10,10)"
             id="g156"><text
               transform="matrix(1,0,0,-1,154.829,452.307)"
               id="text158"><tspan
                 x="0 144.528 289.05701"
                 y="0"
                 id="tspan160"
                 style="font-size:7px;font-variant:normal;writing-mode:lr-tb;fill:#231f20;fill-opacity:1;fill-rule:nonzero;stroke:none;font-family:TakaoPGothic;-inkscape-font-specification:TakaoPGothic-90ms-RKSJ-H">※※※</tspan><tspan
                 x="144.528 0"
                 y="189.922"
                 id="tspan162"
                 style="font-size:7px;font-variant:normal;writing-mode:lr-tb;fill:#231f20;fill-opacity:1;fill-rule:nonzero;stroke:none;font-family:TakaoPGothic;-inkscape-font-specification:TakaoPGothic-90ms-RKSJ-H">※※</tspan></text>
</g></g></g></g></g></svg>