<?xml version="1.0" encoding="UTF-8" standalone="no"?>
<!-- Created with Inkscape (http://www.inkscape.org/) -->

<svg
   xmlns:dc="http://purl.org/dc/elements/1.1/"
   xmlns:cc="http://creativecommons.org/ns#"
   xmlns:rdf="http://www.w3.org/1999/02/22-rdf-syntax-ns#"
   xmlns:svg="http://www.w3.org/2000/svg"
   xmlns="http://www.w3.org/2000/svg"
   xmlns:inkscape="http://www.inkscape.org/namespaces/inkscape"
   version="1.1"
   width="765"
   height="990"
   id="svg2"
   xml:space="preserve"><metadata
     id="metadata8"><rdf:RDF><cc:Work
         rdf:about=""><dc:format>image/svg+xml</dc:format><dc:type
           rdf:resource="http://purl.org/dc/dcmitype/StillImage" /></cc:Work></rdf:RDF></metadata><defs
     id="defs6"><clipPath
       id="clipPath18"><path
         d="m 0,0 4898.12,0 0,7920 L 0,7920 0,0 z"
         inkscape:connector-curvature="0"
         id="path20" /></clipPath></defs><g
     transform="matrix(1.25,0,0,-1.25,0,990)"
     id="g10"><g
       transform="scale(0.1,0.1)"
       id="g12"><g
         id="g14"><g
           clip-path="url(#clipPath18)"
           id="g16"><g
             transform="scale(10,10)"
             id="g22"><text
               transform="matrix(1,0,0,-1,68.4516,256.574)"
               id="text24"><tspan
                 x="0 7 13.719922 20.368828 27.368828 144.52713 151.52713 158.52713 165.52713"
                 y="0"
                 id="tspan26"
                 style="font-size:7px;font-variant:normal;writing-mode:lr-tb;fill:#231f20;fill-opacity:1;fill-rule:nonzero;stroke:none;font-family:TakaoPGothic;-inkscape-font-specification:TakaoPGothic-90ms-RKSJ-H">天井に注意感電注意</tspan></text>
<text
               transform="matrix(1,0,0,-1,68.4516,248.0697)"
               id="text28"><tspan
                 x="0 5.3339992 9.5059977 13.677997 15.903996 17.737995 21.909994 26.081993 28.307993 30.533991 34.70599 38.485989 42.65799 45.268986 49.440987 53.612984 57.784985"
                 y="0"
                 id="tspan30"
                 style="font-size:7px;font-variant:normal;font-weight:normal;writing-mode:lr-tb;fill:#231f20;fill-opacity:1;fill-rule:nonzero;stroke:none;font-family:Helvetica;-inkscape-font-specification:Helvetica">Caution, overhead</tspan></text>
</g><path
             d="M 4817.23,340.16 4817.23,0"
             inkscape:connector-curvature="0"
             id="path32"
             style="fill:none;stroke:#231f20;stroke-width:2;stroke-linecap:butt;stroke-linejoin:miter;stroke-miterlimit:4;stroke-opacity:1;stroke-dasharray:none" /><g
             transform="scale(10,10)"
             id="g34"><text
               transform="matrix(1,0,0,-1,212.98,248.07)"
               id="text36"><tspan
                 x="0 5.3339992 9.5059977 13.677997 15.903996 17.737995 21.909994 26.081993 28.307993 30.533991 34.705898 36.539101 40.710983 44.491058 46.717045 49.32803 51.162151 54.941841 56.775841 59.001999"
                 y="0"
                 id="tspan38"
                 style="font-size:7px;font-variant:normal;font-weight:normal;writing-mode:lr-tb;fill:#231f20;fill-opacity:1;fill-rule:nonzero;stroke:none;font-family:Helvetica;-inkscape-font-specification:Helvetica">Caution, electricity</tspan></text>
</g><path
             d="m 3079.35,2699.21 c 21.68,0 42.81,11.21 54.44,31.34 11.65,20.16 10.76,44.06 -0.09,62.86 L 2614,3693.24 c -10.9,18.77 -31.09,31.43 -54.36,31.43 -23.25,-0.02 -43.49,-12.66 -54.33,-31.43 L 1985.7,2793.41 c -10.9,-18.8 -11.76,-42.7 -0.1,-62.86 11.59,-20.13 32.71,-31.34 54.45,-31.34 l 1039.3,0"
             inkscape:connector-curvature="0"
             id="path40"
             style="fill:#231f20;fill-opacity:1;fill-rule:nonzero;stroke:none" /><g
             transform="scale(10,10)"
             id="g42"><text
               transform="matrix(1,0,0,-1,483.14,29.7641)"
               id="text44"><tspan
                 x="0 3.336"
                 y="0"
                 id="tspan46"
                 style="font-size:6px;font-variant:normal;font-weight:normal;writing-mode:lr-tb;fill:#231f20;fill-opacity:1;fill-rule:nonzero;stroke:none;font-family:Helvetica;-inkscape-font-specification:Helvetica">18</tspan></text>
</g><path
             d="m 2559.59,3620.28 -483.38,-837.24 966.77,0 -483.39,837.24"
             inkscape:connector-curvature="0"
             id="path48"
             style="fill:#fbc707;fill-opacity:1;fill-rule:nonzero;stroke:none" /><path
             d="m 2685.77,3276.13 -189.78,-95.35 122.21,290.87 -110.59,-0.33 -135.15,-441.6 203.12,123.97 -19.78,-212.39 -55.71,26.96 60.34,-152.21 99.95,129.69 -62.15,-10.77 87.54,341.16"
             inkscape:connector-curvature="0"
             id="path50"
             style="fill:#231f20;fill-opacity:1;fill-rule:nonzero;stroke:none" /><path
             d="m 1633.91,2699.51 c 21.7,0 42.84,11.21 54.48,31.36 11.66,20.17 10.76,44.07 -0.09,62.89 l -519.99,900.33 c -10.91,18.77 -31.11,31.44 -54.39,31.44 -23.26,-0.02 -43.51,-12.67 -54.37,-31.44 L 539.656,2793.76 c -10.898,-18.82 -11.758,-42.72 -0.094,-62.89 11.602,-20.15 32.731,-31.36 54.481,-31.36 l 1039.867,0"
             inkscape:connector-curvature="0"
             id="path52"
             style="fill:#231f20;fill-opacity:1;fill-rule:nonzero;stroke:none" /><path
             d="m 1113.87,3621.09 -483.643,-837.71 967.293,0 -483.65,837.71"
             inkscape:connector-curvature="0"
             id="path54"
             style="fill:#fbc707;fill-opacity:1;fill-rule:nonzero;stroke:none" /><path
             d="m 915.402,3381.76 0,-36.63 174.958,0 0,-74.49 232.95,0 0,111.12 -407.908,0"
             inkscape:connector-curvature="0"
             id="path56"
             style="fill:#231f20;fill-opacity:1;fill-rule:nonzero;stroke:none" /><path
             d="m 1089.05,2999.1 c 33.77,-12.29 71.11,5.12 83.4,38.9 12.29,33.77 -5.12,71.12 -38.89,83.41 -33.78,12.29 -71.12,-5.12 -83.41,-38.9 -12.29,-33.77 5.13,-71.12 38.9,-83.41"
             inkscape:connector-curvature="0"
             id="path58"
             style="fill:#231f20;fill-opacity:1;fill-rule:nonzero;stroke:none" /><path
             d="m 1268.29,2741.14 -35.43,166.59 c 69.77,35.58 114.63,94.34 112.37,159.26 -2.02,57.81 -40.97,108.13 -100.36,140.09 l -35.01,-50.01 c 37.94,-18.59 62.51,-50.07 61.29,-84.95 -1.48,-42.54 -40.87,-77.39 -94.52,-88.87 -48.84,-10.46 -99.38,-14.58 -150.32,-11.61 -5.24,0.31 -10.33,-1.94 -13.62,-6 l -172.19,-212.63 36.945,-43.1 134.015,120.67 36.14,-89.44 220.69,0"
             inkscape:connector-curvature="0"
             id="path60"
             style="fill:#231f20;fill-opacity:1;fill-rule:nonzero;stroke:none" /><path
             d="m 1191.59,3255.74 -15.12,0 7.11,-40.38 -38.05,21.98 -4.63,-52.89 -29.78,51.6 -43.82,-43.84 -1.49,42.45 -55.54,-4.87 40.95,34.37 -27.64,39.49 51.88,-13.92 0,15.42 -87.565,23.48 43.295,-61.84 -66.67,-55.96 86.96,7.62 2.13,-61 54.31,54.33 43.7,-75.69 6.71,76.66 45.47,-26.27 -12.21,69.26"
             inkscape:connector-curvature="0"
             id="path62"
             style="fill:#231f20;fill-opacity:1;fill-rule:nonzero;stroke:none" /><path
             d="m 311.809,509.699 0,7256.911"
             inkscape:connector-curvature="0"
             id="path64"
             style="fill:none;stroke:#231f20;stroke-width:2;stroke-linecap:butt;stroke-linejoin:miter;stroke-miterlimit:4;stroke-opacity:1;stroke-dasharray:none" /><g
             transform="scale(10,10)"
             id="g66"><text
               transform="matrix(1,0,0,-1,68.618,636.384)"
               id="text68"><tspan
                 x="0 7 14 21 144.528 151.528 158.528 165.528 172.528 289.05701 295.00699 300.9585 307.9585 314.9585 321.9585"
                 y="0"
                 id="tspan70"
                 style="font-size:7px;font-variant:normal;writing-mode:lr-tb;fill:#231f20;fill-opacity:1;fill-rule:nonzero;stroke:none;font-family:TakaoPGothic;-inkscape-font-specification:TakaoPGothic-90ms-RKSJ-H">一般注意障害物注意上り段差注意</tspan></text>
<text
               transform="matrix(1,0,0,-1,43.937,785.473)"
               id="text72"><tspan
                 x="0 12 24"
                 y="0"
                 id="tspan74"
                 style="font-size:12px;font-variant:normal;writing-mode:lr-tb;fill:#231f20;fill-opacity:1;fill-rule:nonzero;stroke:none;font-family:TakaoPGothic;-inkscape-font-specification:TakaoPGothic-90ms-RKSJ-H">注意 </tspan></text>
<text
               transform="matrix(1,0,0,-1,79.937,785.473)"
               id="text76"><tspan
                 x="0 11.8078 18.959797 23.435793 30.587788 33.731785 40.883202"
                 y="0"
                 id="tspan78"
                 style="font-size:12px;font-variant:normal;font-weight:normal;writing-mode:lr-tb;fill:#231f20;fill-opacity:1;fill-rule:nonzero;stroke:none;font-family:Helvetica;-inkscape-font-specification:Helvetica">Warning</tspan></text>
</g><path
             d="m 135.41,7957.14 127.047,0 0,-119.22 -127.047,0 0,119.22 z m 93.606,-19.6 -57.926,0 0,-14.54 40.156,0 c -16.512,-24.77 -21.269,-34.98 -27.562,-65.49 l 17.906,0 c 2.937,24.35 12.457,49.26 27.426,68.7 l 0,11.33"
             inkscape:connector-curvature="0"
             id="path80"
             style="fill:#231f20;fill-opacity:1;fill-rule:nonzero;stroke:none" /><path
             d="M 4818.89,7794.95 0,7794.95"
             inkscape:connector-curvature="0"
             id="path82"
             style="fill:none;stroke:#231f20;stroke-width:2;stroke-linecap:butt;stroke-linejoin:miter;stroke-miterlimit:4;stroke-opacity:1;stroke-dasharray:none" /><g
             transform="scale(10,10)"
             id="g84"><text
               transform="matrix(1,0,0,-1,451.421,785.473)"
               id="text86"><tspan
                 x="0 6.6719999"
                 y="0"
                 id="tspan88"
                 style="font-size:12px;font-variant:normal;font-weight:normal;writing-mode:lr-tb;fill:#231f20;fill-opacity:1;fill-rule:nonzero;stroke:none;font-family:Helvetica;-inkscape-font-specification:Helvetica">8 </tspan></text>
<text
               transform="matrix(1,0,0,-1,461.4288,785.473)"
               id="text90"><tspan
                 x="0 10.230078"
                 y="0"
                 id="tspan92"
                 style="font-size:11px;font-variant:normal;writing-mode:lr-tb;fill:#231f20;fill-opacity:1;fill-rule:nonzero;stroke:none;font-family:TakaoPGothic;-inkscape-font-specification:TakaoPGothic-90ms-RKSJ-H">項目</tspan></text>
<text
               transform="matrix(1,0,0,-1,68.6178,627.88)"
               id="text94"><tspan
                 x="0 5.72578 9.8977795 14.069778 18.241777 20.852776 25.024981 26.858576 29.084745 32.864819 37.036819 41.208817 43.434818 45.268818 49.440815 144.52811 149.86211 154.03412 158.20612 160.43211 162.26611 166.43811 170.61011 172.83611 175.0621 179.2341 183.4061 187.18582 189.41183 193.58388 197.36383 199.19794 203.36981 289.05692 294.39093 298.56293 302.73492 304.96094 306.79492 310.96692 315.13892 317.36493 319.59091 323.76291 327.93491 332.1069 335.8869 340.05893 344.23093 346.45691 350.62885 354.40878 358.189 362.36087 366.14084 369.92102 372.14722 374.37299 376.599 380.77103"
                 y="0"
                 id="tspan96"
                 style="font-size:7px;font-variant:normal;font-weight:normal;writing-mode:lr-tb;fill:#231f20;fill-opacity:1;fill-rule:nonzero;stroke:none;font-family:Helvetica;-inkscape-font-specification:Helvetica">General cautionCaution, obstaclesCaution, uneven access / up</tspan></text>
<text
               transform="matrix(1,0,0,-1,154.39483,642.0538)"
               id="text98"><tspan
                 x="0"
                 y="0"
                 id="tspan100"
                 style="font-size:7px;font-variant:normal;writing-mode:lr-tb;fill:#231f20;fill-opacity:1;fill-rule:nonzero;stroke:none;font-family:TakaoPGothic;-inkscape-font-specification:TakaoPGothic-90ms-RKSJ-H">※</tspan></text>
<text
               transform="matrix(1,0,0,-1,10.09783,751.4428)"
               id="text102"><tspan
                 x="0"
                 y="0"
                 id="tspan104"
                 style="font-size:12px;font-variant:normal;font-weight:normal;writing-mode:lr-tb;fill:#231f20;fill-opacity:1;fill-rule:nonzero;stroke:none;font-family:Helvetica;-inkscape-font-specification:Helvetica">A</tspan></text>
</g><path
             d="m 4530.41,6505.48 c 21.68,0 42.81,11.2 54.44,31.34 11.65,20.15 10.76,44.05 -0.09,62.85 l -519.7,899.83 c -10.9,18.77 -31.09,31.43 -54.36,31.43 -23.25,-0.02 -43.49,-12.66 -54.34,-31.43 l -519.61,-899.83 c -10.89,-18.8 -11.75,-42.7 -0.09,-62.85 11.59,-20.14 32.71,-31.34 54.45,-31.34 l 1039.3,0"
             inkscape:connector-curvature="0"
             id="path106"
             style="fill:#231f20;fill-opacity:1;fill-rule:nonzero;stroke:none" /><g
             transform="scale(10,10)"
             id="g108"><text
               transform="matrix(1,0,0,-1,1.84609,765.186)"
               id="text110"><tspan
                 x="0 8 16"
                 y="0"
                 id="tspan112"
                 style="font-size:8px;font-variant:normal;writing-mode:lr-tb;fill:#231f20;fill-opacity:1;fill-rule:nonzero;stroke:none;font-family:TakaoPGothic;-inkscape-font-specification:TakaoPGothic-90ms-RKSJ-H">推奨度</tspan></text>
</g><path
             d="m 4010.65,7426.54 -483.38,-837.24 966.77,0 -483.39,837.24"
             inkscape:connector-curvature="0"
             id="path114"
             style="fill:#fbc707;fill-opacity:1;fill-rule:nonzero;stroke:none" /><path
             d="m 4023.56,7169.01 c 20.56,0 37.23,16.67 37.23,37.23 0,20.56 -16.67,37.23 -37.23,37.23 -20.56,0 -37.23,-16.67 -37.23,-37.23 0,-20.56 16.67,-37.23 37.23,-37.23"
             inkscape:connector-curvature="0"
             id="path116"
             style="fill:#231f20;fill-opacity:1;fill-rule:nonzero;stroke:none" /><path
             d="m 3949.4,7090.97 -67.63,-350.46 42.69,0 60.09,186.83 34.47,-34.47 -4.42,-118.23 41.77,-8.88 23.11,128.42 c 0.41,2.2 0.62,4.47 0.62,6.79 0,7.99 -2.52,15.39 -6.8,21.45 l -61.19,90.62 16.79,52.21 c 21.21,-24.37 47.03,-44.63 76.11,-59.39 l 17.68,25.25 c -43.93,26.27 -76.05,70.25 -86.43,122.1 -0.51,2.51 -2.79,4.35 -5.45,4.36 -0.21,0 -0.42,0 -0.62,0 -80.39,0 -148.9,-50.87 -175.12,-122.16 l 26.14,-16.34 c 13.92,31.01 38.08,56.41 68.19,71.9"
             inkscape:connector-curvature="0"
             id="path118"
             style="fill:#231f20;fill-opacity:1;fill-rule:nonzero;stroke:none" /><path
             d="m 4100.01,6775.41 0,-55.83 -421.19,0 0,-36.63 457.82,0 0,55.83 119.7,0 0,36.63 -156.33,0"
             inkscape:connector-curvature="0"
             id="path120"
             style="fill:#231f20;fill-opacity:1;fill-rule:nonzero;stroke:none" /><path
             d="m 3085.14,6505.48 c 21.68,0 42.81,11.21 54.44,31.34 11.66,20.15 10.76,44.05 -0.09,62.85 l -519.72,899.87 c -10.89,18.76 -31.09,31.43 -54.35,31.43 -23.25,-0.02 -43.5,-12.67 -54.34,-31.43 l -519.63,-899.87 c -10.89,-18.8 -11.75,-42.7 -0.1,-62.85 11.6,-20.13 32.71,-31.34 54.46,-31.34 l 1039.33,0"
             inkscape:connector-curvature="0"
             id="path122"
             style="fill:#231f20;fill-opacity:1;fill-rule:nonzero;stroke:none" /><path
             d="m 2565.37,7426.58 -483.39,-837.27 966.79,0 -483.4,837.27"
             inkscape:connector-curvature="0"
             id="path124"
             style="fill:#fbc707;fill-opacity:1;fill-rule:nonzero;stroke:none" /><path
             d="m 2663.17,6786.59 0,-85.61 -446.67,0 0,-36.64 614.18,0 0,122.25 -167.51,0"
             inkscape:connector-curvature="0"
             id="path126"
             style="fill:#231f20;fill-opacity:1;fill-rule:nonzero;stroke:none" /><path
             d="m 2615.5,7121.65 c 20.56,0 37.22,16.67 37.22,37.22 0,20.56 -16.66,37.22 -37.22,37.22 -20.56,0 -37.23,-16.66 -37.23,-37.22 0,-20.55 16.67,-37.22 37.23,-37.22"
             inkscape:connector-curvature="0"
             id="path128"
             style="fill:#231f20;fill-opacity:1;fill-rule:nonzero;stroke:none" /><path
             d="m 2432.66,6857.28 c 11.75,0 22.22,5.45 29.04,13.94 l 42.84,52.91 27.4,-45.65 -34.14,-128.69 36.11,-20.36 54.83,128.42 c 2.4,5.2 3.73,10.99 3.73,17.1 0,4.94 -0.88,9.67 -2.48,14.05 l -34.65,97.86 41.16,50.83 86.61,-64.98 27.4,15.82 -107.99,115.79 c -13.51,14.49 -31.78,24.47 -52.32,27.47 -0.26,0.04 -0.52,0.06 -0.79,0.06 -2.07,0 -3.87,-1.13 -4.84,-2.8 l -120.02,-208.14 -94.61,28.93 -26.31,-31.37 112.14,-57.13 c 5.07,-2.59 10.81,-4.06 16.89,-4.06"
             inkscape:connector-curvature="0"
             id="path130"
             style="fill:#231f20;fill-opacity:1;fill-rule:nonzero;stroke:none" /><path
             d="m 2650.14,6911.11 -7.66,-87.62 -36.05,20.81 11,-62.37 -43.95,-11.77 74.77,-52.38 0,18.09 -40.15,28.12 26.4,7.07 -7.39,41.93 27.91,-16.11 6.33,72.41 41.47,-59.24 21.13,45.33 10.83,-40.41 34.35,19.83 -14.88,-33.3 16.74,0 30.04,68.8 -56.94,-32.86 -16.36,61.08 -27.49,-58.96 -50.1,71.55"
             inkscape:connector-curvature="0"
             id="path132"
             style="fill:#231f20;fill-opacity:1;fill-rule:nonzero;stroke:none" /><path
             d="m 1641.15,6502.82 c 21.76,0 42.93,11.23 54.59,31.42 11.67,20.21 10.8,44.18 -0.08,63.02 l -521.08,902.2 c -10.9,18.81 -31.19,31.51 -54.5,31.51 -23.29,-0.02 -43.59,-12.7 -54.48,-31.51 l -520.975,-902.2 c -10.891,-18.84 -11.758,-42.81 -0.082,-63.02 11.66,-20.19 32.832,-31.42 54.582,-31.42 l 1042.025,0"
             inkscape:connector-curvature="0"
             id="path134"
             style="fill:#231f20;fill-opacity:1;fill-rule:nonzero;stroke:none" /><path
             d="m 1120.06,7426.32 -484.658,-839.45 969.298,0 -484.64,839.45"
             inkscape:connector-curvature="0"
             id="path136"
             style="fill:#fbc707;fill-opacity:1;fill-rule:nonzero;stroke:none" /><path
             d="m 1187.11,6697.47 c 0,-37.04 -30.01,-67.06 -67.05,-67.06 -37.03,0 -67.05,30.02 -67.05,67.06 0,37.02 30.02,67.04 67.05,67.04 37.04,0 67.05,-30.02 67.05,-67.04"
             inkscape:connector-curvature="0"
             id="path138"
             style="fill:#231f20;fill-opacity:1;fill-rule:nonzero;stroke:none" /><path
             d="m 1084.31,6847.42 c 0,-19.76 16,-35.76 35.75,-35.76 19.76,0 35.77,16 35.77,35.76 l 39.1,323.74 c 0,41.36 -33.52,74.87 -74.87,74.87 -41.34,0 -74.87,-33.51 -74.87,-74.87 l 39.12,-323.74"
             inkscape:connector-curvature="0"
             id="path140"
             style="fill:#231f20;fill-opacity:1;fill-rule:nonzero;stroke:none" /><g
             transform="scale(10,10)"
             id="g142"><text
               transform="matrix(1,0,0,-1,68.5031,446.543)"
               id="text144"><tspan
                 x="0 5.9499998 11.901504 18.901505 25.901505 32.901505 144.5291 151.5291 158.5291 165.5291"
                 y="0"
                 id="tspan146"
                 style="font-size:7px;font-variant:normal;writing-mode:lr-tb;fill:#231f20;fill-opacity:1;fill-rule:nonzero;stroke:none;font-family:TakaoPGothic;-inkscape-font-specification:TakaoPGothic-90ms-RKSJ-H">下り段差注意滑面注意</tspan><tspan
                 x="289.05701 296.05701 303.05701 310.05701"
                 y="0.101953"
                 id="tspan148"
                 style="font-size:7px;font-variant:normal;writing-mode:lr-tb;fill:#231f20;fill-opacity:1;fill-rule:nonzero;stroke:none;font-family:TakaoPGothic;-inkscape-font-specification:TakaoPGothic-90ms-RKSJ-H">転落注意</tspan></text>
<text
               transform="matrix(1,0,0,-1,68.5031,438.0391)"
               id="text150"><tspan
                 x="0 5.3339992 9.5059977 13.677997 15.903996 17.737995 21.909994 26.081993 28.307993 30.533991 34.70599 38.877991 43.049988 46.829987 51.001987 55.173985 57.399982 61.571983 65.351982 69.132004 73.303879 77.083878 80.864037 83.089828 85.315987 87.541992 91.713989 95.885887 101.21987 144.52769 149.86169 154.03369 158.20569 160.43169 162.26569 166.43768 170.60968 172.83568 175.06169 178.84177 180.67575 182.50974 186.68173 190.85374 195.02574 197.63673 201.41682 203.64299 207.42307 211.59506 214.20589 216.43205 220.60394 224.38402"
                 y="0"
                 id="tspan152"
                 style="font-size:7px;font-variant:normal;font-weight:normal;writing-mode:lr-tb;fill:#231f20;fill-opacity:1;fill-rule:nonzero;stroke:none;font-family:Helvetica;-inkscape-font-specification:Helvetica">Caution, uneven access / downCaution, slippery surface</tspan></text>
</g><path
             d="m 1638.69,4607.16 c 21.68,0 42.81,11.21 54.44,31.35 11.65,20.15 10.76,44.04 -0.09,62.84 l -519.7,899.84 c -10.9,18.77 -31.09,31.43 -54.36,31.43 -23.25,-0.02 -43.49,-12.66 -54.33,-31.43 L 545.035,4701.35 c -10.898,-18.8 -11.75,-42.69 -0.097,-62.84 11.593,-20.14 32.71,-31.35 54.449,-31.35 l 1039.303,0"
             inkscape:connector-curvature="0"
             id="path154"
             style="fill:#231f20;fill-opacity:1;fill-rule:nonzero;stroke:none" /><g
             transform="scale(10,10)"
             id="g156"><text
               transform="matrix(1,0,0,-1,357.56,437.937)"
               id="text158"><tspan
                 x="0 5.3339992 9.5059977 13.677997 15.903996 17.737995 21.909994 26.081993 28.307993 30.533991 34.70599 37.31699 41.489101"
                 y="0"
                 id="tspan160"
                 style="font-size:7px;font-variant:normal;font-weight:normal;writing-mode:lr-tb;fill:#231f20;fill-opacity:1;fill-rule:nonzero;stroke:none;font-family:Helvetica;-inkscape-font-specification:Helvetica">Caution, drop</tspan></text>
</g><path
             d="m 1118.93,5528.23 -483.375,-837.24 966.765,0 -483.39,837.24"
             inkscape:connector-curvature="0"
             id="path162"
             style="fill:#fbc707;fill-opacity:1;fill-rule:nonzero;stroke:none" /><path
             d="m 1244.92,4764.85 0,55.83 -457.818,0 0,-36.64 421.188,0 0,-55.83 156.33,0 0,36.64 -119.7,0"
             inkscape:connector-curvature="0"
             id="path164"
             style="fill:#231f20;fill-opacity:1;fill-rule:nonzero;stroke:none" /><path
             d="m 1131.84,5269.78 c 20.56,0 37.23,16.67 37.23,37.23 0,20.56 -16.67,37.23 -37.23,37.23 -20.56,0 -37.23,-16.67 -37.23,-37.23 0,-20.56 16.67,-37.23 37.23,-37.23"
             inkscape:connector-curvature="0"
             id="path166"
             style="fill:#231f20;fill-opacity:1;fill-rule:nonzero;stroke:none" /><path
             d="m 1056.47,5194.88 -62.286,-353.27 40.956,0 53.58,155.62 69.28,-155.62 40.96,0 -71.7,267.58 15.21,44.17 c 17.32,-24.46 38.68,-45.84 63.07,-63.24 l 25.03,20.27 c -40.99,34.69 -69.33,83.87 -77.05,139.66 -0.46,3.29 -2.96,5.91 -6.22,6.45 -8.36,1.39 -16.95,2.11 -25.71,2.11 -38.93,0 -74.54,-14.23 -101.9,-37.77 -28.397,-24.42 -51.366,-54.99 -66.745,-89.67 l 25.11,-19.62 c 17.086,35.11 44.545,64.22 78.415,83.33"
             inkscape:connector-curvature="0"
             id="path168"
             style="fill:#231f20;fill-opacity:1;fill-rule:nonzero;stroke:none" /><path
             d="m 4529.26,4607.16 c 21.68,0 42.81,11.21 54.44,31.35 11.65,20.15 10.76,44.04 -0.08,62.84 l -519.71,899.84 c -10.89,18.77 -31.09,31.43 -54.36,31.43 -23.24,-0.02 -43.49,-12.66 -54.33,-31.43 L 3435.6,4701.35 c -10.89,-18.8 -11.75,-42.69 -0.09,-62.84 11.59,-20.14 32.71,-31.35 54.45,-31.35 l 1039.3,0"
             inkscape:connector-curvature="0"
             id="path170"
             style="fill:#231f20;fill-opacity:1;fill-rule:nonzero;stroke:none" /><path
             d="m 4009.5,5528.23 -483.37,-837.24 966.76,0 -483.39,837.24"
             inkscape:connector-curvature="0"
             id="path172"
             style="fill:#fbc707;fill-opacity:1;fill-rule:nonzero;stroke:none" /><path
             d="m 4038.02,4761.45 448.281,0 0,36.6406 -448.281,0 0,-36.6406 z"
             inkscape:connector-curvature="0"
             id="path174"
             style="fill:#231f20;fill-opacity:1;fill-rule:nonzero;stroke:none" /><path
             d="m 4050.4,4827.96 38.45,143.48 c 1.59,5.92 1.29,11.94 -0.59,17.39 l -13.56,39.37 40.77,-3.43 62.01,-107.41 34.72,21.69 -51.9,128.47 c -3.19,7.88 -9.7,14.34 -18.41,17.17 -1.54,0.5 -3.09,0.86 -4.65,1.11 l -87,13.46 -18.84,54.72 95.36,27.34 -2.21,31.56 -110.8,-23.55 c -2.17,3 -4.48,5.91 -6.93,8.71 l 94.65,95.61 -11.86,29.33 -122.51,-96.73 c -15.9,-12.52 -29.16,-28.66 -38.42,-47.68 -0.19,-0.39 -0.35,-0.8 -0.49,-1.23 -0.78,-2.39 -0.53,-4.86 0.49,-6.95 l 98.86,-202.73 -17.78,-144.68 40.64,4.98"
             inkscape:connector-curvature="0"
             id="path176"
             style="fill:#231f20;fill-opacity:1;fill-rule:nonzero;stroke:none" /><path
             d="m 3955.33,5246.95 c 0,20.56 -16.67,37.23 -37.22,37.23 -20.56,0 -37.22,-16.67 -37.22,-37.23 0,-20.55 16.66,-37.22 37.22,-37.22 20.55,0 37.22,16.67 37.22,37.22"
             inkscape:connector-curvature="0"
             id="path178"
             style="fill:#231f20;fill-opacity:1;fill-rule:nonzero;stroke:none" /><path
             d="m 3084.02,4607.16 c 21.69,0 42.82,11.21 54.45,31.35 11.65,20.16 10.76,44.05 -0.08,62.85 l -519.76,899.93 c -10.9,18.76 -31.09,31.43 -54.36,31.43 -23.25,-0.02 -43.5,-12.67 -54.35,-31.43 l -519.65,-899.93 c -10.9,-18.8 -11.76,-42.69 -0.09,-62.85 11.59,-20.14 32.7,-31.35 54.45,-31.35 l 1039.39,0"
             inkscape:connector-curvature="0"
             id="path180"
             style="fill:#231f20;fill-opacity:1;fill-rule:nonzero;stroke:none" /><path
             d="M 2564.22,5528.32 2080.79,4691 l 966.86,0 -483.43,837.32"
             inkscape:connector-curvature="0"
             id="path182"
             style="fill:#fbc707;fill-opacity:1;fill-rule:nonzero;stroke:none" /><path
             d="m 2417.73,4905.03 -21.84,-21.84 c 79.32,-58.82 173.36,-98.9 275.59,-113.72 l 0,6.51 c -95.51,21.93 -182.16,67.02 -253.75,129.05"
             inkscape:connector-curvature="0"
             id="path184"
             style="fill:#231f20;fill-opacity:1;fill-rule:nonzero;stroke:none" /><path
             d="m 2759.87,4722.44 c -93.07,10.53 -203.17,35.56 -298.39,81.53 l -12.69,-21.96 c 97.94,-36.17 202.37,-58.96 311.08,-66.08 l 0,6.51"
             inkscape:connector-curvature="0"
             id="path186"
             style="fill:#231f20;fill-opacity:1;fill-rule:nonzero;stroke:none" /><path
             d="m 2422.91,5122.34 c 20.55,0 37.23,16.66 37.23,37.22 0,20.56 -16.68,37.22 -37.23,37.22 -20.56,0 -37.23,-16.66 -37.23,-37.22 0,-20.56 16.67,-37.22 37.23,-37.22"
             inkscape:connector-curvature="0"
             id="path188"
             style="fill:#231f20;fill-opacity:1;fill-rule:nonzero;stroke:none" /><path
             d="m 2753.87,5047.56 4.99,40.64 -145.47,-23.05 c -6.49,-1.01 -12.64,-3.05 -18.28,-5.93 l -60.78,-30.97 -27.63,70.94 c 32.92,29.34 59.82,65.28 78.64,105.74 l -27.88,26.85 c -27.12,-56.47 -74.44,-101.37 -132.61,-125.36 -52.96,-21.92 -90.24,-74.06 -90.24,-134.93 0,-11.63 1.39,-22.93 3.96,-33.77 l 34.27,0 c -2.03,7.78 -3.13,15.94 -3.13,24.36 0,35.89 19.74,67.18 48.94,83.62 l 52.43,-90.3 c 7.1,-12.2 19.57,-20.87 34.18,-22.77 l 99.89,-14.04 76.63,-92.32 39.55,10.59 -72.44,125.13 c -3.83,6.6 -10.11,11.61 -17.61,13.73 l -32.34,9.19 36.34,26.39 118.59,36.26"
             inkscape:connector-curvature="0"
             id="path190"
             style="fill:#231f20;fill-opacity:1;fill-rule:nonzero;stroke:none" /><g
             transform="scale(10,10)"
             id="g192"><text
               transform="matrix(1,0,0,-1,209.024,616.762)"
               id="text194"><tspan
                 x="0 4.1999998 9.310154 13.510154 14.840231 19.040232 20.580076 24.780077"
                 y="0"
                 id="tspan196"
                 style="font-size:7px;font-variant:normal;writing-mode:lr-tb;fill:#231f20;fill-opacity:1;fill-rule:nonzero;stroke:none;font-family:Ryumin-Light-90ms-RKSJ;-inkscape-font-specification:Ryumin-Light-90ms-RKSJ-H">mPn</tspan></text>
<text
               transform="matrix(1,0,0,-1,230.724,616.762)"
               id="text198"><tspan
                 x="0 7.0716801 14.07168 20.791601 26.810431 32.479805 38.779259 45.779259 52.779259 59.779259 66.42926 73.289261 80.289261 87.359177"
                 y="0"
                 id="tspan200"
                 style="font-size:7px;font-variant:normal;writing-mode:lr-tb;fill:#231f20;fill-opacity:1;fill-rule:nonzero;stroke:none;font-family:TakaoPGothic;-inkscape-font-specification:TakaoPGothic-90ms-RKSJ-H">（文字による補助表示が必要）</tspan></text>
<text
               transform="matrix(1,0,0,-1,353.691,426.762)"
               id="text202"><tspan
                 x="0 4.1999998 9.310154 13.510154 14.839839 19.039839 20.58007 24.780069"
                 y="0"
                 id="tspan204"
                 style="font-size:7px;font-variant:normal;writing-mode:lr-tb;fill:#231f20;fill-opacity:1;fill-rule:nonzero;stroke:none;font-family:Ryumin-Light-90ms-RKSJ;-inkscape-font-specification:Ryumin-Light-90ms-RKSJ-H">mPn</tspan></text>
<text
               transform="matrix(1,0,0,-1,375.391,426.762)"
               id="text206"><tspan
                 x="0 7.0712881 14.071288 20.79121 26.810429 32.479805 38.779255 45.779255 52.779255 59.779255 66.42926 73.289253 80.289253 87.359566"
                 y="0"
                 id="tspan208"
                 style="font-size:7px;font-variant:normal;writing-mode:lr-tb;fill:#231f20;fill-opacity:1;fill-rule:nonzero;stroke:none;font-family:TakaoPGothic;-inkscape-font-specification:TakaoPGothic-90ms-RKSJ-H">（文字による補助表示が必要）</tspan></text>
</g></g></g></g></g></svg>