<?xml version="1.0" encoding="UTF-8" standalone="no"?>
<!-- Created with Inkscape (http://www.inkscape.org/) -->

<svg
   xmlns:dc="http://purl.org/dc/elements/1.1/"
   xmlns:cc="http://creativecommons.org/ns#"
   xmlns:rdf="http://www.w3.org/1999/02/22-rdf-syntax-ns#"
   xmlns:svg="http://www.w3.org/2000/svg"
   xmlns="http://www.w3.org/2000/svg"
   xmlns:inkscape="http://www.inkscape.org/namespaces/inkscape"
   version="1.1"
   width="765"
   height="990"
   id="svg2"
   xml:space="preserve"><metadata
     id="metadata8"><rdf:RDF><cc:Work
         rdf:about=""><dc:format>image/svg+xml</dc:format><dc:type
           rdf:resource="http://purl.org/dc/dcmitype/StillImage" /></cc:Work></rdf:RDF></metadata><defs
     id="defs6"><clipPath
       id="clipPath18"><path
         d="m 0,0 4899.79,0 0,7920 L 0,7920 0,0 z"
         inkscape:connector-curvature="0"
         id="path20" /></clipPath></defs><g
     transform="matrix(1.25,0,0,-1.25,0,990)"
     id="g10"><g
       transform="scale(0.1,0.1)"
       id="g12"><g
         id="g14"><g
           clip-path="url(#clipPath18)"
           id="g16"><g
             transform="scale(10,10)"
             id="g22"><text
               transform="matrix(1,0,0,-1,43.9371,785.505)"
               id="text24"><tspan
                 x="0 12 21 29.880083 41.880085 53.880085 65.880081 77.880081"
                 y="0"
                 id="tspan26"
                 style="font-size:12px;font-variant:normal;writing-mode:lr-tb;fill:#231f20;fill-opacity:1;fill-rule:nonzero;stroke:none;font-family:TakaoPGothic;-inkscape-font-specification:TakaoPGothic-90ms-RKSJ-H">公共・一般施設 </tspan></text>
<text
               transform="matrix(1,0,0,-1,133.8172,785.505)"
               id="text28"><tspan
                 x="0 8.4839964 15.635992 22.787989 25.931984 29.075979 35.555977 39.371971 47.183968 54.335964 60.81596 63.959957 67.103951 70.247948 74.063942 77.207939 84.35994"
                 y="0"
                 id="tspan30"
                 style="font-size:12px;font-variant:normal;font-weight:normal;writing-mode:lr-tb;fill:#231f20;fill-opacity:1;fill-rule:nonzero;stroke:none;font-family:Helvetica;-inkscape-font-specification:Helvetica">Public Facilities</tspan></text>
</g><path
             d="m 135.41,7957.46 127.051,0 0,-119.22 -127.051,0 0,119.22 z m 73.598,-19.6 -13.57,0 c -2.661,-12.31 -11.333,-14.54 -22.387,-14.82 l 0,-10.36 19.726,0 0,-54.85 16.231,0 0,80.03"
             inkscape:connector-curvature="0"
             id="path32"
             style="fill:#231f20;fill-opacity:1;fill-rule:nonzero;stroke:none" /><path
             d="M 4818.9,7795.27 0,7795.27"
             inkscape:connector-curvature="0"
             id="path34"
             style="fill:none;stroke:#231f20;stroke-width:2;stroke-linecap:butt;stroke-linejoin:miter;stroke-miterlimit:4;stroke-opacity:1;stroke-dasharray:none" /><path
             d="m 311.812,5924.41 0,1842.52"
             inkscape:connector-curvature="0"
             id="path36"
             style="fill:none;stroke:#231f20;stroke-width:2;stroke-linecap:butt;stroke-linejoin:miter;stroke-miterlimit:4;stroke-opacity:1;stroke-dasharray:none" /><path
             d="m 311.812,510.23 0,5357.49"
             inkscape:connector-curvature="0"
             id="path38"
             style="fill:none;stroke:#231f20;stroke-width:2;stroke-linecap:butt;stroke-linejoin:miter;stroke-miterlimit:4;stroke-opacity:1;stroke-dasharray:none" /><path
             d="M 4818.9,5896.06 0,5896.06"
             inkscape:connector-curvature="0"
             id="path40"
             style="fill:none;stroke:#231f20;stroke-width:2;stroke-linecap:butt;stroke-linejoin:miter;stroke-miterlimit:4;stroke-opacity:1;stroke-dasharray:none" /><g
             transform="scale(10,10)"
             id="g42"><text
               transform="matrix(1,0,0,-1,10.0977,561.554)"
               id="text44"><tspan
                 x="0"
                 y="0"
                 id="tspan46"
                 style="font-size:12px;font-variant:normal;font-weight:normal;writing-mode:lr-tb;fill:#231f20;fill-opacity:1;fill-rule:nonzero;stroke:none;font-family:Helvetica;-inkscape-font-specification:Helvetica">B</tspan></text>
<text
               transform="matrix(1,0,0,-1,69.0684,636.4161)"
               id="text48"><tspan
                 x="0 7 14"
                 y="0"
                 id="tspan50"
                 style="font-size:7px;font-variant:normal;writing-mode:lr-tb;fill:#231f20;fill-opacity:1;fill-rule:nonzero;stroke:none;font-family:TakaoPGothic;-inkscape-font-specification:TakaoPGothic-90ms-RKSJ-H">喫煙所</tspan><tspan
                 x="-0.94023401 4.8704686 9.8418951 14.951934 20.763456 26.015099"
                 y="189.92101"
                 id="tspan52"
                 style="font-size:7px;font-variant:normal;writing-mode:lr-tb;fill:#231f20;fill-opacity:1;fill-rule:nonzero;stroke:none;font-family:TakaoPGothic;-inkscape-font-specification:TakaoPGothic-90ms-RKSJ-H">チェックイン</tspan></text>
<text
               transform="matrix(1,0,0,-1,103.95395,446.4951)"
               id="text54"><tspan
                 x="0 2.2261758"
                 y="0"
                 id="tspan56"
                 style="font-size:7px;font-variant:normal;font-weight:normal;writing-mode:lr-tb;fill:#231f20;fill-opacity:1;fill-rule:nonzero;stroke:none;font-family:Helvetica;-inkscape-font-specification:Helvetica">/ </tspan></text>
<text
               transform="matrix(1,0,0,-1,108.4059,446.4951)"
               id="text58"><tspan
                 x="0 7 104.7403 111.18015 117.90137 124.90137 131.90137 138.90137 248.98897 255.2196 261.58844"
                 y="0"
                 id="tspan60"
                 style="font-size:7px;font-variant:normal;writing-mode:lr-tb;fill:#231f20;fill-opacity:1;fill-rule:nonzero;stroke:none;font-family:TakaoPGothic;-inkscape-font-specification:TakaoPGothic-90ms-RKSJ-H">受付忘れ物取扱所ホテル</tspan></text>
<text
               transform="matrix(1,0,0,-1,379.15107,446.4951)"
               id="text62"><tspan
                 x="0 2.225785"
                 y="0"
                 id="tspan64"
                 style="font-size:7px;font-variant:normal;font-weight:normal;writing-mode:lr-tb;fill:#231f20;fill-opacity:1;fill-rule:nonzero;stroke:none;font-family:Helvetica;-inkscape-font-specification:Helvetica">/ </tspan></text>
<text
               transform="matrix(1,0,0,-1,383.60302,446.4951)"
               id="text66"><tspan
                 x="0 7 14 21"
                 y="0"
                 id="tspan68"
                 style="font-size:7px;font-variant:normal;writing-mode:lr-tb;fill:#231f20;fill-opacity:1;fill-rule:nonzero;stroke:none;font-family:TakaoPGothic;-inkscape-font-specification:TakaoPGothic-90ms-RKSJ-H">宿泊施設</tspan><tspan
                 x="-315.89499 -310.36368 -304.34241 -298.67398 -293.84225 -288.38098"
                 y="189.92101"
                 id="tspan70"
                 style="font-size:7px;font-variant:normal;writing-mode:lr-tb;fill:#231f20;fill-opacity:1;fill-rule:nonzero;stroke:none;font-family:TakaoPGothic;-inkscape-font-specification:TakaoPGothic-90ms-RKSJ-H">きっぷうりば</tspan></text>
<text
               transform="matrix(1,0,0,-1,104.3037,256.5741)"
               id="text72"><tspan
                 x="0 2.2261758"
                 y="0"
                 id="tspan74"
                 style="font-size:7px;font-variant:normal;font-weight:normal;writing-mode:lr-tb;fill:#231f20;fill-opacity:1;fill-rule:nonzero;stroke:none;font-family:Helvetica;-inkscape-font-specification:Helvetica">/ </tspan></text>
<text
               transform="matrix(1,0,0,-1,108.75565,256.5741)"
               id="text76"><tspan
                 x="0 7 14 104.3903 111.3903 118.3903 125.3903 132.3903 139.3903 145.83014 151.50137 157.45171 248.0807 253.88979 259.14142 265.23264 270.69321 276.0134 281.96423"
                 y="0"
                 id="tspan78"
                 style="font-size:7px;font-variant:normal;writing-mode:lr-tb;fill:#231f20;fill-opacity:1;fill-rule:nonzero;stroke:none;font-family:TakaoPGothic;-inkscape-font-specification:TakaoPGothic-90ms-RKSJ-H">精算所手荷物一時預かり所コインロッカー</tspan><tspan
                 x="-40.137501 -33.137501 -26.137501"
                 y="189.92101"
                 id="tspan80"
                 style="font-size:7px;font-variant:normal;writing-mode:lr-tb;fill:#231f20;fill-opacity:1;fill-rule:nonzero;stroke:none;font-family:TakaoPGothic;-inkscape-font-specification:TakaoPGothic-90ms-RKSJ-H">休憩所</tspan></text>
<text
               transform="matrix(1,0,0,-1,91.843925,66.6531)"
               id="text82"><tspan
                 x="0 2.2261693"
                 y="0"
                 id="tspan84"
                 style="font-size:7px;font-variant:normal;font-weight:normal;writing-mode:lr-tb;fill:#231f20;fill-opacity:1;fill-rule:nonzero;stroke:none;font-family:Helvetica;-inkscape-font-specification:Helvetica">/ </tspan></text>
<text
               transform="matrix(1,0,0,-1,96.295876,66.6531)"
               id="text86"><tspan
                 x="0 7 14 115.7303 120.90971 127.00036 132.59927 137.43002 143.31067 149.61136 155.63043 160.88208 165.43304 261.38205 268.38205 273.63205 278.8121 285.8121"
                 y="0"
                 id="tspan88"
                 style="font-size:7px;font-variant:normal;writing-mode:lr-tb;fill:#231f20;fill-opacity:1;fill-rule:nonzero;stroke:none;font-family:TakaoPGothic;-inkscape-font-specification:TakaoPGothic-90ms-RKSJ-H">待合室ミーティングポイント銀行・両替</tspan></text>
<text
               transform="matrix(1,0,0,-1,353.54588,46.6359)"
               id="text90"><tspan
                 x="0 4.1999998 9.3097687 13.509769 14.839846 19.039846 20.580076 24.780077"
                 y="0"
                 id="tspan92"
                 style="font-size:7px;font-variant:normal;writing-mode:lr-tb;fill:#231f20;fill-opacity:1;fill-rule:nonzero;stroke:none;font-family:Ryumin-Light-90ms-RKSJ;-inkscape-font-specification:Ryumin-Light-90ms-RKSJ-H">mQn</tspan></text>
<text
               transform="matrix(1,0,0,-1,375.24588,46.6359)"
               id="text94"><tspan
                 x="0 7.0712881 14.071288 21.071287 28.071287 35.071289 40.741211 47.181168 53.410854 59.85191 63.351768 70.421692"
                 y="0"
                 id="tspan96"
                 style="font-size:7px;font-variant:normal;writing-mode:lr-tb;fill:#231f20;fill-opacity:1;fill-rule:nonzero;stroke:none;font-family:TakaoPGothic;-inkscape-font-specification:TakaoPGothic-90ms-RKSJ-H">（通貨記号差し替え 可）</tspan></text>
<text
               transform="matrix(1,0,0,-1,69.067876,627.9119)"
               id="text98"><tspan
                 x="0 4.9489989 11.059998 15.231997 19.0117 20.84568 25.017679 29.189678 31.415676 35.587479 38.198811 42.370808"
                 y="0"
                 id="tspan100"
                 style="font-size:7px;font-variant:normal;font-weight:normal;writing-mode:lr-tb;fill:#231f20;fill-opacity:1;fill-rule:nonzero;stroke:none;font-family:Helvetica;-inkscape-font-specification:Helvetica">Smoking area</tspan><tspan
                 x="-0.44999 4.8840089 9.0560083 13.228007 17.007811 20.787498 23.398827 25.232422 29.40469 31.630468 33.856644 36.082821 41.416809 45.58881 49.368809 53.540611 57.71249 59.938488 61.772488 65.944489 144.07768 148.24957 152.42143 156.20145 158.42744 160.65344 164.82574 168.99762 173.16951 175.39568 177.62146 181.79375 185.96562 190.13751 288.60651 293.94049 298.11273 300.33871 304.51071 306.3447 308.57095 310.79672 313.02289 317.97171 321.75171 325.53171 329.7037 335.81473 341.92572 346.09671 350.26898 354.44098 356.66699 358.50098 362.67297"
                 y="189.92"
                 id="tspan102"
                 style="font-size:7px;font-variant:normal;font-weight:normal;writing-mode:lr-tb;fill:#231f20;fill-opacity:1;fill-rule:nonzero;stroke:none;font-family:Helvetica;-inkscape-font-specification:Helvetica">Check-in / ReceptionLost and foundHotel / Accommodation</tspan><tspan
                 x="-0.45001 4.1066298 5.940629 9.7206898 13.50077 17.67277 19.898767 23.678766 25.904671 28.130449 30.356464 34.913479 39.085548 41.696491 45.868488 48.094486 52.266788 56.43866 58.272652 62.444649 66.224648 68.450752 74.561684 78.733551 82.905426 144.07773 149.02655 153.19875 157.37074 161.5425 165.71477 169.88664 174.05864 176.28464 180.06464 182.29063 186.46263 189.07375 193.24562 197.41751 288.60651 293.94049 298.11237 299.94635 304.11874 306.34476 308.17773 312.34961 316.12967 319.90976 324.08163 326.69257"
                 y="379.84201"
                 id="tspan104"
                 style="font-size:7px;font-variant:normal;font-weight:normal;writing-mode:lr-tb;fill:#231f20;fill-opacity:1;fill-rule:nonzero;stroke:none;font-family:Helvetica;-inkscape-font-specification:Helvetica">Tickets / Fare adjustmentBaggage storageCoin lockers</tspan><tspan
                 x="-0.45028001 3.7215967 7.8934736 12.06572 16.237719 20.409718 24.581717 26.80752 29.033298 31.259468 38.14732 42.319321 44.153316 46.379318 48.213318 52.385315 56.557522 58.783298 61.394299 65.566299 69.738297 144.07739 150.18834 154.36034 158.53233 160.75833 162.59233 166.76433 170.93634 173.16212 177.3344 181.50629 183.34026 187.51215"
                 y="569.763"
                 id="tspan106"
                 style="font-size:7px;font-variant:normal;font-weight:normal;writing-mode:lr-tb;fill:#231f20;fill-opacity:1;fill-rule:nonzero;stroke:none;font-family:Helvetica;-inkscape-font-specification:Helvetica">Lounge / Waiting roomMeeting point</tspan></text>
</g><path
             d="M 4818.9,340.16 4818.9,0"
             inkscape:connector-curvature="0"
             id="path108"
             style="fill:none;stroke:#231f20;stroke-width:2;stroke-linecap:butt;stroke-linejoin:miter;stroke-miterlimit:4;stroke-opacity:1;stroke-dasharray:none" /><g
             transform="scale(10,10)"
             id="g110"><text
               transform="matrix(1,0,0,-1,357.675,58.1492)"
               id="text112"><tspan
                 x="0 4.9488339 9.1210899 13.293089 17.07304 19.298824 21.52499 27.635975 31.807959 35.980091 40.151974 43.932041 46.158054 50.33009 54.110168 57.889854 62.06213 66.233994 70.405991 74.578133"
                 y="0"
                 id="tspan114"
                 style="font-size:7px;font-variant:normal;font-weight:normal;writing-mode:lr-tb;fill:#231f20;fill-opacity:1;fill-rule:nonzero;stroke:none;font-family:Helvetica;-inkscape-font-specification:Helvetica">Bank, money exchange</tspan></text>
<text
               transform="matrix(1,0,0,-1,483.30703,29.764)"
               id="text116"><tspan
                 x="0 3.336"
                 y="0"
                 id="tspan118"
                 style="font-size:6px;font-variant:normal;font-weight:normal;writing-mode:lr-tb;fill:#231f20;fill-opacity:1;fill-rule:nonzero;stroke:none;font-family:Helvetica;-inkscape-font-specification:Helvetica">07</tspan></text>
<text
               transform="matrix(1,0,0,-1,2.01303,575.712)"
               id="text120"><tspan
                 x="0 8 16"
                 y="0"
                 id="tspan122"
                 style="font-size:8px;font-variant:normal;writing-mode:lr-tb;fill:#231f20;fill-opacity:1;fill-rule:nonzero;stroke:none;font-family:TakaoPGothic;-inkscape-font-specification:TakaoPGothic-90ms-RKSJ-H">推奨度</tspan></text>
<text
               transform="matrix(1,0,0,-1,10.0978,751.474)"
               id="text124"><tspan
                 x="0"
                 y="0"
                 id="tspan126"
                 style="font-size:12px;font-variant:normal;font-weight:normal;writing-mode:lr-tb;fill:#231f20;fill-opacity:1;fill-rule:nonzero;stroke:none;font-family:Helvetica;-inkscape-font-specification:Helvetica">A</tspan></text>
</g><path
             d="m 686.781,6505.89 c -34.238,0 -61.996,27.76 -61.996,62 l 0,867.93 c 0,34.24 27.758,62 61.996,62 l 867.929,0 c 34.24,0 62,-27.76 62,-62 l 0,-867.93 c 0,-34.24 -27.76,-62 -62,-62 l -867.929,0 z"
             inkscape:connector-curvature="0"
             id="path128"
             style="fill:none;stroke:#231f20;stroke-width:2;stroke-linecap:butt;stroke-linejoin:miter;stroke-miterlimit:4;stroke-opacity:1;stroke-dasharray:none" /><path
             d="m 738.887,6729.98 654.883,0 0,109.141 -654.883,0 0,-109.141 z"
             inkscape:connector-curvature="0"
             id="path130"
             style="fill:#231f20;fill-opacity:1;fill-rule:nonzero;stroke:none" /><path
             d="m 1411.97,6729.98 36.3828,0 0,109.141 -36.3828,0 0,-109.141 z"
             inkscape:connector-curvature="0"
             id="path132"
             style="fill:#231f20;fill-opacity:1;fill-rule:nonzero;stroke:none" /><path
             d="m 1466.54,6729.98 36.3828,0 0,109.141 -36.3828,0 0,-109.141 z"
             inkscape:connector-curvature="0"
             id="path134"
             style="fill:#231f20;fill-opacity:1;fill-rule:nonzero;stroke:none" /><path
             d="m 1444,7171.09 -93.75,0 5.22,17.93 c 2.38,7.68 3.96,19.01 3.96,23.62 0,54.78 -44.41,99.19 -99.2,99.19 l -62.49,0 -16.61,-61.99 75.91,0 c 27.38,0 49.59,-22.21 49.59,-49.6 0,-4.89 -0.72,-9.62 -2.04,-14.09 l -11.76,-39.7 c -0.5,-1.67 -0.77,-3.44 -0.77,-5.28 0,-10.27 8.32,-18.6 18.59,-18.6 l 118.94,0 c 26.79,0 48.52,-21.71 48.52,-48.51 0,-0.64 -0.03,-1.29 -0.05,-1.93 l -7.85,-189.68 23.39,0 25.59,203.33 c 0.39,3.11 0.61,6.28 0.61,9.51 0,41.86 -33.94,75.8 -75.8,75.8"
             inkscape:connector-curvature="0"
             id="path136"
             style="fill:#231f20;fill-opacity:1;fill-rule:nonzero;stroke:none" /><path
             d="m 1430.04,6882.45 17.18,0 0,110.53 c 0,30.14 -24.43,54.57 -54.57,54.57 l -99.13,0 c -52.44,0 -95.44,40.34 -99.71,91.66 -0.53,6.39 -5.84,11.43 -12.36,11.43 l -27.4,0 c -77.03,0 -139.47,62.44 -139.47,139.47 0,29.01 8.9,55.94 24.07,78.25 l -71.709,0 c -11.32,-23.7 -17.679,-50.24 -17.679,-78.25 0,-100.47 81.448,-181.92 181.918,-181.92 l 13.87,0 c 21.91,-56.75 76.97,-97.02 141.45,-97.02 l 99.13,0 c 19.03,0 34.62,-14.61 36.23,-33.22 l 8.18,-95.5"
             inkscape:connector-curvature="0"
             id="path138"
             style="fill:#231f20;fill-opacity:1;fill-rule:nonzero;stroke:none" /><path
             d="m 686.781,808.262 c -34.242,0 -61.996,27.758 -61.996,61.988 l 0,867.94 c 0,34.24 27.754,61.99 61.996,61.99 l 867.929,0 c 34.24,0 62,-27.75 62,-61.99 l 0,-867.94 c 0,-34.23 -27.76,-61.988 -62,-61.988 l -867.929,0 z"
             inkscape:connector-curvature="0"
             id="path140"
             style="fill:none;stroke:#231f20;stroke-width:2;stroke-linecap:butt;stroke-linejoin:miter;stroke-miterlimit:4;stroke-opacity:1;stroke-dasharray:none" /><path
             d="m 1217.12,1519.41 c 30.13,0 54.55,24.43 54.55,54.55 0,30.13 -24.42,54.55 -54.55,54.55 -30.12,0 -54.55,-24.42 -54.55,-54.55 0,-30.12 24.43,-54.55 54.55,-54.55"
             inkscape:connector-curvature="0"
             id="path142"
             style="fill:#231f20;fill-opacity:1;fill-rule:nonzero;stroke:none" /><path
             d="m 1073.96,1628.51 c -30.13,0 -54.56,-24.42 -54.56,-54.55 0,-30.12 24.43,-54.55 54.56,-54.55 30.12,0 54.55,24.43 54.55,54.55 0,30.13 -24.43,54.55 -54.55,54.55"
             inkscape:connector-curvature="0"
             id="path144"
             style="fill:#231f20;fill-opacity:1;fill-rule:nonzero;stroke:none" /><path
             d="m 1111.95,1499.88 c -7.58,1.65 -15.46,2.54 -23.53,2.54 -15.22,0 -29.72,-3.1 -42.91,-8.67 l -225.432,-91.06 0,-46.15 156.61,36.15 -10.336,-65.24 -124.465,15.27 c -3.047,0.37 -6.164,0.5 -9.336,0.34 -21.461,-1.13 -39.297,-14.73 -46.875,-33.41 l -79.621,-196.54 58.617,-15.71 41.195,71.35 0,-152.77 64.113,0 20.172,190.7 122.568,0 c 34.31,0 62.73,25.13 67.9,57.98 l 36.13,228.19 c 0.52,3.22 -1.57,6.32 -4.8,7.03"
             inkscape:connector-curvature="0"
             id="path146"
             style="fill:#231f20;fill-opacity:1;fill-rule:nonzero;stroke:none" /><path
             d="m 1473.54,1268.52 c -3.54,18.3 -18.59,32.48 -37.31,34.76 l -109.81,13.48 -14.64,92.47 c -8.3,52.8 -53.99,93.19 -109.11,93.19 -8.09,0 -15.96,-0.89 -23.54,-2.54 -3.23,-0.71 -5.31,-3.81 -4.8,-7.03 l 36.13,-228.18 c 5.17,-32.86 33.59,-57.99 67.89,-57.99 l 118,0 65.67,-190.7 60.6,0 -49.08,252.54"
             inkscape:connector-curvature="0"
             id="path148"
             style="fill:#231f20;fill-opacity:1;fill-rule:nonzero;stroke:none" /><path
             d="m 921.152,1144.1 444.207,0 0,37.7773 -444.207,0 0,-37.7773 z"
             inkscape:connector-curvature="0"
             id="path150"
             style="fill:#231f20;fill-opacity:1;fill-rule:nonzero;stroke:none" /><path
             d="m 3576.75,2707.47 c -34.25,0 -62.01,27.77 -62.01,62.02 l 0,868.18 c 0,34.25 27.76,62.02 62.01,62.02 l 868.19,0 c 34.25,0 62.01,-27.77 62.01,-62.02 l 0,-868.18 c 0,-34.25 -27.76,-62.02 -62.01,-62.02 l -868.19,0 z"
             inkscape:connector-curvature="0"
             id="path152"
             style="fill:none;stroke:#231f20;stroke-width:2;stroke-linecap:butt;stroke-linejoin:miter;stroke-miterlimit:4;stroke-opacity:1;stroke-dasharray:none" /><path
             d="m 3716.19,2823.02 589.31,0 0,517.52 -589.31,0 0,-517.52 z m 523.17,66.14 -457.03,0 0,385.24 457.03,0 0,-385.24"
             inkscape:connector-curvature="0"
             id="path154"
             style="fill:#231f20;fill-opacity:1;fill-rule:nonzero;stroke:none" /><path
             d="m 3941.35,3168.04 0,52.75 10.54,2.5 c 19.25,4.56 39.08,6.87 58.96,6.87 19.77,0 39.6,-2.31 58.96,-6.87 l 10.57,-2.49 -0.01,-52.77 84.41,0 c 11.59,0 20.99,-9.41 20.99,-21 l 0.06,-177.2 c 0,-11.6 -9.4,-21 -21,-21 l -307.97,0.02 c -11.6,0 -21,9.4 -21,21 l 0.01,177.19 c 0,11.61 9.41,21.01 21,21.01 l 84.48,-0.01 z m 118.4,-0.01 c 0,0 0,24.96 0,36.36 -16.11,3.4 -32.53,5.14 -48.9,5.14 -16.45,0 -32.86,-1.73 -48.87,-5.13 l -0.01,-36.36 97.78,-0.01"
             inkscape:connector-curvature="0"
             id="path156"
             style="fill:#231f20;fill-opacity:1;fill-rule:nonzero;stroke:none" /><path
             d="m 3943.4,3403.07 -108.89,-19.2 c -2.29,-0.4 -4.63,-0.65 -7.03,-0.65 -22.42,0 -40.59,18.17 -40.59,40.57 l 0,144.05 c 0,22.41 18.17,40.57 40.59,40.57 2.4,0 4.74,-0.25 7.03,-0.65 l 108.89,-19.2 0,-39.55 243.46,0 63.91,-38.35 0,-29.69 -63.91,-38.35 -28.06,28.06 -28.05,-28.06 -28.05,28.06 -28.06,-28.06 -28.06,28.06 -28.05,-28.06 -75.13,0 0,-39.55 z m -115.93,68.19 c 0,-9.6 7.79,-17.38 17.39,-17.38 9.61,0 17.39,7.78 17.39,17.38 l 0,49.11 c 0,9.6 -7.78,17.39 -17.39,17.39 -9.6,0 -17.39,-7.79 -17.39,-17.39 l 0,-49.11"
             inkscape:connector-curvature="0"
             id="path158"
             style="fill:#231f20;fill-opacity:1;fill-rule:nonzero;stroke:none" /><path
             d="m 2207.17,3228.19 717.727,0 0,37.7891 -717.727,0 0,-37.7891 z"
             inkscape:connector-curvature="0"
             id="path160"
             style="fill:#231f20;fill-opacity:1;fill-rule:nonzero;stroke:none" /><path
             d="m 2207.17,2827.86 717.727,0 0,37.7812 -717.727,0 0,-37.7812 z"
             inkscape:connector-curvature="0"
             id="path162"
             style="fill:#231f20;fill-opacity:1;fill-rule:nonzero;stroke:none" /><path
             d="m 2446.25,3477.22 0,17.52 c 0,21.2 -8.26,41.13 -23.24,56.11 -14.99,14.99 -34.91,23.24 -56.11,23.24 -21.19,0 -41.12,-8.25 -56.1,-23.24 -14.99,-14.98 -23.25,-34.91 -23.25,-56.11 l 0,-17.51 c -32.71,-1.44 -59.74,-24.9 -66.25,-56.03 -9.21,-42.05 -14.13,-85.42 -14.13,-130.41 l 319.46,0 c 0,44.84 -4.97,88.3 -14.13,130.23 -6.5,31.12 -33.56,54.74 -66.25,56.2 z m -117.78,55.96 c 10.27,10.26 23.91,15.92 38.43,15.92 14.52,0 28.16,-5.66 38.43,-15.92 10.27,-10.27 15.92,-23.92 15.92,-38.44 l 0,-17.45 -108.7,0 0,17.45 c 0,14.52 5.65,28.17 15.92,38.44"
             inkscape:connector-curvature="0"
             id="path164"
             style="fill:#231f20;fill-opacity:1;fill-rule:nonzero;stroke:none" /><path
             d="m 2924.83,3488.91 c 0,11.59 -9.4,20.99 -20.99,20.99 l -82.26,0.01 0,54.42 -1.63,0.39 -10.56,2.48 c -19.51,4.6 -39.5,6.92 -59.43,6.92 -20.03,0 -40.02,-2.32 -59.42,-6.91 l -10.54,-2.5 -1.62,-0.39 0,-1.66 -0.01,-52.74 -82.33,0 c -11.6,0 -21,-9.4 -21,-20.99 l -0.01,-177.14 c 0,-11.6 9.39,-21 20.99,-21 l 307.88,-0.02 c 11.59,0 20.99,9.4 21,20.99 l -0.07,177.15 z m -221.62,55.62 c 15.38,3.15 31.09,4.76 46.75,4.76 15.59,0 31.31,-1.62 46.78,-4.77 l 0,-34.61 -93.53,0.01 0,34.61"
             inkscape:connector-curvature="0"
             id="path166"
             style="fill:#231f20;fill-opacity:1;fill-rule:nonzero;stroke:none" /><path
             d="m 2910.77,3020.67 c -6.51,31.12 -33.56,54.74 -66.26,56.2 l 0,17.52 c 0,21.2 -8.26,41.12 -23.24,56.11 -14.99,14.99 -34.91,23.24 -56.1,23.24 -21.2,0 -41.13,-8.25 -56.11,-23.24 -14.99,-14.99 -23.24,-34.91 -23.24,-56.11 l 0,-17.52 c -32.71,-1.43 -59.74,-24.89 -66.25,-56.02 -9.21,-42.05 -14.14,-85.43 -14.14,-130.41 l 319.47,0 c 0,44.84 -4.98,88.3 -14.13,130.23 z m -184.04,112.16 c 10.27,10.26 23.92,15.91 38.44,15.91 14.51,0 28.16,-5.65 38.42,-15.91 10.27,-10.27 15.92,-23.92 15.92,-38.44 l 0,-17.44 -108.69,0 0,17.44 c 0,14.52 5.65,28.17 15.91,38.44"
             inkscape:connector-curvature="0"
             id="path168"
             style="fill:#231f20;fill-opacity:1;fill-rule:nonzero;stroke:none" /><path
             d="m 2535.99,3109.56 -82.27,0.01 0,54.43 -1.63,0.38 -10.56,2.49 c -19.5,4.59 -39.5,6.92 -59.43,6.92 -20.03,0 -40.02,-2.33 -59.41,-6.92 l -10.55,-2.5 -1.62,-0.38 0,-54.41 -82.35,0 c -11.59,0 -20.99,-9.39 -20.99,-20.99 l -0.01,-177.14 c 0,-11.6 9.4,-20.99 20.99,-21 l 307.88,-0.01 c 11.6,-0.01 21,9.39 21,20.99 l -0.06,177.14 c 0,11.59 -9.4,20.99 -20.99,20.99 z m -200.63,34.64 c 15.37,3.14 31.09,4.75 46.74,4.75 15.59,0 31.31,-1.61 46.78,-4.76 l 0,-34.62 -93.52,0.01 0,34.62"
             inkscape:connector-curvature="0"
             id="path170"
             style="fill:#231f20;fill-opacity:1;fill-rule:nonzero;stroke:none" /><path
             d="m 2132.07,2707.47 c -34.24,0 -62,27.76 -62,62 l 0,867.93 c 0,34.24 27.76,61.99 62,61.99 l 867.93,0 c 34.24,0 61.99,-27.75 61.99,-61.99 l 0,-867.93 c 0,-34.24 -27.75,-62 -61.99,-62 l -867.93,0 z"
             inkscape:connector-curvature="0"
             id="path172"
             style="fill:none;stroke:#231f20;stroke-width:2;stroke-linecap:butt;stroke-linejoin:miter;stroke-miterlimit:4;stroke-opacity:1;stroke-dasharray:none" /><path
             d="m 3577.36,4606.68 c -34.23,0 -61.99,27.76 -61.99,62 l 0,867.92 c 0,34.23 27.76,61.99 61.99,61.99 l 867.92,0 c 34.24,0 62,-27.76 62,-61.99 l 0,-867.92 c 0,-34.24 -27.76,-62 -62,-62 l -867.92,0 z"
             inkscape:connector-curvature="0"
             id="path174"
             style="fill:none;stroke:#231f20;stroke-width:2;stroke-linecap:butt;stroke-linejoin:miter;stroke-miterlimit:4;stroke-opacity:1;stroke-dasharray:none" /><path
             d="m 3797.16,5067.22 c 36.24,0 65.63,29.38 65.63,65.63 0,36.24 -29.39,65.63 -65.63,65.63 -36.25,0 -65.63,-29.39 -65.63,-65.63 0,-36.25 29.38,-65.63 65.63,-65.63"
             inkscape:connector-curvature="0"
             id="path176"
             style="fill:#231f20;fill-opacity:1;fill-rule:nonzero;stroke:none" /><path
             d="m 3797.16,5067.22 c 36.24,0 65.63,29.38 65.63,65.63 0,36.24 -29.39,65.63 -65.63,65.63 -36.25,0 -65.63,-29.39 -65.63,-65.63 0,-36.25 29.38,-65.63 65.63,-65.63"
             inkscape:connector-curvature="0"
             id="path178"
             style="fill:#231f20;fill-opacity:1;fill-rule:nonzero;stroke:none" /><path
             d="m 3924.51,4944.91 469.23,0 0,68.39 c 0,31.12 -23.82,56.65 -54.21,59.41 l -356.6,32.71 -69.75,6.4 c -1.31,0.11 -2.63,0.2 -3.97,0.2 -19.77,0 -36.55,-12.62 -42.86,-30.22 l -27.92,-76.6 c -35.41,41.12 -85.38,66.85 -139.51,71.71 l 0,150.98 -59.67,0 0,-509.86 59.67,0 0,117.16 635.16,0 0,-117.16 59.66,0 0,208.29 -694.82,0 0,18.59 225.59,0 z m -34.71,128.34 c 2.96,8.26 10.76,13.8 19.41,13.8 0.59,0 1.51,-0.07 1.81,-0.1 l 63.08,-5.78 -40.56,-111.46 -81.48,0 37.74,103.54 z M 3698.92,5052 c 25.31,-2.58 49.89,-10.37 71.99,-22.91 22.54,-12.8 42.21,-30.35 57.56,-51.2 l -2.98,-8.18 -126.57,0 0,82.29"
             inkscape:connector-curvature="0"
             id="path180"
             style="fill:#231f20;fill-opacity:1;fill-rule:nonzero;stroke:none" /><path
             d="m 4250.42,5099.55 30.99,-2.84 0,226 106.84,0 -54.56,136.4 -136.39,0 -54.55,-136.4 107.67,0 0,-223.16"
             inkscape:connector-curvature="0"
             id="path182"
             style="fill:#231f20;fill-opacity:1;fill-rule:nonzero;stroke:none" /><path
             d="m 686.184,4606.68 c -34.266,0 -62.039,27.78 -62.039,62.04 l 0,868.52 c 0,34.26 27.773,62.04 62.039,62.04 l 868.516,0 c 34.26,0 62.04,-27.78 62.04,-62.04 l 0,-868.52 c 0,-34.26 -27.78,-62.04 -62.04,-62.04 l -868.516,0 z"
             inkscape:connector-curvature="0"
             id="path184"
             style="fill:none;stroke:#231f20;stroke-width:2;stroke-linecap:butt;stroke-linejoin:miter;stroke-miterlimit:4;stroke-opacity:1;stroke-dasharray:none" /><path
             d="m 1314.89,5365 c 30.15,0 54.59,24.44 54.59,54.59 0,30.15 -24.44,54.59 -54.59,54.59 -30.15,0 -54.59,-24.44 -54.59,-54.59 0,-30.15 24.44,-54.59 54.59,-54.59"
             inkscape:connector-curvature="0"
             id="path186"
             style="fill:#231f20;fill-opacity:1;fill-rule:nonzero;stroke:none" /><path
             d="m 1528.29,5092.04 -86.31,0 8.65,164.99 c 2.98,42.23 -26.98,80.39 -69.56,86.69 -21.6,3.2 -43.69,4.91 -66.18,4.91 -35.09,0 -69.21,-4.08 -101.97,-11.72 -3.53,-0.82 -6.44,-3.28 -7.93,-6.5 l -102.59,-219.77 56.86,0 54.13,93.59 7.9,-112.19 -509.388,0 0,-37.19 512.018,0 22.36,-317.62 59.31,0 0,311.21 18.6,0 0,-311.21 59.31,0 22.29,317.62 122.5,0 0,37.19"
             inkscape:connector-curvature="0"
             id="path188"
             style="fill:#231f20;fill-opacity:1;fill-rule:nonzero;stroke:none" /><path
             d="m 924.688,5365 c 30.148,0 54.589,24.44 54.589,54.59 0,30.15 -24.441,54.59 -54.589,54.59 -30.153,0 -54.59,-24.44 -54.59,-54.59 0,-30.15 24.437,-54.59 54.59,-54.59"
             inkscape:connector-curvature="0"
             id="path190"
             style="fill:#231f20;fill-opacity:1;fill-rule:nonzero;stroke:none" /><path
             d="m 852.859,5262.53 17.512,-75.84 c -16.355,-23.4 -30.012,-48.83 -40.586,-75.8 l 189.805,-0.01 c -10.57,26.98 -24.223,52.41 -40.586,75.82 l 17.512,75.83 29.924,-51.83 c 5.35,-9.27 15.35,-15.52 26.82,-15.52 12.43,0 23.13,7.34 28.07,17.91 l 43.7,93.74 -46.45,0 -20.93,-39.38 -32.96,59.45 c -1.6,2.89 -4.21,5.15 -7.37,6.23 -29.027,10.03 -60.191,15.49 -92.632,15.49 -23.676,0 -46.665,-2.95 -68.653,-8.41 -30.219,-7.51 -51.68,-32.11 -56.773,-60.91 l -29.836,-168.66 42.918,0 40.515,151.89"
             inkscape:connector-curvature="0"
             id="path192"
             style="fill:#231f20;fill-opacity:1;fill-rule:nonzero;stroke:none" /><path
             d="m 2131.46,4606.68 c -34.24,0 -62,27.77 -62,62.02 l 0,868.15 c 0,34.25 27.76,62.02 62,62.02 l 868.16,0 c 34.25,0 62.02,-27.77 62.02,-62.02 l 0,-868.15 c 0,-34.25 -27.77,-62.02 -62.02,-62.02 l -868.16,0 z"
             inkscape:connector-curvature="0"
             id="path194"
             style="fill:none;stroke:#231f20;stroke-width:2;stroke-linecap:butt;stroke-linejoin:miter;stroke-miterlimit:4;stroke-opacity:1;stroke-dasharray:none" /><path
             d="m 2698.65,4826.02 c -6.62,31.63 -34.57,55.47 -68.04,55.99 l 0,17.38 c 0,42.46 -34.42,76.88 -76.87,76.88 -42.46,0 -76.87,-34.42 -76.87,-76.88 l 0,-17.38 c -33.5,-0.49 -61.43,-24.17 -68.05,-55.81 -9.16,-41.86 -14.06,-85.02 -14.06,-129.8 l 317.95,0 c 0,44.63 -4.95,87.89 -14.06,129.62 z m -144.91,123.32 c 13.34,0 25.87,-5.2 35.31,-14.63 9.44,-9.43 14.63,-21.97 14.63,-35.32 l 0,-17.36 -99.89,0 0,17.36 c 0,27.54 22.41,49.95 49.95,49.95"
             inkscape:connector-curvature="0"
             id="path196"
             style="fill:#231f20;fill-opacity:1;fill-rule:nonzero;stroke:none" /><path
             d="m 2165.49,5075.16 74.7227,0 0,21.4102 -74.7227,0 0,-21.4102 z"
             inkscape:connector-curvature="0"
             id="path198"
             style="fill:#231f20;fill-opacity:1;fill-rule:nonzero;stroke:none" /><path
             d="m 2885.98,5107.9 -118.39,0 0,96.98 -508.79,-104.54 0,-28.97 508.79,-104.53 0,96.97 118.39,0 c 25.18,0 45.33,-20.13 45.33,-44.07 0,-25.19 -20.15,-45.34 -45.33,-45.34 l -15.12,0 0,-42.81 15.12,0 c 49.11,0 88.15,39.04 88.15,88.15 0,47.86 -39.04,88.16 -88.15,88.16"
             inkscape:connector-curvature="0"
             id="path200"
             style="fill:#231f20;fill-opacity:1;fill-rule:nonzero;stroke:none" /><path
             d="m 2553.74,5281.56 c -24.77,0 -44.85,-20.08 -44.85,-44.84 0,-24.77 20.08,-44.85 44.85,-44.85 24.76,0 44.84,20.08 44.84,44.85 0,24.76 -20.08,44.84 -44.84,44.84"
             inkscape:connector-curvature="0"
             id="path202"
             style="fill:#231f20;fill-opacity:1;fill-rule:nonzero;stroke:none" /><path
             d="m 2557.98,5461.92 c 9.49,0 39.93,-1.58 39.93,-24.9 0,-17 -15.82,-28.86 -46.65,-53.36 -24.5,-19.37 -32.01,-35.97 -32.01,-58.1 l 0,-22.93 64.03,0 0,7.51 c 0,23.72 9.88,33.2 37.95,54.55 36.75,28.06 50.19,45.85 50.19,73.51 0,43.48 -39.92,82.61 -110.27,82.61 -26.49,0 -74.31,-5.93 -102.38,-44.66 -15.41,-20.95 -16.99,-39.13 -18.18,-54.95 l 69.4,0 c 4.43,22.36 16.42,40.72 47.99,40.72"
             inkscape:connector-curvature="0"
             id="path204"
             style="fill:#231f20;fill-opacity:1;fill-rule:nonzero;stroke:none" /><path
             d="m 2131.31,809.922 c -34.24,0 -62,27.75 -62,61.988 l 0,867.93 c 0,34.24 27.76,61.99 62,61.99 l 867.93,0 c 34.24,0 61.99,-27.75 61.99,-61.99 l 0,-867.93 c 0,-34.238 -27.75,-61.988 -61.99,-61.988 l -867.93,0 z"
             inkscape:connector-curvature="0"
             id="path206"
             style="fill:none;stroke:#231f20;stroke-width:2;stroke-linecap:butt;stroke-linejoin:miter;stroke-miterlimit:4;stroke-opacity:1;stroke-dasharray:none" /><path
             d="m 2995.69,1202.19 -17.06,96.75 c -1.57,8.91 -10.07,14.85 -18.97,13.28 l -43,-7.58 -6.74,38.24 c -5.82,0.45 -11.71,0.56 -17.63,0.34 -16.89,86.91 -64.79,162.74 -131.71,215.51 -2.11,1.67 -4.76,2.67 -7.66,2.67 -0.35,0 -0.71,-0.02 -1.06,-0.05 -31.18,-2.58 -58.79,-17.65 -77.89,-40.16 l -148.87,-177.43 -148.88,177.43 c -18.94,22.33 -46.28,37.33 -77.15,40.09 -0.19,0.01 -0.37,0.03 -0.57,0.03 -3.06,0 -5.59,-2.21 -6.1,-5.13 L 2181.81,929 l 59.12,0 77.08,237.22 91.06,-237.22 59.21,0 -98.71,395.9 24.75,76.19 111.72,-104.17 19.06,11 19.06,-11 111.71,104.17 24.76,-76.19 -98.72,-395.9 59.21,0 91.06,237.22 77.08,-237.22 59.12,0 -40.04,227.06 154.07,27.16 c 8.9,1.57 14.85,10.06 13.28,18.97 z m -190.09,82.87 -29.42,166.85 c 30.89,-33.63 55.08,-73.47 70.61,-117.41 -4.13,-1.46 -8.18,-3.09 -12.13,-4.88 l 6.75,-38.25 -35.81,-6.31 z m 51.93,9.16 -4.43,25.14 c 6.8,2.36 13.88,4.23 21.2,5.52 7.32,1.29 14.6,1.94 21.8,2.05 l 4.44,-25.13 -43.01,-7.58"
             inkscape:connector-curvature="0"
             id="path208"
             style="fill:#231f20;fill-opacity:1;fill-rule:nonzero;stroke:none" /><path
             d="m 2683.92,1560.5 c 29.13,0 52.73,23.61 52.73,52.73 0,29.11 -23.6,52.72 -52.73,52.72 -29.11,0 -52.72,-23.61 -52.72,-52.72 0,-29.12 23.61,-52.73 52.72,-52.73"
             inkscape:connector-curvature="0"
             id="path210"
             style="fill:#231f20;fill-opacity:1;fill-rule:nonzero;stroke:none" /><path
             d="m 2366.37,1560.37 c 29.1,0 52.69,23.59 52.69,52.69 0,29.1 -23.59,52.7 -52.69,52.7 -29.1,0 -52.7,-23.6 -52.7,-52.7 0,-29.1 23.6,-52.69 52.7,-52.69"
             inkscape:connector-curvature="0"
             id="path212"
             style="fill:#231f20;fill-opacity:1;fill-rule:nonzero;stroke:none" /><path
             d="m 2070.97,6507.04 707.871,0 0,707.883 -707.871,0 0,-707.883 z"
             inkscape:connector-curvature="0"
             id="path214"
             style="fill:none;stroke:#231f20;stroke-width:2;stroke-linecap:butt;stroke-linejoin:miter;stroke-miterlimit:4;stroke-opacity:1;stroke-dasharray:none" /><path
             d="m 2207.54,6759.26 -16.31,94.69 20.52,3.46 16.32,-94.7 -20.53,-3.45"
             inkscape:connector-curvature="0"
             id="path216"
             style="fill:#231f20;fill-opacity:1;fill-rule:nonzero;stroke:none" /><path
             d="m 2172.79,6753.27 -16.33,94.69 20.53,3.46 16.32,-94.7 -20.52,-3.45"
             inkscape:connector-curvature="0"
             id="path218"
             style="fill:#231f20;fill-opacity:1;fill-rule:nonzero;stroke:none" /><path
             d="m 2237.25,6791.91 474.36,81.75 -7.11,41.22 -474.35,-81.75 -4.61,26.74 501.09,86.35 16.32,-94.69 -501.09,-86.36 -4.61,26.74"
             inkscape:connector-curvature="0"
             id="path220"
             style="fill:#231f20;fill-opacity:1;fill-rule:nonzero;stroke:none" /><path
             d="m 2241.03,6950.73 c 15.07,1.72 26.77,14.52 26.77,30.05 0,16.7 -13.54,30.24 -30.24,30.24 l 0,-0.03 c -28.27,0 -51.18,22.92 -51.18,51.18 0,28.27 22.91,51.19 51.18,51.19 l 0,-0.04 c 16.7,0 30.24,13.54 30.24,30.25 l 0,10.51 20.95,0 0,-10.51 c 0,-28.27 -22.92,-51.19 -51.19,-51.19 l 0,0.03 c -16.7,0 -30.24,-13.53 -30.24,-30.24 0,-16.7 13.54,-30.24 30.24,-30.24 l 0,0.03 c 28.27,0 51.19,-22.91 51.19,-51.18 0,-26.12 -19.56,-47.66 -44.83,-50.8 l 0,0.02 c -20.78,-2.5 -36.87,-20.15 -36.87,-41.59 0,-2.38 0.2,-4.71 0.58,-6.98 l 1.83,-10.45 -20.59,-3.58 -1.68,9.53 c -0.69,3.73 -1.04,7.56 -1.04,11.48 0,31.95 23.84,58.33 54.7,62.32 l 0.18,0"
             inkscape:connector-curvature="0"
             id="path222"
             style="fill:#231f20;fill-opacity:1;fill-rule:nonzero;stroke:none" /><path
             d="m 2180.88,6958.76 c 5.98,5.52 9.73,13.43 9.73,22.21 0,16.7 -13.54,30.24 -30.25,30.24 l 0,-0.03 c -28.27,0 -51.18,22.92 -51.18,51.19 0,28.26 22.91,51.18 51.18,51.18 l 0,-0.03 c 16.71,0 30.25,13.54 30.25,30.24 l 0,10.32 20.94,0 0,-10.32 c 0,-28.27 -22.92,-51.19 -51.19,-51.19 l 0,0.04 c -16.7,0 -30.24,-13.54 -30.24,-30.24 0,-16.71 13.54,-30.25 30.24,-30.25 l 0,0.04 c 28.27,0 51.19,-22.92 51.19,-51.19 0,-13.96 -5.59,-26.62 -14.66,-35.85 l -0.1,0.11 c -15.48,-14.03 -25.2,-34.29 -25.2,-56.82 0,-4.48 0.38,-8.86 1.12,-13.13 l 1.87,-10.51 -20.67,-3.36 -2.15,12.64 c -0.65,4.58 -0.99,9.26 -0.99,14.02 0,27.76 11.59,52.82 30.2,70.59 l -0.09,0.1"
             inkscape:connector-curvature="0"
             id="path224"
             style="fill:#231f20;fill-opacity:1;fill-rule:nonzero;stroke:none" /><path
             d="m 1332.6,3339.29 c 45.18,0 81.8,36.63 81.8,81.81 0,45.18 -36.62,81.8 -81.8,81.8 -45.18,0 -81.8,-36.62 -81.8,-81.8 0,-45.18 36.62,-81.81 81.8,-81.81"
             inkscape:connector-curvature="0"
             id="path226"
             style="fill:#231f20;fill-opacity:1;fill-rule:nonzero;stroke:none" /><path
             d="m 706.797,3081.91 247.844,0 0,464.711 -247.844,0 0,-464.711 z"
             inkscape:connector-curvature="0"
             id="path228"
             style="fill:#231f20;fill-opacity:1;fill-rule:nonzero;stroke:none" /><g
             transform="scale(10,10)"
             id="g230"><text
               transform="matrix(1,0,0,-1,2.01289,765.633)"
               id="text232"><tspan
                 x="0 8 16"
                 y="0"
                 id="tspan234"
                 style="font-size:8px;font-variant:normal;writing-mode:lr-tb;fill:#231f20;fill-opacity:1;fill-rule:nonzero;stroke:none;font-family:TakaoPGothic;-inkscape-font-specification:TakaoPGothic-90ms-RKSJ-H">推奨度</tspan></text>
</g><path
             d="m 731.578,3397.91 198.277,0 0,123.922 -198.277,0 0,-123.922 z"
             inkscape:connector-curvature="0"
             id="path236"
             style="fill:#ffffff;fill-opacity:1;fill-rule:nonzero;stroke:none" /><path
             d="m 731.578,3106.69 74.3555,0 0,37.1797 -74.3555,0 0,-37.1797 z"
             inkscape:connector-curvature="0"
             id="path238"
             style="fill:#ffffff;fill-opacity:1;fill-rule:nonzero;stroke:none" /><path
             d="m 892.676,3181.04 c 11.976,0 21.687,9.71 21.687,21.69 0,11.98 -9.711,21.69 -21.687,21.69 -11.977,0 -21.684,-9.71 -21.684,-21.69 0,-11.98 9.707,-21.69 21.684,-21.69"
             inkscape:connector-curvature="0"
             id="path240"
             style="fill:#ffffff;fill-opacity:1;fill-rule:nonzero;stroke:none" /><path
             d="m 687.93,2706.41 c -34.235,0 -61.985,27.75 -61.985,61.98 l 0,867.71 c 0,34.23 27.75,61.98 61.985,61.98 l 867.71,0 c 34.23,0 61.98,-27.75 61.98,-61.98 l 0,-867.71 c 0,-34.23 -27.75,-61.98 -61.98,-61.98 l -867.71,0 z"
             inkscape:connector-curvature="0"
             id="path242"
             style="fill:none;stroke:#231f20;stroke-width:2;stroke-linecap:butt;stroke-linejoin:miter;stroke-miterlimit:4;stroke-opacity:1;stroke-dasharray:none" /><path
             d="m 1010.88,3230.37 61.9609,0 0,99.1406 -61.9609,0 0,-99.1406 z"
             inkscape:connector-curvature="0"
             id="path244"
             style="fill:#231f20;fill-opacity:1;fill-rule:nonzero;stroke:none" /><path
             d="m 1431.77,3307.4 c -32.36,4.8 -65.47,7.35 -99.17,7.35 -52.58,0 -103.71,-6.11 -152.81,-17.55 -4.27,-1 -7.93,-3.6 -10.37,-7.1 l -73.56,-105.04 -76.27,64 -30.078,-64.51 88.128,-88.13 c 8.97,-8.97 21.36,-14.51 35.05,-14.51 15.24,0 28.88,6.88 37.97,17.71 l 40.71,48.52 0,-273.64 328.77,0 15.87,302.99 c 4.47,63.28 -40.42,120.46 -104.24,129.91"
             inkscape:connector-curvature="0"
             id="path246"
             style="fill:#231f20;fill-opacity:1;fill-rule:nonzero;stroke:none" /><path
             d="m 4391.99,1654.81 -760.49,0 0,-388.67 454.26,0 c -10.95,-19.52 -17.25,-41.88 -17.25,-65.5 0,-75.88 61.77,-135.88 135.89,-135.88 75.88,0 135.88,60 135.88,135.88 0,23.62 -6.11,45.98 -16.88,65.5 l 68.59,0 0,388.67 z m -39.41,-349.26 -61.84,0 c -23.36,19.29 -53.35,30.98 -86.34,30.98 -32.23,0 -62.11,-11.69 -85.61,-30.98 l -447.88,0 0,309.85 681.67,0 0,-309.85"
             inkscape:connector-curvature="0"
             id="path248"
             style="fill:#231f20;fill-opacity:1;fill-rule:nonzero;stroke:none" /><path
             d="m 4011.74,1324.17 c 75.11,0 135.99,60.88 135.99,135.99 0,75.09 -60.88,135.98 -135.99,135.98 -75.09,0 -135.98,-60.89 -135.98,-135.98 0,-75.11 60.89,-135.99 135.98,-135.99"
             inkscape:connector-curvature="0"
             id="path250"
             style="fill:#231f20;fill-opacity:1;fill-rule:nonzero;stroke:none" /><path
             d="m 3856.82,1174.48 c 75.87,0 135.86,-61.77 135.86,-135.88 0,-75.87 -59.99,-135.858 -135.86,-135.858 -74.11,0 -135.87,59.988 -135.87,135.858 0,74.11 61.76,135.88 135.87,135.88"
             inkscape:connector-curvature="0"
             id="path252"
             style="fill:#231f20;fill-opacity:1;fill-rule:nonzero;stroke:none" /><path
             d="m 3577.93,809.781 c -34.22,0 -61.97,27.75 -61.97,61.969 l 0,867.59 c 0,34.22 27.75,61.97 61.97,61.97 l 867.59,0 c 34.23,0 61.97,-27.75 61.97,-61.97 l 0,-867.59 c 0,-34.219 -27.74,-61.969 -61.97,-61.969 l -867.59,0 z"
             inkscape:connector-curvature="0"
             id="path254"
             style="fill:none;stroke:#231f20;stroke-width:2;stroke-linecap:butt;stroke-linejoin:miter;stroke-miterlimit:4;stroke-opacity:1;stroke-dasharray:none" /><g
             transform="scale(10,10)"
             id="g256"><text
               transform="matrix(1,0,0,-1,197.675,757.23)"
               id="text258"><tspan
                 x="0 7.0013652 14.001365 21.001366"
                 y="0"
                 id="tspan260"
                 style="font-size:7px;font-variant:normal;writing-mode:lr-tb;fill:#231f20;fill-opacity:1;fill-rule:nonzero;stroke:none;font-family:TakaoPGothic;-inkscape-font-specification:TakaoPGothic-90ms-RKSJ-H">（備考）</tspan><tspan
                 x="0 7 14 21 28 35 42 49 55.369999 62.998905 69.998909 76.78891 83.997406 90.997406 97.997406 104.7874 111.7874 118.7874 125.6474 132.6474"
                 y="8.5"
                 id="tspan262"
                 style="font-size:7px;font-variant:normal;writing-mode:lr-tb;fill:#231f20;fill-opacity:1;fill-rule:nonzero;stroke:none;font-family:TakaoPGothic;-inkscape-font-specification:TakaoPGothic-90ms-RKSJ-H"> 火災予防条例で下記の図記号の使用が規定</tspan><tspan
                 x="0 7 14.001232 21.001368 27.091368 33.601368 39.411369 48.998772 55.998772 62.368771 69.018768 72.518768 83.996307 90.996307 97.786308 104.9948 111.9948 118.9948 125.0148 132.0148"
                 y="17"
                 id="tspan264"
                 style="font-size:7px;font-variant:normal;writing-mode:lr-tb;fill:#231f20;fill-opacity:1;fill-rule:nonzero;stroke:none;font-family:TakaoPGothic;-inkscape-font-specification:TakaoPGothic-90ms-RKSJ-H"> されている場所には、下記の図記号を使用</tspan><tspan
                 x="0 7 13.3 19.110001 26.110001 33.110001 39.970001 46.41 52.220001"
                 y="25.5"
                 id="tspan266"
                 style="font-size:7px;font-variant:normal;writing-mode:lr-tb;fill:#231f20;fill-opacity:1;fill-rule:nonzero;stroke:none;font-family:TakaoPGothic;-inkscape-font-specification:TakaoPGothic-90ms-RKSJ-H"> する必要がある。</tspan></text>
</g><path
             d="m 4042.51,1461.36 25.98,0 0,-21.2 -37.12,0 -1.85,-3.45 0,-12.99 38.97,0 0,-21.21 -38.97,0 0,-38.98 -35.53,0 0,38.98 -38.97,0 0,21.21 38.97,0 0,12.99 -2.12,3.45 -36.85,0 0,21.2 26.51,0 -46.13,87.23 37.38,0 40.04,-81.66 40.82,81.66 34.73,0 -45.86,-87.23"
             inkscape:connector-curvature="0"
             id="path268"
             style="fill:#ffffff;fill-opacity:1;fill-rule:nonzero;stroke:none" /><path
             d="m 3915.14,982.84 c -8.34,-4.289 -24.76,-7.32 -38.65,-7.32 -26.4,0 -45.17,13.312 -54.06,33.62 l 77.84,0 0,19.26 -82.98,0 c -0.41,3.26 -0.67,6.58 -0.67,10.02 0,4.12 0.33,8.12 0.91,11.99 l 82.74,0 0,19.27 -77.04,0 c 9.23,19.69 27.68,32.64 52.5,32.64 12.63,0 24.75,-1.76 38.14,-9.34 l 2.53,29.81 c -12.88,5.05 -28.29,7.32 -39.91,7.32 -47.56,0 -80.59,-21.38 -92.17,-60.43 l -35.38,0 0,-19.27 31.58,0 c -0.5,-4.65 -0.78,-9.49 -0.78,-14.52 0,-2.56 0.1,-5.04 0.24,-7.49 l -31.04,0 0,-19.26 33.9,0 c 10.35,-41.421 45.9,-61.41 93.65,-61.41 13.38,0 27.28,2.532 40.16,5.551 l -1.51,29.559"
             inkscape:connector-curvature="0"
             id="path270"
             style="fill:#ffffff;fill-opacity:1;fill-rule:nonzero;stroke:none" /><path
             d="m 4279.97,1165.16 c 0,32.89 -36.46,42.4 -66.29,50.62 l 0,44.73 c 0.34,0 0.7,0.02 1.04,0.02 16.31,0 32.62,-2.62 47.27,-7.14 l 4.33,27.35 c -16.13,3.84 -33.79,5.73 -52.64,5.91 l 0,7.49 -20.32,0 0,-8.32 c -34.25,-3.49 -63.87,-17.98 -63.87,-49.79 0,-31.6 34.53,-40.97 63.87,-49.25 l 0,-45.57 c -1.11,-0.04 -2.21,-0.06 -3.28,-0.06 -18.31,0 -36.62,4.04 -52.6,10.22 l -4.33,-29.96 c 22.97,-4.04 34.29,-6.42 59.59,-6.42 0.21,0 0.42,0 0.62,0 l 0,-8.28 20.32,0 0,9.28 c 37.37,3.75 66.29,18.35 66.29,49.17 z m -104.4,73.14 c 0,10.6 7.98,16.39 17.79,19.38 l 0,-35.67 c -10.58,3.97 -17.79,8.75 -17.79,16.29 z m 38.11,-94.05 0,36.23 c 11.91,-4.43 20.21,-9.86 20.21,-18.77 0,-8.84 -9.12,-14.39 -20.21,-17.46"
             inkscape:connector-curvature="0"
             id="path272"
             style="fill:#ffffff;fill-opacity:1;fill-rule:nonzero;stroke:none" /><g
             transform="scale(10,10)"
             id="g274"><text
               transform="matrix(1,0,0,-1,267.881,642.108)"
               id="text276"><tspan
                 x="0"
                 y="0"
                 id="tspan278"
                 style="font-size:7px;font-variant:normal;writing-mode:lr-tb;fill:#231f20;fill-opacity:1;fill-rule:nonzero;stroke:none;font-family:TakaoPGothic;-inkscape-font-specification:TakaoPGothic-90ms-RKSJ-H">※</tspan></text>
</g></g></g></g></g></svg>