<?xml version="1.0" encoding="UTF-8" standalone="no"?>
<!-- Created with Inkscape (http://www.inkscape.org/) -->

<svg
   xmlns:dc="http://purl.org/dc/elements/1.1/"
   xmlns:cc="http://creativecommons.org/ns#"
   xmlns:rdf="http://www.w3.org/1999/02/22-rdf-syntax-ns#"
   xmlns:svg="http://www.w3.org/2000/svg"
   xmlns="http://www.w3.org/2000/svg"
   xmlns:inkscape="http://www.inkscape.org/namespaces/inkscape"
   version="1.1"
   width="765"
   height="990"
   id="svg2"
   xml:space="preserve"><metadata
     id="metadata8"><rdf:RDF><cc:Work
         rdf:about=""><dc:format>image/svg+xml</dc:format><dc:type
           rdf:resource="http://purl.org/dc/dcmitype/StillImage" /></cc:Work></rdf:RDF></metadata><defs
     id="defs6"><clipPath
       id="clipPath18"><path
         d="m 0,0 4899.79,0 0,7920 L 0,7920 0,0 z"
         inkscape:connector-curvature="0"
         id="path20" /></clipPath></defs><g
     transform="matrix(1.25,0,0,-1.25,0,990)"
     id="g10"><g
       transform="scale(0.1,0.1)"
       id="g12"><g
         id="g14"><g
           clip-path="url(#clipPath18)"
           id="g16"><g
             transform="scale(10,10)"
             id="g22"><text
               transform="matrix(1,0,0,-1,43.9371,785.505)"
               id="text24"><tspan
                 x="0 12 24"
                 y="0"
                 id="tspan26"
                 style="font-size:12px;font-variant:normal;writing-mode:lr-tb;fill:#231f20;fill-opacity:1;fill-rule:nonzero;stroke:none;font-family:TakaoPGothic;-inkscape-font-specification:TakaoPGothic-90ms-RKSJ-H">禁止 </tspan></text>
<text
               transform="matrix(1,0,0,-1,79.9371,785.505)"
               id="text28"><tspan
                 x="0 8.4839964 12.959992 20.111988 27.263985 30.40798 37.559975 40.703972 44.519966 47.663963 54.81596"
                 y="0"
                 id="tspan30"
                 style="font-size:12px;font-variant:normal;font-weight:normal;writing-mode:lr-tb;fill:#231f20;fill-opacity:1;fill-rule:nonzero;stroke:none;font-family:Helvetica;-inkscape-font-specification:Helvetica">Prohibition</tspan></text>
</g><path
             d="m 135.41,7957.46 127.055,0 0,-119.22 -127.055,0 0,119.22 m 92.215,-39.33 c -0.563,12.32 -13.434,20.58 -26.445,20.58 -20.293,0 -33.028,-14.7 -33.028,-41.98 0,-29.39 14.832,-39.74 31.485,-39.74 15.808,0 30.086,10.49 30.086,27.29 0,15.39 -10.774,26.72 -27.567,26.72 -6.293,0 -13.433,-2.1 -17.347,-6.43 l -0.286,0.27 c 1.125,9.52 3.922,20.99 16.235,20.99 5.035,0 9.648,-1.82 11.609,-7.7 l 15.258,0 m -28.266,-19.17 c 8.953,0.15 14.129,-6.01 14.129,-14.55 0,-8.39 -5.176,-14.55 -14.129,-14.55 -8.957,0 -14.132,6.16 -14.132,14.55 0,8.39 5.175,14.55 14.132,14.55"
             inkscape:connector-curvature="0"
             id="path32"
             style="fill:#231f20;fill-opacity:1;fill-rule:nonzero;stroke:none" /><path
             d="M 4818.9,7795.27 0,7795.27"
             inkscape:connector-curvature="0"
             id="path34"
             style="fill:none;stroke:#231f20;stroke-width:2;stroke-linecap:butt;stroke-linejoin:miter;stroke-miterlimit:4;stroke-opacity:1;stroke-dasharray:none" /><path
             d="m 311.812,510.242 0,7256.688"
             inkscape:connector-curvature="0"
             id="path36"
             style="fill:none;stroke:#231f20;stroke-width:2;stroke-linecap:butt;stroke-linejoin:miter;stroke-miterlimit:4;stroke-opacity:1;stroke-dasharray:none" /><g
             transform="scale(10,10)"
             id="g38"><text
               transform="matrix(1,0,0,-1,68.1219,256.574)"
               id="text40"><tspan
                 x="0 6.5800786 13.580078 20.580078 26.530079 32.481583 38.921818 45.641876 52.641876 145.06497 152.06497 159.06497 166.06497"
                 y="0"
                 id="tspan42"
                 style="font-size:7px;font-variant:normal;writing-mode:lr-tb;fill:#231f20;fill-opacity:1;fill-rule:nonzero;stroke:none;font-family:TakaoPGothic;-inkscape-font-specification:TakaoPGothic-90ms-RKSJ-H">自転車乗り入れ禁止立入禁止</tspan><tspan
                 x="289.59201 295.892 301.63129 308.21002 310.10001 313.60001 318.14957 324.17004 330.82071 337.4707 344.12112 351.12112"
                 y="-0.00078125001"
                 id="tspan44"
                 style="font-size:7px;font-variant:normal;writing-mode:lr-tb;fill:#231f20;fill-opacity:1;fill-rule:nonzero;stroke:none;font-family:TakaoPGothic;-inkscape-font-specification:TakaoPGothic-90ms-RKSJ-H">走るな / かけ込み禁止</tspan></text>
</g><path
             d="M 4818.9,340.16 4818.9,0"
             inkscape:connector-curvature="0"
             id="path46"
             style="fill:none;stroke:#231f20;stroke-width:2;stroke-linecap:butt;stroke-linejoin:miter;stroke-miterlimit:4;stroke-opacity:1;stroke-dasharray:none" /><g
             transform="scale(10,10)"
             id="g48"><text
               transform="matrix(1,0,0,-1,67.5617,66.6539)"
               id="text50"><tspan
                 x="0 5.5313082 11.549726 17.289413"
                 y="0"
                 id="tspan52"
                 style="font-size:7px;font-variant:normal;writing-mode:lr-tb;fill:#231f20;fill-opacity:1;fill-rule:nonzero;stroke:none;font-family:TakaoPGothic;-inkscape-font-specification:TakaoPGothic-90ms-RKSJ-H">さわるな</tspan></text>
<text
               transform="matrix(1,0,0,-1,483.3067,29.7641)"
               id="text54"><tspan
                 x="0 3.336"
                 y="0"
                 id="tspan56"
                 style="font-size:6px;font-variant:normal;font-weight:normal;writing-mode:lr-tb;fill:#231f20;fill-opacity:1;fill-rule:nonzero;stroke:none;font-family:Helvetica;-inkscape-font-specification:Helvetica">16</tspan></text>
<text
               transform="matrix(1,0,0,-1,213.1847,66.6539)"
               id="text58"><tspan
                 x="0 6.4398441 12.319102 18.058399"
                 y="0"
                 id="tspan60"
                 style="font-size:7px;font-variant:normal;writing-mode:lr-tb;fill:#231f20;fill-opacity:1;fill-rule:nonzero;stroke:none;font-family:TakaoPGothic;-inkscape-font-specification:TakaoPGothic-90ms-RKSJ-H">捨てるな</tspan><tspan
                 x="144.52901 151.03877 157.05757 163.21597"
                 y="0.00078125001"
                 id="tspan62"
                 style="font-size:7px;font-variant:normal;writing-mode:lr-tb;fill:#231f20;fill-opacity:1;fill-rule:nonzero;stroke:none;font-family:TakaoPGothic;-inkscape-font-specification:TakaoPGothic-90ms-RKSJ-H">飲めない</tspan></text>
<text
               transform="matrix(1,0,0,-1,68.5417,248.07012)"
               id="text64"><tspan
                 x="0 5.3339868 9.5058632 11.7316 15.903599 17.737598 21.517597 25.297596 29.077595 30.911594 35.083591 144.6436 149.97758 154.14946 156.3756 160.54759 164.7196 170.8306 172.6646 174.89059 177.11659 181.28848 185.46034 189.24036"
                 y="0"
                 id="tspan66"
                 style="font-size:7px;font-variant:normal;font-weight:normal;writing-mode:lr-tb;fill:#231f20;fill-opacity:1;fill-rule:nonzero;stroke:none;font-family:Helvetica;-inkscape-font-specification:Helvetica">No bicyclesNo admittance</tspan><tspan
                 x="289.17236 294.50632 298.67822 300.90326 305.07526 309.24725 311.47437 313.70053 316.31027 320.48218 324.26224"
                 y="-0.00117187"
                 id="tspan68"
                 style="font-size:7px;font-variant:normal;font-weight:normal;writing-mode:lr-tb;fill:#231f20;fill-opacity:1;fill-rule:nonzero;stroke:none;font-family:Helvetica;-inkscape-font-specification:Helvetica">Do not rush</tspan><tspan
                 x="0.00034999999 5.3343368 9.5062132 11.73195 15.903949 20.075949 22.30225 24.52803 26.754028 30.926081 35.098343 38.878418 144.64352 149.97749 154.14938 156.37608 160.54808 164.72008 166.94598 169.17175 171.39777 175.56976 178.18076 182.35306 187.68704 189.91283 192.52376 196.69606 200.86806 205.04005 206.87376 210.65384"
                 y="189.91983"
                 id="tspan70"
                 style="font-size:7px;font-variant:normal;font-weight:normal;writing-mode:lr-tb;fill:#231f20;fill-opacity:1;fill-rule:nonzero;stroke:none;font-family:Helvetica;-inkscape-font-specification:Helvetica">Do not touchDo not throw rubbish</tspan></text>
</g><path
             d="m 4065.13,1344.13 -9.69,-78.99 c -11.45,3.3 -20.76,11.61 -25.42,22.41 l -9.14,0 c -6.08,-14.08 -20.07,-23.97 -36.4,-23.97 -16.31,0 -30.31,9.89 -36.39,23.97 l -9.14,0 c -6.07,-14.08 -20.07,-23.97 -36.39,-23.97 -16.32,0 -30.32,9.89 -36.4,23.97 l -9.13,0 c -4.66,-10.8 -13.99,-19.11 -25.43,-22.41 l -9.7,78.99 -33.81,0 46.36,-377.548 218.14,0 46.36,377.548 -33.82,0 m -42.23,-343.99 -158.75,0 -29.88,243.24 c 13.39,4.56 23.77,15.65 27.32,29.5 4.68,-18.26 21.25,-31.76 40.97,-31.76 19.71,0 36.28,13.5 40.96,31.76 4.68,-18.26 21.24,-31.76 40.96,-31.76 19.73,0 36.29,13.5 40.97,31.76 3.54,-13.85 13.92,-24.92 27.32,-29.5 l -29.87,-243.24"
             inkscape:connector-curvature="0"
             id="path72"
             style="fill:#231f20;fill-opacity:1;fill-rule:nonzero;stroke:none" /><path
             d="m 4212.22,1535.93 0,35.87 49.75,0 c 2.61,6.67 4.05,13.93 4.05,21.53 0,7.59 -1.44,14.84 -4.04,21.51 l -142.54,0 c -2.61,-6.67 -4.06,-13.91 -4.06,-21.51 0,-7.6 1.45,-14.86 4.06,-21.53 l 49.74,0 0,-35.87 -161.4,0 c -36.65,0 -66.86,-27.5 -71.19,-63 l -6.35,-51.77 60.95,0 4.04,32.83 c 1.62,13.31 12.94,23.62 26.68,23.62 3.73,0 7.28,-0.76 10.51,-2.14 l 116.89,-49.62 c 7.1,-3.01 14.92,-4.69 23.13,-4.69 l 104.34,0 0,114.77 -64.56,0"
             inkscape:connector-curvature="0"
             id="path74"
             style="fill:#231f20;fill-opacity:1;fill-rule:nonzero;stroke:none" /><g
             transform="scale(10,10)"
             id="g76"><text
               transform="matrix(1,0,0,-1,357.714,58.1492)"
               id="text78"><tspan
                 x="0 5.3339801 9.5059786 11.73085 13.957807 18.13007 20.741083 22.575098 26.74609 30.52578 32.359779 36.532028 40.703915 42.930088 48.264069 52.435951 54.662128 58.834011"
                 y="0"
                 id="tspan80"
                 style="font-size:7px;font-variant:normal;font-weight:normal;writing-mode:lr-tb;fill:#231f20;fill-opacity:1;fill-rule:nonzero;stroke:none;font-family:Helvetica;-inkscape-font-specification:Helvetica">Not drinking water</tspan></text>
</g><path
             d="m 4011.73,1830.64 c -290.6,0 -526.21,-235.63 -526.21,-526.26 0,-290.61 235.61,-526.228 526.21,-526.228 290.62,0 526.23,235.618 526.23,526.228 0,290.63 -235.61,526.26 -526.23,526.26 m 0.86,-946.421 c -232.51,0 -421.01,188.481 -421.01,421.021 0,100.64 35.39,193.03 94.33,265.49 l 592.16,-592.14 c -72.43,-58.961 -164.82,-94.371 -265.48,-94.371 m 325.22,153.701 -592.54,592.52 c 72.69,59.83 165.82,95.77 267.32,95.77 232.45,0 420.94,-188.49 420.94,-420.97 0,-101.52 -35.91,-194.61 -95.72,-267.32"
             inkscape:connector-curvature="0"
             id="path82"
             style="fill:#ed1c24;fill-opacity:1;fill-rule:nonzero;stroke:none" /><path
             d="m 2516.52,1614.82 c -14.33,2.53 -28.38,0.09 -40.4,-6.09 l -273.4,-145.08 c 2.76,-21.29 19.01,-39.24 41.25,-43.17 11.95,-2.11 23.63,0.18 33.44,5.69 l 74.5,39.34 -74.27,-88.45 c 10.52,-18.69 32.31,-29.24 54.4,-24.55 11.85,2.52 21.85,9.03 28.87,17.81 l 45.87,54.65 -17.86,-58.36 c 16.99,-13.11 41.17,-14.31 59.68,-1.35 9.91,6.95 16.58,16.83 19.6,27.66 l 23.35,76.29 137.75,-13.79 c 12.06,-10.55 19.96,-25.47 21.64,-41.77 l -174.51,-63.79 c -16.67,-6.43 -29.66,-21.17 -32.99,-40.05 -2.84,-16.12 1.97,-31.83 11.83,-43.37 l 428.14,83.77 0.06,199.92 -366.95,64.69"
             inkscape:connector-curvature="0"
             id="path84"
             style="fill:#231f20;fill-opacity:1;fill-rule:nonzero;stroke:none" /><path
             d="m 2301.18,1043.31 123.85,-97.529 37.66,66.639 71.17,-36.639 101.18,133.839 -52.36,88.79 -49.71,-14.63 -61.44,62.42 -59.94,-59.94 -66.69,12.76 -43.72,-155.71 m 224.21,111.24 45.24,13.32 33.3,-56.46 -77.58,-102.63 -76.82,39.53 16.02,57.38 43.34,-12.28 7.05,24.91 -68.35,19.37 -28.69,-102.75 20.75,-10.67 -22.3,-39.458 -86.56,68.158 32.62,116.14 26.04,-4.98 -13.52,-13.52 18.32,-18.31 77.14,77.14 54,-54.89"
             inkscape:connector-curvature="0"
             id="path86"
             style="fill:#231f20;fill-opacity:1;fill-rule:nonzero;stroke:none" /><path
             d="m 2566.48,1830.64 c -290.6,0 -526.21,-235.63 -526.21,-526.25 0,-290.62 235.61,-526.238 526.21,-526.238 290.63,0 526.24,235.618 526.24,526.238 0,290.62 -235.61,526.25 -526.24,526.25 m 0.87,-946.41 c -232.51,0 -421.01,188.47 -421.01,421.02 0,100.64 35.39,193.02 94.34,265.48 L 2832.83,978.602 C 2760.4,919.641 2668.02,884.23 2567.35,884.23 m 325.22,153.69 -592.55,592.52 c 72.7,59.84 165.83,95.76 267.33,95.76 232.45,0 420.94,-188.48 420.94,-420.95 0,-101.53 -35.9,-194.63 -95.72,-267.33"
             inkscape:connector-curvature="0"
             id="path88"
             style="fill:#ed1c24;fill-opacity:1;fill-rule:nonzero;stroke:none" /><path
             d="m 994.965,979.289 234.515,0 4.49,4.031 c 64.27,58.01 101.14,139.78 101.14,224.35 l -0.01,271.9 c 0,14.87 -5.78,28.84 -16.29,39.36 -10.52,10.52 -24.5,16.3 -39.36,16.3 -8.7,0 -16.93,-2 -24.27,-5.58 l 0,36.67 c 0,14.87 -5.79,28.85 -16.32,39.37 -10.5,10.51 -24.47,16.3 -39.35,16.3 -9.33,0 -18.15,-2.33 -25.88,-6.41 -2.4,9.76 -7.41,18.71 -14.7,26 -10.51,10.5 -24.49,16.3 -39.35,16.3 -26.09,0 -48.02,-18.03 -54.03,-42.27 -7.9,4.16 -16.73,6.38 -25.91,6.38 -30.7,0 -55.667,-24.97 -55.667,-55.67 l 0,-269.78 -60.5,72.77 0.351,-0.44 c -15.281,19.79 -38.379,31.13 -63.351,31.13 -16.965,0 -32.93,-4.91 -46.18,-14.21 l -10.891,-7.65 191.563,-398.851 m 222.335,31.391 -202.59,0 -170.644,355.29 c 5.129,1.73 10.649,2.65 16.407,2.65 15.179,0 29.218,-6.91 38.515,-18.94 l 0.168,-0.22 0.184,-0.22 77.664,-93.41 38.356,0 0,310.49 c 0,6.49 2.53,12.58 7.11,17.17 4.59,4.59 10.68,7.11 17.17,7.11 6.49,0 12.58,-2.52 17.16,-7.11 4.59,-4.59 7.12,-10.68 7.12,-17.17 l 0,-207.76 31.39,0 0,243.66 c 0,6.48 2.51,12.58 7.1,17.17 4.58,4.58 10.69,7.11 17.17,7.11 6.48,0 12.58,-2.53 17.16,-7.11 4.59,-4.59 7.11,-10.69 7.11,-17.17 l 0,-243.69 31.38,0 0,207.79 c 0,6.49 2.54,12.58 7.12,17.17 4.58,4.59 10.67,7.11 17.16,7.11 6.48,0 12.58,-2.52 17.17,-7.11 4.58,-4.59 7.11,-10.68 7.11,-17.17 l 0,-237.49 31.39,0 0,150.74 c 0,6.49 2.51,12.58 7.1,17.16 4.58,4.59 10.69,7.12 17.17,7.12 6.49,0 12.58,-2.53 17.16,-7.12 4.59,-4.58 7.11,-10.67 7.11,-17.16 l 0.01,-271.9 c 0,-73.77 -31.43,-145.22 -86.43,-196.99"
             inkscape:connector-curvature="0"
             id="path90"
             style="fill:#231f20;fill-opacity:1;fill-rule:nonzero;stroke:none" /><path
             d="m 1118.66,1831.21 c -290.992,0 -526.91,-235.94 -526.91,-526.95 0,-290.98 235.918,-526.92 526.91,-526.92 291.01,0 526.91,235.94 526.91,526.92 0,291.01 -235.9,526.95 -526.91,526.95 m 0.86,-947.648 c -232.829,0 -421.575,188.708 -421.575,421.568 0,100.77 35.446,193.27 94.465,265.83 l 592.94,-592.921 c -72.53,-59.019 -165.04,-94.477 -265.83,-94.477 m 325.65,153.888 -593.326,593.31 c 72.781,59.9 166.046,95.88 267.676,95.88 232.75,0 421.49,-188.74 421.49,-421.51 0,-101.66 -35.95,-194.88 -95.84,-267.68"
             inkscape:connector-curvature="0"
             id="path92"
             style="fill:#ed1c24;fill-opacity:1;fill-rule:nonzero;stroke:none" /><path
             d="m 4133.96,3429.27 c 26.74,-11.6 57.81,0.67 69.41,27.4 11.59,26.72 -0.68,57.79 -27.4,69.39 -26.72,11.6 -57.8,-0.67 -69.4,-27.39 -11.6,-26.73 0.66,-57.8 27.39,-69.4"
             inkscape:connector-curvature="0"
             id="path94"
             style="fill:#231f20;fill-opacity:1;fill-rule:nonzero;stroke:none" /><path
             d="m 4125.92,3305.82 c 33.58,-51.8 84.48,-91.34 144.5,-110.39 l 25.5,36.42 c -70.36,29.96 -124.17,91.2 -144.07,166.24 -0.93,3.54 -3.32,6.5 -6.49,8.17 -36.01,19.05 -77.04,29.86 -120.61,29.86 -94.38,0 -176.94,-50.6 -222.06,-126.15 l 32.59,-32.57 c 39,55.2 102.9,91.56 175.37,92.73 l -115.14,-226 -176.47,31.13 -30.44,-52.73 217.85,-66.6 c 4.89,-1.49 10.06,-2.3 15.42,-2.3 17.88,0 33.67,8.9 43.22,22.5 l 52.87,75.51 68.66,-39.62 -62.8,-193.3 46.76,-39.22 105.39,226.01 c 4.44,9.48 6.11,20.36 4.16,31.45 -2.53,14.34 -10.64,26.31 -21.7,34.05 l -85.15,59.63 52.64,75.18"
             inkscape:connector-curvature="0"
             id="path96"
             style="fill:#231f20;fill-opacity:1;fill-rule:nonzero;stroke:none" /><path
             d="m 4012.31,3730.1 c -290.9,0 -526.74,-235.86 -526.74,-526.78 0,-290.91 235.84,-526.77 526.74,-526.77 290.92,0 526.77,235.86 526.77,526.77 0,290.92 -235.85,526.78 -526.77,526.78 m 0.86,-947.36 c -232.75,0 -421.43,188.65 -421.43,421.43 0,100.76 35.43,193.22 94.43,265.76 l 592.75,-592.73 c -72.51,-59.01 -164.98,-94.46 -265.75,-94.46 m 325.55,153.85 -593.14,593.13 c 72.76,59.87 166,95.84 267.59,95.84 232.68,0 421.37,-188.68 421.37,-421.39 0,-101.62 -35.95,-194.81 -95.82,-267.58"
             inkscape:connector-curvature="0"
             id="path98"
             style="fill:#ed1c24;fill-opacity:1;fill-rule:nonzero;stroke:none" /><path
             d="m 2566.49,3457.66 c 29.01,0 52.53,23.52 52.53,52.53 0,29.01 -23.52,52.53 -52.53,52.53 -29.01,0 -52.52,-23.52 -52.52,-52.53 0,-29.01 23.51,-52.53 52.52,-52.53"
             inkscape:connector-curvature="0"
             id="path100"
             style="fill:#231f20;fill-opacity:1;fill-rule:nonzero;stroke:none" /><path
             d="m 2645.35,3434.68 c -25.57,4.73 -51.92,7.22 -78.86,7.22 -26.94,0 -53.3,-2.49 -78.86,-7.22 -43.28,-8.01 -72.96,-46.96 -70.66,-89.74 l 9.76,-181.37 42.58,0 0,173.34 13.14,0 0,-483.25 57.77,0 21.02,299.4 10.51,0 21.01,-299.4 57.77,0 0,483.25 13.14,0 0,-173.34 42.59,0 9.75,181.37 c 2.3,42.78 -27.39,81.73 -70.66,89.74"
             inkscape:connector-curvature="0"
             id="path102"
             style="fill:#231f20;fill-opacity:1;fill-rule:nonzero;stroke:none" /><path
             d="m 2566.48,3730.1 c -290.89,0 -526.74,-235.87 -526.74,-526.79 0,-290.89 235.85,-526.76 526.74,-526.76 290.92,0 526.77,235.87 526.77,526.76 0,290.92 -235.85,526.79 -526.77,526.79 m 0.87,-947.36 c -232.75,0 -421.44,188.65 -421.44,421.43 0,100.76 35.43,193.22 94.43,265.76 L 2833.1,2877.2 c -72.5,-59.01 -164.99,-94.46 -265.75,-94.46 m 325.55,153.85 -593.14,593.12 c 72.76,59.88 165.99,95.86 267.59,95.86 232.68,0 421.36,-188.69 421.36,-421.4 0,-101.62 -35.94,-194.81 -95.81,-267.58"
             inkscape:connector-curvature="0"
             id="path104"
             style="fill:#ed1c24;fill-opacity:1;fill-rule:nonzero;stroke:none" /><path
             d="m 1167.77,3349.06 72.83,-9.06 c 1.59,-0.19 3.21,-0.32 4.86,-0.32 21.16,0 38.37,16.71 39.28,37.64 l -115.8,0 c -7.79,0 -14.1,-6.32 -14.1,-14.11 0,-7.79 5.14,-14.15 12.93,-14.15"
             inkscape:connector-curvature="0"
             id="path106"
             style="fill:#231f20;fill-opacity:1;fill-rule:nonzero;stroke:none" /><path
             d="m 1334.81,3267.48 c -71.57,0 -130.51,-53.94 -138.47,-123.37 l -49.04,0 84.91,182.07 -215.03,0 38.92,83.6 60.07,0 0,32.25 -80.3,0 -84.729,-181.61 c -13.774,4.56 -28.477,7.06 -43.782,7.06 -76.996,0 -139.414,-62.42 -139.414,-139.41 0,-76.99 62.418,-139.4 139.414,-139.4 76.993,0 139.411,62.41 139.411,139.4 0,50.26 -26.6,94.3 -66.5,118.83 l 21.9,47.03 179.42,0 -84.91,-182.07 99.68,0 c 8.04,-69.35 66.94,-123.19 138.45,-123.19 76.99,0 139.41,62.41 139.41,139.4 0,76.99 -62.42,139.41 -139.41,139.41 m -317.54,-139.41 c 0,-60.7 -49.208,-109.92 -109.911,-109.92 -60.707,0 -109.921,49.22 -109.921,109.92 0,60.71 49.214,109.92 109.921,109.92 10.84,0 21.309,-1.59 31.203,-4.52 l -46.421,-99.51 c -3.774,-8.07 -0.278,-17.66 7.793,-21.42 8.066,-3.76 17.66,-0.27 21.421,7.8 l 46.364,99.59 c 29.847,-19.66 49.551,-53.45 49.551,-91.86 m 317.54,-109.92 c -55.2,0 -100.88,40.69 -108.72,93.71 l 108.55,0 0,0 c 8.91,0 16.12,7.22 16.12,16.12 0,8.9 -7.21,16.13 -16.12,16.13 l -108.58,0 c 7.77,53.1 53.49,93.88 108.75,93.88 60.71,0 109.91,-49.21 109.91,-109.92 0,-60.7 -49.2,-109.92 -109.91,-109.92"
             inkscape:connector-curvature="0"
             id="path108"
             style="fill:#231f20;fill-opacity:1;fill-rule:nonzero;stroke:none" /><path
             d="m 1120.56,3730.58 c -290.888,0 -526.736,-235.87 -526.736,-526.79 0,-290.9 235.848,-526.76 526.736,-526.76 290.92,0 526.78,235.86 526.78,526.76 0,290.92 -235.86,526.79 -526.78,526.79 m 0.87,-947.36 c -232.75,0 -421.43,188.65 -421.43,421.44 0,100.74 35.422,193.21 94.422,265.75 l 592.758,-592.74 c -72.5,-59 -164.99,-94.45 -265.75,-94.45 m 325.55,153.84 -593.144,593.13 c 72.762,59.89 166.004,95.86 267.594,95.86 232.68,0 421.37,-188.69 421.37,-421.39 0,-101.63 -35.95,-194.82 -95.82,-267.6"
             inkscape:connector-curvature="0"
             id="path110"
             style="fill:#ed1c24;fill-opacity:1;fill-rule:nonzero;stroke:none" /><g
             transform="scale(10,10)"
             id="g112"><text
               transform="matrix(1,0,0,-1,10.2645,751.434)"
               id="text114"><tspan
                 x="0"
                 y="0"
                 id="tspan116"
                 style="font-size:12px;font-variant:normal;font-weight:normal;writing-mode:lr-tb;fill:#231f20;fill-opacity:1;fill-rule:nonzero;stroke:none;font-family:Helvetica;-inkscape-font-specification:Helvetica">A</tspan></text>
<text
               transform="matrix(1,0,0,-1,2.51333,765.1774)"
               id="text118"><tspan
                 x="0 8 16"
                 y="0"
                 id="tspan120"
                 style="font-size:8px;font-variant:normal;writing-mode:lr-tb;fill:#231f20;fill-opacity:1;fill-rule:nonzero;stroke:none;font-family:TakaoPGothic;-inkscape-font-specification:TakaoPGothic-90ms-RKSJ-H">推奨度</tspan></text>
<text
               transform="matrix(1,0,0,-1,213.97333,636.4394)"
               id="text122"><tspan
                 x="0 7"
                 y="0"
                 id="tspan124"
                 style="font-size:7px;font-variant:normal;writing-mode:lr-tb;fill:#231f20;fill-opacity:1;fill-rule:nonzero;stroke:none;font-family:TakaoPGothic;-inkscape-font-specification:TakaoPGothic-90ms-RKSJ-H">禁煙</tspan></text>
<text
               transform="matrix(1,0,0,-1,444.74333,785.4964)"
               id="text126"><tspan
                 x="0 6.6719999 13.344"
                 y="0"
                 id="tspan128"
                 style="font-size:12px;font-variant:normal;font-weight:normal;writing-mode:lr-tb;fill:#231f20;fill-opacity:1;fill-rule:nonzero;stroke:none;font-family:Helvetica;-inkscape-font-specification:Helvetica">20 </tspan></text>
<text
               transform="matrix(1,0,0,-1,461.42343,785.4964)"
               id="text130"><tspan
                 x="0 10.230078"
                 y="0"
                 id="tspan132"
                 style="font-size:11px;font-variant:normal;writing-mode:lr-tb;fill:#231f20;fill-opacity:1;fill-rule:nonzero;stroke:none;font-family:TakaoPGothic;-inkscape-font-specification:TakaoPGothic-90ms-RKSJ-H">項目</tspan></text>
<text
               transform="matrix(1,0,0,-1,68.71843,636.4394)"
               id="text134"><tspan
                 x="0 7 14 21"
                 y="0"
                 id="tspan136"
                 style="font-size:7px;font-variant:normal;writing-mode:lr-tb;fill:#231f20;fill-opacity:1;fill-rule:nonzero;stroke:none;font-family:TakaoPGothic;-inkscape-font-specification:TakaoPGothic-90ms-RKSJ-H">一般禁止</tspan></text>
<text
               transform="matrix(1,0,0,-1,213.97343,627.93549)"
               id="text138"><tspan
                 x="0 5.3339806 9.5058603 11.731859 15.51211 21.623041 25.794924 29.57501 31.40901 35.580872 -145.25513 -139.52896 -135.35709 -131.18521 -127.01294 -124.402 -120.23013 -118.39613 -116.17036 -111.99809 -109.38709 -105.2151 -101.04309 -99.209091 -95.037094 -93.203094 -90.977097 -89.143097 -84.9711 -80.800087"
                 y="0"
                 id="tspan140"
                 style="font-size:7px;font-variant:normal;font-weight:normal;writing-mode:lr-tb;fill:#231f20;fill-opacity:1;fill-rule:nonzero;stroke:none;font-family:Helvetica;-inkscape-font-specification:Helvetica">No smokingGeneral prohibition </tspan></text>
<text
               transform="matrix(1,0,0,-1,151.66124,642.10849)"
               id="text142"><tspan
                 x="0 260.78699"
                 y="0"
                 id="tspan144"
                 style="font-size:7px;font-variant:normal;writing-mode:lr-tb;fill:#231f20;fill-opacity:1;fill-rule:nonzero;stroke:none;font-family:TakaoPGothic;-inkscape-font-specification:TakaoPGothic-90ms-RKSJ-H">※※</tspan></text>
</g><path
             d="m 1120.79,7528.84 c -291.095,0 -527.102,-236.03 -527.102,-527.15 0,-291.1 236.007,-527.12 527.102,-527.12 291.12,0 527.12,236.02 527.12,527.12 0,291.12 -236,527.15 -527.12,527.15 z m 0.86,-948.01 c -232.908,0 -421.72,188.79 -421.72,421.72 0,100.83 35.453,193.35 94.496,265.94 l 593.164,-593.14 c -72.56,-59.05 -165.1,-94.52 -265.94,-94.52 z m 325.77,153.95 -593.541,593.53 c 72.812,59.92 166.111,95.92 267.771,95.92 232.84,0 421.65,-188.81 421.65,-421.68 0,-101.69 -35.97,-194.94 -95.88,-267.77"
             inkscape:connector-curvature="0"
             id="path146"
             style="fill:#ed1c24;fill-opacity:1;fill-rule:nonzero;stroke:none" /><path
             d="m 2242.81,6824.04 555.301,0 0,92.543 -555.301,0 0,-92.543 z"
             inkscape:connector-curvature="0"
             id="path148"
             style="fill:#231f20;fill-opacity:1;fill-rule:nonzero;stroke:none" /><path
             d="m 2813.53,6824.04 30.8477,0 0,92.543 -30.8477,0 0,-92.543 z"
             inkscape:connector-curvature="0"
             id="path150"
             style="fill:#231f20;fill-opacity:1;fill-rule:nonzero;stroke:none" /><path
             d="m 2859.81,6824.04 30.8516,0 0,92.543 -30.8516,0 0,-92.543 z"
             inkscape:connector-curvature="0"
             id="path152"
             style="fill:#231f20;fill-opacity:1;fill-rule:nonzero;stroke:none" /><path
             d="m 2722.48,7210.84 c 1.13,3.78 1.74,7.79 1.74,11.95 0,23.22 -18.83,42.05 -42.06,42.05 l -64.36,0 14.08,52.57 53,0 c 46.45,0 84.11,-37.66 84.11,-84.11 0,-3.91 -1.35,-13.52 -3.36,-20.04 l -4.43,-15.2 79.5,0 c 35.49,0 64.27,-28.77 64.27,-64.27 0,-2.74 -0.19,-5.41 -0.52,-8.06 l -21.7,-172.41 -19.83,0 6.65,160.84 c 0.02,0.54 0.04,1.09 0.04,1.63 0,22.72 -18.42,41.14 -41.13,41.14 l -100.86,0 c -8.7,0 -15.76,7.06 -15.76,15.77 0,1.55 0.23,3.06 0.65,4.48 l 9.97,33.66"
             inkscape:connector-curvature="0"
             id="path154"
             style="fill:#231f20;fill-opacity:1;fill-rule:nonzero;stroke:none" /><path
             d="m 2594.84,7180.72 c -65.32,0 -118.26,52.95 -118.26,118.26 0,24.61 7.54,47.44 20.41,66.35 l -60.8,0 c -9.6,-20.09 -14.99,-42.59 -14.99,-66.35 0,-85.19 69.06,-154.25 154.25,-154.25 l 11.76,0 c 18.58,-48.12 65.26,-82.26 119.94,-82.26 l 84.05,0 c 16.14,0 29.35,-12.39 30.72,-28.17 l 6.93,-80.98 14.58,0 0,93.72 c 0,25.56 -20.72,46.28 -46.28,46.28 l -84.06,0 c -44.45,0 -80.92,34.19 -84.53,77.72 -0.45,5.41 -4.96,9.68 -10.49,9.68 l -23.23,0"
             inkscape:connector-curvature="0"
             id="path156"
             style="fill:#231f20;fill-opacity:1;fill-rule:nonzero;stroke:none" /><path
             d="m 2566.61,7528.45 c -290.99,0 -526.91,-235.94 -526.91,-526.95 0,-290.99 235.92,-526.93 526.91,-526.93 291.01,0 526.92,235.94 526.92,526.93 0,291.01 -235.91,526.95 -526.92,526.95 z m 0.86,-947.66 c -232.82,0 -421.56,188.72 -421.56,421.57 0,100.78 35.44,193.28 94.45,265.84 l 592.95,-592.93 c -72.54,-59.02 -165.04,-94.48 -265.84,-94.48 z m 325.65,153.89 -593.32,593.31 c 72.78,59.91 166.04,95.89 267.67,95.89 232.76,0 421.5,-188.74 421.5,-421.52 0,-101.66 -35.96,-194.87 -95.85,-267.68"
             inkscape:connector-curvature="0"
             id="path158"
             style="fill:#ed1c24;fill-opacity:1;fill-rule:nonzero;stroke:none" /><path
             d="m 3859.07,6887.95 c 26.84,32.07 36.08,95.35 -7.23,123.82 -25.04,16.45 -61.65,24.09 -114.02,3.48 l 4.92,-4.91 c 36.32,11.29 75.94,10.99 102.58,-8.84 37.09,-27.59 31.26,-80.5 11.79,-107 l 1.96,-6.55"
             inkscape:connector-curvature="0"
             id="path160"
             style="fill:#231f20;fill-opacity:1;fill-rule:nonzero;stroke:none" /><path
             d="m 3701.5,6972.06 c -15.96,-6.49 -29,-14.76 -43.52,-24.64 3.43,9.2 21.92,29.06 30.27,33.96 l -3.93,3.93 c -20.13,-15.71 -34.15,-36.9 -38.64,-52.44 14.2,11.13 46.99,31.34 58.27,34.77 l -2.45,4.42"
             inkscape:connector-curvature="0"
             id="path162"
             style="fill:#231f20;fill-opacity:1;fill-rule:nonzero;stroke:none" /><path
             d="m 3796.37,6725.1 c -4.29,0.84 -18.21,7.45 -23.45,13.25 -9.32,10.31 -11.39,21.37 -10.59,35.98 1.16,21.01 7.37,41.09 59.44,78.93 l -4.1,3.94 c -14.23,-9.83 -27.3,-19.28 -36.92,-27.96 -28.39,-25.6 -36.25,-53.74 -29.05,-72.73 5.91,-15.56 19.5,-27.92 42.17,-35.75 m 8.88,3.85 c 3.93,16.2 -4.07,30.92 -24.22,42.06 -15.48,8.56 -28.46,15.37 -34.68,22.25 -12.57,13.88 -11.8,31.45 -2.4,48.1 13.17,23.42 38.09,44.05 47.73,52.23 l -4.41,3.02 c -4.4,-3.57 -34,-28.79 -51.4,-51 -12.63,-16.1 -20.12,-36.74 -4.9,-55.63 8.09,-10.06 21.77,-17.34 42.54,-25.85 19,-7.78 31.91,-15.25 27.01,-39.31 l 4.73,4.13"
             inkscape:connector-curvature="0"
             id="path164"
             style="fill:#231f20;fill-opacity:1;fill-rule:nonzero;stroke:none" /><path
             d="m 4060.08,6974.29 c -15.65,13.58 -36.99,17.91 -60.78,11.03 -1.01,-0.29 -1.89,-0.9 -2.51,-1.75 l -221.87,-305.32 c -0.32,-0.44 -0.56,-0.95 -0.72,-1.46 -6.08,-21.07 1.58,-41.81 20.49,-55.49 18.23,-13.17 41.03,-15.53 55.42,-5.67 0.48,0.32 0.89,0.73 1.21,1.18 l 223.84,322.02 c 0.42,0.62 0.7,1.3 0.79,2.05 1.68,11.82 -5.06,24.02 -15.87,33.41 z m 6.62,-31.12 c -0.98,-1.42 -103.44,-148.81 -168.95,-243.04 -2.81,19.6 -32.18,47.08 -64.38,42.5 64.47,88.74 168.38,231.73 169.92,233.85 20.14,5.42 37.48,2.1 50.36,-9.11 7.37,-6.39 13.17,-14.56 13.17,-22.34 0,-0.63 -0.07,-1.24 -0.12,-1.86"
             inkscape:connector-curvature="0"
             id="path166"
             style="fill:#231f20;fill-opacity:1;fill-rule:nonzero;stroke:none" /><path
             d="m 3860.52,7227.69 c -207.85,0 -376.36,-168.53 -376.36,-376.39 0,-207.85 168.51,-376.39 376.36,-376.39 207.87,0 376.38,168.54 376.38,376.39 0,207.86 -168.51,376.39 -376.38,376.39 z m 0.62,-676.9 c -166.31,0 -301.12,134.79 -301.12,301.12 0,71.99 25.31,138.06 67.47,189.88 l 423.53,-423.51 c -51.81,-42.16 -117.88,-67.49 -189.88,-67.49 z m 232.61,109.92 -423.81,423.8 c 51.99,42.79 118.6,68.49 191.2,68.49 166.26,0 301.07,-134.82 301.07,-301.09 0,-72.61 -25.68,-139.19 -68.46,-191.2"
             inkscape:connector-curvature="0"
             id="path168"
             style="fill:#ed1c24;fill-opacity:1;fill-rule:nonzero;stroke:none" /><g
             transform="scale(10,10)"
             id="g170"><text
               transform="matrix(1,0,0,-1,213.341,446.554)"
               id="text172"><tspan
                 x="0 7 14 21"
                 y="0"
                 id="tspan174"
                 style="font-size:7px;font-variant:normal;writing-mode:lr-tb;fill:#231f20;fill-opacity:1;fill-rule:nonzero;stroke:none;font-family:TakaoPGothic;-inkscape-font-specification:TakaoPGothic-90ms-RKSJ-H">進入禁止</tspan></text>
<text
               transform="matrix(1,0,0,-1,213.341,438.05009)"
               id="text176"><tspan
                 x="0 5.3328085 9.5050802 11.731079 15.903078 20.075077 22.301077 24.912081"
                 y="0"
                 id="tspan178"
                 style="font-size:7px;font-variant:normal;font-weight:normal;writing-mode:lr-tb;fill:#231f20;fill-opacity:1;fill-rule:nonzero;stroke:none;font-family:Helvetica;-inkscape-font-specification:Helvetica">No entry</tspan></text>
<text
               transform="matrix(1,0,0,-1,357.86908,446.554)"
               id="text180"><tspan
                 x="0 7 14 21"
                 y="0"
                 id="tspan182"
                 style="font-size:7px;font-variant:normal;writing-mode:lr-tb;fill:#231f20;fill-opacity:1;fill-rule:nonzero;stroke:none;font-family:TakaoPGothic;-inkscape-font-specification:TakaoPGothic-90ms-RKSJ-H">駐車禁止</tspan></text>
</g><path
             d="m 3818.13,5396.2 192.09,0 c 184.3,0 270.83,-62.3 270.83,-198.15 0,-122.01 -89.13,-194.69 -239.69,-194.69 l -62.3,0 0,-211.12 -160.93,0 0,603.96 m 160.93,-278.62 41.54,0 c 55.37,0 99.5,19.9 99.5,83.06 0,61.44 -44.13,81.34 -99.5,81.34 l -41.54,0 0,-164.4"
             inkscape:connector-curvature="0"
             id="path184"
             style="fill:#231f20;fill-opacity:1;fill-rule:nonzero;stroke:none" /><g
             transform="scale(10,10)"
             id="g186"><text
               transform="matrix(1,0,0,-1,357.869,438.05)"
               id="text188"><tspan
                 x="0 5.3339806 9.5058632 11.732039 15.903922 20.075806 22.686737 26.466801 28.300798 32.473049"
                 y="0"
                 id="tspan190"
                 style="font-size:7px;font-variant:normal;font-weight:normal;writing-mode:lr-tb;fill:#231f20;fill-opacity:1;fill-rule:nonzero;stroke:none;font-family:Helvetica;-inkscape-font-specification:Helvetica">No parking</tspan></text>
</g><path
             d="m 4013.88,5630.38 c -290.89,0 -526.74,-235.87 -526.74,-526.79 0,-290.91 235.85,-526.77 526.74,-526.77 290.92,0 526.76,235.86 526.76,526.77 0,290.92 -235.84,526.79 -526.76,526.79 m 0.86,-947.37 c -232.75,0 -421.43,188.66 -421.43,421.44 0,100.75 35.43,193.22 94.42,265.75 l 592.77,-592.73 c -72.51,-59.01 -164.98,-94.46 -265.76,-94.46 m 325.56,153.85 -593.15,593.12 c 72.77,59.89 165.99,95.86 267.59,95.86 232.69,0 421.37,-188.68 421.37,-421.39 0,-101.62 -35.95,-194.81 -95.81,-267.59"
             inkscape:connector-curvature="0"
             id="path192"
             style="fill:#ed1c24;fill-opacity:1;fill-rule:nonzero;stroke:none" /><path
             d="m 2567.28,5630.8 c -291.03,0 -526.97,-235.94 -526.97,-526.98 0,-291.04 235.94,-527 526.97,-527 291.05,0 526.99,235.96 526.99,527 0,291.04 -235.94,526.98 -526.99,526.98 m -421.58,-632.31 0,210.64 843.17,0 0,-210.64 -843.17,0"
             inkscape:connector-curvature="0"
             id="path194"
             style="fill:#ed1c24;fill-opacity:1;fill-rule:nonzero;stroke:none" /><g
             transform="scale(10,10)"
             id="g196"><text
               transform="matrix(1,0,0,-1,68.8258,437.947)"
               id="text198"><tspan
                 x="0 5.3339868 9.5058632 11.732033 15.90391 20.076178 24.248055 28.419931 30.646101 32.872269 34.7062 38.878201 44.988998"
                 y="0"
                 id="tspan200"
                 style="font-size:7px;font-variant:normal;font-weight:normal;writing-mode:lr-tb;fill:#231f20;fill-opacity:1;fill-rule:nonzero;stroke:none;font-family:Helvetica;-inkscape-font-specification:Helvetica">No open flame</tspan></text>
</g><path
             d="m 1040.08,4957.1 c 2.04,71.81 41.36,17.05 59.28,158.97 6.93,55.13 -12.21,150.31 -46.2,170.36 11.51,-33.56 1.87,-87.85 1.87,-87.85 -25.48,35.83 -77.143,99.45 -7.05,166.16 -67.054,1.88 -137.027,-66.34 -156.695,-135.95 -0.762,-2.71 -4.461,-4.57 -5.535,-2.32 -7.559,15.81 -11.164,45.53 -11.164,45.53 -38.223,-69.89 -43.731,-133.21 0.48,-202.64 0.028,-0.03 9.344,-10.04 -2.14,-10.36 -18.125,-0.5 -31.414,12.09 -31.414,12.09 8.261,-77.08 72.488,-128.46 117.449,-131.21 22.129,-1.36 33.137,-16.76 31.406,-26.88 -1.367,-8.15 5.363,-13.23 11.253,-11.69 29.73,7.85 38.06,41.38 38.46,55.79"
             inkscape:connector-curvature="0"
             id="path202"
             style="fill:#231f20;fill-opacity:1;fill-rule:nonzero;stroke:none" /><g
             transform="scale(10,10)"
             id="g204"><text
               transform="matrix(1,0,0,-1,68.8258,446.451)"
               id="text206"><tspan
                 x="0 7 14 21"
                 y="0"
                 id="tspan208"
                 style="font-size:7px;font-variant:normal;writing-mode:lr-tb;fill:#231f20;fill-opacity:1;fill-rule:nonzero;stroke:none;font-family:TakaoPGothic;-inkscape-font-specification:TakaoPGothic-90ms-RKSJ-H">火気厳禁</tspan></text>
</g><path
             d="m 1008.52,4936.2 c -18.356,31.21 -51.805,41.83 -74.332,52.31 -18.555,8.68 -26.575,25.27 -33.098,48.21 18.859,0.94 37.492,-0.52 47.785,-19.75 11.699,15.31 -5.988,55.27 -23.027,75.9 -19.192,23.2 -10.754,51.42 -3.586,70 4.914,-17.2 22.258,-37.62 40.898,-39.22 49.41,-4.26 75.49,-38.36 56.37,-84.66 19.28,13.88 19.88,37.69 20.19,56.88 19.61,-19.11 32.13,-45.76 11.93,-73.41 -37.73,-51.6 -27.14,-65.34 -43.13,-86.26"
             inkscape:connector-curvature="0"
             id="path210"
             style="fill:#ffffff;fill-opacity:1;fill-rule:nonzero;stroke:none" /><path
             d="m 1139.19,4922.68 270.36,283.34 -5.09,59.76 -60.88,4.46 -273.57,-290.9 c -27.61,-29.84 -19.23,-58.27 -32.17,-73.98 -9.03,-10.87 -20.26,-15.12 -38.965,-15.84 -10.871,-0.4 -23.215,-5.54 -31.875,-14.78 -17.988,-19.09 -17.082,-49.15 2.012,-67.11 19.101,-17.97 49.168,-17.06 67.148,2.05 8.67,9.2 13.07,21.02 12.79,32.75 -0.42,18.74 3.13,30.21 13.42,39.85 14.9,13.94 48.71,11.03 76.82,40.4"
             inkscape:connector-curvature="0"
             id="path212"
             style="fill:#231f20;fill-opacity:1;fill-rule:nonzero;stroke:none" /><path
             d="m 1390.72,5252.05 -41.3,2.58 -269.78,-286.31 1.04,-42.88 47.78,2.47 265,279.92 -2.74,44.22"
             inkscape:connector-curvature="0"
             id="path214"
             style="fill:#ffffff;fill-opacity:1;fill-rule:nonzero;stroke:none" /><path
             d="m 1082.39,4917.4 316.58,334.47 -8.26,12.39 -317.95,-335.85 9.63,-11.01"
             inkscape:connector-curvature="0"
             id="path216"
             style="fill:#231f20;fill-opacity:1;fill-rule:nonzero;stroke:none" /><path
             d="m 1120.9,5629.73 c -291.166,0 -527.212,-236.07 -527.212,-527.25 0,-291.16 236.046,-527.23 527.212,-527.23 291.17,0 527.21,236.07 527.21,527.23 0,291.18 -236.04,527.25 -527.21,527.25 m 0.86,-948.2 c -232.975,0 -421.811,188.83 -421.811,421.81 0,100.83 35.457,193.39 94.512,265.98 l 593.279,-593.25 c -72.58,-59.06 -165.14,-94.54 -265.98,-94.54 m 325.83,153.98 -593.668,593.65 c 72.824,59.94 166.148,95.95 267.838,95.95 232.88,0 421.72,-188.86 421.72,-421.77 0,-101.72 -35.97,-194.99 -95.89,-267.83"
             inkscape:connector-curvature="0"
             id="path218"
             style="fill:#ed1c24;fill-opacity:1;fill-rule:nonzero;stroke:none" /><g
             transform="scale(10,10)"
             id="g220"><text
               transform="matrix(1,0,0,-1,153.776,452.66)"
               id="text222"><tspan
                 x="0"
                 y="0"
                 id="tspan224"
                 style="font-size:7px;font-variant:normal;writing-mode:lr-tb;fill:#231f20;fill-opacity:1;fill-rule:nonzero;stroke:none;font-family:TakaoPGothic;-inkscape-font-specification:TakaoPGothic-90ms-RKSJ-H">※</tspan><tspan
                 x="188.567 192.41701 199.41701 206.41701"
                 y="-304.50299"
                 id="tspan226"
                 style="font-size:7px;font-variant:normal;writing-mode:lr-tb;fill:#231f20;fill-opacity:1;fill-rule:nonzero;stroke:none;font-family:TakaoPGothic;-inkscape-font-specification:TakaoPGothic-90ms-RKSJ-H">（備考）</tspan><tspan
                 x="188.567 195.567 202.567 209.567 216.567 223.567 230.567 237.567 243.937 250.937 257.93701 264.72699 271.72699 278.72699 285.72699 292.517 299.517 306.517 313.37701 320.37701"
                 y="-296.00299"
                 id="tspan228"
                 style="font-size:7px;font-variant:normal;writing-mode:lr-tb;fill:#231f20;fill-opacity:1;fill-rule:nonzero;stroke:none;font-family:TakaoPGothic;-inkscape-font-specification:TakaoPGothic-90ms-RKSJ-H"> 火災予防条例で下記の図記号の使用が規定</tspan><tspan
                 x="188.567 195.567 202.56824 209.56837 216.56755 223.56631 230.56577 237.56577 244.56577 250.93578 257.58578 261.08578 268.08578 275.08578 281.87576 288.87576 295.87576 302.87576 308.89578 315.89578"
                 y="-287.50299"
                 id="tspan230"
                 style="font-size:7px;font-variant:normal;writing-mode:lr-tb;fill:#231f20;fill-opacity:1;fill-rule:nonzero;stroke:none;font-family:TakaoPGothic;-inkscape-font-specification:TakaoPGothic-90ms-RKSJ-H"> されている場所には、下記の図記号を使用</tspan><tspan
                 x="188.567 195.567 202.56769 209.56714 216.56714 223.56714 230.42714 237.56783 244.56728"
                 y="-279.00299"
                 id="tspan232"
                 style="font-size:7px;font-variant:normal;writing-mode:lr-tb;fill:#231f20;fill-opacity:1;fill-rule:nonzero;stroke:none;font-family:TakaoPGothic;-inkscape-font-specification:TakaoPGothic-90ms-RKSJ-H"> する必要がある。</tspan></text>
</g></g></g></g></g></svg>