<?xml version="1.0" encoding="UTF-8" standalone="no"?>
<!-- Created with Inkscape (http://www.inkscape.org/) -->

<svg
   xmlns:dc="http://purl.org/dc/elements/1.1/"
   xmlns:cc="http://creativecommons.org/ns#"
   xmlns:rdf="http://www.w3.org/1999/02/22-rdf-syntax-ns#"
   xmlns:svg="http://www.w3.org/2000/svg"
   xmlns="http://www.w3.org/2000/svg"
   xmlns:inkscape="http://www.inkscape.org/namespaces/inkscape"
   version="1.1"
   width="765"
   height="990"
   id="svg2"
   xml:space="preserve"><metadata
     id="metadata8"><rdf:RDF><cc:Work
         rdf:about=""><dc:format>image/svg+xml</dc:format><dc:type
           rdf:resource="http://purl.org/dc/dcmitype/StillImage" /></cc:Work></rdf:RDF></metadata><defs
     id="defs6"><clipPath
       id="clipPath18"><path
         d="m 0,0 4899.41,0 0,7920 L 0,7920 0,0 z"
         inkscape:connector-curvature="0"
         id="path20" /></clipPath></defs><g
     transform="matrix(1.25,0,0,-1.25,0,990)"
     id="g10"><g
       transform="scale(0.1,0.1)"
       id="g12"><g
         id="g14"><g
           clip-path="url(#clipPath18)"
           id="g16"><g
             transform="scale(10,10)"
             id="g22"><text
               transform="matrix(1,0,0,-1,67.6008,256.574)"
               id="text24"><tspan
                 x="0 5.8097458 11.690391 17.221699 23.17252 145.089 151.66908 158.66908 289.478 295.56906 301.44955 307.5383 313.06961 318.53088"
                 y="0"
                 id="tspan26"
                 style="font-size:7px;font-variant:normal;writing-mode:lr-tb;fill:#231f20;fill-opacity:1;fill-rule:nonzero;stroke:none;font-family:TakaoPGothic;-inkscape-font-specification:TakaoPGothic-90ms-RKSJ-H">レンタカー自転車ロープウェイ</tspan><tspan
                 x="0.56 6.8608203 12.53115 18.970427 25.898474 32.898476 145.50818 152.50818 159.50818 289.96799 296.96799"
                 y="189.92101"
                 id="tspan28"
                 style="font-size:7px;font-variant:normal;writing-mode:lr-tb;fill:#231f20;fill-opacity:1;fill-rule:nonzero;stroke:none;font-family:TakaoPGothic;-inkscape-font-specification:TakaoPGothic-90ms-RKSJ-H">ケーブル鉄道駐車場出発</tspan></text>
<text
               transform="matrix(1,0,0,-1,68.5808,248.07)"
               id="text30"><tspan
                 x="0 5.3339992 9.5059977 13.677997 15.903996 18.129995 22.301994 24.527992 28.307993 32.479992 144.52899 149.47798 151.311 155.09068 158.87077 162.65085 164.48482 289.05801 294.39197 298.56387 302.73615 304.5701 308.7421 310.96811 314.74811 318.9201"
                 y="0"
                 id="tspan32"
                 style="font-size:7px;font-variant:normal;font-weight:normal;writing-mode:lr-tb;fill:#231f20;fill-opacity:1;fill-rule:nonzero;stroke:none;font-family:Helvetica;-inkscape-font-specification:Helvetica">Rent a carBicycleCable car</tspan><tspan
                 x="9.9999997e-05 5.3340869 9.5059633 13.67784 15.5118 19.6838 21.909798 24.520798 28.692797 30.526794 32.360199 37.69418 41.866051 144.52945 149.4782 153.65019 156.2614 160.04109 161.87428 166.04617"
                 y="189.92101"
                 id="tspan34"
                 style="font-size:7px;font-variant:normal;font-weight:normal;writing-mode:lr-tb;fill:#231f20;fill-opacity:1;fill-rule:nonzero;stroke:none;font-family:Helvetica;-inkscape-font-specification:Helvetica">Cable railwayParking</tspan></text>
</g><path
             d="M 4818.52,340.16 4818.52,0"
             inkscape:connector-curvature="0"
             id="path36"
             style="fill:none;stroke:#231f20;stroke-width:2;stroke-linecap:butt;stroke-linejoin:miter;stroke-miterlimit:4;stroke-opacity:1;stroke-dasharray:none" /><g
             transform="scale(10,10)"
             id="g38"><text
               transform="matrix(1,0,0,-1,357.639,58.1488)"
               id="text40"><tspan
                 x="0 5.3339806 9.5058632 13.6781 17.8501 20.461098 22.68708 26.858959 29.469975 33.641769"
                 y="0"
                 id="tspan42"
                 style="font-size:7px;font-variant:normal;font-weight:normal;writing-mode:lr-tb;fill:#231f20;fill-opacity:1;fill-rule:nonzero;stroke:none;font-family:Helvetica;-inkscape-font-specification:Helvetica">Departures</tspan></text>
</g><path
             d="m 2620.56,3376.75 86.01,-10.69 c 1.88,-0.23 3.79,-0.39 5.74,-0.39 24.98,0 45.3,19.73 46.38,44.45 l -136.75,0 c -9.2,0 -16.66,-7.46 -16.66,-16.66 0,-9.2 6.07,-16.71 15.28,-16.71"
             inkscape:connector-curvature="0"
             id="path44"
             style="fill:#231f20;fill-opacity:1;fill-rule:nonzero;stroke:none" /><path
             d="m 2817.82,3280.42 c -84.52,0 -154.13,-63.7 -163.52,-145.71 l -57.92,0 100.28,215.02 -253.93,0 45.95,98.73 70.94,0 0,38.08 -94.82,0 -100.07,-214.46 c -16.26,5.38 -33.63,8.34 -51.7,8.34 -90.92,0 -164.63,-73.71 -164.63,-164.64 0,-90.92 73.71,-164.63 164.63,-164.63 90.92,0 164.63,73.71 164.63,164.63 0,59.36 -31.41,111.36 -78.52,140.33 l 25.85,55.54 211.9,0 -100.28,-215.02 117.71,0 c 9.5,-81.89 79.06,-145.48 163.5,-145.48 90.92,0 164.63,73.71 164.63,164.63 0,90.93 -73.71,164.64 -164.63,164.64 m -374.98,-164.64 c 0,-71.69 -58.11,-129.81 -129.81,-129.81 -71.68,0 -129.8,58.12 -129.8,129.81 0,71.69 58.12,129.81 129.8,129.81 12.81,0 25.17,-1.89 36.86,-5.34 l -54.83,-117.51 c -4.45,-9.53 -0.33,-20.86 9.21,-25.3 9.52,-4.45 20.85,-0.32 25.29,9.21 l 54.75,117.6 c 35.25,-23.21 58.53,-63.11 58.53,-108.47 m 374.98,-129.81 c -65.18,0 -119.13,48.05 -128.38,110.66 l 128.17,0 0,0.01 c 10.53,0 19.05,8.52 19.05,19.04 0,10.51 -8.52,19.03 -19.05,19.03 l -128.21,0 c 9.16,62.72 63.16,110.88 128.42,110.88 71.69,0 129.8,-58.12 129.8,-129.81 0,-71.69 -58.11,-129.81 -129.8,-129.81"
             inkscape:connector-curvature="0"
             id="path46"
             style="fill:#231f20;fill-opacity:1;fill-rule:nonzero;stroke:none" /><path
             d="m 2130.85,2707.47 c -34.24,0 -62,27.76 -62,61.99 l 0,867.93 c 0,34.24 27.76,62 62,62 l 867.93,0 c 34.24,0 62,-27.76 62,-62 l 0,-867.93 c 0,-34.23 -27.76,-61.99 -62,-61.99 l -867.93,0 z"
             inkscape:connector-curvature="0"
             id="path48"
             style="fill:none;stroke:#231f20;stroke-width:2;stroke-linecap:butt;stroke-linejoin:miter;stroke-miterlimit:4;stroke-opacity:1;stroke-dasharray:none" /><path
             d="m 685.562,808.262 c -34.238,0 -61.996,27.75 -61.996,61.988 l 0,867.93 c 0,34.25 27.758,62 61.996,62 l 867.928,0 c 34.24,0 62,-27.75 62,-62 l 0,-867.93 c 0,-34.238 -27.76,-61.988 -62,-61.988 l -867.928,0 z"
             inkscape:connector-curvature="0"
             id="path50"
             style="fill:none;stroke:#231f20;stroke-width:2;stroke-linecap:butt;stroke-linejoin:miter;stroke-miterlimit:4;stroke-opacity:1;stroke-dasharray:none" /><path
             d="m 1457.11,1453.74 -20.22,158.3 c -1.58,7.75 -8.44,13.57 -16.65,13.57 -1.88,0 -3.68,-0.29 -5.37,-0.85 L 811.852,1405.61 c -6.024,-2.18 -10.469,-7.68 -11.122,-14.3 l -18.785,-183.49 0,-168.39 675.165,245.73 0,168.58 m -515.813,-180.55 -119.141,-43.24 15.086,144.68 104.055,37.9 0,-139.34 m 159.353,57.83 -121.584,-44.13 0,139.39 121.584,44.27 0,-139.53 m 159.35,57.82 -121.58,-44.12 0,139.58 121.58,44.28 0,-139.74 m 37.77,13.71 0,139.78 104.88,38.18 17.04,-133.71 -121.92,-44.25"
             inkscape:connector-curvature="0"
             id="path52"
             style="fill:#231f20;fill-opacity:1;fill-rule:nonzero;stroke:none" /><path
             d="m 1551.26,1286.04 -857.205,-311.97 0.117,-32.949 857.198,311.979 -0.11,32.94"
             inkscape:connector-curvature="0"
             id="path54"
             style="fill:#231f20;fill-opacity:1;fill-rule:nonzero;stroke:none" /><path
             d="m 3576.14,2707.47 c -34.25,0 -62,27.76 -62,61.99 l 0,867.93 c 0,34.24 27.75,62 62,62 l 867.92,0 c 34.24,0 62,-27.76 62,-62 l 0,-867.93 c 0,-34.23 -27.76,-61.99 -62,-61.99 l -867.92,0 z"
             inkscape:connector-curvature="0"
             id="path56"
             style="fill:none;stroke:#231f20;stroke-width:2;stroke-linecap:butt;stroke-linejoin:miter;stroke-miterlimit:4;stroke-opacity:1;stroke-dasharray:none" /><path
             d="m 4186.11,3232.06 -103.99,0 -42.58,185.96 378.49,137.75 -0.11,32.95 -281.33,-102.39 -0.01,40.19 -268.33,-97.74 0.02,-40.12 -264.58,-96.31 0.06,-32.94 371.47,135.2 -37.16,-162.55 -104.09,0 c -8.05,0 -14.79,-5.58 -16.55,-13.09 l -35.05,-158.22 0,-200.04 455.45,0 0,200.04 -35.17,158.22 c -1.75,7.51 -8.49,13.09 -16.54,13.09 m -194.87,-171.31 -170.13,0 29.27,133.54 140.86,0 0,-133.54 m 37.76,0 0,133.54 140.89,0 29.27,-133.54 -170.16,0"
             inkscape:connector-curvature="0"
             id="path58"
             style="fill:#231f20;fill-opacity:1;fill-rule:nonzero;stroke:none" /><path
             d="m 3576.39,808.262 c -34.24,0 -62,27.75 -62,61.988 l 0,867.93 c 0,34.25 27.76,62 62,62 l 867.92,0 c 34.25,0 62,-27.75 62,-62 l 0,-867.93 c 0,-34.238 -27.75,-61.988 -62,-61.988 l -867.92,0 z"
             inkscape:connector-curvature="0"
             id="path60"
             style="fill:none;stroke:#231f20;stroke-width:2;stroke-linecap:butt;stroke-linejoin:miter;stroke-miterlimit:4;stroke-opacity:1;stroke-dasharray:none" /><path
             d="m 3941.85,902.07 564.457,0 0,49.5117 -564.457,0 0,-49.5117 z"
             inkscape:connector-curvature="0"
             id="path62"
             style="fill:#231f20;fill-opacity:1;fill-rule:nonzero;stroke:none" /><path
             d="m 4474.31,1459.19 -63.42,23.12 -128.58,-46.95 -146.21,53.22 252.48,116.05 -80.56,30.98 -382.22,-70.51 -248.16,90.3 c -22.99,8.34 -47.71,-3.24 -55.61,-25 -7.9,-21.77 3.66,-46.49 26.64,-54.83 l 681.95,-247.91 143.69,131.53"
             inkscape:connector-curvature="0"
             id="path64"
             style="fill:#231f20;fill-opacity:1;fill-rule:nonzero;stroke:none" /><path
             d="m 2564.98,777.121 c 291.03,0 526.96,235.929 526.96,526.949 0,291.02 -235.93,526.95 -526.96,526.95 -291.03,0 -526.96,-235.93 -526.96,-526.95 0,-291.02 235.93,-526.949 526.96,-526.949 z"
             inkscape:connector-curvature="0"
             id="path66"
             style="fill:none;stroke:#231f20;stroke-width:2;stroke-linecap:butt;stroke-linejoin:miter;stroke-miterlimit:4;stroke-opacity:1;stroke-dasharray:none" /><path
             d="m 2324.89,1659.3 230.84,0 c 221.47,0 325.45,-74.87 325.45,-238.11 0,-146.61 -107.09,-233.97 -288.02,-233.97 l -74.87,0 0,-253.708 -193.4,0 0,725.788 m 193.4,-334.82 49.91,0 c 66.56,0 119.58,23.92 119.58,99.82 0,73.84 -53.02,97.75 -119.58,97.75 l -49.91,0 0,-197.57"
             inkscape:connector-curvature="0"
             id="path68"
             style="fill:#231f20;fill-opacity:1;fill-rule:nonzero;stroke:none" /><path
             d="m 684.379,2707.37 c -34.27,0 -62.043,27.78 -62.043,62.04 l 0,868.58 c 0,34.26 27.773,62.04 62.043,62.04 l 868.571,0 c 34.26,0 62.04,-27.78 62.04,-62.04 l 0,-868.58 c 0,-34.26 -27.78,-62.04 -62.04,-62.04 l -868.571,0 z"
             inkscape:connector-curvature="0"
             id="path70"
             style="fill:none;stroke:#231f20;stroke-width:2;stroke-linecap:butt;stroke-linejoin:miter;stroke-miterlimit:4;stroke-opacity:1;stroke-dasharray:none" /><path
             d="m 750.188,2949.26 33.4531,0 0,654.91 -33.4531,0 0,-654.91 z"
             inkscape:connector-curvature="0"
             id="path72"
             style="fill:#231f20;fill-opacity:1;fill-rule:nonzero;stroke:none" /><path
             d="m 1031.8,3604.17 -198.527,0 c -17.132,0 -31.019,-13.89 -31.019,-31.02 l 0,-198.53 c 0,-17.14 13.887,-31.03 31.019,-31.03 l 198.527,0 c 17.14,0 31.02,13.89 31.02,31.03 l 0,198.53 c 0,17.13 -13.88,31.02 -31.02,31.02 z m -65.753,-225.83 -10.945,34.46 c -10.399,32.83 -16.961,41.04 -35.836,41.04 l -10.668,0 0,-75.5 -50.879,0 0,190.94 90.82,0 c 33.918,0 61.551,-15.32 61.551,-48.15 0,-25.44 -12.035,-42.39 -36.66,-48.14 l 0,-0.55 c 16.418,-4.38 17.511,-18.87 27.09,-42.13 l 18.6,-51.97 -53.073,0"
             inkscape:connector-curvature="0"
             id="path74"
             style="fill:#231f20;fill-opacity:1;fill-rule:nonzero;stroke:none" /><path
             d="m 922,3533.17 -13.402,0 0,-43.22 13.402,0 c 16.418,0 37.207,0.55 37.207,22.16 0,17.78 -17.785,21.06 -37.207,21.06"
             inkscape:connector-curvature="0"
             id="path76"
             style="fill:#231f20;fill-opacity:1;fill-rule:nonzero;stroke:none" /><path
             d="m 1436.11,3108.92 -42.42,147.75 c -65.94,7.73 -133.04,11.71 -201.08,11.71 -68.02,0 -135.12,-3.98 -201.075,-11.71 l -42.41,-147.75 c -25.457,0 -45.957,-20.63 -45.957,-46.09 l -0.012,-171.69 45.606,0.01 -0.012,-73.34 c 11.16,-4.06 22.922,-6.27 35.484,-6.27 12.356,0 24.466,2.14 35.476,6.07 l 0,73.55 345.8,0.07 -0.02,-73.42 c 11.16,-4.06 22.93,-6.27 35.49,-6.27 12.36,0 24.47,2.14 35.47,6.07 l 0.01,73.63 45.79,0.01 0,171.58 c 0,25.46 -20.69,46.09 -46.14,46.09 z m -421.67,120.67 1.51,0.16 c 58.39,6.08 117.83,9.16 176.66,9.16 58.88,0 118.34,-3.08 176.75,-9.17 l 1.52,-0.15 34.66,-120.67 -425.962,0 34.862,120.67 z m -5.86,-263.39 c -27.865,0 -50.451,22.59 -50.451,50.46 0,27.86 22.586,50.45 50.451,50.45 27.86,0 50.45,-22.59 50.45,-50.45 0,-27.87 -22.59,-50.46 -50.45,-50.46 z m 368.07,0 c -27.86,0 -50.45,22.59 -50.45,50.46 0,27.86 22.59,50.45 50.45,50.45 27.87,0 50.46,-22.59 50.46,-50.45 0,-27.87 -22.59,-50.46 -50.46,-50.46"
             inkscape:connector-curvature="0"
             id="path78"
             style="fill:#231f20;fill-opacity:1;fill-rule:nonzero;stroke:none" /><path
             d="m 311.809,507.5 0,7259.74"
             inkscape:connector-curvature="0"
             id="path80"
             style="fill:none;stroke:#231f20;stroke-width:2;stroke-linecap:butt;stroke-linejoin:miter;stroke-miterlimit:4;stroke-opacity:1;stroke-dasharray:none" /><g
             transform="scale(10,10)"
             id="g82"><text
               transform="matrix(1,0,0,-1,483.269,29.7641)"
               id="text84"><tspan
                 x="0 3.336"
                 y="0"
                 id="tspan86"
                 style="font-size:6px;font-variant:normal;font-weight:normal;writing-mode:lr-tb;fill:#231f20;fill-opacity:1;fill-rule:nonzero;stroke:none;font-family:Helvetica;-inkscape-font-specification:Helvetica">10</tspan></text>
<text
               transform="matrix(1,0,0,-1,68.618,636.4471)"
               id="text88"><tspan
                 x="0 7 14"
                 y="0"
                 id="tspan90"
                 style="font-size:7px;font-variant:normal;writing-mode:lr-tb;fill:#231f20;fill-opacity:1;fill-rule:nonzero;stroke:none;font-family:TakaoPGothic;-inkscape-font-specification:TakaoPGothic-90ms-RKSJ-H">航空機</tspan></text>
<text
               transform="matrix(1,0,0,-1,91.843779,636.4471)"
               id="text92"><tspan
                 x="0 2.2261693"
                 y="0"
                 id="tspan94"
                 style="font-size:7px;font-variant:normal;font-weight:normal;writing-mode:lr-tb;fill:#231f20;fill-opacity:1;fill-rule:nonzero;stroke:none;font-family:Helvetica;-inkscape-font-specification:Helvetica">/ </tspan></text>
<text
               transform="matrix(1,0,0,-1,96.29612,636.4471)"
               id="text96"><tspan
                 x="0 7 116.851 123.851"
                 y="0"
                 id="tspan98"
                 style="font-size:7px;font-variant:normal;writing-mode:lr-tb;fill:#231f20;fill-opacity:1;fill-rule:nonzero;stroke:none;font-family:TakaoPGothic;-inkscape-font-specification:TakaoPGothic-90ms-RKSJ-H">空港鉄道</tspan></text>
<text
               transform="matrix(1,0,0,-1,229.3733,636.4471)"
               id="text100"><tspan
                 x="0 2.225785"
                 y="0"
                 id="tspan102"
                 style="font-size:7px;font-variant:normal;font-weight:normal;writing-mode:lr-tb;fill:#231f20;fill-opacity:1;fill-rule:nonzero;stroke:none;font-family:Helvetica;-inkscape-font-specification:Helvetica">/ </tspan></text>
<text
               transform="matrix(1,0,0,-1,233.82524,636.4471)"
               id="text104"><tspan
                 x="0 7 14 123.8503 130.8503"
                 y="0"
                 id="tspan106"
                 style="font-size:7px;font-variant:normal;writing-mode:lr-tb;fill:#231f20;fill-opacity:1;fill-rule:nonzero;stroke:none;font-family:TakaoPGothic;-inkscape-font-specification:TakaoPGothic-90ms-RKSJ-H">鉄道駅船舶</tspan></text>
<text
               transform="matrix(1,0,0,-1,373.90142,636.4471)"
               id="text108"><tspan
                 x="0 2.225785"
                 y="0"
                 id="tspan110"
                 style="font-size:7px;font-variant:normal;font-weight:normal;writing-mode:lr-tb;fill:#231f20;fill-opacity:1;fill-rule:nonzero;stroke:none;font-family:Helvetica;-inkscape-font-specification:Helvetica">/ </tspan></text>
<text
               transform="matrix(1,0,0,-1,377.58344,636.4471)"
               id="text112"><tspan
                 x="0 5.601367 10.572793 16.102871"
                 y="0"
                 id="tspan114"
                 style="font-size:7px;font-variant:normal;writing-mode:lr-tb;fill:#231f20;fill-opacity:1;fill-rule:nonzero;stroke:none;font-family:TakaoPGothic;-inkscape-font-specification:TakaoPGothic-90ms-RKSJ-H">フェリー</tspan></text>
<text
               transform="matrix(1,0,0,-1,402.41942,636.4471)"
               id="text116"><tspan
                 x="0 2.225785"
                 y="0"
                 id="tspan118"
                 style="font-size:7px;font-variant:normal;font-weight:normal;writing-mode:lr-tb;fill:#231f20;fill-opacity:1;fill-rule:nonzero;stroke:none;font-family:Helvetica;-inkscape-font-specification:Helvetica">/ </tspan></text>
<text
               transform="matrix(1,0,0,-1,406.87136,636.4471)"
               id="text120"><tspan
                 x="0"
                 y="0"
                 id="tspan122"
                 style="font-size:7px;font-variant:normal;writing-mode:lr-tb;fill:#231f20;fill-opacity:1;fill-rule:nonzero;stroke:none;font-family:TakaoPGothic;-inkscape-font-specification:TakaoPGothic-90ms-RKSJ-H">港</tspan></text>
<text
               transform="matrix(1,0,0,-1,68.61836,627.94319)"
               id="text124"><tspan
                 x="0 4.9488277 6.7828102 9.3938093 13.173808 15.784807 19.95661 22.182779 24.408779 26.634729 28.860508 31.086678 36.035904 37.869102 40.480034 44.651905 48.82423 51.43523 144.52893 149.86293 154.03493 155.86893 157.70222 163.03621 167.20848 170.98817 173.21434 175.44054 177.66655 183.00056 187.17213 189.00613 190.84048 196.17447 200.34636 204.12643 206.35222 210.13229 212.35828 216.53026 218.75612 220.59048 224.76237 289.05731 294.00632 298.17841 300.01239 304.18427 306.41046 308.63623 310.8624 315.4194 319.5914 322.20242 324.81317 328.59323 330.81943 333.0452 335.27136 340.22021 344.39246 347.00348"
                 y="0"
                 id="tspan126"
                 style="font-size:7px;font-variant:normal;font-weight:normal;writing-mode:lr-tb;fill:#231f20;fill-opacity:1;fill-rule:nonzero;stroke:none;font-family:Helvetica;-inkscape-font-specification:Helvetica">Aircraft / AirportRailway / Railway stationShip / Ferry / Port</tspan></text>
<text
               transform="matrix(1,0,0,-1,43.93782,785.53619)"
               id="text128"><tspan
                 x="0 12 24 36 48"
                 y="0"
                 id="tspan130"
                 style="font-size:12px;font-variant:normal;writing-mode:lr-tb;fill:#231f20;fill-opacity:1;fill-rule:nonzero;stroke:none;font-family:TakaoPGothic;-inkscape-font-specification:TakaoPGothic-90ms-RKSJ-H">交通施設 </tspan></text>
<text
               transform="matrix(1,0,0,-1,103.93782,785.53619)"
               id="text132"><tspan
                 x="0 7.8117199 12.287731 19.439741 26.59182 33.071815 40.22382 47.375771 51.85178 55.667793 59.483971 67.294907 74.446907 80.926903 84.0709 87.214897 90.359009 94.175026 97.318771 104.47112"
                 y="0"
                 id="tspan134"
                 style="font-size:12px;font-variant:normal;font-weight:normal;writing-mode:lr-tb;fill:#231f20;fill-opacity:1;fill-rule:nonzero;stroke:none;font-family:Helvetica;-inkscape-font-specification:Helvetica">Transport Facilities</tspan></text>
</g><path
             d="m 135.41,7957.77 127.055,0 0,-119.22 -127.055,0 0,119.22 z m 92.352,-85.91 -35.961,0 c 8.254,13.84 34.558,17.62 34.558,40.99 0,16.79 -11.472,26.17 -27.425,26.17 -18.887,0 -27.844,-11.9 -27.844,-29.11 l 15.39,0 c 0,10.08 4.899,16.23 11.895,16.23 4.758,0 11.754,-2.8 11.754,-13.01 0,-5.04 -1.957,-8.81 -6.156,-12.31 l -24.907,-21.41 c -6.714,-5.74 -8.254,-14 -8.254,-21.27 l 56.95,0 0,13.72"
             inkscape:connector-curvature="0"
             id="path136"
             style="fill:#231f20;fill-opacity:1;fill-rule:nonzero;stroke:none" /><path
             d="M 4818.89,7795.59 0,7795.59"
             inkscape:connector-curvature="0"
             id="path138"
             style="fill:none;stroke:#231f20;stroke-width:2;stroke-linecap:butt;stroke-linejoin:miter;stroke-miterlimit:4;stroke-opacity:1;stroke-dasharray:none" /><g
             transform="scale(10,10)"
             id="g140"><text
               transform="matrix(1,0,0,-1,444.749,785.536)"
               id="text142"><tspan
                 x="0 6.6719999 13.344"
                 y="0"
                 id="tspan144"
                 style="font-size:12px;font-variant:normal;font-weight:normal;writing-mode:lr-tb;fill:#231f20;fill-opacity:1;fill-rule:nonzero;stroke:none;font-family:Helvetica;-inkscape-font-specification:Helvetica">17 </tspan></text>
<text
               transform="matrix(1,0,0,-1,461.4291,785.536)"
               id="text146"><tspan
                 x="0 10.230078"
                 y="0"
                 id="tspan148"
                 style="font-size:11px;font-variant:normal;writing-mode:lr-tb;fill:#231f20;fill-opacity:1;fill-rule:nonzero;stroke:none;font-family:TakaoPGothic;-inkscape-font-specification:TakaoPGothic-90ms-RKSJ-H">項目</tspan></text>
<text
               transform="matrix(1,0,0,-1,10.0981,751.0958)"
               id="text150"><tspan
                 x="0"
                 y="0"
                 id="tspan152"
                 style="font-size:12px;font-variant:normal;font-weight:normal;writing-mode:lr-tb;fill:#231f20;fill-opacity:1;fill-rule:nonzero;stroke:none;font-family:Helvetica;-inkscape-font-specification:Helvetica">B</tspan></text>
</g><path
             d="m 1120.15,7381.32 c 21.82,0 40.01,-18.18 40.01,-41.2 l 0,-242.41 339.35,-190.28 0,-84.83 -339.35,98.17 0,-176.95 79.99,-59.39 0,-70.29 -120,39.99 -119.97,-39.99 0,70.29 79.99,59.39 0,176.95 -339.373,-98.17 0,84.83 339.373,190.28 0,242.41 c 0,23.02 18.17,41.2 39.98,41.2"
             inkscape:connector-curvature="0"
             id="path154"
             style="fill:#231f20;fill-opacity:1;fill-rule:nonzero;stroke:none" /><path
             d="m 686.18,6506.21 c -34.239,0 -61.992,27.75 -61.992,61.99 l 0,867.93 c 0,34.24 27.753,62 61.992,62 l 867.93,0 c 34.24,0 62,-27.76 62,-62 l 0,-867.93 c 0,-34.24 -27.76,-61.99 -62,-61.99 l -867.93,0 z"
             inkscape:connector-curvature="0"
             id="path156"
             style="fill:none;stroke:#231f20;stroke-width:2;stroke-linecap:butt;stroke-linejoin:miter;stroke-miterlimit:4;stroke-opacity:1;stroke-dasharray:none" /><path
             d="m 2718.66,6794.49 c 22.08,3.35 43.91,7.43 65.44,12.25 25.92,48.75 41,103.96 41,163.01 l 0,320.57 c 0,49.87 -36.68,91.32 -84.73,98.14 l -350.39,0 c -48.04,-6.82 -84.72,-48.27 -84.72,-98.14 l 0,-320.57 c 0,-58.64 14.84,-113.92 40.42,-162.42 21.8,-4.9 43.91,-9.09 66.27,-12.53 l -146.04,-181.65 82.01,0 98.15,121.55 238.22,0 98.15,-121.55 82.01,0 -145.79,181.34 z m -257.62,547.66 c 0,5.47 4.44,9.92 9.92,9.92 l 188.44,0 c 5.48,0 9.92,-4.45 9.92,-9.92 l 0,-27.27 c 0,-5.48 -4.44,-9.92 -9.92,-9.92 l -188.44,0 c -5.48,0 -9.92,4.44 -9.92,9.92 l 0,27.27 z m -103.53,-261.94 0,158.53 c 0,13.69 11.1,24.8 24.79,24.8 l 365.75,0 c 13.7,0 24.8,-11.11 24.8,-24.8 l 0,-158.53 c 0,-13.69 -11.1,-24.8 -24.8,-24.8 l -365.75,0 c -13.69,0 -24.79,11.11 -24.79,24.8 z m 60.96,-196.83 c -20.54,0 -37.19,16.65 -37.19,37.19 0,20.54 16.65,37.19 37.19,37.19 20.54,0 37.2,-16.65 37.2,-37.19 0,-20.54 -16.66,-37.19 -37.2,-37.19 z m 256.22,37.19 c 0,20.54 16.66,37.19 37.19,37.19 20.54,0 37.2,-16.65 37.2,-37.19 0,-20.54 -16.66,-37.19 -37.2,-37.19 -20.53,0 -37.19,16.65 -37.19,37.19"
             inkscape:connector-curvature="0"
             id="path158"
             style="fill:#231f20;fill-opacity:1;fill-rule:nonzero;stroke:none" /><path
             d="m 2131.19,6506.21 c -34.23,0 -61.99,27.75 -61.99,61.99 l 0,867.93 c 0,34.24 27.76,62 61.99,62 l 867.93,0 c 34.24,0 62,-27.76 62,-62 l 0,-867.93 c 0,-34.24 -27.76,-61.99 -62,-61.99 l -867.93,0 z"
             inkscape:connector-curvature="0"
             id="path160"
             style="fill:none;stroke:#231f20;stroke-width:2;stroke-linecap:butt;stroke-linejoin:miter;stroke-miterlimit:4;stroke-opacity:1;stroke-dasharray:none" /><path
             d="m 3575.86,6506.21 c -34.26,0 -62.03,27.77 -62.03,62.03 l 0,868.55 c 0,34.26 27.77,62.04 62.03,62.04 l 868.55,0 c 34.26,0 62.04,-27.78 62.04,-62.04 l 0,-868.55 c 0,-34.26 -27.78,-62.03 -62.04,-62.03 l -868.55,0 z"
             inkscape:connector-curvature="0"
             id="path162"
             style="fill:none;stroke:#231f20;stroke-width:2;stroke-linecap:butt;stroke-linejoin:miter;stroke-miterlimit:4;stroke-opacity:1;stroke-dasharray:none" /><path
             d="m 4352.55,7015.76 -51.09,88.1 -133.17,0 0,126.28 -93.54,0 -39.17,-69.21 -95.86,0 0,93.06 -6.2,0 -29.7,-93.06 -25.92,0 -32.68,-57.07 -75.64,0 -51.09,-88.1 -147.58,0 0,-6.2 c 54.53,-49.2 97.28,-111.6 121.97,-182.41 l 676.39,0 c 43.11,50.92 69.1,116.67 69.1,188.61 l -85.82,0"
             inkscape:connector-curvature="0"
             id="path164"
             style="fill:#231f20;fill-opacity:1;fill-rule:nonzero;stroke:none" /><g
             transform="scale(10,10)"
             id="g166"><text
               transform="matrix(1,0,0,-1,2.09609,764.839)"
               id="text168"><tspan
                 x="0 8 16"
                 y="0"
                 id="tspan170"
                 style="font-size:8px;font-variant:normal;writing-mode:lr-tb;fill:#231f20;fill-opacity:1;fill-rule:nonzero;stroke:none;font-family:TakaoPGothic;-inkscape-font-specification:TakaoPGothic-90ms-RKSJ-H">推奨度</tspan></text>
</g><path
             d="m 4283.55,7072.84 33.14,-57.08 -562.34,0 33.14,57.08 75.51,0.11 32.81,56.96 122.22,0 -32.3,-57.07 297.82,0"
             inkscape:connector-curvature="0"
             id="path172"
             style="fill:#ffffff;fill-opacity:1;fill-rule:nonzero;stroke:none" /><g
             transform="scale(10,10)"
             id="g174"><text
               transform="matrix(1,0,0,-1,68.4406,446.495)"
               id="text176"><tspan
                 x="0 6.020586 11.200274 17.009747 23.098495 28.839962"
                 y="0"
                 id="tspan178"
                 style="font-size:7px;font-variant:normal;writing-mode:lr-tb;fill:#231f20;fill-opacity:1;fill-rule:nonzero;stroke:none;font-family:TakaoPGothic;-inkscape-font-specification:TakaoPGothic-90ms-RKSJ-H">ヘリコプター</tspan></text>
<text
               transform="matrix(1,0,0,-1,106.01718,446.495)"
               id="text180"><tspan
                 x="0 2.225785"
                 y="0"
                 id="tspan182"
                 style="font-size:7px;font-variant:normal;font-weight:normal;writing-mode:lr-tb;fill:#231f20;fill-opacity:1;fill-rule:nonzero;stroke:none;font-family:Helvetica;-inkscape-font-specification:Helvetica">/ </tspan></text>
<text
               transform="matrix(1,0,0,-1,110.32889,446.495)"
               id="text184"><tspan
                 x="0 6.0201955 11.830352 17.989277 22.399452 102.64045 108.80074"
                 y="0"
                 id="tspan186"
                 style="font-size:7px;font-variant:normal;writing-mode:lr-tb;fill:#231f20;fill-opacity:1;fill-rule:nonzero;stroke:none;font-family:TakaoPGothic;-inkscape-font-specification:TakaoPGothic-90ms-RKSJ-H">ヘリポートバス</tspan></text>
<text
               transform="matrix(1,0,0,-1,227.79607,446.495)"
               id="text188"><tspan
                 x="0 2.225785"
                 y="0"
                 id="tspan190"
                 style="font-size:7px;font-variant:normal;font-weight:normal;writing-mode:lr-tb;fill:#231f20;fill-opacity:1;fill-rule:nonzero;stroke:none;font-family:Helvetica;-inkscape-font-specification:Helvetica">/ </tspan></text>
<text
               transform="matrix(1,0,0,-1,232.10817,446.495)"
               id="text192"><tspan
                 x="0 6.1599021 12.460586 18.269234 23.730505 124.76221 130.08336 135.68472 141.77539"
                 y="0"
                 id="tspan194"
                 style="font-size:7px;font-variant:normal;writing-mode:lr-tb;fill:#231f20;fill-opacity:1;fill-rule:nonzero;stroke:none;font-family:TakaoPGothic;-inkscape-font-specification:TakaoPGothic-90ms-RKSJ-H">バスのりばタクシー</tspan></text>
<text
               transform="matrix(1,0,0,-1,382.61496,446.495)"
               id="text196"><tspan
                 x="0 2.2261758"
                 y="0"
                 id="tspan198"
                 style="font-size:7px;font-variant:normal;font-weight:normal;writing-mode:lr-tb;fill:#231f20;fill-opacity:1;fill-rule:nonzero;stroke:none;font-family:Helvetica;-inkscape-font-specification:Helvetica">/ </tspan></text>
<text
               transform="matrix(1,0,0,-1,386.29698,446.495)"
               id="text200"><tspan
                 x="0 5.3215427 10.92291 17.013575 23.383905 29.192554 34.653824"
                 y="0"
                 id="tspan202"
                 style="font-size:7px;font-variant:normal;writing-mode:lr-tb;fill:#231f20;fill-opacity:1;fill-rule:nonzero;stroke:none;font-family:TakaoPGothic;-inkscape-font-specification:TakaoPGothic-90ms-RKSJ-H">タクシーのりば</tspan></text>
<text
               transform="matrix(1,0,0,-1,68.58098,437.99109)"
               id="text204"><tspan
                 x="0 5.3339868 9.5058603 11.339859 13.17383 16.953518 21.125786 25.29763 27.523628 31.695627 34.306625 36.532028 38.758205 40.98399 46.31797 50.490231 52.32423 54.158199 58.33007 62.501949 65.112946 144.52925 149.47807 153.65009 157.43002 159.6562 161.88199 164.10817 169.05623 173.22823 177.00818 179.23396 183.01404 185.24022 189.41211"
                 y="0"
                 id="tspan206"
                 style="font-size:7px;font-variant:normal;font-weight:normal;writing-mode:lr-tb;fill:#231f20;fill-opacity:1;fill-rule:nonzero;stroke:none;font-family:Helvetica;-inkscape-font-specification:Helvetica">Helicopter / HeliportBus / Bus stop</tspan></text>
</g><path
             d="m 2130.82,4606.68 c -34.24,0 -61.98,27.76 -61.98,62 l 0,867.93 c 0,34.24 27.74,61.99 61.98,61.99 l 867.94,0 c 34.23,0 61.99,-27.75 61.99,-61.99 l 0,-867.93 c 0,-34.24 -27.76,-62 -61.99,-62 l -867.94,0 z"
             inkscape:connector-curvature="0"
             id="path208"
             style="fill:none;stroke:#231f20;stroke-width:2;stroke-linecap:butt;stroke-linejoin:miter;stroke-miterlimit:4;stroke-opacity:1;stroke-dasharray:none" /><path
             d="m 2906.06,5288.22 -715.37,0 c -8.05,0 -14.79,-5.59 -16.55,-13.1 l -34.55,-171.41 0,-135.82 111.16,0 0,-5.11 c 0,-37.35 30.27,-67.63 67.63,-67.63 37.35,0 67.63,30.28 67.63,67.63 l 0,5.11 304.8,0 0,-4.73 c 0,-37.35 30.27,-67.63 67.63,-67.63 37.35,0 67.62,30.28 67.62,67.63 l 0,4.73 163.71,0 0,236.61 c 0,46.24 -37.49,83.72 -83.71,83.72 m -646.15,-258.32 -82.51,0 0,69.58 31.63,150.94 50.88,0 0,-220.52 m 173.16,104.57 -135.94,0 0,115.94 135.94,-0.01 0,-115.93 m 173.17,-0.01 -135.96,0.01 0,115.93 135.96,-0.01 0,-115.93 m 173.15,0 -135.95,0 0,115.92 135.95,-0.01 0,-115.91 m 37.21,0 0,115.9 89.46,0 c 25.31,0 45.84,-20.53 45.84,-45.86 l 0.08,-70.04 -135.38,0"
             inkscape:connector-curvature="0"
             id="path210"
             style="fill:#231f20;fill-opacity:1;fill-rule:nonzero;stroke:none" /><path
             d="m 3576.1,4606.68 c -34.24,0 -61.99,27.76 -61.99,62 l 0,867.93 c 0,34.24 27.75,61.99 61.99,61.99 l 867.94,0 c 34.24,0 61.99,-27.75 61.99,-61.99 l 0,-867.93 c 0,-34.24 -27.75,-62 -61.99,-62 l -867.94,0 z"
             inkscape:connector-curvature="0"
             id="path212"
             style="fill:none;stroke:#231f20;stroke-width:2;stroke-linecap:butt;stroke-linejoin:miter;stroke-miterlimit:4;stroke-opacity:1;stroke-dasharray:none" /><path
             d="m 4260.32,4999.17 -43.6,151.89 c -34.56,4.05 -69.43,7.09 -104.56,9.1 l -18.21,67.73 -167.93,0 -18.21,-67.73 c -35.13,-2.01 -70,-5.05 -104.55,-9.1 l -43.61,-151.89 c -26.17,0 -47.25,-21.22 -47.25,-47.39 l 0,-176.52 46.87,0.01 0,-75.4 c 11.47,-4.17 23.56,-6.45 36.48,-6.45 12.7,0 25.16,2.21 36.48,6.25 l 0,75.61 355.5,0.08 0,-75.49 c 11.47,-4.17 23.56,-6.45 36.48,-6.45 12.69,0 25.15,2.21 36.47,6.25 l 0,75.7 47.07,0.01 0,176.4 c 0,26.17 -21.26,47.39 -47.43,47.39 m -431.72,121.91 c 59.84,6.23 120.85,9.4 181.39,9.4 60.56,0 121.59,-3.17 181.46,-9.41 l 35.02,-121.87 -433.08,0 35.21,121.88 m -7.82,-268.64 c -28.65,0 -51.88,23.22 -51.88,51.87 0,28.64 23.23,51.87 51.88,51.87 28.65,0 51.86,-23.23 51.86,-51.87 0,-28.65 -23.21,-51.87 -51.86,-51.87 m 378.41,0 c -28.64,0 -51.87,23.22 -51.87,51.87 0,28.64 23.23,51.87 51.87,51.87 28.65,0 51.87,-23.23 51.87,-51.87 0,-28.65 -23.22,-51.87 -51.87,-51.87"
             inkscape:connector-curvature="0"
             id="path214"
             style="fill:#231f20;fill-opacity:1;fill-rule:nonzero;stroke:none" /><path
             d="m 3652,5489.16 -56.43,0 0,45.27 173.87,0 0,-45.27 -56.42,0 0,-183.7 -61.02,0 0,183.7"
             inkscape:connector-curvature="0"
             id="path216"
             style="fill:#231f20;fill-opacity:1;fill-rule:nonzero;stroke:none" /><path
             d="m 3936.39,5534.43 -74.8,0 -86.93,-228.97 62,0 18.04,48.87 85.95,0 17.07,-48.87 66.91,0 -88.24,228.97 m -67.58,-136.8 29.53,89.56 0.65,0 27.23,-89.56 -57.41,0"
             inkscape:connector-curvature="0"
             id="path218"
             style="fill:#231f20;fill-opacity:1;fill-rule:nonzero;stroke:none" /><path
             d="m 4114.48,5425.85 -66.28,108.58 71.19,0 38.38,-75.45 39.37,75.45 66.92,0 -66.92,-108.58 73.47,-120.39 -72.82,0 -44.28,84.31 -43.96,-84.31 -69.22,0 74.15,120.39"
             inkscape:connector-curvature="0"
             id="path220"
             style="fill:#231f20;fill-opacity:1;fill-rule:nonzero;stroke:none" /><path
             d="m 4334.25,5305.46 61.0195,0 0,228.969 -61.0195,0 0,-228.969 z"
             inkscape:connector-curvature="0"
             id="path222"
             style="fill:#231f20;fill-opacity:1;fill-rule:nonzero;stroke:none" /><path
             d="m 685.281,4606.68 c -34.25,0 -62.015,27.76 -62.015,62.01 l 0,868.19 c 0,34.25 27.765,62.02 62.015,62.02 l 868.189,0 c 34.25,0 62.01,-27.77 62.01,-62.02 l 0,-868.19 c 0,-34.25 -27.76,-62.01 -62.01,-62.01 l -868.189,0 z"
             inkscape:connector-curvature="0"
             id="path224"
             style="fill:none;stroke:#231f20;stroke-width:2;stroke-linecap:butt;stroke-linejoin:miter;stroke-miterlimit:4;stroke-opacity:1;stroke-dasharray:none" /><path
             d="m 1527.8,5280.48 0,53.8 -330,-59.52 -329.999,59.52 0,-53.8 311.099,-26.73 0,-39.42 -349.97,0 c -3.321,12.95 -10.047,24.82 -19.742,34.51 -14.262,14.27 -33.235,22.12 -53.403,22.12 -20.176,0 -39.14,-7.85 -53.406,-22.12 -14.266,-14.26 -22.121,-33.22 -22.121,-53.4 0,-41.64 33.879,-75.53 75.527,-75.53 20.168,0 39.141,7.86 53.403,22.12 4.859,4.87 8.949,10.27 12.265,16.08 l 249.337,-67.4 59.99,-106.5 c 8.96,-14.69 25.14,-24.5 43.6,-24.5 l 26.97,-0.01 0,-55.89 -37.64,0 c -17.77,0 -34.06,8.13 -44.73,22.3 l -26.84,-21.85 1.79,-2.17 c 1.84,-2.22 3.79,-4.35 5.8,-6.36 17.05,-17.07 39.78,-26.47 63.98,-26.47 l 276.09,0 c 24.19,0 46.91,9.4 63.98,26.47 2,2.01 3.95,4.14 5.78,6.36 l 1.8,2.17 -26.84,21.85 c -10.67,-14.17 -26.96,-22.3 -44.72,-22.3 l -39.49,0 0,55.85 69.55,-0.01 c 24.58,27.05 39.55,62.97 39.55,102.39 0,84.11 -68.18,152.29 -152.28,152.29 l -140.43,0 0,39.42 311.1,26.73 m -777.027,-103.26 38.969,-10.53 c -0.789,-0.94 -1.601,-1.86 -2.472,-2.73 -8.411,-8.42 -19.59,-13.05 -31.485,-13.05 -11.863,0 -23.035,4.64 -31.461,13.07 -8.429,8.42 -13.07,19.6 -13.07,31.46 0,11.9 4.633,23.08 13.039,31.49 8.41,8.41 19.598,13.04 31.492,13.04 11.895,0 23.074,-4.63 31.485,-13.04 3.71,-3.71 6.632,-7.98 8.8,-12.6 l -40.285,0 c -10.43,0 -18.898,-8.45 -18.898,-18.89 0,-8.7 5.883,-16.03 13.886,-18.22 m 618.527,-273.41 -136.96,0 0,55.89 136.96,-0.03 0,-55.86 m -49.78,272.73 37.61,0 c 30.57,0 59.33,-11.91 80.96,-33.54 18.02,-18.02 29.26,-41 32.52,-65.85 -28.82,-0.03 -91.73,-0.09 -151.09,-0.15 l 0,99.54 m -37.79,0 0,-99.57 c -53.11,-0.05 -95.7,-0.09 -95.69,-0.09 -6.76,0 -13.04,3.64 -16.41,9.51 l -50.13,90.15 162.23,0"
             inkscape:connector-curvature="0"
             id="path226"
             style="fill:#231f20;fill-opacity:1;fill-rule:nonzero;stroke:none" /><g
             transform="scale(10,10)"
             id="g228"><text
               transform="matrix(1,0,0,-1,357.639,437.991)"
               id="text230"><tspan
                 x="0 4.5570292 8.7289124 12.508991 14.342971 16.569147 18.794931 21.021109 25.578136 29.750021 33.530098 35.364079 37.589863 41.369942 43.596119 47.768002"
                 y="0"
                 id="tspan232"
                 style="font-size:7px;font-variant:normal;font-weight:normal;writing-mode:lr-tb;fill:#231f20;fill-opacity:1;fill-rule:nonzero;stroke:none;font-family:Helvetica;-inkscape-font-specification:Helvetica">Taxi / Taxi stop</tspan></text>
</g></g></g></g></g></svg>