<?xml version="1.0" encoding="UTF-8" standalone="no"?>
<!-- Created with Inkscape (http://www.inkscape.org/) -->

<svg
   xmlns:dc="http://purl.org/dc/elements/1.1/"
   xmlns:cc="http://creativecommons.org/ns#"
   xmlns:rdf="http://www.w3.org/1999/02/22-rdf-syntax-ns#"
   xmlns:svg="http://www.w3.org/2000/svg"
   xmlns="http://www.w3.org/2000/svg"
   xmlns:inkscape="http://www.inkscape.org/namespaces/inkscape"
   version="1.1"
   width="765"
   height="990"
   id="svg2"
   xml:space="preserve"><metadata
     id="metadata8"><rdf:RDF><cc:Work
         rdf:about=""><dc:format>image/svg+xml</dc:format><dc:type
           rdf:resource="http://purl.org/dc/dcmitype/StillImage" /></cc:Work></rdf:RDF></metadata><defs
     id="defs6"><clipPath
       id="clipPath18"><path
         d="m 0,0 4898.59,0 0,7920 L 0,7920 0,0 z"
         inkscape:connector-curvature="0"
         id="path20" /></clipPath></defs><g
     transform="matrix(1.25,0,0,-1.25,0,990)"
     id="g10"><g
       transform="scale(0.1,0.1)"
       id="g12"><g
         id="g14"><g
           clip-path="url(#clipPath18)"
           id="g16"><path
             d="M 4817.7,340.16 4817.7,0"
             inkscape:connector-curvature="0"
             id="path22"
             style="fill:none;stroke:#231f20;stroke-width:2;stroke-linecap:butt;stroke-linejoin:miter;stroke-miterlimit:4;stroke-opacity:1;stroke-dasharray:none" /><g
             transform="scale(10,10)"
             id="g24"><text
               transform="matrix(1,0,0,-1,483.187,29.7641)"
               id="text26"><tspan
                 x="0 3.336"
                 y="0"
                 id="tspan28"
                 style="font-size:6px;font-variant:normal;font-weight:normal;writing-mode:lr-tb;fill:#231f20;fill-opacity:1;fill-rule:nonzero;stroke:none;font-family:Helvetica;-inkscape-font-specification:Helvetica">11</tspan></text>
<text
               transform="matrix(1,0,0,-1,68.581,636.4281)"
               id="text30"><tspan
                 x="0 7 144.528 150.478 156.4295 162.65958 289.05801 296.05801 303.05801 310.05801 317.05801 324.05801"
                 y="0"
                 id="tspan32"
                 style="font-size:7px;font-variant:normal;writing-mode:lr-tb;fill:#231f20;fill-opacity:1;fill-rule:nonzero;stroke:none;font-family:TakaoPGothic;-inkscape-font-specification:TakaoPGothic-90ms-RKSJ-H">到着乗り継ぎ手荷物受取所</tspan></text>
<text
               transform="matrix(1,0,0,-1,68.581,627.9238)"
               id="text34"><tspan
                 x="0 4.9489989 7.559998 10.170997 12.004996 15.784995 19.956993 21.790993 144.528 149.862 154.034 158.20599 162.37799 166.54999 170.32999 172.55611 174.39008 178.56209 182.73412 184.96013 187.18617 189.02017 190.85417 195.02618 199.19818 201.42409"
                 y="0"
                 id="tspan36"
                 style="font-size:7px;font-variant:normal;font-weight:normal;writing-mode:lr-tb;fill:#231f20;fill-opacity:1;fill-rule:nonzero;stroke:none;font-family:Helvetica;-inkscape-font-specification:Helvetica">ArrivalsConnecting flights</tspan></text>
</g><path
             d="m 685.812,6506.01 c -34.234,0 -61.996,27.76 -61.996,61.99 l 0,867.93 c 0,34.24 27.762,62 61.996,62 l 867.938,0 c 34.23,0 61.99,-27.76 61.99,-62 l 0,-867.93 c 0,-34.23 -27.76,-61.99 -61.99,-61.99 l -867.938,0 z"
             inkscape:connector-curvature="0"
             id="path38"
             style="fill:none;stroke:#231f20;stroke-width:2;stroke-linecap:butt;stroke-linejoin:miter;stroke-miterlimit:4;stroke-opacity:1;stroke-dasharray:none" /><path
             d="m 623.816,6599.82 564.465,0 0,49.5117 -564.465,0 0,-49.5117 z"
             inkscape:connector-curvature="0"
             id="path40"
             style="fill:#231f20;fill-opacity:1;fill-rule:nonzero;stroke:none" /><path
             d="m 867.41,6728.67 c 9.918,2.65 15.805,12.85 13.149,22.77 -2.661,9.92 -12.856,15.81 -22.778,13.15 -9.914,-2.66 -15.808,-12.86 -13.152,-22.78 2.66,-9.92 12.859,-15.8 22.781,-13.14"
             inkscape:connector-curvature="0"
             id="path42"
             style="fill:#231f20;fill-opacity:1;fill-rule:nonzero;stroke:none" /><path
             d="m 1484.79,7130.74 -78.41,-112.19 -150.28,-40.26 140.27,239.86 -83.75,-20.82 -272.66,-276.95 -255.073,-68.35 c -23.598,-6.35 -37.219,-30 -31.203,-52.37 6.019,-22.36 29.656,-35.98 53.265,-29.62 l 700.781,187.99 42.27,190.14 -65.21,-17.43"
             inkscape:connector-curvature="0"
             id="path44"
             style="fill:#231f20;fill-opacity:1;fill-rule:nonzero;stroke:none" /><path
             d="m 4193.32,6734.09 0,460.14 -80.29,0.02 0,77.93 -11.59,2.7 c -29.91,7.04 -60.54,10.6 -91.09,10.6 -30.69,0 -61.33,-3.56 -91.05,-10.6 l -11.57,-2.74 -0.01,-77.89 -80.29,0 0,-460.14 365.89,-0.02 m 106.27,-0.01 c 21.79,0 39.44,17.65 39.44,39.44 l -0.1,381.27 c 0,21.79 -17.66,39.44 -39.45,39.44 l -68.38,0 0,-460.14 68.49,-0.01 m -578.45,460.19 c -21.78,0 -39.44,-17.65 -39.44,-39.44 l -0.02,-381.27 c 0,-21.79 17.66,-39.44 39.43,-39.44 l 68.54,0 0,460.13 -68.51,0.02 m 354.1,-0.02 -129.73,0 0.01,47.52 c 21.33,3.92 43.05,5.93 64.83,5.93 21.68,0 43.42,-2.02 64.89,-5.97 l 0,-47.48"
             inkscape:connector-curvature="0"
             id="path46"
             style="fill:#231f20;fill-opacity:1;fill-rule:nonzero;stroke:none" /><path
             d="m 3576.39,6506.01 c -34.24,0 -62.01,27.76 -62.01,61.99 l 0,867.93 c 0,34.24 27.77,62 62.01,62 l 867.93,0 c 34.23,0 61.99,-27.76 61.99,-62 l 0,-867.93 c 0,-34.23 -27.76,-61.99 -61.99,-61.99 l -867.93,0 z"
             inkscape:connector-curvature="0"
             id="path48"
             style="fill:none;stroke:#231f20;stroke-width:2;stroke-linecap:butt;stroke-linejoin:miter;stroke-miterlimit:4;stroke-opacity:1;stroke-dasharray:none" /><path
             d="m 2131.7,6506.01 c -34.24,0 -61.99,27.76 -61.99,61.99 l 0,867.93 c 0,34.24 27.75,62 61.99,62 l 867.93,0 c 34.24,0 61.99,-27.76 61.99,-62 l 0,-867.93 c 0,-34.23 -27.75,-61.99 -61.99,-61.99 l -867.93,0 z"
             inkscape:connector-curvature="0"
             id="path50"
             style="fill:none;stroke:#231f20;stroke-width:2;stroke-linecap:butt;stroke-linejoin:miter;stroke-miterlimit:4;stroke-opacity:1;stroke-dasharray:none" /><path
             d="m 2416.42,6912.46 0,140.32 c 0,13.33 -10.54,23.85 -23.16,23.85 -12.63,0 -23.15,-10.52 -23.15,-23.85 l 0.01,-140.32 -196.46,-110.16 0,-49.12 196.46,56.84 0,-102.43 -46.3,-34.38 0,-40.69 69.45,23.15 69.46,-23.15 0,40.69 -46.3,34.38 -0.01,102.43 196.45,-56.82 0,49.11 -196.45,110.15"
             inkscape:connector-curvature="0"
             id="path52"
             style="fill:#231f20;fill-opacity:1;fill-rule:nonzero;stroke:none" /><path
             d="m 2779.41,6949.22 0,40.7 -46.3,34.37 0,102.44 196.45,-56.83 -0.01,49.11 -196.44,110.15 0,140.33 c -0.01,13.33 -10.54,23.85 -23.17,23.85 -12.63,0 -23.14,-10.53 -23.14,-23.85 l 0,-140.33 -196.46,-110.16 0,-49.11 196.46,56.84 0.01,-102.44 -46.31,-34.37 0,-40.7 69.45,23.16 69.46,-23.16"
             inkscape:connector-curvature="0"
             id="path54"
             style="fill:#231f20;fill-opacity:1;fill-rule:nonzero;stroke:none" /><path
             d="m 2214.69,7126.11 c 8.38,-3.38 17.92,0.66 21.31,9.04 3.38,8.38 -0.67,17.93 -9.05,21.31 -8.38,3.39 -17.91,-0.65 -21.3,-9.04 -3.39,-8.38 0.66,-17.91 9.04,-21.31"
             inkscape:connector-curvature="0"
             id="path56"
             style="fill:#231f20;fill-opacity:1;fill-rule:nonzero;stroke:none" /><path
             d="m 2193.78,7016.84 c 7.51,-0.57 14.06,5.05 14.63,12.55 0.58,7.52 -5.04,14.07 -12.55,14.65 -7.51,0.58 -14.06,-5.04 -14.64,-12.56 -0.57,-7.51 5.05,-14.06 12.56,-14.64"
             inkscape:connector-curvature="0"
             id="path58"
             style="fill:#231f20;fill-opacity:1;fill-rule:nonzero;stroke:none" /><path
             d="m 2262.33,7218.04 c 8.5,-6.75 20.84,-5.34 27.59,3.15 6.75,8.49 5.34,20.84 -3.14,27.6 -8.49,6.73 -20.84,5.33 -27.59,-3.16 -6.75,-8.49 -5.35,-20.84 3.14,-27.59"
             inkscape:connector-curvature="0"
             id="path60"
             style="fill:#231f20;fill-opacity:1;fill-rule:nonzero;stroke:none" /><path
             d="m 2365.81,7287.16 c 10.66,7.46 13.26,22.16 5.79,32.82 -7.47,10.66 -22.16,13.25 -32.82,5.79 -10.65,-7.46 -13.24,-22.16 -5.78,-32.82 7.46,-10.66 22.16,-13.25 32.81,-5.79"
             inkscape:connector-curvature="0"
             id="path62"
             style="fill:#231f20;fill-opacity:1;fill-rule:nonzero;stroke:none" /><path
             d="m 2456.51,7327.73 c 14.81,4.96 22.79,20.99 17.83,35.79 -4.96,14.82 -20.99,22.78 -35.8,17.82 -14.79,-4.95 -22.78,-20.97 -17.82,-35.78 4.96,-14.8 20.99,-22.79 35.79,-17.83"
             inkscape:connector-curvature="0"
             id="path64"
             style="fill:#231f20;fill-opacity:1;fill-rule:nonzero;stroke:none" /><path
             d="m 2558.43,7339.55 c 18.73,0.39 33.59,15.9 33.2,34.64 -0.39,18.72 -15.9,33.58 -34.63,33.19 -18.73,-0.39 -33.6,-15.9 -33.2,-34.63 0.39,-18.73 15.9,-33.59 34.63,-33.2"
             inkscape:connector-curvature="0"
             id="path66"
             style="fill:#231f20;fill-opacity:1;fill-rule:nonzero;stroke:none" /><path
             d="m 2916.64,6877.82 c -8.38,3.39 -17.92,-0.67 -21.31,-9.04 -3.39,-8.38 0.67,-17.92 9.05,-21.3 8.37,-3.39 17.91,0.66 21.3,9.03 3.38,8.38 -0.66,17.92 -9.04,21.31"
             inkscape:connector-curvature="0"
             id="path68"
             style="fill:#231f20;fill-opacity:1;fill-rule:nonzero;stroke:none" /><path
             d="m 2937.55,6987.09 c -7.51,0.58 -14.06,-5.04 -14.64,-12.55 -0.58,-7.51 5.05,-14.07 12.56,-14.64 7.51,-0.59 14.06,5.04 14.64,12.56 0.57,7.5 -5.05,14.05 -12.56,14.63"
             inkscape:connector-curvature="0"
             id="path70"
             style="fill:#231f20;fill-opacity:1;fill-rule:nonzero;stroke:none" /><path
             d="m 2868.99,6785.89 c -8.48,6.75 -20.84,5.35 -27.58,-3.14 -6.76,-8.5 -5.35,-20.84 3.14,-27.6 8.49,-6.75 20.84,-5.34 27.59,3.16 6.75,8.48 5.34,20.83 -3.15,27.58"
             inkscape:connector-curvature="0"
             id="path72"
             style="fill:#231f20;fill-opacity:1;fill-rule:nonzero;stroke:none" /><path
             d="m 2765.52,6716.76 c -10.67,-7.46 -13.25,-22.15 -5.79,-32.81 7.47,-10.65 22.15,-13.25 32.82,-5.78 10.65,7.46 13.24,22.16 5.78,32.81 -7.46,10.67 -22.16,13.25 -32.81,5.78"
             inkscape:connector-curvature="0"
             id="path74"
             style="fill:#231f20;fill-opacity:1;fill-rule:nonzero;stroke:none" /><path
             d="m 2674.81,6676.2 c -14.8,-4.96 -22.78,-20.99 -17.82,-35.79 4.96,-14.81 20.99,-22.79 35.79,-17.83 14.81,4.97 22.79,20.99 17.83,35.8 -4.97,14.8 -20.99,22.78 -35.8,17.82"
             inkscape:connector-curvature="0"
             id="path76"
             style="fill:#231f20;fill-opacity:1;fill-rule:nonzero;stroke:none" /><path
             d="m 2572.9,6664.39 c -18.73,-0.4 -33.59,-15.9 -33.2,-34.63 0.39,-18.74 15.9,-33.6 34.63,-33.2 18.73,0.39 33.6,15.9 33.2,34.62 -0.39,18.74 -15.9,33.6 -34.63,33.21"
             inkscape:connector-curvature="0"
             id="path78"
             style="fill:#231f20;fill-opacity:1;fill-rule:nonzero;stroke:none" /><g
             transform="scale(10,10)"
             id="g80"><text
               transform="matrix(1,0,0,-1,357.639,627.924)"
               id="text82"><tspan
                 x="0 4.9488339 9.1210899 13.293089 17.46484 21.63711 25.809109 29.981108 32.207108 35.98711 37.821079 41.993046 43.825779"
                 y="0"
                 id="tspan84"
                 style="font-size:7px;font-variant:normal;font-weight:normal;writing-mode:lr-tb;fill:#231f20;fill-opacity:1;fill-rule:nonzero;stroke:none;font-family:Helvetica;-inkscape-font-specification:Helvetica">Baggage claim</tspan></text>
<text
               transform="matrix(1,0,0,-1,68.50578,446.528)"
               id="text86"><tspan
                 x="0 7"
                 y="0"
                 id="tspan88"
                 style="font-size:7px;font-variant:normal;writing-mode:lr-tb;fill:#231f20;fill-opacity:1;fill-rule:nonzero;stroke:none;font-family:TakaoPGothic;-inkscape-font-specification:TakaoPGothic-90ms-RKSJ-H">税関</tspan></text>
<text
               transform="matrix(1,0,0,-1,84.731949,446.528)"
               id="text90"><tspan
                 x="0 2.2257788"
                 y="0"
                 id="tspan92"
                 style="font-size:7px;font-variant:normal;font-weight:normal;writing-mode:lr-tb;fill:#231f20;fill-opacity:1;fill-rule:nonzero;stroke:none;font-family:Helvetica;-inkscape-font-specification:Helvetica">/ </tspan></text>
<text
               transform="matrix(1,0,0,-1,89.1839,446.528)"
               id="text94"><tspan
                 x="0 7 14 21 123.7803 130.7803 137.7803 144.7803"
                 y="0"
                 id="tspan96"
                 style="font-size:7px;font-variant:normal;writing-mode:lr-tb;fill:#231f20;fill-opacity:1;fill-rule:nonzero;stroke:none;font-family:TakaoPGothic;-inkscape-font-specification:TakaoPGothic-90ms-RKSJ-H">荷物検査出国手続</tspan></text>
<text
               transform="matrix(1,0,0,-1,243.18969,446.528)"
               id="text98"><tspan
                 x="0 2.2261758"
                 y="0"
                 id="tspan100"
                 style="font-size:7px;font-variant:normal;font-weight:normal;writing-mode:lr-tb;fill:#231f20;fill-opacity:1;fill-rule:nonzero;stroke:none;font-family:Helvetica;-inkscape-font-specification:Helvetica">/ </tspan></text>
<text
               transform="matrix(1,0,0,-1,247.64202,446.528)"
               id="text102"><tspan
                 x="0 7 14 21"
                 y="0"
                 id="tspan104"
                 style="font-size:7px;font-variant:normal;writing-mode:lr-tb;fill:#231f20;fill-opacity:1;fill-rule:nonzero;stroke:none;font-family:TakaoPGothic;-inkscape-font-specification:TakaoPGothic-90ms-RKSJ-H">入国手続</tspan></text>
<text
               transform="matrix(1,0,0,-1,277.86781,446.528)"
               id="text106"><tspan
                 x="0 2.2261758"
                 y="0"
                 id="tspan108"
                 style="font-size:7px;font-variant:normal;font-weight:normal;writing-mode:lr-tb;fill:#231f20;fill-opacity:1;fill-rule:nonzero;stroke:none;font-family:Helvetica;-inkscape-font-specification:Helvetica">/ </tspan></text>
<text
               transform="matrix(1,0,0,-1,282.31975,446.528)"
               id="text110"><tspan
                 x="0 7"
                 y="0"
                 id="tspan112"
                 style="font-size:7px;font-variant:normal;writing-mode:lr-tb;fill:#231f20;fill-opacity:1;fill-rule:nonzero;stroke:none;font-family:TakaoPGothic;-inkscape-font-specification:TakaoPGothic-90ms-RKSJ-H">検疫</tspan></text>
<text
               transform="matrix(1,0,0,-1,298.54593,446.528)"
               id="text114"><tspan
                 x="0 2.225785"
                 y="0"
                 id="tspan116"
                 style="font-size:7px;font-variant:normal;font-weight:normal;writing-mode:lr-tb;fill:#231f20;fill-opacity:1;fill-rule:nonzero;stroke:none;font-family:Helvetica;-inkscape-font-specification:Helvetica">/ </tspan></text>
<text
               transform="matrix(1,0,0,-1,302.99787,446.528)"
               id="text118"><tspan
                 x="0 7 14 21"
                 y="0"
                 id="tspan120"
                 style="font-size:7px;font-variant:normal;writing-mode:lr-tb;fill:#231f20;fill-opacity:1;fill-rule:nonzero;stroke:none;font-family:TakaoPGothic;-inkscape-font-specification:TakaoPGothic-90ms-RKSJ-H">書類審査</tspan></text>
<text
               transform="matrix(1,0,0,-1,68.50587,438.02409)"
               id="text122"><tspan
                 x="0 5.3339868 9.5058632 13.2859 15.511899 19.68395 25.794888 29.574966 31.801136 34.026913 36.25309 41.201923 45.374149 49.54615 53.717899 57.890171 62.062168 66.234169 68.460167 72.240166 76.412163 80.584167 84.363968"
                 y="0"
                 id="tspan124"
                 style="font-size:7px;font-variant:normal;font-weight:normal;writing-mode:lr-tb;fill:#231f20;fill-opacity:1;fill-rule:nonzero;stroke:none;font-family:Helvetica;-inkscape-font-specification:Helvetica">Customs / Baggage check</tspan></text>
</g><path
             d="m 685.652,4607.01 c -34.234,0 -61.996,27.75 -61.996,61.99 l 0,867.94 c 0,34.24 27.762,61.99 61.996,61.99 l 867.928,0 c 34.24,0 62,-27.75 62,-61.99 l 0,-867.94 c 0,-34.24 -27.76,-61.99 -62,-61.99 l -867.928,0 z"
             inkscape:connector-curvature="0"
             id="path126"
             style="fill:none;stroke:#231f20;stroke-width:2;stroke-linecap:butt;stroke-linejoin:miter;stroke-miterlimit:4;stroke-opacity:1;stroke-dasharray:none" /><path
             d="m 1445.38,5189.33 c -27.48,7.61 -55.89,13 -85,15.98 l -53.46,-91.48 -53.45,91.49 c -29.25,-2.97 -57.77,-8.36 -85.35,-16.04 -2.7,-0.76 -5.34,-1.59 -7.91,-2.55 -5.4,-2.01 -9.87,-5.9 -12.71,-10.82 l -174.512,-302.31 89.892,0.01 102.4,140.96 0,-252.55 326.28,0.01 28,320.04 c 4.19,47.99 -26.11,93.75 -74.18,107.26"
             inkscape:connector-curvature="0"
             id="path128"
             style="fill:#231f20;fill-opacity:1;fill-rule:nonzero;stroke:none" /><path
             d="m 1306.78,5228.19 c 45.19,0 81.82,36.63 81.82,81.82 l 0,47.74 -170.95,0 -34.33,-40.92 41.63,0 0,-6.82 c 0,-45.19 36.63,-81.82 81.83,-81.82"
             inkscape:connector-curvature="0"
             id="path130"
             style="fill:#231f20;fill-opacity:1;fill-rule:nonzero;stroke:none" /><path
             d="m 1388.6,5378.21 16.22,44.56 -222.53,31.27 35.36,-75.83 170.95,0"
             inkscape:connector-curvature="0"
             id="path132"
             style="fill:#231f20;fill-opacity:1;fill-rule:nonzero;stroke:none" /><path
             d="m 808.578,4805.42 c 0,-23.97 19.43,-43.39 43.395,-43.39 l 235.557,0 c 23.97,0 43.4,19.42 43.4,43.39 l 0,49.59 -322.352,0 0,-49.59"
             inkscape:connector-curvature="0"
             id="path134"
             style="fill:#231f20;fill-opacity:1;fill-rule:nonzero;stroke:none" /><path
             d="m 758.988,5177.36 c -23.965,0 -43.39,-19.43 -43.39,-43.4 l 0,-235.56 c 0,-23.96 19.425,-43.39 43.39,-43.39 l 49.59,0 0,322.35 -49.59,0"
             inkscape:connector-curvature="0"
             id="path136"
             style="fill:#231f20;fill-opacity:1;fill-rule:nonzero;stroke:none" /><path
             d="m 2130.68,4607.01 c -34.24,0 -62.01,27.76 -62.01,62.01 l 0,868.19 c 0,34.25 27.77,62.02 62.01,62.02 l 868.19,0 c 34.25,0 62.01,-27.77 62.01,-62.02 l 0,-868.19 c 0,-34.25 -27.76,-62.01 -62.01,-62.01 l -868.19,0 z"
             inkscape:connector-curvature="0"
             id="path138"
             style="fill:none;stroke:#231f20;stroke-width:2;stroke-linecap:butt;stroke-linejoin:miter;stroke-miterlimit:4;stroke-opacity:1;stroke-dasharray:none" /><path
             d="m 2658.95,5233.33 c 45.21,0 81.85,36.64 81.85,81.85 l 0,47.75 -171,0 -34.34,-40.93 41.64,0 0,-6.82 c 0,-45.21 36.65,-81.85 81.85,-81.85"
             inkscape:connector-curvature="0"
             id="path140"
             style="fill:#231f20;fill-opacity:1;fill-rule:nonzero;stroke:none" /><path
             d="m 2740.8,5383.39 16.23,44.58 -222.6,31.28 35.37,-75.86 171,0"
             inkscape:connector-curvature="0"
             id="path142"
             style="fill:#231f20;fill-opacity:1;fill-rule:nonzero;stroke:none" /><path
             d="m 2797.63,5189.5 c -27.48,7.59 -55.88,12.98 -84.98,15.96 l -53.46,-91.49 -53.45,91.48 c -29.24,-2.98 -57.76,-8.38 -85.35,-16.06 -7.59,-2.14 -15.13,-4.31 -22.57,-6.78 -4.68,-1.55 -8.71,-4.54 -11.67,-8.37 l -77.34,-100.03 -142.02,81.99 0,-88.79 112.71,-81.08 c 11.21,-8.08 24.95,-12.86 39.83,-12.86 18.83,0 35.86,7.66 48.2,20 l 50.21,50.21 0,-281.61 326.08,0 28,320.14 c 4.2,48 -26.1,93.77 -74.19,107.29"
             inkscape:connector-curvature="0"
             id="path144"
             style="fill:#231f20;fill-opacity:1;fill-rule:nonzero;stroke:none" /><path
             d="m 2367.48,5197.57 -46.84,0 0,-52.01 -89.58,52.01 0,176.72 136.42,0 0,-176.72 z m -99.04,155.02 52.2,-30.32 0,-103 25.13,0 0,133.32 -77.33,0"
             inkscape:connector-curvature="0"
             id="path146"
             style="fill:#231f20;fill-opacity:1;fill-rule:nonzero;stroke:none" /><g
             transform="scale(10,10)"
             id="g148"><text
               transform="matrix(1,0,0,-1,213.034,438.024)"
               id="text150"><tspan
                 x="0 2.2261701 8.3371687 14.44807 16.282051 20.45393 23.064928 27.237129 29.462915 31.2969 35.468899 39.6409 41.867199 44.092983 46.31916 52.044945 56.217201 60.389198 63.000198 67.172195 71.344193 73.569901 75.403877 79.575882 83.747879 85.974182 88.199966 90.42614 92.651924 96.824196 100.60389 104.77618 108.94818 112.72818 114.95388 116.78708 120.95908"
                 y="0"
                 id="tspan152"
                 style="font-size:7px;font-variant:normal;font-weight:normal;writing-mode:lr-tb;fill:#231f20;fill-opacity:1;fill-rule:nonzero;stroke:none;font-family:Helvetica;-inkscape-font-specification:Helvetica">Immigration / Quarantine / Inspection</tspan></text>
</g><path
             d="m 135.414,7957.88 127.047,0 0,-119.22 -127.047,0 0,119.22 z m 92.352,-85.92 -35.965,0 c 8.258,13.86 34.562,17.63 34.562,41 0,16.79 -11.476,26.17 -27.425,26.17 -18.887,0 -27.844,-11.9 -27.844,-29.11 l 15.39,0 c 0,10.08 4.899,16.23 11.895,16.23 4.758,0 11.754,-2.79 11.754,-13.01 0,-5.04 -1.957,-8.81 -6.156,-12.31 l -24.911,-21.41 c -6.714,-5.74 -8.254,-13.99 -8.254,-21.27 l 56.954,0 0,13.71"
             inkscape:connector-curvature="0"
             id="path154"
             style="fill:#231f20;fill-opacity:1;fill-rule:nonzero;stroke:none" /><path
             d="M 4818.9,7795.7 0,7795.7"
             inkscape:connector-curvature="0"
             id="path156"
             style="fill:none;stroke:#231f20;stroke-width:2;stroke-linecap:butt;stroke-linejoin:miter;stroke-miterlimit:4;stroke-opacity:1;stroke-dasharray:none" /><g
             transform="scale(10,10)"
             id="g158"><text
               transform="matrix(1,0,0,-1,43.9371,785.547)"
               id="text160"><tspan
                 x="0 12 24 36 48"
                 y="0"
                 id="tspan162"
                 style="font-size:12px;font-variant:normal;writing-mode:lr-tb;fill:#231f20;fill-opacity:1;fill-rule:nonzero;stroke:none;font-family:TakaoPGothic;-inkscape-font-specification:TakaoPGothic-90ms-RKSJ-H">交通施設 </tspan></text>
<text
               transform="matrix(1,0,0,-1,103.9371,785.547)"
               id="text164"><tspan
                 x="0 7.8117199 12.287731 19.439819 26.591776 33.071854 40.223808 47.375763 51.851921 55.667915 59.483952 67.296066 74.448021 80.92775 84.071747 87.215744 90.359001 94.175018 97.318764 104.47112"
                 y="0"
                 id="tspan166"
                 style="font-size:12px;font-variant:normal;font-weight:normal;writing-mode:lr-tb;fill:#231f20;fill-opacity:1;fill-rule:nonzero;stroke:none;font-family:Helvetica;-inkscape-font-specification:Helvetica">Transport Facilities</tspan><tspan
                 x="-93.838997"
                 y="34.4398"
                 id="tspan168"
                 style="font-size:12px;font-variant:normal;font-weight:normal;writing-mode:lr-tb;fill:#231f20;fill-opacity:1;fill-rule:nonzero;stroke:none;font-family:Helvetica;-inkscape-font-specification:Helvetica">B</tspan></text>
</g><path
             d="m 311.414,510.82 0,7256.7"
             inkscape:connector-curvature="0"
             id="path170"
             style="fill:none;stroke:#231f20;stroke-width:2;stroke-linecap:butt;stroke-linejoin:miter;stroke-miterlimit:4;stroke-opacity:1;stroke-dasharray:none" /><g
             transform="scale(10,10)"
             id="g172"><text
               transform="matrix(1,0,0,-1,2.09648,764.851)"
               id="text174"><tspan
                 x="0 8 16"
                 y="0"
                 id="tspan176"
                 style="font-size:8px;font-variant:normal;writing-mode:lr-tb;fill:#231f20;fill-opacity:1;fill-rule:nonzero;stroke:none;font-family:TakaoPGothic;-inkscape-font-specification:TakaoPGothic-90ms-RKSJ-H">推奨度</tspan></text>
</g></g></g></g></g></svg>