<?xml version="1.0" encoding="UTF-8" standalone="no"?>
<!-- Created with Inkscape (http://www.inkscape.org/) -->

<svg
   xmlns:dc="http://purl.org/dc/elements/1.1/"
   xmlns:cc="http://creativecommons.org/ns#"
   xmlns:rdf="http://www.w3.org/1999/02/22-rdf-syntax-ns#"
   xmlns:svg="http://www.w3.org/2000/svg"
   xmlns="http://www.w3.org/2000/svg"
   xmlns:inkscape="http://www.inkscape.org/namespaces/inkscape"
   version="1.1"
   width="765"
   height="990"
   id="svg2"
   xml:space="preserve"><metadata
     id="metadata8"><rdf:RDF><cc:Work
         rdf:about=""><dc:format>image/svg+xml</dc:format><dc:type
           rdf:resource="http://purl.org/dc/dcmitype/StillImage" /></cc:Work></rdf:RDF></metadata><defs
     id="defs6"><clipPath
       id="clipPath18"><path
         d="m 0,0 4899.79,0 0,7920 L 0,7920 0,0 z"
         inkscape:connector-curvature="0"
         id="path20" /></clipPath></defs><g
     transform="matrix(1.25,0,0,-1.25,0,990)"
     id="g10"><g
       transform="scale(0.1,0.1)"
       id="g12"><g
         id="g14"><g
           clip-path="url(#clipPath18)"
           id="g16"><g
             transform="scale(10,10)"
             id="g22"><text
               transform="matrix(1,0,0,-1,10.0977,751.475)"
               id="text24"><tspan
                 x="0"
                 y="0"
                 id="tspan26"
                 style="font-size:12px;font-variant:normal;font-weight:normal;writing-mode:lr-tb;fill:#231f20;fill-opacity:1;fill-rule:nonzero;stroke:none;font-family:Helvetica;-inkscape-font-specification:Helvetica">A</tspan></text>
<text
               transform="matrix(1,0,0,-1,43.9372,785.5055)"
               id="text28"><tspan
                 x="0 12 21 29.880083 41.880085 53.880085 65.880081 77.880081"
                 y="0"
                 id="tspan30"
                 style="font-size:12px;font-variant:normal;writing-mode:lr-tb;fill:#231f20;fill-opacity:1;fill-rule:nonzero;stroke:none;font-family:TakaoPGothic;-inkscape-font-specification:TakaoPGothic-90ms-RKSJ-H">公共・一般施設 </tspan></text>
<text
               transform="matrix(1,0,0,-1,133.8173,785.5055)"
               id="text32"><tspan
                 x="0 8.4839964 15.635992 22.787989 25.931984 29.075979 35.555977 39.371971 47.183968 54.335964 60.81596 63.959957 67.103951 70.247948 74.063942 77.207939 84.35994"
                 y="0"
                 id="tspan34"
                 style="font-size:12px;font-variant:normal;font-weight:normal;writing-mode:lr-tb;fill:#231f20;fill-opacity:1;fill-rule:nonzero;stroke:none;font-family:Helvetica;-inkscape-font-specification:Helvetica">Public Facilities</tspan></text>
</g><path
             d="m 135.41,7957.46 127.051,0 0,-119.22 -127.051,0 0,119.22 z m 73.598,-19.6 -13.57,0 c -2.661,-12.31 -11.333,-14.54 -22.387,-14.82 l 0,-10.36 19.726,0 0,-54.85 16.231,0 0,80.03"
             inkscape:connector-curvature="0"
             id="path36"
             style="fill:#231f20;fill-opacity:1;fill-rule:nonzero;stroke:none" /><path
             d="M 4818.9,7795.27 0,7795.27"
             inkscape:connector-curvature="0"
             id="path38"
             style="fill:none;stroke:#231f20;stroke-width:2;stroke-linecap:butt;stroke-linejoin:miter;stroke-miterlimit:4;stroke-opacity:1;stroke-dasharray:none" /><path
             d="m 311.812,510.23 0,7256.7"
             inkscape:connector-curvature="0"
             id="path40"
             style="fill:none;stroke:#231f20;stroke-width:2;stroke-linecap:butt;stroke-linejoin:miter;stroke-miterlimit:4;stroke-opacity:1;stroke-dasharray:none" /><g
             transform="scale(10,10)"
             id="g42"><text
               transform="matrix(1,0,0,-1,444.75,785.505)"
               id="text44"><tspan
                 x="0 6.6719999 13.344"
                 y="0"
                 id="tspan46"
                 style="font-size:12px;font-variant:normal;font-weight:normal;writing-mode:lr-tb;fill:#231f20;fill-opacity:1;fill-rule:nonzero;stroke:none;font-family:Helvetica;-inkscape-font-specification:Helvetica">38 </tspan></text>
<text
               transform="matrix(1,0,0,-1,461.4301,785.505)"
               id="text48"><tspan
                 x="0 10.230078"
                 y="0"
                 id="tspan50"
                 style="font-size:11px;font-variant:normal;writing-mode:lr-tb;fill:#231f20;fill-opacity:1;fill-rule:nonzero;stroke:none;font-family:TakaoPGothic;-inkscape-font-specification:TakaoPGothic-90ms-RKSJ-H">項目</tspan></text>
<text
               transform="matrix(1,0,0,-1,68.6181,636.416)"
               id="text52"><tspan
                 x="0 7 14 144.528 151.528 157.68893 163.63708 169.86874 176.23817 289.05786 296.05786"
                 y="0"
                 id="tspan54"
                 style="font-size:7px;font-variant:normal;writing-mode:lr-tb;fill:#231f20;fill-opacity:1;fill-rule:nonzero;stroke:none;font-family:TakaoPGothic;-inkscape-font-specification:TakaoPGothic-90ms-RKSJ-H">案内所情報コーナー病院</tspan><tspan
                 x="0 7 14 144.528 151.528 288.707 295.49576 302.49576"
                 y="189.92101"
                 id="tspan56"
                 style="font-size:7px;font-variant:normal;writing-mode:lr-tb;fill:#231f20;fill-opacity:1;fill-rule:nonzero;stroke:none;font-family:TakaoPGothic;-inkscape-font-specification:TakaoPGothic-90ms-RKSJ-H">救護所警察お手洗</tspan><tspan
                 x="0 7 144.528 151.528 288.91699 295.84668 302.84668 309.84668 316.84668 323.84668"
                 y="379.84201"
                 id="tspan58"
                 style="font-size:7px;font-variant:normal;writing-mode:lr-tb;fill:#231f20;fill-opacity:1;fill-rule:nonzero;stroke:none;font-family:TakaoPGothic;-inkscape-font-specification:TakaoPGothic-90ms-RKSJ-H">男子女子身障者用設備</tspan><tspan
                 x="0 7 14 20.439844 26.320606 32.41127 38.291367 144.49046 151.49046 158.49046"
                 y="569.763"
                 id="tspan60"
                 style="font-size:7px;font-variant:normal;writing-mode:lr-tb;fill:#231f20;fill-opacity:1;fill-rule:nonzero;stroke:none;font-family:TakaoPGothic;-inkscape-font-specification:TakaoPGothic-90ms-RKSJ-H">車椅子スロープ飲料水</tspan></text>
<text
               transform="matrix(1,0,0,-1,68.6181,627.912)"
               id="text62"><tspan
                 x="0 5.72578 9.8977795 14.069778 17.849777 20.075775 21.909775 26.081774 30.253481 32.479649 37.428478 39.65448 43.82653 47.998791 51.778481 57.112461 61.284721 144.52802 146.7538 150.92609 153.15154 157.32353 159.93472 166.04567 170.21767 172.44366 174.27766 178.44966 289.05667 294.39066 298.56253 302.34262 306.51486 308.34888 310.57486 314.74686"
                 y="0"
                 id="tspan64"
                 style="font-size:7px;font-variant:normal;font-weight:normal;writing-mode:lr-tb;fill:#231f20;fill-opacity:1;fill-rule:nonzero;stroke:none;font-family:Helvetica;-inkscape-font-specification:Helvetica">Question &amp; answerInformationHospital</tspan><tspan
                 x="-0.00013 4.556869 6.3904901 9.0014296 12.781429 15.007428 17.233427 21.405426 23.23933 144.52733 149.47617 153.64842 155.48242 157.31642 161.09642 289.05643 293.61346 297.78534 299.61932 301.45334 305.62534 307.85132"
                 y="189.92"
                 id="tspan66"
                 style="font-size:7px;font-variant:normal;font-weight:normal;writing-mode:lr-tb;fill:#231f20;fill-opacity:1;fill-rule:nonzero;stroke:none;font-family:Helvetica;-inkscape-font-specification:Helvetica">First aidPoliceToilets</tspan><tspan
                 x="-0.00066999998 6.1102676 10.282145 144.52733 151.41521 155.5871 161.69843 165.8703 289.05634 294.00516 297.78516 301.56516 305.73715 309.51715 313.29715 315.13116 319.30316 321.13715 325.30914 327.53525 329.76144 333.93344 337.71344 339.54742 341.38144 343.21542 345.44153"
                 y="379.84201"
                 id="tspan68"
                 style="font-size:7px;font-variant:normal;font-weight:normal;writing-mode:lr-tb;fill:#231f20;fill-opacity:1;fill-rule:nonzero;stroke:none;font-family:Helvetica;-inkscape-font-specification:Helvetica">MenWomenAccessible facility</tspan><tspan
                 x="-0.00047 4.94836 8.7283592 12.508358 16.680357 20.460356 24.240355 26.074354 30.246353 32.080353 36.25235 38.478352 42.25835 44.09206 48.26432 52.436192"
                 y="569.763"
                 id="tspan70"
                 style="font-size:7px;font-variant:normal;font-weight:normal;writing-mode:lr-tb;fill:#231f20;fill-opacity:1;fill-rule:nonzero;stroke:none;font-family:Helvetica;-inkscape-font-specification:Helvetica">Accessible slope</tspan></text>
</g><path
             d="M 4818.9,340.16 4818.9,0"
             inkscape:connector-curvature="0"
             id="path72"
             style="fill:none;stroke:#231f20;stroke-width:2;stroke-linecap:butt;stroke-linejoin:miter;stroke-miterlimit:4;stroke-opacity:1;stroke-dasharray:none" /><g
             transform="scale(10,10)"
             id="g74"><text
               transform="matrix(1,0,0,-1,213.108,58.1492)"
               id="text76"><tspan
                 x="0 5.3339806 7.944912 9.7788925 13.950775 17.730854 19.564835 23.736717 27.908991 30.134775 35.4688 39.6408 41.866798 46.0387"
                 y="0"
                 id="tspan78"
                 style="font-size:7px;font-variant:normal;font-weight:normal;writing-mode:lr-tb;fill:#231f20;fill-opacity:1;fill-rule:nonzero;stroke:none;font-family:Helvetica;-inkscape-font-specification:Helvetica">Drinking water</tspan></text>
<text
               transform="matrix(1,0,0,-1,483.3067,29.764)"
               id="text80"><tspan
                 x="0 3.336"
                 y="0"
                 id="tspan82"
                 style="font-size:6px;font-variant:normal;font-weight:normal;writing-mode:lr-tb;fill:#231f20;fill-opacity:1;fill-rule:nonzero;stroke:none;font-family:Helvetica;-inkscape-font-specification:Helvetica">06</tspan></text>
<text
               transform="matrix(1,0,0,-1,443.4489,262.236)"
               id="text84"><tspan
                 x="0"
                 y="0"
                 id="tspan86"
                 style="font-size:7px;font-variant:normal;writing-mode:lr-tb;fill:#231f20;fill-opacity:1;fill-rule:nonzero;stroke:none;font-family:TakaoPGothic;-inkscape-font-specification:TakaoPGothic-90ms-RKSJ-H">※</tspan></text>
</g><path
             d="m 3576.75,2707.47 c -34.2,0 -61.93,27.73 -61.93,61.93 l 0,866.99 c 0,34.2 27.73,61.92 61.93,61.92 l 866.99,0 c 34.2,0 61.93,-27.72 61.93,-61.92 l 0,-866.99 c 0,-34.2 -27.73,-61.93 -61.93,-61.93 l -866.99,0 z"
             inkscape:connector-curvature="0"
             id="path88"
             style="fill:none;stroke:#231f20;stroke-width:2;stroke-linecap:butt;stroke-linejoin:miter;stroke-miterlimit:4;stroke-opacity:1;stroke-dasharray:none" /><path
             d="m 4182.27,2965.34 c -39.69,-88.07 -127.76,-148.85 -229.47,-148.85 -137.68,0 -250.56,111.63 -250.56,250.56 0,99.23 58.3,184.81 142.65,225.75 l 4.96,-57.06 c -57.06,-34.73 -95.52,-96.75 -95.52,-168.69 0,-109.16 89.31,-198.46 198.47,-198.46 101.71,0 184.82,75.66 197.22,172.41 l 32.25,-75.66 z m -269.17,496.15 14.89,-161.25 163.73,0 0,-52.09 -160.01,0 4.96,-48.38 230.72,0 104.19,-245.59 88.07,37.2 18.61,-42.16 -131.49,-57.06 -109.15,255.51 -249.32,0 -29.77,347.31 c -4.97,8.69 -7.45,18.61 -7.45,28.54 0,34.72 27.29,63.25 62.02,63.25 34.73,0 63.27,-28.53 63.27,-63.25 0,-33.5 -28.54,-62.03 -63.27,-62.03"
             inkscape:connector-curvature="0"
             id="path90"
             style="fill:#231f20;fill-opacity:1;fill-rule:nonzero;stroke:none" /><path
             d="m 686.184,808.262 c -34.204,0 -61.93,27.73 -61.93,61.929 l 0,866.989 c 0,34.2 27.726,61.93 61.93,61.93 l 866.986,0 c 34.2,0 61.93,-27.73 61.93,-61.93 l 0,-866.989 c 0,-34.199 -27.73,-61.929 -61.93,-61.929 l -866.986,0 z"
             inkscape:connector-curvature="0"
             id="path92"
             style="fill:none;stroke:#231f20;stroke-width:2;stroke-linecap:butt;stroke-linejoin:miter;stroke-miterlimit:4;stroke-opacity:1;stroke-dasharray:none" /><path
             d="m 1239.51,1130.31 c -38.43,-85.26 -123.68,-144.091 -222.14,-144.091 -133.284,0 -242.546,108.071 -242.546,242.551 0,96.06 56.43,178.9 138.09,218.53 l 4.789,-55.23 c -55.223,-33.62 -92.453,-93.65 -92.453,-163.3 0,-105.66 86.449,-192.11 192.12,-192.11 98.46,0 178.9,73.24 190.91,166.9 l 31.23,-73.25 z m -260.572,480.28 14.417,-156.08 158.505,0 0,-50.43 -154.903,0 4.803,-46.83 223.34,0 100.85,-237.74 85.26,36.02 17.99,-40.82 -127.27,-55.24 -105.66,247.35 -241.332,0 -28.809,336.2 c -4.813,8.41 -7.223,18 -7.223,27.61 0,33.62 26.41,61.24 60.032,61.24 33.632,0 61.252,-27.62 61.252,-61.24 0,-32.41 -27.62,-60.04 -61.252,-60.04"
             inkscape:connector-curvature="0"
             id="path94"
             style="fill:#231f20;fill-opacity:1;fill-rule:nonzero;stroke:none" /><path
             d="m 681.738,866.762 861.962,0 0,192.708 -861.962,-192.708"
             inkscape:connector-curvature="0"
             id="path96"
             style="fill:#231f20;fill-opacity:1;fill-rule:nonzero;stroke:none" /><path
             d="m 2131.46,2707.47 c -34.24,0 -62.01,27.77 -62.01,62.02 l 0,868.24 c 0,34.26 27.77,62.02 62.01,62.02 l 868.25,0 c 34.25,0 62.02,-27.76 62.02,-62.02 l 0,-868.24 c 0,-34.25 -27.77,-62.02 -62.02,-62.02 l -868.25,0 z"
             inkscape:connector-curvature="0"
             id="path98"
             style="fill:none;stroke:#231f20;stroke-width:2;stroke-linecap:butt;stroke-linejoin:miter;stroke-miterlimit:4;stroke-opacity:1;stroke-dasharray:none" /><path
             d="m 2565.71,3501.3 c 34.23,0 61.98,27.75 61.98,61.98 0,34.22 -27.75,61.97 -61.98,61.97 -34.23,0 -61.97,-27.75 -61.97,-61.97 0,-34.23 27.74,-61.98 61.97,-61.98"
             inkscape:connector-curvature="0"
             id="path100"
             style="fill:#231f20;fill-opacity:1;fill-rule:nonzero;stroke:none" /><path
             d="m 2650.97,3371.15 48.15,-179.74 46.49,0 -37.48,212.59 c -5.79,32.7 -30.16,60.63 -64.46,69.16 -24.97,6.2 -51.07,9.54 -77.96,9.54 -26.88,0 -52.99,-3.34 -77.95,-9.54 -34.3,-8.53 -58.67,-36.46 -64.45,-69.16 l -37.48,-212.59 46.48,0 48.15,179.74 19.36,-72.26 c -44.48,-66.14 -70.45,-145.75 -70.45,-231.44 l 80.8,0 24.38,-278.69 62.33,0 24.38,278.69 80.81,0 c 0,85.7 -25.98,165.32 -70.46,231.45 l 19.36,72.25"
             inkscape:connector-curvature="0"
             id="path102"
             style="fill:#231f20;fill-opacity:1;fill-rule:nonzero;stroke:none" /><path
             d="m 3576.75,6505.9 c -34.24,0 -61.99,27.75 -61.99,61.99 l 0,867.93 c 0,34.24 27.75,62 61.99,62 l 867.93,0 c 34.24,0 62,-27.76 62,-62 l 0,-867.93 c 0,-34.24 -27.76,-61.99 -62,-61.99 l -867.93,0 z"
             inkscape:connector-curvature="0"
             id="path104"
             style="fill:none;stroke:#231f20;stroke-width:2;stroke-linecap:butt;stroke-linejoin:miter;stroke-miterlimit:4;stroke-opacity:1;stroke-dasharray:none" /><path
             d="m 4413.68,7141.34 0,-371.97 -805.93,0 0,371.97 c 78.39,12.73 158.01,21.77 238.68,26.98 l 0,116.32 164.31,59.8 164.26,-59.79 0,-116.65 c 78.96,-5.25 156.89,-14.2 233.66,-26.66 l 5.02,0 z m -356.47,-108.49 0,92.99 -92.99,0 0,-92.99 -92.99,0 0,-92.99 92.99,0 0,-92.99 92.99,0 0,92.99 93,0 0,92.99 -93,0"
             inkscape:connector-curvature="0"
             id="path106"
             style="fill:#231f20;fill-opacity:1;fill-rule:nonzero;stroke:none" /><path
             d="m 2655.19,6663.46 0,454.36 -254.09,0 0,-49.62 74.39,0 0,-404.74 -74.39,0 0,-49.62 328.48,0 0,49.62 -74.39,0"
             inkscape:connector-curvature="0"
             id="path108"
             style="fill:#231f20;fill-opacity:1;fill-rule:nonzero;stroke:none" /><path
             d="m 2565.34,7169.2 c 61.63,0 111.59,49.96 111.59,111.6 0,61.62 -49.96,111.58 -111.59,111.58 -61.63,0 -111.59,-49.96 -111.59,-111.58 0,-61.64 49.96,-111.6 111.59,-111.6"
             inkscape:connector-curvature="0"
             id="path110"
             style="fill:#231f20;fill-opacity:1;fill-rule:nonzero;stroke:none" /><path
             d="m 2565.35,6473.14 c 291.03,0 526.96,235.93 526.96,526.96 0,291.02 -235.93,526.95 -526.96,526.95 -291.02,0 -526.95,-235.93 -526.95,-526.95 0,-291.03 235.93,-526.96 526.95,-526.96 z"
             inkscape:connector-curvature="0"
             id="path112"
             style="fill:none;stroke:#231f20;stroke-width:2;stroke-linecap:butt;stroke-linejoin:miter;stroke-miterlimit:4;stroke-opacity:1;stroke-dasharray:none" /><path
             d="m 1120.07,6474.74 c 291.02,0 526.96,235.93 526.96,526.95 0,291.03 -235.94,526.96 -526.96,526.96 -291.027,0 -526.961,-235.93 -526.961,-526.96 0,-291.02 235.934,-526.95 526.961,-526.95 z"
             inkscape:connector-curvature="0"
             id="path114"
             style="fill:none;stroke:#231f20;stroke-width:2;stroke-linecap:butt;stroke-linejoin:miter;stroke-miterlimit:4;stroke-opacity:1;stroke-dasharray:none" /><path
             d="m 1120.07,6796.39 c -61.63,0 -111.59,-49.97 -111.59,-111.59 0,-61.63 49.96,-111.59 111.59,-111.59 61.62,0 111.59,49.96 111.59,111.59 0,61.62 -49.97,111.59 -111.59,111.59"
             inkscape:connector-curvature="0"
             id="path116"
             style="fill:#231f20;fill-opacity:1;fill-rule:nonzero;stroke:none" /><path
             d="m 1138.51,7391.74 c -65.9,0 -184.916,-14.75 -254.744,-111.14 -38.36,-52.13 -42.297,-97.37 -45.246,-136.71 l 172.69,0 c 11.03,55.62 40.86,101.3 119.42,101.3 23.61,0 99.35,-3.93 99.35,-61.96 0,-42.29 -39.35,-71.8 -116.06,-132.78 -60.99,-48.2 -79.67,-89.51 -79.67,-144.58 l 0,-57.05 159.33,0 0,18.69 c 0,59.01 24.59,82.62 94.43,135.73 91.47,69.83 124.91,114.09 124.91,182.94 0,108.19 -99.34,205.56 -274.41,205.56"
             inkscape:connector-curvature="0"
             id="path118"
             style="fill:#231f20;fill-opacity:1;fill-rule:nonzero;stroke:none" /><path
             d="m 2475.09,5330.63 0,-7.49 c 0,-49.7 40.29,-89.99 89.99,-89.99 49.7,0 89.99,40.29 89.99,89.99 l 0,52.49 -188,0 -37.76,-45 45.78,0"
             inkscape:connector-curvature="0"
             id="path120"
             style="fill:#231f20;fill-opacity:1;fill-rule:nonzero;stroke:none" /><path
             d="m 2428.18,5483.83 38.89,-83.41 188,0 17.84,49.02 -244.73,34.39"
             inkscape:connector-curvature="0"
             id="path122"
             style="fill:#231f20;fill-opacity:1;fill-rule:nonzero;stroke:none" /><path
             d="m 2799.09,5072.45 -27.81,-317.91 -63.15,0 -1.19,-34.06 -283.77,0 -1.19,34.06 -63.15,0 -27.81,317.91 c -4.61,52.78 28.53,103.23 81.41,118.09 30.34,8.45 61.71,14.44 93.87,17.76 l 58.75,-100.56 58.8,100.62 c 32.01,-3.27 63.24,-9.2 93.46,-17.56 52.88,-14.86 86.4,-65.57 81.78,-118.35 z M 2496.91,4887.5 c 0,9.42 -7.63,17.05 -17.04,17.05 l -57.95,0 c -7.53,0 -13.63,-6.11 -13.63,-13.64 0,-1.99 0.44,-3.88 1.21,-5.59 l 54.84,-121.87 c 2.67,-5.92 8.61,-10.05 15.53,-10.05 9.41,0 17.04,7.63 17.04,17.04 l 0,117.06 z m 16.37,-30.68 0,-40.9 197,0 1.43,40.9 -198.43,0"
             inkscape:connector-curvature="0"
             id="path124"
             style="fill:#231f20;fill-opacity:1;fill-rule:nonzero;stroke:none" /><path
             d="m 2131.46,4606.68 c -34.22,0 -61.97,27.75 -61.97,61.99 l 0,867.74 c 0,34.22 27.75,61.98 61.97,61.98 l 867.74,0 c 34.24,0 61.99,-27.76 61.99,-61.98 l 0,-867.74 c 0,-34.24 -27.75,-61.99 -61.99,-61.99 l -867.74,0 z"
             inkscape:connector-curvature="0"
             id="path126"
             style="fill:none;stroke:#231f20;stroke-width:2;stroke-linecap:butt;stroke-linejoin:miter;stroke-miterlimit:4;stroke-opacity:1;stroke-dasharray:none" /><path
             d="m 685.59,2707.47 c -34.246,0 -62.016,27.77 -62.016,62.02 l 0,868.24 c 0,34.26 27.77,62.02 62.016,62.02 l 868.25,0 c 34.25,0 62.01,-27.76 62.01,-62.02 l 0,-868.24 c 0,-34.25 -27.76,-62.02 -62.01,-62.02 l -868.25,0 z"
             inkscape:connector-curvature="0"
             id="path128"
             style="fill:none;stroke:#231f20;stroke-width:2;stroke-linecap:butt;stroke-linejoin:miter;stroke-miterlimit:4;stroke-opacity:1;stroke-dasharray:none" /><path
             d="m 1119.41,3504.41 c 34.24,0 62,27.75 62,62 0,34.23 -27.76,61.99 -62,61.99 -34.23,0 -61.99,-27.76 -61.99,-61.99 0,-34.25 27.76,-62 61.99,-62"
             inkscape:connector-curvature="0"
             id="path130"
             style="fill:#231f20;fill-opacity:1;fill-rule:nonzero;stroke:none" /><path
             d="m 1212.49,3477.28 c -30.18,5.58 -61.28,8.53 -93.08,8.53 -31.79,0 -62.89,-2.95 -93.07,-8.53 -51.07,-9.45 -86.11,-55.42 -83.402,-105.91 l 11.519,-214.06 50.273,0 0,204.59 15.49,0 0,-570.36 68.2,0 24.79,353.38 12.41,0 24.79,-353.38 68.2,0 0,570.36 15.5,0 0,-204.59 50.26,0 11.52,214.06 c 2.71,50.49 -32.33,96.46 -83.4,105.91"
             inkscape:connector-curvature="0"
             id="path132"
             style="fill:#231f20;fill-opacity:1;fill-rule:nonzero;stroke:none" /><path
             d="m 3576.74,4606.68 c -34.23,0 -61.97,27.75 -61.97,61.98 l 0,867.61 c 0,34.23 27.74,61.98 61.97,61.98 l 867.62,0 c 34.22,0 61.97,-27.75 61.97,-61.98 l 0,-867.61 c 0,-34.23 -27.75,-61.98 -61.97,-61.98 l -867.62,0 z"
             inkscape:connector-curvature="0"
             id="path134"
             style="fill:none;stroke:#231f20;stroke-width:2;stroke-linecap:butt;stroke-linejoin:miter;stroke-miterlimit:4;stroke-opacity:1;stroke-dasharray:none" /><path
             d="m 3767.01,5352.08 c 28.69,0 51.95,23.26 51.95,51.95 0,28.68 -23.26,51.94 -51.95,51.94 -28.69,0 -51.95,-23.26 -51.95,-51.94 0,-28.69 23.26,-51.95 51.95,-51.95"
             inkscape:connector-curvature="0"
             id="path136"
             style="fill:#231f20;fill-opacity:1;fill-rule:nonzero;stroke:none" /><path
             d="m 4252.64,5352.36 c 28.69,0 51.96,23.26 51.96,51.96 0,28.7 -23.27,51.96 -51.96,51.96 -28.69,0 -51.96,-23.26 -51.96,-51.96 0,-28.7 23.27,-51.96 51.96,-51.96"
             inkscape:connector-curvature="0"
             id="path138"
             style="fill:#231f20;fill-opacity:1;fill-rule:nonzero;stroke:none" /><path
             d="m 4330.65,5329.62 c -25.29,4.68 -51.36,7.15 -78.01,7.15 -26.65,0 -52.72,-2.47 -78.01,-7.15 -42.8,-7.92 -72.17,-46.45 -69.9,-88.77 l 9.65,-179.4 42.13,0 0,171.47 12.99,0 0,-478.03 57.16,0 20.78,296.17 10.4,0 20.78,-296.17 57.16,0 0,478.03 12.98,0 0,-171.47 42.13,0 9.66,179.4 c 2.27,42.32 -27.1,80.85 -69.9,88.77"
             inkscape:connector-curvature="0"
             id="path140"
             style="fill:#231f20;fill-opacity:1;fill-rule:nonzero;stroke:none" /><path
             d="m 3878.82,5092.36 38.96,0 -31.41,178.18 c -4.85,27.4 -25.27,50.81 -54.03,57.96 -20.92,5.2 -42.8,8 -65.33,8 -22.53,0 -44.41,-2.8 -65.34,-8 -28.75,-7.15 -49.17,-30.56 -54.02,-57.96 l -31.41,-178.18 38.96,0 40.36,150.64 16.22,-60.56 c -37.28,-55.43 -59.05,-122.15 -59.05,-193.97 l 67.72,0 20.44,-233.58 52.24,0 20.43,233.58 67.73,0 c 0,71.82 -21.77,138.55 -59.05,193.98 l 16.22,60.55 40.36,-150.64"
             inkscape:connector-curvature="0"
             id="path142"
             style="fill:#231f20;fill-opacity:1;fill-rule:nonzero;stroke:none" /><path
             d="m 3985.76,4754.89 49.5781,0 0,696.68 -49.5781,0 0,-696.68 z"
             inkscape:connector-curvature="0"
             id="path144"
             style="fill:#231f20;fill-opacity:1;fill-rule:nonzero;stroke:none" /><path
             d="m 685.648,4606.68 c -34.246,0 -62.015,27.77 -62.015,62.02 l 0,868.23 c 0,34.26 27.769,62.02 62.015,62.02 l 868.232,0 c 34.25,0 62.02,-27.76 62.02,-62.02 l 0,-868.23 c 0,-34.25 -27.77,-62.02 -62.02,-62.02 l -868.232,0 z"
             inkscape:connector-curvature="0"
             id="path146"
             style="fill:none;stroke:#231f20;stroke-width:2;stroke-linecap:butt;stroke-linejoin:miter;stroke-miterlimit:4;stroke-opacity:1;stroke-dasharray:none" /><path
             d="m 1423.65,5191.81 c -25.63,0 -48.43,-12.13 -62.98,-30.96 l -100.65,-122.93 -0.03,380.57 c 0,26.58 -21.54,48.13 -48.12,48.13 -26.58,0 -48.12,-21.55 -48.12,-48.13 l 0,-258.51 -18.6,-0.03 -0.15,306.82 c -0.04,24.27 -20.26,43.91 -44.52,43.87 -24.27,-0.05 -43.31,-19.75 -43.27,-44.02 l 0.05,-306.67 -18.6,-0.02 0,262.46 c -0.04,24.27 -20.34,43.92 -44.613,43.87 -24.274,-0.04 -43.223,-19.75 -43.18,-44.02 l -0.008,-299 -18.597,-0.03 0.023,191.93 c -0.039,24.27 -20.207,43.91 -44.476,43.86 -24.27,-0.04 -43.407,-19.74 -43.368,-44.02 l -0.226,-341.58 c 0,-104.43 46.668,-198.12 118.539,-262.97 l 282.406,0 224.44,467.32 c -12.92,9.07 -28.97,14.06 -45.95,14.06 z m -182.81,104.47 -48.17,0 48.16,53.34 c 0,-17.02 0,-35.49 0.01,-53.34 z m -57.92,122.21 c 0,7.74 3.01,15.01 8.48,20.48 5.47,5.47 12.74,8.48 20.47,8.48 7.73,0 15.01,-3.01 20.47,-8.48 5.47,-5.47 8.49,-12.74 8.49,-20.48 0,0 0,-12.87 0,-32.25 l -57.91,0 0,32.25 z m 0,-51.42 47.85,0 -47.85,-52.99 0,52.99 z m 22.09,-469.11 -82.83,0 0,-82.83 -82.84,0 0,82.83 -82.832,0 0,82.83 82.832,0 0,82.84 82.84,0 0,-82.84 82.83,0 0,-82.83 z m -22.07,308.36 -0.01,70.79 57.91,0 c 0,0 0.01,-51.41 0.01,-70.79 l -57.91,0"
             inkscape:connector-curvature="0"
             id="path148"
             style="fill:#231f20;fill-opacity:1;fill-rule:nonzero;stroke:none" /><path
             d="m 2628.18,1351 -11.46,-93.36 c -13.53,3.9 -24.55,13.72 -30.05,26.49 l -10.81,0 c -7.18,-16.66 -23.72,-28.34 -43.02,-28.34 -19.3,0 -35.84,11.68 -43.03,28.34 l -10.8,0 c -7.18,-16.66 -23.73,-28.34 -43.02,-28.34 -19.3,0 -35.84,11.68 -43.03,28.34 l -10.8,0 c -5.5,-12.77 -16.53,-22.59 -30.06,-26.49 l -11.46,93.36 -39.97,0 54.8,-446.32 257.88,0 54.8,446.32 -39.97,0 z m -49.93,-406.648 -187.68,0 -35.31,287.558 c 15.84,5.4 28.11,18.51 32.3,34.87 5.53,-21.59 25.12,-37.55 48.43,-37.55 23.31,0 42.89,15.96 48.42,37.55 5.54,-21.59 25.12,-37.55 48.43,-37.55 23.31,0 42.9,15.96 48.42,37.55 4.2,-16.36 16.46,-29.47 32.3,-34.87 l -35.31,-287.558"
             inkscape:connector-curvature="0"
             id="path150"
             style="fill:#231f20;fill-opacity:1;fill-rule:nonzero;stroke:none" /><path
             d="m 2811.58,1577.66 0,46.64 64.69,0 c 3.39,8.68 5.27,18.11 5.27,27.99 0,9.87 -1.87,19.31 -5.26,27.98 l -185.36,0 c -3.39,-8.67 -5.27,-18.1 -5.27,-27.98 0,-9.88 1.89,-19.31 5.28,-27.99 l 64.68,0 0,-46.64 -209.88,0 c -47.67,0 -86.96,-35.76 -92.57,-81.91 l -8.27,-67.34 79.28,0 5.23,42.69 c 2.11,17.31 16.83,30.72 34.7,30.72 4.86,0 9.47,-0.99 13.67,-2.77 l 152.01,-64.53 c 9.23,-3.94 19.4,-6.11 30.07,-6.11 l 135.69,0 0,149.25 -83.96,0"
             inkscape:connector-curvature="0"
             id="path152"
             style="fill:#231f20;fill-opacity:1;fill-rule:nonzero;stroke:none" /><path
             d="m 2131.08,808.262 c -34.23,0 -61.99,27.75 -61.99,61.988 l 0,867.94 c 0,34.24 27.76,61.99 61.99,61.99 l 867.94,0 c 34.24,0 62,-27.75 62,-61.99 l 0,-867.94 c 0,-34.238 -27.76,-61.988 -62,-61.988 l -867.94,0 z"
             inkscape:connector-curvature="0"
             id="path154"
             style="fill:none;stroke:#231f20;stroke-width:2;stroke-linecap:butt;stroke-linejoin:miter;stroke-miterlimit:4;stroke-opacity:1;stroke-dasharray:none" /><g
             transform="scale(10,10)"
             id="g156"><text
               transform="matrix(1,0,0,-1,2.19687,765.218)"
               id="text158"><tspan
                 x="0 8 16"
                 y="0"
                 id="tspan160"
                 style="font-size:8px;font-variant:normal;writing-mode:lr-tb;fill:#231f20;fill-opacity:1;fill-rule:nonzero;stroke:none;font-family:TakaoPGothic;-inkscape-font-specification:TakaoPGothic-90ms-RKSJ-H">推奨度</tspan></text>
</g></g></g></g></g></svg>