<?xml version="1.0" encoding="UTF-8" standalone="no"?>
<!-- Created with Inkscape (http://www.inkscape.org/) -->

<svg
   xmlns:dc="http://purl.org/dc/elements/1.1/"
   xmlns:cc="http://creativecommons.org/ns#"
   xmlns:rdf="http://www.w3.org/1999/02/22-rdf-syntax-ns#"
   xmlns:svg="http://www.w3.org/2000/svg"
   xmlns="http://www.w3.org/2000/svg"
   xmlns:inkscape="http://www.inkscape.org/namespaces/inkscape"
   version="1.1"
   width="765"
   height="990"
   id="svg2"
   xml:space="preserve"><metadata
     id="metadata8"><rdf:RDF><cc:Work
         rdf:about=""><dc:format>image/svg+xml</dc:format><dc:type
           rdf:resource="http://purl.org/dc/dcmitype/StillImage" /></cc:Work></rdf:RDF></metadata><defs
     id="defs6"><clipPath
       id="clipPath18"><path
         d="m 0,0 4899.79,0 0,7920 L 0,7920 0,0 z"
         inkscape:connector-curvature="0"
         id="path20" /></clipPath></defs><g
     transform="matrix(1.25,0,0,-1.25,0,990)"
     id="g10"><g
       transform="scale(0.1,0.1)"
       id="g12"><g
         id="g14"><g
           clip-path="url(#clipPath18)"
           id="g16"><path
             d="M 4818.9,7795.28 0,7795.28"
             inkscape:connector-curvature="0"
             id="path22"
             style="fill:none;stroke:#231f20;stroke-width:2;stroke-linecap:butt;stroke-linejoin:miter;stroke-miterlimit:4;stroke-opacity:1;stroke-dasharray:none" /><path
             d="m 135.41,7957.46 127.051,0 0,-119.22 -127.051,0 0,119.22 z m 92.211,-39.32 c -0.559,12.31 -13.433,20.57 -26.449,20.57 -20.289,0 -33.02,-14.7 -33.02,-41.98 0,-29.39 14.832,-39.74 31.481,-39.74 15.812,0 30.086,10.49 30.086,27.29 0,15.39 -10.774,26.72 -27.567,26.72 -6.293,0 -13.429,-2.1 -17.347,-6.43 l -0.285,0.27 c 1.125,9.52 3.921,21 16.238,21 5.031,0 9.652,-1.83 11.609,-7.7 l 15.254,0 z m -28.266,-19.17 c 8.957,0.14 14.129,-6.02 14.129,-14.56 0,-8.39 -5.172,-14.55 -14.129,-14.55 -8.957,0 -14.128,6.16 -14.128,14.55 0,8.4 5.171,14.56 14.128,14.56"
             inkscape:connector-curvature="0"
             id="path24"
             style="fill:#231f20;fill-opacity:1;fill-rule:nonzero;stroke:none" /><path
             d="M 4818.9,7795.27 0,7795.27"
             inkscape:connector-curvature="0"
             id="path26"
             style="fill:none;stroke:#231f20;stroke-width:2;stroke-linecap:butt;stroke-linejoin:miter;stroke-miterlimit:4;stroke-opacity:1;stroke-dasharray:none" /><path
             d="m 311.812,4025.88 0,3741.05"
             inkscape:connector-curvature="0"
             id="path28"
             style="fill:none;stroke:#231f20;stroke-width:2;stroke-linecap:butt;stroke-linejoin:miter;stroke-miterlimit:4;stroke-opacity:1;stroke-dasharray:none" /><path
             d="M 4818.9,340.16 4818.9,0"
             inkscape:connector-curvature="0"
             id="path30"
             style="fill:none;stroke:#231f20;stroke-width:2;stroke-linecap:butt;stroke-linejoin:miter;stroke-miterlimit:4;stroke-opacity:1;stroke-dasharray:none" /><g
             transform="scale(10,10)"
             id="g32"><text
               transform="matrix(1,0,0,-1,43.9371,785.505)"
               id="text34"><tspan
                 x="0 12 24"
                 y="0"
                 id="tspan36"
                 style="font-size:12px;font-variant:normal;writing-mode:lr-tb;fill:#231f20;fill-opacity:1;fill-rule:nonzero;stroke:none;font-family:TakaoPGothic;-inkscape-font-specification:TakaoPGothic-90ms-RKSJ-H">禁止 </tspan></text>
<text
               transform="matrix(1,0,0,-1,79.9371,785.505)"
               id="text38"><tspan
                 x="0 8.4839964 12.959992 20.111988 27.263985 30.40798 37.559975 40.703972 44.519966 47.663963 54.81596"
                 y="0"
                 id="tspan40"
                 style="font-size:12px;font-variant:normal;font-weight:normal;writing-mode:lr-tb;fill:#231f20;fill-opacity:1;fill-rule:nonzero;stroke:none;font-family:Helvetica;-inkscape-font-specification:Helvetica">Prohibition</tspan></text>
<text
               transform="matrix(1,0,0,-1,483.3071,29.764)"
               id="text42"><tspan
                 x="0 3.336"
                 y="0"
                 id="tspan44"
                 style="font-size:6px;font-variant:normal;font-weight:normal;writing-mode:lr-tb;fill:#231f20;fill-opacity:1;fill-rule:nonzero;stroke:none;font-family:Helvetica;-inkscape-font-specification:Helvetica">17</tspan></text>
<text
               transform="matrix(1,0,0,-1,10.0981,751.475)"
               id="text46"><tspan
                 x="0"
                 y="0"
                 id="tspan48"
                 style="font-size:12px;font-variant:normal;font-weight:normal;writing-mode:lr-tb;fill:#231f20;fill-opacity:1;fill-rule:nonzero;stroke:none;font-family:Helvetica;-inkscape-font-specification:Helvetica">A</tspan></text>
<text
               transform="matrix(1,0,0,-1,1.84654,765.2184)"
               id="text50"><tspan
                 x="0 8 16"
                 y="0"
                 id="tspan52"
                 style="font-size:8px;font-variant:normal;writing-mode:lr-tb;fill:#231f20;fill-opacity:1;fill-rule:nonzero;stroke:none;font-family:TakaoPGothic;-inkscape-font-specification:TakaoPGothic-90ms-RKSJ-H">推奨度</tspan></text>
<text
               transform="matrix(1,0,0,-1,68.62504,636.3574)"
               id="text54"><tspan
                 x="0 7 14 21 28 35 42 49"
                 y="0"
                 id="tspan56"
                 style="font-size:7px;font-variant:normal;writing-mode:lr-tb;fill:#231f20;fill-opacity:1;fill-rule:nonzero;stroke:none;font-family:TakaoPGothic;-inkscape-font-specification:TakaoPGothic-90ms-RKSJ-H">携帯電話使用禁止</tspan></text>
</g><path
             d="m 1252.88,6964.41 c 0,-101.35 -3.09,-201.98 -9.17,-301.8 l -246.542,0 c -6.082,99.82 -9.18,200.45 -9.18,301.8 0,101.4 3.098,202.09 9.184,301.95 l 188.188,0 c 0.68,12.64 1.45,25.23 2.21,37.84 l 0.01,0 c 1.33,22 2.74,44 4.32,65.93 0.84,11.66 10.73,20.8 22.63,20.8 11.9,0 21.79,-9.14 22.63,-20.8 1.58,-21.93 3,-43.93 4.32,-65.93 0.78,-12.61 1.54,-25.2 2.21,-37.84 l 0.01,0 c 6.09,-99.86 9.18,-200.55 9.18,-301.95"
             inkscape:connector-curvature="0"
             id="path58"
             style="fill:#231f20;fill-opacity:1;fill-rule:nonzero;stroke:none" /><g
             transform="scale(10,10)"
             id="g60"><text
               transform="matrix(1,0,0,-1,68.6246,627.853)"
               id="text62"><tspan
                 x="0 5.3339868 9.5058632 11.7316 15.903599 20.075598 22.301598 24.527596 28.699594 32.479595 36.651592 38.87759 44.987919 49.15992 53.331917 55.165916 56.999916 61.171913 63.397915 67.569916 71.741913 75.91391 80.085907 84.257912"
                 y="0"
                 id="tspan64"
                 style="font-size:7px;font-variant:normal;font-weight:normal;writing-mode:lr-tb;fill:#231f20;fill-opacity:1;fill-rule:nonzero;stroke:none;font-family:Helvetica;-inkscape-font-specification:Helvetica">Do not use mobile phones</tspan></text>
</g><path
             d="m 1119.55,6972.77 c -12.54,0 -22.71,-10.16 -22.71,-22.7 0,-12.54 10.17,-22.71 22.71,-22.71 12.54,0 22.71,10.17 22.71,22.71 0,12.54 -10.17,22.7 -22.71,22.7"
             inkscape:connector-curvature="0"
             id="path66"
             style="fill:#ffffff;fill-opacity:1;fill-rule:nonzero;stroke:none" /><path
             d="m 1195.23,6972.77 c -12.53,0 -22.7,-10.16 -22.7,-22.7 0,-12.54 10.17,-22.71 22.7,-22.71 12.54,0 22.71,10.17 22.71,22.71 0,12.54 -10.17,22.7 -22.71,22.7"
             inkscape:connector-curvature="0"
             id="path68"
             style="fill:#ffffff;fill-opacity:1;fill-rule:nonzero;stroke:none" /><path
             d="m 1043.87,6972.77 c -12.54,0 -22.71,-10.16 -22.71,-22.7 0,-12.54 10.17,-22.71 22.71,-22.71 12.54,0 22.7,10.17 22.7,22.71 0,12.54 -10.16,22.7 -22.7,22.7"
             inkscape:connector-curvature="0"
             id="path70"
             style="fill:#ffffff;fill-opacity:1;fill-rule:nonzero;stroke:none" /><path
             d="m 1119.55,6904.66 c -12.54,0 -22.71,-10.17 -22.71,-22.71 0,-12.53 10.17,-22.7 22.71,-22.7 12.54,0 22.71,10.17 22.71,22.7 0,12.54 -10.17,22.71 -22.71,22.71"
             inkscape:connector-curvature="0"
             id="path72"
             style="fill:#ffffff;fill-opacity:1;fill-rule:nonzero;stroke:none" /><path
             d="m 1195.23,6904.66 c -12.53,0 -22.7,-10.17 -22.7,-22.71 0,-12.53 10.17,-22.7 22.7,-22.7 12.54,0 22.71,10.17 22.71,22.7 0,12.54 -10.17,22.71 -22.71,22.71"
             inkscape:connector-curvature="0"
             id="path74"
             style="fill:#ffffff;fill-opacity:1;fill-rule:nonzero;stroke:none" /><path
             d="m 1043.87,6904.66 c -12.54,0 -22.71,-10.17 -22.71,-22.71 0,-12.53 10.17,-22.7 22.71,-22.7 12.54,0 22.7,10.17 22.7,22.7 0,12.54 -10.16,22.71 -22.7,22.71"
             inkscape:connector-curvature="0"
             id="path76"
             style="fill:#ffffff;fill-opacity:1;fill-rule:nonzero;stroke:none" /><path
             d="m 1119.55,6836.54 c -12.54,0 -22.71,-10.16 -22.71,-22.7 0,-12.54 10.17,-22.71 22.71,-22.71 12.54,0 22.71,10.17 22.71,22.71 0,12.54 -10.17,22.7 -22.71,22.7"
             inkscape:connector-curvature="0"
             id="path78"
             style="fill:#ffffff;fill-opacity:1;fill-rule:nonzero;stroke:none" /><path
             d="m 1195.23,6836.54 c -12.53,0 -22.7,-10.16 -22.7,-22.7 0,-12.54 10.17,-22.71 22.7,-22.71 12.54,0 22.71,10.17 22.71,22.71 0,12.54 -10.17,22.7 -22.71,22.7"
             inkscape:connector-curvature="0"
             id="path80"
             style="fill:#ffffff;fill-opacity:1;fill-rule:nonzero;stroke:none" /><path
             d="m 1043.87,6836.54 c -12.54,0 -22.71,-10.16 -22.71,-22.7 0,-12.54 10.17,-22.71 22.71,-22.71 12.54,0 22.7,10.17 22.7,22.71 0,12.54 -10.16,22.7 -22.7,22.7"
             inkscape:connector-curvature="0"
             id="path82"
             style="fill:#ffffff;fill-opacity:1;fill-rule:nonzero;stroke:none" /><path
             d="m 1119.55,6768.43 c -12.54,0 -22.71,-10.17 -22.71,-22.71 0,-12.54 10.17,-22.7 22.71,-22.7 12.54,0 22.71,10.16 22.71,22.7 0,12.54 -10.17,22.71 -22.71,22.71"
             inkscape:connector-curvature="0"
             id="path84"
             style="fill:#ffffff;fill-opacity:1;fill-rule:nonzero;stroke:none" /><path
             d="m 1195.23,6768.43 c -12.53,0 -22.7,-10.17 -22.7,-22.71 0,-12.54 10.17,-22.7 22.7,-22.7 12.54,0 22.71,10.16 22.71,22.7 0,12.54 -10.17,22.71 -22.71,22.71"
             inkscape:connector-curvature="0"
             id="path86"
             style="fill:#ffffff;fill-opacity:1;fill-rule:nonzero;stroke:none" /><path
             d="m 1043.87,6768.43 c -12.54,0 -22.71,-10.17 -22.71,-22.71 0,-12.54 10.17,-22.7 22.71,-22.7 12.54,0 22.7,10.16 22.7,22.7 0,12.54 -10.16,22.71 -22.7,22.71"
             inkscape:connector-curvature="0"
             id="path88"
             style="fill:#ffffff;fill-opacity:1;fill-rule:nonzero;stroke:none" /><path
             d="m 1024.95,7041.61 189.211,0 0,136.238 -189.211,0 0,-136.238 z"
             inkscape:connector-curvature="0"
             id="path90"
             style="fill:#ffffff;fill-opacity:1;fill-rule:nonzero;stroke:none" /><path
             d="m 1120.31,7528.49 c -290.83,0 -526.615,-235.82 -526.615,-526.66 0,-290.84 235.785,-526.64 526.615,-526.64 290.84,0 526.63,235.8 526.63,526.64 0,290.84 -235.79,526.66 -526.63,526.66 m 0.86,-947.14 c -232.693,0 -421.334,188.6 -421.334,421.33 0,100.73 35.418,193.17 94.402,265.69 l 592.622,-592.6 c -72.49,-58.98 -164.95,-94.42 -265.69,-94.42 m 325.47,153.8 -592.995,592.99 c 72.738,59.87 165.955,95.84 267.525,95.84 232.63,0 421.26,-188.65 421.26,-421.3 0,-101.59 -35.94,-194.76 -95.79,-267.53"
             inkscape:connector-curvature="0"
             id="path92"
             style="fill:#ed1c24;fill-opacity:1;fill-rule:nonzero;stroke:none" /><g
             transform="scale(10,10)"
             id="g94"><text
               transform="matrix(1,0,0,-1,213.134,636.404)"
               id="text96"><tspan
                 x="0 7 14 21 28 35 42 49"
                 y="0"
                 id="tspan98"
                 style="font-size:7px;font-variant:normal;writing-mode:lr-tb;fill:#231f20;fill-opacity:1;fill-rule:nonzero;stroke:none;font-family:TakaoPGothic;-inkscape-font-specification:TakaoPGothic-90ms-RKSJ-H">電子機器使用禁止</tspan></text>
</g><path
             d="m 2789.63,7288.22 -448.82,0 0,-328.33 448.82,0 0,328.33 m -42.15,-286.16 -364.51,0 0,243.99 364.51,0 0,-243.99"
             inkscape:connector-curvature="0"
             id="path100"
             style="fill:#231f20;fill-opacity:1;fill-rule:nonzero;stroke:none" /><path
             d="m 2789.63,6938.82 -448.82,0 -102.79,-125.77 0,-38.61 654.4,0 0,38.61 -102.79,125.77"
             inkscape:connector-curvature="0"
             id="path102"
             style="fill:#231f20;fill-opacity:1;fill-rule:nonzero;stroke:none" /><g
             transform="scale(10,10)"
             id="g104"><text
               transform="matrix(1,0,0,-1,213.134,627.9)"
               id="text106"><tspan
                 x="0 5.3339806 9.5058632 11.732 15.903999 20.075998 22.301996 24.527996 28.699995 32.479996 36.651993 38.877991 43.049992 44.883991 49.055801 52.83588 55.061893 57.672909 61.844921 66.016937 67.851082 71.630768 73.856941 78.028824 82.201103 85.980789 87.814766 91.59478 95.766777"
                 y="0"
                 id="tspan108"
                 style="font-size:7px;font-variant:normal;font-weight:normal;writing-mode:lr-tb;fill:#231f20;fill-opacity:1;fill-rule:nonzero;stroke:none;font-family:Helvetica;-inkscape-font-specification:Helvetica">Do not use electronic devices</tspan></text>
</g><path
             d="m 2565.98,7527.9 c -290.77,0 -526.51,-235.76 -526.51,-526.55 0,-290.77 235.74,-526.53 526.51,-526.53 290.79,0 526.53,235.76 526.53,526.53 0,290.79 -235.74,526.55 -526.53,526.55 m 0.86,-946.93 c -232.65,0 -421.25,188.56 -421.25,421.25 0,100.7 35.42,193.12 94.39,265.62 l 592.49,-592.46 c -72.47,-58.99 -164.91,-94.41 -265.63,-94.41 m 325.4,153.77 -592.87,592.86 c 72.73,59.85 165.91,95.81 267.47,95.81 232.57,0 421.18,-188.59 421.18,-421.19 0,-101.58 -35.93,-194.74 -95.78,-267.48"
             inkscape:connector-curvature="0"
             id="path110"
             style="fill:#ed1c24;fill-opacity:1;fill-rule:nonzero;stroke:none" /><g
             transform="scale(10,10)"
             id="g112"><text
               transform="matrix(1,0,0,-1,358.087,636.633)"
               id="text114"><tspan
                 x="0 7 14 21"
                 y="0"
                 id="tspan116"
                 style="font-size:7px;font-variant:normal;writing-mode:lr-tb;fill:#231f20;fill-opacity:1;fill-rule:nonzero;stroke:none;font-family:TakaoPGothic;-inkscape-font-specification:TakaoPGothic-90ms-RKSJ-H">撮影禁止</tspan><tspan
                 x="-289.94199 -284.13046 -278.81085 -273.63089 -267.75 -261.5184 -254.5184 -247.5184 -240.5184"
                 y="189.92101"
                 id="tspan118"
                 style="font-size:7px;font-variant:normal;writing-mode:lr-tb;fill:#231f20;fill-opacity:1;fill-rule:nonzero;stroke:none;font-family:TakaoPGothic;-inkscape-font-specification:TakaoPGothic-90ms-RKSJ-H">フラッシュ撮影禁止</tspan></text>
<text
               transform="matrix(1,0,0,-1,358.087,628.129)"
               id="text120"><tspan
                 x="0 5.3339806 9.5058632 11.732 15.903999 20.075998 22.301901 24.527685 26.753851 30.92585 34.705849 38.877846 41.103848 45.275845 49.447845 53.619843 55.84584 60.017948 64.189835 66.800766 70.973038 75.14492 79.316803"
                 y="0"
                 id="tspan122"
                 style="font-size:7px;font-variant:normal;font-weight:normal;writing-mode:lr-tb;fill:#231f20;fill-opacity:1;fill-rule:nonzero;stroke:none;font-family:Helvetica;-inkscape-font-specification:Helvetica">Do not take photographs</tspan></text>
</g><path
             d="m 4336.78,7160.88 c -66.2,7.69 -133.11,13.05 -200.66,15.97 l -53.6,92.87 -135.16,0 -53.61,-92.87 c -67.64,-2.92 -134.64,-8.28 -200.93,-16 l 0.13,-351.93 643.99,0 -0.16,351.96"
             inkscape:connector-curvature="0"
             id="path124"
             style="fill:#231f20;fill-opacity:1;fill-rule:nonzero;stroke:none" /><g
             transform="scale(10,10)"
             id="g126"><text
               transform="matrix(1,0,0,-1,68.9156,438.208)"
               id="text128"><tspan
                 x="0 5.3335962 9.5058632 11.7316 15.903599 20.075598 22.301901 24.527679 26.753851 30.92585 34.705849 38.877846 41.103451 43.329235 45.163216 49.335476 53.115166 57.287449 59.513451 63.685448 67.857445 72.029449 74.255447 78.427254 82.599121 85.210442 89.382317 93.554184 97.726448"
                 y="0"
                 id="tspan130"
                 style="font-size:7px;font-variant:normal;font-weight:normal;writing-mode:lr-tb;fill:#231f20;fill-opacity:1;fill-rule:nonzero;stroke:none;font-family:Helvetica;-inkscape-font-specification:Helvetica">Do not take flash photographs</tspan></text>
</g><path
             d="m 3870.87,6986.88 c 0,38.48 14.99,74.66 42.2,101.86 27.2,27.22 63.38,42.21 101.87,42.21 38.5,0 74.68,-14.99 101.89,-42.2 27.2,-27.21 42.18,-63.39 42.18,-101.87 0,-79.45 -64.63,-144.09 -144.07,-144.09 -38.48,0 -74.65,14.99 -101.86,42.21 -27.22,27.21 -42.21,63.39 -42.21,101.88 z M 4014.94,6883 c 57.37,0 103.88,46.51 103.88,103.88 0,57.37 -46.51,103.86 -103.88,103.86 -57.36,0 -103.87,-46.49 -103.87,-103.86 0,-57.37 46.51,-103.88 103.87,-103.88"
             inkscape:connector-curvature="0"
             id="path132"
             style="fill:#ffffff;fill-opacity:1;fill-rule:nonzero;stroke:none" /><path
             d="m 4015.64,7530.41 c -290.83,0 -526.62,-235.81 -526.62,-526.66 0,-290.83 235.79,-526.64 526.62,-526.64 290.84,0 526.64,235.81 526.64,526.64 0,290.85 -235.8,526.66 -526.64,526.66 z m 0.86,-947.14 c -232.69,0 -421.34,188.62 -421.34,421.34 0,100.72 35.42,193.17 94.41,265.69 l 592.62,-592.59 c -72.49,-59 -164.95,-94.44 -265.69,-94.44 z m 325.47,153.81 -593,592.98 c 72.74,59.88 165.95,95.84 267.53,95.84 232.62,0 421.26,-188.64 421.26,-421.29 0,-101.6 -35.93,-194.76 -95.79,-267.53"
             inkscape:connector-curvature="0"
             id="path134"
             style="fill:#ed1c24;fill-opacity:1;fill-rule:nonzero;stroke:none" /><path
             d="m 1536.07,5257.01 -118.47,42 101.53,70.62 -149.61,-10.76 15.94,112.87 -83.63,-89.13 -63.67,156.82 -13.26,-159.18 -119.92,70.26 47.26,-79.72 -96.5,0 -53.65,-92.92 c -67.676,-2.93 -134.723,-8.29 -201.055,-16.02 l 0.125,-352.14 644.4,0 -0.15,334.77 90.66,12.53"
             inkscape:connector-curvature="0"
             id="path136"
             style="fill:#231f20;fill-opacity:1;fill-rule:nonzero;stroke:none" /><path
             d="m 1362.42,5253.32 48.59,-83.4 -104.32,64.78 -0.07,-130.48 -49.46,120.37 -69.71,-27.9 37.03,64.32 -94.14,14.36 84.98,28.49 -53.33,89.94 80.3,-47.05 8.91,107.07 43.81,-107.88 61.65,65.7 -10.54,-74.62 101.38,7.3 -73.55,-51.17 77.62,-27.52 -89.15,-12.31"
             inkscape:connector-curvature="0"
             id="path138"
             style="fill:#ffffff;fill-opacity:1;fill-rule:nonzero;stroke:none" /><path
             d="m 1224.96,5190.04 -42.28,-16.93 c 26.96,-18.78 44.61,-49.98 44.61,-85.34 0,-57.39 -46.51,-103.93 -103.93,-103.93 -57.39,0 -103.94,46.54 -103.94,103.93 0,57.42 46.55,103.94 103.94,103.94 12.14,0 23.78,-2.1 34.61,-5.93 l 20.35,35.35 c -17.2,7.08 -35.8,10.8 -54.96,10.8 -38.5,0 -74.71,-14.99 -101.94,-42.22 -27.225,-27.23 -42.221,-63.43 -42.221,-101.94 0,-38.5 14.996,-74.7 42.231,-101.94 27.23,-27.23 63.43,-42.22 101.93,-42.22 79.5,0 144.16,64.67 144.16,144.16 0,38.52 -14.99,74.72 -42.22,101.94 -0.1,0.11 -0.23,0.22 -0.34,0.33"
             inkscape:connector-curvature="0"
             id="path140"
             style="fill:#ffffff;fill-opacity:1;fill-rule:nonzero;stroke:none" /><path
             d="m 1123.86,5631.2 c -290.829,0 -526.618,-235.82 -526.618,-526.66 0,-290.83 235.789,-526.64 526.618,-526.64 290.84,0 526.63,235.81 526.63,526.64 0,290.84 -235.79,526.66 -526.63,526.66 z m 0.86,-947.14 c -232.693,0 -421.341,188.61 -421.341,421.34 0,100.72 35.422,193.17 94.402,265.69 l 592.629,-592.6 c -72.5,-58.99 -164.95,-94.43 -265.69,-94.43 z m 325.47,153.81 -592.999,592.98 c 72.747,59.87 165.959,95.83 267.529,95.83 232.62,0 421.26,-188.63 421.26,-421.28 0,-101.6 -35.94,-194.77 -95.79,-267.53"
             inkscape:connector-curvature="0"
             id="path142"
             style="fill:#ed1c24;fill-opacity:1;fill-rule:nonzero;stroke:none" /><path
             d="M 4818.9,2097.64 0,2097.64"
             inkscape:connector-curvature="0"
             id="path144"
             style="fill:none;stroke:#231f20;stroke-width:2;stroke-linecap:butt;stroke-linejoin:miter;stroke-miterlimit:4;stroke-opacity:1;stroke-dasharray:none" /><path
             d="M 4818.9,3996.85 0,3996.85"
             inkscape:connector-curvature="0"
             id="path146"
             style="fill:none;stroke:#231f20;stroke-width:2;stroke-linecap:butt;stroke-linejoin:miter;stroke-miterlimit:4;stroke-opacity:1;stroke-dasharray:none" /><path
             d="m 311.812,538.59 0,1530.71"
             inkscape:connector-curvature="0"
             id="path148"
             style="fill:none;stroke:#231f20;stroke-width:2;stroke-linecap:butt;stroke-linejoin:miter;stroke-miterlimit:4;stroke-opacity:1;stroke-dasharray:none" /><path
             d="m 311.812,2125.99 0,1842.51"
             inkscape:connector-curvature="0"
             id="path150"
             style="fill:none;stroke:#231f20;stroke-width:2;stroke-linecap:butt;stroke-linejoin:miter;stroke-miterlimit:4;stroke-opacity:1;stroke-dasharray:none" /><g
             transform="scale(10,10)"
             id="g152"><text
               transform="matrix(1,0,0,-1,213.077,66.6531)"
               id="text154"><tspan
                 x="0 5.8791809 9.7997694 16.100826 22.260981 28.700003 35.350002 42.000412 49.000412"
                 y="0"
                 id="tspan156"
                 style="font-size:7px;font-variant:normal;writing-mode:lr-tb;fill:#231f20;fill-opacity:1;fill-rule:nonzero;stroke:none;font-family:TakaoPGothic;-inkscape-font-specification:TakaoPGothic-90ms-RKSJ-H">ペット持ち込み禁止</tspan><tspan
                 x="-144.52901 -138.29865 -132.34961 -126.53904 -120.58822 -114.07804 -107.07804 -100.07804 -93.078041 0.070257671 7.0702577 14.070258 21.070257 144.03799 149.56712 154.95735 160.97823 167.8369 174.8369"
                 y="-189.92101"
                 id="tspan158"
                 style="font-size:7px;font-variant:normal;writing-mode:lr-tb;fill:#231f20;fill-opacity:1;fill-rule:nonzero;stroke:none;font-family:TakaoPGothic;-inkscape-font-specification:TakaoPGothic-90ms-RKSJ-H">ベビーカー使用禁止遊泳禁止キャンプ禁止</tspan><tspan
                 x="-144.45799 -137.45799 -130.45799 -123.458"
                 y="0"
                 id="tspan160"
                 style="font-size:7px;font-variant:normal;writing-mode:lr-tb;fill:#231f20;fill-opacity:1;fill-rule:nonzero;stroke:none;font-family:TakaoPGothic;-inkscape-font-specification:TakaoPGothic-90ms-RKSJ-H">飲食禁止</tspan></text>
<text
               transform="matrix(1,0,0,-1,213.147,58.14919)"
               id="text162"><tspan
                 x="0 5.3339806 9.5058603 11.731859 15.90391 20.075792 23.85586 28.027859 32.200001 36.371883 40.543766 42.769943 46.941799 51.1138 52.948051 59.058983 63.23085 65.06485"
                 y="0"
                 id="tspan164"
                 style="font-size:7px;font-variant:normal;font-weight:normal;writing-mode:lr-tb;fill:#231f20;fill-opacity:1;fill-rule:nonzero;stroke:none;font-family:Helvetica;-inkscape-font-specification:Helvetica">No uncaged animals</tspan><tspan
                 x="-144.52815 -139.19455 -135.02229 -132.79655 -128.62456 -124.45255 -122.22655 -120.00056 -115.82855 -112.04855 -107.87656 -105.65056 -101.47855 -98.867622 -94.695351 -88.584351 -0.00044999999 5.3335304 9.5054102 11.731409 15.51166 20.84564 22.67963 28.790628 34.901627 36.735626 40.90733 144.52834 149.8623 154.03419 156.26038 160.04045 164.21233 170.32332 174.49553 176.32953 180.50139"
                 y="-189.92101"
                 id="tspan166"
                 style="font-size:7px;font-variant:normal;font-weight:normal;writing-mode:lr-tb;fill:#231f20;fill-opacity:1;fill-rule:nonzero;stroke:none;font-family:Helvetica;-inkscape-font-specification:Helvetica">Do not use pramsNo swimmingNo camping</tspan><tspan
                 x="-144.52861 -139.19501 -135.02275 -132.79701 -128.62502 -124.45301 -122.22701 -120.00101 -115.82901 -111.65714 -109.43095 -107.20479 -103.03279 -100.42198 -98.195801 -94.023933 -91.412933 -89.578934 -85.407127 -81.627052 -79.400879 -75.229004 -71.057137 -68.445816"
                 y="-8.8817842e-15"
                 id="tspan168"
                 style="font-size:7px;font-variant:normal;font-weight:normal;writing-mode:lr-tb;fill:#231f20;fill-opacity:1;fill-rule:nonzero;stroke:none;font-family:Helvetica;-inkscape-font-specification:Helvetica">Do not eat or drink here</tspan></text>
<text
               transform="matrix(1,0,0,-1,10.09787,371.63219)"
               id="text170"><tspan
                 x="0"
                 y="0"
                 id="tspan172"
                 style="font-size:12px;font-variant:normal;font-weight:normal;writing-mode:lr-tb;fill:#231f20;fill-opacity:1;fill-rule:nonzero;stroke:none;font-family:Helvetica;-inkscape-font-specification:Helvetica">B</tspan></text>
<text
               transform="matrix(1,0,0,-1,1.84631,385.37629)"
               id="text174"><tspan
                 x="0 8 16"
                 y="0"
                 id="tspan176"
                 style="font-size:8px;font-variant:normal;writing-mode:lr-tb;fill:#231f20;fill-opacity:1;fill-rule:nonzero;stroke:none;font-family:TakaoPGothic;-inkscape-font-specification:TakaoPGothic-90ms-RKSJ-H">推奨度</tspan></text>
<text
               transform="matrix(1,0,0,-1,9.76779,181.71129)"
               id="text178"><tspan
                 x="0"
                 y="0"
                 id="tspan180"
                 style="font-size:12px;font-variant:normal;font-weight:normal;writing-mode:lr-tb;fill:#231f20;fill-opacity:1;fill-rule:nonzero;stroke:none;font-family:Helvetica;-inkscape-font-specification:Helvetica">C</tspan></text>
</g><path
             d="m 848.113,1026.74 c 0,-21.2 17.192,-38.388 38.391,-38.388 l 230.326,0 c 21.2,0 38.38,17.188 38.38,38.388 l 0,31.99 -307.097,0 0,-31.99"
             inkscape:connector-curvature="0"
             id="path182"
             style="fill:#231f20;fill-opacity:1;fill-rule:nonzero;stroke:none" /><path
             d="m 1165.36,1506.35 -45.79,172.53 -40.76,-10.92 42.89,-161.61 -93.79,0 28.07,-199.68 c -16.89,4.13 -35.18,6.41 -54.31,6.41 -84.811,0 -153.557,-44.4 -153.557,-99.17 l 307.097,0 c 0,30.3 -21.05,57.39 -54.2,75.59 l -24.55,174.65 257.75,0 -56.98,-405.42 -97.5,0 0,-42.2 134.18,0 68.85,489.82 -217.4,0"
             inkscape:connector-curvature="0"
             id="path184"
             style="fill:#231f20;fill-opacity:1;fill-rule:nonzero;stroke:none" /><path
             d="m 941.023,1180.65 c 9.075,0 17.848,-1.38 25.379,-3.99 10.641,-3.74 22.86,-5.73 35.278,-5.73 12.42,0 24.64,1.99 35.28,5.73 7.53,2.61 16.3,3.99 25.37,3.99 8.82,0 17.47,-1.36 24.88,-3.89 10.81,-3.83 23.1,-5.86 35.55,-5.86 11.33,0 22.49,1.68 32.45,4.82 l 0,22.45 c -2.33,-0.62 -4.63,-1.29 -6.85,-2.06 -7.65,-2.69 -16.5,-4.11 -25.6,-4.11 -9.11,0 -18.01,1.45 -25.9,4.25 -10.55,3.6 -22.49,5.5 -34.53,5.5 -12.34,0 -24.43,-1.93 -35.04,-5.61 -7.66,-2.69 -16.51,-4.11 -25.61,-4.11 -9.102,0 -17.953,1.42 -25.606,4.11 -10.609,3.68 -22.707,5.61 -35.051,5.61 -12.035,0 -23.972,-1.9 -34.519,-5.5 -7.891,-2.8 -16.793,-4.25 -25.902,-4.25 -9.102,0 -17.961,1.42 -25.606,4.11 -2.226,0.77 -4.531,1.45 -6.883,2.07 l 0,-22.45 c 9.969,-3.15 21.141,-4.83 32.489,-4.83 12.449,0 24.742,2.03 35.55,5.86 7.403,2.53 16.059,3.89 24.871,3.89"
             inkscape:connector-curvature="0"
             id="path186"
             style="fill:#231f20;fill-opacity:1;fill-rule:nonzero;stroke:none" /><path
             d="m 839.898,1158.71 c -2.691,-6.95 -4.195,-14.49 -4.195,-22.39 0,-7.9 1.5,-15.44 4.192,-22.4 l 323.545,0 c 2.69,6.96 4.19,14.5 4.19,22.4 0,7.9 -1.5,15.44 -4.2,22.39 l -323.532,0"
             inkscape:connector-curvature="0"
             id="path188"
             style="fill:#231f20;fill-opacity:1;fill-rule:nonzero;stroke:none" /><path
             d="m 880.59,1080.64 c 9.117,0 18.019,-1.45 25.91,-4.25 10.547,-3.59 22.484,-5.5 34.52,-5.5 12.339,0 24.441,1.94 35.05,5.61 7.645,2.69 16.504,4.12 25.6,4.12 9.11,0 17.96,-1.43 25.61,-4.12 10.61,-3.67 22.71,-5.61 35.05,-5.61 12.04,0 23.97,1.91 34.52,5.5 7.89,2.8 16.79,4.25 25.9,4.25 9.11,0 17.96,-1.42 25.61,-4.11 2.22,-0.77 4.51,-1.44 6.85,-2.05 l 0,22.45 c -9.97,3.13 -21.12,4.81 -32.46,4.81 -12.45,0 -24.74,-2.02 -35.55,-5.86 -7.4,-2.53 -16.06,-3.88 -24.87,-3.88 -9.08,0 -17.85,1.37 -25.38,3.98 -10.64,3.74 -22.86,5.73 -35.28,5.73 -12.412,0 -24.635,-1.99 -35.275,-5.73 -7.528,-2.61 -16.301,-3.98 -25.375,-3.98 -8.813,0 -17.469,1.35 -24.872,3.88 -10.812,3.84 -23.105,5.86 -35.558,5.86 -11.344,0 -22.516,-1.68 -32.481,-4.82 l 0,-22.45 c 2.352,0.61 4.649,1.29 6.875,2.06 7.653,2.69 16.504,4.11 25.606,4.11"
             inkscape:connector-curvature="0"
             id="path190"
             style="fill:#231f20;fill-opacity:1;fill-rule:nonzero;stroke:none" /><g
             transform="scale(10,10)"
             id="g192"><text
               transform="matrix(1,0,0,-1,1.84609,195.455)"
               id="text194"><tspan
                 x="0 8 16"
                 y="0"
                 id="tspan196"
                 style="font-size:8px;font-variant:normal;writing-mode:lr-tb;fill:#231f20;fill-opacity:1;fill-rule:nonzero;stroke:none;font-family:TakaoPGothic;-inkscape-font-specification:TakaoPGothic-90ms-RKSJ-H">推奨度</tspan></text>
</g><path
             d="m 1120.48,1830.82 c -290.894,0 -526.742,-235.87 -526.742,-526.79 0,-290.9 235.848,-526.76 526.742,-526.76 290.92,0 526.77,235.86 526.77,526.76 0,290.92 -235.85,526.79 -526.77,526.79 z m 0.86,-947.359 c -232.746,0 -421.434,188.659 -421.434,421.439 0,100.74 35.43,193.21 94.43,265.75 L 1387.09,977.91 c -72.5,-59 -164.98,-94.449 -265.75,-94.449 z m 325.55,153.839 -593.14,593.12 c 72.766,59.9 166,95.87 267.59,95.87 232.68,0 421.37,-188.69 421.37,-421.39 0,-101.63 -35.95,-194.82 -95.82,-267.6"
             inkscape:connector-curvature="0"
             id="path198"
             style="fill:#ed1c24;fill-opacity:1;fill-rule:nonzero;stroke:none" /><path
             d="m 2926.19,1385.88 c 5.39,-3.09 9.02,-8.89 9.02,-15.55 0,-2.71 -0.62,-5.28 -1.69,-7.58 l -66,-141.55 -23.57,36.27 -22.43,-14.58 -22.42,34.5 -22.43,-14.58 -21.09,32.44 -33.08,-57.32 17.62,-201.47 -120.12,0 -21.31,134.54 -127.76,0 c -29.05,0 -53.48,-19.74 -60.65,-46.53 l -23.58,-88.01 -118.89,0 32.3,307.37 c -13.67,16.34 -21.92,37.39 -21.92,60.38 0,17.54 4.81,33.95 13.16,48.01 l 59.09,-70.43 261.86,0 140.47,200.6 c 1.62,2.31 4.3,3.82 7.34,3.82 4.95,0 8.97,-4.01 8.97,-8.97 l 0,-101.4 157.11,-89.96"
             inkscape:connector-curvature="0"
             id="path200"
             style="fill:#231f20;fill-opacity:1;fill-rule:nonzero;stroke:none" /><path
             d="m 2565.62,1830.82 c -290.9,0 -526.75,-235.87 -526.75,-526.79 0,-290.9 235.85,-526.76 526.75,-526.76 290.92,0 526.76,235.86 526.76,526.76 0,290.92 -235.84,526.79 -526.76,526.79 z m 0.86,-947.359 c -232.75,0 -421.44,188.659 -421.44,421.439 0,100.74 35.43,193.21 94.43,265.75 l 592.76,-592.74 c -72.51,-59 -164.98,-94.449 -265.75,-94.449 z m 325.55,153.839 -593.14,593.12 c 72.76,59.9 165.99,95.87 267.59,95.87 232.68,0 421.37,-188.69 421.37,-421.39 0,-101.63 -35.95,-194.82 -95.82,-267.6"
             inkscape:connector-curvature="0"
             id="path202"
             style="fill:#ed1c24;fill-opacity:1;fill-rule:nonzero;stroke:none" /><path
             d="m 4150.8,3467.29 c -41.49,-8.62 -84.68,-12.99 -128.72,-12.99 -44.13,0 -87.04,4.37 -128.6,13.02 l 201.23,-462.62 257.36,0 -201.27,462.59"
             inkscape:connector-curvature="0"
             id="path204"
             style="fill:#231f20;fill-opacity:1;fill-rule:nonzero;stroke:none" /><path
             d="m 3668.46,3004.7 101.2,0 c 45.09,80.98 78.48,168.6 99.86,261.37 l 0,-261.37 201.06,0 -201.06,462.43 -201.06,-462.43"
             inkscape:connector-curvature="0"
             id="path206"
             style="fill:#231f20;fill-opacity:1;fill-rule:nonzero;stroke:none" /><path
             d="m 4011.02,3730.04 c -290.9,0 -526.74,-235.87 -526.74,-526.79 0,-290.91 235.84,-526.77 526.74,-526.77 290.92,0 526.76,235.86 526.76,526.77 0,290.92 -235.84,526.79 -526.76,526.79 z m 0.86,-947.37 c -232.75,0 -421.44,188.66 -421.44,421.44 0,100.75 35.43,193.22 94.43,265.75 l 592.76,-592.73 c -72.51,-59.01 -164.98,-94.46 -265.75,-94.46 z m 325.55,153.85 -593.14,593.11 c 72.76,59.9 165.99,95.87 267.59,95.87 232.68,0 421.37,-188.68 421.37,-421.39 0,-101.63 -35.95,-194.81 -95.82,-267.59"
             inkscape:connector-curvature="0"
             id="path208"
             style="fill:#ed1c24;fill-opacity:1;fill-rule:nonzero;stroke:none" /><path
             d="m 2403.48,3198.12 c 0,39.25 -31.82,71.06 -71.08,71.06 -39.25,0 -71.07,-31.81 -71.07,-71.06 0,-39.25 31.82,-71.08 71.07,-71.08 39.26,0 71.08,31.83 71.08,71.08"
             inkscape:connector-curvature="0"
             id="path210"
             style="fill:#231f20;fill-opacity:1;fill-rule:nonzero;stroke:none" /><path
             d="m 2606.71,3235.14 c 51.72,53.56 137.07,55.05 190.63,3.33 4.48,-4.33 8.59,-8.89 12.34,-13.64 l 61.78,37.12 c -7.42,9.69 -15.64,18.97 -24.69,27.7 -98.19,94.82 -254.67,92.09 -349.49,-6.1 -14.32,-14.84 -26.41,-31.01 -36.28,-48.09 l -70.5,-122.1 -59.5,-49.39 c 12.35,-6.1 26.25,-9.55 40.96,-9.55 25.25,0 48.12,10.09 64.83,26.46 l 10.98,0 c 16.71,-16.37 39.59,-26.46 64.83,-26.46 l 0,-0.01 c 25.24,0 48.12,10.1 64.83,26.47 l 10.98,0 c 16.71,-16.37 39.58,-26.47 64.82,-26.47 l 0,0.01 c 25.25,0 48.13,10.09 64.84,26.47 l 10.98,0 c 16.71,-16.38 39.59,-26.47 64.83,-26.47 18.99,0 36.63,5.71 51.33,15.51 l -253.62,146.44 c 4.4,6.58 9.43,12.88 15.12,18.77"
             inkscape:connector-curvature="0"
             id="path212"
             style="fill:#231f20;fill-opacity:1;fill-rule:nonzero;stroke:none" /><path
             d="m 2565.74,3730.04 c -290.91,0 -526.75,-235.87 -526.75,-526.79 0,-290.91 235.84,-526.77 526.75,-526.77 290.92,0 526.76,235.86 526.76,526.77 0,290.92 -235.84,526.79 -526.76,526.79 z m 0.86,-947.37 c -232.76,0 -421.44,188.66 -421.44,421.44 0,100.75 35.43,193.22 94.43,265.75 l 592.76,-592.73 c -72.51,-59.01 -164.99,-94.46 -265.75,-94.46 z m 325.54,153.85 -593.14,593.11 c 72.77,59.9 166,95.87 267.6,95.87 232.68,0 421.36,-188.68 421.36,-421.39 0,-101.63 -35.94,-194.81 -95.82,-267.59"
             inkscape:connector-curvature="0"
             id="path214"
             style="fill:#ed1c24;fill-opacity:1;fill-rule:nonzero;stroke:none" /><path
             d="m 1391.43,3092.59 c -6.34,82.68 -49.22,155.11 -112.51,201.23 l -28.51,161.68 c -0.62,3.53 -3.68,6.21 -7.38,6.21 -0.02,0 -0.04,0 -0.07,0 -42.68,-0.54 -78.92,-27.8 -92.77,-65.83 l -62.1,-170.59 45.04,0 38.48,78.89 12.64,-38.9 -53.44,-380.31 42.54,0 42.68,192.27 43.56,3.81 48.88,-196.08 42.54,0 -35.44,200.98 75.86,6.64"
             inkscape:connector-curvature="0"
             id="path216"
             style="fill:#231f20;fill-opacity:1;fill-rule:nonzero;stroke:none" /><path
             d="m 1201.79,3470.92 c 27.64,0 50.05,22.41 50.05,50.05 0,27.64 -22.41,50.04 -50.05,50.04 -27.64,0 -50.05,-22.4 -50.05,-50.04 0,-27.64 22.41,-50.05 50.05,-50.05"
             inkscape:connector-curvature="0"
             id="path218"
             style="fill:#231f20;fill-opacity:1;fill-rule:nonzero;stroke:none" /><path
             d="m 884.918,2949.84 c -17.91,0 -32.43,-14.52 -32.43,-32.43 0,-17.91 14.52,-32.44 32.43,-32.44 17.91,0 32.43,14.53 32.43,32.44 0,17.91 -14.52,32.43 -32.43,32.43"
             inkscape:connector-curvature="0"
             id="path220"
             style="fill:#231f20;fill-opacity:1;fill-rule:nonzero;stroke:none" /><path
             d="m 984.625,2949.84 c -17.91,0 -32.43,-14.52 -32.43,-32.43 0,-17.91 14.52,-32.44 32.43,-32.44 17.905,0 32.435,14.53 32.435,32.44 0,17.91 -14.53,32.43 -32.435,32.43"
             inkscape:connector-curvature="0"
             id="path222"
             style="fill:#231f20;fill-opacity:1;fill-rule:nonzero;stroke:none" /><path
             d="m 1133.87,3206.59 -83.41,0 -49.21,-183.66 c -5.852,-21.92 -25.836,-38.06 -49.594,-38.06 l -69.808,0 -9.11,-25.03 78.918,0 c 35.34,0 65.054,24.02 73.764,56.61 l 44.24,165.12 64.21,0 0,25.02"
             inkscape:connector-curvature="0"
             id="path224"
             style="fill:#231f20;fill-opacity:1;fill-rule:nonzero;stroke:none" /><path
             d="m 1005.7,3125.71 c -8.958,4.34 -19.075,6.59 -29.688,6.59 -6.278,0 -12.352,-0.84 -18.137,-2.38 l -83.301,-22.32 6.821,-25.47 44.351,3.89 -8.273,-30.9 -22.313,0 c -21.629,0 -40.965,-9.79 -53.855,-25.16 l -32.473,-38.7 32.844,-27.55 27.855,27.86 c 5.867,5.87 13.977,9.5 22.93,9.5 l 59.199,0 c 16.262,0 29.899,11.06 33.906,26.05 l 24.084,89.89 c 0.16,0.63 0.28,1.27 0.28,1.94 0,2.97 -1.73,5.54 -4.23,6.76"
             inkscape:connector-curvature="0"
             id="path226"
             style="fill:#231f20;fill-opacity:1;fill-rule:nonzero;stroke:none" /><path
             d="m 978.188,3234.38 c -24.876,0 -45.043,-20.17 -45.043,-45.05 0,-24.87 20.167,-45.03 45.043,-45.03 24.872,0 45.042,20.16 45.042,45.03 0,24.88 -20.17,45.05 -45.042,45.05"
             inkscape:connector-curvature="0"
             id="path228"
             style="fill:#231f20;fill-opacity:1;fill-rule:nonzero;stroke:none" /><path
             d="m 1120.48,3730.04 c -290.894,0 -526.742,-235.87 -526.742,-526.79 0,-290.91 235.848,-526.77 526.742,-526.77 290.92,0 526.77,235.86 526.77,526.77 0,290.92 -235.85,526.79 -526.77,526.79 z m 0.86,-947.37 c -232.75,0 -421.434,188.66 -421.434,421.44 0,100.75 35.43,193.22 94.43,265.75 l 592.754,-592.73 c -72.5,-59.01 -164.98,-94.46 -265.75,-94.46 z m 325.55,153.85 -593.14,593.11 c 72.766,59.9 166,95.87 267.59,95.87 232.68,0 421.37,-188.68 421.37,-421.39 0,-101.63 -35.95,-194.81 -95.82,-267.59"
             inkscape:connector-curvature="0"
             id="path230"
             style="fill:#ed1c24;fill-opacity:1;fill-rule:nonzero;stroke:none" /><g
             transform="scale(10,10)"
             id="g232"><text
               transform="matrix(1,0,0,-1,63.9387,236.762)"
               id="text234"><tspan
                 x="0 4.1999998 9.3097687 13.509769 14.839846 19.039846 20.579693 24.779692"
                 y="0"
                 id="tspan236"
                 style="font-size:7px;font-variant:normal;writing-mode:lr-tb;fill:#231f20;fill-opacity:1;fill-rule:nonzero;stroke:none;font-family:Ryumin-Light-90ms-RKSJ;-inkscape-font-specification:Ryumin-Light-90ms-RKSJ-H">mPn</tspan></text>
<text
               transform="matrix(1,0,0,-1,85.6387,236.762)"
               id="text238"><tspan
                 x="0 7.0712881 14.071288 20.791599 26.810429 32.480194 38.779648 45.779648 52.779648 59.779648 66.429649 73.28965 80.28965 87.358788"
                 y="0"
                 id="tspan240"
                 style="font-size:7px;font-variant:normal;writing-mode:lr-tb;fill:#231f20;fill-opacity:1;fill-rule:nonzero;stroke:none;font-family:TakaoPGothic;-inkscape-font-specification:TakaoPGothic-90ms-RKSJ-H">（文字による補助表示が必要）</tspan></text>
</g></g></g></g></g></svg>