<?xml version="1.0" encoding="UTF-8" standalone="no"?>
<!-- Created with Inkscape (http://www.inkscape.org/) -->

<svg
   xmlns:dc="http://purl.org/dc/elements/1.1/"
   xmlns:cc="http://creativecommons.org/ns#"
   xmlns:rdf="http://www.w3.org/1999/02/22-rdf-syntax-ns#"
   xmlns:svg="http://www.w3.org/2000/svg"
   xmlns="http://www.w3.org/2000/svg"
   xmlns:inkscape="http://www.inkscape.org/namespaces/inkscape"
   version="1.1"
   width="765"
   height="990"
   id="svg2"
   xml:space="preserve"><metadata
     id="metadata8"><rdf:RDF><cc:Work
         rdf:about=""><dc:format>image/svg+xml</dc:format><dc:type
           rdf:resource="http://purl.org/dc/dcmitype/StillImage" /></cc:Work></rdf:RDF></metadata><defs
     id="defs6"><clipPath
       id="clipPath18"><path
         d="m 0,0 4959.79,0 0,7920 L 0,7920 0,0 z"
         inkscape:connector-curvature="0"
         id="path20" /></clipPath></defs><g
     transform="matrix(1.25,0,0,-1.25,0,990)"
     id="g10"><g
       transform="scale(0.1,0.1)"
       id="g12"><g
         id="g14"><g
           clip-path="url(#clipPath18)"
           id="g16"><g
             transform="scale(10,10)"
             id="g22"><text
               transform="matrix(1,0,0,-1,43.9371,785.505)"
               id="text24"><tspan
                 x="0 12 24"
                 y="0"
                 id="tspan26"
                 style="font-size:12px;font-variant:normal;writing-mode:lr-tb;fill:#231f20;fill-opacity:1;fill-rule:nonzero;stroke:none;font-family:TakaoPGothic;-inkscape-font-specification:TakaoPGothic-90ms-RKSJ-H">安全 </tspan></text>
<text
               transform="matrix(1,0,0,-1,79.9371,785.505)"
               id="text28"><tspan
                 x="0 8.4839964 15.635992 19.451988 26.603985 30.419979"
                 y="0"
                 id="tspan30"
                 style="font-size:12px;font-variant:normal;font-weight:normal;writing-mode:lr-tb;fill:#231f20;fill-opacity:1;fill-rule:nonzero;stroke:none;font-family:Helvetica;-inkscape-font-specification:Helvetica">Safety</tspan></text>
</g><path
             d="m 135.41,7957.46 127.051,0 0,-119.22 -127.051,0 0,119.22 z m 54.152,-33.3 34.137,0 0,13.7 -45.332,0 -7.695,-43.93 14.41,0 c 2.801,2.38 7.277,4.62 12.594,4.62 7.976,0 14.836,-5.32 14.836,-14.41 0,-8.4 -6.438,-14.28 -15.254,-14.28 -7.555,0 -13.016,4.34 -13.996,10.5 l -15.387,0 c 1.398,-14.97 14.133,-23.37 30.223,-23.37 18.187,0 30.64,12.03 30.64,28.12 0,15.96 -11.75,26.31 -27.426,26.31 -4.613,0 -9.374,-0.98 -14.691,-3.78 l 2.941,16.52"
             inkscape:connector-curvature="0"
             id="path32"
             style="fill:#231f20;fill-opacity:1;fill-rule:nonzero;stroke:none" /><path
             d="M 4818.9,7795.27 0,7795.27"
             inkscape:connector-curvature="0"
             id="path34"
             style="fill:none;stroke:#231f20;stroke-width:2;stroke-linecap:butt;stroke-linejoin:miter;stroke-miterlimit:4;stroke-opacity:1;stroke-dasharray:none" /><g
             transform="scale(10,10)"
             id="g36"><text
               transform="matrix(1,0,0,-1,451.422,785.505)"
               id="text38"><tspan
                 x="0 6.6719999"
                 y="0"
                 id="tspan40"
                 style="font-size:12px;font-variant:normal;font-weight:normal;writing-mode:lr-tb;fill:#231f20;fill-opacity:1;fill-rule:nonzero;stroke:none;font-family:Helvetica;-inkscape-font-specification:Helvetica">5 </tspan></text>
<text
               transform="matrix(1,0,0,-1,461.4302,785.505)"
               id="text42"><tspan
                 x="0 10.230078"
                 y="0"
                 id="tspan44"
                 style="font-size:11px;font-variant:normal;writing-mode:lr-tb;fill:#231f20;fill-opacity:1;fill-rule:nonzero;stroke:none;font-family:TakaoPGothic;-inkscape-font-specification:TakaoPGothic-90ms-RKSJ-H">項目</tspan></text>
</g><path
             d="M 4818.9,340.16 4818.9,0"
             inkscape:connector-curvature="0"
             id="path46"
             style="fill:none;stroke:#231f20;stroke-width:2;stroke-linecap:butt;stroke-linejoin:miter;stroke-miterlimit:4;stroke-opacity:1;stroke-dasharray:none" /><g
             transform="scale(10,10)"
             id="g48"><text
               transform="matrix(1,0,0,-1,67.6184,636.416)"
               id="text50"><tspan
                 x="0 7 14"
                 y="0"
                 id="tspan52"
                 style="font-size:7px;font-variant:normal;writing-mode:lr-tb;fill:#231f20;fill-opacity:1;fill-rule:nonzero;stroke:none;font-family:TakaoPGothic;-inkscape-font-specification:TakaoPGothic-90ms-RKSJ-H">消火器</tspan></text>
<text
               transform="matrix(1,0,0,-1,483.3074,29.764)"
               id="text54"><tspan
                 x="0 3.336"
                 y="0"
                 id="tspan56"
                 style="font-size:6px;font-variant:normal;font-weight:normal;writing-mode:lr-tb;fill:#231f20;fill-opacity:1;fill-rule:nonzero;stroke:none;font-family:Helvetica;-inkscape-font-specification:Helvetica">15</tspan></text>
<text
               transform="matrix(1,0,0,-1,489.97928,29.764)"
               id="text58"><tspan
                 x="0"
                 y="0"
                 id="tspan60"
                 style="font-size:6px;font-variant:normal;writing-mode:lr-tb;fill:#231f20;fill-opacity:1;fill-rule:nonzero;stroke:none;font-family:TakaoPGothic;-inkscape-font-specification:TakaoPGothic-90ms-RKSJ-H"> </tspan></text>
<text
               transform="matrix(1,0,0,-1,68.61828,446.495)"
               id="text62"><tspan
                 x="0 7 14 144.528 151.528 158.528 165.528 172.528 179.528"
                 y="0"
                 id="tspan64"
                 style="font-size:7px;font-variant:normal;writing-mode:lr-tb;fill:#231f20;fill-opacity:1;fill-rule:nonzero;stroke:none;font-family:TakaoPGothic;-inkscape-font-specification:TakaoPGothic-90ms-RKSJ-H">非常口広域避難場所</tspan></text>
<text
               transform="matrix(1,0,0,-1,67.61828,627.912)"
               id="text66"><tspan
                 x="0 4.5569992 6.3909979 9.0015602 13.173437 15.399606 19.571484 23.351561 25.577761 27.411758 31.583757 35.755756 39.927757 41.761757 45.541756 49.713661 53.885532"
                 y="0"
                 id="tspan68"
                 style="font-size:7px;font-variant:normal;font-weight:normal;writing-mode:lr-tb;fill:#231f20;fill-opacity:1;fill-rule:nonzero;stroke:none;font-family:Helvetica;-inkscape-font-specification:Helvetica">Fire extinguisher</tspan><tspan
                 x="0.99996001 5.9489589 12.05976 16.23164 18.84264 23.01445 27.186718 31.358595 35.138672 38.918751 41.144535 45.31675 49.096748 50.93042 53.156597 145.52773 150.47672 154.64871 156.87471 161.04672 163.27272 167.05272 169.2785 173.45078 177.23047 181.40274 185.18282 189.35472 193.52672 195.75278 197.58675 201.75864 205.93091 208.15669 212.32858 214.93987 219.11186 223.28362"
                 y="189.92101"
                 id="tspan70"
                 style="font-size:7px;font-variant:normal;font-weight:normal;writing-mode:lr-tb;fill:#231f20;fill-opacity:1;fill-rule:nonzero;stroke:none;font-family:Helvetica;-inkscape-font-specification:Helvetica">Emergency exit Safety evacuation area </tspan></text>
<text
               transform="matrix(1,0,0,-1,154.3959,452.164)"
               id="text72"><tspan
                 x="0 144.528"
                 y="0"
                 id="tspan74"
                 style="font-size:7px;font-variant:normal;writing-mode:lr-tb;fill:#231f20;fill-opacity:1;fill-rule:nonzero;stroke:none;font-family:TakaoPGothic;-inkscape-font-specification:TakaoPGothic-90ms-RKSJ-H">※※</tspan></text>
<text
               transform="matrix(1,0,0,-1,10.0969,751.475)"
               id="text76"><tspan
                 x="0"
                 y="0"
                 id="tspan78"
                 style="font-size:12px;font-variant:normal;font-weight:normal;writing-mode:lr-tb;fill:#231f20;fill-opacity:1;fill-rule:nonzero;stroke:none;font-family:Helvetica;-inkscape-font-specification:Helvetica">A</tspan></text>
<text
               transform="matrix(1,0,0,-1,2.09573,765.2184)"
               id="text80"><tspan
                 x="0 8 16"
                 y="0"
                 id="tspan82"
                 style="font-size:8px;font-variant:normal;writing-mode:lr-tb;fill:#231f20;fill-opacity:1;fill-rule:nonzero;stroke:none;font-family:TakaoPGothic;-inkscape-font-specification:TakaoPGothic-90ms-RKSJ-H">推奨度</tspan></text>
</g><path
             d="m 1491.64,4843.76 -24.79,65.68 c -11.15,27.26 -35.93,45.85 -66.92,45.85 l -11.15,0 0,566.31 -537.807,0 0,-313.52 70.632,0 80.545,100.38 c 16.11,18.58 40.89,30.98 68.15,30.98 l 172.26,0 c 27.26,0 50.8,-14.87 63.19,-38.42 l 50.82,-96.66 c 2.48,-3.72 3.71,-8.67 3.71,-14.87 0,-17.34 -14.87,-32.22 -32.23,-32.22 -13.62,0 -23.53,6.2 -29.73,17.35 l -45.85,87.99 -74.34,0 56.99,-142.51 17.35,-182.16 147.46,0 c 23.56,0 42.14,-14.87 50.82,-34.69 l 16.1,-42.14 -252.8,0 c -18.58,0 -34.69,13.63 -35.92,32.21 l -17.36,159.87 -136.3,-282.54 c -7.44,-16.11 -24.798,-27.26 -44.615,-27.26 l -65.683,0 167.288,345.73 -52.04,130.12 -49.565,-60.73 c -12.394,-16.1 -33.468,-27.26 -55.769,-27.26 l -73.113,0 0,-408.93 116.488,-115.24 -343.262,0 0,991.34 991.351,0 0,-991.34 -111.54,0 -115.23,115.24 0,121.44 102.86,0 z m -463.47,640.66 c 38.42,0 70.64,-32.21 70.64,-70.63 0,-38.42 -32.22,-69.4 -70.64,-69.4 -38.404,0 -69.393,30.98 -69.393,69.4 0,38.42 30.989,70.63 69.393,70.63 z m 30.99,-788.12 89.22,-89.22 -107.81,0 -116.484,115.24 69.383,0 c 24.791,0 48.351,-9.91 65.691,-26.02"
             inkscape:connector-curvature="0"
             id="path84"
             style="fill:#00a650;fill-opacity:1;fill-rule:nonzero;stroke:none" /><path
             d="m 2690.73,5001.22 c -25.39,-51.55 -49.13,-99.24 -54.19,-107.68 l -1.68,-2.82 c -12.64,-21.29 -23.24,-33.82 -66.85,-33.82 l -68,0 77.94,164.9 c -34.74,3.74 -66.71,5.13 -91.5,5.13 -112.26,0 -371.34,-28.33 -371.34,-176.01 0,-147.66 259.08,-176.01 371.34,-176.01 112.25,0 371.33,28.35 371.33,176.01 0,81.05 -78.07,126.11 -167.05,150.3"
             inkscape:connector-curvature="0"
             id="path86"
             style="fill:#00a650;fill-opacity:1;fill-rule:nonzero;stroke:none" /><path
             d="m 2693.94,5466.67 c 0,-34.18 -27.7,-61.89 -61.9,-61.89 -34.16,0 -61.87,27.71 -61.87,61.89 0,34.18 27.71,61.88 61.87,61.88 34.2,0 61.9,-27.7 61.9,-61.88"
             inkscape:connector-curvature="0"
             id="path88"
             style="fill:#00a650;fill-opacity:1;fill-rule:nonzero;stroke:none" /><path
             d="m 2538.17,5280 c -34.62,1.45 -71.99,2.68 -89.35,2.71 -17.38,0.06 -33.96,-8.06 -33.44,-30.51 0.52,-22.45 18.32,-27.42 34.85,-28.32 l 11.35,-0.67 c 0,0 57.17,-3.3 82.81,-4.39 25.64,-1.09 30.77,8.78 41.03,21.26 10.27,12.44 40.67,56.77 40.67,56.77 l 49.1,-111.37 -146.16,-309.07 c 0,0 2.19,0 40.66,0 38.48,0 41.75,9.01 52.73,27.33 11,18.32 124.2,250.96 124.2,250.96 0,0 6.24,-91.95 9.16,-130.79 2.94,-38.83 27.12,-37.73 51.3,-37.73 24.17,0 211.39,0 211.39,0 0,0 -6.96,15.02 -20.15,39.93 -13.19,24.91 -34.45,26.01 -54.96,26.01 -20.5,0 -115.77,0 -115.77,0 0,0 -4.39,63.38 -8.42,108.8 -4.02,45.44 -8.81,55.71 -17.97,75.84 -9.16,20.17 -46.14,101.49 -46.14,101.49 l 69.23,0 c 0,0 38.11,-65.21 46.53,-79.5 8.43,-14.28 20.88,-27.83 40.3,-18.31 19.43,9.51 18.69,27.84 10.63,43.23 -8.05,15.38 -26.37,48 -43.6,78.04 -17.22,30.03 -28.95,34.8 -57.52,35.89 -28.59,1.1 -95.61,2.21 -142.16,2.21 -46.51,0 -62.64,-12.84 -78.03,-32.61 -15.38,-19.79 -62.27,-87.2 -62.27,-87.2"
             inkscape:connector-curvature="0"
             id="path90"
             style="fill:#00a650;fill-opacity:1;fill-rule:nonzero;stroke:none" /><path
             d="m 2069.48,4606.38 992.07,0 0,992.051 -992.07,0 0,-992.051 z"
             inkscape:connector-curvature="0"
             id="path92"
             style="fill:none;stroke:#231f20;stroke-width:2;stroke-linecap:butt;stroke-linejoin:miter;stroke-miterlimit:4;stroke-opacity:1;stroke-dasharray:none" /><path
             d="m 686.055,6505.75 c -34.239,0 -61.993,27.76 -61.993,62 l 0,867.93 c 0,34.24 27.754,61.99 61.993,61.99 l 867.935,0 c 34.24,0 61.99,-27.75 61.99,-61.99 l 0,-867.93 c 0,-34.24 -27.75,-62 -61.99,-62 l -867.935,0"
             inkscape:connector-curvature="0"
             id="path94"
             style="fill:#ed1c24;fill-opacity:1;fill-rule:nonzero;stroke:none" /><path
             d="m 910.762,6891.76 -18.891,-94.46 66.121,0 -18.89,94.46 -28.34,0"
             inkscape:connector-curvature="0"
             id="path96"
             style="fill:#ffffff;fill-opacity:1;fill-rule:nonzero;stroke:none" /><path
             d="m 1283.89,7356.98 0,23.62 -212.54,0 0,-54.31 -61.4,0 c -26.493,0 -51.399,-10.32 -70.138,-29.06 -18.734,-18.73 -29.05,-43.64 -29.05,-70.13 l 0,-316.45 28.34,0 0,316.45 c 0,39.13 31.718,70.85 70.848,70.85 l 61.4,0 0,-59.04 -60.91,0 c -14.128,-44.84 -21.745,-92.19 -21.745,-141.7 l 0,-472.31 259.775,0 0,472.31 c 0,49.51 -7.62,96.86 -21.75,141.7 l -60.91,0 0,59.04 c 41.98,0 82.33,-10.62 117.98,-30.58 l -0.02,26.63 c -34.91,20.48 -74.84,33.43 -117.96,36.44 l 0,17.1 118.08,9.44"
             inkscape:connector-curvature="0"
             id="path98"
             style="fill:#ffffff;fill-opacity:1;fill-rule:nonzero;stroke:none" /><g
             transform="scale(10,10)"
             id="g100"><text
               transform="matrix(1,0,0,-1,213.097,636.416)"
               id="text102"><tspan
                 x="0 7 14 21 144.578 151.578 158.36784 164.10686 169.56784"
                 y="0"
                 id="tspan104"
                 style="font-size:7px;font-variant:normal;writing-mode:lr-tb;fill:#231f20;fill-opacity:1;fill-rule:nonzero;stroke:none;font-family:TakaoPGothic;-inkscape-font-specification:TakaoPGothic-90ms-RKSJ-H">非常電話非常ボタン</tspan></text>
<text
               transform="matrix(1,0,0,-1,213.097,627.91209)"
               id="text106"><tspan
                 x="0 4.9489989 11.0602 15.23208 17.843079 22.01528 26.187162 30.359047 34.139126 37.919205 40.145378 42.37138 46.542252 48.376232 52.548115 56.720387 60.892269 65.064156 69.236427 144.57816 149.52715 155.63835 159.81023 162.42125 166.59303 170.76532 174.93719 178.71727 182.49736 184.72314 188.50322 192.67503 194.50906 196.34302 198.56918 202.74107 206.91331 209.13933 211.36526 215.53714"
                 y="0"
                 id="tspan108"
                 style="font-size:7px;font-variant:normal;font-weight:normal;writing-mode:lr-tb;fill:#231f20;fill-opacity:1;fill-rule:nonzero;stroke:none;font-family:Helvetica;-inkscape-font-specification:Helvetica">Emergency telephoneEmergency call button</tspan></text>
</g><path
             d="m 3576.75,6505.9 c -34.24,0 -61.99,27.75 -61.99,61.99 l 0,867.93 c 0,34.24 27.75,62 61.99,62 l 867.93,0 c 34.24,0 62,-27.76 62,-62 l 0,-867.93 c 0,-34.24 -27.76,-61.99 -62,-61.99 l -867.93,0"
             inkscape:connector-curvature="0"
             id="path110"
             style="fill:#ed1c24;fill-opacity:1;fill-rule:nonzero;stroke:none" /><path
             d="m 4191.55,6845.28 c 0.03,18.57 -14.62,33.65 -33.19,33.68 -14.86,0.03 -27.69,-9.6 -32.25,-22.96 l -3.48,0 c -4.33,13.31 -16.52,22.91 -31.34,22.94 -14.85,0.03 -27.74,-9.59 -32.33,-22.94 l -3.49,0 c -4.35,13.3 -16.58,22.91 -31.39,22.94 -14.85,0.02 -27.69,-9.6 -32.27,-22.94 l -1.92,0 0,123.88 c 28.42,12.69 48.28,41.19 48.28,74.27 0,21.73 -8.46,42.15 -23.82,57.5 -15.36,15.36 -35.78,23.82 -57.5,23.82 -21.72,0 -42.14,-8.46 -57.5,-23.82 -15.37,-15.35 -23.82,-35.77 -23.82,-57.5 0,-21.72 8.45,-42.14 23.82,-57.5 6.88,-6.88 14.78,-12.36 23.35,-16.33 l 0.01,-184.74 -53.79,72.64 c -9.83,15.32 -26.41,26.09 -45.95,27.79 -12.95,1.14 -25.51,-1.59 -35.96,-7.64 l 118.63,-313.79 235.57,0.11 c 31.6,44.15 50.61,97.23 50.61,155.46 l -0.27,115.13 z m -292.4,208.87 c 0,31.87 25.83,57.71 57.7,57.71 31.87,0 57.7,-25.84 57.7,-57.71 0,-19.57 -9.76,-36.86 -24.66,-47.29 l 0,39.23 c 0.03,18.57 -14.47,33.66 -33.04,33.69 -18.58,0.03 -34.12,-15 -34.15,-33.57 l 0,-38.57 c -14.28,10.51 -23.55,27.43 -23.55,46.51"
             inkscape:connector-curvature="0"
             id="path112"
             style="fill:#ffffff;fill-opacity:1;fill-rule:nonzero;stroke:none" /><path
             d="m 3636.04,7247.27 c 17.84,-9.66 42.75,-17.1 71.38,-17.1 21.94,0 42.76,4.46 42.76,25.28 0,48.34 -122.69,17.85 -122.69,112.28 0,62.47 60.97,79.57 113.02,79.57 24.91,0 49.45,-3.72 66.93,-9.67 l -4.47,-53.54 c -17.84,8.18 -37.92,11.9 -57.62,11.9 -17.48,0 -46.48,-1.49 -46.48,-24.17 0,-42.01 122.69,-13.75 122.69,-107.44 0,-67.3 -56.51,-85.52 -114.14,-85.52 -24.16,0 -54.28,3.72 -77.33,11.16 l 5.95,57.25"
             inkscape:connector-curvature="0"
             id="path114"
             style="fill:#ffffff;fill-opacity:1;fill-rule:nonzero;stroke:none" /><path
             d="m 4010.75,7447.3 c 85.51,0 130.12,-50.94 130.12,-134.22 0,-82.54 -45.35,-134.22 -130.12,-134.22 -84.77,0 -130.13,51.68 -130.13,134.22 0,83.28 44.61,134.22 130.13,134.22 z m 0,-217.13 c 42.01,0 58.74,40.15 58.74,82.91 0,44.99 -16.73,82.91 -58.74,82.91 -42.01,0 -58.74,-37.92 -58.74,-82.91 0,-42.76 16.73,-82.91 58.74,-82.91"
             inkscape:connector-curvature="0"
             id="path116"
             style="fill:#ffffff;fill-opacity:1;fill-rule:nonzero;stroke:none" /><path
             d="m 4208.11,7247.27 c 17.85,-9.66 42.75,-17.1 71.38,-17.1 21.94,0 42.76,4.46 42.76,25.28 0,48.34 -122.69,17.85 -122.69,112.28 0,62.47 60.97,79.57 113.02,79.57 24.92,0 49.45,-3.72 66.93,-9.67 l -4.47,-53.54 c -17.84,8.18 -37.92,11.9 -57.62,11.9 -17.48,0 -46.48,-1.49 -46.48,-24.17 0,-42.01 122.69,-13.75 122.69,-107.44 0,-67.3 -56.51,-85.52 -114.14,-85.52 -24.16,0 -54.28,3.72 -77.33,11.16 l 5.95,57.25"
             inkscape:connector-curvature="0"
             id="path118"
             style="fill:#ffffff;fill-opacity:1;fill-rule:nonzero;stroke:none" /><path
             d="m 2131.46,6505.9 c -34.23,0 -61.99,27.75 -61.99,61.99 l 0,867.93 c 0,34.24 27.76,62 61.99,62 l 867.94,0 c 34.24,0 62,-27.76 62,-62 l 0,-867.93 c 0,-34.24 -27.76,-61.99 -62,-61.99 l -867.94,0"
             inkscape:connector-curvature="0"
             id="path120"
             style="fill:#ed1c24;fill-opacity:1;fill-rule:nonzero;stroke:none" /><path
             d="m 2190.75,7247.27 c 17.85,-9.66 42.76,-17.1 71.39,-17.1 21.93,0 42.75,4.46 42.75,25.28 0,48.34 -122.69,17.85 -122.69,112.28 0,62.47 60.97,79.57 113.03,79.57 24.91,0 49.44,-3.72 66.92,-9.67 l -4.46,-53.54 c -17.85,8.18 -37.92,11.9 -57.63,11.9 -17.47,0 -46.48,-1.49 -46.48,-24.17 0,-42.01 122.7,-13.75 122.7,-107.44 0,-67.3 -56.51,-85.52 -114.14,-85.52 -24.17,0 -54.28,3.72 -77.34,11.16 l 5.95,57.25"
             inkscape:connector-curvature="0"
             id="path122"
             style="fill:#ffffff;fill-opacity:1;fill-rule:nonzero;stroke:none" /><path
             d="m 2565.46,7447.3 c 85.52,0 130.13,-50.94 130.13,-134.22 0,-82.54 -45.36,-134.22 -130.13,-134.22 -84.77,0 -130.12,51.68 -130.12,134.22 0,83.28 44.61,134.22 130.12,134.22 z m 0,-217.13 c 42.02,0 58.74,40.15 58.74,82.91 0,44.99 -16.72,82.91 -58.74,82.91 -42.01,0 -58.74,-37.92 -58.74,-82.91 0,-42.76 16.73,-82.91 58.74,-82.91"
             inkscape:connector-curvature="0"
             id="path124"
             style="fill:#ffffff;fill-opacity:1;fill-rule:nonzero;stroke:none" /><path
             d="m 2762.83,7247.27 c 17.84,-9.66 42.75,-17.1 71.38,-17.1 21.94,0 42.75,4.46 42.75,25.28 0,48.34 -122.69,17.85 -122.69,112.28 0,62.47 60.98,79.57 113.03,79.57 24.91,0 49.45,-3.72 66.92,-9.67 l -4.46,-53.54 c -17.85,8.18 -37.92,11.9 -57.63,11.9 -17.47,0 -46.47,-1.49 -46.47,-24.17 0,-42.01 122.69,-13.75 122.69,-107.44 0,-67.3 -56.51,-85.52 -114.14,-85.52 -24.17,0 -54.28,3.72 -77.33,11.16 l 5.95,57.25"
             inkscape:connector-curvature="0"
             id="path126"
             style="fill:#ffffff;fill-opacity:1;fill-rule:nonzero;stroke:none" /><path
             d="m 2626.69,7035 c 0,28.32 -3.73,55.64 -10.35,81.9 l -43.27,0 0,-164.67 43.27,-0.11 c 6.76,26.52 10.35,54.27 10.35,82.88"
             inkscape:connector-curvature="0"
             id="path128"
             style="fill:#ffffff;fill-opacity:1;fill-rule:nonzero;stroke:none" /><path
             d="m 2573.07,6745.53 0,-164.77 43.27,0 c 6.76,26.51 10.35,54.29 10.35,82.91 0,28.32 -3.95,55.53 -10.57,81.79 l -43.05,0.07"
             inkscape:connector-curvature="0"
             id="path130"
             style="fill:#ffffff;fill-opacity:1;fill-rule:nonzero;stroke:none" /><path
             d="m 2449.29,6848.83 c 0,-99.6 30.9,-191.98 83.63,-268.09 l 18.85,0.02 0,164.68 c -20.2,29.64 -31.83,64.71 -31.83,103.39 0,38.68 11.63,73.75 31.83,103.4 l 0,164.67 -18.85,0.02 c -52.73,-76.11 -83.63,-168.49 -83.63,-268.09"
             inkscape:connector-curvature="0"
             id="path132"
             style="fill:#ffffff;fill-opacity:1;fill-rule:nonzero;stroke:none" /><path
             d="m 311.781,509.57 0,7256.69"
             inkscape:connector-curvature="0"
             id="path134"
             style="fill:none;stroke:#231f20;stroke-width:2;stroke-linecap:butt;stroke-linejoin:miter;stroke-miterlimit:4;stroke-opacity:1;stroke-dasharray:none" /></g></g></g></g></svg>