<?xml version="1.0" encoding="UTF-8" standalone="no"?>
<!-- Created with Inkscape (http://www.inkscape.org/) -->

<svg
   xmlns:dc="http://purl.org/dc/elements/1.1/"
   xmlns:cc="http://creativecommons.org/ns#"
   xmlns:rdf="http://www.w3.org/1999/02/22-rdf-syntax-ns#"
   xmlns:svg="http://www.w3.org/2000/svg"
   xmlns="http://www.w3.org/2000/svg"
   xmlns:inkscape="http://www.inkscape.org/namespaces/inkscape"
   version="1.1"
   width="765"
   height="990"
   id="svg2"
   xml:space="preserve"><metadata
     id="metadata8"><rdf:RDF><cc:Work
         rdf:about=""><dc:format>image/svg+xml</dc:format><dc:type
           rdf:resource="http://purl.org/dc/dcmitype/StillImage" /></cc:Work></rdf:RDF></metadata><defs
     id="defs6"><clipPath
       id="clipPath18"><path
         d="m 0,0 4899.79,0 0,7920 L 0,7920 0,0 z"
         inkscape:connector-curvature="0"
         id="path20" /></clipPath></defs><g
     transform="matrix(1.25,0,0,-1.25,0,990)"
     id="g10"><g
       transform="scale(0.1,0.1)"
       id="g12"><g
         id="g14"><g
           clip-path="url(#clipPath18)"
           id="g16"><g
             transform="scale(10,10)"
             id="g22"><text
               transform="matrix(1,0,0,-1,444.75,785.505)"
               id="text24"><tspan
                 x="0 6.6719999 13.344"
                 y="0"
                 id="tspan26"
                 style="font-size:12px;font-variant:normal;font-weight:normal;writing-mode:lr-tb;fill:#231f20;fill-opacity:1;fill-rule:nonzero;stroke:none;font-family:Helvetica;-inkscape-font-specification:Helvetica">10 </tspan></text>
<text
               transform="matrix(1,0,0,-1,461.4301,785.505)"
               id="text28"><tspan
                 x="0 10.230078"
                 y="0"
                 id="tspan30"
                 style="font-size:11px;font-variant:normal;writing-mode:lr-tb;fill:#231f20;fill-opacity:1;fill-rule:nonzero;stroke:none;font-family:TakaoPGothic;-inkscape-font-specification:TakaoPGothic-90ms-RKSJ-H">項目</tspan></text>
</g><path
             d="m 135.41,7957.46 127.051,0 0,-119.22 -127.051,0 0,119.22 z m 32.324,-73.88 c 0.7,-16.79 13.149,-26.59 30.364,-26.59 14.691,0 29.66,7.42 29.66,24.91 0,10.35 -6.293,15.39 -15.391,17.91 l 0,0.56 c 7.836,3.22 12.735,7.83 12.735,16.79 0,14.97 -13.153,21.55 -26.586,21.55 -15.954,0 -28.125,-8.12 -28.403,-25.05 l 14.551,0 c 0.418,7.98 5.176,13.01 12.871,13.01 6.442,0 12.176,-3.63 12.176,-10.63 0,-9.65 -8.399,-10.92 -16.094,-10.92 l 0,-11.47 c 1.262,0.28 2.66,0.28 4.199,0.28 6.856,0 13.711,-3.5 13.711,-11.61 0,-8.54 -7.273,-12.46 -14.129,-12.46 -8.82,0 -13.156,5.6 -14.273,13.72 l -15.391,0"
             inkscape:connector-curvature="0"
             id="path32"
             style="fill:#231f20;fill-opacity:1;fill-rule:nonzero;stroke:none" /><path
             d="m 311.809,4025.2 0,3741.73"
             inkscape:connector-curvature="0"
             id="path34"
             style="fill:none;stroke:#231f20;stroke-width:2;stroke-linecap:butt;stroke-linejoin:miter;stroke-miterlimit:4;stroke-opacity:1;stroke-dasharray:none" /><path
             d="m 311.809,510.23 0,3458.27"
             inkscape:connector-curvature="0"
             id="path36"
             style="fill:none;stroke:#231f20;stroke-width:2;stroke-linecap:butt;stroke-linejoin:miter;stroke-miterlimit:4;stroke-opacity:1;stroke-dasharray:none" /><g
             transform="scale(10,10)"
             id="g38"><text
               transform="matrix(1,0,0,-1,67.6383,636.416)"
               id="text40"><tspan
                 x="0 6.0195112 10.360037 15.96031 21.62994 145.508 152.508 157.758 162.93886 169.93886 289.89716 296.12698"
                 y="0"
                 id="tspan42"
                 style="font-size:7px;font-variant:normal;writing-mode:lr-tb;fill:#231f20;fill-opacity:1;fill-rule:nonzero;stroke:none;font-family:TakaoPGothic;-inkscape-font-specification:TakaoPGothic-90ms-RKSJ-H">レストラン喫茶・軽食バー</tspan></text>
<text
               transform="matrix(1,0,0,-1,68.6183,627.91209)"
               id="text44"><tspan
                 x="0 5.3339992 9.5059977 13.285997 15.511996 19.683994 23.855993 26.466993 30.638992 34.810989 144.52759 149.86159 154.03358 156.25958 158.48558 162.65758 166.83 169.05579 172.83586 177.00786 181.17986 289.05685 294.00568 298.1777"
                 y="0"
                 id="tspan46"
                 style="font-size:7px;font-variant:normal;font-weight:normal;writing-mode:lr-tb;fill:#231f20;fill-opacity:1;fill-rule:nonzero;stroke:none;font-family:Helvetica;-inkscape-font-specification:Helvetica">RestaurantCoffee shopBar</tspan></text>
<text
               transform="matrix(1,0,0,-1,213.14599,446.49509)"
               id="text48"><tspan
                 x="0 7"
                 y="0"
                 id="tspan50"
                 style="font-size:7px;font-variant:normal;writing-mode:lr-tb;fill:#231f20;fill-opacity:1;fill-rule:nonzero;stroke:none;font-family:TakaoPGothic;-inkscape-font-specification:TakaoPGothic-90ms-RKSJ-H">会計</tspan><tspan
                 x="-144.528 -137.528"
                 y="189.92101"
                 id="tspan52"
                 style="font-size:7px;font-variant:normal;writing-mode:lr-tb;fill:#231f20;fill-opacity:1;fill-rule:nonzero;stroke:none;font-family:TakaoPGothic;-inkscape-font-specification:TakaoPGothic-90ms-RKSJ-H">店舗</tspan></text>
<text
               transform="matrix(1,0,0,-1,84.843769,256.57409)"
               id="text54"><tspan
                 x="0 2.2261693"
                 y="0"
                 id="tspan56"
                 style="font-size:7px;font-variant:normal;font-weight:normal;writing-mode:lr-tb;fill:#231f20;fill-opacity:1;fill-rule:nonzero;stroke:none;font-family:Helvetica;-inkscape-font-specification:Helvetica">/ </tspan></text>
<text
               transform="matrix(1,0,0,-1,89.29572,256.57409)"
               id="text58"><tspan
                 x="0 7 123.8503 130.8503 136.1003 141.28116 148.28116"
                 y="0"
                 id="tspan60"
                 style="font-size:7px;font-variant:normal;writing-mode:lr-tb;fill:#231f20;fill-opacity:1;fill-rule:nonzero;stroke:none;font-family:TakaoPGothic;-inkscape-font-specification:TakaoPGothic-90ms-RKSJ-H">売店新聞・雑誌</tspan></text>
</g><path
             d="M 4818.9,340.16 4818.9,0"
             inkscape:connector-curvature="0"
             id="path62"
             style="fill:none;stroke:#231f20;stroke-width:2;stroke-linecap:butt;stroke-linejoin:miter;stroke-miterlimit:4;stroke-opacity:1;stroke-dasharray:none" /><g
             transform="scale(10,10)"
             id="g64"><text
               transform="matrix(1,0,0,-1,357.675,256.574)"
               id="text66"><tspan
                 x="0 7"
                 y="0"
                 id="tspan68"
                 style="font-size:7px;font-variant:normal;writing-mode:lr-tb;fill:#231f20;fill-opacity:1;fill-rule:nonzero;stroke:none;font-family:TakaoPGothic;-inkscape-font-specification:TakaoPGothic-90ms-RKSJ-H">薬局</tspan></text>
<text
               transform="matrix(1,0,0,-1,483.307,29.764)"
               id="text70"><tspan
                 x="0 3.336"
                 y="0"
                 id="tspan72"
                 style="font-size:6px;font-variant:normal;font-weight:normal;writing-mode:lr-tb;fill:#231f20;fill-opacity:1;fill-rule:nonzero;stroke:none;font-family:Helvetica;-inkscape-font-specification:Helvetica">12</tspan></text>
</g><path
             d="M 4818.9,7795.28 0,7795.28"
             inkscape:connector-curvature="0"
             id="path74"
             style="fill:none;stroke:#231f20;stroke-width:2;stroke-linecap:butt;stroke-linejoin:miter;stroke-miterlimit:4;stroke-opacity:1;stroke-dasharray:none" /><g
             transform="scale(10,10)"
             id="g76"><text
               transform="matrix(1,0,0,-1,43.9371,785.505)"
               id="text78"><tspan
                 x="0 12 24 36 48"
                 y="0"
                 id="tspan80"
                 style="font-size:12px;font-variant:normal;writing-mode:lr-tb;fill:#231f20;fill-opacity:1;fill-rule:nonzero;stroke:none;font-family:TakaoPGothic;-inkscape-font-specification:TakaoPGothic-90ms-RKSJ-H">商業施設 </tspan></text>
<text
               transform="matrix(1,0,0,-1,103.9371,785.505)"
               id="text82"><tspan
                 x="0 9.1439962 16.295992 26.771988 37.247986 44.399979 48.875977 55.355972 58.498798 65.650757 68.794891 72.610909 80.423027 87.574997 94.054993 97.19899 100.34299 103.4867 107.3027 110.44607 117.59807"
                 y="0"
                 id="tspan84"
                 style="font-size:12px;font-variant:normal;font-weight:normal;writing-mode:lr-tb;fill:#231f20;fill-opacity:1;fill-rule:nonzero;stroke:none;font-family:Helvetica;-inkscape-font-specification:Helvetica">Commercial Facilities</tspan></text>
<text
               transform="matrix(1,0,0,-1,67.98817,446.494)"
               id="text86"><tspan
                 x="0 5.7386141 11.200137 16.450138 22.540937 28.211544 33.672539 38.363731"
                 y="0"
                 id="tspan88"
                 style="font-size:7px;font-variant:normal;writing-mode:lr-tb;fill:#231f20;fill-opacity:1;fill-rule:nonzero;stroke:none;font-family:TakaoPGothic;-inkscape-font-specification:TakaoPGothic-90ms-RKSJ-H">ガソリンスタンド</tspan></text>
<text
               transform="matrix(1,0,0,-1,213.14617,437.99127)"
               id="text90"><tspan
                 x="0 5.3339801 9.5059786 13.28593 17.457813 19.29179 23.463789"
                 y="0"
                 id="tspan92"
                 style="font-size:7px;font-variant:normal;font-weight:normal;writing-mode:lr-tb;fill:#231f20;fill-opacity:1;fill-rule:nonzero;stroke:none;font-family:Helvetica;-inkscape-font-specification:Helvetica">Cashier</tspan><tspan
                 x="-144.52821 -139.57938 -135.40738 -131.23538 -0.00038000001 5.3336005 9.5054836 14.839464 18.619543 22.791426 26.963699 31.135521 35.307518 37.918518 41.698421 43.924595 46.150379 52.261311 56.433586 60.605469 64.77774 68.557434 70.391418 74.563416 78.73542 144.52852 149.47736 153.64961 157.82161 160.43242 166.54335 170.71562 174.4957"
                 y="189.922"
                 id="tspan94"
                 style="font-size:7px;font-variant:normal;font-weight:normal;writing-mode:lr-tb;fill:#231f20;fill-opacity:1;fill-rule:nonzero;stroke:none;font-family:Helvetica;-inkscape-font-specification:Helvetica">ShopNewspapers, magazinesPharmacy</tspan><tspan
                 x="-144.52858 -138.8028 -134.6308 -130.85085 -126.67858 -124.84458 -123.01058 -118.83858 -114.66688 -112.4411 -108.6611 -106.4351 -102.2631 -100.0368 -98.20282 -94.030952"
                 y="-5.6843419e-14"
                 id="tspan96"
                 style="font-size:7px;font-variant:normal;font-weight:normal;writing-mode:lr-tb;fill:#231f20;fill-opacity:1;fill-rule:nonzero;stroke:none;font-family:Helvetica;-inkscape-font-specification:Helvetica">Gasoline station</tspan></text>
<text
               transform="matrix(1,0,0,-1,10.09637,751.47327)"
               id="text98"><tspan
                 x="0"
                 y="0"
                 id="tspan100"
                 style="font-size:12px;font-variant:normal;font-weight:normal;writing-mode:lr-tb;fill:#231f20;fill-opacity:1;fill-rule:nonzero;stroke:none;font-family:Helvetica;-inkscape-font-specification:Helvetica">B</tspan></text>
<text
               transform="matrix(1,0,0,-1,1.96981,765.21707)"
               id="text102"><tspan
                 x="0 8 16"
                 y="0"
                 id="tspan104"
                 style="font-size:8px;font-variant:normal;writing-mode:lr-tb;fill:#231f20;fill-opacity:1;fill-rule:nonzero;stroke:none;font-family:TakaoPGothic;-inkscape-font-specification:TakaoPGothic-90ms-RKSJ-H">推奨度</tspan></text>
<text
               transform="matrix(1,0,0,-1,9.76629,371.63107)"
               id="text106"><tspan
                 x="0"
                 y="0"
                 id="tspan108"
                 style="font-size:12px;font-variant:normal;font-weight:normal;writing-mode:lr-tb;fill:#231f20;fill-opacity:1;fill-rule:nonzero;stroke:none;font-family:Helvetica;-inkscape-font-specification:Helvetica">C</tspan></text>
</g><path
             d="m 1458.53,5184.67 -161.4,161.27 0,109.81 c -64.06,16.16 -131.51,24.74 -200.59,24.74 -69.29,0 -136.517,-8.64 -200.759,-24.89 l 0.031,-730.81 401.318,0 0,87.93 c 18.38,-12.41 40.02,-19.1 62.69,-19.1 61.91,0 112.28,50.37 112.28,112.28 l 0,245.63 c 0,12.91 -5.18,24.61 -13.57,33.14 z m -210.99,27.4 -302.134,0 -0.023,203.9 c 49.543,9.9 100.227,14.93 151.157,14.93 50.96,0 101.59,-4.99 151,-14.82 l 0,-204.01 z M 1422.5,4905.9 c 0,-34.56 -28.12,-62.68 -62.68,-62.68 -16.74,0 -32.49,6.52 -44.33,18.36 -11.83,11.84 -18.36,27.58 -18.36,44.32 l 0,369.9 125.37,-125.25 0,-244.65"
             inkscape:connector-curvature="0"
             id="path110"
             style="fill:#231f20;fill-opacity:1;fill-rule:nonzero;stroke:none" /><path
             d="m 686.184,4606.68 c -34.243,0 -62,27.76 -62,62 l 0,867.94 c 0,34.23 27.757,61.99 62,61.99 l 867.926,0 c 34.24,0 62,-27.76 62,-62 l 0,-867.93 c 0,-34.24 -27.76,-62 -62,-62 l -867.926,0 z"
             inkscape:connector-curvature="0"
             id="path112"
             style="fill:none;stroke:#231f20;stroke-width:2;stroke-linecap:butt;stroke-linejoin:miter;stroke-miterlimit:4;stroke-opacity:1;stroke-dasharray:none" /><path
             d="m 4192.38,6725.35 0.33,-54.12 -363.44,0 -0.08,54.8 c 49.01,9.73 99.42,15.54 150.89,17.14 l 0,279.79 -259.59,309.51 581.01,0 -259.61,-309.51 0,-279.91 c 51.35,-1.81 101.63,-7.81 150.49,-17.7 z m -135.56,383.28 c 25.96,0 46.97,21.01 46.97,46.98 0,25.95 -21.01,46.97 -46.97,46.97 -25.96,0 -46.98,-21.02 -46.98,-46.97 0,-25.97 21.02,-46.98 46.98,-46.98"
             inkscape:connector-curvature="0"
             id="path114"
             style="fill:#231f20;fill-opacity:1;fill-rule:nonzero;stroke:none" /><path
             d="m 3576.75,6505.9 c -34.24,0 -61.99,27.76 -61.99,61.99 l 0,867.93 c 0,34.24 27.75,62 61.99,62 l 867.93,0 c 34.24,0 62,-27.76 62,-62 l 0,-867.93 c 0,-34.23 -27.76,-61.99 -62,-61.99 l -867.93,0 z"
             inkscape:connector-curvature="0"
             id="path116"
             style="fill:none;stroke:#231f20;stroke-width:2;stroke-linecap:butt;stroke-linejoin:miter;stroke-miterlimit:4;stroke-opacity:1;stroke-dasharray:none" /><g
             transform="scale(10,10)"
             id="g118"><text
               transform="matrix(1,0,0,-1,1.97109,385.376)"
               id="text120"><tspan
                 x="0 8 16"
                 y="0"
                 id="tspan122"
                 style="font-size:8px;font-variant:normal;writing-mode:lr-tb;fill:#231f20;fill-opacity:1;fill-rule:nonzero;stroke:none;font-family:TakaoPGothic;-inkscape-font-specification:TakaoPGothic-90ms-RKSJ-H">推奨度</tspan></text>
</g><path
             d="m 2184.13,6833.87 c 0,-22.86 7.87,-53.12 21.04,-71.36 l 719.79,0 c 13.17,18.24 21.04,48.5 21.04,71.36 l -761.87,0"
             inkscape:connector-curvature="0"
             id="path124"
             style="fill:#231f20;fill-opacity:1;fill-rule:nonzero;stroke:none" /><path
             d="m 2731.85,6858.67 c 8.43,32.54 15.72,65.55 21.9,98.94 7.92,-1.45 16.08,-2.25 24.42,-2.25 74.18,0 134.32,60.13 134.32,134.31 0,74.18 -60.14,134.31 -134.32,134.31 l -431.85,0 c 0,-126.18 16.09,-248.59 46.32,-365.31 l 339.21,0 z m 45.58,318.54 c 0.25,0 0.49,0.02 0.74,0.02 48.36,0 87.57,-39.2 87.57,-87.56 0,-48.36 -39.21,-87.57 -87.57,-87.57 -5.69,0 -11.25,0.56 -16.64,1.6 8.65,56.83 14.04,114.73 15.9,173.51"
             inkscape:connector-curvature="0"
             id="path126"
             style="fill:#231f20;fill-opacity:1;fill-rule:nonzero;stroke:none" /><path
             d="m 2131.46,6505.9 c -34.23,0 -61.99,27.76 -61.99,61.99 l 0,867.93 c 0,34.24 27.76,62 61.99,62 l 867.94,0 c 34.24,0 62,-27.76 62,-62 l 0,-867.93 c 0,-34.23 -27.76,-61.99 -62,-61.99 l -867.94,0 z"
             inkscape:connector-curvature="0"
             id="path128"
             style="fill:none;stroke:#231f20;stroke-width:2;stroke-linecap:butt;stroke-linejoin:miter;stroke-miterlimit:4;stroke-opacity:1;stroke-dasharray:none" /><path
             d="m 686.184,6505.9 c -34.25,0 -62.012,27.76 -62.012,62.01 l 0,868.19 c 0,34.25 27.762,62.01 62.012,62.01 l 868.186,0 c 34.25,0 62.01,-27.76 62.01,-62.01 l 0,-868.19 c 0,-34.25 -27.76,-62.01 -62.01,-62.01 l -868.186,0 z"
             inkscape:connector-curvature="0"
             id="path130"
             style="fill:none;stroke:#231f20;stroke-width:2;stroke-linecap:butt;stroke-linejoin:miter;stroke-miterlimit:4;stroke-opacity:1;stroke-dasharray:none" /><path
             d="m 1277.29,7397.73 c -52.23,0 -94.58,-42.35 -94.58,-94.58 l 0,-318.95 c 0,-35.91 20.01,-67.14 49.49,-83.16 l 0,-292.34 61.57,0 0,787.45 c -5.31,0.94 -10.89,1.58 -16.48,1.58"
             inkscape:connector-curvature="0"
             id="path132"
             style="fill:#231f20;fill-opacity:1;fill-rule:nonzero;stroke:none" /><path
             d="m 1086.37,7205.5 c 0,4.56 -0.19,9.07 -0.58,13.52 l -14.77,177.18 -24.97,0 0,-192.63 -21.89,0 0,192.59 -24.805,0 0,-192.59 -21.894,0 0,192.59 -24.801,0 0,-192.59 -21.89,0 0,192.63 -24.965,0 -15.184,-174.85 c -0.527,-5.21 -0.797,-10.49 -0.797,-15.85 0,-53.17 26.879,-100.1 67.731,-128.01 l 0,-468.79 62.155,0 -0.17,469.49 c 40.34,27.97 66.83,74.54 66.83,127.31"
             inkscape:connector-curvature="0"
             id="path134"
             style="fill:#231f20;fill-opacity:1;fill-rule:nonzero;stroke:none" /><path
             d="m 3576.75,2707.47 c -34.26,0 -62.04,27.78 -62.04,62.05 l 0,868.65 c 0,34.27 27.78,62.04 62.04,62.04 l 868.65,0 c 34.27,0 62.05,-27.77 62.05,-62.04 l 0,-868.65 c 0,-34.27 -27.78,-62.05 -62.05,-62.05 l -868.65,0 z"
             inkscape:connector-curvature="0"
             id="path136"
             style="fill:none;stroke:#231f20;stroke-width:2;stroke-linecap:butt;stroke-linejoin:miter;stroke-miterlimit:4;stroke-opacity:1;stroke-dasharray:none" /><path
             d="m 3726.09,3461.57 170.082,0 0,120.441 -170.082,0 0,-120.441 z"
             inkscape:connector-curvature="0"
             id="path138"
             style="fill:#231f20;fill-opacity:1;fill-rule:nonzero;stroke:none" /><path
             d="m 3903.53,3442.96 -184.79,0 c -45.8,-59.72 -73.05,-134.41 -73.05,-215.49 l 0,-401.79 330.89,0 0,401.79 c 0,81.08 -27.25,155.77 -73.05,215.49 z m 22.25,-277.23 -76.43,0 0,-76.43 -76.43,0 0,76.43 -76.44,0 0,76.44 76.44,0 0,76.43 76.43,0 0,-76.43 76.43,0 0,-76.44"
             inkscape:connector-curvature="0"
             id="path140"
             style="fill:#231f20;fill-opacity:1;fill-rule:nonzero;stroke:none" /><path
             d="m 4344.82,3446.54 -265.33,0 c -24.31,0 -44.02,-19.71 -44.02,-44.02 l 0,-533.89 c 0,-24.31 19.71,-44.02 44.02,-44.02 l 265.33,0 c 24.32,0 44.02,19.71 44.02,44.02 l 0,533.89 c 0,24.31 -19.7,44.02 -44.02,44.02 z m 25.42,-577.91 c 0,-14.04 -11.38,-25.42 -25.42,-25.42 l -265.33,0 c -14.04,0 -25.42,11.38 -25.42,25.42 l 0,533.89 c 0,14.04 11.38,25.42 25.42,25.42 l 265.33,0 c 14.04,0 25.42,-11.38 25.42,-25.42 l 0,-533.89"
             inkscape:connector-curvature="0"
             id="path142"
             style="fill:#231f20;fill-opacity:1;fill-rule:nonzero;stroke:none" /><path
             d="m 4284.74,3013.26 -145.17,-0.01 c -26.36,0 -47.73,-21.37 -47.73,-47.74 0,-26.36 21.37,-47.73 47.73,-47.73 l 145.17,0.01 c 26.37,0 47.74,21.37 47.74,47.74 0,26.36 -21.37,47.73 -47.74,47.73 z m -75.76,-77 -69.29,-0.01 c -16.13,0 -29.26,13.13 -29.26,29.26 0,7.82 3.05,15.17 8.57,20.69 5.53,5.53 12.88,8.57 20.69,8.57 0,0 62.38,0.01 69.3,0.01 4.22,-9.11 6.45,-19.15 6.45,-29.26 0,-10.11 -2.23,-20.15 -6.46,-29.26"
             inkscape:connector-curvature="0"
             id="path144"
             style="fill:#231f20;fill-opacity:1;fill-rule:nonzero;stroke:none" /><path
             d="m 4284.74,3183.32 -145.17,-0.02 c -26.36,0 -47.73,-21.37 -47.73,-47.73 0,-26.36 21.37,-47.73 47.73,-47.73 l 145.17,0.01 c 26.37,0 47.74,21.37 47.74,47.73 0,26.37 -21.37,47.74 -47.74,47.74 z m -75.76,-77 -69.29,-0.01 c -16.13,0 -29.26,13.13 -29.26,29.26 0,7.81 3.05,15.16 8.57,20.69 5.53,5.53 12.88,8.57 20.69,8.57 0,0 62.38,0 69.3,0 4.22,-9.1 6.45,-19.14 6.45,-29.26 0,-10.1 -2.23,-20.14 -6.46,-29.25"
             inkscape:connector-curvature="0"
             id="path146"
             style="fill:#231f20;fill-opacity:1;fill-rule:nonzero;stroke:none" /><path
             d="m 4284.74,3353.37 -145.17,-0.01 c -26.36,0 -47.73,-21.37 -47.73,-47.74 0,-26.36 21.37,-47.74 47.73,-47.74 l 145.17,0.01 c 26.37,0 47.74,21.38 47.74,47.74 0,26.37 -21.37,47.74 -47.74,47.74 z m -75.76,-77 -69.29,-0.01 c -16.13,0 -29.26,13.13 -29.26,29.26 0,7.82 3.05,15.16 8.57,20.69 5.53,5.52 12.88,8.57 20.69,8.57 0,0 62.38,0 69.3,0 4.22,-9.1 6.45,-19.14 6.45,-29.26 0,-10.1 -2.23,-20.14 -6.46,-29.25"
             inkscape:connector-curvature="0"
             id="path148"
             style="fill:#231f20;fill-opacity:1;fill-rule:nonzero;stroke:none" /><path
             d="m 2565.35,4576.08 c 291.03,0 526.96,235.93 526.96,526.95 0,291.03 -235.93,526.96 -526.96,526.96 -291.02,0 -526.95,-235.93 -526.95,-526.96 0,-291.02 235.93,-526.95 526.95,-526.95 z"
             inkscape:connector-curvature="0"
             id="path150"
             style="fill:none;stroke:#231f20;stroke-width:2;stroke-linecap:butt;stroke-linejoin:miter;stroke-miterlimit:4;stroke-opacity:1;stroke-dasharray:none" /><path
             d="m 2473.84,4865.87 -150.6,0 0,85.47 150.6,0 0,43.76 -9.15,19.33 -141.45,0 0,85.48 98.71,0 -167.9,337.84 189.27,0 122.1,-286.96 120.08,286.96 191.3,0 -167.89,-337.84 98.7,0 0,-85.48 -140.43,0 -10.17,-19.33 0,-43.76 150.6,0 0,-85.47 -150.6,0 0,-138.4 -183.17,0 0,138.4"
             inkscape:connector-curvature="0"
             id="path152"
             style="fill:#231f20;fill-opacity:1;fill-rule:nonzero;stroke:none" /><path
             d="m 686.895,2708.45 c -34.262,0 -62.04,27.77 -62.04,62.04 l 0,868.61 c 0,34.26 27.778,62.04 62.04,62.04 l 868.605,0 c 34.27,0 62.04,-27.78 62.04,-62.04 l 0,-868.61 c 0,-34.27 -27.77,-62.04 -62.04,-62.04 l -868.605,0 z"
             inkscape:connector-curvature="0"
             id="path154"
             style="fill:none;stroke:#231f20;stroke-width:2;stroke-linecap:butt;stroke-linejoin:miter;stroke-miterlimit:4;stroke-opacity:1;stroke-dasharray:none" /><path
             d="m 1279.55,3461.06 0,47.27 c 0,65.26 -52.91,118.17 -118.17,118.17 -65.26,0 -118.17,-52.91 -118.17,-118.17 l 0,-47.27 -163.48,0 0,-102.2 49.633,0 0,52.56 464.017,0 0,-511.5 -252.49,0 0,-49.63 302.13,0 0,610.77 -163.47,0 z m -49.64,0 -137.07,0 0,47.27 c 0,18.3 7.13,35.52 20.08,48.46 12.94,12.95 30.15,20.07 48.46,20.07 18.3,0 35.51,-7.12 48.45,-20.07 12.95,-12.94 20.08,-30.16 20.08,-48.46 l 0,-47.27"
             inkscape:connector-curvature="0"
             id="path156"
             style="fill:#231f20;fill-opacity:1;fill-rule:nonzero;stroke:none" /><path
             d="m 1003.85,2812.47 112.22,0 0,160.31 -112.22,-160.31"
             inkscape:connector-curvature="0"
             id="path158"
             style="fill:#231f20;fill-opacity:1;fill-rule:nonzero;stroke:none" /><path
             d="m 785.551,3180.81 0,-160.31 112.222,160.31 -112.222,0"
             inkscape:connector-curvature="0"
             id="path160"
             style="fill:#231f20;fill-opacity:1;fill-rule:nonzero;stroke:none" /><path
             d="m 1003.49,3180.81 97.07,56.03 -21.7,37.59 -83.926,-48.44 32.056,88.03 -40.779,14.85 -35.574,-97.69 -35.582,97.69 -40.782,-14.85 32.059,-88.03 -83.926,48.44 -21.699,-37.59 97.066,-56.03 53.039,0.09 -165.261,-236.07 0,-132.36 165.324,0 165.195,235.98 0,132.36 -112.58,0"
             inkscape:connector-curvature="0"
             id="path162"
             style="fill:#231f20;fill-opacity:1;fill-rule:nonzero;stroke:none" /><path
             d="M 4818.9,3996.85 0,3996.85"
             inkscape:connector-curvature="0"
             id="path164"
             style="fill:none;stroke:#231f20;stroke-width:2;stroke-linecap:butt;stroke-linejoin:miter;stroke-miterlimit:4;stroke-opacity:1;stroke-dasharray:none" /><g
             transform="scale(10,10)"
             id="g166"><text
               transform="matrix(1,0,0,-1,213.104,66.9582)"
               id="text168"><tspan
                 x="0 7 14 21 28 -144.528 -137.528"
                 y="0"
                 id="tspan170"
                 style="font-size:7px;font-variant:normal;writing-mode:lr-tb;fill:#231f20;fill-opacity:1;fill-rule:nonzero;stroke:none;font-family:TakaoPGothic;-inkscape-font-specification:TakaoPGothic-90ms-RKSJ-H">手荷物託配理容</tspan></text>
<text
               transform="matrix(1,0,0,-1,84.802169,66.9582)"
               id="text172"><tspan
                 x="0 2.2257788"
                 y="0"
                 id="tspan174"
                 style="font-size:7px;font-variant:normal;font-weight:normal;writing-mode:lr-tb;fill:#231f20;fill-opacity:1;fill-rule:nonzero;stroke:none;font-family:Helvetica;-inkscape-font-specification:Helvetica">/ </tspan></text>
<text
               transform="matrix(1,0,0,-1,89.25412,66.9582)"
               id="text176"><tspan
                 x="0 7"
                 y="0"
                 id="tspan178"
                 style="font-size:7px;font-variant:normal;writing-mode:lr-tb;fill:#231f20;fill-opacity:1;fill-rule:nonzero;stroke:none;font-family:TakaoPGothic;-inkscape-font-specification:TakaoPGothic-90ms-RKSJ-H">美容</tspan></text>
<text
               transform="matrix(1,0,0,-1,213.10412,58.4539)"
               id="text180"><tspan
                 x="0 4.9492245 9.1210899 13.293089 17.465231 21.637114 25.808996 29.98127 32.207054 36.37933 40.551128 42.385128 44.219101 47.99918 52.171181 54.78199 58.562069 60.788239 64.568237 68.740234 71.351143 75.131218 76.965187 80.744888"
                 y="0"
                 id="tspan182"
                 style="font-size:7px;font-variant:normal;font-weight:normal;writing-mode:lr-tb;fill:#231f20;fill-opacity:1;fill-rule:nonzero;stroke:none;font-family:Helvetica;-inkscape-font-specification:Helvetica">Baggage delivery service</tspan></text>
</g><path
             d="m 1194.64,1709 c -6.52,0 -11.81,-5.29 -11.81,-11.81 0,-6.52 5.29,-11.81 11.81,-11.81 l 80.32,0 0,-23.3 -80.32,0 c -6.52,0 -11.81,-5.28 -11.81,-11.81 0,-6.52 5.29,-11.81 11.81,-11.81 l 80.32,0 0,-23.29 -80.32,0 c -6.52,0 -11.81,-5.29 -11.81,-11.81 0,-6.53 5.29,-11.81 11.81,-11.81 l 80.32,0 0,-23.3 -80.32,0 c -6.52,0 -11.81,-5.29 -11.81,-11.81 0,-6.52 5.29,-11.81 11.81,-11.81 l 80.32,0 0,-23.3 -80.32,0 c -6.52,0 -11.81,-5.29 -11.81,-11.81 0,-6.52 5.29,-11.81 11.81,-11.81 l 80.32,0 0,-23.29 -80.32,0 c -6.52,0 -11.81,-5.29 -11.81,-11.81 0,-6.53 5.29,-11.82 11.81,-11.82 l 80.32,0 0,-23.29 -80.32,0 c -6.52,0 -11.81,-5.29 -11.81,-11.81 0,-6.53 5.29,-11.81 11.81,-11.81 l 80.32,0 0,-23.3 -80.32,0 c -6.52,0 -11.81,-5.29 -11.81,-11.81 0,-6.53 5.29,-11.81 11.81,-11.81 l 80.32,0 0,-23.3 -80.32,0 c -6.52,0 -11.81,-5.29 -11.81,-11.82 0,-6.51 5.29,-11.8 11.81,-11.8 l 80.32,0 0,-23.3 -80.32,0 c -6.52,0 -11.81,-5.29 -11.81,-11.81 0,-6.53 5.29,-11.82 11.81,-11.82 l 14.98,0 c 36.05,0 65.8,-26.92 70.27,-61.75 l 23.41,-281.348 28.35,0 0,765.158 c 0,13.05 -10.58,23.63 -23.62,23.63 l -113.39,0.2"
             inkscape:connector-curvature="0"
             id="path184"
             style="fill:#231f20;fill-opacity:1;fill-rule:nonzero;stroke:none" /><path
             d="m 974.148,1224.96 c -7.156,7.16 -16.21,11.74 -26.027,13.28 -0.988,-4.04 -1.48,-7.95 -2.871,-11.81 l -46.711,-130.64 c -3.371,0.42 -6.805,0.66 -10.297,0.66 -45.664,0 -82.68,-37.01 -82.68,-82.67 0,-45.671 37.016,-82.678 82.68,-82.678 45.66,0 82.676,37.007 82.676,82.678 0,28.91 -14.856,54.34 -37.332,69.12 l 48.051,132.37 c -2.035,3.49 -4.547,6.76 -7.489,9.69 z m -31.574,-211.18 c 0,-29.96 -24.375,-54.339 -54.332,-54.339 -14.512,0 -28.16,5.661 -38.418,15.918 -10.262,10.262 -15.914,23.903 -15.914,38.421 0,14.51 5.652,28.15 15.914,38.42 10.258,10.25 23.906,15.91 38.418,15.91 14.512,0 28.153,-5.66 38.418,-15.91 10.258,-10.27 15.914,-23.91 15.914,-38.42"
             inkscape:connector-curvature="0"
             id="path186"
             style="fill:#231f20;fill-opacity:1;fill-rule:nonzero;stroke:none" /><path
             d="m 1162.3,920.27 c -6.49,6.5 -11.13,14.351 -13.67,22.921 23.76,14.52 39.62,40.7 39.62,70.589 0,45.66 -37.02,82.67 -82.68,82.67 -4.93,0 -9.74,-0.45 -14.43,-1.28 l -47.02,131.46 c -3.81,10.64 -6.14,21.98 -6.73,33.78 l -15.05,447.66 c -8.53,3.64 -17.93,5.66 -27.797,5.66 -9.785,0 -19.109,-1.98 -27.586,-5.57 l -14.949,-446.62 c 24.68,-3.95 45.109,-20.63 54.332,-43.1 l 50.39,-137.96 c -20.51,-15.05 -33.84,-39.31 -33.84,-66.7 0,-45.671 37.02,-82.678 82.68,-82.678 5.7,0 11.26,0.57 16.64,1.668 10.88,-32.958 41.91,-56.758 78.51,-56.758 l 0,28.347 c -14.51,0 -28.16,5.653 -38.42,15.911 z m -56.73,39.171 c -14.52,0 -28.16,5.661 -38.42,15.918 -10.26,10.262 -15.91,23.903 -15.91,38.421 0,14.51 5.65,28.15 15.91,38.42 10.26,10.25 23.9,15.91 38.42,15.91 14.51,0 28.16,-5.66 38.41,-15.91 10.27,-10.27 15.92,-23.91 15.92,-38.42 0,-29.96 -24.37,-54.339 -54.33,-54.339"
             inkscape:connector-curvature="0"
             id="path188"
             style="fill:#231f20;fill-opacity:1;fill-rule:nonzero;stroke:none" /><path
             d="m 686.129,811.309 c -34.25,0 -62.012,27.773 -62.012,62.011 l 0,868.19 c 0,34.25 27.762,62.02 62.012,62.02 l 868.191,0 c 34.25,0 62.01,-27.77 62.01,-62.02 l 0,-868.19 c 0,-34.238 -27.76,-62.011 -62.01,-62.011 l -868.191,0 z"
             inkscape:connector-curvature="0"
             id="path190"
             style="fill:none;stroke:#231f20;stroke-width:2;stroke-linecap:butt;stroke-linejoin:miter;stroke-miterlimit:4;stroke-opacity:1;stroke-dasharray:none" /><path
             d="m 2730.98,921.902 0,415.508 -72.5,0.01 0,70.36 -10.47,2.45 c -27,6.36 -54.67,9.58 -82.25,9.58 -27.72,0 -55.38,-3.22 -82.22,-9.58 l -10.45,-2.48 0,-70.32 -72.5,0 0,-415.508 330.39,-0.02 z m 95.96,-0.011 c 19.67,0 35.62,15.949 35.62,35.609 l -0.1,344.29 c 0,19.67 -15.95,35.62 -35.61,35.62 l -61.75,0 0,-415.508 61.84,-0.011 z M 2304.6,1337.44 c -19.66,0 -35.61,-15.95 -35.61,-35.62 l -0.02,-344.281 c -0.01,-19.668 15.94,-35.617 35.61,-35.617 l 61.88,0 0,415.508 -61.86,0.01 z m 319.76,-0.02 -117.15,0.01 0,42.9 c 19.26,3.54 38.88,5.36 58.55,5.36 19.58,0 39.21,-1.82 58.6,-5.39 l 0,-42.88"
             inkscape:connector-curvature="0"
             id="path192"
             style="fill:#231f20;fill-opacity:1;fill-rule:nonzero;stroke:none" /><path
             d="m 2131.92,811.309 c -34.22,0 -61.97,27.753 -61.97,61.98 l 0,867.681 c 0,34.23 27.75,61.98 61.97,61.98 l 867.68,0 c 34.23,0 61.98,-27.75 61.98,-61.98 l 0,-867.681 c 0,-34.227 -27.75,-61.98 -61.98,-61.98 l -867.68,0 z"
             inkscape:connector-curvature="0"
             id="path194"
             style="fill:none;stroke:#231f20;stroke-width:2;stroke-linecap:butt;stroke-linejoin:miter;stroke-miterlimit:4;stroke-opacity:1;stroke-dasharray:none" /><path
             d="m 2779.01,1491.57 -49.24,0 0,-3.28 c 0,-19.46 -15.79,-35.24 -35.25,-35.24 -19.46,0 -35.24,15.78 -35.24,35.24 l 0,3.28 -194.29,0 0,-3.28 c 0,-19.46 -15.79,-35.24 -35.25,-35.24 -19.47,0 -35.25,15.78 -35.25,35.24 l 0,3.28 -59.1,0 0,64.2 1.06,2.39 53.92,121.34 -0.05,-0.12 c 5.86,13.55 19.18,22.3 33.93,22.3 l 317.81,0 c 9.87,0 19.15,-3.84 26.13,-10.82 6.98,-6.98 10.82,-16.26 10.82,-26.13 l 0,-173.16 z m -397.39,107.68 66.86,0 0,77.8 -24.23,0 c -4.92,0 -9.36,-2.92 -11.32,-7.44 l -0.02,-0.06 -0.02,-0.05 -31.27,-70.25"
             inkscape:connector-curvature="0"
             id="path196"
             style="fill:#231f20;fill-opacity:1;fill-rule:nonzero;stroke:none" /><path
             d="m 2127.77,2707.41 c -34.23,0 -61.98,27.75 -61.98,61.97 l 0,867.69 c 0,34.23 27.75,61.98 61.98,61.98 l 867.68,0 c 34.24,0 61.99,-27.75 61.99,-61.98 l 0,-867.69 c 0,-34.22 -27.75,-61.97 -61.99,-61.97 l -867.68,0 z"
             inkscape:connector-curvature="0"
             id="path198"
             style="fill:none;stroke:#231f20;stroke-width:2;stroke-linecap:butt;stroke-linejoin:miter;stroke-miterlimit:4;stroke-opacity:1;stroke-dasharray:none" /><path
             d="m 2301.45,3418.74 36.51,0 36.37,-92.27 0.3,0 -0.46,92.27 26.2,0 0,-135.87 -35.59,0 -37.61,92.85 -0.3,0 0.92,-92.85 -26.34,0 0,135.87"
             inkscape:connector-curvature="0"
             id="path200"
             style="fill:#231f20;fill-opacity:1;fill-rule:nonzero;stroke:none" /><path
             d="m 2415.45,3418.74 75.82,0 0,-25.69 -47.15,0 0,-28.03 44.53,0 0,-25.7 -44.53,0 0,-30.76 48.83,0 0,-25.69 -77.5,0 0,135.87"
             inkscape:connector-curvature="0"
             id="path202"
             style="fill:#231f20;fill-opacity:1;fill-rule:nonzero;stroke:none" /><path
             d="m 2496.95,3418.74 29.28,0 13.86,-104.34 0.31,0 14.48,104.34 36.37,0 15.1,-104.34 0.31,0 14.01,104.34 27.9,0 -24.04,-135.87 -36.83,0 -15.25,104.34 -0.31,0 -14.18,-104.34 -37.13,0 -23.88,135.87"
             inkscape:connector-curvature="0"
             id="path204"
             style="fill:#231f20;fill-opacity:1;fill-rule:nonzero;stroke:none" /><path
             d="m 2655.51,3316.35 c 7.4,-5.06 17.72,-8.96 29.58,-8.96 9.1,0 17.73,2.34 17.73,13.24 0,25.31 -50.86,9.35 -50.86,58.79 0,32.71 25.28,41.66 46.85,41.66 10.32,0 20.5,-1.95 27.74,-5.06 l -1.85,-28.03 c -7.4,4.28 -15.72,6.23 -23.88,6.23 -7.25,0 -19.27,-0.78 -19.27,-12.66 0,-21.99 50.85,-7.2 50.85,-56.26 0,-35.23 -23.42,-44.77 -47.31,-44.77 -10.01,0 -22.49,1.94 -32.05,5.84 l 2.47,29.98"
             inkscape:connector-curvature="0"
             id="path206"
             style="fill:#231f20;fill-opacity:1;fill-rule:nonzero;stroke:none" /><path
             d="m 2911.63,3212.38 c -34.93,0 -69.3,-4.85 -102.33,-14.2 l 0,314.97 -105.03,0 0,90.88 -483.58,-90.88 0,-681.62 49.56,0 0,632.06 489.49,0 0,-283.31 c -18.17,-8.06 -35.77,-17.54 -52.59,-28.5 -60.83,39.64 -131.48,60.6 -204.45,60.6 l -3.09,0 0,-377.95 3.09,0 c 74.07,0 144.07,-24.08 202.45,-69.63 l 1.9,-1.48 1.91,1.48 c 58.37,45.55 128.45,69.63 202.67,69.63 l 3.11,0 0,377.95 -3.11,0 z m -226.14,-382.12 c -44,24.62 -92.35,40.02 -142.51,45.38 l 0,290.95 c 51.11,-6.18 99.51,-24.15 142.51,-52.99 l 0,-283.34 z m 185.87,45.38 c -50.17,-5.36 -98.52,-20.75 -142.5,-45.35 l 0,283.47 c 42.97,28.76 91.35,46.68 142.5,52.84 l 0,-290.96"
             inkscape:connector-curvature="0"
             id="path208"
             style="fill:#231f20;fill-opacity:1;fill-rule:nonzero;stroke:none" /><g
             transform="scale(10,10)"
             id="g210"><text
               transform="matrix(1,0,0,-1,68.5762,58.4539)"
               id="text212"><tspan
                 x="0 4.9488301 9.1208286 11.73203 15.90391 20.075909 22.68672 24.912889 27.138668 29.364838 34.313721 38.485718 42.657719 46.829716 49.05592 52.835999 55.061779 58.841778 63.013729 64.84771 69.019974"
                 y="0"
                 id="tspan214"
                 style="font-size:7px;font-variant:normal;font-weight:normal;writing-mode:lr-tb;fill:#231f20;fill-opacity:1;fill-rule:nonzero;stroke:none;font-family:Helvetica;-inkscape-font-specification:Helvetica">Barber / Beauty salon</tspan></text>
<text
               transform="matrix(1,0,0,-1,208.77193,426.4279)"
               id="text216"><tspan
                 x="0 4.1999998 9.310154 13.510154 14.840231 19.040232 20.580076 24.780077"
                 y="0"
                 id="tspan218"
                 style="font-size:7px;font-variant:normal;writing-mode:lr-tb;fill:#231f20;fill-opacity:1;fill-rule:nonzero;stroke:none;font-family:Ryumin-Light-90ms-RKSJ;-inkscape-font-specification:Ryumin-Light-90ms-RKSJ-H">mQn</tspan></text>
<text
               transform="matrix(1,0,0,-1,230.47193,426.4279)"
               id="text220"><tspan
                 x="0 7.0716801 14.07168 21.07168 28.07168 35.071678 40.741604 47.181175 53.411255 59.851917 63.351776 70.422089"
                 y="0"
                 id="tspan222"
                 style="font-size:7px;font-variant:normal;writing-mode:lr-tb;fill:#231f20;fill-opacity:1;fill-rule:nonzero;stroke:none;font-family:TakaoPGothic;-inkscape-font-specification:TakaoPGothic-90ms-RKSJ-H">（通貨記号差し替え 可）</tspan></text>
</g></g></g></g></g></svg>