<?xml version="1.0" encoding="UTF-8" standalone="no"?>
<!-- Created with Inkscape (http://www.inkscape.org/) -->

<svg
   xmlns:dc="http://purl.org/dc/elements/1.1/"
   xmlns:cc="http://creativecommons.org/ns#"
   xmlns:rdf="http://www.w3.org/1999/02/22-rdf-syntax-ns#"
   xmlns:svg="http://www.w3.org/2000/svg"
   xmlns="http://www.w3.org/2000/svg"
   xmlns:inkscape="http://www.inkscape.org/namespaces/inkscape"
   version="1.1"
   width="765"
   height="990"
   id="svg2"
   xml:space="preserve"><metadata
     id="metadata8"><rdf:RDF><cc:Work
         rdf:about=""><dc:format>image/svg+xml</dc:format><dc:type
           rdf:resource="http://purl.org/dc/dcmitype/StillImage" /></cc:Work></rdf:RDF></metadata><defs
     id="defs6"><clipPath
       id="clipPath18"><path
         d="m 0,0 4899.79,0 0,7920 L 0,7920 0,0 z"
         inkscape:connector-curvature="0"
         id="path20" /></clipPath></defs><g
     transform="matrix(1.25,0,0,-1.25,0,990)"
     id="g10"><g
       transform="scale(0.1,0.1)"
       id="g12"><g
         id="g14"><g
           clip-path="url(#clipPath18)"
           id="g16"><g
             transform="scale(10,10)"
             id="g22"><text
               transform="matrix(1,0,0,-1,43.9371,785.505)"
               id="text24"><tspan
                 x="0 12 24"
                 y="0"
                 id="tspan26"
                 style="font-size:12px;font-variant:normal;writing-mode:lr-tb;fill:#231f20;fill-opacity:1;fill-rule:nonzero;stroke:none;font-family:TakaoPGothic;-inkscape-font-specification:TakaoPGothic-90ms-RKSJ-H">指示 </tspan></text>
<text
               transform="matrix(1,0,0,-1,79.9371,785.505)"
               id="text28"><tspan
                 x="0 10.475996 17.627993 24.779987 31.931984 39.083981 42.899975 50.051971 54.527969"
                 y="0"
                 id="tspan30"
                 style="font-size:12px;font-variant:normal;font-weight:normal;writing-mode:lr-tb;fill:#231f20;fill-opacity:1;fill-rule:nonzero;stroke:none;font-family:Helvetica;-inkscape-font-specification:Helvetica">Mandatory</tspan></text>
</g><path
             d="m 135.414,7957.46 127.051,0 0,-119.22 -127.051,0 0,119.22 z m 63.524,-100.47 c 18.05,0 31.066,8.96 31.066,23.79 0,9.93 -6.301,17.35 -15.816,19.73 l 0,0.28 c 7.558,2.66 13.011,8.11 13.011,16.65 0,13.29 -11.332,21.27 -28.261,21.27 -16.793,0 -28.262,-7.98 -28.262,-21.27 0,-8.54 5.453,-13.99 13.008,-16.65 l 0,-0.28 c -9.512,-2.38 -15.809,-9.8 -15.809,-19.73 0,-14.83 13.012,-23.79 31.063,-23.79 z m 0,37.5 c 7.277,0 14.828,-3.08 14.828,-12.31 0,-9.24 -7.551,-12.31 -14.828,-12.31 -7.274,0 -14.833,3.07 -14.833,12.31 0,9.23 7.559,12.31 14.833,12.31 z m 0,32.18 c 6.996,0 12.871,-3.35 12.871,-10.91 0,-7.56 -5.875,-10.92 -12.871,-10.92 -6.997,0 -12.872,3.36 -12.872,10.92 0,7.56 5.875,10.91 12.872,10.91"
             inkscape:connector-curvature="0"
             id="path32"
             style="fill:#231f20;fill-opacity:1;fill-rule:nonzero;stroke:none" /><path
             d="M 4818.9,7795.27 0,7795.27"
             inkscape:connector-curvature="0"
             id="path34"
             style="fill:none;stroke:#231f20;stroke-width:2;stroke-linecap:butt;stroke-linejoin:miter;stroke-miterlimit:4;stroke-opacity:1;stroke-dasharray:none" /><g
             transform="scale(10,10)"
             id="g36"><text
               transform="matrix(1,0,0,-1,68.6184,636.353)"
               id="text38"><tspan
                 x="0 7 13.860156 20.09037 25.620468 31.851114 38.361271 44.239841 144.52814 151.52814 158.38829 164.61852 170.149 176.37965 182.67964 188.63033 289.05933 296.05933 303.05933 309.49918 316.00797 321.95798 327.20947"
                 y="0"
                 id="tspan40"
                 style="font-size:7px;font-variant:normal;writing-mode:lr-tb;fill:#231f20;fill-opacity:1;fill-rule:nonzero;stroke:none;font-family:TakaoPGothic;-inkscape-font-specification:TakaoPGothic-90ms-RKSJ-H">安全バーを閉める安全バーを開ける徒歩客は降りる</tspan><tspan
                 x="-0.55976599 5.3206048 11.479804 17.850136 24.708788 30.728712 36.959354 43.46912 49.627911 143.96622 149.84697 156.00578 162.09642 168.25688 174.20729 180.71608 186.66608 191.91757"
                 y="189.92101"
                 id="tspan42"
                 style="font-size:7px;font-variant:normal;writing-mode:lr-tb;fill:#231f20;fill-opacity:1;fill-rule:nonzero;stroke:none;font-family:TakaoPGothic;-inkscape-font-specification:TakaoPGothic-90ms-RKSJ-H">スキーの先を上げるスキーヤーは降りる</tspan></text>
<text
               transform="matrix(1,0,0,-1,68.6184,627.849)"
               id="text44"><tspan
                 x="0 5.3339992 7.1679702 11.33985 15.119849 19.291847 21.517847 25.297649 29.469919 31.695919 35.867916 38.093918 41.873917 44.099915 48.271915 52.443913 55.054722 144.52852 150.25452 154.42657 158.59885 162.77071 164.9967 168.77657 172.94884 175.17484 179.34683 181.57283 185.35283 187.57884 191.75084 195.92284 198.53365 289.05765 294.78342 298.95532 301.18149 303.40765 307.57965 309.80566 312.03159"
                 y="0"
                 id="tspan46"
                 style="font-size:7px;font-variant:normal;font-weight:normal;writing-mode:lr-tb;fill:#231f20;fill-opacity:1;fill-rule:nonzero;stroke:none;font-family:Helvetica;-inkscape-font-specification:Helvetica">Close safety bar Open safety bar Get off </tspan><tspan
                 x="-0.00041000001 5.3335767 9.5054531 11.33939 15.119389 19.291388 21.517387 25.297386 29.077385 30.911289 33.13707 35.363243 37.197224 41.369095 45.149174 144.52817 149.47729 153.25729 155.09135 159.26323 161.87416 165.65416 167.88002 172.05229 176.22339 180.00423 184.17622 186.40227 188.62828 192.80032 195.02611 199.1972 203.36909 205.59526 207.82104 211.99332 214.21933 216.44534"
                 y="189.92101"
                 id="tspan48"
                 style="font-size:7px;font-variant:normal;font-weight:normal;writing-mode:lr-tb;fill:#231f20;fill-opacity:1;fill-rule:nonzero;stroke:none;font-family:Helvetica;-inkscape-font-specification:Helvetica">Raise ski tips Skiers have to get off </tspan></text>
<text
               transform="matrix(1,0,0,-1,6.17972,765.218)"
               id="text50"><tspan
                 x="0 8"
                 y="0"
                 id="tspan52"
                 style="font-size:8px;font-variant:normal;writing-mode:lr-tb;fill:#231f20;fill-opacity:1;fill-rule:nonzero;stroke:none;font-family:TakaoPGothic;-inkscape-font-specification:TakaoPGothic-90ms-RKSJ-H">参考</tspan></text>
<text
               transform="matrix(1,0,0,-1,299.82072,642.086)"
               id="text54"><tspan
                 x="0 -144.567"
                 y="0"
                 id="tspan56"
                 style="font-size:7px;font-variant:normal;writing-mode:lr-tb;fill:#231f20;fill-opacity:1;fill-rule:nonzero;stroke:none;font-family:TakaoPGothic;-inkscape-font-specification:TakaoPGothic-90ms-RKSJ-H">※※</tspan><tspan
                 x="0 -144.567"
                 y="189.92101"
                 id="tspan58"
                 style="font-size:7px;font-variant:normal;writing-mode:lr-tb;fill:#231f20;fill-opacity:1;fill-rule:nonzero;stroke:none;font-family:TakaoPGothic;-inkscape-font-specification:TakaoPGothic-90ms-RKSJ-H">※※</tspan></text>
</g><path
             d="M 4818.9,340.16 4818.9,0"
             inkscape:connector-curvature="0"
             id="path60"
             style="fill:none;stroke:#231f20;stroke-width:2;stroke-linecap:butt;stroke-linejoin:miter;stroke-miterlimit:4;stroke-opacity:1;stroke-dasharray:none" /><g
             transform="scale(10,10)"
             id="g62"><text
               transform="matrix(1,0,0,-1,444.388,642.086)"
               id="text64"><tspan
                 x="0"
                 y="0"
                 id="tspan66"
                 style="font-size:7px;font-variant:normal;writing-mode:lr-tb;fill:#231f20;fill-opacity:1;fill-rule:nonzero;stroke:none;font-family:TakaoPGothic;-inkscape-font-specification:TakaoPGothic-90ms-RKSJ-H">※</tspan></text>
</g><path
             d="m 623.562,6505.26 992.379,0 0,992.375 -992.379,0 0,-992.375 z"
             inkscape:connector-curvature="0"
             id="path68"
             style="fill:none;stroke:#231f20;stroke-width:2;stroke-linecap:butt;stroke-linejoin:miter;stroke-miterlimit:4;stroke-opacity:1;stroke-dasharray:none" /><path
             d="m 1090.57,7163.23 c 0,-33.23 -26.93,-60.17 -60.15,-60.17 -33.221,0 -60.154,26.94 -60.154,60.17 0,33.23 26.933,60.16 60.154,60.16 33.22,0 60.15,-26.93 60.15,-60.16"
             inkscape:connector-curvature="0"
             id="path70"
             style="fill:#231f20;fill-opacity:1;fill-rule:nonzero;stroke:none" /><path
             d="m 1232.94,6837.53 -124.97,0 0,183.39 c 0,10.37 -2.5,20.14 -6.84,28.83 l 91.38,74.76 c 8.47,6.92 11.44,18.58 7.33,28.72 l -54.43,134.12 c -5.19,12.78 -19.78,18.95 -32.56,13.75 -9.72,-3.94 -15.6,-13.29 -15.6,-23.16 0,-3.14 0.61,-6.3 1.86,-9.4 0,0 36.95,-91.01 47.49,-117.03 -14.18,-11.59 -55.45,-45.36 -84.07,-68.76 -6.1,1.89 -12.61,2.94 -19.34,2.94 -35.76,0 -64.768,-29.01 -64.768,-64.77 l 0,-195.25 c 0,-35.78 29.008,-64.77 64.768,-64.77 l 165.12,0 0,-148.71 c 0,-17.13 13.89,-31.01 31.02,-31.01 17.14,0 31.03,13.88 31.03,31.01 l 0,187.93 c 0,20.66 -16.75,37.41 -37.42,37.41"
             inkscape:connector-curvature="0"
             id="path72"
             style="fill:#231f20;fill-opacity:1;fill-rule:nonzero;stroke:none" /><path
             d="m 1423.87,7122.38 c -30.63,126.04 -84.28,178.35 -129.24,222.12 l -3.41,3.3 -79.62,-81.68 3.45,-3.35 c 38.46,-37.45 75.29,-73.33 97.84,-165.81 l -61.47,-7.26 142.57,-86.93 88.27,139.88 -58.39,-20.27"
             inkscape:connector-curvature="0"
             id="path74"
             style="fill:#231f20;fill-opacity:1;fill-rule:nonzero;stroke:none" /><path
             d="m 951.297,7294.42 0,172.79 -43.453,0 0,-188.7 c 12.844,4.66 27.554,10.08 43.453,15.91"
             inkscape:connector-curvature="0"
             id="path76"
             style="fill:#231f20;fill-opacity:1;fill-rule:nonzero;stroke:none" /><path
             d="m 951.297,6833.05 0,392.06 c -16.313,-6 -31.113,-11.4 -43.453,-15.91 l 0,-204.01 -58.004,159.32 c -6.317,17.37 -8.25,28.23 -5.887,33.23 2.93,6.2 17.555,12.06 29.969,16.47 38.16,13.53 333.968,122.52 336.958,123.63 l -11.26,30.59 c -3,-1.11 -298.628,-110.03 -336.589,-123.5 -24.375,-8.65 -40.984,-17.25 -48.554,-33.29 -7.723,-16.37 -3.68,-35.12 4.73,-58.26 l 88.637,-243.45 0,-76.88 c 0,-90.2 46.289,-139.88 130.376,-139.88 l 141.23,0 0,43.45 -141.23,0 c -59.31,0 -86.923,30.63 -86.923,96.43"
             inkscape:connector-curvature="0"
             id="path78"
             style="fill:#231f20;fill-opacity:1;fill-rule:nonzero;stroke:none" /><path
             d="m 2068.85,6505.26 992.379,0 0,992.375 -992.379,0 0,-992.375 z"
             inkscape:connector-curvature="0"
             id="path80"
             style="fill:none;stroke:#231f20;stroke-width:2;stroke-linecap:butt;stroke-linejoin:miter;stroke-miterlimit:4;stroke-opacity:1;stroke-dasharray:none" /><path
             d="m 2862.71,7247.02 c 83.74,-99.03 98.04,-174.89 103.84,-255.4 l -112.92,-0.79 -0.67,4.78 c -7.57,53.14 -14.84,104.04 -76.21,176.78 l -42.14,-45.33 13.9,166.39 165.03,-11.18 -50.83,-35.25"
             inkscape:connector-curvature="0"
             id="path82"
             style="fill:#231f20;fill-opacity:1;fill-rule:nonzero;stroke:none" /><path
             d="m 2496.8,7197.05 c 0,-33.23 -26.95,-60.16 -60.16,-60.16 -33.23,0 -60.17,26.93 -60.17,60.16 0,33.24 26.94,60.16 60.17,60.16 33.21,0 60.16,-26.92 60.16,-60.16"
             inkscape:connector-curvature="0"
             id="path84"
             style="fill:#231f20;fill-opacity:1;fill-rule:nonzero;stroke:none" /><path
             d="m 2301.3,7467.21 0,-600.34 c 0,-90.2 46.31,-139.88 130.36,-139.88 l 141.22,0 0,43.45 -141.22,0 c -59.29,0 -86.91,30.63 -86.91,96.43 l 0,600.34 -43.45,0"
             inkscape:connector-curvature="0"
             id="path86"
             style="fill:#231f20;fill-opacity:1;fill-rule:nonzero;stroke:none" /><path
             d="m 2614.14,7131.45 c -17.14,19.36 -31.31,31.58 -49.04,32.6 -18.04,1.04 -33.92,-9.71 -52.25,-26.17 l -165.4,-148.02 21.81,-24.22 165.37,147.99 c 13.73,12.34 23.09,18.19 28.6,17.88 6.86,-0.4 17.77,-11.78 26.48,-21.64 26.84,-30.31 238.52,-263.95 240.65,-266.31 l 24.16,21.89 c -2.14,2.36 -213.71,235.83 -240.38,266"
             inkscape:connector-curvature="0"
             id="path88"
             style="fill:#231f20;fill-opacity:1;fill-rule:nonzero;stroke:none" /><path
             d="m 2467.19,7111.81 c -9.12,4.89 -19.49,7.7 -30.55,7.7 -35.78,0 -64.79,-29 -64.79,-64.78 l 0,-28.22 95.34,85.3"
             inkscape:connector-curvature="0"
             id="path90"
             style="fill:#231f20;fill-opacity:1;fill-rule:nonzero;stroke:none" /><path
             d="m 2693.41,6983.8 c 0,0 -110.21,7.58 -126.21,8.65 -7.64,7.74 -43.83,44.35 -66.02,66.78 -0.2,2.91 -0.66,5.77 -1.22,8.57 l -128.11,-114.63 0,-93.67 c 0,-35.77 29.01,-64.78 64.79,-64.78 l 165.12,0 0,-148.7 c 0,-17.13 13.89,-31.03 31.03,-31.03 17.14,0 31.02,13.9 31.02,31.03 l 0,187.94 c 0,20.65 -16.75,37.4 -37.42,37.4 l -124.97,0 0,118.1 37.5,-37.94 c 4.19,-4.22 9.78,-6.79 15.72,-7.19 l 135.43,-9.3 c 13.47,-0.91 25.14,9.25 26.06,22.72 0.05,0.56 0.08,1.13 0.08,1.7 0,12.71 -9.89,23.48 -22.8,24.35"
             inkscape:connector-curvature="0"
             id="path92"
             style="fill:#231f20;fill-opacity:1;fill-rule:nonzero;stroke:none" /><path
             d="m 3514.45,6504.95 992.383,0 0,992.371 -992.383,0 0,-992.371 z"
             inkscape:connector-curvature="0"
             id="path94"
             style="fill:none;stroke:#231f20;stroke-width:2;stroke-linecap:butt;stroke-linejoin:miter;stroke-miterlimit:4;stroke-opacity:1;stroke-dasharray:none" /><path
             d="m 3743.92,7467.01 0,-60.28 c 0,-14.54 -1.66,-17.15 -13.65,-21.52 -15.32,-5.56 -34.48,-13.62 -60.3,-25.36 l -4.84,-2.12 c -17.57,-7.62 -54.15,-23.45 -54.15,-66.93 l 0,-352.42 c 0,-57.41 58.99,-120.46 112.72,-120.46 l 156.13,0 0,43.05 -156.13,0 c -28.14,0 -69.67,40.77 -69.67,77.41 l 0,352.42 c 0,12.91 7.39,18.41 28.2,27.43 l 5.56,2.44 c 24.77,11.25 42.94,18.93 57.16,24.1 37.24,13.53 42.02,40.21 42.02,61.96 l 0,60.28 -43.05,0"
             inkscape:connector-curvature="0"
             id="path96"
             style="fill:#231f20;fill-opacity:1;fill-rule:nonzero;stroke:none" /><path
             d="m 4231.61,7328.42 c 0,-33.24 -26.95,-60.22 -60.21,-60.22 -33.25,0 -60.21,26.98 -60.21,60.22 0,33.25 26.96,60.21 60.21,60.21 33.26,0 60.21,-26.96 60.21,-60.21"
             inkscape:connector-curvature="0"
             id="path98"
             style="fill:#231f20;fill-opacity:1;fill-rule:nonzero;stroke:none" /><path
             d="m 4378.89,7100.09 c 0,0 -109.69,0 -132.35,0 -6.37,10.8 -28.4,48.05 -47.31,80.05 3.99,32.56 -17.08,63.58 -49.76,71.27 -35.05,8.24 -70.11,-13.47 -78.35,-48.5 l -44.48,-170.42 c -4.24,-18.06 -0.48,-36.09 8.91,-50.49 -15.09,-59.94 -38.86,-154.22 -42.16,-167.32 -15.38,-12.09 -141.98,-111.56 -141.98,-111.56 -8.1,-6.36 -12.34,-15.83 -12.34,-25.4 0,-6.97 2.25,-14.01 6.9,-19.93 11.01,-14.01 31.31,-16.44 45.34,-5.43 l 150.64,118.37 c 5.62,4.41 9.61,10.56 11.35,17.49 l 35.12,139.36 c 31.19,-54.32 70.5,-122.88 75.22,-131.11 0,-15.75 0,-190.47 0,-190.47 0,-17.83 14.46,-32.29 32.3,-32.29 17.81,0 32.27,14.46 32.27,32.29 l 0,199.08 c 0,5.63 -1.47,11.16 -4.27,16.07 l -86.85,151.35 c 7.82,8.15 13.66,18.35 16.43,30.14 l 28.9,110.77 29.46,-49.84 c 4.37,-7.39 12.29,-11.91 20.84,-11.91 l 146.17,0 c 13.38,0 24.23,10.85 24.23,24.22 0,13.37 -10.85,24.21 -24.23,24.21"
             inkscape:connector-curvature="0"
             id="path100"
             style="fill:#231f20;fill-opacity:1;fill-rule:nonzero;stroke:none" /><path
             d="m 3983.36,7003.82 -107,107.02 0,-51.55 c -96.09,-1.35 -155.67,-66.17 -155.67,-169.93 l 107.61,0 c 0,59.34 27.82,62.25 48.06,62.37 l 0,-54.94 107,107.03"
             inkscape:connector-curvature="0"
             id="path102"
             style="fill:#231f20;fill-opacity:1;fill-rule:nonzero;stroke:none" /><path
             d="m 623.562,4606.05 992.379,0 0,992.371 -992.379,0 0,-992.371 z"
             inkscape:connector-curvature="0"
             id="path104"
             style="fill:none;stroke:#231f20;stroke-width:2;stroke-linecap:butt;stroke-linejoin:miter;stroke-miterlimit:4;stroke-opacity:1;stroke-dasharray:none" /><path
             d="m 942.766,5375.29 c 0,-33.66 -27.321,-60.96 -60.977,-60.96 -33.66,0 -60.973,27.3 -60.973,60.96 0,33.68 27.313,61.01 60.973,61.01 33.656,0 60.977,-27.33 60.977,-61.01"
             inkscape:connector-curvature="0"
             id="path106"
             style="fill:#231f20;fill-opacity:1;fill-rule:nonzero;stroke:none" /><path
             d="m 744.617,5040.65 c 0,-91.45 46.93,-141.78 132.129,-141.78 l 143.154,0 0,44.04 -143.154,0 c -60.117,0 -88.086,31.05 -88.086,97.74 l 0,524.99 -44.043,0 0,-524.99"
             inkscape:connector-curvature="0"
             id="path108"
             style="fill:#231f20;fill-opacity:1;fill-rule:nonzero;stroke:none" /><path
             d="m 1429.55,4899.01 c 0,-56.67 -25.25,-65.26 -60.95,-71.23 l -261.41,-42.86 0,222.38 c 0,20.9 -17,37.91 -37.96,37.91 l -121.792,0 0,46.44 91.132,0 c 13.59,0 24.57,10.98 24.57,24.57 0,13.58 -10.98,24.58 -24.57,24.58 l -91.132,0 0,90.27 c 0,36.23 -29.399,65.65 -65.649,65.65 -36.227,0 -65.633,-29.42 -65.633,-65.65 l 0,-197.91 c 0,-36.25 29.406,-65.65 65.633,-65.65 l 162.501,0 0,-192.91 -283.583,-46.53 4.422,-26.95 607.951,99.74 c 43.54,7.23 83.8,24.15 83.8,98.15 l -27.33,0"
             inkscape:connector-curvature="0"
             id="path110"
             style="fill:#231f20;fill-opacity:1;fill-rule:nonzero;stroke:none" /><path
             d="m 1563.19,5043.82 -122.03,121.99 -121.98,-122 59.85,0 0,-105.19 124.29,0 0,105.2 59.87,0"
             inkscape:connector-curvature="0"
             id="path112"
             style="fill:#231f20;fill-opacity:1;fill-rule:nonzero;stroke:none" /><path
             d="m 2068.85,4606.05 992.379,0 0,992.371 -992.379,0 0,-992.371 z"
             inkscape:connector-curvature="0"
             id="path114"
             style="fill:none;stroke:#231f20;stroke-width:2;stroke-linecap:butt;stroke-linejoin:miter;stroke-miterlimit:4;stroke-opacity:1;stroke-dasharray:none" /><path
             d="m 2815.96,5399.89 c 0,-34.75 -28.13,-62.93 -62.87,-62.93 -34.73,0 -62.95,28.18 -62.95,62.93 0,34.75 28.22,62.93 62.95,62.93 34.74,0 62.87,-28.18 62.87,-62.93"
             inkscape:connector-curvature="0"
             id="path116"
             style="fill:#231f20;fill-opacity:1;fill-rule:nonzero;stroke:none" /><path
             d="m 2854.88,4686.24 c -21.67,6.07 -122.09,34.78 -232.78,66.47 l 146.31,152.57 c 6.47,6.74 9.95,15.75 9.74,25.07 -0.23,9.31 -4.17,18.15 -10.94,24.55 l -105.72,105.88 c 0.96,1.58 73.24,147.33 73.24,147.33 l 46.91,-59.97 c 4.85,-6.18 12.27,-9.79 20.14,-9.79 l 133.83,0 -187.79,-392.08 19.39,-9.31 192.27,401.39 0.03,0 c 14.06,0 25.54,11.44 25.54,25.55 0,14.12 -11.48,25.56 -25.54,25.56 0,0 -118.1,0 -139.23,0 -7.66,9.83 -38.88,49.71 -63.32,80.89 -0.65,23.58 -14.02,46.06 -36.63,57.25 -32.61,16.14 -72.14,2.8 -88.31,-29.84 l -85.93,-173.61 c -9.53,-19.2 -13.33,-51.97 17.13,-79.69 3.32,-3.02 101.24,-88.68 130.35,-116.2 -31.6,-32.92 -126,-131.45 -147.42,-153.8 -133.41,38.22 -259.39,74.35 -261.96,75.09 l -7.42,-25.86 c 5.18,-1.48 518.31,-148.64 570.86,-163.36 56.63,-15.85 91.53,-14.15 137.07,38.36 l -20.34,17.62 c -38.36,-44.24 -62.81,-43.14 -109.48,-30.07"
             inkscape:connector-curvature="0"
             id="path118"
             style="fill:#231f20;fill-opacity:1;fill-rule:nonzero;stroke:none" /><path
             d="m 2269.13,5571.59 0,-60.08 0.04,-3.93 c 0.11,-22.46 -1.31,-24.37 -11.29,-27.36 l -0.76,-0.21 -74.56,-27.86 0.97,0.35 c -28.46,-9.18 -61.17,-26.59 -61.17,-80.04 l 0,-359.39 c 0,-56.26 53.25,-105.6 113.96,-105.6 l 154.17,0 0,45.74 -154.17,0 c -35.69,0 -68.23,28.52 -68.23,59.86 l 0,359.39 c 0,21.46 6.09,28.97 29.47,36.51 l 0.5,0.17 74.38,27.76 -1.43,-0.48 c 44.19,13.24 43.99,51.08 43.9,71.4 l -0.03,3.69 0,60.08 -45.75,0"
             inkscape:connector-curvature="0"
             id="path120"
             style="fill:#231f20;fill-opacity:1;fill-rule:nonzero;stroke:none" /><path
             d="m 2494.71,5091.87 -107.01,107.01 0,-51.53 c -96.1,-1.36 -155.68,-66.18 -155.68,-169.94 l 107.61,0 c 0,59.34 27.83,62.25 48.07,62.38 l 0,-54.95 107.01,107.03"
             inkscape:connector-curvature="0"
             id="path122"
             style="fill:#231f20;fill-opacity:1;fill-rule:nonzero;stroke:none" /><path
             d="m 311.371,510.82 0,7256.69"
             inkscape:connector-curvature="0"
             id="path124"
             style="fill:none;stroke:#231f20;stroke-width:2;stroke-linecap:butt;stroke-linejoin:miter;stroke-miterlimit:4;stroke-opacity:1;stroke-dasharray:none" /><g
             transform="scale(10,10)"
             id="g126"><text
               transform="matrix(1,0,0,-1,483.307,29.7641)"
               id="text128"><tspan
                 x="0 3.336"
                 y="0"
                 id="tspan130"
                 style="font-size:6px;font-variant:normal;font-weight:normal;writing-mode:lr-tb;fill:#231f20;fill-opacity:1;fill-rule:nonzero;stroke:none;font-family:Helvetica;-inkscape-font-specification:Helvetica">20</tspan></text>
</g></g></g></g></g></svg>